<?xml version="1.0" encoding="UTF-8" standalone="no"?>
<!DOCTYPE svg PUBLIC "-//W3C//DTD SVG 1.1//EN"
 "http://www.w3.org/Graphics/SVG/1.1/DTD/svg11.dtd">
<!-- Generated by graphviz version 2.38.0 (20140413.2041)
 -->
<!-- Title: controllers_diagram Pages: 1 -->
<svg width="807pt" height="737pt"
 viewBox="0.00 0.00 806.82 737.00" xmlns="http://www.w3.org/2000/svg" xmlns:xlink="http://www.w3.org/1999/xlink">
<g id="graph0" class="graph" transform="scale(1 1) rotate(0) translate(356.324 381.5)">
<title>controllers_diagram</title>
<polygon fill="none" stroke="none" points="-356.324,355.5 -356.324,-381.5 450.497,-381.5 450.497,355.5 -356.324,355.5"/>
<!-- _diagram_info -->
<g id="node1" class="node"><title>_diagram_info</title>
<text text-anchor="start" x="-215.688" y="164.9" font-family="Times,serif" font-size="13.00">Controllers diagram</text>
<text text-anchor="start" x="-215.688" y="177.9" font-family="Times,serif" font-size="13.00">Date: May 09 2016 &#45; 21:58</text>
<text text-anchor="start" x="-215.688" y="190.9" font-family="Times,serif" font-size="13.00">Migration version: 20160510000125</text>
<text text-anchor="start" x="-215.688" y="203.9" font-family="Times,serif" font-size="13.00">Generated by RailRoady 1.4.2</text>
<text text-anchor="start" x="-215.688" y="216.9" font-family="Times,serif" font-size="13.00">http://railroady.prestonlee.com</text>
</g>
<!-- ApplicationController -->
<g id="node2" class="node"><title>ApplicationController</title>
<path fill="none" stroke="black" d="M284.179,-273C284.179,-273 399.821,-273 399.821,-273 405.821,-273 411.821,-279 411.821,-285 411.821,-285 411.821,-353 411.821,-353 411.821,-359 405.821,-365 399.821,-365 399.821,-365 284.179,-365 284.179,-365 278.179,-365 272.179,-359 272.179,-353 272.179,-353 272.179,-285 272.179,-285 272.179,-279 278.179,-273 284.179,-273"/>
<text text-anchor="middle" x="342" y="-349.8" font-family="Times,serif" font-size="14.00">ApplicationController</text>
<polyline fill="none" stroke="black" points="272.179,-343 411.821,-343 "/>
<polyline fill="none" stroke="black" points="272.179,-319 411.821,-319 "/>
<polyline fill="none" stroke="black" points="272.179,-295 411.821,-295 "/>
<text text-anchor="start" x="280.179" y="-279.8" font-family="Times,serif" font-size="14.00">_layout</text>
</g>
<!-- CommentsController -->
<g id="node3" class="node"><title>CommentsController</title>
<path fill="none" stroke="black" d="M-212.107,-97C-212.107,-97 -101.893,-97 -101.893,-97 -95.8931,-97 -89.8931,-103 -89.8931,-109 -89.8931,-109 -89.8931,-203 -89.8931,-203 -89.8931,-209 -95.8931,-215 -101.893,-215 -101.893,-215 -212.107,-215 -212.107,-215 -218.107,-215 -224.107,-209 -224.107,-203 -224.107,-203 -224.107,-109 -224.107,-109 -224.107,-103 -218.107,-97 -212.107,-97"/>
<text text-anchor="middle" x="-157" y="-199.8" font-family="Times,serif" font-size="14.00">CommentsController</text>
<polyline fill="none" stroke="black" points="-224.107,-193 -89.8931,-193 "/>
<text text-anchor="start" x="-216.107" y="-177.8" font-family="Times,serif" font-size="14.00">create</text>
<text text-anchor="start" x="-216.107" y="-163.8" font-family="Times,serif" font-size="14.00">destroy</text>
<polyline fill="none" stroke="black" points="-224.107,-157 -89.8931,-157 "/>
<polyline fill="none" stroke="black" points="-224.107,-133 -89.8931,-133 "/>
<text text-anchor="start" x="-216.107" y="-117.8" font-family="Times,serif" font-size="14.00">_layout</text>
<text text-anchor="start" x="-216.107" y="-103.8" font-family="Times,serif" font-size="14.00">comment_params</text>
</g>
<!-- LikesController -->
<g id="node4" class="node"><title>LikesController</title>
<path fill="none" stroke="black" d="M-340.324,351C-340.324,351 -259.676,351 -259.676,351 -253.676,351 -247.676,345 -247.676,339 -247.676,339 -247.676,273 -247.676,273 -247.676,267 -253.676,261 -259.676,261 -259.676,261 -340.324,261 -340.324,261 -346.324,261 -352.324,267 -352.324,273 -352.324,273 -352.324,339 -352.324,339 -352.324,345 -346.324,351 -340.324,351"/>
<text text-anchor="middle" x="-300" y="276.2" font-family="Times,serif" font-size="14.00">LikesController</text>
<polyline fill="none" stroke="black" points="-352.324,283 -247.676,283 "/>
<text text-anchor="start" x="-344.324" y="298.2" font-family="Times,serif" font-size="14.00">create</text>
<polyline fill="none" stroke="black" points="-352.324,305 -247.676,305 "/>
<polyline fill="none" stroke="black" points="-352.324,329 -247.676,329 "/>
<text text-anchor="start" x="-344.324" y="344.2" font-family="Times,serif" font-size="14.00">_layout</text>
</g>
<!-- Products::CommentsController -->
<g id="node5" class="node"><title>Products::CommentsController</title>
<path fill="none" stroke="black" d="M267.503,95C267.503,95 434.497,95 434.497,95 440.497,95 446.497,89 446.497,83 446.497,83 446.497,1 446.497,1 446.497,-5 440.497,-11 434.497,-11 434.497,-11 267.503,-11 267.503,-11 261.503,-11 255.503,-5 255.503,1 255.503,1 255.503,83 255.503,83 255.503,89 261.503,95 267.503,95"/>
<text text-anchor="middle" x="351" y="4.2" font-family="Times,serif" font-size="14.00">Products::CommentsController</text>
<polyline fill="none" stroke="black" points="255.503,11 446.497,11 "/>
<polyline fill="none" stroke="black" points="255.503,35 446.497,35 "/>
<polyline fill="none" stroke="black" points="255.503,59 446.497,59 "/>
<text text-anchor="start" x="263.503" y="74.2" font-family="Times,serif" font-size="14.00">_layout</text>
<text text-anchor="start" x="263.503" y="88.2" font-family="Times,serif" font-size="14.00">set_commentable</text>
</g>
<!-- Products::LikesController -->
<g id="node6" class="node"><title>Products::LikesController</title>
<path fill="none" stroke="black" d="M-227.714,-241C-227.714,-241 -90.2861,-241 -90.2861,-241 -84.2861,-241 -78.2861,-247 -78.2861,-253 -78.2861,-253 -78.2861,-335 -78.2861,-335 -78.2861,-341 -84.2861,-347 -90.2861,-347 -90.2861,-347 -227.714,-347 -227.714,-347 -233.714,-347 -239.714,-341 -239.714,-335 -239.714,-335 -239.714,-253 -239.714,-253 -239.714,-247 -233.714,-241 -227.714,-241"/>
<text text-anchor="middle" x="-159" y="-331.8" font-family="Times,serif" font-size="14.00">Products::LikesController</text>
<polyline fill="none" stroke="black" points="-239.714,-325 -78.2861,-325 "/>
<polyline fill="none" stroke="black" points="-239.714,-301 -78.2861,-301 "/>
<polyline fill="none" stroke="black" points="-239.714,-277 -78.2861,-277 "/>
<text text-anchor="start" x="-231.714" y="-261.8" font-family="Times,serif" font-size="14.00">_layout</text>
<text text-anchor="start" x="-231.714" y="-247.8" font-family="Times,serif" font-size="14.00">set_likeable</text>
</g>
<!-- ProductsController -->
<g id="node7" class="node"><title>ProductsController</title>
<path fill="none" stroke="black" d="M107.728,95C107.728,95 206.272,95 206.272,95 212.272,95 218.272,89 218.272,83 218.272,83 218.272,-95 218.272,-95 218.272,-101 212.272,-107 206.272,-107 206.272,-107 107.728,-107 107.728,-107 101.728,-107 95.7275,-101 95.7275,-95 95.7275,-95 95.7275,83 95.7275,83 95.7275,89 101.728,95 107.728,95"/>
<text text-anchor="middle" x="157" y="-91.8" font-family="Times,serif" font-size="14.00">ProductsController</text>
<polyline fill="none" stroke="black" points="95.7275,-85 218.272,-85 "/>
<text text-anchor="start" x="103.728" y="-69.8" font-family="Times,serif" font-size="14.00">index</text>
<text text-anchor="start" x="103.728" y="-55.8" font-family="Times,serif" font-size="14.00">destroy</text>
<text text-anchor="start" x="103.728" y="-41.8" font-family="Times,serif" font-size="14.00">edit</text>
<text text-anchor="start" x="103.728" y="-27.8" font-family="Times,serif" font-size="14.00">create</text>
<text text-anchor="start" x="103.728" y="-13.8" font-family="Times,serif" font-size="14.00">new</text>
<text text-anchor="start" x="103.728" y="0.2" font-family="Times,serif" font-size="14.00">show</text>
<text text-anchor="start" x="103.728" y="14.2" font-family="Times,serif" font-size="14.00">update</text>
<polyline fill="none" stroke="black" points="95.7275,21 218.272,21 "/>
<polyline fill="none" stroke="black" points="95.7275,45 218.272,45 "/>
<text text-anchor="start" x="103.728" y="60.2" font-family="Times,serif" font-size="14.00">_layout</text>
<text text-anchor="start" x="103.728" y="74.2" font-family="Times,serif" font-size="14.00">product_params</text>
<text text-anchor="start" x="103.728" y="88.2" font-family="Times,serif" font-size="14.00">set_product</text>
</g>
<!-- Stores::CommentsController -->
<g id="node8" class="node"><title>Stores::CommentsController</title>
<path fill="none" stroke="black" d="M107.503,239C107.503,239 260.497,239 260.497,239 266.497,239 272.497,233 272.497,227 272.497,227 272.497,145 272.497,145 272.497,139 266.497,133 260.497,133 260.497,133 107.503,133 107.503,133 101.503,133 95.5034,139 95.5034,145 95.5034,145 95.5034,227 95.5034,227 95.5034,233 101.503,239 107.503,239"/>
<text text-anchor="middle" x="184" y="148.2" font-family="Times,serif" font-size="14.00">Stores::CommentsController</text>
<polyline fill="none" stroke="black" points="95.5034,155 272.497,155 "/>
<polyline fill="none" stroke="black" points="95.5034,179 272.497,179 "/>
<polyline fill="none" stroke="black" points="95.5034,203 272.497,203 "/>
<text text-anchor="start" x="103.503" y="218.2" font-family="Times,serif" font-size="14.00">_layout</text>
<text text-anchor="start" x="103.503" y="232.2" font-family="Times,serif" font-size="14.00">set_commentable</text>
</g>
<!-- Stores::LikesController -->
<g id="node9" class="node"><title>Stores::LikesController</title>
<path fill="none" stroke="black" d="M-227.714,47C-227.714,47 -104.286,47 -104.286,47 -98.2861,47 -92.2861,41 -92.2861,35 -92.2861,35 -92.2861,-47 -92.2861,-47 -92.2861,-53 -98.2861,-59 -104.286,-59 -104.286,-59 -227.714,-59 -227.714,-59 -233.714,-59 -239.714,-53 -239.714,-47 -239.714,-47 -239.714,35 -239.714,35 -239.714,41 -233.714,47 -227.714,47"/>
<text text-anchor="middle" x="-166" y="-43.8" font-family="Times,serif" font-size="14.00">Stores::LikesController</text>
<polyline fill="none" stroke="black" points="-239.714,-37 -92.2861,-37 "/>
<polyline fill="none" stroke="black" points="-239.714,-13 -92.2861,-13 "/>
<polyline fill="none" stroke="black" points="-239.714,11 -92.2861,11 "/>
<text text-anchor="start" x="-231.714" y="26.2" font-family="Times,serif" font-size="14.00">_layout</text>
<text text-anchor="start" x="-231.714" y="40.2" font-family="Times,serif" font-size="14.00">set_likeable</text>
</g>
<!-- StoresController -->
<g id="node10" class="node"><title>StoresController</title>
<path fill="none" stroke="black" d="M-36.2725,-129C-36.2725,-129 48.2725,-129 48.2725,-129 54.2725,-129 60.2725,-135 60.2725,-141 60.2725,-141 60.2725,-319 60.2725,-319 60.2725,-325 54.2725,-331 48.2725,-331 48.2725,-331 -36.2725,-331 -36.2725,-331 -42.2725,-331 -48.2725,-325 -48.2725,-319 -48.2725,-319 -48.2725,-141 -48.2725,-141 -48.2725,-135 -42.2725,-129 -36.2725,-129"/>
<text text-anchor="middle" x="6" y="-315.8" font-family="Times,serif" font-size="14.00">StoresController</text>
<polyline fill="none" stroke="black" points="-48.2725,-309 60.2725,-309 "/>
<text text-anchor="start" x="-40.2725" y="-293.8" font-family="Times,serif" font-size="14.00">index</text>
<text text-anchor="start" x="-40.2725" y="-279.8" font-family="Times,serif" font-size="14.00">destroy</text>
<text text-anchor="start" x="-40.2725" y="-265.8" font-family="Times,serif" font-size="14.00">edit</text>
<text text-anchor="start" x="-40.2725" y="-251.8" font-family="Times,serif" font-size="14.00">create</text>
<text text-anchor="start" x="-40.2725" y="-237.8" font-family="Times,serif" font-size="14.00">new</text>
<text text-anchor="start" x="-40.2725" y="-223.8" font-family="Times,serif" font-size="14.00">show</text>
<text text-anchor="start" x="-40.2725" y="-209.8" font-family="Times,serif" font-size="14.00">update</text>
<polyline fill="none" stroke="black" points="-48.2725,-203 60.2725,-203 "/>
<polyline fill="none" stroke="black" points="-48.2725,-179 60.2725,-179 "/>
<text text-anchor="start" x="-40.2725" y="-163.8" font-family="Times,serif" font-size="14.00">_layout</text>
<text text-anchor="start" x="-40.2725" y="-149.8" font-family="Times,serif" font-size="14.00">set_store</text>
<text text-anchor="start" x="-40.2725" y="-135.8" font-family="Times,serif" font-size="14.00">store_params</text>
</g>
<!-- TagsController -->
<g id="node11" class="node"><title>TagsController</title>
<path fill="none" stroke="black" d="M156.109,-273C156.109,-273 231.891,-273 231.891,-273 237.891,-273 243.891,-279 243.891,-285 243.891,-285 243.891,-365 243.891,-365 243.891,-371 237.891,-377 231.891,-377 231.891,-377 156.109,-377 156.109,-377 150.109,-377 144.109,-371 144.109,-365 144.109,-365 144.109,-285 144.109,-285 144.109,-279 150.109,-273 156.109,-273"/>
<text text-anchor="middle" x="194" y="-361.8" font-family="Times,serif" font-size="14.00">TagsController</text>
<polyline fill="none" stroke="black" points="144.109,-355 243.891,-355 "/>
<text text-anchor="start" x="152.109" y="-339.8" font-family="Times,serif" font-size="14.00">index</text>
<text text-anchor="start" x="152.109" y="-325.8" font-family="Times,serif" font-size="14.00">show</text>
<polyline fill="none" stroke="black" points="144.109,-319 243.891,-319 "/>
<polyline fill="none" stroke="black" points="144.109,-295 243.891,-295 "/>
<text text-anchor="start" x="152.109" y="-279.8" font-family="Times,serif" font-size="14.00">_layout</text>
</g>
<!-- Users::OmniauthCallbacksController -->
<g id="node12" class="node"><title>Users::OmniauthCallbacksController</title>
<path fill="none" stroke="black" d="M155.796,-145C155.796,-145 356.204,-145 356.204,-145 362.204,-145 368.204,-151 368.204,-157 368.204,-157 368.204,-223 368.204,-223 368.204,-229 362.204,-235 356.204,-235 356.204,-235 155.796,-235 155.796,-235 149.796,-235 143.796,-229 143.796,-223 143.796,-223 143.796,-157 143.796,-157 143.796,-151 149.796,-145 155.796,-145"/>
<text text-anchor="middle" x="256" y="-219.8" font-family="Times,serif" font-size="14.00">Users::OmniauthCallbacksController</text>
<polyline fill="none" stroke="black" points="143.796,-213 368.204,-213 "/>
<text text-anchor="start" x="151.796" y="-197.8" font-family="Times,serif" font-size="14.00">facebook</text>
<polyline fill="none" stroke="black" points="143.796,-191 368.204,-191 "/>
<polyline fill="none" stroke="black" points="143.796,-167 368.204,-167 "/>
<text text-anchor="start" x="151.796" y="-151.8" font-family="Times,serif" font-size="14.00">_layout</text>
</g>
<!-- UsersController -->
<g id="node13" class="node"><title>UsersController</title>
<path fill="none" stroke="black" d="M316.286,303C316.286,303 397.714,303 397.714,303 403.714,303 409.714,297 409.714,291 409.714,291 409.714,225 409.714,225 409.714,219 403.714,213 397.714,213 397.714,213 316.286,213 316.286,213 310.286,213 304.286,219 304.286,225 304.286,225 304.286,291 304.286,291 304.286,297 310.286,303 316.286,303"/>
<text text-anchor="middle" x="357" y="228.2" font-family="Times,serif" font-size="14.00">UsersController</text>
<polyline fill="none" stroke="black" points="304.286,235 409.714,235 "/>
<text text-anchor="start" x="312.286" y="250.2" font-family="Times,serif" font-size="14.00">show</text>
<polyline fill="none" stroke="black" points="304.286,257 409.714,257 "/>
<polyline fill="none" stroke="black" points="304.286,281 409.714,281 "/>
<text text-anchor="start" x="312.286" y="296.2" font-family="Times,serif" font-size="14.00">_layout</text>
</g>
<!-- WishlistsController -->
<g id="node14" class="node"><title>WishlistsController</title>
<path fill="none" stroke="black" d="M-51.5542,111C-51.5542,111 49.5542,111 49.5542,111 55.5542,111 61.5542,105 61.5542,99 61.5542,99 61.5542,-79 61.5542,-79 61.5542,-85 55.5542,-91 49.5542,-91 49.5542,-91 -51.5542,-91 -51.5542,-91 -57.5542,-91 -63.5542,-85 -63.5542,-79 -63.5542,-79 -63.5542,99 -63.5542,99 -63.5542,105 -57.5542,111 -51.5542,111"/>
<text text-anchor="middle" x="-1" y="-75.8" font-family="Times,serif" font-size="14.00">WishlistsController</text>
<polyline fill="none" stroke="black" points="-63.5542,-69 61.5542,-69 "/>
<text text-anchor="start" x="-55.5542" y="-53.8" font-family="Times,serif" font-size="14.00">index</text>
<text text-anchor="start" x="-55.5542" y="-39.8" font-family="Times,serif" font-size="14.00">destroy</text>
<text text-anchor="start" x="-55.5542" y="-25.8" font-family="Times,serif" font-size="14.00">edit</text>
<text text-anchor="start" x="-55.5542" y="-11.8" font-family="Times,serif" font-size="14.00">create</text>
<text text-anchor="start" x="-55.5542" y="2.2" font-family="Times,serif" font-size="14.00">new</text>
<text text-anchor="start" x="-55.5542" y="16.2" font-family="Times,serif" font-size="14.00">show</text>
<text text-anchor="start" x="-55.5542" y="30.2" font-family="Times,serif" font-size="14.00">update</text>
<polyline fill="none" stroke="black" points="-63.5542,37 61.5542,37 "/>
<polyline fill="none" stroke="black" points="-63.5542,61 61.5542,61 "/>
<text text-anchor="start" x="-55.5542" y="76.2" font-family="Times,serif" font-size="14.00">_layout</text>
<text text-anchor="start" x="-55.5542" y="90.2" font-family="Times,serif" font-size="14.00">set_wishlist</text>
<text text-anchor="start" x="-55.5542" y="104.2" font-family="Times,serif" font-size="14.00">wishlist_params</text>
</g>
</g>
</svg>
