<?xml version="1.0" encoding="UTF-8" standalone="no"?>
<!DOCTYPE svg PUBLIC "-//W3C//DTD SVG 1.1//EN"
 "http://www.w3.org/Graphics/SVG/1.1/DTD/svg11.dtd">
<!-- Generated by graphviz version 2.38.0 (20140413.2041)
 -->
<!-- Title: controllers_diagram Pages: 1 -->
<svg width="470pt" height="449pt"
 viewBox="0.00 0.00 469.89 449.00" xmlns="http://www.w3.org/2000/svg" xmlns:xlink="http://www.w3.org/1999/xlink">
<g id="graph0" class="graph" transform="scale(1 1) rotate(0) translate(156.688 241.5)">
<title>controllers_diagram</title>
<polygon fill="none" stroke="none" points="-156.688,207.5 -156.688,-241.5 313.204,-241.5 313.204,207.5 -156.688,207.5"/>
<!-- _diagram_info -->
<g id="node1" class="node"><title>_diagram_info</title>
<text text-anchor="start" x="-144.688" y="-212.1" font-family="Times,serif" font-size="13.00">Controllers diagram</text>
<text text-anchor="start" x="-144.688" y="-199.1" font-family="Times,serif" font-size="13.00">Date: Apr 28 2016 &#45; 21:39</text>
<text text-anchor="start" x="-144.688" y="-186.1" font-family="Times,serif" font-size="13.00">Migration version: 20160429003521</text>
<text text-anchor="start" x="-144.688" y="-173.1" font-family="Times,serif" font-size="13.00">Generated by RailRoady 1.4.2</text>
<text text-anchor="start" x="-144.688" y="-160.1" font-family="Times,serif" font-size="13.00">http://railroady.prestonlee.com</text>
</g>
<!-- ApplicationController -->
<g id="node2" class="node"><title>ApplicationController</title>
<path fill="none" stroke="black" d="M97.1792,203C97.1792,203 212.821,203 212.821,203 218.821,203 224.821,197 224.821,191 224.821,191 224.821,123 224.821,123 224.821,117 218.821,111 212.821,111 212.821,111 97.1792,111 97.1792,111 91.1792,111 85.1792,117 85.1792,123 85.1792,123 85.1792,191 85.1792,191 85.1792,197 91.1792,203 97.1792,203"/>
<text text-anchor="middle" x="155" y="126.2" font-family="Times,serif" font-size="14.00">ApplicationController</text>
<polyline fill="none" stroke="black" points="85.1792,133 224.821,133 "/>
<polyline fill="none" stroke="black" points="85.1792,157 224.821,157 "/>
<polyline fill="none" stroke="black" points="85.1792,181 224.821,181 "/>
<text text-anchor="start" x="93.1792" y="196.2" font-family="Times,serif" font-size="14.00">_layout</text>
</g>
<!-- ProductsController -->
<g id="node3" class="node"><title>ProductsController</title>
<path fill="none" stroke="black" d="M-56.2725,101C-56.2725,101 42.2725,101 42.2725,101 48.2725,101 54.2725,95 54.2725,89 54.2725,89 54.2725,-89 54.2725,-89 54.2725,-95 48.2725,-101 42.2725,-101 42.2725,-101 -56.2725,-101 -56.2725,-101 -62.2725,-101 -68.2725,-95 -68.2725,-89 -68.2725,-89 -68.2725,89 -68.2725,89 -68.2725,95 -62.2725,101 -56.2725,101"/>
<text text-anchor="middle" x="-7" y="-85.8" font-family="Times,serif" font-size="14.00">ProductsController</text>
<polyline fill="none" stroke="black" points="-68.2725,-79 54.2725,-79 "/>
<text text-anchor="start" x="-60.2725" y="-63.8" font-family="Times,serif" font-size="14.00">index</text>
<text text-anchor="start" x="-60.2725" y="-49.8" font-family="Times,serif" font-size="14.00">destroy</text>
<text text-anchor="start" x="-60.2725" y="-35.8" font-family="Times,serif" font-size="14.00">edit</text>
<text text-anchor="start" x="-60.2725" y="-21.8" font-family="Times,serif" font-size="14.00">create</text>
<text text-anchor="start" x="-60.2725" y="-7.8" font-family="Times,serif" font-size="14.00">new</text>
<text text-anchor="start" x="-60.2725" y="6.2" font-family="Times,serif" font-size="14.00">show</text>
<text text-anchor="start" x="-60.2725" y="20.2" font-family="Times,serif" font-size="14.00">update</text>
<polyline fill="none" stroke="black" points="-68.2725,27 54.2725,27 "/>
<polyline fill="none" stroke="black" points="-68.2725,51 54.2725,51 "/>
<text text-anchor="start" x="-60.2725" y="66.2" font-family="Times,serif" font-size="14.00">_layout</text>
<text text-anchor="start" x="-60.2725" y="80.2" font-family="Times,serif" font-size="14.00">product_params</text>
<text text-anchor="start" x="-60.2725" y="94.2" font-family="Times,serif" font-size="14.00">set_product</text>
</g>
<!-- StoresController -->
<g id="node4" class="node"><title>StoresController</title>
<path fill="none" stroke="black" d="M96.7275,-35C96.7275,-35 181.272,-35 181.272,-35 187.272,-35 193.272,-41 193.272,-47 193.272,-47 193.272,-225 193.272,-225 193.272,-231 187.272,-237 181.272,-237 181.272,-237 96.7275,-237 96.7275,-237 90.7275,-237 84.7275,-231 84.7275,-225 84.7275,-225 84.7275,-47 84.7275,-47 84.7275,-41 90.7275,-35 96.7275,-35"/>
<text text-anchor="middle" x="139" y="-221.8" font-family="Times,serif" font-size="14.00">StoresController</text>
<polyline fill="none" stroke="black" points="84.7275,-215 193.272,-215 "/>
<text text-anchor="start" x="92.7275" y="-199.8" font-family="Times,serif" font-size="14.00">index</text>
<text text-anchor="start" x="92.7275" y="-185.8" font-family="Times,serif" font-size="14.00">destroy</text>
<text text-anchor="start" x="92.7275" y="-171.8" font-family="Times,serif" font-size="14.00">edit</text>
<text text-anchor="start" x="92.7275" y="-157.8" font-family="Times,serif" font-size="14.00">create</text>
<text text-anchor="start" x="92.7275" y="-143.8" font-family="Times,serif" font-size="14.00">new</text>
<text text-anchor="start" x="92.7275" y="-129.8" font-family="Times,serif" font-size="14.00">show</text>
<text text-anchor="start" x="92.7275" y="-115.8" font-family="Times,serif" font-size="14.00">update</text>
<polyline fill="none" stroke="black" points="84.7275,-109 193.272,-109 "/>
<polyline fill="none" stroke="black" points="84.7275,-85 193.272,-85 "/>
<text text-anchor="start" x="92.7275" y="-69.8" font-family="Times,serif" font-size="14.00">_layout</text>
<text text-anchor="start" x="92.7275" y="-55.8" font-family="Times,serif" font-size="14.00">set_store</text>
<text text-anchor="start" x="92.7275" y="-41.8" font-family="Times,serif" font-size="14.00">store_params</text>
</g>
<!-- Users::OmniauthCallbacksController -->
<g id="node5" class="node"><title>Users::OmniauthCallbacksController</title>
<path fill="none" stroke="black" d="M96.7964,84C96.7964,84 297.204,84 297.204,84 303.204,84 309.204,78 309.204,72 309.204,72 309.204,6 309.204,6 309.204,-0 303.204,-6 297.204,-6 297.204,-6 96.7964,-6 96.7964,-6 90.7964,-6 84.7964,-0 84.7964,6 84.7964,6 84.7964,72 84.7964,72 84.7964,78 90.7964,84 96.7964,84"/>
<text text-anchor="middle" x="197" y="9.2" font-family="Times,serif" font-size="14.00">Users::OmniauthCallbacksController</text>
<polyline fill="none" stroke="black" points="84.7964,16 309.204,16 "/>
<text text-anchor="start" x="92.7964" y="31.2" font-family="Times,serif" font-size="14.00">facebook</text>
<polyline fill="none" stroke="black" points="84.7964,38 309.204,38 "/>
<polyline fill="none" stroke="black" points="84.7964,62 309.204,62 "/>
<text text-anchor="start" x="92.7964" y="77.2" font-family="Times,serif" font-size="14.00">_layout</text>
</g>
</g>
</svg>
