<?xml version="1.0" encoding="UTF-8" standalone="no"?>
<!DOCTYPE svg PUBLIC "-//W3C//DTD SVG 1.1//EN"
 "http://www.w3.org/Graphics/SVG/1.1/DTD/svg11.dtd">
<!-- Generated by graphviz version 2.38.0 (20140413.2041)
 -->
<!-- Title: controllers_diagram Pages: 1 -->
<svg width="692pt" height="705pt"
 viewBox="0.00 0.00 691.53 705.00" xmlns="http://www.w3.org/2000/svg" xmlns:xlink="http://www.w3.org/1999/xlink">
<g id="graph0" class="graph" transform="scale(1 1) rotate(0) translate(259.714 397.5)">
<title>controllers_diagram</title>
<polygon fill="none" stroke="none" points="-259.714,307.5 -259.714,-397.5 431.821,-397.5 431.821,307.5 -259.714,307.5"/>
<!-- _diagram_info -->
<g id="node1" class="node"><title>_diagram_info</title>
<text text-anchor="start" x="-215.688" y="164.9" font-family="Times,serif" font-size="13.00">Controllers diagram</text>
<text text-anchor="start" x="-215.688" y="177.9" font-family="Times,serif" font-size="13.00">Date: May 03 2016 &#45; 17:37</text>
<text text-anchor="start" x="-215.688" y="190.9" font-family="Times,serif" font-size="13.00">Migration version: 20160503202850</text>
<text text-anchor="start" x="-215.688" y="203.9" font-family="Times,serif" font-size="13.00">Generated by RailRoady 1.4.2</text>
<text text-anchor="start" x="-215.688" y="216.9" font-family="Times,serif" font-size="13.00">http://railroady.prestonlee.com</text>
</g>
<!-- ApplicationController -->
<g id="node2" class="node"><title>ApplicationController</title>
<path fill="none" stroke="black" d="M300.179,-289C300.179,-289 415.821,-289 415.821,-289 421.821,-289 427.821,-295 427.821,-301 427.821,-301 427.821,-369 427.821,-369 427.821,-375 421.821,-381 415.821,-381 415.821,-381 300.179,-381 300.179,-381 294.179,-381 288.179,-375 288.179,-369 288.179,-369 288.179,-301 288.179,-301 288.179,-295 294.179,-289 300.179,-289"/>
<text text-anchor="middle" x="358" y="-365.8" font-family="Times,serif" font-size="14.00">ApplicationController</text>
<polyline fill="none" stroke="black" points="288.179,-359 427.821,-359 "/>
<polyline fill="none" stroke="black" points="288.179,-335 427.821,-335 "/>
<polyline fill="none" stroke="black" points="288.179,-311 427.821,-311 "/>
<text text-anchor="start" x="296.179" y="-295.8" font-family="Times,serif" font-size="14.00">_layout</text>
</g>
<!-- CommentsController -->
<g id="node3" class="node"><title>CommentsController</title>
<path fill="none" stroke="black" d="M-228.107,31C-228.107,31 -117.893,31 -117.893,31 -111.893,31 -105.893,25 -105.893,19 -105.893,19 -105.893,-61 -105.893,-61 -105.893,-67 -111.893,-73 -117.893,-73 -117.893,-73 -228.107,-73 -228.107,-73 -234.107,-73 -240.107,-67 -240.107,-61 -240.107,-61 -240.107,19 -240.107,19 -240.107,25 -234.107,31 -228.107,31"/>
<text text-anchor="middle" x="-173" y="-57.8" font-family="Times,serif" font-size="14.00">CommentsController</text>
<polyline fill="none" stroke="black" points="-240.107,-51 -105.893,-51 "/>
<text text-anchor="start" x="-232.107" y="-35.8" font-family="Times,serif" font-size="14.00">create</text>
<polyline fill="none" stroke="black" points="-240.107,-29 -105.893,-29 "/>
<polyline fill="none" stroke="black" points="-240.107,-5 -105.893,-5 "/>
<text text-anchor="start" x="-232.107" y="10.2" font-family="Times,serif" font-size="14.00">_layout</text>
<text text-anchor="start" x="-232.107" y="24.2" font-family="Times,serif" font-size="14.00">comment_params</text>
</g>
<!-- LikesController -->
<g id="node4" class="node"><title>LikesController</title>
<path fill="none" stroke="black" d="M315.676,303C315.676,303 396.324,303 396.324,303 402.324,303 408.324,297 408.324,291 408.324,291 408.324,225 408.324,225 408.324,219 402.324,213 396.324,213 396.324,213 315.676,213 315.676,213 309.676,213 303.676,219 303.676,225 303.676,225 303.676,291 303.676,291 303.676,297 309.676,303 315.676,303"/>
<text text-anchor="middle" x="356" y="228.2" font-family="Times,serif" font-size="14.00">LikesController</text>
<polyline fill="none" stroke="black" points="303.676,235 408.324,235 "/>
<text text-anchor="start" x="311.676" y="250.2" font-family="Times,serif" font-size="14.00">create</text>
<polyline fill="none" stroke="black" points="303.676,257 408.324,257 "/>
<polyline fill="none" stroke="black" points="303.676,281 408.324,281 "/>
<text text-anchor="start" x="311.676" y="296.2" font-family="Times,serif" font-size="14.00">_layout</text>
</g>
<!-- Products::CommentsController -->
<g id="node5" class="node"><title>Products::CommentsController</title>
<path fill="none" stroke="black" d="M91.5034,223C91.5034,223 258.497,223 258.497,223 264.497,223 270.497,217 270.497,211 270.497,211 270.497,129 270.497,129 270.497,123 264.497,117 258.497,117 258.497,117 91.5034,117 91.5034,117 85.5034,117 79.5034,123 79.5034,129 79.5034,129 79.5034,211 79.5034,211 79.5034,217 85.5034,223 91.5034,223"/>
<text text-anchor="middle" x="175" y="132.2" font-family="Times,serif" font-size="14.00">Products::CommentsController</text>
<polyline fill="none" stroke="black" points="79.5034,139 270.497,139 "/>
<polyline fill="none" stroke="black" points="79.5034,163 270.497,163 "/>
<polyline fill="none" stroke="black" points="79.5034,187 270.497,187 "/>
<text text-anchor="start" x="87.5034" y="202.2" font-family="Times,serif" font-size="14.00">_layout</text>
<text text-anchor="start" x="87.5034" y="216.2" font-family="Times,serif" font-size="14.00">set_commentable</text>
</g>
<!-- Products::LikesController -->
<g id="node6" class="node"><title>Products::LikesController</title>
<path fill="none" stroke="black" d="M-243.714,-257C-243.714,-257 -106.286,-257 -106.286,-257 -100.286,-257 -94.2861,-263 -94.2861,-269 -94.2861,-269 -94.2861,-351 -94.2861,-351 -94.2861,-357 -100.286,-363 -106.286,-363 -106.286,-363 -243.714,-363 -243.714,-363 -249.714,-363 -255.714,-357 -255.714,-351 -255.714,-351 -255.714,-269 -255.714,-269 -255.714,-263 -249.714,-257 -243.714,-257"/>
<text text-anchor="middle" x="-175" y="-347.8" font-family="Times,serif" font-size="14.00">Products::LikesController</text>
<polyline fill="none" stroke="black" points="-255.714,-341 -94.2861,-341 "/>
<polyline fill="none" stroke="black" points="-255.714,-317 -94.2861,-317 "/>
<polyline fill="none" stroke="black" points="-255.714,-293 -94.2861,-293 "/>
<text text-anchor="start" x="-247.714" y="-277.8" font-family="Times,serif" font-size="14.00">_layout</text>
<text text-anchor="start" x="-247.714" y="-263.8" font-family="Times,serif" font-size="14.00">set_likeable</text>
</g>
<!-- ProductsController -->
<g id="node7" class="node"><title>ProductsController</title>
<path fill="none" stroke="black" d="M91.7275,79C91.7275,79 190.272,79 190.272,79 196.272,79 202.272,73 202.272,67 202.272,67 202.272,-111 202.272,-111 202.272,-117 196.272,-123 190.272,-123 190.272,-123 91.7275,-123 91.7275,-123 85.7275,-123 79.7275,-117 79.7275,-111 79.7275,-111 79.7275,67 79.7275,67 79.7275,73 85.7275,79 91.7275,79"/>
<text text-anchor="middle" x="141" y="-107.8" font-family="Times,serif" font-size="14.00">ProductsController</text>
<polyline fill="none" stroke="black" points="79.7275,-101 202.272,-101 "/>
<text text-anchor="start" x="87.7275" y="-85.8" font-family="Times,serif" font-size="14.00">index</text>
<text text-anchor="start" x="87.7275" y="-71.8" font-family="Times,serif" font-size="14.00">destroy</text>
<text text-anchor="start" x="87.7275" y="-57.8" font-family="Times,serif" font-size="14.00">edit</text>
<text text-anchor="start" x="87.7275" y="-43.8" font-family="Times,serif" font-size="14.00">create</text>
<text text-anchor="start" x="87.7275" y="-29.8" font-family="Times,serif" font-size="14.00">new</text>
<text text-anchor="start" x="87.7275" y="-15.8" font-family="Times,serif" font-size="14.00">show</text>
<text text-anchor="start" x="87.7275" y="-1.8" font-family="Times,serif" font-size="14.00">update</text>
<polyline fill="none" stroke="black" points="79.7275,5 202.272,5 "/>
<polyline fill="none" stroke="black" points="79.7275,29 202.272,29 "/>
<text text-anchor="start" x="87.7275" y="44.2" font-family="Times,serif" font-size="14.00">_layout</text>
<text text-anchor="start" x="87.7275" y="58.2" font-family="Times,serif" font-size="14.00">product_params</text>
<text text-anchor="start" x="87.7275" y="72.2" font-family="Times,serif" font-size="14.00">set_product</text>
</g>
<!-- Stores::CommentsController -->
<g id="node8" class="node"><title>Stores::CommentsController</title>
<path fill="none" stroke="black" d="M251.503,79C251.503,79 404.497,79 404.497,79 410.497,79 416.497,73 416.497,67 416.497,67 416.497,-15 416.497,-15 416.497,-21 410.497,-27 404.497,-27 404.497,-27 251.503,-27 251.503,-27 245.503,-27 239.503,-21 239.503,-15 239.503,-15 239.503,67 239.503,67 239.503,73 245.503,79 251.503,79"/>
<text text-anchor="middle" x="328" y="-11.8" font-family="Times,serif" font-size="14.00">Stores::CommentsController</text>
<polyline fill="none" stroke="black" points="239.503,-5 416.497,-5 "/>
<polyline fill="none" stroke="black" points="239.503,19 416.497,19 "/>
<polyline fill="none" stroke="black" points="239.503,43 416.497,43 "/>
<text text-anchor="start" x="247.503" y="58.2" font-family="Times,serif" font-size="14.00">_layout</text>
<text text-anchor="start" x="247.503" y="72.2" font-family="Times,serif" font-size="14.00">set_commentable</text>
</g>
<!-- Stores::LikesController -->
<g id="node9" class="node"><title>Stores::LikesController</title>
<path fill="none" stroke="black" d="M-243.714,-113C-243.714,-113 -120.286,-113 -120.286,-113 -114.286,-113 -108.286,-119 -108.286,-125 -108.286,-125 -108.286,-207 -108.286,-207 -108.286,-213 -114.286,-219 -120.286,-219 -120.286,-219 -243.714,-219 -243.714,-219 -249.714,-219 -255.714,-213 -255.714,-207 -255.714,-207 -255.714,-125 -255.714,-125 -255.714,-119 -249.714,-113 -243.714,-113"/>
<text text-anchor="middle" x="-182" y="-203.8" font-family="Times,serif" font-size="14.00">Stores::LikesController</text>
<polyline fill="none" stroke="black" points="-255.714,-197 -108.286,-197 "/>
<polyline fill="none" stroke="black" points="-255.714,-173 -108.286,-173 "/>
<polyline fill="none" stroke="black" points="-255.714,-149 -108.286,-149 "/>
<text text-anchor="start" x="-247.714" y="-133.8" font-family="Times,serif" font-size="14.00">_layout</text>
<text text-anchor="start" x="-247.714" y="-119.8" font-family="Times,serif" font-size="14.00">set_likeable</text>
</g>
<!-- StoresController -->
<g id="node10" class="node"><title>StoresController</title>
<path fill="none" stroke="black" d="M-52.2725,-129C-52.2725,-129 32.2725,-129 32.2725,-129 38.2725,-129 44.2725,-135 44.2725,-141 44.2725,-141 44.2725,-319 44.2725,-319 44.2725,-325 38.2725,-331 32.2725,-331 32.2725,-331 -52.2725,-331 -52.2725,-331 -58.2725,-331 -64.2725,-325 -64.2725,-319 -64.2725,-319 -64.2725,-141 -64.2725,-141 -64.2725,-135 -58.2725,-129 -52.2725,-129"/>
<text text-anchor="middle" x="-10" y="-315.8" font-family="Times,serif" font-size="14.00">StoresController</text>
<polyline fill="none" stroke="black" points="-64.2725,-309 44.2725,-309 "/>
<text text-anchor="start" x="-56.2725" y="-293.8" font-family="Times,serif" font-size="14.00">index</text>
<text text-anchor="start" x="-56.2725" y="-279.8" font-family="Times,serif" font-size="14.00">destroy</text>
<text text-anchor="start" x="-56.2725" y="-265.8" font-family="Times,serif" font-size="14.00">edit</text>
<text text-anchor="start" x="-56.2725" y="-251.8" font-family="Times,serif" font-size="14.00">create</text>
<text text-anchor="start" x="-56.2725" y="-237.8" font-family="Times,serif" font-size="14.00">new</text>
<text text-anchor="start" x="-56.2725" y="-223.8" font-family="Times,serif" font-size="14.00">show</text>
<text text-anchor="start" x="-56.2725" y="-209.8" font-family="Times,serif" font-size="14.00">update</text>
<polyline fill="none" stroke="black" points="-64.2725,-203 44.2725,-203 "/>
<polyline fill="none" stroke="black" points="-64.2725,-179 44.2725,-179 "/>
<text text-anchor="start" x="-56.2725" y="-163.8" font-family="Times,serif" font-size="14.00">_layout</text>
<text text-anchor="start" x="-56.2725" y="-149.8" font-family="Times,serif" font-size="14.00">set_store</text>
<text text-anchor="start" x="-56.2725" y="-135.8" font-family="Times,serif" font-size="14.00">store_params</text>
</g>
<!-- TagsController -->
<g id="node11" class="node"><title>TagsController</title>
<path fill="none" stroke="black" d="M172.109,-289C172.109,-289 247.891,-289 247.891,-289 253.891,-289 259.891,-295 259.891,-301 259.891,-301 259.891,-381 259.891,-381 259.891,-387 253.891,-393 247.891,-393 247.891,-393 172.109,-393 172.109,-393 166.109,-393 160.109,-387 160.109,-381 160.109,-381 160.109,-301 160.109,-301 160.109,-295 166.109,-289 172.109,-289"/>
<text text-anchor="middle" x="210" y="-377.8" font-family="Times,serif" font-size="14.00">TagsController</text>
<polyline fill="none" stroke="black" points="160.109,-371 259.891,-371 "/>
<text text-anchor="start" x="168.109" y="-355.8" font-family="Times,serif" font-size="14.00">index</text>
<text text-anchor="start" x="168.109" y="-341.8" font-family="Times,serif" font-size="14.00">show</text>
<polyline fill="none" stroke="black" points="160.109,-335 259.891,-335 "/>
<polyline fill="none" stroke="black" points="160.109,-311 259.891,-311 "/>
<text text-anchor="start" x="168.109" y="-295.8" font-family="Times,serif" font-size="14.00">_layout</text>
</g>
<!-- Users::OmniauthCallbacksController -->
<g id="node12" class="node"><title>Users::OmniauthCallbacksController</title>
<path fill="none" stroke="black" d="M171.796,-161C171.796,-161 372.204,-161 372.204,-161 378.204,-161 384.204,-167 384.204,-173 384.204,-173 384.204,-239 384.204,-239 384.204,-245 378.204,-251 372.204,-251 372.204,-251 171.796,-251 171.796,-251 165.796,-251 159.796,-245 159.796,-239 159.796,-239 159.796,-173 159.796,-173 159.796,-167 165.796,-161 171.796,-161"/>
<text text-anchor="middle" x="272" y="-235.8" font-family="Times,serif" font-size="14.00">Users::OmniauthCallbacksController</text>
<polyline fill="none" stroke="black" points="159.796,-229 384.204,-229 "/>
<text text-anchor="start" x="167.796" y="-213.8" font-family="Times,serif" font-size="14.00">facebook</text>
<polyline fill="none" stroke="black" points="159.796,-207 384.204,-207 "/>
<polyline fill="none" stroke="black" points="159.796,-183 384.204,-183 "/>
<text text-anchor="start" x="167.796" y="-167.8" font-family="Times,serif" font-size="14.00">_layout</text>
</g>
<!-- WhishlistsController -->
<g id="node13" class="node"><title>WhishlistsController</title>
<path fill="none" stroke="black" d="M-68.3311,111C-68.3311,111 40.3311,111 40.3311,111 46.3311,111 52.3311,105 52.3311,99 52.3311,99 52.3311,-79 52.3311,-79 52.3311,-85 46.3311,-91 40.3311,-91 40.3311,-91 -68.3311,-91 -68.3311,-91 -74.3311,-91 -80.3311,-85 -80.3311,-79 -80.3311,-79 -80.3311,99 -80.3311,99 -80.3311,105 -74.3311,111 -68.3311,111"/>
<text text-anchor="middle" x="-14" y="-75.8" font-family="Times,serif" font-size="14.00">WhishlistsController</text>
<polyline fill="none" stroke="black" points="-80.3311,-69 52.3311,-69 "/>
<text text-anchor="start" x="-72.3311" y="-53.8" font-family="Times,serif" font-size="14.00">index</text>
<text text-anchor="start" x="-72.3311" y="-39.8" font-family="Times,serif" font-size="14.00">destroy</text>
<text text-anchor="start" x="-72.3311" y="-25.8" font-family="Times,serif" font-size="14.00">edit</text>
<text text-anchor="start" x="-72.3311" y="-11.8" font-family="Times,serif" font-size="14.00">create</text>
<text text-anchor="start" x="-72.3311" y="2.2" font-family="Times,serif" font-size="14.00">new</text>
<text text-anchor="start" x="-72.3311" y="16.2" font-family="Times,serif" font-size="14.00">show</text>
<text text-anchor="start" x="-72.3311" y="30.2" font-family="Times,serif" font-size="14.00">update</text>
<polyline fill="none" stroke="black" points="-80.3311,37 52.3311,37 "/>
<polyline fill="none" stroke="black" points="-80.3311,61 52.3311,61 "/>
<text text-anchor="start" x="-72.3311" y="76.2" font-family="Times,serif" font-size="14.00">_layout</text>
<text text-anchor="start" x="-72.3311" y="90.2" font-family="Times,serif" font-size="14.00">set_whishlist</text>
<text text-anchor="start" x="-72.3311" y="104.2" font-family="Times,serif" font-size="14.00">whishlist_params</text>
</g>
</g>
</svg>
