<?xml version="1.0" encoding="UTF-8" standalone="no"?>
<!DOCTYPE svg PUBLIC "-//W3C//DTD SVG 1.1//EN"
 "http://www.w3.org/Graphics/SVG/1.1/DTD/svg11.dtd">
<!-- Generated by graphviz version 2.38.0 (20140413.2041)
 -->
<!-- Title: controllers_diagram Pages: 1 -->
<svg width="650pt" height="609pt"
 viewBox="0.00 0.00 649.53 609.00" xmlns="http://www.w3.org/2000/svg" xmlns:xlink="http://www.w3.org/1999/xlink">
<g id="graph0" class="graph" transform="scale(1 1) rotate(0) translate(243.821 333.5)">
<title>controllers_diagram</title>
<polygon fill="none" stroke="none" points="-243.821,275.5 -243.821,-333.5 405.714,-333.5 405.714,275.5 -243.821,275.5"/>
<!-- _diagram_info -->
<g id="node1" class="node"><title>_diagram_info</title>
<text text-anchor="start" x="40.3123" y="180.9" font-family="Times,serif" font-size="13.00">Controllers diagram</text>
<text text-anchor="start" x="40.3123" y="193.9" font-family="Times,serif" font-size="13.00">Date: May 01 2016 &#45; 23:43</text>
<text text-anchor="start" x="40.3123" y="206.9" font-family="Times,serif" font-size="13.00">Migration version: 20160502001617</text>
<text text-anchor="start" x="40.3123" y="219.9" font-family="Times,serif" font-size="13.00">Generated by RailRoady 1.4.2</text>
<text text-anchor="start" x="40.3123" y="232.9" font-family="Times,serif" font-size="13.00">http://railroady.prestonlee.com</text>
</g>
<!-- ApplicationController -->
<g id="node2" class="node"><title>ApplicationController</title>
<path fill="none" stroke="black" d="M-227.821,-97C-227.821,-97 -112.179,-97 -112.179,-97 -106.179,-97 -100.179,-103 -100.179,-109 -100.179,-109 -100.179,-177 -100.179,-177 -100.179,-183 -106.179,-189 -112.179,-189 -112.179,-189 -227.821,-189 -227.821,-189 -233.821,-189 -239.821,-183 -239.821,-177 -239.821,-177 -239.821,-109 -239.821,-109 -239.821,-103 -233.821,-97 -227.821,-97"/>
<text text-anchor="middle" x="-170" y="-173.8" font-family="Times,serif" font-size="14.00">ApplicationController</text>
<polyline fill="none" stroke="black" points="-239.821,-167 -100.179,-167 "/>
<polyline fill="none" stroke="black" points="-239.821,-143 -100.179,-143 "/>
<polyline fill="none" stroke="black" points="-239.821,-119 -100.179,-119 "/>
<text text-anchor="start" x="-231.821" y="-103.8" font-family="Times,serif" font-size="14.00">_layout</text>
</g>
<!-- CommentsController -->
<g id="node3" class="node"><title>CommentsController</title>
<path fill="none" stroke="black" d="M-212.107,-225C-212.107,-225 -101.893,-225 -101.893,-225 -95.8931,-225 -89.8931,-231 -89.8931,-237 -89.8931,-237 -89.8931,-317 -89.8931,-317 -89.8931,-323 -95.8931,-329 -101.893,-329 -101.893,-329 -212.107,-329 -212.107,-329 -218.107,-329 -224.107,-323 -224.107,-317 -224.107,-317 -224.107,-237 -224.107,-237 -224.107,-231 -218.107,-225 -212.107,-225"/>
<text text-anchor="middle" x="-157" y="-313.8" font-family="Times,serif" font-size="14.00">CommentsController</text>
<polyline fill="none" stroke="black" points="-224.107,-307 -89.8931,-307 "/>
<text text-anchor="start" x="-216.107" y="-291.8" font-family="Times,serif" font-size="14.00">create</text>
<polyline fill="none" stroke="black" points="-224.107,-285 -89.8931,-285 "/>
<polyline fill="none" stroke="black" points="-224.107,-261 -89.8931,-261 "/>
<text text-anchor="start" x="-216.107" y="-245.8" font-family="Times,serif" font-size="14.00">_layout</text>
<text text-anchor="start" x="-216.107" y="-231.8" font-family="Times,serif" font-size="14.00">comment_params</text>
</g>
<!-- LikesController -->
<g id="node4" class="node"><title>LikesController</title>
<path fill="none" stroke="black" d="M283.676,271C283.676,271 364.324,271 364.324,271 370.324,271 376.324,265 376.324,259 376.324,259 376.324,193 376.324,193 376.324,187 370.324,181 364.324,181 364.324,181 283.676,181 283.676,181 277.676,181 271.676,187 271.676,193 271.676,193 271.676,259 271.676,259 271.676,265 277.676,271 283.676,271"/>
<text text-anchor="middle" x="324" y="196.2" font-family="Times,serif" font-size="14.00">LikesController</text>
<polyline fill="none" stroke="black" points="271.676,203 376.324,203 "/>
<text text-anchor="start" x="279.676" y="218.2" font-family="Times,serif" font-size="14.00">create</text>
<polyline fill="none" stroke="black" points="271.676,225 376.324,225 "/>
<polyline fill="none" stroke="black" points="271.676,249 376.324,249 "/>
<text text-anchor="start" x="279.676" y="264.2" font-family="Times,serif" font-size="14.00">_layout</text>
</g>
<!-- Products::CommentsController -->
<g id="node5" class="node"><title>Products::CommentsController</title>
<path fill="none" stroke="black" d="M-180.497,191C-180.497,191 -13.5034,191 -13.5034,191 -7.50342,191 -1.50342,185 -1.50342,179 -1.50342,179 -1.50342,97 -1.50342,97 -1.50342,91 -7.50342,85 -13.5034,85 -13.5034,85 -180.497,85 -180.497,85 -186.497,85 -192.497,91 -192.497,97 -192.497,97 -192.497,179 -192.497,179 -192.497,185 -186.497,191 -180.497,191"/>
<text text-anchor="middle" x="-97" y="100.2" font-family="Times,serif" font-size="14.00">Products::CommentsController</text>
<polyline fill="none" stroke="black" points="-192.497,107 -1.50342,107 "/>
<polyline fill="none" stroke="black" points="-192.497,131 -1.50342,131 "/>
<polyline fill="none" stroke="black" points="-192.497,155 -1.50342,155 "/>
<text text-anchor="start" x="-184.497" y="170.2" font-family="Times,serif" font-size="14.00">_layout</text>
<text text-anchor="start" x="-184.497" y="184.2" font-family="Times,serif" font-size="14.00">set_commentable</text>
</g>
<!-- Products::LikesController -->
<g id="node6" class="node"><title>Products::LikesController</title>
<path fill="none" stroke="black" d="M252.286,-17C252.286,-17 389.714,-17 389.714,-17 395.714,-17 401.714,-23 401.714,-29 401.714,-29 401.714,-111 401.714,-111 401.714,-117 395.714,-123 389.714,-123 389.714,-123 252.286,-123 252.286,-123 246.286,-123 240.286,-117 240.286,-111 240.286,-111 240.286,-29 240.286,-29 240.286,-23 246.286,-17 252.286,-17"/>
<text text-anchor="middle" x="321" y="-107.8" font-family="Times,serif" font-size="14.00">Products::LikesController</text>
<polyline fill="none" stroke="black" points="240.286,-101 401.714,-101 "/>
<polyline fill="none" stroke="black" points="240.286,-77 401.714,-77 "/>
<polyline fill="none" stroke="black" points="240.286,-53 401.714,-53 "/>
<text text-anchor="start" x="248.286" y="-37.8" font-family="Times,serif" font-size="14.00">_layout</text>
<text text-anchor="start" x="248.286" y="-23.8" font-family="Times,serif" font-size="14.00">set_likeable</text>
</g>
<!-- ProductsController -->
<g id="node7" class="node"><title>ProductsController</title>
<path fill="none" stroke="black" d="M91.7275,-81C91.7275,-81 190.272,-81 190.272,-81 196.272,-81 202.272,-87 202.272,-93 202.272,-93 202.272,-271 202.272,-271 202.272,-277 196.272,-283 190.272,-283 190.272,-283 91.7275,-283 91.7275,-283 85.7275,-283 79.7275,-277 79.7275,-271 79.7275,-271 79.7275,-93 79.7275,-93 79.7275,-87 85.7275,-81 91.7275,-81"/>
<text text-anchor="middle" x="141" y="-267.8" font-family="Times,serif" font-size="14.00">ProductsController</text>
<polyline fill="none" stroke="black" points="79.7275,-261 202.272,-261 "/>
<text text-anchor="start" x="87.7275" y="-245.8" font-family="Times,serif" font-size="14.00">index</text>
<text text-anchor="start" x="87.7275" y="-231.8" font-family="Times,serif" font-size="14.00">destroy</text>
<text text-anchor="start" x="87.7275" y="-217.8" font-family="Times,serif" font-size="14.00">edit</text>
<text text-anchor="start" x="87.7275" y="-203.8" font-family="Times,serif" font-size="14.00">create</text>
<text text-anchor="start" x="87.7275" y="-189.8" font-family="Times,serif" font-size="14.00">new</text>
<text text-anchor="start" x="87.7275" y="-175.8" font-family="Times,serif" font-size="14.00">show</text>
<text text-anchor="start" x="87.7275" y="-161.8" font-family="Times,serif" font-size="14.00">update</text>
<polyline fill="none" stroke="black" points="79.7275,-155 202.272,-155 "/>
<polyline fill="none" stroke="black" points="79.7275,-131 202.272,-131 "/>
<text text-anchor="start" x="87.7275" y="-115.8" font-family="Times,serif" font-size="14.00">_layout</text>
<text text-anchor="start" x="87.7275" y="-101.8" font-family="Times,serif" font-size="14.00">product_params</text>
<text text-anchor="start" x="87.7275" y="-87.8" font-family="Times,serif" font-size="14.00">set_product</text>
</g>
<!-- Stores::CommentsController -->
<g id="node8" class="node"><title>Stores::CommentsController</title>
<path fill="none" stroke="black" d="M139.503,127C139.503,127 292.497,127 292.497,127 298.497,127 304.497,121 304.497,115 304.497,115 304.497,33 304.497,33 304.497,27 298.497,21 292.497,21 292.497,21 139.503,21 139.503,21 133.503,21 127.503,27 127.503,33 127.503,33 127.503,115 127.503,115 127.503,121 133.503,127 139.503,127"/>
<text text-anchor="middle" x="216" y="36.2" font-family="Times,serif" font-size="14.00">Stores::CommentsController</text>
<polyline fill="none" stroke="black" points="127.503,43 304.497,43 "/>
<polyline fill="none" stroke="black" points="127.503,67 304.497,67 "/>
<polyline fill="none" stroke="black" points="127.503,91 304.497,91 "/>
<text text-anchor="start" x="135.503" y="106.2" font-family="Times,serif" font-size="14.00">_layout</text>
<text text-anchor="start" x="135.503" y="120.2" font-family="Times,serif" font-size="14.00">set_commentable</text>
</g>
<!-- Stores::LikesController -->
<g id="node9" class="node"><title>Stores::LikesController</title>
<path fill="none" stroke="black" d="M252.286,-161C252.286,-161 375.714,-161 375.714,-161 381.714,-161 387.714,-167 387.714,-173 387.714,-173 387.714,-255 387.714,-255 387.714,-261 381.714,-267 375.714,-267 375.714,-267 252.286,-267 252.286,-267 246.286,-267 240.286,-261 240.286,-255 240.286,-255 240.286,-173 240.286,-173 240.286,-167 246.286,-161 252.286,-161"/>
<text text-anchor="middle" x="314" y="-251.8" font-family="Times,serif" font-size="14.00">Stores::LikesController</text>
<polyline fill="none" stroke="black" points="240.286,-245 387.714,-245 "/>
<polyline fill="none" stroke="black" points="240.286,-221 387.714,-221 "/>
<polyline fill="none" stroke="black" points="240.286,-197 387.714,-197 "/>
<text text-anchor="start" x="248.286" y="-181.8" font-family="Times,serif" font-size="14.00">_layout</text>
<text text-anchor="start" x="248.286" y="-167.8" font-family="Times,serif" font-size="14.00">set_likeable</text>
</g>
<!-- StoresController -->
<g id="node10" class="node"><title>StoresController</title>
<path fill="none" stroke="black" d="M-52.2725,-81C-52.2725,-81 32.2725,-81 32.2725,-81 38.2725,-81 44.2725,-87 44.2725,-93 44.2725,-93 44.2725,-271 44.2725,-271 44.2725,-277 38.2725,-283 32.2725,-283 32.2725,-283 -52.2725,-283 -52.2725,-283 -58.2725,-283 -64.2725,-277 -64.2725,-271 -64.2725,-271 -64.2725,-93 -64.2725,-93 -64.2725,-87 -58.2725,-81 -52.2725,-81"/>
<text text-anchor="middle" x="-10" y="-267.8" font-family="Times,serif" font-size="14.00">StoresController</text>
<polyline fill="none" stroke="black" points="-64.2725,-261 44.2725,-261 "/>
<text text-anchor="start" x="-56.2725" y="-245.8" font-family="Times,serif" font-size="14.00">index</text>
<text text-anchor="start" x="-56.2725" y="-231.8" font-family="Times,serif" font-size="14.00">destroy</text>
<text text-anchor="start" x="-56.2725" y="-217.8" font-family="Times,serif" font-size="14.00">edit</text>
<text text-anchor="start" x="-56.2725" y="-203.8" font-family="Times,serif" font-size="14.00">create</text>
<text text-anchor="start" x="-56.2725" y="-189.8" font-family="Times,serif" font-size="14.00">new</text>
<text text-anchor="start" x="-56.2725" y="-175.8" font-family="Times,serif" font-size="14.00">show</text>
<text text-anchor="start" x="-56.2725" y="-161.8" font-family="Times,serif" font-size="14.00">update</text>
<polyline fill="none" stroke="black" points="-64.2725,-155 44.2725,-155 "/>
<polyline fill="none" stroke="black" points="-64.2725,-131 44.2725,-131 "/>
<text text-anchor="start" x="-56.2725" y="-115.8" font-family="Times,serif" font-size="14.00">_layout</text>
<text text-anchor="start" x="-56.2725" y="-101.8" font-family="Times,serif" font-size="14.00">set_store</text>
<text text-anchor="start" x="-56.2725" y="-87.8" font-family="Times,serif" font-size="14.00">store_params</text>
</g>
<!-- Users::OmniauthCallbacksController -->
<g id="node11" class="node"><title>Users::OmniauthCallbacksController</title>
<path fill="none" stroke="black" d="M-116.204,47C-116.204,47 84.2036,47 84.2036,47 90.2036,47 96.2036,41 96.2036,35 96.2036,35 96.2036,-31 96.2036,-31 96.2036,-37 90.2036,-43 84.2036,-43 84.2036,-43 -116.204,-43 -116.204,-43 -122.204,-43 -128.204,-37 -128.204,-31 -128.204,-31 -128.204,35 -128.204,35 -128.204,41 -122.204,47 -116.204,47"/>
<text text-anchor="middle" x="-16" y="-27.8" font-family="Times,serif" font-size="14.00">Users::OmniauthCallbacksController</text>
<polyline fill="none" stroke="black" points="-128.204,-21 96.2036,-21 "/>
<text text-anchor="start" x="-120.204" y="-5.8" font-family="Times,serif" font-size="14.00">facebook</text>
<polyline fill="none" stroke="black" points="-128.204,1 96.2036,1 "/>
<polyline fill="none" stroke="black" points="-128.204,25 96.2036,25 "/>
<text text-anchor="start" x="-120.204" y="40.2" font-family="Times,serif" font-size="14.00">_layout</text>
</g>
</g>
</svg>
