<?xml version="1.0" encoding="UTF-8" standalone="no"?>
<!DOCTYPE svg PUBLIC "-//W3C//DTD SVG 1.1//EN"
 "http://www.w3.org/Graphics/SVG/1.1/DTD/svg11.dtd">
<!-- Generated by graphviz version 2.38.0 (20140413.2041)
 -->
<!-- Title: controllers_diagram Pages: 1 -->
<svg width="674pt" height="739pt"
 viewBox="0.00 0.00 673.99 739.00" xmlns="http://www.w3.org/2000/svg" xmlns:xlink="http://www.w3.org/1999/xlink">
<g id="graph0" class="graph" transform="scale(1 1) rotate(0) translate(244.272 415.5)">
<title>controllers_diagram</title>
<polygon fill="none" stroke="none" points="-244.272,323.5 -244.272,-415.5 429.714,-415.5 429.714,323.5 -244.272,323.5"/>
<!-- _diagram_info -->
<g id="node1" class="node"><title>_diagram_info</title>
<text text-anchor="start" x="-215.688" y="164.9" font-family="Times,serif" font-size="13.00">Controllers diagram</text>
<text text-anchor="start" x="-215.688" y="177.9" font-family="Times,serif" font-size="13.00">Date: May 13 2016 &#45; 19:45</text>
<text text-anchor="start" x="-215.688" y="190.9" font-family="Times,serif" font-size="13.00">Migration version: 20160513224016</text>
<text text-anchor="start" x="-215.688" y="203.9" font-family="Times,serif" font-size="13.00">Generated by RailRoady 1.4.2</text>
<text text-anchor="start" x="-215.688" y="216.9" font-family="Times,serif" font-size="13.00">http://railroady.prestonlee.com</text>
</g>
<!-- ApplicationController -->
<g id="node2" class="node"><title>ApplicationController</title>
<path fill="none" stroke="black" d="M-99.8208,-273C-99.8208,-273 15.8208,-273 15.8208,-273 21.8208,-273 27.8208,-279 27.8208,-285 27.8208,-285 27.8208,-353 27.8208,-353 27.8208,-359 21.8208,-365 15.8208,-365 15.8208,-365 -99.8208,-365 -99.8208,-365 -105.821,-365 -111.821,-359 -111.821,-353 -111.821,-353 -111.821,-285 -111.821,-285 -111.821,-279 -105.821,-273 -99.8208,-273"/>
<text text-anchor="middle" x="-42" y="-349.8" font-family="Times,serif" font-size="14.00">ApplicationController</text>
<polyline fill="none" stroke="black" points="-111.821,-343 27.8208,-343 "/>
<polyline fill="none" stroke="black" points="-111.821,-319 27.8208,-319 "/>
<polyline fill="none" stroke="black" points="-111.821,-295 27.8208,-295 "/>
<text text-anchor="start" x="-103.821" y="-279.8" font-family="Times,serif" font-size="14.00">_layout</text>
</g>
<!-- CommentsController -->
<g id="node3" class="node"><title>CommentsController</title>
<path fill="none" stroke="black" d="M251.893,-177C251.893,-177 362.107,-177 362.107,-177 368.107,-177 374.107,-183 374.107,-189 374.107,-189 374.107,-283 374.107,-283 374.107,-289 368.107,-295 362.107,-295 362.107,-295 251.893,-295 251.893,-295 245.893,-295 239.893,-289 239.893,-283 239.893,-283 239.893,-189 239.893,-189 239.893,-183 245.893,-177 251.893,-177"/>
<text text-anchor="middle" x="307" y="-279.8" font-family="Times,serif" font-size="14.00">CommentsController</text>
<polyline fill="none" stroke="black" points="239.893,-273 374.107,-273 "/>
<text text-anchor="start" x="247.893" y="-257.8" font-family="Times,serif" font-size="14.00">create</text>
<text text-anchor="start" x="247.893" y="-243.8" font-family="Times,serif" font-size="14.00">destroy</text>
<polyline fill="none" stroke="black" points="239.893,-237 374.107,-237 "/>
<polyline fill="none" stroke="black" points="239.893,-213 374.107,-213 "/>
<text text-anchor="start" x="247.893" y="-197.8" font-family="Times,serif" font-size="14.00">_layout</text>
<text text-anchor="start" x="247.893" y="-183.8" font-family="Times,serif" font-size="14.00">comment_params</text>
</g>
<!-- LikesController -->
<g id="node4" class="node"><title>LikesController</title>
<path fill="none" stroke="black" d="M331.676,-321C331.676,-321 412.324,-321 412.324,-321 418.324,-321 424.324,-327 424.324,-333 424.324,-333 424.324,-399 424.324,-399 424.324,-405 418.324,-411 412.324,-411 412.324,-411 331.676,-411 331.676,-411 325.676,-411 319.676,-405 319.676,-399 319.676,-399 319.676,-333 319.676,-333 319.676,-327 325.676,-321 331.676,-321"/>
<text text-anchor="middle" x="372" y="-395.8" font-family="Times,serif" font-size="14.00">LikesController</text>
<polyline fill="none" stroke="black" points="319.676,-389 424.324,-389 "/>
<text text-anchor="start" x="327.676" y="-373.8" font-family="Times,serif" font-size="14.00">create</text>
<polyline fill="none" stroke="black" points="319.676,-367 424.324,-367 "/>
<polyline fill="none" stroke="black" points="319.676,-343 424.324,-343 "/>
<text text-anchor="start" x="327.676" y="-327.8" font-family="Times,serif" font-size="14.00">_layout</text>
</g>
<!-- Products::CommentsController -->
<g id="node5" class="node"><title>Products::CommentsController</title>
<path fill="none" stroke="black" d="M107.503,239C107.503,239 274.497,239 274.497,239 280.497,239 286.497,233 286.497,227 286.497,227 286.497,145 286.497,145 286.497,139 280.497,133 274.497,133 274.497,133 107.503,133 107.503,133 101.503,133 95.5034,139 95.5034,145 95.5034,145 95.5034,227 95.5034,227 95.5034,233 101.503,239 107.503,239"/>
<text text-anchor="middle" x="191" y="148.2" font-family="Times,serif" font-size="14.00">Products::CommentsController</text>
<polyline fill="none" stroke="black" points="95.5034,155 286.497,155 "/>
<polyline fill="none" stroke="black" points="95.5034,179 286.497,179 "/>
<polyline fill="none" stroke="black" points="95.5034,203 286.497,203 "/>
<text text-anchor="start" x="103.503" y="218.2" font-family="Times,serif" font-size="14.00">_layout</text>
<text text-anchor="start" x="103.503" y="232.2" font-family="Times,serif" font-size="14.00">set_commentable</text>
</g>
<!-- Products::LikesController -->
<g id="node6" class="node"><title>Products::LikesController</title>
<path fill="none" stroke="black" d="M252.286,-33C252.286,-33 389.714,-33 389.714,-33 395.714,-33 401.714,-39 401.714,-45 401.714,-45 401.714,-127 401.714,-127 401.714,-133 395.714,-139 389.714,-139 389.714,-139 252.286,-139 252.286,-139 246.286,-139 240.286,-133 240.286,-127 240.286,-127 240.286,-45 240.286,-45 240.286,-39 246.286,-33 252.286,-33"/>
<text text-anchor="middle" x="321" y="-123.8" font-family="Times,serif" font-size="14.00">Products::LikesController</text>
<polyline fill="none" stroke="black" points="240.286,-117 401.714,-117 "/>
<polyline fill="none" stroke="black" points="240.286,-93 401.714,-93 "/>
<polyline fill="none" stroke="black" points="240.286,-69 401.714,-69 "/>
<text text-anchor="start" x="248.286" y="-53.8" font-family="Times,serif" font-size="14.00">_layout</text>
<text text-anchor="start" x="248.286" y="-39.8" font-family="Times,serif" font-size="14.00">set_likeable</text>
</g>
<!-- ProductsController -->
<g id="node7" class="node"><title>ProductsController</title>
<path fill="none" stroke="black" d="M-228.272,79C-228.272,79 -129.728,79 -129.728,79 -123.728,79 -117.728,73 -117.728,67 -117.728,67 -117.728,-83 -117.728,-83 -117.728,-89 -123.728,-95 -129.728,-95 -129.728,-95 -228.272,-95 -228.272,-95 -234.272,-95 -240.272,-89 -240.272,-83 -240.272,-83 -240.272,67 -240.272,67 -240.272,73 -234.272,79 -228.272,79"/>
<text text-anchor="middle" x="-179" y="-79.8" font-family="Times,serif" font-size="14.00">ProductsController</text>
<polyline fill="none" stroke="black" points="-240.272,-73 -117.728,-73 "/>
<text text-anchor="start" x="-232.272" y="-57.8" font-family="Times,serif" font-size="14.00">create</text>
<text text-anchor="start" x="-232.272" y="-43.8" font-family="Times,serif" font-size="14.00">destroy</text>
<text text-anchor="start" x="-232.272" y="-29.8" font-family="Times,serif" font-size="14.00">edit</text>
<text text-anchor="start" x="-232.272" y="-15.8" font-family="Times,serif" font-size="14.00">show</text>
<text text-anchor="start" x="-232.272" y="-1.8" font-family="Times,serif" font-size="14.00">update</text>
<polyline fill="none" stroke="black" points="-240.272,5 -117.728,5 "/>
<polyline fill="none" stroke="black" points="-240.272,29 -117.728,29 "/>
<text text-anchor="start" x="-232.272" y="44.2" font-family="Times,serif" font-size="14.00">_layout</text>
<text text-anchor="start" x="-232.272" y="58.2" font-family="Times,serif" font-size="14.00">product_params</text>
<text text-anchor="start" x="-232.272" y="72.2" font-family="Times,serif" font-size="14.00">set_product</text>
</g>
<!-- Stores::CommentsController -->
<g id="node8" class="node"><title>Stores::CommentsController</title>
<path fill="none" stroke="black" d="M-100.497,-129C-100.497,-129 52.4966,-129 52.4966,-129 58.4966,-129 64.4966,-135 64.4966,-141 64.4966,-141 64.4966,-223 64.4966,-223 64.4966,-229 58.4966,-235 52.4966,-235 52.4966,-235 -100.497,-235 -100.497,-235 -106.497,-235 -112.497,-229 -112.497,-223 -112.497,-223 -112.497,-141 -112.497,-141 -112.497,-135 -106.497,-129 -100.497,-129"/>
<text text-anchor="middle" x="-24" y="-219.8" font-family="Times,serif" font-size="14.00">Stores::CommentsController</text>
<polyline fill="none" stroke="black" points="-112.497,-213 64.4966,-213 "/>
<polyline fill="none" stroke="black" points="-112.497,-189 64.4966,-189 "/>
<polyline fill="none" stroke="black" points="-112.497,-165 64.4966,-165 "/>
<text text-anchor="start" x="-104.497" y="-149.8" font-family="Times,serif" font-size="14.00">_layout</text>
<text text-anchor="start" x="-104.497" y="-135.8" font-family="Times,serif" font-size="14.00">set_commentable</text>
</g>
<!-- Stores::LikesController -->
<g id="node9" class="node"><title>Stores::LikesController</title>
<path fill="none" stroke="black" d="M76.2861,-273C76.2861,-273 199.714,-273 199.714,-273 205.714,-273 211.714,-279 211.714,-285 211.714,-285 211.714,-367 211.714,-367 211.714,-373 205.714,-379 199.714,-379 199.714,-379 76.2861,-379 76.2861,-379 70.2861,-379 64.2861,-373 64.2861,-367 64.2861,-367 64.2861,-285 64.2861,-285 64.2861,-279 70.2861,-273 76.2861,-273"/>
<text text-anchor="middle" x="138" y="-363.8" font-family="Times,serif" font-size="14.00">Stores::LikesController</text>
<polyline fill="none" stroke="black" points="64.2861,-357 211.714,-357 "/>
<polyline fill="none" stroke="black" points="64.2861,-333 211.714,-333 "/>
<polyline fill="none" stroke="black" points="64.2861,-309 211.714,-309 "/>
<text text-anchor="start" x="72.2861" y="-293.8" font-family="Times,serif" font-size="14.00">_layout</text>
<text text-anchor="start" x="72.2861" y="-279.8" font-family="Times,serif" font-size="14.00">set_likeable</text>
</g>
<!-- StoresController -->
<g id="node10" class="node"><title>StoresController</title>
<path fill="none" stroke="black" d="M107.728,-33C107.728,-33 192.272,-33 192.272,-33 198.272,-33 204.272,-39 204.272,-45 204.272,-45 204.272,-223 204.272,-223 204.272,-229 198.272,-235 192.272,-235 192.272,-235 107.728,-235 107.728,-235 101.728,-235 95.7275,-229 95.7275,-223 95.7275,-223 95.7275,-45 95.7275,-45 95.7275,-39 101.728,-33 107.728,-33"/>
<text text-anchor="middle" x="150" y="-219.8" font-family="Times,serif" font-size="14.00">StoresController</text>
<polyline fill="none" stroke="black" points="95.7275,-213 204.272,-213 "/>
<text text-anchor="start" x="103.728" y="-197.8" font-family="Times,serif" font-size="14.00">index</text>
<text text-anchor="start" x="103.728" y="-183.8" font-family="Times,serif" font-size="14.00">destroy</text>
<text text-anchor="start" x="103.728" y="-169.8" font-family="Times,serif" font-size="14.00">edit</text>
<text text-anchor="start" x="103.728" y="-155.8" font-family="Times,serif" font-size="14.00">create</text>
<text text-anchor="start" x="103.728" y="-141.8" font-family="Times,serif" font-size="14.00">new</text>
<text text-anchor="start" x="103.728" y="-127.8" font-family="Times,serif" font-size="14.00">show</text>
<text text-anchor="start" x="103.728" y="-113.8" font-family="Times,serif" font-size="14.00">update</text>
<polyline fill="none" stroke="black" points="95.7275,-107 204.272,-107 "/>
<polyline fill="none" stroke="black" points="95.7275,-83 204.272,-83 "/>
<text text-anchor="start" x="103.728" y="-67.8" font-family="Times,serif" font-size="14.00">_layout</text>
<text text-anchor="start" x="103.728" y="-53.8" font-family="Times,serif" font-size="14.00">set_store</text>
<text text-anchor="start" x="103.728" y="-39.8" font-family="Times,serif" font-size="14.00">store_params</text>
</g>
<!-- TagsController -->
<g id="node11" class="node"><title>TagsController</title>
<path fill="none" stroke="black" d="M-227.891,-241C-227.891,-241 -152.109,-241 -152.109,-241 -146.109,-241 -140.109,-247 -140.109,-253 -140.109,-253 -140.109,-333 -140.109,-333 -140.109,-339 -146.109,-345 -152.109,-345 -152.109,-345 -227.891,-345 -227.891,-345 -233.891,-345 -239.891,-339 -239.891,-333 -239.891,-333 -239.891,-253 -239.891,-253 -239.891,-247 -233.891,-241 -227.891,-241"/>
<text text-anchor="middle" x="-190" y="-329.8" font-family="Times,serif" font-size="14.00">TagsController</text>
<polyline fill="none" stroke="black" points="-239.891,-323 -140.109,-323 "/>
<text text-anchor="start" x="-231.891" y="-307.8" font-family="Times,serif" font-size="14.00">index</text>
<text text-anchor="start" x="-231.891" y="-293.8" font-family="Times,serif" font-size="14.00">show</text>
<polyline fill="none" stroke="black" points="-239.891,-287 -140.109,-287 "/>
<polyline fill="none" stroke="black" points="-239.891,-263 -140.109,-263 "/>
<text text-anchor="start" x="-231.891" y="-247.8" font-family="Times,serif" font-size="14.00">_layout</text>
</g>
<!-- Users::OmniauthCallbacksController -->
<g id="node12" class="node"><title>Users::OmniauthCallbacksController</title>
<path fill="none" stroke="black" d="M107.796,95C107.796,95 308.204,95 308.204,95 314.204,95 320.204,89 320.204,83 320.204,83 320.204,17 320.204,17 320.204,11 314.204,5 308.204,5 308.204,5 107.796,5 107.796,5 101.796,5 95.7964,11 95.7964,17 95.7964,17 95.7964,83 95.7964,83 95.7964,89 101.796,95 107.796,95"/>
<text text-anchor="middle" x="208" y="20.2" font-family="Times,serif" font-size="14.00">Users::OmniauthCallbacksController</text>
<polyline fill="none" stroke="black" points="95.7964,27 320.204,27 "/>
<text text-anchor="start" x="103.796" y="42.2" font-family="Times,serif" font-size="14.00">facebook</text>
<polyline fill="none" stroke="black" points="95.7964,49 320.204,49 "/>
<polyline fill="none" stroke="black" points="95.7964,73 320.204,73 "/>
<text text-anchor="start" x="103.796" y="88.2" font-family="Times,serif" font-size="14.00">_layout</text>
</g>
<!-- UsersController -->
<g id="node13" class="node"><title>UsersController</title>
<path fill="none" stroke="black" d="M332.286,319C332.286,319 413.714,319 413.714,319 419.714,319 425.714,313 425.714,307 425.714,307 425.714,241 425.714,241 425.714,235 419.714,229 413.714,229 413.714,229 332.286,229 332.286,229 326.286,229 320.286,235 320.286,241 320.286,241 320.286,307 320.286,307 320.286,313 326.286,319 332.286,319"/>
<text text-anchor="middle" x="373" y="244.2" font-family="Times,serif" font-size="14.00">UsersController</text>
<polyline fill="none" stroke="black" points="320.286,251 425.714,251 "/>
<text text-anchor="start" x="328.286" y="266.2" font-family="Times,serif" font-size="14.00">show</text>
<polyline fill="none" stroke="black" points="320.286,273 425.714,273 "/>
<polyline fill="none" stroke="black" points="320.286,297 425.714,297 "/>
<text text-anchor="start" x="328.286" y="312.2" font-family="Times,serif" font-size="14.00">_layout</text>
</g>
<!-- WishlistsController -->
<g id="node14" class="node"><title>WishlistsController</title>
<path fill="none" stroke="black" d="M-68.3794,111C-68.3794,111 50.3794,111 50.3794,111 56.3794,111 62.3794,105 62.3794,99 62.3794,99 62.3794,-79 62.3794,-79 62.3794,-85 56.3794,-91 50.3794,-91 50.3794,-91 -68.3794,-91 -68.3794,-91 -74.3794,-91 -80.3794,-85 -80.3794,-79 -80.3794,-79 -80.3794,99 -80.3794,99 -80.3794,105 -74.3794,111 -68.3794,111"/>
<text text-anchor="middle" x="-9" y="-75.8" font-family="Times,serif" font-size="14.00">WishlistsController</text>
<polyline fill="none" stroke="black" points="-80.3794,-69 62.3794,-69 "/>
<text text-anchor="start" x="-72.3794" y="-53.8" font-family="Times,serif" font-size="14.00">edit</text>
<text text-anchor="start" x="-72.3794" y="-39.8" font-family="Times,serif" font-size="14.00">create</text>
<text text-anchor="start" x="-72.3794" y="-25.8" font-family="Times,serif" font-size="14.00">destroy</text>
<text text-anchor="start" x="-72.3794" y="-11.8" font-family="Times,serif" font-size="14.00">add_to_wishlist</text>
<text text-anchor="start" x="-72.3794" y="2.2" font-family="Times,serif" font-size="14.00">remove_from_wishlist</text>
<text text-anchor="start" x="-72.3794" y="16.2" font-family="Times,serif" font-size="14.00">show</text>
<text text-anchor="start" x="-72.3794" y="30.2" font-family="Times,serif" font-size="14.00">update</text>
<polyline fill="none" stroke="black" points="-80.3794,37 62.3794,37 "/>
<polyline fill="none" stroke="black" points="-80.3794,61 62.3794,61 "/>
<text text-anchor="start" x="-72.3794" y="76.2" font-family="Times,serif" font-size="14.00">_layout</text>
<text text-anchor="start" x="-72.3794" y="90.2" font-family="Times,serif" font-size="14.00">set_wishlist</text>
<text text-anchor="start" x="-72.3794" y="104.2" font-family="Times,serif" font-size="14.00">wishlist_params</text>
</g>
</g>
</svg>
