<?xml version="1.0" encoding="UTF-8" standalone="no"?>
<!DOCTYPE svg PUBLIC "-//W3C//DTD SVG 1.1//EN"
 "http://www.w3.org/Graphics/SVG/1.1/DTD/svg11.dtd">
<!-- Generated by graphviz version 2.38.0 (20140413.2041)
 -->
<!-- Title: controllers_diagram Pages: 1 -->
<svg width="761pt" height="739pt"
 viewBox="0.00 0.00 761.43 739.00" xmlns="http://www.w3.org/2000/svg" xmlns:xlink="http://www.w3.org/1999/xlink">
<g id="graph0" class="graph" transform="scale(1 1) rotate(0) translate(323.714 415.5)">
<title>controllers_diagram</title>
<polygon fill="none" stroke="none" points="-323.714,323.5 -323.714,-415.5 437.714,-415.5 437.714,323.5 -323.714,323.5"/>
<!-- _diagram_info -->
<g id="node1" class="node"><title>_diagram_info</title>
<text text-anchor="start" x="40.3123" y="180.9" font-family="Times,serif" font-size="13.00">Controllers diagram</text>
<text text-anchor="start" x="40.3123" y="193.9" font-family="Times,serif" font-size="13.00">Date: May 17 2016 &#45; 20:49</text>
<text text-anchor="start" x="40.3123" y="206.9" font-family="Times,serif" font-size="13.00">Migration version: 20160517234613</text>
<text text-anchor="start" x="40.3123" y="219.9" font-family="Times,serif" font-size="13.00">Generated by RailRoady 1.4.2</text>
<text text-anchor="start" x="40.3123" y="232.9" font-family="Times,serif" font-size="13.00">http://railroady.prestonlee.com</text>
</g>
<!-- ApplicationController -->
<g id="node2" class="node"><title>ApplicationController</title>
<path fill="none" stroke="black" d="M-83.8208,-289C-83.8208,-289 31.8208,-289 31.8208,-289 37.8208,-289 43.8208,-295 43.8208,-301 43.8208,-301 43.8208,-369 43.8208,-369 43.8208,-375 37.8208,-381 31.8208,-381 31.8208,-381 -83.8208,-381 -83.8208,-381 -89.8208,-381 -95.8208,-375 -95.8208,-369 -95.8208,-369 -95.8208,-301 -95.8208,-301 -95.8208,-295 -89.8208,-289 -83.8208,-289"/>
<text text-anchor="middle" x="-26" y="-365.8" font-family="Times,serif" font-size="14.00">ApplicationController</text>
<polyline fill="none" stroke="black" points="-95.8208,-359 43.8208,-359 "/>
<polyline fill="none" stroke="black" points="-95.8208,-335 43.8208,-335 "/>
<polyline fill="none" stroke="black" points="-95.8208,-311 43.8208,-311 "/>
<text text-anchor="start" x="-87.8208" y="-295.8" font-family="Times,serif" font-size="14.00">_layout</text>
</g>
<!-- CommentsController -->
<g id="node3" class="node"><title>CommentsController</title>
<path fill="none" stroke="black" d="M-244.107,-129C-244.107,-129 -133.893,-129 -133.893,-129 -127.893,-129 -121.893,-135 -121.893,-141 -121.893,-141 -121.893,-235 -121.893,-235 -121.893,-241 -127.893,-247 -133.893,-247 -133.893,-247 -244.107,-247 -244.107,-247 -250.107,-247 -256.107,-241 -256.107,-235 -256.107,-235 -256.107,-141 -256.107,-141 -256.107,-135 -250.107,-129 -244.107,-129"/>
<text text-anchor="middle" x="-189" y="-231.8" font-family="Times,serif" font-size="14.00">CommentsController</text>
<polyline fill="none" stroke="black" points="-256.107,-225 -121.893,-225 "/>
<text text-anchor="start" x="-248.107" y="-209.8" font-family="Times,serif" font-size="14.00">create</text>
<text text-anchor="start" x="-248.107" y="-195.8" font-family="Times,serif" font-size="14.00">destroy</text>
<polyline fill="none" stroke="black" points="-256.107,-189 -121.893,-189 "/>
<polyline fill="none" stroke="black" points="-256.107,-165 -121.893,-165 "/>
<text text-anchor="start" x="-248.107" y="-149.8" font-family="Times,serif" font-size="14.00">_layout</text>
<text text-anchor="start" x="-248.107" y="-135.8" font-family="Times,serif" font-size="14.00">comment_params</text>
</g>
<!-- LikesController -->
<g id="node4" class="node"><title>LikesController</title>
<path fill="none" stroke="black" d="M91.6758,-321C91.6758,-321 172.324,-321 172.324,-321 178.324,-321 184.324,-327 184.324,-333 184.324,-333 184.324,-399 184.324,-399 184.324,-405 178.324,-411 172.324,-411 172.324,-411 91.6758,-411 91.6758,-411 85.6758,-411 79.6758,-405 79.6758,-399 79.6758,-399 79.6758,-333 79.6758,-333 79.6758,-327 85.6758,-321 91.6758,-321"/>
<text text-anchor="middle" x="132" y="-395.8" font-family="Times,serif" font-size="14.00">LikesController</text>
<polyline fill="none" stroke="black" points="79.6758,-389 184.324,-389 "/>
<text text-anchor="start" x="87.6758" y="-373.8" font-family="Times,serif" font-size="14.00">create</text>
<polyline fill="none" stroke="black" points="79.6758,-367 184.324,-367 "/>
<polyline fill="none" stroke="black" points="79.6758,-343 184.324,-343 "/>
<text text-anchor="start" x="87.6758" y="-327.8" font-family="Times,serif" font-size="14.00">_layout</text>
</g>
<!-- Products::CommentsController -->
<g id="node5" class="node"><title>Products::CommentsController</title>
<path fill="none" stroke="black" d="M-180.497,191C-180.497,191 -13.5034,191 -13.5034,191 -7.50342,191 -1.50342,185 -1.50342,179 -1.50342,179 -1.50342,97 -1.50342,97 -1.50342,91 -7.50342,85 -13.5034,85 -13.5034,85 -180.497,85 -180.497,85 -186.497,85 -192.497,91 -192.497,97 -192.497,97 -192.497,179 -192.497,179 -192.497,185 -186.497,191 -180.497,191"/>
<text text-anchor="middle" x="-97" y="100.2" font-family="Times,serif" font-size="14.00">Products::CommentsController</text>
<polyline fill="none" stroke="black" points="-192.497,107 -1.50342,107 "/>
<polyline fill="none" stroke="black" points="-192.497,131 -1.50342,131 "/>
<polyline fill="none" stroke="black" points="-192.497,155 -1.50342,155 "/>
<text text-anchor="start" x="-184.497" y="170.2" font-family="Times,serif" font-size="14.00">_layout</text>
<text text-anchor="start" x="-184.497" y="184.2" font-family="Times,serif" font-size="14.00">set_commentable</text>
</g>
<!-- Products::LikesController -->
<g id="node6" class="node"><title>Products::LikesController</title>
<path fill="none" stroke="black" d="M284.286,271C284.286,271 421.714,271 421.714,271 427.714,271 433.714,265 433.714,259 433.714,259 433.714,177 433.714,177 433.714,171 427.714,165 421.714,165 421.714,165 284.286,165 284.286,165 278.286,165 272.286,171 272.286,177 272.286,177 272.286,259 272.286,259 272.286,265 278.286,271 284.286,271"/>
<text text-anchor="middle" x="353" y="180.2" font-family="Times,serif" font-size="14.00">Products::LikesController</text>
<polyline fill="none" stroke="black" points="272.286,187 433.714,187 "/>
<polyline fill="none" stroke="black" points="272.286,211 433.714,211 "/>
<polyline fill="none" stroke="black" points="272.286,235 433.714,235 "/>
<text text-anchor="start" x="280.286" y="250.2" font-family="Times,serif" font-size="14.00">_layout</text>
<text text-anchor="start" x="280.286" y="264.2" font-family="Times,serif" font-size="14.00">set_likeable</text>
</g>
<!-- ProductsController -->
<g id="node7" class="node"><title>ProductsController</title>
<path fill="none" stroke="black" d="M235.728,-17C235.728,-17 334.272,-17 334.272,-17 340.272,-17 346.272,-23 346.272,-29 346.272,-29 346.272,-179 346.272,-179 346.272,-185 340.272,-191 334.272,-191 334.272,-191 235.728,-191 235.728,-191 229.728,-191 223.728,-185 223.728,-179 223.728,-179 223.728,-29 223.728,-29 223.728,-23 229.728,-17 235.728,-17"/>
<text text-anchor="middle" x="285" y="-175.8" font-family="Times,serif" font-size="14.00">ProductsController</text>
<polyline fill="none" stroke="black" points="223.728,-169 346.272,-169 "/>
<text text-anchor="start" x="231.728" y="-153.8" font-family="Times,serif" font-size="14.00">create</text>
<text text-anchor="start" x="231.728" y="-139.8" font-family="Times,serif" font-size="14.00">destroy</text>
<text text-anchor="start" x="231.728" y="-125.8" font-family="Times,serif" font-size="14.00">edit</text>
<text text-anchor="start" x="231.728" y="-111.8" font-family="Times,serif" font-size="14.00">show</text>
<text text-anchor="start" x="231.728" y="-97.8" font-family="Times,serif" font-size="14.00">update</text>
<polyline fill="none" stroke="black" points="223.728,-91 346.272,-91 "/>
<polyline fill="none" stroke="black" points="223.728,-67 346.272,-67 "/>
<text text-anchor="start" x="231.728" y="-51.8" font-family="Times,serif" font-size="14.00">_layout</text>
<text text-anchor="start" x="231.728" y="-37.8" font-family="Times,serif" font-size="14.00">product_params</text>
<text text-anchor="start" x="231.728" y="-23.8" font-family="Times,serif" font-size="14.00">set_product</text>
</g>
<!-- Stores::CommentsController -->
<g id="node8" class="node"><title>Stores::CommentsController</title>
<path fill="none" stroke="black" d="M139.503,127C139.503,127 292.497,127 292.497,127 298.497,127 304.497,121 304.497,115 304.497,115 304.497,33 304.497,33 304.497,27 298.497,21 292.497,21 292.497,21 139.503,21 139.503,21 133.503,21 127.503,27 127.503,33 127.503,33 127.503,115 127.503,115 127.503,121 133.503,127 139.503,127"/>
<text text-anchor="middle" x="216" y="36.2" font-family="Times,serif" font-size="14.00">Stores::CommentsController</text>
<polyline fill="none" stroke="black" points="127.503,43 304.497,43 "/>
<polyline fill="none" stroke="black" points="127.503,67 304.497,67 "/>
<polyline fill="none" stroke="black" points="127.503,91 304.497,91 "/>
<text text-anchor="start" x="135.503" y="106.2" font-family="Times,serif" font-size="14.00">_layout</text>
<text text-anchor="start" x="135.503" y="120.2" font-family="Times,serif" font-size="14.00">set_commentable</text>
</g>
<!-- Stores::LikesController -->
<g id="node9" class="node"><title>Stores::LikesController</title>
<path fill="none" stroke="black" d="M-259.714,-273C-259.714,-273 -136.286,-273 -136.286,-273 -130.286,-273 -124.286,-279 -124.286,-285 -124.286,-285 -124.286,-367 -124.286,-367 -124.286,-373 -130.286,-379 -136.286,-379 -136.286,-379 -259.714,-379 -259.714,-379 -265.714,-379 -271.714,-373 -271.714,-367 -271.714,-367 -271.714,-285 -271.714,-285 -271.714,-279 -265.714,-273 -259.714,-273"/>
<text text-anchor="middle" x="-198" y="-363.8" font-family="Times,serif" font-size="14.00">Stores::LikesController</text>
<polyline fill="none" stroke="black" points="-271.714,-357 -124.286,-357 "/>
<polyline fill="none" stroke="black" points="-271.714,-333 -124.286,-333 "/>
<polyline fill="none" stroke="black" points="-271.714,-309 -124.286,-309 "/>
<text text-anchor="start" x="-263.714" y="-293.8" font-family="Times,serif" font-size="14.00">_layout</text>
<text text-anchor="start" x="-263.714" y="-279.8" font-family="Times,serif" font-size="14.00">set_likeable</text>
</g>
<!-- StoresController -->
<g id="node10" class="node"><title>StoresController</title>
<path fill="none" stroke="black" d="M91.7275,-81C91.7275,-81 176.272,-81 176.272,-81 182.272,-81 188.272,-87 188.272,-93 188.272,-93 188.272,-271 188.272,-271 188.272,-277 182.272,-283 176.272,-283 176.272,-283 91.7275,-283 91.7275,-283 85.7275,-283 79.7275,-277 79.7275,-271 79.7275,-271 79.7275,-93 79.7275,-93 79.7275,-87 85.7275,-81 91.7275,-81"/>
<text text-anchor="middle" x="134" y="-267.8" font-family="Times,serif" font-size="14.00">StoresController</text>
<polyline fill="none" stroke="black" points="79.7275,-261 188.272,-261 "/>
<text text-anchor="start" x="87.7275" y="-245.8" font-family="Times,serif" font-size="14.00">index</text>
<text text-anchor="start" x="87.7275" y="-231.8" font-family="Times,serif" font-size="14.00">destroy</text>
<text text-anchor="start" x="87.7275" y="-217.8" font-family="Times,serif" font-size="14.00">edit</text>
<text text-anchor="start" x="87.7275" y="-203.8" font-family="Times,serif" font-size="14.00">create</text>
<text text-anchor="start" x="87.7275" y="-189.8" font-family="Times,serif" font-size="14.00">new</text>
<text text-anchor="start" x="87.7275" y="-175.8" font-family="Times,serif" font-size="14.00">show</text>
<text text-anchor="start" x="87.7275" y="-161.8" font-family="Times,serif" font-size="14.00">update</text>
<polyline fill="none" stroke="black" points="79.7275,-155 188.272,-155 "/>
<polyline fill="none" stroke="black" points="79.7275,-131 188.272,-131 "/>
<text text-anchor="start" x="87.7275" y="-115.8" font-family="Times,serif" font-size="14.00">_layout</text>
<text text-anchor="start" x="87.7275" y="-101.8" font-family="Times,serif" font-size="14.00">set_store</text>
<text text-anchor="start" x="87.7275" y="-87.8" font-family="Times,serif" font-size="14.00">store_params</text>
</g>
<!-- TagsController -->
<g id="node11" class="node"><title>TagsController</title>
<path fill="none" stroke="black" d="M-243.891,15C-243.891,15 -168.109,15 -168.109,15 -162.109,15 -156.109,9 -156.109,3 -156.109,3 -156.109,-77 -156.109,-77 -156.109,-83 -162.109,-89 -168.109,-89 -168.109,-89 -243.891,-89 -243.891,-89 -249.891,-89 -255.891,-83 -255.891,-77 -255.891,-77 -255.891,3 -255.891,3 -255.891,9 -249.891,15 -243.891,15"/>
<text text-anchor="middle" x="-206" y="-73.8" font-family="Times,serif" font-size="14.00">TagsController</text>
<polyline fill="none" stroke="black" points="-255.891,-67 -156.109,-67 "/>
<text text-anchor="start" x="-247.891" y="-51.8" font-family="Times,serif" font-size="14.00">index</text>
<text text-anchor="start" x="-247.891" y="-37.8" font-family="Times,serif" font-size="14.00">show</text>
<polyline fill="none" stroke="black" points="-255.891,-31 -156.109,-31 "/>
<polyline fill="none" stroke="black" points="-255.891,-7 -156.109,-7 "/>
<text text-anchor="start" x="-247.891" y="8.2" font-family="Times,serif" font-size="14.00">_layout</text>
</g>
<!-- UserWishlistsController -->
<g id="node12" class="node"><title>UserWishlistsController</title>
<path fill="none" stroke="black" d="M236.458,-225C236.458,-225 385.542,-225 385.542,-225 391.542,-225 397.542,-231 397.542,-237 397.542,-237 397.542,-331 397.542,-331 397.542,-337 391.542,-343 385.542,-343 385.542,-343 236.458,-343 236.458,-343 230.458,-343 224.458,-337 224.458,-331 224.458,-331 224.458,-237 224.458,-237 224.458,-231 230.458,-225 236.458,-225"/>
<text text-anchor="middle" x="311" y="-327.8" font-family="Times,serif" font-size="14.00">UserWishlistsController</text>
<polyline fill="none" stroke="black" points="224.458,-321 397.542,-321 "/>
<text text-anchor="start" x="232.458" y="-305.8" font-family="Times,serif" font-size="14.00">add_to_wishlist</text>
<text text-anchor="start" x="232.458" y="-291.8" font-family="Times,serif" font-size="14.00">remove_from_user_wishlist</text>
<text text-anchor="start" x="232.458" y="-277.8" font-family="Times,serif" font-size="14.00">show</text>
<polyline fill="none" stroke="black" points="224.458,-271 397.542,-271 "/>
<polyline fill="none" stroke="black" points="224.458,-247 397.542,-247 "/>
<text text-anchor="start" x="232.458" y="-231.8" font-family="Times,serif" font-size="14.00">_layout</text>
</g>
<!-- Users::OmniauthCallbacksController -->
<g id="node13" class="node"><title>Users::OmniauthCallbacksController</title>
<path fill="none" stroke="black" d="M-116.204,47C-116.204,47 84.2036,47 84.2036,47 90.2036,47 96.2036,41 96.2036,35 96.2036,35 96.2036,-31 96.2036,-31 96.2036,-37 90.2036,-43 84.2036,-43 84.2036,-43 -116.204,-43 -116.204,-43 -122.204,-43 -128.204,-37 -128.204,-31 -128.204,-31 -128.204,35 -128.204,35 -128.204,41 -122.204,47 -116.204,47"/>
<text text-anchor="middle" x="-16" y="-27.8" font-family="Times,serif" font-size="14.00">Users::OmniauthCallbacksController</text>
<polyline fill="none" stroke="black" points="-128.204,-21 96.2036,-21 "/>
<text text-anchor="start" x="-120.204" y="-5.8" font-family="Times,serif" font-size="14.00">facebook</text>
<polyline fill="none" stroke="black" points="-128.204,1 96.2036,1 "/>
<polyline fill="none" stroke="black" points="-128.204,25 96.2036,25 "/>
<text text-anchor="start" x="-120.204" y="40.2" font-family="Times,serif" font-size="14.00">_layout</text>
</g>
<!-- UsersController -->
<g id="node14" class="node"><title>UsersController</title>
<path fill="none" stroke="black" d="M-307.714,319C-307.714,319 -226.286,319 -226.286,319 -220.286,319 -214.286,313 -214.286,307 -214.286,307 -214.286,241 -214.286,241 -214.286,235 -220.286,229 -226.286,229 -226.286,229 -307.714,229 -307.714,229 -313.714,229 -319.714,235 -319.714,241 -319.714,241 -319.714,307 -319.714,307 -319.714,313 -313.714,319 -307.714,319"/>
<text text-anchor="middle" x="-267" y="244.2" font-family="Times,serif" font-size="14.00">UsersController</text>
<polyline fill="none" stroke="black" points="-319.714,251 -214.286,251 "/>
<text text-anchor="start" x="-311.714" y="266.2" font-family="Times,serif" font-size="14.00">show</text>
<polyline fill="none" stroke="black" points="-319.714,273 -214.286,273 "/>
<polyline fill="none" stroke="black" points="-319.714,297 -214.286,297 "/>
<text text-anchor="start" x="-311.714" y="312.2" font-family="Times,serif" font-size="14.00">_layout</text>
</g>
<!-- WishlistsController -->
<g id="node15" class="node"><title>WishlistsController</title>
<path fill="none" stroke="black" d="M-84.3794,-97C-84.3794,-97 34.3794,-97 34.3794,-97 40.3794,-97 46.3794,-103 46.3794,-109 46.3794,-109 46.3794,-245 46.3794,-245 46.3794,-251 40.3794,-257 34.3794,-257 34.3794,-257 -84.3794,-257 -84.3794,-257 -90.3794,-257 -96.3794,-251 -96.3794,-245 -96.3794,-245 -96.3794,-109 -96.3794,-109 -96.3794,-103 -90.3794,-97 -84.3794,-97"/>
<text text-anchor="middle" x="-25" y="-241.8" font-family="Times,serif" font-size="14.00">WishlistsController</text>
<polyline fill="none" stroke="black" points="-96.3794,-235 46.3794,-235 "/>
<text text-anchor="start" x="-88.3794" y="-219.8" font-family="Times,serif" font-size="14.00">add_to_wishlist</text>
<text text-anchor="start" x="-88.3794" y="-205.8" font-family="Times,serif" font-size="14.00">remove_from_wishlist</text>
<text text-anchor="start" x="-88.3794" y="-191.8" font-family="Times,serif" font-size="14.00">show</text>
<text text-anchor="start" x="-88.3794" y="-177.8" font-family="Times,serif" font-size="14.00">update</text>
<polyline fill="none" stroke="black" points="-96.3794,-171 46.3794,-171 "/>
<polyline fill="none" stroke="black" points="-96.3794,-147 46.3794,-147 "/>
<text text-anchor="start" x="-88.3794" y="-131.8" font-family="Times,serif" font-size="14.00">_layout</text>
<text text-anchor="start" x="-88.3794" y="-117.8" font-family="Times,serif" font-size="14.00">set_wishlist</text>
<text text-anchor="start" x="-88.3794" y="-103.8" font-family="Times,serif" font-size="14.00">wishlist_params</text>
</g>
</g>
</svg>
