<?xml version="1.0" encoding="UTF-8" standalone="no"?>
<!DOCTYPE svg PUBLIC "-//W3C//DTD SVG 1.1//EN"
 "http://www.w3.org/Graphics/SVG/1.1/DTD/svg11.dtd">
<!-- Generated by graphviz version 2.38.0 (20140413.2041)
 -->
<!-- Title: controllers_diagram Pages: 1 -->
<svg width="775pt" height="753pt"
 viewBox="0.00 0.00 774.82 753.00" xmlns="http://www.w3.org/2000/svg" xmlns:xlink="http://www.w3.org/1999/xlink">
<g id="graph0" class="graph" transform="scale(1 1) rotate(0) translate(324.324 429.5)">
<title>controllers_diagram</title>
<polygon fill="none" stroke="none" points="-324.324,323.5 -324.324,-429.5 450.497,-429.5 450.497,323.5 -324.324,323.5"/>
<!-- _diagram_info -->
<g id="node1" class="node"><title>_diagram_info</title>
<text text-anchor="start" x="247.55" y="180.9" font-family="Times,serif" font-size="13.00">Controllers diagram</text>
<text text-anchor="start" x="247.55" y="193.9" font-family="Times,serif" font-size="13.00">Date: May 23 2016 &#45; 23:05</text>
<text text-anchor="start" x="247.55" y="206.9" font-family="Times,serif" font-size="13.00">Migration version: 20160523230110</text>
<text text-anchor="start" x="247.55" y="219.9" font-family="Times,serif" font-size="13.00">Generated by RailRoady 1.4.2</text>
<text text-anchor="start" x="247.55" y="232.9" font-family="Times,serif" font-size="13.00">http://railroady.prestonlee.com</text>
</g>
<!-- ApplicationController -->
<g id="node2" class="node"><title>ApplicationController</title>
<path fill="none" stroke="black" d="M28.0342,255C28.0342,255 201.966,255 201.966,255 207.966,255 213.966,249 213.966,243 213.966,243 213.966,177 213.966,177 213.966,171 207.966,165 201.966,165 201.966,165 28.0342,165 28.0342,165 22.0342,165 16.0342,171 16.0342,177 16.0342,177 16.0342,243 16.0342,243 16.0342,249 22.0342,255 28.0342,255"/>
<text text-anchor="middle" x="115" y="180.2" font-family="Times,serif" font-size="14.00">ApplicationController</text>
<polyline fill="none" stroke="black" points="16.0342,187 213.966,187 "/>
<polyline fill="none" stroke="black" points="16.0342,211 213.966,211 "/>
<text text-anchor="start" x="24.0342" y="226.2" font-family="Times,serif" font-size="14.00">configure_permitted_parameters</text>
<polyline fill="none" stroke="black" points="16.0342,233 213.966,233 "/>
<text text-anchor="start" x="24.0342" y="248.2" font-family="Times,serif" font-size="14.00">_layout</text>
</g>
<!-- CommentsController -->
<g id="node3" class="node"><title>CommentsController</title>
<path fill="none" stroke="black" d="M-212.107,-113C-212.107,-113 -101.893,-113 -101.893,-113 -95.8931,-113 -89.8931,-119 -89.8931,-125 -89.8931,-125 -89.8931,-219 -89.8931,-219 -89.8931,-225 -95.8931,-231 -101.893,-231 -101.893,-231 -212.107,-231 -212.107,-231 -218.107,-231 -224.107,-225 -224.107,-219 -224.107,-219 -224.107,-125 -224.107,-125 -224.107,-119 -218.107,-113 -212.107,-113"/>
<text text-anchor="middle" x="-157" y="-215.8" font-family="Times,serif" font-size="14.00">CommentsController</text>
<polyline fill="none" stroke="black" points="-224.107,-209 -89.8931,-209 "/>
<text text-anchor="start" x="-216.107" y="-193.8" font-family="Times,serif" font-size="14.00">create</text>
<text text-anchor="start" x="-216.107" y="-179.8" font-family="Times,serif" font-size="14.00">destroy</text>
<polyline fill="none" stroke="black" points="-224.107,-173 -89.8931,-173 "/>
<polyline fill="none" stroke="black" points="-224.107,-149 -89.8931,-149 "/>
<text text-anchor="start" x="-216.107" y="-133.8" font-family="Times,serif" font-size="14.00">_layout</text>
<text text-anchor="start" x="-216.107" y="-119.8" font-family="Times,serif" font-size="14.00">comment_params</text>
</g>
<!-- LikesController -->
<g id="node4" class="node"><title>LikesController</title>
<path fill="none" stroke="black" d="M-308.324,319C-308.324,319 -227.676,319 -227.676,319 -221.676,319 -215.676,313 -215.676,307 -215.676,307 -215.676,241 -215.676,241 -215.676,235 -221.676,229 -227.676,229 -227.676,229 -308.324,229 -308.324,229 -314.324,229 -320.324,235 -320.324,241 -320.324,241 -320.324,307 -320.324,307 -320.324,313 -314.324,319 -308.324,319"/>
<text text-anchor="middle" x="-268" y="244.2" font-family="Times,serif" font-size="14.00">LikesController</text>
<polyline fill="none" stroke="black" points="-320.324,251 -215.676,251 "/>
<text text-anchor="start" x="-312.324" y="266.2" font-family="Times,serif" font-size="14.00">create</text>
<polyline fill="none" stroke="black" points="-320.324,273 -215.676,273 "/>
<polyline fill="none" stroke="black" points="-320.324,297 -215.676,297 "/>
<text text-anchor="start" x="-312.324" y="312.2" font-family="Times,serif" font-size="14.00">_layout</text>
</g>
<!-- Products::CommentsController -->
<g id="node5" class="node"><title>Products::CommentsController</title>
<path fill="none" stroke="black" d="M267.503,-81C267.503,-81 434.497,-81 434.497,-81 440.497,-81 446.497,-87 446.497,-93 446.497,-93 446.497,-175 446.497,-175 446.497,-181 440.497,-187 434.497,-187 434.497,-187 267.503,-187 267.503,-187 261.503,-187 255.503,-181 255.503,-175 255.503,-175 255.503,-93 255.503,-93 255.503,-87 261.503,-81 267.503,-81"/>
<text text-anchor="middle" x="351" y="-171.8" font-family="Times,serif" font-size="14.00">Products::CommentsController</text>
<polyline fill="none" stroke="black" points="255.503,-165 446.497,-165 "/>
<polyline fill="none" stroke="black" points="255.503,-141 446.497,-141 "/>
<polyline fill="none" stroke="black" points="255.503,-117 446.497,-117 "/>
<text text-anchor="start" x="263.503" y="-101.8" font-family="Times,serif" font-size="14.00">_layout</text>
<text text-anchor="start" x="263.503" y="-87.8" font-family="Times,serif" font-size="14.00">set_commentable</text>
</g>
<!-- Products::LikesController -->
<g id="node6" class="node"><title>Products::LikesController</title>
<path fill="none" stroke="black" d="M-243.714,-257C-243.714,-257 -106.286,-257 -106.286,-257 -100.286,-257 -94.2861,-263 -94.2861,-269 -94.2861,-269 -94.2861,-351 -94.2861,-351 -94.2861,-357 -100.286,-363 -106.286,-363 -106.286,-363 -243.714,-363 -243.714,-363 -249.714,-363 -255.714,-357 -255.714,-351 -255.714,-351 -255.714,-269 -255.714,-269 -255.714,-263 -249.714,-257 -243.714,-257"/>
<text text-anchor="middle" x="-175" y="-347.8" font-family="Times,serif" font-size="14.00">Products::LikesController</text>
<polyline fill="none" stroke="black" points="-255.714,-341 -94.2861,-341 "/>
<polyline fill="none" stroke="black" points="-255.714,-317 -94.2861,-317 "/>
<polyline fill="none" stroke="black" points="-255.714,-293 -94.2861,-293 "/>
<text text-anchor="start" x="-247.714" y="-277.8" font-family="Times,serif" font-size="14.00">_layout</text>
<text text-anchor="start" x="-247.714" y="-263.8" font-family="Times,serif" font-size="14.00">set_likeable</text>
</g>
<!-- ProductsController -->
<g id="node7" class="node"><title>ProductsController</title>
<path fill="none" stroke="black" d="M139.728,127C139.728,127 238.272,127 238.272,127 244.272,127 250.272,121 250.272,115 250.272,115 250.272,-35 250.272,-35 250.272,-41 244.272,-47 238.272,-47 238.272,-47 139.728,-47 139.728,-47 133.728,-47 127.728,-41 127.728,-35 127.728,-35 127.728,115 127.728,115 127.728,121 133.728,127 139.728,127"/>
<text text-anchor="middle" x="189" y="-31.8" font-family="Times,serif" font-size="14.00">ProductsController</text>
<polyline fill="none" stroke="black" points="127.728,-25 250.272,-25 "/>
<text text-anchor="start" x="135.728" y="-9.8" font-family="Times,serif" font-size="14.00">create</text>
<text text-anchor="start" x="135.728" y="4.2" font-family="Times,serif" font-size="14.00">destroy</text>
<text text-anchor="start" x="135.728" y="18.2" font-family="Times,serif" font-size="14.00">edit</text>
<text text-anchor="start" x="135.728" y="32.2" font-family="Times,serif" font-size="14.00">show</text>
<text text-anchor="start" x="135.728" y="46.2" font-family="Times,serif" font-size="14.00">update</text>
<polyline fill="none" stroke="black" points="127.728,53 250.272,53 "/>
<polyline fill="none" stroke="black" points="127.728,77 250.272,77 "/>
<text text-anchor="start" x="135.728" y="92.2" font-family="Times,serif" font-size="14.00">_layout</text>
<text text-anchor="start" x="135.728" y="106.2" font-family="Times,serif" font-size="14.00">product_params</text>
<text text-anchor="start" x="135.728" y="120.2" font-family="Times,serif" font-size="14.00">set_product</text>
</g>
<!-- SearchesController -->
<g id="node8" class="node"><title>SearchesController</title>
<path fill="none" stroke="black" d="M300.352,127C300.352,127 399.648,127 399.648,127 405.648,127 411.648,121 411.648,115 411.648,115 411.648,35 411.648,35 411.648,29 405.648,23 399.648,23 399.648,23 300.352,23 300.352,23 294.352,23 288.352,29 288.352,35 288.352,35 288.352,115 288.352,115 288.352,121 294.352,127 300.352,127"/>
<text text-anchor="middle" x="350" y="38.2" font-family="Times,serif" font-size="14.00">SearchesController</text>
<polyline fill="none" stroke="black" points="288.352,45 411.648,45 "/>
<text text-anchor="start" x="296.352" y="60.2" font-family="Times,serif" font-size="14.00">index</text>
<text text-anchor="start" x="296.352" y="74.2" font-family="Times,serif" font-size="14.00">show</text>
<polyline fill="none" stroke="black" points="288.352,81 411.648,81 "/>
<polyline fill="none" stroke="black" points="288.352,105 411.648,105 "/>
<text text-anchor="start" x="296.352" y="120.2" font-family="Times,serif" font-size="14.00">_layout</text>
</g>
<!-- Stores::CommentsController -->
<g id="node9" class="node"><title>Stores::CommentsController</title>
<path fill="none" stroke="black" d="M-180.497,191C-180.497,191 -27.5034,191 -27.5034,191 -21.5034,191 -15.5034,185 -15.5034,179 -15.5034,179 -15.5034,97 -15.5034,97 -15.5034,91 -21.5034,85 -27.5034,85 -27.5034,85 -180.497,85 -180.497,85 -186.497,85 -192.497,91 -192.497,97 -192.497,97 -192.497,179 -192.497,179 -192.497,185 -186.497,191 -180.497,191"/>
<text text-anchor="middle" x="-104" y="100.2" font-family="Times,serif" font-size="14.00">Stores::CommentsController</text>
<polyline fill="none" stroke="black" points="-192.497,107 -15.5034,107 "/>
<polyline fill="none" stroke="black" points="-192.497,131 -15.5034,131 "/>
<polyline fill="none" stroke="black" points="-192.497,155 -15.5034,155 "/>
<text text-anchor="start" x="-184.497" y="170.2" font-family="Times,serif" font-size="14.00">_layout</text>
<text text-anchor="start" x="-184.497" y="184.2" font-family="Times,serif" font-size="14.00">set_commentable</text>
</g>
<!-- Stores::LikesController -->
<g id="node10" class="node"><title>Stores::LikesController</title>
<path fill="none" stroke="black" d="M92.2861,-273C92.2861,-273 215.714,-273 215.714,-273 221.714,-273 227.714,-279 227.714,-285 227.714,-285 227.714,-367 227.714,-367 227.714,-373 221.714,-379 215.714,-379 215.714,-379 92.2861,-379 92.2861,-379 86.2861,-379 80.2861,-373 80.2861,-367 80.2861,-367 80.2861,-285 80.2861,-285 80.2861,-279 86.2861,-273 92.2861,-273"/>
<text text-anchor="middle" x="154" y="-363.8" font-family="Times,serif" font-size="14.00">Stores::LikesController</text>
<polyline fill="none" stroke="black" points="80.2861,-357 227.714,-357 "/>
<polyline fill="none" stroke="black" points="80.2861,-333 227.714,-333 "/>
<polyline fill="none" stroke="black" points="80.2861,-309 227.714,-309 "/>
<text text-anchor="start" x="88.2861" y="-293.8" font-family="Times,serif" font-size="14.00">_layout</text>
<text text-anchor="start" x="88.2861" y="-279.8" font-family="Times,serif" font-size="14.00">set_likeable</text>
</g>
<!-- StoresController -->
<g id="node11" class="node"><title>StoresController</title>
<path fill="none" stroke="black" d="M-52.2725,-81C-52.2725,-81 32.2725,-81 32.2725,-81 38.2725,-81 44.2725,-87 44.2725,-93 44.2725,-93 44.2725,-271 44.2725,-271 44.2725,-277 38.2725,-283 32.2725,-283 32.2725,-283 -52.2725,-283 -52.2725,-283 -58.2725,-283 -64.2725,-277 -64.2725,-271 -64.2725,-271 -64.2725,-93 -64.2725,-93 -64.2725,-87 -58.2725,-81 -52.2725,-81"/>
<text text-anchor="middle" x="-10" y="-267.8" font-family="Times,serif" font-size="14.00">StoresController</text>
<polyline fill="none" stroke="black" points="-64.2725,-261 44.2725,-261 "/>
<text text-anchor="start" x="-56.2725" y="-245.8" font-family="Times,serif" font-size="14.00">index</text>
<text text-anchor="start" x="-56.2725" y="-231.8" font-family="Times,serif" font-size="14.00">destroy</text>
<text text-anchor="start" x="-56.2725" y="-217.8" font-family="Times,serif" font-size="14.00">edit</text>
<text text-anchor="start" x="-56.2725" y="-203.8" font-family="Times,serif" font-size="14.00">create</text>
<text text-anchor="start" x="-56.2725" y="-189.8" font-family="Times,serif" font-size="14.00">new</text>
<text text-anchor="start" x="-56.2725" y="-175.8" font-family="Times,serif" font-size="14.00">show</text>
<text text-anchor="start" x="-56.2725" y="-161.8" font-family="Times,serif" font-size="14.00">update</text>
<polyline fill="none" stroke="black" points="-64.2725,-155 44.2725,-155 "/>
<polyline fill="none" stroke="black" points="-64.2725,-131 44.2725,-131 "/>
<text text-anchor="start" x="-56.2725" y="-115.8" font-family="Times,serif" font-size="14.00">_layout</text>
<text text-anchor="start" x="-56.2725" y="-101.8" font-family="Times,serif" font-size="14.00">set_store</text>
<text text-anchor="start" x="-56.2725" y="-87.8" font-family="Times,serif" font-size="14.00">store_params</text>
</g>
<!-- TagsController -->
<g id="node12" class="node"><title>TagsController</title>
<path fill="none" stroke="black" d="M-243.891,31C-243.891,31 -168.109,31 -168.109,31 -162.109,31 -156.109,25 -156.109,19 -156.109,19 -156.109,-61 -156.109,-61 -156.109,-67 -162.109,-73 -168.109,-73 -168.109,-73 -243.891,-73 -243.891,-73 -249.891,-73 -255.891,-67 -255.891,-61 -255.891,-61 -255.891,19 -255.891,19 -255.891,25 -249.891,31 -243.891,31"/>
<text text-anchor="middle" x="-206" y="-57.8" font-family="Times,serif" font-size="14.00">TagsController</text>
<polyline fill="none" stroke="black" points="-255.891,-51 -156.109,-51 "/>
<text text-anchor="start" x="-247.891" y="-35.8" font-family="Times,serif" font-size="14.00">index</text>
<text text-anchor="start" x="-247.891" y="-21.8" font-family="Times,serif" font-size="14.00">show</text>
<polyline fill="none" stroke="black" points="-255.891,-15 -156.109,-15 "/>
<polyline fill="none" stroke="black" points="-255.891,9 -156.109,9 "/>
<text text-anchor="start" x="-247.891" y="24.2" font-family="Times,serif" font-size="14.00">_layout</text>
</g>
<!-- UserWishlistsController -->
<g id="node13" class="node"><title>UserWishlistsController</title>
<path fill="none" stroke="black" d="M268.458,-225C268.458,-225 417.542,-225 417.542,-225 423.542,-225 429.542,-231 429.542,-237 429.542,-237 429.542,-331 429.542,-331 429.542,-337 423.542,-343 417.542,-343 417.542,-343 268.458,-343 268.458,-343 262.458,-343 256.458,-337 256.458,-331 256.458,-331 256.458,-237 256.458,-237 256.458,-231 262.458,-225 268.458,-225"/>
<text text-anchor="middle" x="343" y="-327.8" font-family="Times,serif" font-size="14.00">UserWishlistsController</text>
<polyline fill="none" stroke="black" points="256.458,-321 429.542,-321 "/>
<text text-anchor="start" x="264.458" y="-305.8" font-family="Times,serif" font-size="14.00">add_to_wishlist</text>
<text text-anchor="start" x="264.458" y="-291.8" font-family="Times,serif" font-size="14.00">remove_from_user_wishlist</text>
<text text-anchor="start" x="264.458" y="-277.8" font-family="Times,serif" font-size="14.00">show</text>
<polyline fill="none" stroke="black" points="256.458,-271 429.542,-271 "/>
<polyline fill="none" stroke="black" points="256.458,-247 429.542,-247 "/>
<text text-anchor="start" x="264.458" y="-231.8" font-family="Times,serif" font-size="14.00">_layout</text>
</g>
<!-- Users::OmniauthCallbacksController -->
<g id="node14" class="node"><title>Users::OmniauthCallbacksController</title>
<path fill="none" stroke="black" d="M-116.204,47C-116.204,47 84.2036,47 84.2036,47 90.2036,47 96.2036,41 96.2036,35 96.2036,35 96.2036,-31 96.2036,-31 96.2036,-37 90.2036,-43 84.2036,-43 84.2036,-43 -116.204,-43 -116.204,-43 -122.204,-43 -128.204,-37 -128.204,-31 -128.204,-31 -128.204,35 -128.204,35 -128.204,41 -122.204,47 -116.204,47"/>
<text text-anchor="middle" x="-16" y="-27.8" font-family="Times,serif" font-size="14.00">Users::OmniauthCallbacksController</text>
<polyline fill="none" stroke="black" points="-128.204,-21 96.2036,-21 "/>
<text text-anchor="start" x="-120.204" y="-5.8" font-family="Times,serif" font-size="14.00">facebook</text>
<polyline fill="none" stroke="black" points="-128.204,1 96.2036,1 "/>
<polyline fill="none" stroke="black" points="-128.204,25 96.2036,25 "/>
<text text-anchor="start" x="-120.204" y="40.2" font-family="Times,serif" font-size="14.00">_layout</text>
</g>
<!-- UsersController -->
<g id="node15" class="node"><title>UsersController</title>
<path fill="none" stroke="black" d="M-51.7139,-321C-51.7139,-321 29.7139,-321 29.7139,-321 35.7139,-321 41.7139,-327 41.7139,-333 41.7139,-333 41.7139,-413 41.7139,-413 41.7139,-419 35.7139,-425 29.7139,-425 29.7139,-425 -51.7139,-425 -51.7139,-425 -57.7139,-425 -63.7139,-419 -63.7139,-413 -63.7139,-413 -63.7139,-333 -63.7139,-333 -63.7139,-327 -57.7139,-321 -51.7139,-321"/>
<text text-anchor="middle" x="-11" y="-409.8" font-family="Times,serif" font-size="14.00">UsersController</text>
<polyline fill="none" stroke="black" points="-63.7139,-403 41.7139,-403 "/>
<text text-anchor="start" x="-55.7139" y="-387.8" font-family="Times,serif" font-size="14.00">login</text>
<text text-anchor="start" x="-55.7139" y="-373.8" font-family="Times,serif" font-size="14.00">show</text>
<polyline fill="none" stroke="black" points="-63.7139,-367 41.7139,-367 "/>
<polyline fill="none" stroke="black" points="-63.7139,-343 41.7139,-343 "/>
<text text-anchor="start" x="-55.7139" y="-327.8" font-family="Times,serif" font-size="14.00">_layout</text>
</g>
<!-- WishlistsController -->
<g id="node16" class="node"><title>WishlistsController</title>
<path fill="none" stroke="black" d="M91.6206,-81C91.6206,-81 210.379,-81 210.379,-81 216.379,-81 222.379,-87 222.379,-93 222.379,-93 222.379,-229 222.379,-229 222.379,-235 216.379,-241 210.379,-241 210.379,-241 91.6206,-241 91.6206,-241 85.6206,-241 79.6206,-235 79.6206,-229 79.6206,-229 79.6206,-93 79.6206,-93 79.6206,-87 85.6206,-81 91.6206,-81"/>
<text text-anchor="middle" x="151" y="-225.8" font-family="Times,serif" font-size="14.00">WishlistsController</text>
<polyline fill="none" stroke="black" points="79.6206,-219 222.379,-219 "/>
<text text-anchor="start" x="87.6206" y="-203.8" font-family="Times,serif" font-size="14.00">add_to_wishlist</text>
<text text-anchor="start" x="87.6206" y="-189.8" font-family="Times,serif" font-size="14.00">remove_from_wishlist</text>
<text text-anchor="start" x="87.6206" y="-175.8" font-family="Times,serif" font-size="14.00">show</text>
<text text-anchor="start" x="87.6206" y="-161.8" font-family="Times,serif" font-size="14.00">update</text>
<polyline fill="none" stroke="black" points="79.6206,-155 222.379,-155 "/>
<polyline fill="none" stroke="black" points="79.6206,-131 222.379,-131 "/>
<text text-anchor="start" x="87.6206" y="-115.8" font-family="Times,serif" font-size="14.00">_layout</text>
<text text-anchor="start" x="87.6206" y="-101.8" font-family="Times,serif" font-size="14.00">set_wishlist</text>
<text text-anchor="start" x="87.6206" y="-87.8" font-family="Times,serif" font-size="14.00">wishlist_params</text>
</g>
</g>
</svg>
