<?xml version="1.0" encoding="UTF-8" standalone="no"?>
<!DOCTYPE svg PUBLIC "-//W3C//DTD SVG 1.1//EN"
 "http://www.w3.org/Graphics/SVG/1.1/DTD/svg11.dtd">
<!-- Generated by graphviz version 2.38.0 (20140413.2041)
 -->
<!-- Title: controllers_diagram Pages: 1 -->
<svg width="472pt" height="419pt"
 viewBox="0.00 0.00 471.89 419.00" xmlns="http://www.w3.org/2000/svg" xmlns:xlink="http://www.w3.org/1999/xlink">
<g id="graph0" class="graph" transform="scale(1 1) rotate(0) translate(132.204 287.5)">
<title>controllers_diagram</title>
<polygon fill="none" stroke="none" points="-132.204,131.5 -132.204,-287.5 339.688,-287.5 339.688,131.5 -132.204,131.5"/>
<!-- _diagram_info -->
<g id="node1" class="node"><title>_diagram_info</title>
<text text-anchor="start" x="136.312" y="68.9" font-family="Times,serif" font-size="13.00">Controllers diagram</text>
<text text-anchor="start" x="136.312" y="81.9" font-family="Times,serif" font-size="13.00">Date: Apr 28 2016 &#45; 20:40</text>
<text text-anchor="start" x="136.312" y="94.9" font-family="Times,serif" font-size="13.00">Migration version: 20160428233518</text>
<text text-anchor="start" x="136.312" y="107.9" font-family="Times,serif" font-size="13.00">Generated by RailRoady 1.4.2</text>
<text text-anchor="start" x="136.312" y="120.9" font-family="Times,serif" font-size="13.00">http://railroady.prestonlee.com</text>
</g>
<!-- ApplicationController -->
<g id="node2" class="node"><title>ApplicationController</title>
<path fill="none" stroke="black" d="M-83.8208,-97C-83.8208,-97 31.8208,-97 31.8208,-97 37.8208,-97 43.8208,-103 43.8208,-109 43.8208,-109 43.8208,-177 43.8208,-177 43.8208,-183 37.8208,-189 31.8208,-189 31.8208,-189 -83.8208,-189 -83.8208,-189 -89.8208,-189 -95.8208,-183 -95.8208,-177 -95.8208,-177 -95.8208,-109 -95.8208,-109 -95.8208,-103 -89.8208,-97 -83.8208,-97"/>
<text text-anchor="middle" x="-26" y="-173.8" font-family="Times,serif" font-size="14.00">ApplicationController</text>
<polyline fill="none" stroke="black" points="-95.8208,-167 43.8208,-167 "/>
<polyline fill="none" stroke="black" points="-95.8208,-143 43.8208,-143 "/>
<polyline fill="none" stroke="black" points="-95.8208,-119 43.8208,-119 "/>
<text text-anchor="start" x="-87.8208" y="-103.8" font-family="Times,serif" font-size="14.00">_layout</text>
</g>
<!-- StoresController -->
<g id="node3" class="node"><title>StoresController</title>
<path fill="none" stroke="black" d="M91.7275,-81C91.7275,-81 176.272,-81 176.272,-81 182.272,-81 188.272,-87 188.272,-93 188.272,-93 188.272,-271 188.272,-271 188.272,-277 182.272,-283 176.272,-283 176.272,-283 91.7275,-283 91.7275,-283 85.7275,-283 79.7275,-277 79.7275,-271 79.7275,-271 79.7275,-93 79.7275,-93 79.7275,-87 85.7275,-81 91.7275,-81"/>
<text text-anchor="middle" x="134" y="-267.8" font-family="Times,serif" font-size="14.00">StoresController</text>
<polyline fill="none" stroke="black" points="79.7275,-261 188.272,-261 "/>
<text text-anchor="start" x="87.7275" y="-245.8" font-family="Times,serif" font-size="14.00">index</text>
<text text-anchor="start" x="87.7275" y="-231.8" font-family="Times,serif" font-size="14.00">destroy</text>
<text text-anchor="start" x="87.7275" y="-217.8" font-family="Times,serif" font-size="14.00">edit</text>
<text text-anchor="start" x="87.7275" y="-203.8" font-family="Times,serif" font-size="14.00">create</text>
<text text-anchor="start" x="87.7275" y="-189.8" font-family="Times,serif" font-size="14.00">new</text>
<text text-anchor="start" x="87.7275" y="-175.8" font-family="Times,serif" font-size="14.00">show</text>
<text text-anchor="start" x="87.7275" y="-161.8" font-family="Times,serif" font-size="14.00">update</text>
<polyline fill="none" stroke="black" points="79.7275,-155 188.272,-155 "/>
<polyline fill="none" stroke="black" points="79.7275,-131 188.272,-131 "/>
<text text-anchor="start" x="87.7275" y="-115.8" font-family="Times,serif" font-size="14.00">_layout</text>
<text text-anchor="start" x="87.7275" y="-101.8" font-family="Times,serif" font-size="14.00">set_store</text>
<text text-anchor="start" x="87.7275" y="-87.8" font-family="Times,serif" font-size="14.00">store_params</text>
</g>
<!-- Users::OmniauthCallbacksController -->
<g id="node4" class="node"><title>Users::OmniauthCallbacksController</title>
<path fill="none" stroke="black" d="M-116.204,47C-116.204,47 84.2036,47 84.2036,47 90.2036,47 96.2036,41 96.2036,35 96.2036,35 96.2036,-31 96.2036,-31 96.2036,-37 90.2036,-43 84.2036,-43 84.2036,-43 -116.204,-43 -116.204,-43 -122.204,-43 -128.204,-37 -128.204,-31 -128.204,-31 -128.204,35 -128.204,35 -128.204,41 -122.204,47 -116.204,47"/>
<text text-anchor="middle" x="-16" y="-27.8" font-family="Times,serif" font-size="14.00">Users::OmniauthCallbacksController</text>
<polyline fill="none" stroke="black" points="-128.204,-21 96.2036,-21 "/>
<text text-anchor="start" x="-120.204" y="-5.8" font-family="Times,serif" font-size="14.00">facebook</text>
<polyline fill="none" stroke="black" points="-128.204,1 96.2036,1 "/>
<polyline fill="none" stroke="black" points="-128.204,25 96.2036,25 "/>
<text text-anchor="start" x="-120.204" y="40.2" font-family="Times,serif" font-size="14.00">_layout</text>
</g>
</g>
</svg>
