<?xml version="1.0" encoding="UTF-8" standalone="no"?>
<!DOCTYPE svg PUBLIC "-//W3C//DTD SVG 1.1//EN"
 "http://www.w3.org/Graphics/SVG/1.1/DTD/svg11.dtd">
<!-- Generated by graphviz version 2.38.0 (20140413.2041)
 -->
<!-- Title: models_diagram Pages: 1 -->
<svg width="1134pt" height="941pt"
 viewBox="0.00 0.00 1133.72 941.00" xmlns="http://www.w3.org/2000/svg" xmlns:xlink="http://www.w3.org/1999/xlink">
<g id="graph0" class="graph" transform="scale(1 1) rotate(0) translate(4 937)">
<title>models_diagram</title>
<polygon fill="none" stroke="none" points="-4,4 -4,-937 1129.72,-937 1129.72,4 -4,4"/>
<!-- _diagram_info -->
<g id="node1" class="node"><title>_diagram_info</title>
<text text-anchor="start" x="185.175" y="-876.6" font-family="Times,serif" font-size="13.00">Models diagram</text>
<text text-anchor="start" x="185.175" y="-863.6" font-family="Times,serif" font-size="13.00">Date: May 10 2016 &#45; 20:56</text>
<text text-anchor="start" x="185.175" y="-850.6" font-family="Times,serif" font-size="13.00">Migration version: 20160510233540</text>
<text text-anchor="start" x="185.175" y="-837.6" font-family="Times,serif" font-size="13.00">Generated by RailRoady 1.4.2</text>
<text text-anchor="start" x="185.175" y="-824.6" font-family="Times,serif" font-size="13.00">http://railroady.prestonlee.com</text>
</g>
<!-- Ability -->
<g id="node2" class="node"><title>Ability</title>
<polygon fill="none" stroke="black" points="403.028,-832.5 403.028,-876.5 458.697,-876.5 458.697,-832.5 403.028,-832.5"/>
<text text-anchor="middle" x="430.862" y="-861.3" font-family="Times,serif" font-size="14.00">Ability</text>
<polyline fill="none" stroke="black" points="403.028,-854.5 458.697,-854.5 "/>
<text text-anchor="middle" x="430.862" y="-839.3" font-family="Times,serif" font-size="14.00"> </text>
</g>
<!-- Comment -->
<g id="node3" class="node"><title>Comment</title>
<path fill="none" stroke="black" d="M12,-0.5C12,-0.5 235.725,-0.5 235.725,-0.5 241.725,-0.5 247.725,-6.5 247.725,-12.5 247.725,-12.5 247.725,-116.5 247.725,-116.5 247.725,-122.5 241.725,-128.5 235.725,-128.5 235.725,-128.5 12,-128.5 12,-128.5 6,-128.5 0,-122.5 0,-116.5 0,-116.5 0,-12.5 0,-12.5 0,-6.5 6,-0.5 12,-0.5"/>
<text text-anchor="middle" x="123.862" y="-113.3" font-family="Times,serif" font-size="14.00">Comment</text>
<polyline fill="none" stroke="black" points="0,-106.5 247.725,-106.5 "/>
<text text-anchor="start" x="8" y="-91.3" font-family="Times,serif" font-size="14.00">content :text</text>
<text text-anchor="start" x="8" y="-77.3" font-family="Times,serif" font-size="14.00">commentable_id :integer</text>
<text text-anchor="start" x="8" y="-63.3" font-family="Times,serif" font-size="14.00">commentable_type :character varying</text>
<text text-anchor="start" x="8" y="-49.3" font-family="Times,serif" font-size="14.00">id :integer</text>
<text text-anchor="start" x="8" y="-35.3" font-family="Times,serif" font-size="14.00">user_id :integer</text>
<text text-anchor="start" x="8" y="-21.3" font-family="Times,serif" font-size="14.00">created_at :timestamp without time zone</text>
<text text-anchor="start" x="8" y="-7.3" font-family="Times,serif" font-size="14.00">updated_at :timestamp without time zone</text>
</g>
<!-- Like -->
<g id="node4" class="node"><title>Like</title>
<path fill="none" stroke="black" d="M278,-7.5C278,-7.5 501.725,-7.5 501.725,-7.5 507.725,-7.5 513.725,-13.5 513.725,-19.5 513.725,-19.5 513.725,-109.5 513.725,-109.5 513.725,-115.5 507.725,-121.5 501.725,-121.5 501.725,-121.5 278,-121.5 278,-121.5 272,-121.5 266,-115.5 266,-109.5 266,-109.5 266,-19.5 266,-19.5 266,-13.5 272,-7.5 278,-7.5"/>
<text text-anchor="middle" x="389.862" y="-106.3" font-family="Times,serif" font-size="14.00">Like</text>
<polyline fill="none" stroke="black" points="266,-99.5 513.725,-99.5 "/>
<text text-anchor="start" x="274" y="-84.3" font-family="Times,serif" font-size="14.00">id :integer</text>
<text text-anchor="start" x="274" y="-70.3" font-family="Times,serif" font-size="14.00">likeable_id :integer</text>
<text text-anchor="start" x="274" y="-56.3" font-family="Times,serif" font-size="14.00">likeable_type :character varying</text>
<text text-anchor="start" x="274" y="-42.3" font-family="Times,serif" font-size="14.00">user_id :integer</text>
<text text-anchor="start" x="274" y="-28.3" font-family="Times,serif" font-size="14.00">created_at :timestamp without time zone</text>
<text text-anchor="start" x="274" y="-14.3" font-family="Times,serif" font-size="14.00">updated_at :timestamp without time zone</text>
</g>
<!-- Product -->
<g id="node5" class="node"><title>Product</title>
<path fill="none" stroke="black" d="M489,-776.5C489,-776.5 712.725,-776.5 712.725,-776.5 718.725,-776.5 724.725,-782.5 724.725,-788.5 724.725,-788.5 724.725,-920.5 724.725,-920.5 724.725,-926.5 718.725,-932.5 712.725,-932.5 712.725,-932.5 489,-932.5 489,-932.5 483,-932.5 477,-926.5 477,-920.5 477,-920.5 477,-788.5 477,-788.5 477,-782.5 483,-776.5 489,-776.5"/>
<text text-anchor="middle" x="600.862" y="-917.3" font-family="Times,serif" font-size="14.00">Product</text>
<polyline fill="none" stroke="black" points="477,-910.5 724.725,-910.5 "/>
<text text-anchor="start" x="485" y="-895.3" font-family="Times,serif" font-size="14.00">updated_at :timestamp without time zone</text>
<text text-anchor="start" x="485" y="-881.3" font-family="Times,serif" font-size="14.00">name :character varying</text>
<text text-anchor="start" x="485" y="-867.3" font-family="Times,serif" font-size="14.00">description :text</text>
<text text-anchor="start" x="485" y="-853.3" font-family="Times,serif" font-size="14.00">photo :character varying</text>
<text text-anchor="start" x="485" y="-839.3" font-family="Times,serif" font-size="14.00">price :integer</text>
<text text-anchor="start" x="485" y="-825.3" font-family="Times,serif" font-size="14.00">stock :integer</text>
<text text-anchor="start" x="485" y="-811.3" font-family="Times,serif" font-size="14.00">store_id :integer</text>
<text text-anchor="start" x="485" y="-797.3" font-family="Times,serif" font-size="14.00">created_at :timestamp without time zone</text>
<text text-anchor="start" x="485" y="-783.3" font-family="Times,serif" font-size="14.00">id :integer</text>
</g>
<!-- Product&#45;&gt;Comment -->
<g id="edge1" class="edge"><title>Product&#45;&gt;Comment</title>
<path fill="none" stroke="#7a9eb5" d="M468.965,-776.339C468.597,-776.225 468.23,-776.112 467.862,-776 347.724,-739.405 306.291,-793.629 185.862,-758 158.003,-749.758 143.635,-751.017 128.862,-726 18.4752,-539.062 68.6212,-267.39 102.235,-138.545"/>
<ellipse fill="none" stroke="#7a9eb5" cx="472.893" cy="-777.644" rx="4.00001" ry="4.00001"/>
<polygon fill="#7a9eb5" stroke="#7a9eb5" points="102.263,-138.436 109.175,-129.923 103.544,-133.603 104.825,-128.77 104.825,-128.77 104.825,-128.77 103.544,-133.603 100.475,-127.617 102.263,-138.436 102.263,-138.436"/>
</g>
<!-- Product&#45;&gt;Like -->
<g id="edge2" class="edge"><title>Product&#45;&gt;Like</title>
<path fill="none" stroke="#63ad40" d="M468.962,-776.348C468.596,-776.231 468.229,-776.115 467.862,-776 403.153,-755.744 204.096,-782.668 166.862,-726 98.3249,-621.691 136.646,-267.08 209.862,-166 218.22,-154.462 238.788,-140.38 263.163,-126.453"/>
<ellipse fill="none" stroke="#63ad40" cx="472.882" cy="-777.68" rx="4.00001" ry="4.00001"/>
<polygon fill="#63ad40" stroke="#63ad40" points="263.208,-126.428 274.131,-125.463 267.569,-123.983 271.93,-121.538 271.93,-121.538 271.93,-121.538 267.569,-123.983 269.729,-117.613 263.208,-126.428 263.208,-126.428"/>
</g>
<!-- ProductWishlist -->
<g id="node6" class="node"><title>ProductWishlist</title>
<path fill="none" stroke="black" d="M890,-14.5C890,-14.5 1113.72,-14.5 1113.72,-14.5 1119.72,-14.5 1125.72,-20.5 1125.72,-26.5 1125.72,-26.5 1125.72,-102.5 1125.72,-102.5 1125.72,-108.5 1119.72,-114.5 1113.72,-114.5 1113.72,-114.5 890,-114.5 890,-114.5 884,-114.5 878,-108.5 878,-102.5 878,-102.5 878,-26.5 878,-26.5 878,-20.5 884,-14.5 890,-14.5"/>
<text text-anchor="middle" x="1001.86" y="-99.3" font-family="Times,serif" font-size="14.00">ProductWishlist</text>
<polyline fill="none" stroke="black" points="878,-92.5 1125.72,-92.5 "/>
<text text-anchor="start" x="886" y="-77.3" font-family="Times,serif" font-size="14.00">id :integer</text>
<text text-anchor="start" x="886" y="-63.3" font-family="Times,serif" font-size="14.00">user_wishlist_id :integer</text>
<text text-anchor="start" x="886" y="-49.3" font-family="Times,serif" font-size="14.00">product_id :integer</text>
<text text-anchor="start" x="886" y="-35.3" font-family="Times,serif" font-size="14.00">created_at :timestamp without time zone</text>
<text text-anchor="start" x="886" y="-21.3" font-family="Times,serif" font-size="14.00">updated_at :timestamp without time zone</text>
</g>
<!-- Product&#45;&gt;ProductWishlist -->
<g id="edge4" class="edge"><title>Product&#45;&gt;ProductWishlist</title>
<path fill="none" stroke="#f201d4" d="M733.214,-834.535C853.667,-814.246 1018.52,-777.827 1057.86,-726 1195.54,-544.656 1086.97,-249.111 1030.53,-124.194"/>
<ellipse fill="none" stroke="#f201d4" cx="728.929" cy="-835.25" rx="4.00001" ry="4.00001"/>
<polygon fill="#f201d4" stroke="#f201d4" points="1030.39,-123.879 1030.33,-112.913 1028.31,-119.331 1026.23,-114.783 1026.23,-114.783 1026.23,-114.783 1028.31,-119.331 1022.14,-116.653 1030.39,-123.879 1030.39,-123.879"/>
</g>
<!-- User -->
<g id="node8" class="node"><title>User</title>
<path fill="none" stroke="black" d="M247.228,-387.5C247.228,-387.5 542.497,-387.5 542.497,-387.5 548.497,-387.5 554.497,-393.5 554.497,-399.5 554.497,-399.5 554.497,-713.5 554.497,-713.5 554.497,-719.5 548.497,-725.5 542.497,-725.5 542.497,-725.5 247.228,-725.5 247.228,-725.5 241.228,-725.5 235.228,-719.5 235.228,-713.5 235.228,-713.5 235.228,-399.5 235.228,-399.5 235.228,-393.5 241.228,-387.5 247.228,-387.5"/>
<text text-anchor="middle" x="394.862" y="-710.3" font-family="Times,serif" font-size="14.00">User</text>
<polyline fill="none" stroke="black" points="235.228,-703.5 554.497,-703.5 "/>
<text text-anchor="start" x="243.228" y="-688.3" font-family="Times,serif" font-size="14.00">cover_photo :character varying</text>
<text text-anchor="start" x="243.228" y="-674.3" font-family="Times,serif" font-size="14.00">email :character varying</text>
<text text-anchor="start" x="243.228" y="-660.3" font-family="Times,serif" font-size="14.00">encrypted_password :character varying</text>
<text text-anchor="start" x="243.228" y="-646.3" font-family="Times,serif" font-size="14.00">reset_password_token :character varying</text>
<text text-anchor="start" x="243.228" y="-632.3" font-family="Times,serif" font-size="14.00">reset_password_sent_at :timestamp without time zone</text>
<text text-anchor="start" x="243.228" y="-618.3" font-family="Times,serif" font-size="14.00">remember_created_at :timestamp without time zone</text>
<text text-anchor="start" x="243.228" y="-604.3" font-family="Times,serif" font-size="14.00">sign_in_count :integer</text>
<text text-anchor="start" x="243.228" y="-590.3" font-family="Times,serif" font-size="14.00">current_sign_in_at :timestamp without time zone</text>
<text text-anchor="start" x="243.228" y="-576.3" font-family="Times,serif" font-size="14.00">last_sign_in_at :timestamp without time zone</text>
<text text-anchor="start" x="243.228" y="-562.3" font-family="Times,serif" font-size="14.00">current_sign_in_ip :inet</text>
<text text-anchor="start" x="243.228" y="-548.3" font-family="Times,serif" font-size="14.00">last_sign_in_ip :inet</text>
<text text-anchor="start" x="243.228" y="-534.3" font-family="Times,serif" font-size="14.00">created_at :timestamp without time zone</text>
<text text-anchor="start" x="243.228" y="-520.3" font-family="Times,serif" font-size="14.00">updated_at :timestamp without time zone</text>
<text text-anchor="start" x="243.228" y="-506.3" font-family="Times,serif" font-size="14.00">provider :character varying</text>
<text text-anchor="start" x="243.228" y="-492.3" font-family="Times,serif" font-size="14.00">uid :character varying</text>
<text text-anchor="start" x="243.228" y="-478.3" font-family="Times,serif" font-size="14.00">name :character varying</text>
<text text-anchor="start" x="243.228" y="-464.3" font-family="Times,serif" font-size="14.00">phone_number :character varying</text>
<text text-anchor="start" x="243.228" y="-450.3" font-family="Times,serif" font-size="14.00">avatar :character varying</text>
<text text-anchor="start" x="243.228" y="-436.3" font-family="Times,serif" font-size="14.00">role :integer</text>
<text text-anchor="start" x="243.228" y="-422.3" font-family="Times,serif" font-size="14.00">gender :character varying</text>
<text text-anchor="start" x="243.228" y="-408.3" font-family="Times,serif" font-size="14.00">birthday :character varying</text>
<text text-anchor="start" x="243.228" y="-394.3" font-family="Times,serif" font-size="14.00">id :integer</text>
</g>
<!-- Product&#45;&gt;User -->
<g id="edge3" class="edge"><title>Product&#45;&gt;User</title>
<path fill="none" stroke="#703d04" d="M520.018,-768.291C517.291,-764.861 514.641,-761.424 512.097,-758 506.325,-750.232 500.606,-742.158 494.979,-733.904"/>
<polygon fill="#703d04" stroke="#703d04" points="520.199,-768.513 523.016,-779.111 523.353,-772.393 526.508,-776.272 526.508,-776.272 526.508,-776.272 523.353,-772.393 529.999,-773.433 520.199,-768.513 520.199,-768.513"/>
<polygon fill="#703d04" stroke="#703d04" points="494.969,-733.89 493.117,-723.082 492.177,-729.742 489.384,-725.595 489.384,-725.595 489.384,-725.595 492.177,-729.742 485.651,-728.108 494.969,-733.89 494.969,-733.89"/>
<text text-anchor="middle" x="541.245" y="-746.8" font-family="Times,serif" font-size="14.00">user_likes</text>
</g>
<!-- Wishlist -->
<g id="node10" class="node"><title>Wishlist</title>
<path fill="none" stroke="black" d="M573,-201.5C573,-201.5 796.725,-201.5 796.725,-201.5 802.725,-201.5 808.725,-207.5 808.725,-213.5 808.725,-213.5 808.725,-289.5 808.725,-289.5 808.725,-295.5 802.725,-301.5 796.725,-301.5 796.725,-301.5 573,-301.5 573,-301.5 567,-301.5 561,-295.5 561,-289.5 561,-289.5 561,-213.5 561,-213.5 561,-207.5 567,-201.5 573,-201.5"/>
<text text-anchor="middle" x="684.862" y="-286.3" font-family="Times,serif" font-size="14.00">Wishlist</text>
<polyline fill="none" stroke="black" points="561,-279.5 808.725,-279.5 "/>
<text text-anchor="start" x="569" y="-264.3" font-family="Times,serif" font-size="14.00">id :integer</text>
<text text-anchor="start" x="569" y="-250.3" font-family="Times,serif" font-size="14.00">name :character varying</text>
<text text-anchor="start" x="569" y="-236.3" font-family="Times,serif" font-size="14.00">created_at :timestamp without time zone</text>
<text text-anchor="start" x="569" y="-222.3" font-family="Times,serif" font-size="14.00">updated_at :timestamp without time zone</text>
<text text-anchor="start" x="569" y="-208.3" font-family="Times,serif" font-size="14.00">icon :character varying</text>
</g>
<!-- Product&#45;&gt;Wishlist -->
<g id="edge5" class="edge"><title>Product&#45;&gt;Wishlist</title>
<path fill="none" stroke="#e42195" d="M587.115,-766.012C575.328,-670.768 565.414,-514.947 601.862,-387 609.595,-359.856 624.513,-332.812 639.594,-310.168"/>
<polygon fill="#e42195" stroke="#e42195" points="587.146,-766.258 583.944,-776.746 587.777,-771.218 588.408,-776.178 588.408,-776.178 588.408,-776.178 587.777,-771.218 592.872,-775.61 587.146,-766.258 587.146,-766.258"/>
<polygon fill="#e42195" stroke="#e42195" points="639.728,-309.972 649.084,-304.252 642.548,-305.843 645.367,-301.714 645.367,-301.714 645.367,-301.714 642.548,-305.843 641.651,-299.177 639.728,-309.972 639.728,-309.972"/>
</g>
<!-- ActsAsTaggableOn::Tagging -->
<g id="node11" class="node"><title>ActsAsTaggableOn::Tagging</title>
<ellipse fill="none" stroke="black" cx="723.862" cy="-556.5" rx="113.006" ry="18"/>
<text text-anchor="middle" x="723.862" y="-552.3" font-family="Times,serif" font-size="14.00">ActsAsTaggableOn::Tagging</text>
</g>
<!-- Product&#45;&gt;ActsAsTaggableOn::Tagging -->
<g id="edge6" class="edge"><title>Product&#45;&gt;ActsAsTaggableOn::Tagging</title>
<path fill="none" stroke="#06c22b" d="M688.428,-769.53C690.765,-765.755 692.924,-761.907 694.862,-758 723.071,-701.145 725.921,-624.818 725.146,-584.722"/>
<ellipse fill="none" stroke="#06c22b" cx="686.228" cy="-772.896" rx="4.00002" ry="4.00002"/>
<polygon fill="#06c22b" stroke="#06c22b" points="725.144,-584.646 729.356,-574.521 725.001,-579.648 724.858,-574.65 724.858,-574.65 724.858,-574.65 725.001,-579.648 720.36,-574.779 725.144,-584.646 725.144,-584.646"/>
<text text-anchor="middle" x="722.583" y="-746.8" font-family="Times,serif" font-size="14.00">taggings</text>
</g>
<!-- Product&#45;&gt;ActsAsTaggableOn::Tagging -->
<g id="edge8" class="edge"><title>Product&#45;&gt;ActsAsTaggableOn::Tagging</title>
<path fill="none" stroke="#e8f1b4" d="M612.232,-768.36C614.23,-760.029 616.573,-751.785 619.317,-744 640.956,-682.622 681.994,-617.836 705.708,-583.101"/>
<ellipse fill="none" stroke="#e8f1b4" cx="611.303" cy="-772.462" rx="4.00001" ry="4.00001"/>
<polygon fill="#e8f1b4" stroke="#e8f1b4" points="705.942,-582.762 715.327,-577.09 708.783,-578.647 711.624,-574.533 711.624,-574.533 711.624,-574.533 708.783,-578.647 707.921,-571.976 705.942,-582.762 705.942,-582.762"/>
<text text-anchor="middle" x="654.635" y="-746.8" font-family="Times,serif" font-size="14.00">tag_taggings</text>
</g>
<!-- ActsAsTaggableOn::Tag -->
<g id="node12" class="node"><title>ActsAsTaggableOn::Tag</title>
<ellipse fill="none" stroke="black" cx="951.862" cy="-556.5" rx="97.0617" ry="18"/>
<text text-anchor="middle" x="951.862" y="-552.3" font-family="Times,serif" font-size="14.00">ActsAsTaggableOn::Tag</text>
</g>
<!-- Product&#45;&gt;ActsAsTaggableOn::Tag -->
<g id="edge7" class="edge"><title>Product&#45;&gt;ActsAsTaggableOn::Tag</title>
<path fill="none" stroke="#d6c1f2" d="M734.379,-821.59C774.266,-807.16 815.846,-786.688 847.862,-758 901.822,-709.65 932.067,-626.65 944.72,-584.203"/>
<polygon fill="#d6c1f2" stroke="#d6c1f2" points="734.26,-821.632 723.334,-820.699 729.543,-823.288 724.825,-824.945 724.825,-824.945 724.825,-824.945 729.543,-823.288 726.316,-829.191 734.26,-821.632 734.26,-821.632"/>
<polygon fill="#d6c1f2" stroke="#d6c1f2" points="944.726,-584.181 951.819,-575.818 946.11,-579.377 947.495,-574.572 947.495,-574.572 947.495,-574.572 946.11,-579.377 943.171,-573.326 944.726,-584.181 944.726,-584.181"/>
<text text-anchor="middle" x="887.076" y="-746.8" font-family="Times,serif" font-size="14.00">base_tags</text>
</g>
<!-- Product&#45;&gt;ActsAsTaggableOn::Tag -->
<g id="edge9" class="edge"><title>Product&#45;&gt;ActsAsTaggableOn::Tag</title>
<path fill="none" stroke="#f66cc2" d="M733.903,-787.982C786.001,-761.625 835.8,-735.272 845.862,-726 890.815,-684.577 924.25,-619.96 940.625,-583.971"/>
<polygon fill="#f66cc2" stroke="#f66cc2" points="733.773,-788.048 722.818,-788.536 729.309,-790.3 724.845,-792.553 724.845,-792.553 724.845,-792.553 729.309,-790.3 726.873,-796.57 733.773,-788.048 733.773,-788.048"/>
<polygon fill="#f66cc2" stroke="#f66cc2" points="940.72,-583.759 948.898,-576.453 942.753,-579.191 944.787,-574.623 944.787,-574.623 944.787,-574.623 942.753,-579.191 940.676,-572.793 940.72,-583.759 940.72,-583.759"/>
<text text-anchor="middle" x="827.138" y="-746.8" font-family="Times,serif" font-size="14.00">tags</text>
</g>
<!-- Store -->
<g id="node7" class="node"><title>Store</title>
<path fill="none" stroke="black" d="M231,-166.5C231,-166.5 454.725,-166.5 454.725,-166.5 460.725,-166.5 466.725,-172.5 466.725,-178.5 466.725,-178.5 466.725,-324.5 466.725,-324.5 466.725,-330.5 460.725,-336.5 454.725,-336.5 454.725,-336.5 231,-336.5 231,-336.5 225,-336.5 219,-330.5 219,-324.5 219,-324.5 219,-178.5 219,-178.5 219,-172.5 225,-166.5 231,-166.5"/>
<text text-anchor="middle" x="342.862" y="-321.3" font-family="Times,serif" font-size="14.00">Store</text>
<polyline fill="none" stroke="black" points="219,-314.5 466.725,-314.5 "/>
<text text-anchor="start" x="227" y="-299.3" font-family="Times,serif" font-size="14.00">updated_at :timestamp without time zone</text>
<text text-anchor="start" x="227" y="-285.3" font-family="Times,serif" font-size="14.00">name :character varying</text>
<text text-anchor="start" x="227" y="-271.3" font-family="Times,serif" font-size="14.00">description :text</text>
<text text-anchor="start" x="227" y="-257.3" font-family="Times,serif" font-size="14.00">photo :character varying</text>
<text text-anchor="start" x="227" y="-243.3" font-family="Times,serif" font-size="14.00">cover_photo :character varying</text>
<text text-anchor="start" x="227" y="-229.3" font-family="Times,serif" font-size="14.00">facebook_link :character varying</text>
<text text-anchor="start" x="227" y="-215.3" font-family="Times,serif" font-size="14.00">instagram_link :character varying</text>
<text text-anchor="start" x="227" y="-201.3" font-family="Times,serif" font-size="14.00">user_id :integer</text>
<text text-anchor="start" x="227" y="-187.3" font-family="Times,serif" font-size="14.00">created_at :timestamp without time zone</text>
<text text-anchor="start" x="227" y="-173.3" font-family="Times,serif" font-size="14.00">id :integer</text>
</g>
<!-- Store&#45;&gt;Comment -->
<g id="edge11" class="edge"><title>Store&#45;&gt;Comment</title>
<path fill="none" stroke="#b4c372" d="M236.943,-161.025C226.72,-152.389 216.455,-143.718 206.506,-135.313"/>
<ellipse fill="none" stroke="#b4c372" cx="240.239" cy="-163.809" rx="4.00002" ry="4.00002"/>
<polygon fill="#b4c372" stroke="#b4c372" points="206.24,-135.089 201.505,-125.198 202.421,-131.862 198.601,-128.635 198.601,-128.635 198.601,-128.635 202.421,-131.862 195.697,-132.073 206.24,-135.089 206.24,-135.089"/>
</g>
<!-- Store&#45;&gt;Like -->
<g id="edge12" class="edge"><title>Store&#45;&gt;Like</title>
<path fill="none" stroke="#bb1825" d="M366.223,-158.547C368.552,-149.382 370.882,-140.21 373.123,-131.39"/>
<ellipse fill="none" stroke="#bb1825" cx="365.216" cy="-162.514" rx="4.00001" ry="4.00001"/>
<polygon fill="#bb1825" stroke="#bb1825" points="373.147,-131.294 379.971,-122.71 374.378,-126.448 375.609,-121.602 375.609,-121.602 375.609,-121.602 374.378,-126.448 371.248,-120.494 373.147,-131.294 373.147,-131.294"/>
</g>
<!-- Store&#45;&gt;Product -->
<g id="edge10" class="edge"><title>Store&#45;&gt;Product</title>
<path fill="none" stroke="#dd99af" d="M249.59,-343.227C239.945,-356.953 231.593,-371.68 225.862,-387 173.074,-528.116 130.712,-609.18 225.862,-726 293.19,-808.66 361.191,-740.952 467.173,-776.145"/>
<ellipse fill="none" stroke="#dd99af" cx="252.073" cy="-339.807" rx="4.00002" ry="4.00002"/>
<polygon fill="#dd99af" stroke="#dd99af" points="467.459,-776.248 475.356,-783.857 472.167,-777.934 476.874,-779.62 476.874,-779.62 476.874,-779.62 472.167,-777.934 478.391,-775.384 467.459,-776.248 467.459,-776.248"/>
</g>
<!-- Store&#45;&gt;User -->
<g id="edge13" class="edge"><title>Store&#45;&gt;User</title>
<path fill="none" stroke="#69da06" d="M334.492,-346.771C334.345,-349.544 334.212,-352.291 334.097,-355 333.785,-362.308 333.897,-369.704 334.368,-377.131"/>
<polygon fill="#69da06" stroke="#69da06" points="334.501,-346.63 339.578,-336.91 334.793,-341.638 335.086,-336.647 335.086,-336.647 335.086,-336.647 334.793,-341.638 330.594,-336.384 334.501,-346.63 334.501,-346.63"/>
<polygon fill="#69da06" stroke="#69da06" points="334.383,-377.307 330.744,-387.652 334.805,-382.29 335.227,-387.272 335.227,-387.272 335.227,-387.272 334.805,-382.29 339.711,-386.892 334.383,-377.307 334.383,-377.307"/>
<text text-anchor="middle" x="363.245" y="-357.8" font-family="Times,serif" font-size="14.00">user_likes</text>
</g>
<!-- User&#45;&gt;Comment -->
<g id="edge16" class="edge"><title>User&#45;&gt;Comment</title>
<path fill="none" stroke="#b1b46a" d="M236.796,-380.296C227.034,-366.091 217.917,-351.582 209.862,-337 175.131,-274.124 152.124,-195.176 138.718,-138.646"/>
<ellipse fill="none" stroke="#b1b46a" cx="239.351" cy="-383.963" rx="4.00002" ry="4.00002"/>
<polygon fill="#b1b46a" stroke="#b1b46a" points="138.674,-138.454 140.79,-127.695 137.54,-133.584 136.407,-128.715 136.407,-128.715 136.407,-128.715 137.54,-133.584 132.024,-129.735 138.674,-138.454 138.674,-138.454"/>
</g>
<!-- User&#45;&gt;Like -->
<g id="edge15" class="edge"><title>User&#45;&gt;Like</title>
<path fill="none" stroke="#5bf84b" d="M472.552,-379.271C491.935,-311.353 500.927,-233.842 475.862,-166 471.155,-153.26 464.033,-141.042 455.862,-129.785"/>
<ellipse fill="none" stroke="#5bf84b" cx="471.39" cy="-383.241" rx="4.00001" ry="4.00001"/>
<polygon fill="#5bf84b" stroke="#5bf84b" points="455.81,-129.717 453.326,-119.036 452.779,-125.741 449.747,-121.765 449.747,-121.765 449.747,-121.765 452.779,-125.741 446.169,-124.493 455.81,-129.717 455.81,-129.717"/>
</g>
<!-- User&#45;&gt;Store -->
<g id="edge14" class="edge"><title>User&#45;&gt;Store</title>
<path fill="none" stroke="#d14fca" d="M395.551,-379.468C394.268,-371.158 392.719,-362.966 390.862,-355 390.037,-351.46 389.081,-347.896 388.016,-344.33"/>
<ellipse fill="none" stroke="#d14fca" cx="396.132" cy="-383.508" rx="4.00001" ry="4.00001"/>
<ellipse fill="#d14fca" stroke="#d14fca" cx="386.74" cy="-340.34" rx="4.00001" ry="4.00001"/>
</g>
<!-- UserWishlist -->
<g id="node9" class="node"><title>UserWishlist</title>
<path fill="none" stroke="black" d="M549,-14.5C549,-14.5 772.725,-14.5 772.725,-14.5 778.725,-14.5 784.725,-20.5 784.725,-26.5 784.725,-26.5 784.725,-102.5 784.725,-102.5 784.725,-108.5 778.725,-114.5 772.725,-114.5 772.725,-114.5 549,-114.5 549,-114.5 543,-114.5 537,-108.5 537,-102.5 537,-102.5 537,-26.5 537,-26.5 537,-20.5 543,-14.5 549,-14.5"/>
<text text-anchor="middle" x="660.862" y="-99.3" font-family="Times,serif" font-size="14.00">UserWishlist</text>
<polyline fill="none" stroke="black" points="537,-92.5 784.725,-92.5 "/>
<text text-anchor="start" x="545" y="-77.3" font-family="Times,serif" font-size="14.00">id :integer</text>
<text text-anchor="start" x="545" y="-63.3" font-family="Times,serif" font-size="14.00">user_id :integer</text>
<text text-anchor="start" x="545" y="-49.3" font-family="Times,serif" font-size="14.00">wishlist_id :integer</text>
<text text-anchor="start" x="545" y="-35.3" font-family="Times,serif" font-size="14.00">created_at :timestamp without time zone</text>
<text text-anchor="start" x="545" y="-21.3" font-family="Times,serif" font-size="14.00">updated_at :timestamp without time zone</text>
</g>
<!-- User&#45;&gt;UserWishlist -->
<g id="edge17" class="edge"><title>User&#45;&gt;UserWishlist</title>
<path fill="none" stroke="#bd29ad" d="M487.349,-379.912C488.896,-376.257 490.403,-372.617 491.862,-369 527.064,-281.753 502.154,-245.876 551.862,-166 561.731,-150.143 574.762,-135.2 588.37,-121.928"/>
<ellipse fill="none" stroke="#bd29ad" cx="485.697" cy="-383.758" rx="4.00002" ry="4.00002"/>
<polygon fill="#bd29ad" stroke="#bd29ad" points="588.711,-121.606 599.067,-118 592.342,-118.169 595.974,-114.731 595.974,-114.731 595.974,-114.731 592.342,-118.169 592.88,-111.463 588.711,-121.606 588.711,-121.606"/>
</g>
<!-- User&#45;&gt;Wishlist -->
<g id="edge18" class="edge"><title>User&#45;&gt;Wishlist</title>
<path fill="none" stroke="#3e304d" d="M547.844,-379.881C555.881,-371.389 563.917,-363.053 571.862,-355 587.129,-339.526 604.221,-323.439 620.399,-308.722"/>
<polygon fill="#3e304d" stroke="#3e304d" points="547.638,-380.101 537.506,-384.297 544.21,-383.741 540.783,-387.381 540.783,-387.381 540.783,-387.381 544.21,-383.741 544.059,-390.466 547.638,-380.101 547.638,-380.101"/>
<polygon fill="#3e304d" stroke="#3e304d" points="620.838,-308.324 631.273,-304.954 624.547,-304.97 628.255,-301.616 628.255,-301.616 628.255,-301.616 624.547,-304.97 625.236,-298.279 620.838,-308.324 620.838,-308.324"/>
</g>
<!-- Wishlist&#45;&gt;ProductWishlist -->
<g id="edge20" class="edge"><title>Wishlist&#45;&gt;ProductWishlist</title>
<path fill="none" stroke="#d80d56" d="M776.061,-197.277C817.7,-172.976 866.95,-144.234 908.811,-119.804"/>
<ellipse fill="none" stroke="#d80d56" cx="772.435" cy="-199.393" rx="4.00002" ry="4.00002"/>
<polygon fill="#d80d56" stroke="#d80d56" points="908.99,-119.7 919.895,-118.546 913.308,-117.18 917.627,-114.66 917.627,-114.66 917.627,-114.66 913.308,-117.18 915.358,-110.773 908.99,-119.7 908.99,-119.7"/>
</g>
<!-- Wishlist&#45;&gt;UserWishlist -->
<g id="edge19" class="edge"><title>Wishlist&#45;&gt;UserWishlist</title>
<path fill="none" stroke="#7fdc7c" d="M677.455,-193.401C674.639,-171.694 671.425,-146.923 668.581,-124.999"/>
<ellipse fill="none" stroke="#7fdc7c" cx="677.979" cy="-197.442" rx="4.00001" ry="4.00001"/>
<polygon fill="#7fdc7c" stroke="#7fdc7c" points="668.547,-124.737 671.723,-114.241 667.904,-119.779 667.261,-114.82 667.261,-114.82 667.261,-114.82 667.904,-119.779 662.798,-115.399 668.547,-124.737 668.547,-124.737"/>
</g>
</g>
</svg>
