<?xml version="1.0" encoding="UTF-8" standalone="no"?>
<!DOCTYPE svg PUBLIC "-//W3C//DTD SVG 1.1//EN"
 "http://www.w3.org/Graphics/SVG/1.1/DTD/svg11.dtd">
<!-- Generated by graphviz version 2.38.0 (20140413.2041)
 -->
<!-- Title: models_diagram Pages: 1 -->
<svg width="755pt" height="927pt"
 viewBox="0.00 0.00 754.55 927.00" xmlns="http://www.w3.org/2000/svg" xmlns:xlink="http://www.w3.org/1999/xlink">
<g id="graph0" class="graph" transform="scale(1 1) rotate(0) translate(4 923)">
<title>models_diagram</title>
<polygon fill="none" stroke="none" points="-4,4 -4,-923 750.55,-923 750.55,4 -4,4"/>
<!-- _diagram_info -->
<g id="node1" class="node"><title>_diagram_info</title>
<text text-anchor="start" x="8" y="-862.6" font-family="Times,serif" font-size="13.00">Models diagram</text>
<text text-anchor="start" x="8" y="-849.6" font-family="Times,serif" font-size="13.00">Date: May 02 2016 &#45; 20:06</text>
<text text-anchor="start" x="8" y="-836.6" font-family="Times,serif" font-size="13.00">Migration version: 20160501223603</text>
<text text-anchor="start" x="8" y="-823.6" font-family="Times,serif" font-size="13.00">Generated by RailRoady 1.4.2</text>
<text text-anchor="start" x="8" y="-810.6" font-family="Times,serif" font-size="13.00">http://railroady.prestonlee.com</text>
</g>
<!-- Comment -->
<g id="node2" class="node"><title>Comment</title>
<path fill="none" stroke="black" d="M510.825,-0.5C510.825,-0.5 734.55,-0.5 734.55,-0.5 740.55,-0.5 746.55,-6.5 746.55,-12.5 746.55,-12.5 746.55,-116.5 746.55,-116.5 746.55,-122.5 740.55,-128.5 734.55,-128.5 734.55,-128.5 510.825,-128.5 510.825,-128.5 504.825,-128.5 498.825,-122.5 498.825,-116.5 498.825,-116.5 498.825,-12.5 498.825,-12.5 498.825,-6.5 504.825,-0.5 510.825,-0.5"/>
<text text-anchor="middle" x="622.688" y="-113.3" font-family="Times,serif" font-size="14.00">Comment</text>
<polyline fill="none" stroke="black" points="498.825,-106.5 746.55,-106.5 "/>
<text text-anchor="start" x="506.825" y="-91.3" font-family="Times,serif" font-size="14.00">content :text</text>
<text text-anchor="start" x="506.825" y="-77.3" font-family="Times,serif" font-size="14.00">commentable_id :integer</text>
<text text-anchor="start" x="506.825" y="-63.3" font-family="Times,serif" font-size="14.00">commentable_type :character varying</text>
<text text-anchor="start" x="506.825" y="-49.3" font-family="Times,serif" font-size="14.00">id :integer</text>
<text text-anchor="start" x="506.825" y="-35.3" font-family="Times,serif" font-size="14.00">user_id :integer</text>
<text text-anchor="start" x="506.825" y="-21.3" font-family="Times,serif" font-size="14.00">created_at :timestamp without time zone</text>
<text text-anchor="start" x="506.825" y="-7.3" font-family="Times,serif" font-size="14.00">updated_at :timestamp without time zone</text>
</g>
<!-- Like -->
<g id="node3" class="node"><title>Like</title>
<path fill="none" stroke="black" d="M206.825,-7.5C206.825,-7.5 430.55,-7.5 430.55,-7.5 436.55,-7.5 442.55,-13.5 442.55,-19.5 442.55,-19.5 442.55,-109.5 442.55,-109.5 442.55,-115.5 436.55,-121.5 430.55,-121.5 430.55,-121.5 206.825,-121.5 206.825,-121.5 200.825,-121.5 194.825,-115.5 194.825,-109.5 194.825,-109.5 194.825,-19.5 194.825,-19.5 194.825,-13.5 200.825,-7.5 206.825,-7.5"/>
<text text-anchor="middle" x="318.688" y="-106.3" font-family="Times,serif" font-size="14.00">Like</text>
<polyline fill="none" stroke="black" points="194.825,-99.5 442.55,-99.5 "/>
<text text-anchor="start" x="202.825" y="-84.3" font-family="Times,serif" font-size="14.00">id :integer</text>
<text text-anchor="start" x="202.825" y="-70.3" font-family="Times,serif" font-size="14.00">likeable_id :integer</text>
<text text-anchor="start" x="202.825" y="-56.3" font-family="Times,serif" font-size="14.00">likeable_type :character varying</text>
<text text-anchor="start" x="202.825" y="-42.3" font-family="Times,serif" font-size="14.00">user_id :integer</text>
<text text-anchor="start" x="202.825" y="-28.3" font-family="Times,serif" font-size="14.00">created_at :timestamp without time zone</text>
<text text-anchor="start" x="202.825" y="-14.3" font-family="Times,serif" font-size="14.00">updated_at :timestamp without time zone</text>
</g>
<!-- Product -->
<g id="node4" class="node"><title>Product</title>
<path fill="none" stroke="black" d="M237.825,-762.5C237.825,-762.5 461.55,-762.5 461.55,-762.5 467.55,-762.5 473.55,-768.5 473.55,-774.5 473.55,-774.5 473.55,-906.5 473.55,-906.5 473.55,-912.5 467.55,-918.5 461.55,-918.5 461.55,-918.5 237.825,-918.5 237.825,-918.5 231.825,-918.5 225.825,-912.5 225.825,-906.5 225.825,-906.5 225.825,-774.5 225.825,-774.5 225.825,-768.5 231.825,-762.5 237.825,-762.5"/>
<text text-anchor="middle" x="349.688" y="-903.3" font-family="Times,serif" font-size="14.00">Product</text>
<polyline fill="none" stroke="black" points="225.825,-896.5 473.55,-896.5 "/>
<text text-anchor="start" x="233.825" y="-881.3" font-family="Times,serif" font-size="14.00">updated_at :timestamp without time zone</text>
<text text-anchor="start" x="233.825" y="-867.3" font-family="Times,serif" font-size="14.00">name :character varying</text>
<text text-anchor="start" x="233.825" y="-853.3" font-family="Times,serif" font-size="14.00">description :text</text>
<text text-anchor="start" x="233.825" y="-839.3" font-family="Times,serif" font-size="14.00">photo :character varying</text>
<text text-anchor="start" x="233.825" y="-825.3" font-family="Times,serif" font-size="14.00">price :integer</text>
<text text-anchor="start" x="233.825" y="-811.3" font-family="Times,serif" font-size="14.00">stock :integer</text>
<text text-anchor="start" x="233.825" y="-797.3" font-family="Times,serif" font-size="14.00">store_id :integer</text>
<text text-anchor="start" x="233.825" y="-783.3" font-family="Times,serif" font-size="14.00">created_at :timestamp without time zone</text>
<text text-anchor="start" x="233.825" y="-769.3" font-family="Times,serif" font-size="14.00">id :integer</text>
</g>
<!-- Product&#45;&gt;Comment -->
<g id="edge1" class="edge"><title>Product&#45;&gt;Comment</title>
<path fill="none" stroke="#34789f" d="M481.888,-818.006C544.187,-800.524 612.968,-768.942 650.688,-712 767.994,-534.914 696.749,-266.752 651.48,-138.644"/>
<ellipse fill="none" stroke="#34789f" cx="477.792" cy="-819.121" rx="4.00001" ry="4.00001"/>
<polygon fill="#34789f" stroke="#34789f" points="651.37,-138.335 652.235,-127.404 649.684,-133.628 647.999,-128.921 647.999,-128.921 647.999,-128.921 649.684,-133.628 643.762,-130.438 651.37,-138.335 651.37,-138.335"/>
</g>
<!-- Product&#45;&gt;Like -->
<g id="edge2" class="edge"><title>Product&#45;&gt;Like</title>
<path fill="none" stroke="#c366fb" d="M295,-755.028C288.277,-741.131 282.456,-726.514 278.688,-712 225.068,-505.499 272.892,-250 301.25,-131.542"/>
<ellipse fill="none" stroke="#c366fb" cx="296.805" cy="-758.647" rx="4.00002" ry="4.00002"/>
<polygon fill="#c366fb" stroke="#c366fb" points="301.319,-131.256 308.05,-122.599 302.498,-126.397 303.677,-121.538 303.677,-121.538 303.677,-121.538 302.498,-126.397 299.303,-120.477 301.319,-131.256 301.319,-131.256"/>
</g>
<!-- User -->
<g id="node6" class="node"><title>User</title>
<path fill="none" stroke="black" d="M334.053,-387.5C334.053,-387.5 629.323,-387.5 629.323,-387.5 635.323,-387.5 641.323,-393.5 641.323,-399.5 641.323,-399.5 641.323,-699.5 641.323,-699.5 641.323,-705.5 635.323,-711.5 629.323,-711.5 629.323,-711.5 334.053,-711.5 334.053,-711.5 328.053,-711.5 322.053,-705.5 322.053,-699.5 322.053,-699.5 322.053,-399.5 322.053,-399.5 322.053,-393.5 328.053,-387.5 334.053,-387.5"/>
<text text-anchor="middle" x="481.688" y="-696.3" font-family="Times,serif" font-size="14.00">User</text>
<polyline fill="none" stroke="black" points="322.053,-689.5 641.323,-689.5 "/>
<text text-anchor="start" x="330.053" y="-674.3" font-family="Times,serif" font-size="14.00">gender :integer</text>
<text text-anchor="start" x="330.053" y="-660.3" font-family="Times,serif" font-size="14.00">email :character varying</text>
<text text-anchor="start" x="330.053" y="-646.3" font-family="Times,serif" font-size="14.00">encrypted_password :character varying</text>
<text text-anchor="start" x="330.053" y="-632.3" font-family="Times,serif" font-size="14.00">reset_password_token :character varying</text>
<text text-anchor="start" x="330.053" y="-618.3" font-family="Times,serif" font-size="14.00">reset_password_sent_at :timestamp without time zone</text>
<text text-anchor="start" x="330.053" y="-604.3" font-family="Times,serif" font-size="14.00">remember_created_at :timestamp without time zone</text>
<text text-anchor="start" x="330.053" y="-590.3" font-family="Times,serif" font-size="14.00">sign_in_count :integer</text>
<text text-anchor="start" x="330.053" y="-576.3" font-family="Times,serif" font-size="14.00">current_sign_in_at :timestamp without time zone</text>
<text text-anchor="start" x="330.053" y="-562.3" font-family="Times,serif" font-size="14.00">last_sign_in_at :timestamp without time zone</text>
<text text-anchor="start" x="330.053" y="-548.3" font-family="Times,serif" font-size="14.00">current_sign_in_ip :inet</text>
<text text-anchor="start" x="330.053" y="-534.3" font-family="Times,serif" font-size="14.00">last_sign_in_ip :inet</text>
<text text-anchor="start" x="330.053" y="-520.3" font-family="Times,serif" font-size="14.00">created_at :timestamp without time zone</text>
<text text-anchor="start" x="330.053" y="-506.3" font-family="Times,serif" font-size="14.00">updated_at :timestamp without time zone</text>
<text text-anchor="start" x="330.053" y="-492.3" font-family="Times,serif" font-size="14.00">provider :character varying</text>
<text text-anchor="start" x="330.053" y="-478.3" font-family="Times,serif" font-size="14.00">uid :character varying</text>
<text text-anchor="start" x="330.053" y="-464.3" font-family="Times,serif" font-size="14.00">name :character varying</text>
<text text-anchor="start" x="330.053" y="-450.3" font-family="Times,serif" font-size="14.00">last_name :character varying</text>
<text text-anchor="start" x="330.053" y="-436.3" font-family="Times,serif" font-size="14.00">age :integer</text>
<text text-anchor="start" x="330.053" y="-422.3" font-family="Times,serif" font-size="14.00">phone_number :character varying</text>
<text text-anchor="start" x="330.053" y="-408.3" font-family="Times,serif" font-size="14.00">avatar :character varying</text>
<text text-anchor="start" x="330.053" y="-394.3" font-family="Times,serif" font-size="14.00">id :integer</text>
</g>
<!-- Product&#45;&gt;User -->
<g id="edge3" class="edge"><title>Product&#45;&gt;User</title>
<path fill="none" stroke="#b3e3ac" d="M389.209,-752.973C393.916,-742.668 398.838,-731.892 403.854,-720.909"/>
<polygon fill="#b3e3ac" stroke="#b3e3ac" points="389.043,-753.337 380.795,-760.563 386.965,-757.885 384.888,-762.433 384.888,-762.433 384.888,-762.433 386.965,-757.885 388.981,-764.303 389.043,-753.337 389.043,-753.337"/>
<polygon fill="#b3e3ac" stroke="#b3e3ac" points="403.933,-720.736 412.181,-713.51 406.01,-716.188 408.087,-711.64 408.087,-711.64 408.087,-711.64 406.01,-716.188 403.994,-709.771 403.933,-720.736 403.933,-720.736"/>
<text text-anchor="middle" x="424.071" y="-732.8" font-family="Times,serif" font-size="14.00">user_likes</text>
</g>
<!-- Store -->
<g id="node5" class="node"><title>Store</title>
<path fill="none" stroke="black" d="M358.825,-166.5C358.825,-166.5 582.55,-166.5 582.55,-166.5 588.55,-166.5 594.55,-172.5 594.55,-178.5 594.55,-178.5 594.55,-324.5 594.55,-324.5 594.55,-330.5 588.55,-336.5 582.55,-336.5 582.55,-336.5 358.825,-336.5 358.825,-336.5 352.825,-336.5 346.825,-330.5 346.825,-324.5 346.825,-324.5 346.825,-178.5 346.825,-178.5 346.825,-172.5 352.825,-166.5 358.825,-166.5"/>
<text text-anchor="middle" x="470.688" y="-321.3" font-family="Times,serif" font-size="14.00">Store</text>
<polyline fill="none" stroke="black" points="346.825,-314.5 594.55,-314.5 "/>
<text text-anchor="start" x="354.825" y="-299.3" font-family="Times,serif" font-size="14.00">updated_at :timestamp without time zone</text>
<text text-anchor="start" x="354.825" y="-285.3" font-family="Times,serif" font-size="14.00">name :character varying</text>
<text text-anchor="start" x="354.825" y="-271.3" font-family="Times,serif" font-size="14.00">description :text</text>
<text text-anchor="start" x="354.825" y="-257.3" font-family="Times,serif" font-size="14.00">photo :character varying</text>
<text text-anchor="start" x="354.825" y="-243.3" font-family="Times,serif" font-size="14.00">cover_photo :character varying</text>
<text text-anchor="start" x="354.825" y="-229.3" font-family="Times,serif" font-size="14.00">facebook_link :character varying</text>
<text text-anchor="start" x="354.825" y="-215.3" font-family="Times,serif" font-size="14.00">instagram_link :character varying</text>
<text text-anchor="start" x="354.825" y="-201.3" font-family="Times,serif" font-size="14.00">user_id :integer</text>
<text text-anchor="start" x="354.825" y="-187.3" font-family="Times,serif" font-size="14.00">created_at :timestamp without time zone</text>
<text text-anchor="start" x="354.825" y="-173.3" font-family="Times,serif" font-size="14.00">id :integer</text>
</g>
<!-- Store&#45;&gt;Comment -->
<g id="edge5" class="edge"><title>Store&#45;&gt;Comment</title>
<path fill="none" stroke="#4cbcf9" d="M544.938,-160.129C551.363,-152.309 557.805,-144.469 564.08,-136.832"/>
<ellipse fill="none" stroke="#4cbcf9" cx="542.333" cy="-163.3" rx="4.00002" ry="4.00002"/>
<polygon fill="#4cbcf9" stroke="#4cbcf9" points="564.466,-136.362 574.291,-131.492 567.64,-132.499 570.814,-128.635 570.814,-128.635 570.814,-128.635 567.64,-132.499 567.337,-125.779 564.466,-136.362 564.466,-136.362"/>
</g>
<!-- Store&#45;&gt;Like -->
<g id="edge6" class="edge"><title>Store&#45;&gt;Like</title>
<path fill="none" stroke="#f5a6be" d="M396.31,-159.975C387.825,-149.648 379.313,-139.288 371.198,-129.41"/>
<ellipse fill="none" stroke="#f5a6be" cx="399.042" cy="-163.3" rx="4.00002" ry="4.00002"/>
<polygon fill="#f5a6be" stroke="#f5a6be" points="371.131,-129.328 368.259,-118.745 367.956,-125.465 364.782,-121.602 364.782,-121.602 364.782,-121.602 367.956,-125.465 361.305,-124.459 371.131,-129.328 371.131,-129.328"/>
</g>
<!-- Store&#45;&gt;Product -->
<g id="edge4" class="edge"><title>Store&#45;&gt;Product</title>
<path fill="none" stroke="#813119" d="M342.355,-342.676C330.447,-356.161 320.09,-370.977 312.688,-387 258.331,-504.657 289.066,-657.853 318.009,-752.394"/>
<ellipse fill="none" stroke="#813119" cx="345.233" cy="-339.527" rx="4.00002" ry="4.00002"/>
<polygon fill="#813119" stroke="#813119" points="318.092,-752.66 316.775,-763.547 319.581,-757.433 321.071,-762.206 321.071,-762.206 321.071,-762.206 319.581,-757.433 325.367,-760.866 318.092,-752.66 318.092,-752.66"/>
</g>
<!-- Store&#45;&gt;User -->
<g id="edge7" class="edge"><title>Store&#45;&gt;User</title>
<path fill="none" stroke="#67d989" d="M442.304,-346.407C441.789,-349.293 441.326,-352.162 440.922,-355 439.892,-362.244 439.315,-369.623 439.124,-377.064"/>
<polygon fill="#67d989" stroke="#67d989" points="442.313,-346.361 448.655,-337.415 443.276,-341.454 444.239,-336.548 444.239,-336.548 444.239,-336.548 443.276,-341.454 439.823,-335.681 442.313,-346.361 442.313,-346.361"/>
<polygon fill="#67d989" stroke="#67d989" points="439.124,-377.243 434.597,-387.231 439.111,-382.243 439.097,-387.243 439.097,-387.243 439.097,-387.243 439.111,-382.243 443.597,-387.255 439.124,-377.243 439.124,-377.243"/>
<text text-anchor="middle" x="469.071" y="-357.8" font-family="Times,serif" font-size="14.00">user_likes</text>
</g>
<!-- User&#45;&gt;Comment -->
<g id="edge10" class="edge"><title>User&#45;&gt;Comment</title>
<path fill="none" stroke="#0d44dd" d="M587.598,-379.911C593.816,-365.728 599.31,-351.327 603.688,-337 623.542,-272.019 627.087,-194.375 626.38,-138.796"/>
<ellipse fill="none" stroke="#0d44dd" cx="585.919" cy="-383.657" rx="4.00002" ry="4.00002"/>
<polygon fill="#0d44dd" stroke="#0d44dd" points="626.378,-138.682 630.7,-128.604 626.289,-133.683 626.201,-128.683 626.201,-128.683 626.201,-128.683 626.289,-133.683 621.702,-128.763 626.378,-138.682 626.378,-138.682"/>
</g>
<!-- User&#45;&gt;Like -->
<g id="edge9" class="edge"><title>User&#45;&gt;Like</title>
<path fill="none" stroke="#5003e4" d="M356.099,-379.993C348.988,-365.888 342.707,-351.475 337.688,-337 314.405,-269.862 311.921,-187.909 313.833,-131.717"/>
<ellipse fill="none" stroke="#5003e4" cx="358.056" cy="-383.786" rx="4.00002" ry="4.00002"/>
<polygon fill="#5003e4" stroke="#5003e4" points="313.841,-131.526 318.734,-121.712 314.039,-126.53 314.237,-121.534 314.237,-121.534 314.237,-121.534 314.039,-126.53 309.741,-121.355 313.841,-131.526 313.841,-131.526"/>
</g>
<!-- User&#45;&gt;Store -->
<g id="edge8" class="edge"><title>User&#45;&gt;Store</title>
<path fill="none" stroke="#c1ddf9" d="M499.832,-379.161C499.408,-370.986 498.71,-362.898 497.688,-355 497.249,-351.612 496.732,-348.177 496.15,-344.719"/>
<ellipse fill="none" stroke="#c1ddf9" cx="500.004" cy="-383.366" rx="4" ry="4"/>
<ellipse fill="#c1ddf9" stroke="#c1ddf9" cx="495.396" cy="-340.556" rx="4.00001" ry="4.00001"/>
</g>
</g>
</svg>
