<?xml version="1.0" encoding="UTF-8" standalone="no"?>
<!DOCTYPE svg PUBLIC "-//W3C//DTD SVG 1.1//EN"
 "http://www.w3.org/Graphics/SVG/1.1/DTD/svg11.dtd">
<!-- Generated by graphviz version 2.38.0 (20140413.2041)
 -->
<!-- Title: models_diagram Pages: 1 -->
<svg width="971pt" height="399pt"
 viewBox="0.00 0.00 971.27 399.00" xmlns="http://www.w3.org/2000/svg" xmlns:xlink="http://www.w3.org/1999/xlink">
<g id="graph0" class="graph" transform="scale(1 1) rotate(0) translate(4 395)">
<title>models_diagram</title>
<polygon fill="none" stroke="none" points="-4,4 -4,-395 967.269,-395 967.269,4 -4,4"/>
<!-- _diagram_info -->
<g id="node1" class="node"><title>_diagram_info</title>
<text text-anchor="start" x="108.301" y="-376.6" font-family="Times,serif" font-size="13.00">Models diagram</text>
<text text-anchor="start" x="108.301" y="-363.6" font-family="Times,serif" font-size="13.00">Date: May 13 2016 &#45; 19:45</text>
<text text-anchor="start" x="108.301" y="-350.6" font-family="Times,serif" font-size="13.00">Migration version: 20160513224016</text>
<text text-anchor="start" x="108.301" y="-337.6" font-family="Times,serif" font-size="13.00">Generated by RailRoady 1.4.2</text>
<text text-anchor="start" x="108.301" y="-324.6" font-family="Times,serif" font-size="13.00">http://railroady.prestonlee.com</text>
</g>
<!-- Ability -->
<g id="node2" class="node"><title>Ability</title>
<polygon fill="none" stroke="black" points="381.658,-372.5 326.318,-372.5 326.318,-336.5 381.658,-336.5 381.658,-372.5"/>
<text text-anchor="middle" x="353.988" y="-350.3" font-family="Times,serif" font-size="14.00">Ability</text>
</g>
<!-- Comment -->
<g id="node3" class="node"><title>Comment</title>
<ellipse fill="none" stroke="black" cx="44.9884" cy="-91" rx="44.9768" ry="18"/>
<text text-anchor="middle" x="44.9884" y="-86.8" font-family="Times,serif" font-size="14.00">Comment</text>
</g>
<!-- Like -->
<g id="node4" class="node"><title>Like</title>
<ellipse fill="none" stroke="black" cx="252.988" cy="-91" rx="27" ry="18"/>
<text text-anchor="middle" x="252.988" y="-86.8" font-family="Times,serif" font-size="14.00">Like</text>
</g>
<!-- Metro -->
<g id="node5" class="node"><title>Metro</title>
<ellipse fill="none" stroke="black" cx="145.988" cy="-250" rx="31.9393" ry="18"/>
<text text-anchor="middle" x="145.988" y="-245.8" font-family="Times,serif" font-size="14.00">Metro</text>
</g>
<!-- MetroStore -->
<g id="node6" class="node"><title>MetroStore</title>
<ellipse fill="none" stroke="black" cx="157.988" cy="-91" rx="50.2723" ry="18"/>
<text text-anchor="middle" x="157.988" y="-86.8" font-family="Times,serif" font-size="14.00">MetroStore</text>
</g>
<!-- Metro&#45;&gt;MetroStore -->
<g id="edge1" class="edge"><title>Metro&#45;&gt;MetroStore</title>
<path fill="none" stroke="#7dc92f" d="M139.125,-224.274C134.303,-203.282 129.591,-172.444 134.988,-146 136.913,-136.57 140.548,-126.747 144.37,-118.106"/>
<ellipse fill="none" stroke="#7dc92f" cx="140.081" cy="-228.193" rx="4.00001" ry="4.00001"/>
<polygon fill="#7dc92f" stroke="#7dc92f" points="144.427,-117.984 152.755,-110.85 146.555,-113.459 148.683,-108.935 148.683,-108.935 148.683,-108.935 146.555,-113.459 144.611,-107.019 144.427,-117.984 144.427,-117.984"/>
</g>
<!-- Store -->
<g id="node9" class="node"><title>Store</title>
<ellipse fill="none" stroke="black" cx="172.988" cy="-164" rx="28.5497" ry="18"/>
<text text-anchor="middle" x="172.988" y="-159.8" font-family="Times,serif" font-size="14.00">Store</text>
</g>
<!-- Metro&#45;&gt;Store -->
<g id="edge2" class="edge"><title>Metro&#45;&gt;Store</title>
<path fill="none" stroke="#d4b059" d="M154.545,-222.378C157.727,-212.48 161.334,-201.259 164.509,-191.381"/>
<polygon fill="#d4b059" stroke="#d4b059" points="154.512,-222.481 147.168,-230.624 152.982,-227.241 151.452,-232.001 151.452,-232.001 151.452,-232.001 152.982,-227.241 155.736,-233.378 154.512,-222.481 154.512,-222.481"/>
<polygon fill="#d4b059" stroke="#d4b059" points="164.565,-191.207 171.909,-183.064 166.095,-186.447 167.625,-181.687 167.625,-181.687 167.625,-181.687 166.095,-186.447 163.341,-180.31 164.565,-191.207 164.565,-191.207"/>
</g>
<!-- Product -->
<g id="node7" class="node"><title>Product</title>
<ellipse fill="none" stroke="black" cx="436.988" cy="-354.5" rx="37.7352" ry="18"/>
<text text-anchor="middle" x="436.988" y="-350.3" font-family="Times,serif" font-size="14.00">Product</text>
</g>
<!-- Product&#45;&gt;Comment -->
<g id="edge3" class="edge"><title>Product&#45;&gt;Comment</title>
<path fill="none" stroke="#bad119" d="M415.198,-332.482C408.027,-326.78 399.656,-321.282 390.988,-318 334.751,-296.709 174.649,-327.14 120.988,-300 55.6028,-266.93 45.4506,-167.817 44.5316,-119.324"/>
<ellipse fill="none" stroke="#bad119" cx="418.36" cy="-335.142" rx="4.00002" ry="4.00002"/>
<polygon fill="#bad119" stroke="#bad119" points="44.5311,-119.241 48.9615,-109.21 44.4964,-114.241 44.4616,-109.241 44.4616,-109.241 44.4616,-109.241 44.4964,-114.241 39.9617,-109.272 44.5311,-119.241 44.5311,-119.241"/>
</g>
<!-- Product&#45;&gt;Like -->
<g id="edge4" class="edge"><title>Product&#45;&gt;Like</title>
<path fill="none" stroke="#2a371d" d="M420.863,-330.582C386.252,-281.393 305.135,-166.11 269.864,-115.983"/>
<ellipse fill="none" stroke="#2a371d" cx="423.177" cy="-333.871" rx="4.00002" ry="4.00002"/>
<polygon fill="#2a371d" stroke="#2a371d" points="269.781,-115.865 267.707,-105.097 266.904,-111.776 264.026,-107.687 264.026,-107.687 264.026,-107.687 266.904,-111.776 260.346,-110.277 269.781,-115.865 269.781,-115.865"/>
</g>
<!-- ProductWishlist -->
<g id="node8" class="node"><title>ProductWishlist</title>
<ellipse fill="none" stroke="black" cx="395.988" cy="-18" rx="66.9956" ry="18"/>
<text text-anchor="middle" x="395.988" y="-13.8" font-family="Times,serif" font-size="14.00">ProductWishlist</text>
</g>
<!-- Product&#45;&gt;ProductWishlist -->
<g id="edge6" class="edge"><title>Product&#45;&gt;ProductWishlist</title>
<path fill="none" stroke="#d12969" d="M458.482,-332.203C475.698,-312.798 496.988,-282.444 496.988,-251 496.988,-251 496.988,-251 496.988,-90 496.988,-63.7721 473.912,-46.3958 449.82,-35.4015"/>
<ellipse fill="none" stroke="#d12969" cx="455.771" cy="-335.158" rx="4.00002" ry="4.00002"/>
<polygon fill="#d12969" stroke="#d12969" points="449.793,-35.3902 442.335,-27.3506 445.188,-33.4427 440.582,-31.4952 440.582,-31.4952 440.582,-31.4952 445.188,-33.4427 438.83,-35.6398 449.793,-35.3902 449.793,-35.3902"/>
</g>
<!-- User -->
<g id="node10" class="node"><title>User</title>
<ellipse fill="none" stroke="black" cx="261.988" cy="-250" rx="27" ry="18"/>
<text text-anchor="middle" x="261.988" y="-245.8" font-family="Times,serif" font-size="14.00">User</text>
</g>
<!-- Product&#45;&gt;User -->
<g id="edge5" class="edge"><title>Product&#45;&gt;User</title>
<path fill="none" stroke="#44a69c" d="M412.879,-331.326C406.204,-326.223 398.67,-321.325 390.988,-318 344.814,-298.015 317.83,-332.264 279.223,-300 272.532,-294.409 268.437,-286.051 265.931,-277.815"/>
<polygon fill="#44a69c" stroke="#44a69c" points="413.069,-331.48 417.98,-341.285 416.945,-334.638 420.822,-337.796 420.822,-337.796 420.822,-337.796 416.945,-334.638 423.664,-334.307 413.069,-331.48 413.069,-331.48"/>
<polygon fill="#44a69c" stroke="#44a69c" points="265.916,-277.749 267.973,-266.978 264.756,-272.886 263.595,-268.022 263.595,-268.022 263.595,-268.022 264.756,-272.886 259.218,-269.066 265.916,-277.749 265.916,-277.749"/>
<text text-anchor="middle" x="308.371" y="-288.8" font-family="Times,serif" font-size="14.00">user_likes</text>
</g>
<!-- Wishlist -->
<g id="node12" class="node"><title>Wishlist</title>
<ellipse fill="none" stroke="black" cx="391.988" cy="-164" rx="39.4749" ry="18"/>
<text text-anchor="middle" x="391.988" y="-159.8" font-family="Times,serif" font-size="14.00">Wishlist</text>
</g>
<!-- Product&#45;&gt;Wishlist -->
<g id="edge7" class="edge"><title>Product&#45;&gt;Wishlist</title>
<path fill="none" stroke="#4fd150" d="M430.539,-326.485C421.981,-290.636 406.96,-227.713 398.414,-191.914"/>
<polygon fill="#4fd150" stroke="#4fd150" points="430.594,-326.713 428.539,-337.484 431.755,-331.576 432.916,-336.439 432.916,-336.439 432.916,-336.439 431.755,-331.576 437.293,-335.394 430.594,-326.713 430.594,-326.713"/>
<polygon fill="#4fd150" stroke="#4fd150" points="398.407,-191.885 400.461,-181.113 397.246,-187.021 396.084,-182.158 396.084,-182.158 396.084,-182.158 397.246,-187.021 391.707,-183.203 398.407,-191.885 398.407,-191.885"/>
</g>
<!-- ActsAsTaggableOn::Tagging -->
<g id="node13" class="node"><title>ActsAsTaggableOn::Tagging</title>
<ellipse fill="none" stroke="black" cx="637.988" cy="-250" rx="113.006" ry="18"/>
<text text-anchor="middle" x="637.988" y="-245.8" font-family="Times,serif" font-size="14.00">ActsAsTaggableOn::Tagging</text>
</g>
<!-- Product&#45;&gt;ActsAsTaggableOn::Tagging -->
<g id="edge8" class="edge"><title>Product&#45;&gt;ActsAsTaggableOn::Tagging</title>
<path fill="none" stroke="#aa2b4b" d="M464.583,-334.979C486.715,-320.577 518.875,-300.648 548.547,-286 559.873,-280.409 572.328,-275.062 584.251,-270.304"/>
<ellipse fill="none" stroke="#aa2b4b" cx="461.111" cy="-337.254" rx="4.00002" ry="4.00002"/>
<polygon fill="#aa2b4b" stroke="#aa2b4b" points="584.355,-270.264 595.307,-270.813 589.011,-268.443 593.668,-266.622 593.668,-266.622 593.668,-266.622 589.011,-268.443 592.029,-262.431 584.355,-270.264 584.355,-270.264"/>
<text text-anchor="middle" x="572.709" y="-288.8" font-family="Times,serif" font-size="14.00">taggings</text>
</g>
<!-- Product&#45;&gt;ActsAsTaggableOn::Tagging -->
<g id="edge10" class="edge"><title>Product&#45;&gt;ActsAsTaggableOn::Tagging</title>
<path fill="none" stroke="#cc76f4" d="M479.476,-345.713C513.208,-338.065 560.445,-323.972 595.988,-300 605.421,-293.638 613.979,-284.613 620.872,-276.039"/>
<ellipse fill="none" stroke="#cc76f4" cx="475.544" cy="-346.575" rx="4.00001" ry="4.00001"/>
<polygon fill="#cc76f4" stroke="#cc76f4" points="620.889,-276.017 630.526,-270.784 623.917,-272.038 626.945,-268.059 626.945,-268.059 626.945,-268.059 623.917,-272.038 623.364,-265.334 620.889,-276.017 620.889,-276.017"/>
<text text-anchor="middle" x="647.761" y="-288.8" font-family="Times,serif" font-size="14.00">tag_taggings</text>
</g>
<!-- ActsAsTaggableOn::Tag -->
<g id="node14" class="node"><title>ActsAsTaggableOn::Tag</title>
<ellipse fill="none" stroke="black" cx="865.988" cy="-250" rx="97.0617" ry="18"/>
<text text-anchor="middle" x="865.988" y="-245.8" font-family="Times,serif" font-size="14.00">ActsAsTaggableOn::Tag</text>
</g>
<!-- Product&#45;&gt;ActsAsTaggableOn::Tag -->
<g id="edge9" class="edge"><title>Product&#45;&gt;ActsAsTaggableOn::Tag</title>
<path fill="none" stroke="#abec93" d="M481.122,-344.908C531.393,-334.932 615.906,-317.587 687.988,-300 727.666,-290.319 771.944,-278.136 806.413,-268.339"/>
<polygon fill="#abec93" stroke="#abec93" points="481.045,-344.923 470.363,-342.448 476.14,-345.893 471.235,-346.862 471.235,-346.862 471.235,-346.862 476.14,-345.893 472.108,-351.277 481.045,-344.923 481.045,-344.923"/>
<polygon fill="#abec93" stroke="#abec93" points="806.704,-268.257 817.555,-269.84 811.512,-266.885 816.32,-265.513 816.32,-265.513 816.32,-265.513 811.512,-266.885 815.085,-261.186 806.704,-268.257 806.704,-268.257"/>
<text text-anchor="middle" x="769.202" y="-288.8" font-family="Times,serif" font-size="14.00">base_tags</text>
</g>
<!-- Product&#45;&gt;ActsAsTaggableOn::Tag -->
<g id="edge11" class="edge"><title>Product&#45;&gt;ActsAsTaggableOn::Tag</title>
<path fill="none" stroke="#e985c4" d="M484.66,-353.772C555.963,-352.593 693.4,-344.123 799.988,-300 814.631,-293.939 828.989,-283.916 840.554,-274.509"/>
<polygon fill="#e985c4" stroke="#e985c4" points="484.631,-353.772 474.576,-349.397 479.631,-353.834 474.631,-353.896 474.631,-353.896 474.631,-353.896 479.631,-353.834 474.687,-358.396 484.631,-353.772 484.631,-353.772"/>
<polygon fill="#e985c4" stroke="#e985c4" points="840.811,-274.292 851.352,-271.269 844.629,-271.063 848.446,-267.834 848.446,-267.834 848.446,-267.834 844.629,-271.063 845.54,-264.398 840.811,-274.292 840.811,-274.292"/>
<text text-anchor="middle" x="834.264" y="-288.8" font-family="Times,serif" font-size="14.00">tags</text>
</g>
<!-- Store&#45;&gt;Comment -->
<g id="edge13" class="edge"><title>Store&#45;&gt;Comment</title>
<path fill="none" stroke="#aa3e31" d="M144.936,-147.439C125.521,-136.67 99.5735,-122.278 78.9826,-110.856"/>
<ellipse fill="none" stroke="#aa3e31" cx="148.64" cy="-149.494" rx="4.00002" ry="4.00002"/>
<polygon fill="#aa3e31" stroke="#aa3e31" points="78.9765,-110.853 72.4145,-102.067 74.6041,-108.427 70.2317,-106.002 70.2317,-106.002 70.2317,-106.002 74.6041,-108.427 68.0489,-109.937 78.9765,-110.853 78.9765,-110.853"/>
</g>
<!-- Store&#45;&gt;Like -->
<g id="edge14" class="edge"><title>Store&#45;&gt;Like</title>
<path fill="none" stroke="#4163f3" d="M195.442,-143.073C206.091,-133.621 218.81,-122.333 229.579,-112.776"/>
<ellipse fill="none" stroke="#4163f3" cx="192.169" cy="-145.977" rx="4.00002" ry="4.00002"/>
<polygon fill="#4163f3" stroke="#4163f3" points="229.888,-112.501 240.355,-109.229 233.628,-109.182 237.368,-105.863 237.368,-105.863 237.368,-105.863 233.628,-109.182 234.381,-102.498 229.888,-112.501 229.888,-112.501"/>
</g>
<!-- Store&#45;&gt;MetroStore -->
<g id="edge16" class="edge"><title>Store&#45;&gt;MetroStore</title>
<path fill="none" stroke="#48c369" d="M167.663,-137.791C166.372,-131.683 164.988,-125.13 163.681,-118.946"/>
<ellipse fill="none" stroke="#48c369" cx="168.53" cy="-141.899" rx="4.00001" ry="4.00001"/>
<polygon fill="#48c369" stroke="#48c369" points="163.653,-118.813 165.989,-108.099 162.62,-113.921 161.586,-109.029 161.586,-109.029 161.586,-109.029 162.62,-113.921 157.183,-109.959 163.653,-118.813 163.653,-118.813"/>
</g>
<!-- Store&#45;&gt;Product -->
<g id="edge12" class="edge"><title>Store&#45;&gt;Product</title>
<path fill="none" stroke="#32f3d3" d="M147.527,-182.352C119.719,-203.418 82.0094,-239.641 104.988,-268 186.226,-368.257 271.881,-268.355 390.988,-318 398.845,-321.275 406.519,-326.247 413.279,-331.442"/>
<ellipse fill="none" stroke="#32f3d3" cx="150.767" cy="-179.964" rx="4.00002" ry="4.00002"/>
<polygon fill="#32f3d3" stroke="#32f3d3" points="413.57,-331.682 418.438,-341.508 417.433,-334.857 421.295,-338.031 421.295,-338.031 421.295,-338.031 417.433,-334.857 424.153,-334.555 413.57,-331.682 413.57,-331.682"/>
</g>
<!-- Store&#45;&gt;User -->
<g id="edge15" class="edge"><title>Store&#45;&gt;User</title>
<path fill="none" stroke="#61f0db" d="M189.995,-188.973C196.48,-197.337 204.241,-206.5 212.223,-214 218.862,-220.238 226.677,-226.246 234.121,-231.47"/>
<polygon fill="#61f0db" stroke="#61f0db" points="189.985,-188.959 187.573,-178.261 186.981,-184.962 183.976,-180.965 183.976,-180.965 183.976,-180.965 186.981,-184.962 180.379,-183.669 189.985,-188.959 189.985,-188.959"/>
<polygon fill="#61f0db" stroke="#61f0db" points="234.317,-231.603 240.074,-240.936 238.457,-234.407 242.597,-237.21 242.597,-237.21 242.597,-237.21 238.457,-234.407 245.12,-233.484 234.317,-231.603 234.317,-231.603"/>
<text text-anchor="middle" x="241.371" y="-202.8" font-family="Times,serif" font-size="14.00">user_likes</text>
</g>
<!-- User&#45;&gt;Comment -->
<g id="edge19" class="edge"><title>User&#45;&gt;Comment</title>
<path fill="none" stroke="#a83300" d="M231.531,-236.944C216.61,-230.678 198.55,-222.552 182.988,-214 160.519,-201.651 154.817,-198.255 134.988,-182 109.868,-161.406 83.9215,-134.788 66.3804,-115.854"/>
<ellipse fill="none" stroke="#a83300" cx="235.323" cy="-238.514" rx="4.00002" ry="4.00002"/>
<polygon fill="#a83300" stroke="#a83300" points="66.1645,-115.619 62.7202,-105.208 62.7844,-111.934 59.4042,-108.25 59.4042,-108.25 59.4042,-108.25 62.7844,-111.934 56.0883,-111.292 66.1645,-115.619 66.1645,-115.619"/>
</g>
<!-- User&#45;&gt;Like -->
<g id="edge18" class="edge"><title>User&#45;&gt;Like</title>
<path fill="none" stroke="#306f90" d="M267.618,-223.949C268.184,-220.619 268.668,-217.237 268.988,-214 272.248,-181.077 265.708,-143.337 260.032,-118.659"/>
<ellipse fill="none" stroke="#306f90" cx="266.833" cy="-228.082" rx="4.00001" ry="4.00001"/>
<polygon fill="#306f90" stroke="#306f90" points="260.031,-118.655 262.058,-107.878 258.857,-113.794 257.683,-108.934 257.683,-108.934 257.683,-108.934 258.857,-113.794 253.309,-109.991 260.031,-118.655 260.031,-118.655"/>
</g>
<!-- User&#45;&gt;Product -->
<g id="edge22" class="edge"><title>User&#45;&gt;Product</title>
<path fill="none" stroke="#8aa7c4" d="M258.173,-278.221C258.529,-286.139 260.541,-294.206 265.988,-300 304.437,-340.892 339.294,-296.135 390.988,-318 398.828,-321.316 406.496,-326.302 413.255,-331.498"/>
<polygon fill="#8aa7c4" stroke="#8aa7c4" points="258.177,-278.096 263.007,-268.251 258.344,-273.099 258.51,-268.101 258.51,-268.101 258.51,-268.101 258.344,-273.099 254.012,-267.952 258.177,-278.096 258.177,-278.096"/>
<polygon fill="#8aa7c4" stroke="#8aa7c4" points="413.545,-331.736 418.419,-341.559 417.41,-334.908 421.275,-338.081 421.275,-338.081 421.275,-338.081 417.41,-334.908 424.13,-334.603 413.545,-331.736 413.545,-331.736"/>
</g>
<!-- User&#45;&gt;Store -->
<g id="edge17" class="edge"><title>User&#45;&gt;Store</title>
<path fill="none" stroke="#b0cff3" d="M231.166,-237.678C219.024,-232.027 205.692,-224.189 195.988,-214 189.438,-207.123 184.475,-198.039 180.867,-189.562"/>
<ellipse fill="none" stroke="#b0cff3" cx="234.868" cy="-239.305" rx="4.00002" ry="4.00002"/>
<ellipse fill="#b0cff3" stroke="#b0cff3" cx="179.382" cy="-185.756" rx="4.00001" ry="4.00001"/>
</g>
<!-- UserWishlist -->
<g id="node11" class="node"><title>UserWishlist</title>
<ellipse fill="none" stroke="black" cx="395.988" cy="-91" rx="55.8697" ry="18"/>
<text text-anchor="middle" x="395.988" y="-86.8" font-family="Times,serif" font-size="14.00">UserWishlist</text>
</g>
<!-- User&#45;&gt;UserWishlist -->
<g id="edge20" class="edge"><title>User&#45;&gt;UserWishlist</title>
<path fill="none" stroke="#e74e31" d="M278.403,-227.18C294.562,-205.995 320.204,-173.148 343.988,-146 352.833,-135.905 362.99,-125.18 371.967,-115.971"/>
<ellipse fill="none" stroke="#e74e31" cx="275.925" cy="-230.442" rx="4.00002" ry="4.00002"/>
<polygon fill="#e74e31" stroke="#e74e31" points="372.164,-115.77 382.384,-111.794 375.67,-112.205 379.175,-108.639 379.175,-108.639 379.175,-108.639 375.67,-112.205 375.966,-105.485 372.164,-115.77 372.164,-115.77"/>
</g>
<!-- User&#45;&gt;Wishlist -->
<g id="edge21" class="edge"><title>User&#45;&gt;Wishlist</title>
<path fill="none" stroke="#6d664d" d="M294.619,-236.895C308.802,-230.955 325.274,-223.111 338.988,-214 350.078,-206.632 361.093,-196.939 370.183,-188.121"/>
<polygon fill="#6d664d" stroke="#6d664d" points="294.498,-236.944 283.54,-236.523 289.863,-238.819 285.228,-240.694 285.228,-240.694 285.228,-240.694 289.863,-238.819 286.915,-244.866 294.498,-236.944 294.498,-236.944"/>
<polygon fill="#6d664d" stroke="#6d664d" points="370.25,-188.055 380.506,-184.174 373.788,-184.522 377.327,-180.989 377.327,-180.989 377.327,-180.989 373.788,-184.522 374.147,-177.805 370.25,-188.055 370.25,-188.055"/>
</g>
<!-- UserWishlist&#45;&gt;Product -->
<g id="edge24" class="edge"><title>UserWishlist&#45;&gt;Product</title>
<path fill="none" stroke="#4c6e59" d="M421.041,-115.559C428.636,-124.304 436.015,-134.835 439.988,-146 461.885,-207.539 451.263,-285.985 443.199,-326.526"/>
<polygon fill="#4c6e59" stroke="#4c6e59" points="420.892,-115.398 417.398,-105.004 417.494,-111.73 414.097,-108.062 414.097,-108.062 414.097,-108.062 417.494,-111.73 410.795,-111.121 420.892,-115.398 420.892,-115.398"/>
<polygon fill="#4c6e59" stroke="#4c6e59" points="443.171,-326.66 436.719,-335.526 442.148,-331.554 441.124,-336.448 441.124,-336.448 441.124,-336.448 442.148,-331.554 445.528,-337.369 443.171,-326.66 443.171,-326.66"/>
</g>
<!-- UserWishlist&#45;&gt;ProductWishlist -->
<g id="edge23" class="edge"><title>UserWishlist&#45;&gt;ProductWishlist</title>
<path fill="none" stroke="#6ab7a4" d="M395.988,-64.791C395.988,-58.832 395.988,-52.4496 395.988,-46.3988"/>
<ellipse fill="none" stroke="#6ab7a4" cx="395.988" cy="-68.8129" rx="4" ry="4"/>
<polygon fill="#6ab7a4" stroke="#6ab7a4" points="395.989,-46.0288 400.488,-36.0288 395.988,-41.0288 395.988,-36.0288 395.988,-36.0288 395.988,-36.0288 395.988,-41.0288 391.488,-36.0289 395.989,-46.0288 395.989,-46.0288"/>
</g>
<!-- Wishlist&#45;&gt;ProductWishlist -->
<g id="edge26" class="edge"><title>Wishlist&#45;&gt;ProductWishlist</title>
<path fill="none" stroke="#2acf96" d="M362.044,-144.728C350.03,-135.633 337.505,-123.472 330.988,-109 324.419,-94.4108 324.191,-87.4843 330.988,-73 337.157,-59.8548 348.272,-48.8023 359.587,-40.1891"/>
<ellipse fill="none" stroke="#2acf96" cx="365.376" cy="-147.125" rx="4.00002" ry="4.00002"/>
<polygon fill="#2acf96" stroke="#2acf96" points="359.643,-40.149 370.401,-38.0208 363.718,-37.2513 367.793,-34.3535 367.793,-34.3535 367.793,-34.3535 363.718,-37.2513 365.185,-30.6863 359.643,-40.149 359.643,-40.149"/>
</g>
<!-- Wishlist&#45;&gt;UserWishlist -->
<g id="edge25" class="edge"><title>Wishlist&#45;&gt;UserWishlist</title>
<path fill="none" stroke="#c7d190" d="M393.409,-137.791C393.744,-131.832 394.104,-125.45 394.445,-119.399"/>
<ellipse fill="none" stroke="#c7d190" cx="393.182" cy="-141.819" rx="4" ry="4"/>
<polygon fill="#c7d190" stroke="#c7d190" points="394.466,-119.013 399.522,-109.282 394.748,-114.021 395.029,-109.029 395.029,-109.029 395.029,-109.029 394.748,-114.021 390.536,-108.776 394.466,-119.013 394.466,-119.013"/>
</g>
</g>
</svg>
