<?xml version="1.0" encoding="UTF-8" standalone="no"?>
<!DOCTYPE svg PUBLIC "-//W3C//DTD SVG 1.1//EN"
 "http://www.w3.org/Graphics/SVG/1.1/DTD/svg11.dtd">
<!-- Generated by graphviz version 2.38.0 (20140413.2041)
 -->
<!-- Title: models_diagram Pages: 1 -->
<svg width="814pt" height="326pt"
 viewBox="0.00 0.00 813.82 326.00" xmlns="http://www.w3.org/2000/svg" xmlns:xlink="http://www.w3.org/1999/xlink">
<g id="graph0" class="graph" transform="scale(1 1) rotate(0) translate(4 322)">
<title>models_diagram</title>
<polygon fill="none" stroke="none" points="-4,4 -4,-322 809.824,-322 809.824,4 -4,4"/>
<!-- _diagram_info -->
<g id="node1" class="node"><title>_diagram_info</title>
<text text-anchor="start" x="8" y="-303.6" font-family="Times,serif" font-size="13.00">Models diagram</text>
<text text-anchor="start" x="8" y="-290.6" font-family="Times,serif" font-size="13.00">Date: May 10 2016 &#45; 20:56</text>
<text text-anchor="start" x="8" y="-277.6" font-family="Times,serif" font-size="13.00">Migration version: 20160510233540</text>
<text text-anchor="start" x="8" y="-264.6" font-family="Times,serif" font-size="13.00">Generated by RailRoady 1.4.2</text>
<text text-anchor="start" x="8" y="-251.6" font-family="Times,serif" font-size="13.00">http://railroady.prestonlee.com</text>
</g>
<!-- Ability -->
<g id="node2" class="node"><title>Ability</title>
<polygon fill="none" stroke="black" points="281.358,-299.5 226.018,-299.5 226.018,-263.5 281.358,-263.5 281.358,-299.5"/>
<text text-anchor="middle" x="253.688" y="-277.3" font-family="Times,serif" font-size="14.00">Ability</text>
</g>
<!-- Comment -->
<g id="node3" class="node"><title>Comment</title>
<ellipse fill="none" stroke="black" cx="109.688" cy="-18" rx="44.9768" ry="18"/>
<text text-anchor="middle" x="109.688" y="-13.8" font-family="Times,serif" font-size="14.00">Comment</text>
</g>
<!-- Like -->
<g id="node4" class="node"><title>Like</title>
<ellipse fill="none" stroke="black" cx="199.688" cy="-18" rx="27" ry="18"/>
<text text-anchor="middle" x="199.688" y="-13.8" font-family="Times,serif" font-size="14.00">Like</text>
</g>
<!-- Product -->
<g id="node5" class="node"><title>Product</title>
<ellipse fill="none" stroke="black" cx="336.688" cy="-281.5" rx="37.7352" ry="18"/>
<text text-anchor="middle" x="336.688" y="-277.3" font-family="Times,serif" font-size="14.00">Product</text>
</g>
<!-- Product&#45;&gt;Comment -->
<g id="edge1" class="edge"><title>Product&#45;&gt;Comment</title>
<path fill="none" stroke="#2104af" d="M314.705,-259.959C307.526,-254.276 299.199,-248.668 290.688,-245 223.437,-216.015 172.958,-256.811 133.688,-195 104.613,-149.237 104.154,-83.3208 106.719,-46.5166"/>
<ellipse fill="none" stroke="#2104af" cx="317.87" cy="-262.589" rx="4.00002" ry="4.00002"/>
<polygon fill="#2104af" stroke="#2104af" points="106.758,-46.0496 112.068,-36.4555 107.171,-41.0667 107.584,-36.0837 107.584,-36.0837 107.584,-36.0837 107.171,-41.0667 103.099,-35.712 106.758,-46.0496 106.758,-46.0496"/>
</g>
<!-- Product&#45;&gt;Like -->
<g id="edge2" class="edge"><title>Product&#45;&gt;Like</title>
<path fill="none" stroke="#bd1d32" d="M314.165,-260.07C307.063,-254.497 298.914,-248.922 290.688,-245 235.185,-218.536 199.157,-243.754 161.688,-195 127.96,-151.114 113.56,-123.285 136.688,-73 143.848,-57.4329 157.955,-44.6741 171.007,-35.4746"/>
<ellipse fill="none" stroke="#bd1d32" cx="317.268" cy="-262.608" rx="4.00002" ry="4.00002"/>
<polygon fill="#bd1d32" stroke="#bd1d32" points="171.012,-35.4716 181.834,-33.7012 175.18,-32.7105 179.349,-29.9495 179.349,-29.9495 179.349,-29.9495 175.18,-32.7105 176.864,-26.1978 171.012,-35.4716 171.012,-35.4716"/>
</g>
<!-- ProductWishlist -->
<g id="node6" class="node"><title>ProductWishlist</title>
<ellipse fill="none" stroke="black" cx="635.688" cy="-18" rx="66.9956" ry="18"/>
<text text-anchor="middle" x="635.688" y="-13.8" font-family="Times,serif" font-size="14.00">ProductWishlist</text>
</g>
<!-- Product&#45;&gt;ProductWishlist -->
<g id="edge4" class="edge"><title>Product&#45;&gt;ProductWishlist</title>
<path fill="none" stroke="#b84233" d="M382.464,-279.344C488.211,-275.578 744.22,-259.815 793.688,-195 839.658,-134.768 737.265,-69.9239 676.508,-38.4111"/>
<ellipse fill="none" stroke="#b84233" cx="378.208" cy="-279.489" rx="4" ry="4"/>
<polygon fill="#b84233" stroke="#b84233" points="676.417,-38.3648 669.548,-29.8167 671.961,-36.0957 667.506,-33.8267 667.506,-33.8267 667.506,-33.8267 671.961,-36.0957 665.463,-37.8366 676.417,-38.3648 676.417,-38.3648"/>
</g>
<!-- User -->
<g id="node8" class="node"><title>User</title>
<ellipse fill="none" stroke="black" cx="246.688" cy="-177" rx="27" ry="18"/>
<text text-anchor="middle" x="246.688" y="-172.8" font-family="Times,serif" font-size="14.00">User</text>
</g>
<!-- Product&#45;&gt;User -->
<g id="edge3" class="edge"><title>Product&#45;&gt;User</title>
<path fill="none" stroke="#baa10d" d="M310.847,-258.696C304.478,-253.853 297.518,-248.982 290.688,-245 272.872,-234.614 259.546,-244.034 247.922,-227 243.569,-220.621 242.148,-212.607 242.126,-204.919"/>
<polygon fill="#baa10d" stroke="#baa10d" points="311.244,-259.008 316.315,-268.731 315.172,-262.102 319.1,-265.196 319.1,-265.196 319.1,-265.196 315.172,-262.102 321.884,-261.661 311.244,-259.008 311.244,-259.008"/>
<polygon fill="#baa10d" stroke="#baa10d" points="242.134,-204.798 247.309,-195.13 242.477,-199.809 242.82,-194.821 242.82,-194.821 242.82,-194.821 242.477,-199.809 238.33,-194.513 242.134,-204.798 242.134,-204.798"/>
<text text-anchor="middle" x="277.071" y="-215.8" font-family="Times,serif" font-size="14.00">user_likes</text>
</g>
<!-- Wishlist -->
<g id="node10" class="node"><title>Wishlist</title>
<ellipse fill="none" stroke="black" cx="351.688" cy="-91" rx="39.4749" ry="18"/>
<text text-anchor="middle" x="351.688" y="-86.8" font-family="Times,serif" font-size="14.00">Wishlist</text>
</g>
<!-- Product&#45;&gt;Wishlist -->
<g id="edge5" class="edge"><title>Product&#45;&gt;Wishlist</title>
<path fill="none" stroke="#3cd434" d="M335.372,-253.057C334.555,-228.373 334.23,-191.155 337.688,-159 339.122,-145.658 342.015,-131.05 344.801,-118.889"/>
<polygon fill="#3cd434" stroke="#3cd434" points="335.376,-253.142 331.26,-263.306 335.566,-258.138 335.757,-263.135 335.757,-263.135 335.757,-263.135 335.566,-258.138 340.254,-262.963 335.376,-253.142 335.376,-253.142"/>
<polygon fill="#3cd434" stroke="#3cd434" points="344.858,-118.652 351.559,-109.971 346.02,-113.789 347.182,-108.926 347.182,-108.926 347.182,-108.926 346.02,-113.789 342.805,-107.88 344.858,-118.652 344.858,-118.652"/>
</g>
<!-- ActsAsTaggableOn::Tagging -->
<g id="node11" class="node"><title>ActsAsTaggableOn::Tagging</title>
<ellipse fill="none" stroke="black" cx="459.688" cy="-177" rx="113.006" ry="18"/>
<text text-anchor="middle" x="459.688" y="-172.8" font-family="Times,serif" font-size="14.00">ActsAsTaggableOn::Tagging</text>
</g>
<!-- Product&#45;&gt;ActsAsTaggableOn::Tagging -->
<g id="edge6" class="edge"><title>Product&#45;&gt;ActsAsTaggableOn::Tagging</title>
<path fill="none" stroke="#1c4a02" d="M372.028,-265.816C391.016,-256.672 413.902,-243.503 430.688,-227 437.274,-220.524 442.916,-212.248 447.425,-204.349"/>
<ellipse fill="none" stroke="#1c4a02" cx="368.32" cy="-267.549" rx="4.00002" ry="4.00002"/>
<polygon fill="#1c4a02" stroke="#1c4a02" points="447.498,-204.211 456.162,-197.488 449.843,-199.795 452.187,-195.378 452.187,-195.378 452.187,-195.378 449.843,-199.795 448.213,-193.268 447.498,-204.211 447.498,-204.211"/>
<text text-anchor="middle" x="464.408" y="-215.8" font-family="Times,serif" font-size="14.00">taggings</text>
</g>
<!-- Product&#45;&gt;ActsAsTaggableOn::Tagging -->
<g id="edge8" class="edge"><title>Product&#45;&gt;ActsAsTaggableOn::Tagging</title>
<path fill="none" stroke="#9732fd" d="M337.925,-255.071C339.88,-241.052 344.499,-224.259 355.143,-213 362.046,-205.698 370.515,-199.919 379.616,-195.345"/>
<ellipse fill="none" stroke="#9732fd" cx="337.454" cy="-259.39" rx="4" ry="4"/>
<polygon fill="#9732fd" stroke="#9732fd" points="379.778,-195.272 390.744,-195.264 384.336,-193.217 388.894,-191.161 388.894,-191.161 388.894,-191.161 384.336,-193.217 387.045,-187.059 379.778,-195.272 379.778,-195.272"/>
<text text-anchor="middle" x="391.46" y="-215.8" font-family="Times,serif" font-size="14.00">tag_taggings</text>
</g>
<!-- ActsAsTaggableOn::Tag -->
<g id="node12" class="node"><title>ActsAsTaggableOn::Tag</title>
<ellipse fill="none" stroke="black" cx="687.688" cy="-177" rx="97.0617" ry="18"/>
<text text-anchor="middle" x="687.688" y="-172.8" font-family="Times,serif" font-size="14.00">ActsAsTaggableOn::Tag</text>
</g>
<!-- Product&#45;&gt;ActsAsTaggableOn::Tag -->
<g id="edge7" class="edge"><title>Product&#45;&gt;ActsAsTaggableOn::Tag</title>
<path fill="none" stroke="#90a597" d="M382.026,-273.854C432.21,-265.771 515.072,-250.258 583.688,-227 605.943,-219.456 629.725,-208.488 648.922,-198.839"/>
<polygon fill="#90a597" stroke="#90a597" points="382.012,-273.856 371.432,-270.974 377.074,-274.637 372.135,-275.419 372.135,-275.419 372.135,-275.419 377.074,-274.637 372.838,-279.863 382.012,-273.856 382.012,-273.856"/>
<polygon fill="#90a597" stroke="#90a597" points="649.044,-198.777 659.997,-198.238 653.497,-196.504 657.95,-194.23 657.95,-194.23 657.95,-194.23 653.497,-196.504 655.904,-190.222 649.044,-198.777 649.044,-198.777"/>
<text text-anchor="middle" x="645.902" y="-215.8" font-family="Times,serif" font-size="14.00">base_tags</text>
</g>
<!-- Product&#45;&gt;ActsAsTaggableOn::Tag -->
<g id="edge9" class="edge"><title>Product&#45;&gt;ActsAsTaggableOn::Tag</title>
<path fill="none" stroke="#aaaf28" d="M377.022,-267.683C421.129,-253.777 493.961,-231.134 557.136,-213 578.749,-206.796 602.474,-200.333 623.701,-194.673"/>
<polygon fill="#aaaf28" stroke="#aaaf28" points="376.792,-267.756 365.901,-266.476 372.024,-269.262 367.256,-270.768 367.256,-270.768 367.256,-270.768 372.024,-269.262 368.612,-275.059 376.792,-267.756 376.792,-267.756"/>
<polygon fill="#aaaf28" stroke="#aaaf28" points="623.915,-194.617 634.735,-196.398 628.747,-193.333 633.58,-192.049 633.58,-192.049 633.58,-192.049 628.747,-193.333 632.425,-187.7 623.915,-194.617 623.915,-194.617"/>
<text text-anchor="middle" x="567.964" y="-215.8" font-family="Times,serif" font-size="14.00">tags</text>
</g>
<!-- Store -->
<g id="node7" class="node"><title>Store</title>
<ellipse fill="none" stroke="black" cx="174.688" cy="-91" rx="28.5497" ry="18"/>
<text text-anchor="middle" x="174.688" y="-86.8" font-family="Times,serif" font-size="14.00">Store</text>
</g>
<!-- Store&#45;&gt;Comment -->
<g id="edge11" class="edge"><title>Store&#45;&gt;Comment</title>
<path fill="none" stroke="#d26287" d="M155.322,-68.8471C147.725,-60.5479 138.975,-50.9908 131.183,-42.4792"/>
<ellipse fill="none" stroke="#d26287" cx="158.202" cy="-71.9924" rx="4.00002" ry="4.00002"/>
<polygon fill="#d26287" stroke="#d26287" points="131.109,-42.3982 127.675,-31.9837 127.732,-38.7103 124.356,-35.0223 124.356,-35.0223 124.356,-35.0223 127.732,-38.7103 121.037,-38.061 131.109,-42.3982 131.109,-42.3982"/>
</g>
<!-- Store&#45;&gt;Like -->
<g id="edge12" class="edge"><title>Store&#45;&gt;Like</title>
<path fill="none" stroke="#d95e36" d="M183.277,-65.606C185.555,-59.1356 188.027,-52.1179 190.343,-45.5395"/>
<ellipse fill="none" stroke="#d95e36" cx="181.941" cy="-69.401" rx="4.00001" ry="4.00001"/>
<polygon fill="#d95e36" stroke="#d95e36" points="190.484,-45.1376 198.05,-37.1998 192.145,-40.4214 193.806,-35.7052 193.806,-35.7052 193.806,-35.7052 192.145,-40.4214 189.561,-34.2106 190.484,-45.1376 190.484,-45.1376"/>
</g>
<!-- Store&#45;&gt;Product -->
<g id="edge10" class="edge"><title>Store&#45;&gt;Product</title>
<path fill="none" stroke="#8f5341" d="M159.12,-114.787C155.341,-123.084 153.258,-132.507 156.688,-141 176.58,-190.255 195.001,-198.28 239.688,-227 259.909,-239.996 269.574,-233.512 290.688,-245 297.915,-248.932 305.207,-253.962 311.788,-258.992"/>
<ellipse fill="none" stroke="#8f5341" cx="161.084" cy="-111.079" rx="4.00002" ry="4.00002"/>
<polygon fill="#8f5341" stroke="#8f5341" points="311.862,-259.051 316.883,-268.8 315.773,-262.165 319.685,-265.279 319.685,-265.279 319.685,-265.279 315.773,-262.165 322.488,-261.758 311.862,-259.051 311.862,-259.051"/>
</g>
<!-- Store&#45;&gt;User -->
<g id="edge13" class="edge"><title>Store&#45;&gt;User</title>
<path fill="none" stroke="#00b3a2" d="M161.791,-117.779C159.65,-125.717 159.388,-134.16 163.922,-141 174.298,-156.653 193.216,-165.324 210.348,-170.118"/>
<polygon fill="#00b3a2" stroke="#00b3a2" points="161.875,-117.549 169.519,-109.687 163.582,-112.85 165.29,-108.151 165.29,-108.151 165.29,-108.151 163.582,-112.85 161.06,-106.614 161.875,-117.549 161.875,-117.549"/>
<polygon fill="#00b3a2" stroke="#00b3a2" points="210.438,-170.14 219.082,-176.888 215.294,-171.328 220.151,-172.517 220.151,-172.517 220.151,-172.517 215.294,-171.328 221.22,-168.145 210.438,-170.14 210.438,-170.14"/>
<text text-anchor="middle" x="193.071" y="-129.8" font-family="Times,serif" font-size="14.00">user_likes</text>
</g>
<!-- User&#45;&gt;Comment -->
<g id="edge16" class="edge"><title>User&#45;&gt;Comment</title>
<path fill="none" stroke="#68e551" d="M213.109,-168.479C194.925,-163.125 172.925,-154.444 156.688,-141 128.163,-117.383 116.906,-74.3146 112.494,-46.1817"/>
<ellipse fill="none" stroke="#68e551" cx="217.306" cy="-169.641" rx="4.00001" ry="4.00001"/>
<polygon fill="#68e551" stroke="#68e551" points="112.484,-46.1084 115.574,-35.5869 111.8,-41.1554 111.116,-36.2024 111.116,-36.2024 111.116,-36.2024 111.8,-41.1554 106.658,-36.8179 112.484,-46.1084 112.484,-46.1084"/>
</g>
<!-- User&#45;&gt;Like -->
<g id="edge15" class="edge"><title>User&#45;&gt;Like</title>
<path fill="none" stroke="#bab2ac" d="M244.11,-150.635C243.052,-142.974 241.611,-134.585 239.688,-127 232.391,-98.2215 220.102,-66.4937 211.067,-44.9196"/>
<ellipse fill="none" stroke="#bab2ac" cx="244.612" cy="-154.622" rx="4.00001" ry="4.00001"/>
<polygon fill="#bab2ac" stroke="#bab2ac" points="210.968,-44.6867 211.192,-33.7231 209.01,-40.0861 207.052,-35.4854 207.052,-35.4854 207.052,-35.4854 209.01,-40.0861 202.911,-37.2478 210.968,-44.6867 210.968,-44.6867"/>
</g>
<!-- User&#45;&gt;Store -->
<g id="edge14" class="edge"><title>User&#45;&gt;Store</title>
<path fill="none" stroke="#cf3951" d="M236.568,-152.032C232.366,-143.616 226.988,-134.418 220.688,-127 215.134,-120.46 208.158,-114.385 201.331,-109.193"/>
<ellipse fill="none" stroke="#cf3951" cx="238.377" cy="-155.853" rx="4.00002" ry="4.00002"/>
<ellipse fill="#cf3951" stroke="#cf3951" cx="197.847" cy="-106.662" rx="4.00002" ry="4.00002"/>
</g>
<!-- UserWishlist -->
<g id="node9" class="node"><title>UserWishlist</title>
<ellipse fill="none" stroke="black" cx="317.688" cy="-18" rx="55.8697" ry="18"/>
<text text-anchor="middle" x="317.688" y="-13.8" font-family="Times,serif" font-size="14.00">UserWishlist</text>
</g>
<!-- User&#45;&gt;UserWishlist -->
<g id="edge17" class="edge"><title>User&#45;&gt;UserWishlist</title>
<path fill="none" stroke="#9f14e5" d="M257.582,-151.91C270.568,-123.194 292.2,-75.3592 305.665,-45.5855"/>
<ellipse fill="none" stroke="#9f14e5" cx="255.8" cy="-155.85" rx="4.00002" ry="4.00002"/>
<polygon fill="#9f14e5" stroke="#9f14e5" points="305.773,-45.346 313.994,-38.0887 307.834,-40.7902 309.894,-36.2344 309.894,-36.2344 309.894,-36.2344 307.834,-40.7902 305.794,-34.3801 305.773,-45.346 305.773,-45.346"/>
</g>
<!-- User&#45;&gt;Wishlist -->
<g id="edge18" class="edge"><title>User&#45;&gt;Wishlist</title>
<path fill="none" stroke="#859519" d="M273.424,-157.623C280.75,-152.394 288.618,-146.596 295.688,-141 306.292,-132.607 317.588,-122.884 327.237,-114.322"/>
<polygon fill="#859519" stroke="#859519" points="273.326,-157.692 262.56,-159.776 269.24,-160.573 265.153,-163.454 265.153,-163.454 265.153,-163.454 269.24,-160.573 267.746,-167.132 273.326,-157.692 273.326,-157.692"/>
<polygon fill="#859519" stroke="#859519" points="327.453,-114.129 337.905,-110.811 331.178,-110.794 334.903,-107.459 334.903,-107.459 334.903,-107.459 331.178,-110.794 331.902,-104.106 327.453,-114.129 327.453,-114.129"/>
</g>
<!-- Wishlist&#45;&gt;ProductWishlist -->
<g id="edge20" class="edge"><title>Wishlist&#45;&gt;ProductWishlist</title>
<path fill="none" stroke="#f2b4af" d="M393.407,-79.5701C442.395,-67.3231 523.905,-46.9458 578.695,-33.2482"/>
<ellipse fill="none" stroke="#f2b4af" cx="389.262" cy="-80.6064" rx="4.00001" ry="4.00001"/>
<polygon fill="#f2b4af" stroke="#f2b4af" points="578.899,-33.1972 589.692,-35.1375 583.75,-31.9845 588.6,-30.7718 588.6,-30.7718 588.6,-30.7718 583.75,-31.9845 587.509,-26.4062 578.899,-33.1972 578.899,-33.1972"/>
</g>
<!-- Wishlist&#45;&gt;UserWishlist -->
<g id="edge19" class="edge"><title>Wishlist&#45;&gt;UserWishlist</title>
<path fill="none" stroke="#7c1ec6" d="M340.061,-65.7205C336.938,-59.1987 333.545,-52.1137 330.368,-45.4789"/>
<ellipse fill="none" stroke="#7c1ec6" cx="341.903" cy="-69.5663" rx="4.00002" ry="4.00002"/>
<polygon fill="#7c1ec6" stroke="#7c1ec6" points="330.243,-45.2176 329.982,-34.2548 328.083,-40.708 325.924,-36.1984 325.924,-36.1984 325.924,-36.1984 328.083,-40.708 321.865,-38.142 330.243,-45.2176 330.243,-45.2176"/>
</g>
</g>
</svg>
