<?xml version="1.0" encoding="UTF-8" standalone="no"?>
<!DOCTYPE svg PUBLIC "-//W3C//DTD SVG 1.1//EN"
 "http://www.w3.org/Graphics/SVG/1.1/DTD/svg11.dtd">
<!-- Generated by graphviz version 2.38.0 (20140413.2041)
 -->
<!-- Title: models_diagram Pages: 1 -->
<svg width="1011pt" height="399pt"
 viewBox="0.00 0.00 1011.37 399.00" xmlns="http://www.w3.org/2000/svg" xmlns:xlink="http://www.w3.org/1999/xlink">
<g id="graph0" class="graph" transform="scale(1 1) rotate(0) translate(4 395)">
<title>models_diagram</title>
<polygon fill="none" stroke="none" points="-4,4 -4,-395 1007.37,-395 1007.37,4 -4,4"/>
<!-- _diagram_info -->
<g id="node1" class="node"><title>_diagram_info</title>
<text text-anchor="start" x="139.312" y="-376.6" font-family="Times,serif" font-size="13.00">Models diagram</text>
<text text-anchor="start" x="139.312" y="-363.6" font-family="Times,serif" font-size="13.00">Date: May 17 2016 &#45; 20:49</text>
<text text-anchor="start" x="139.312" y="-350.6" font-family="Times,serif" font-size="13.00">Migration version: 20160517234613</text>
<text text-anchor="start" x="139.312" y="-337.6" font-family="Times,serif" font-size="13.00">Generated by RailRoady 1.4.2</text>
<text text-anchor="start" x="139.312" y="-324.6" font-family="Times,serif" font-size="13.00">http://railroady.prestonlee.com</text>
</g>
<!-- Ability -->
<g id="node2" class="node"><title>Ability</title>
<polygon fill="none" stroke="black" points="412.67,-372.5 357.33,-372.5 357.33,-336.5 412.67,-336.5 412.67,-372.5"/>
<text text-anchor="middle" x="385" y="-350.3" font-family="Times,serif" font-size="14.00">Ability</text>
</g>
<!-- Comment -->
<g id="node3" class="node"><title>Comment</title>
<ellipse fill="none" stroke="black" cx="637" cy="-91" rx="44.9768" ry="18"/>
<text text-anchor="middle" x="637" y="-86.8" font-family="Times,serif" font-size="14.00">Comment</text>
</g>
<!-- Like -->
<g id="node4" class="node"><title>Like</title>
<ellipse fill="none" stroke="black" cx="773" cy="-91" rx="27" ry="18"/>
<text text-anchor="middle" x="773" y="-86.8" font-family="Times,serif" font-size="14.00">Like</text>
</g>
<!-- Line -->
<g id="node5" class="node"><title>Line</title>
<ellipse fill="none" stroke="black" cx="928" cy="-354.5" rx="27" ry="18"/>
<text text-anchor="middle" x="928" y="-350.3" font-family="Times,serif" font-size="14.00">Line</text>
</g>
<!-- Station -->
<g id="node8" class="node"><title>Station</title>
<ellipse fill="none" stroke="black" cx="887" cy="-250" rx="35.3303" ry="18"/>
<text text-anchor="middle" x="887" y="-245.8" font-family="Times,serif" font-size="14.00">Station</text>
</g>
<!-- Line&#45;&gt;Station -->
<g id="edge2" class="edge"><title>Line&#45;&gt;Station</title>
<path fill="none" stroke="#fae279" d="M917.634,-327.584C911.476,-312.189 903.687,-292.718 897.505,-277.262"/>
<polygon fill="#fae279" stroke="#fae279" points="917.699,-327.747 917.234,-338.703 919.556,-332.389 921.413,-337.032 921.413,-337.032 921.413,-337.032 919.556,-332.389 925.591,-335.36 917.699,-327.747 917.699,-327.747"/>
<polygon fill="#fae279" stroke="#fae279" points="897.421,-277.053 897.885,-266.097 895.564,-272.41 893.707,-267.768 893.707,-267.768 893.707,-267.768 895.564,-272.41 889.529,-269.439 897.421,-277.053 897.421,-277.053"/>
</g>
<!-- StationLine -->
<g id="node9" class="node"><title>StationLine</title>
<ellipse fill="none" stroke="black" cx="952" cy="-164" rx="51.2415" ry="18"/>
<text text-anchor="middle" x="952" y="-159.8" font-family="Times,serif" font-size="14.00">StationLine</text>
</g>
<!-- Line&#45;&gt;StationLine -->
<g id="edge1" class="edge"><title>Line&#45;&gt;StationLine</title>
<path fill="none" stroke="#082f55" d="M931.218,-328.227C935.714,-292.91 943.847,-229.038 948.493,-192.543"/>
<ellipse fill="none" stroke="#082f55" cx="930.677" cy="-332.471" rx="4.00001" ry="4.00001"/>
<polygon fill="#082f55" stroke="#082f55" points="948.552,-192.078 954.279,-182.726 949.184,-187.118 949.815,-182.158 949.815,-182.158 949.815,-182.158 949.184,-187.118 945.351,-181.589 948.552,-192.078 948.552,-192.078"/>
</g>
<!-- Product -->
<g id="node6" class="node"><title>Product</title>
<ellipse fill="none" stroke="black" cx="468" cy="-354.5" rx="37.7352" ry="18"/>
<text text-anchor="middle" x="468" y="-350.3" font-family="Times,serif" font-size="14.00">Product</text>
</g>
<!-- Product&#45;&gt;Comment -->
<g id="edge3" class="edge"><title>Product&#45;&gt;Comment</title>
<path fill="none" stroke="#0b5340" d="M492.606,-332.821C510.645,-316.645 534.729,-292.803 551,-268 568.928,-240.671 565.028,-229.547 579,-200 592.553,-171.341 609.97,-139.468 622.167,-117.824"/>
<ellipse fill="none" stroke="#0b5340" cx="489.258" cy="-335.775" rx="4.00002" ry="4.00002"/>
<polygon fill="#0b5340" stroke="#0b5340" points="622.277,-117.63 631.124,-111.151 624.743,-113.281 627.209,-108.931 627.209,-108.931 627.209,-108.931 624.743,-113.281 623.295,-106.712 622.277,-117.63 622.277,-117.63"/>
</g>
<!-- Product&#45;&gt;Like -->
<g id="edge4" class="edge"><title>Product&#45;&gt;Like</title>
<path fill="none" stroke="#0b2bf7" d="M513.07,-349.389C561.236,-343.585 638.788,-330.113 699,-300 756.576,-271.205 764.484,-243.655 783,-182 790.06,-158.492 792.935,-151.044 788,-127 787.369,-123.926 786.456,-120.789 785.388,-117.717"/>
<ellipse fill="none" stroke="#0b2bf7" cx="508.988" cy="-349.861" rx="4.00001" ry="4.00001"/>
<polygon fill="#0b2bf7" stroke="#0b2bf7" points="785.328,-117.567 785.775,-106.61 783.464,-112.927 781.6,-108.287 781.6,-108.287 781.6,-108.287 783.464,-112.927 777.424,-109.965 785.328,-117.567 785.328,-117.567"/>
</g>
<!-- ProductWishlist -->
<g id="node7" class="node"><title>ProductWishlist</title>
<ellipse fill="none" stroke="black" cx="84" cy="-18" rx="66.9956" ry="18"/>
<text text-anchor="middle" x="84" y="-13.8" font-family="Times,serif" font-size="14.00">ProductWishlist</text>
</g>
<!-- Product&#45;&gt;ProductWishlist -->
<g id="edge6" class="edge"><title>Product&#45;&gt;ProductWishlist</title>
<path fill="none" stroke="#d1fb04" d="M446.233,-332.419C439.063,-326.715 430.687,-321.231 422,-318 333.003,-284.902 0,-345.952 0,-251 0,-251 0,-251 0,-90 0,-66.8796 18.7914,-49.7468 38.5984,-38.1098"/>
<ellipse fill="none" stroke="#d1fb04" cx="449.394" cy="-335.083" rx="4.00002" ry="4.00002"/>
<polygon fill="#d1fb04" stroke="#d1fb04" points="38.624,-38.0959 49.5575,-37.2526 43.0124,-35.6995 47.4007,-33.3031 47.4007,-33.3031 47.4007,-33.3031 43.0124,-35.6995 45.244,-29.3536 38.624,-38.0959 38.624,-38.0959"/>
</g>
<!-- User -->
<g id="node12" class="node"><title>User</title>
<ellipse fill="none" stroke="black" cx="641" cy="-250" rx="27" ry="18"/>
<text text-anchor="middle" x="641" y="-245.8" font-family="Times,serif" font-size="14.00">User</text>
</g>
<!-- Product&#45;&gt;User -->
<g id="edge5" class="edge"><title>Product&#45;&gt;User</title>
<path fill="none" stroke="#4d4378" d="M505.645,-338.415C528.212,-328.711 557.076,-315.116 581,-300 594.047,-291.757 607.452,-281.058 618.274,-271.762"/>
<polygon fill="#4d4378" stroke="#4d4378" points="505.601,-338.433 494.638,-338.183 500.996,-340.38 496.391,-342.328 496.391,-342.328 496.391,-342.328 500.996,-340.38 498.144,-346.472 505.601,-338.433 505.601,-338.433"/>
<polygon fill="#4d4378" stroke="#4d4378" points="618.478,-271.583 628.964,-268.374 622.237,-268.287 625.997,-264.99 625.997,-264.99 625.997,-264.99 622.237,-268.287 623.03,-261.607 618.478,-271.583 618.478,-271.583"/>
<text text-anchor="middle" x="628.383" y="-288.8" font-family="Times,serif" font-size="14.00">user_likes</text>
</g>
<!-- Wishlist -->
<g id="node14" class="node"><title>Wishlist</title>
<ellipse fill="none" stroke="black" cx="141" cy="-164" rx="39.4749" ry="18"/>
<text text-anchor="middle" x="141" y="-159.8" font-family="Times,serif" font-size="14.00">Wishlist</text>
</g>
<!-- Product&#45;&gt;Wishlist -->
<g id="edge7" class="edge"><title>Product&#45;&gt;Wishlist</title>
<path fill="none" stroke="#67b0e5" d="M444.384,-331.21C437.624,-326.016 429.926,-321.102 422,-318 353.545,-291.207 140.076,-326.069 95,-268 76.0693,-243.613 97.8957,-210.203 117.462,-188.131"/>
<polygon fill="#67b0e5" stroke="#67b0e5" points="444.681,-331.455 449.525,-341.293 448.536,-334.639 452.391,-337.824 452.391,-337.824 452.391,-337.824 448.536,-334.639 455.257,-334.354 444.681,-331.455 444.681,-331.455"/>
<polygon fill="#67b0e5" stroke="#67b0e5" points="117.692,-187.884 127.79,-183.608 121.09,-184.216 124.489,-180.549 124.489,-180.549 124.489,-180.549 121.09,-184.216 121.189,-177.49 117.692,-187.884 117.692,-187.884"/>
</g>
<!-- ActsAsTaggableOn::Tagging -->
<g id="node15" class="node"><title>ActsAsTaggableOn::Tagging</title>
<ellipse fill="none" stroke="black" cx="217" cy="-250" rx="113.006" ry="18"/>
<text text-anchor="middle" x="217" y="-245.8" font-family="Times,serif" font-size="14.00">ActsAsTaggableOn::Tagging</text>
</g>
<!-- Product&#45;&gt;ActsAsTaggableOn::Tagging -->
<g id="edge8" class="edge"><title>Product&#45;&gt;ActsAsTaggableOn::Tagging</title>
<path fill="none" stroke="#a0b423" d="M446.151,-332.634C438.977,-326.939 430.62,-321.405 422,-318 382.876,-302.543 266.529,-326.125 233.559,-300 226.754,-294.608 222.727,-286.299 220.351,-278.046"/>
<ellipse fill="none" stroke="#a0b423" cx="449.313" cy="-335.285" rx="4.00002" ry="4.00002"/>
<polygon fill="#a0b423" stroke="#a0b423" points="220.335,-277.975 222.59,-267.243 219.265,-273.091 218.195,-268.207 218.195,-268.207 218.195,-268.207 219.265,-273.091 213.799,-269.17 220.335,-277.975 220.335,-277.975"/>
<text text-anchor="middle" x="257.721" y="-288.8" font-family="Times,serif" font-size="14.00">taggings</text>
</g>
<!-- Product&#45;&gt;ActsAsTaggableOn::Tagging -->
<g id="edge10" class="edge"><title>Product&#45;&gt;ActsAsTaggableOn::Tagging</title>
<path fill="none" stroke="#92bb7d" d="M445.426,-333.177C438.322,-327.607 430.185,-322.007 422,-318 393.325,-303.961 382.955,-309.441 352.455,-300 323.858,-291.148 292.387,-279.86 266.983,-270.351"/>
<ellipse fill="none" stroke="#92bb7d" cx="448.53" cy="-335.709" rx="4.00002" ry="4.00002"/>
<polygon fill="#92bb7d" stroke="#92bb7d" points="266.92,-270.327 259.149,-262.591 262.241,-268.564 257.562,-266.802 257.562,-266.802 257.562,-266.802 262.241,-268.564 255.976,-271.013 266.92,-270.327 266.92,-270.327"/>
<text text-anchor="middle" x="388.772" y="-288.8" font-family="Times,serif" font-size="14.00">tag_taggings</text>
</g>
<!-- ActsAsTaggableOn::Tag -->
<g id="node16" class="node"><title>ActsAsTaggableOn::Tag</title>
<ellipse fill="none" stroke="black" cx="445" cy="-250" rx="97.0617" ry="18"/>
<text text-anchor="middle" x="445" y="-245.8" font-family="Times,serif" font-size="14.00">ActsAsTaggableOn::Tag</text>
</g>
<!-- Product&#45;&gt;ActsAsTaggableOn::Tag -->
<g id="edge9" class="edge"><title>Product&#45;&gt;ActsAsTaggableOn::Tag</title>
<path fill="none" stroke="#f87feb" d="M446.184,-329.846C439.511,-321.117 433.025,-310.724 429.572,-300 427.242,-292.763 428.175,-284.912 430.456,-277.658"/>
<polygon fill="#f87feb" stroke="#f87feb" points="446.233,-329.907 449.058,-340.503 449.39,-333.784 452.547,-337.661 452.547,-337.661 452.547,-337.661 449.39,-333.784 456.037,-334.82 446.233,-329.907 446.233,-329.907"/>
<polygon fill="#f87feb" stroke="#f87feb" points="430.505,-277.535 438.399,-269.924 432.363,-272.893 434.222,-268.252 434.222,-268.252 434.222,-268.252 432.363,-272.893 430.044,-266.579 430.505,-277.535 430.505,-277.535"/>
<text text-anchor="middle" x="456.214" y="-288.8" font-family="Times,serif" font-size="14.00">base_tags</text>
</g>
<!-- Product&#45;&gt;ActsAsTaggableOn::Tag -->
<g id="edge11" class="edge"><title>Product&#45;&gt;ActsAsTaggableOn::Tag</title>
<path fill="none" stroke="#41b9d8" d="M481.794,-327.613C486.766,-314.732 489.866,-299.146 484,-286 482.248,-282.074 479.815,-278.406 477.011,-275.033"/>
<polygon fill="#41b9d8" stroke="#41b9d8" points="481.759,-327.692 473.623,-335.044 479.752,-332.271 477.744,-336.851 477.744,-336.851 477.744,-336.851 479.752,-332.271 481.865,-338.658 481.759,-327.692 481.759,-327.692"/>
<polygon fill="#41b9d8" stroke="#41b9d8" points="476.89,-274.908 473.178,-264.59 473.416,-271.313 469.942,-267.717 469.942,-267.717 469.942,-267.717 473.416,-271.313 466.705,-270.844 476.89,-274.908 476.89,-274.908"/>
<text text-anchor="middle" x="498.276" y="-288.8" font-family="Times,serif" font-size="14.00">tags</text>
</g>
<!-- Station&#45;&gt;StationLine -->
<g id="edge14" class="edge"><title>Station&#45;&gt;StationLine</title>
<path fill="none" stroke="#2aaabe" d="M904.612,-226.239C913.36,-214.935 923.944,-201.258 932.888,-189.699"/>
<ellipse fill="none" stroke="#2aaabe" cx="901.981" cy="-229.64" rx="4.00002" ry="4.00002"/>
<polygon fill="#2aaabe" stroke="#2aaabe" points="932.941,-189.63 942.62,-184.475 936.001,-185.676 939.061,-181.721 939.061,-181.721 939.061,-181.721 936.001,-185.676 935.502,-178.967 932.941,-189.63 932.941,-189.63"/>
</g>
<!-- StationStore -->
<g id="node10" class="node"><title>StationStore</title>
<ellipse fill="none" stroke="black" cx="872" cy="-91" rx="53.6643" ry="18"/>
<text text-anchor="middle" x="872" y="-86.8" font-family="Times,serif" font-size="14.00">StationStore</text>
</g>
<!-- Station&#45;&gt;StationStore -->
<g id="edge12" class="edge"><title>Station&#45;&gt;StationStore</title>
<path fill="none" stroke="#2aadab" d="M884.597,-223.852C881.859,-195.193 877.4,-148.523 874.587,-119.082"/>
<ellipse fill="none" stroke="#2aadab" cx="884.986" cy="-227.918" rx="4" ry="4"/>
<polygon fill="#2aadab" stroke="#2aadab" points="874.583,-119.034 878.111,-108.652 874.107,-114.057 873.632,-109.08 873.632,-109.08 873.632,-109.08 874.107,-114.057 869.152,-109.508 874.583,-119.034 874.583,-119.034"/>
</g>
<!-- Store -->
<g id="node11" class="node"><title>Store</title>
<ellipse fill="none" stroke="black" cx="722" cy="-164" rx="28.5497" ry="18"/>
<text text-anchor="middle" x="722" y="-159.8" font-family="Times,serif" font-size="14.00">Store</text>
</g>
<!-- Station&#45;&gt;Store -->
<g id="edge13" class="edge"><title>Station&#45;&gt;Store</title>
<path fill="none" stroke="#629f11" d="M853.806,-232.101C824.322,-217.091 781.569,-195.326 752.825,-180.693"/>
<polygon fill="#629f11" stroke="#629f11" points="854.096,-232.249 860.966,-240.796 858.552,-234.517 863.008,-236.786 863.008,-236.786 863.008,-236.786 858.552,-234.517 865.049,-232.775 854.096,-232.249 854.096,-232.249"/>
<polygon fill="#629f11" stroke="#629f11" points="752.565,-180.561 745.695,-172.013 748.109,-178.292 743.654,-176.024 743.654,-176.024 743.654,-176.024 748.109,-178.292 741.612,-180.034 752.565,-180.561 752.565,-180.561"/>
</g>
<!-- Store&#45;&gt;Comment -->
<g id="edge16" class="edge"><title>Store&#45;&gt;Comment</title>
<path fill="none" stroke="#0694cd" d="M698.828,-143.645C687.876,-134.496 674.747,-123.53 663.41,-114.06"/>
<ellipse fill="none" stroke="#0694cd" cx="702.137" cy="-146.408" rx="4.00002" ry="4.00002"/>
<polygon fill="#0694cd" stroke="#0694cd" points="663.204,-113.888 658.414,-104.023 659.366,-110.682 655.529,-107.477 655.529,-107.477 655.529,-107.477 659.366,-110.682 652.644,-110.931 663.204,-113.888 663.204,-113.888"/>
</g>
<!-- Store&#45;&gt;Like -->
<g id="edge17" class="edge"><title>Store&#45;&gt;Like</title>
<path fill="none" stroke="#60a998" d="M738.134,-140.539C743.767,-132.697 750.107,-123.871 755.821,-115.915"/>
<ellipse fill="none" stroke="#60a998" cx="735.652" cy="-143.994" rx="4.00002" ry="4.00002"/>
<polygon fill="#60a998" stroke="#60a998" points="755.879,-115.835 765.368,-110.338 758.796,-111.774 761.713,-107.713 761.713,-107.713 761.713,-107.713 758.796,-111.774 758.058,-105.088 755.879,-115.835 755.879,-115.835"/>
</g>
<!-- Store&#45;&gt;Product -->
<g id="edge15" class="edge"><title>Store&#45;&gt;Product</title>
<path fill="none" stroke="#c1a4bd" d="M737.132,-187.942C740.746,-196.126 742.836,-205.437 740,-214 725.018,-259.228 715.553,-273.437 676,-300 627.325,-332.689 559.966,-345.405 515.243,-350.352"/>
<ellipse fill="none" stroke="#c1a4bd" cx="735.302" cy="-184.36" rx="4.00002" ry="4.00002"/>
<polygon fill="#c1a4bd" stroke="#c1a4bd" points="515.172,-350.359 504.768,-346.895 510.198,-350.865 505.224,-351.372 505.224,-351.372 505.224,-351.372 510.198,-350.865 505.679,-355.849 515.172,-350.359 515.172,-350.359"/>
</g>
<!-- Store&#45;&gt;StationStore -->
<g id="edge19" class="edge"><title>Store&#45;&gt;StationStore</title>
<path fill="none" stroke="#983992" d="M751.849,-148.872C775.075,-137.878 807.503,-122.529 832.817,-110.547"/>
<ellipse fill="none" stroke="#983992" cx="748.072" cy="-150.659" rx="4.00002" ry="4.00002"/>
<polygon fill="#983992" stroke="#983992" points="833.098,-110.414 844.062,-110.203 837.617,-108.275 842.136,-106.135 842.136,-106.135 842.136,-106.135 837.617,-108.275 840.211,-102.068 833.098,-110.414 833.098,-110.414"/>
</g>
<!-- Store&#45;&gt;User -->
<g id="edge18" class="edge"><title>Store&#45;&gt;User</title>
<path fill="none" stroke="#f89b61" d="M698.088,-185.734C693.071,-190.319 687.892,-195.234 683.234,-200 675.346,-208.072 667.142,-217.358 660.086,-225.661"/>
<polygon fill="#f89b61" stroke="#f89b61" points="698.296,-185.548 708.744,-182.219 702.017,-182.209 705.739,-178.87 705.739,-178.87 705.739,-178.87 702.017,-182.209 702.734,-175.52 698.296,-185.548 698.296,-185.548"/>
<polygon fill="#f89b61" stroke="#f89b61" points="659.892,-225.892 650.019,-230.663 656.68,-229.723 653.467,-233.555 653.467,-233.555 653.467,-233.555 656.68,-229.723 656.915,-236.446 659.892,-225.892 659.892,-225.892"/>
<text text-anchor="middle" x="711.383" y="-202.8" font-family="Times,serif" font-size="14.00">user_likes</text>
</g>
<!-- User&#45;&gt;Comment -->
<g id="edge22" class="edge"><title>User&#45;&gt;Comment</title>
<path fill="none" stroke="#d51bbf" d="M640.359,-223.852C639.629,-195.193 638.44,-148.523 637.69,-119.082"/>
<ellipse fill="none" stroke="#d51bbf" cx="640.462" cy="-227.901" rx="4" ry="4"/>
<polygon fill="#d51bbf" stroke="#d51bbf" points="637.69,-119.076 641.934,-108.965 637.563,-114.078 637.435,-109.08 637.435,-109.08 637.435,-109.08 637.563,-114.078 632.937,-109.194 637.69,-119.076 637.69,-119.076"/>
</g>
<!-- User&#45;&gt;Like -->
<g id="edge21" class="edge"><title>User&#45;&gt;Like</title>
<path fill="none" stroke="#ed452b" d="M675.509,-244.145C697.284,-239.549 724.818,-230.734 744,-214 770.766,-190.649 775.194,-147.508 774.885,-119.287"/>
<ellipse fill="none" stroke="#ed452b" cx="671.401" cy="-244.944" rx="4.00001" ry="4.00001"/>
<polygon fill="#ed452b" stroke="#ed452b" points="774.885,-119.269 779.069,-109.133 774.728,-114.271 774.572,-109.274 774.572,-109.274 774.572,-109.274 774.728,-114.271 770.074,-109.415 774.885,-119.269 774.885,-119.269"/>
</g>
<!-- User&#45;&gt;Product -->
<g id="edge25" class="edge"><title>User&#45;&gt;Product</title>
<path fill="none" stroke="#038859" d="M659.91,-274.289C664.572,-282.898 666.779,-292.401 661,-300 643.278,-323.303 565.358,-339.098 514.106,-347.18"/>
<polygon fill="#038859" stroke="#038859" points="659.824,-274.156 658.173,-263.315 657.109,-269.957 654.394,-265.758 654.394,-265.758 654.394,-265.758 657.109,-269.957 650.615,-268.201 659.824,-274.156 659.824,-274.156"/>
<polygon fill="#038859" stroke="#038859" points="513.806,-347.225 503.24,-344.292 508.864,-347.983 503.922,-348.74 503.922,-348.74 503.922,-348.74 508.864,-347.983 504.603,-353.188 513.806,-347.225 513.806,-347.225"/>
</g>
<!-- User&#45;&gt;Store -->
<g id="edge20" class="edge"><title>User&#45;&gt;Store</title>
<path fill="none" stroke="#9d2e02" d="M650.785,-224.735C654.953,-216.289 660.395,-207.148 667,-200 674.273,-192.129 683.69,-185.293 692.671,-179.802"/>
<ellipse fill="none" stroke="#9d2e02" cx="648.999" cy="-228.59" rx="4.00002" ry="4.00002"/>
<ellipse fill="#9d2e02" stroke="#9d2e02" cx="696.272" cy="-177.705" rx="4.00002" ry="4.00002"/>
</g>
<!-- UserWishlist -->
<g id="node13" class="node"><title>UserWishlist</title>
<ellipse fill="none" stroke="black" cx="84" cy="-91" rx="55.8697" ry="18"/>
<text text-anchor="middle" x="84" y="-86.8" font-family="Times,serif" font-size="14.00">UserWishlist</text>
</g>
<!-- User&#45;&gt;UserWishlist -->
<g id="edge23" class="edge"><title>User&#45;&gt;UserWishlist</title>
<path fill="none" stroke="#852f9d" d="M620.589,-228.954C609.209,-218.844 594.278,-207.226 579,-200 434.433,-131.62 245.531,-105.893 148.191,-96.7249"/>
<ellipse fill="none" stroke="#852f9d" cx="623.572" cy="-231.68" rx="4.00002" ry="4.00002"/>
<polygon fill="#852f9d" stroke="#852f9d" points="148.165,-96.7227 138.616,-91.3313 143.186,-96.2676 138.206,-95.8126 138.206,-95.8126 138.206,-95.8126 143.186,-96.2676 137.797,-100.294 148.165,-96.7227 148.165,-96.7227"/>
</g>
<!-- User&#45;&gt;Wishlist -->
<g id="edge24" class="edge"><title>User&#45;&gt;Wishlist</title>
<path fill="none" stroke="#6c65ce" d="M605.605,-242.105C589.038,-238.932 569.026,-235.175 551,-232 419.559,-208.85 263.916,-184.16 187.737,-172.253"/>
<polygon fill="#6c65ce" stroke="#6c65ce" points="605.607,-242.106 614.576,-248.414 610.517,-243.05 615.427,-243.995 615.427,-243.995 615.427,-243.995 610.517,-243.05 616.277,-239.576 605.607,-242.106 605.607,-242.106"/>
<polygon fill="#6c65ce" stroke="#6c65ce" points="187.406,-172.201 178.22,-166.212 182.466,-171.43 177.526,-170.659 177.526,-170.659 177.526,-170.659 182.466,-171.43 176.832,-175.105 187.406,-172.201 187.406,-172.201"/>
</g>
<!-- UserWishlist&#45;&gt;Product -->
<g id="edge27" class="edge"><title>UserWishlist&#45;&gt;Product</title>
<path fill="none" stroke="#a9c8b5" d="M77.2802,-118.986C66.6722,-168.678 53.3598,-272.126 118,-300 180.142,-326.797 358.622,-294.274 422,-318 429.971,-320.984 437.685,-325.857 444.445,-331.051"/>
<polygon fill="#a9c8b5" stroke="#a9c8b5" points="77.3397,-118.722 83.9295,-109.957 78.4397,-113.844 79.5397,-108.967 79.5397,-108.967 79.5397,-108.967 78.4397,-113.844 75.1499,-107.977 77.3397,-118.722 77.3397,-118.722"/>
<polygon fill="#a9c8b5" stroke="#a9c8b5" points="444.746,-331.3 449.574,-341.146 448.596,-334.491 452.445,-337.681 452.445,-337.681 452.445,-337.681 448.596,-334.491 455.317,-334.217 444.746,-331.3 444.746,-331.3"/>
</g>
<!-- UserWishlist&#45;&gt;ProductWishlist -->
<g id="edge26" class="edge"><title>UserWishlist&#45;&gt;ProductWishlist</title>
<path fill="none" stroke="#17c997" d="M84,-64.791C84,-58.832 84,-52.4496 84,-46.3988"/>
<ellipse fill="none" stroke="#17c997" cx="84" cy="-68.8129" rx="4" ry="4"/>
<polygon fill="#17c997" stroke="#17c997" points="84.0001,-46.0288 88.5,-36.0288 84,-41.0288 84,-36.0288 84,-36.0288 84,-36.0288 84,-41.0288 79.5,-36.0289 84.0001,-46.0288 84.0001,-46.0288"/>
</g>
<!-- Wishlist&#45;&gt;ProductWishlist -->
<g id="edge29" class="edge"><title>Wishlist&#45;&gt;ProductWishlist</title>
<path fill="none" stroke="#210d48" d="M149.7,-138.37C154.834,-119.586 158.637,-93.5343 149,-73 142.831,-59.8548 131.716,-48.8023 120.402,-40.1891"/>
<ellipse fill="none" stroke="#210d48" cx="148.514" cy="-142.357" rx="4.00001" ry="4.00001"/>
<polygon fill="#210d48" stroke="#210d48" points="120.345,-40.149 114.804,-30.6863 116.27,-37.2513 112.196,-34.3535 112.196,-34.3535 112.196,-34.3535 116.27,-37.2513 109.588,-38.0208 120.345,-40.149 120.345,-40.149"/>
</g>
<!-- Wishlist&#45;&gt;UserWishlist -->
<g id="edge28" class="edge"><title>Wishlist&#45;&gt;UserWishlist</title>
<path fill="none" stroke="#8886b0" d="M122.842,-140.382C116.746,-132.788 109.919,-124.286 103.71,-116.551"/>
<ellipse fill="none" stroke="#8886b0" cx="125.562" cy="-143.77" rx="4.00002" ry="4.00002"/>
<polygon fill="#8886b0" stroke="#8886b0" points="103.539,-116.338 100.788,-105.723 100.409,-112.439 97.2786,-108.54 97.2786,-108.54 97.2786,-108.54 100.409,-112.439 93.7695,-111.357 103.539,-116.338 103.539,-116.338"/>
</g>
</g>
</svg>
