<?xml version="1.0" encoding="UTF-8" standalone="no"?>
<!DOCTYPE svg PUBLIC "-//W3C//DTD SVG 1.1//EN"
 "http://www.w3.org/Graphics/SVG/1.1/DTD/svg11.dtd">
<!-- Generated by graphviz version 2.38.0 (20140413.2041)
 -->
<!-- Title: models_diagram Pages: 1 -->
<svg width="1291pt" height="941pt"
 viewBox="0.00 0.00 1291.14 941.00" xmlns="http://www.w3.org/2000/svg" xmlns:xlink="http://www.w3.org/1999/xlink">
<g id="graph0" class="graph" transform="scale(1 1) rotate(0) translate(4 937)">
<title>models_diagram</title>
<polygon fill="none" stroke="none" points="-4,4 -4,-937 1287.14,-937 1287.14,4 -4,4"/>
<!-- _diagram_info -->
<g id="node1" class="node"><title>_diagram_info</title>
<text text-anchor="start" x="382.175" y="-876.6" font-family="Times,serif" font-size="13.00">Models diagram</text>
<text text-anchor="start" x="382.175" y="-863.6" font-family="Times,serif" font-size="13.00">Date: May 09 2016 &#45; 21:58</text>
<text text-anchor="start" x="382.175" y="-850.6" font-family="Times,serif" font-size="13.00">Migration version: 20160510000125</text>
<text text-anchor="start" x="382.175" y="-837.6" font-family="Times,serif" font-size="13.00">Generated by RailRoady 1.4.2</text>
<text text-anchor="start" x="382.175" y="-824.6" font-family="Times,serif" font-size="13.00">http://railroady.prestonlee.com</text>
</g>
<!-- Ability -->
<g id="node2" class="node"><title>Ability</title>
<polygon fill="none" stroke="black" points="600.028,-832.5 600.028,-876.5 655.697,-876.5 655.697,-832.5 600.028,-832.5"/>
<text text-anchor="middle" x="627.862" y="-861.3" font-family="Times,serif" font-size="14.00">Ability</text>
<polyline fill="none" stroke="black" points="600.028,-854.5 655.697,-854.5 "/>
<text text-anchor="middle" x="627.862" y="-839.3" font-family="Times,serif" font-size="14.00"> </text>
</g>
<!-- Category -->
<g id="node3" class="node"><title>Category</title>
<path fill="none" stroke="black" d="M101,-506.5C101,-506.5 324.725,-506.5 324.725,-506.5 330.725,-506.5 336.725,-512.5 336.725,-518.5 336.725,-518.5 336.725,-594.5 336.725,-594.5 336.725,-600.5 330.725,-606.5 324.725,-606.5 324.725,-606.5 101,-606.5 101,-606.5 95,-606.5 89,-600.5 89,-594.5 89,-594.5 89,-518.5 89,-518.5 89,-512.5 95,-506.5 101,-506.5"/>
<text text-anchor="middle" x="212.862" y="-591.3" font-family="Times,serif" font-size="14.00">Category</text>
<polyline fill="none" stroke="black" points="89,-584.5 336.725,-584.5 "/>
<text text-anchor="start" x="97" y="-569.3" font-family="Times,serif" font-size="14.00">id :integer</text>
<text text-anchor="start" x="97" y="-555.3" font-family="Times,serif" font-size="14.00">name :character varying</text>
<text text-anchor="start" x="97" y="-541.3" font-family="Times,serif" font-size="14.00">created_at :timestamp without time zone</text>
<text text-anchor="start" x="97" y="-527.3" font-family="Times,serif" font-size="14.00">updated_at :timestamp without time zone</text>
<text text-anchor="start" x="97" y="-513.3" font-family="Times,serif" font-size="14.00">icon :character varying</text>
</g>
<!-- Wishlist -->
<g id="node10" class="node"><title>Wishlist</title>
<path fill="none" stroke="black" d="M120,-194.5C120,-194.5 343.725,-194.5 343.725,-194.5 349.725,-194.5 355.725,-200.5 355.725,-206.5 355.725,-206.5 355.725,-296.5 355.725,-296.5 355.725,-302.5 349.725,-308.5 343.725,-308.5 343.725,-308.5 120,-308.5 120,-308.5 114,-308.5 108,-302.5 108,-296.5 108,-296.5 108,-206.5 108,-206.5 108,-200.5 114,-194.5 120,-194.5"/>
<text text-anchor="middle" x="231.862" y="-293.3" font-family="Times,serif" font-size="14.00">Wishlist</text>
<polyline fill="none" stroke="black" points="108,-286.5 355.725,-286.5 "/>
<text text-anchor="start" x="116" y="-271.3" font-family="Times,serif" font-size="14.00">id :integer</text>
<text text-anchor="start" x="116" y="-257.3" font-family="Times,serif" font-size="14.00">name :character varying</text>
<text text-anchor="start" x="116" y="-243.3" font-family="Times,serif" font-size="14.00">user_id :integer</text>
<text text-anchor="start" x="116" y="-229.3" font-family="Times,serif" font-size="14.00">created_at :timestamp without time zone</text>
<text text-anchor="start" x="116" y="-215.3" font-family="Times,serif" font-size="14.00">updated_at :timestamp without time zone</text>
<text text-anchor="start" x="116" y="-201.3" font-family="Times,serif" font-size="14.00">category_id :integer</text>
</g>
<!-- Category&#45;&gt;Wishlist -->
<g id="edge1" class="edge"><title>Category&#45;&gt;Wishlist</title>
<path fill="none" stroke="#ade5fb" d="M216.447,-498.329C219.65,-447.256 224.342,-372.43 227.707,-318.761"/>
<ellipse fill="none" stroke="#ade5fb" cx="216.186" cy="-502.489" rx="4" ry="4"/>
<polygon fill="#ade5fb" stroke="#ade5fb" points="227.715,-318.64 232.832,-308.941 228.028,-313.65 228.341,-308.659 228.341,-308.659 228.341,-308.659 228.028,-313.65 223.85,-308.378 227.715,-318.64 227.715,-318.64"/>
</g>
<!-- Comment -->
<g id="node4" class="node"><title>Comment</title>
<path fill="none" stroke="black" d="M341,-0.5C341,-0.5 564.725,-0.5 564.725,-0.5 570.725,-0.5 576.725,-6.5 576.725,-12.5 576.725,-12.5 576.725,-116.5 576.725,-116.5 576.725,-122.5 570.725,-128.5 564.725,-128.5 564.725,-128.5 341,-128.5 341,-128.5 335,-128.5 329,-122.5 329,-116.5 329,-116.5 329,-12.5 329,-12.5 329,-6.5 335,-0.5 341,-0.5"/>
<text text-anchor="middle" x="452.862" y="-113.3" font-family="Times,serif" font-size="14.00">Comment</text>
<polyline fill="none" stroke="black" points="329,-106.5 576.725,-106.5 "/>
<text text-anchor="start" x="337" y="-91.3" font-family="Times,serif" font-size="14.00">content :text</text>
<text text-anchor="start" x="337" y="-77.3" font-family="Times,serif" font-size="14.00">commentable_id :integer</text>
<text text-anchor="start" x="337" y="-63.3" font-family="Times,serif" font-size="14.00">commentable_type :character varying</text>
<text text-anchor="start" x="337" y="-49.3" font-family="Times,serif" font-size="14.00">id :integer</text>
<text text-anchor="start" x="337" y="-35.3" font-family="Times,serif" font-size="14.00">user_id :integer</text>
<text text-anchor="start" x="337" y="-21.3" font-family="Times,serif" font-size="14.00">created_at :timestamp without time zone</text>
<text text-anchor="start" x="337" y="-7.3" font-family="Times,serif" font-size="14.00">updated_at :timestamp without time zone</text>
</g>
<!-- Like -->
<g id="node5" class="node"><title>Like</title>
<path fill="none" stroke="black" d="M645,-7.5C645,-7.5 868.725,-7.5 868.725,-7.5 874.725,-7.5 880.725,-13.5 880.725,-19.5 880.725,-19.5 880.725,-109.5 880.725,-109.5 880.725,-115.5 874.725,-121.5 868.725,-121.5 868.725,-121.5 645,-121.5 645,-121.5 639,-121.5 633,-115.5 633,-109.5 633,-109.5 633,-19.5 633,-19.5 633,-13.5 639,-7.5 645,-7.5"/>
<text text-anchor="middle" x="756.862" y="-106.3" font-family="Times,serif" font-size="14.00">Like</text>
<polyline fill="none" stroke="black" points="633,-99.5 880.725,-99.5 "/>
<text text-anchor="start" x="641" y="-84.3" font-family="Times,serif" font-size="14.00">id :integer</text>
<text text-anchor="start" x="641" y="-70.3" font-family="Times,serif" font-size="14.00">likeable_id :integer</text>
<text text-anchor="start" x="641" y="-56.3" font-family="Times,serif" font-size="14.00">likeable_type :character varying</text>
<text text-anchor="start" x="641" y="-42.3" font-family="Times,serif" font-size="14.00">user_id :integer</text>
<text text-anchor="start" x="641" y="-28.3" font-family="Times,serif" font-size="14.00">created_at :timestamp without time zone</text>
<text text-anchor="start" x="641" y="-14.3" font-family="Times,serif" font-size="14.00">updated_at :timestamp without time zone</text>
</g>
<!-- Product -->
<g id="node6" class="node"><title>Product</title>
<path fill="none" stroke="black" d="M686,-776.5C686,-776.5 909.725,-776.5 909.725,-776.5 915.725,-776.5 921.725,-782.5 921.725,-788.5 921.725,-788.5 921.725,-920.5 921.725,-920.5 921.725,-926.5 915.725,-932.5 909.725,-932.5 909.725,-932.5 686,-932.5 686,-932.5 680,-932.5 674,-926.5 674,-920.5 674,-920.5 674,-788.5 674,-788.5 674,-782.5 680,-776.5 686,-776.5"/>
<text text-anchor="middle" x="797.862" y="-917.3" font-family="Times,serif" font-size="14.00">Product</text>
<polyline fill="none" stroke="black" points="674,-910.5 921.725,-910.5 "/>
<text text-anchor="start" x="682" y="-895.3" font-family="Times,serif" font-size="14.00">updated_at :timestamp without time zone</text>
<text text-anchor="start" x="682" y="-881.3" font-family="Times,serif" font-size="14.00">name :character varying</text>
<text text-anchor="start" x="682" y="-867.3" font-family="Times,serif" font-size="14.00">description :text</text>
<text text-anchor="start" x="682" y="-853.3" font-family="Times,serif" font-size="14.00">photo :character varying</text>
<text text-anchor="start" x="682" y="-839.3" font-family="Times,serif" font-size="14.00">price :integer</text>
<text text-anchor="start" x="682" y="-825.3" font-family="Times,serif" font-size="14.00">stock :integer</text>
<text text-anchor="start" x="682" y="-811.3" font-family="Times,serif" font-size="14.00">store_id :integer</text>
<text text-anchor="start" x="682" y="-797.3" font-family="Times,serif" font-size="14.00">created_at :timestamp without time zone</text>
<text text-anchor="start" x="682" y="-783.3" font-family="Times,serif" font-size="14.00">id :integer</text>
</g>
<!-- Product&#45;&gt;Comment -->
<g id="edge2" class="edge"><title>Product&#45;&gt;Comment</title>
<path fill="none" stroke="#81b197" d="M666.267,-776.542C665.799,-776.36 665.33,-776.179 664.862,-776 561.874,-736.614 491.531,-811.464 421.862,-726 350.16,-638.042 407.698,-291.996 437.619,-138.962"/>
<ellipse fill="none" stroke="#81b197" cx="670.167" cy="-778.118" rx="4.00001" ry="4.00001"/>
<polygon fill="#81b197" stroke="#81b197" points="437.703,-138.536 444.051,-129.595 438.669,-133.631 439.636,-128.725 439.636,-128.725 439.636,-128.725 438.669,-133.631 435.221,-127.855 437.703,-138.536 437.703,-138.536"/>
</g>
<!-- Product&#45;&gt;Like -->
<g id="edge3" class="edge"><title>Product&#45;&gt;Like</title>
<path fill="none" stroke="#4fd4cf" d="M802.724,-768.184C802.898,-760.012 802.961,-751.849 802.862,-744 799.515,-478.436 818.042,-409.373 776.862,-147 776.078,-142.001 775.138,-136.858 774.099,-131.702"/>
<ellipse fill="none" stroke="#4fd4cf" cx="802.616" cy="-772.348" rx="4" ry="4"/>
<polygon fill="#4fd4cf" stroke="#4fd4cf" points="774.075,-131.587 776.397,-120.87 773.035,-126.697 771.995,-121.806 771.995,-121.806 771.995,-121.806 773.035,-126.697 767.594,-122.742 774.075,-131.587 774.075,-131.587"/>
</g>
<!-- ProductWishlist -->
<g id="node7" class="node"><title>ProductWishlist</title>
<path fill="none" stroke="black" d="M12,-14.5C12,-14.5 235.725,-14.5 235.725,-14.5 241.725,-14.5 247.725,-20.5 247.725,-26.5 247.725,-26.5 247.725,-102.5 247.725,-102.5 247.725,-108.5 241.725,-114.5 235.725,-114.5 235.725,-114.5 12,-114.5 12,-114.5 6,-114.5 0,-108.5 0,-102.5 0,-102.5 0,-26.5 0,-26.5 0,-20.5 6,-14.5 12,-14.5"/>
<text text-anchor="middle" x="123.862" y="-99.3" font-family="Times,serif" font-size="14.00">ProductWishlist</text>
<polyline fill="none" stroke="black" points="0,-92.5 247.725,-92.5 "/>
<text text-anchor="start" x="8" y="-77.3" font-family="Times,serif" font-size="14.00">id :integer</text>
<text text-anchor="start" x="8" y="-63.3" font-family="Times,serif" font-size="14.00">product_id :integer</text>
<text text-anchor="start" x="8" y="-49.3" font-family="Times,serif" font-size="14.00">wishlist_id :integer</text>
<text text-anchor="start" x="8" y="-35.3" font-family="Times,serif" font-size="14.00">created_at :timestamp without time zone</text>
<text text-anchor="start" x="8" y="-21.3" font-family="Times,serif" font-size="14.00">updated_at :timestamp without time zone</text>
</g>
<!-- Product&#45;&gt;ProductWishlist -->
<g id="edge5" class="edge"><title>Product&#45;&gt;ProductWishlist</title>
<path fill="none" stroke="#75694a" d="M665.965,-776.338C665.598,-776.224 665.23,-776.112 664.862,-776 540.017,-738.091 167.005,-823.106 79.8623,-726 -72.899,-555.772 38.4519,-251.027 95.5889,-123.8"/>
<ellipse fill="none" stroke="#75694a" cx="669.894" cy="-777.64" rx="4.00001" ry="4.00001"/>
<polygon fill="#75694a" stroke="#75694a" points="95.6377,-123.693 103.869,-116.447 97.7047,-119.14 99.7717,-114.587 99.7717,-114.587 99.7717,-114.587 97.7047,-119.14 95.6742,-112.727 95.6377,-123.693 95.6377,-123.693"/>
</g>
<!-- User -->
<g id="node9" class="node"><title>User</title>
<path fill="none" stroke="black" d="M443.228,-387.5C443.228,-387.5 738.497,-387.5 738.497,-387.5 744.497,-387.5 750.497,-393.5 750.497,-399.5 750.497,-399.5 750.497,-713.5 750.497,-713.5 750.497,-719.5 744.497,-725.5 738.497,-725.5 738.497,-725.5 443.228,-725.5 443.228,-725.5 437.228,-725.5 431.228,-719.5 431.228,-713.5 431.228,-713.5 431.228,-399.5 431.228,-399.5 431.228,-393.5 437.228,-387.5 443.228,-387.5"/>
<text text-anchor="middle" x="590.862" y="-710.3" font-family="Times,serif" font-size="14.00">User</text>
<polyline fill="none" stroke="black" points="431.228,-703.5 750.497,-703.5 "/>
<text text-anchor="start" x="439.228" y="-688.3" font-family="Times,serif" font-size="14.00">cover_photo :character varying</text>
<text text-anchor="start" x="439.228" y="-674.3" font-family="Times,serif" font-size="14.00">email :character varying</text>
<text text-anchor="start" x="439.228" y="-660.3" font-family="Times,serif" font-size="14.00">encrypted_password :character varying</text>
<text text-anchor="start" x="439.228" y="-646.3" font-family="Times,serif" font-size="14.00">reset_password_token :character varying</text>
<text text-anchor="start" x="439.228" y="-632.3" font-family="Times,serif" font-size="14.00">reset_password_sent_at :timestamp without time zone</text>
<text text-anchor="start" x="439.228" y="-618.3" font-family="Times,serif" font-size="14.00">remember_created_at :timestamp without time zone</text>
<text text-anchor="start" x="439.228" y="-604.3" font-family="Times,serif" font-size="14.00">sign_in_count :integer</text>
<text text-anchor="start" x="439.228" y="-590.3" font-family="Times,serif" font-size="14.00">current_sign_in_at :timestamp without time zone</text>
<text text-anchor="start" x="439.228" y="-576.3" font-family="Times,serif" font-size="14.00">last_sign_in_at :timestamp without time zone</text>
<text text-anchor="start" x="439.228" y="-562.3" font-family="Times,serif" font-size="14.00">current_sign_in_ip :inet</text>
<text text-anchor="start" x="439.228" y="-548.3" font-family="Times,serif" font-size="14.00">last_sign_in_ip :inet</text>
<text text-anchor="start" x="439.228" y="-534.3" font-family="Times,serif" font-size="14.00">created_at :timestamp without time zone</text>
<text text-anchor="start" x="439.228" y="-520.3" font-family="Times,serif" font-size="14.00">updated_at :timestamp without time zone</text>
<text text-anchor="start" x="439.228" y="-506.3" font-family="Times,serif" font-size="14.00">provider :character varying</text>
<text text-anchor="start" x="439.228" y="-492.3" font-family="Times,serif" font-size="14.00">uid :character varying</text>
<text text-anchor="start" x="439.228" y="-478.3" font-family="Times,serif" font-size="14.00">name :character varying</text>
<text text-anchor="start" x="439.228" y="-464.3" font-family="Times,serif" font-size="14.00">phone_number :character varying</text>
<text text-anchor="start" x="439.228" y="-450.3" font-family="Times,serif" font-size="14.00">avatar :character varying</text>
<text text-anchor="start" x="439.228" y="-436.3" font-family="Times,serif" font-size="14.00">role :integer</text>
<text text-anchor="start" x="439.228" y="-422.3" font-family="Times,serif" font-size="14.00">gender :character varying</text>
<text text-anchor="start" x="439.228" y="-408.3" font-family="Times,serif" font-size="14.00">birthday :character varying</text>
<text text-anchor="start" x="439.228" y="-394.3" font-family="Times,serif" font-size="14.00">id :integer</text>
</g>
<!-- Product&#45;&gt;User -->
<g id="edge4" class="edge"><title>Product&#45;&gt;User</title>
<path fill="none" stroke="#1d3d4b" d="M716.093,-768.319C713.339,-764.881 710.663,-761.435 708.097,-758 702.304,-750.248 696.566,-742.187 690.925,-733.944"/>
<polygon fill="#1d3d4b" stroke="#1d3d4b" points="716.308,-768.582 719.167,-779.168 719.477,-772.449 722.647,-776.316 722.647,-776.316 722.647,-776.316 719.477,-772.449 726.127,-773.463 716.308,-768.582 716.308,-768.582"/>
<polygon fill="#1d3d4b" stroke="#1d3d4b" points="690.916,-733.931 689.047,-723.125 688.117,-729.787 685.318,-725.644 685.318,-725.644 685.318,-725.644 688.117,-729.787 681.589,-728.164 690.916,-733.931 690.916,-733.931"/>
<text text-anchor="middle" x="737.245" y="-746.8" font-family="Times,serif" font-size="14.00">user_likes</text>
</g>
<!-- Product&#45;&gt;Wishlist -->
<g id="edge6" class="edge"><title>Product&#45;&gt;Wishlist</title>
<path fill="none" stroke="#e988d6" d="M663.725,-776.845C606.566,-768.492 409.653,-777.771 388.862,-758 328.719,-700.806 378.887,-463.143 345.862,-387 334.743,-361.364 317.058,-336.908 298.903,-316.051"/>
<polygon fill="#e988d6" stroke="#e988d6" points="663.895,-776.88 672.773,-783.317 668.791,-777.896 673.687,-778.911 673.687,-778.911 673.687,-778.911 668.791,-777.896 674.601,-774.505 663.895,-776.88 663.895,-776.88"/>
<polygon fill="#e988d6" stroke="#e988d6" points="298.857,-316 295.564,-305.54 295.531,-312.267 292.204,-308.534 292.204,-308.534 292.204,-308.534 295.531,-312.267 288.845,-311.528 298.857,-316 298.857,-316"/>
</g>
<!-- ActsAsTaggableOn::Tagging -->
<g id="node11" class="node"><title>ActsAsTaggableOn::Tagging</title>
<ellipse fill="none" stroke="black" cx="957.862" cy="-556.5" rx="113.006" ry="18"/>
<text text-anchor="middle" x="957.862" y="-552.3" font-family="Times,serif" font-size="14.00">ActsAsTaggableOn::Tagging</text>
</g>
<!-- Product&#45;&gt;ActsAsTaggableOn::Tagging -->
<g id="edge7" class="edge"><title>Product&#45;&gt;ActsAsTaggableOn::Tagging</title>
<path fill="none" stroke="#70b359" d="M843.649,-768.795C877.577,-706.029 921.62,-624.548 943.794,-583.526"/>
<ellipse fill="none" stroke="#70b359" cx="841.594" cy="-772.597" rx="4.00002" ry="4.00002"/>
<polygon fill="#70b359" stroke="#70b359" points="943.934,-583.268 952.648,-576.61 946.311,-578.869 948.689,-574.471 948.689,-574.471 948.689,-574.471 946.311,-578.869 944.73,-572.331 943.934,-583.268 943.934,-583.268"/>
<text text-anchor="middle" x="878.583" y="-746.8" font-family="Times,serif" font-size="14.00">taggings</text>
</g>
<!-- Product&#45;&gt;ActsAsTaggableOn::Tagging -->
<g id="edge9" class="edge"><title>Product&#45;&gt;ActsAsTaggableOn::Tagging</title>
<path fill="none" stroke="#bf4de5" d="M897.818,-769.86C900.692,-765.989 903.389,-762.032 905.862,-758 939.881,-702.545 951.788,-625.337 955.846,-584.816"/>
<ellipse fill="none" stroke="#bf4de5" cx="895.277" cy="-773.133" rx="4.00002" ry="4.00002"/>
<polygon fill="#bf4de5" stroke="#bf4de5" points="955.866,-584.6 961.256,-575.05 956.32,-579.62 956.775,-574.641 956.775,-574.641 956.775,-574.641 956.32,-579.62 952.294,-574.232 955.866,-584.6 955.866,-584.6"/>
<text text-anchor="middle" x="946.635" y="-746.8" font-family="Times,serif" font-size="14.00">tag_taggings</text>
</g>
<!-- ActsAsTaggableOn::Tag -->
<g id="node12" class="node"><title>ActsAsTaggableOn::Tag</title>
<ellipse fill="none" stroke="black" cx="1185.86" cy="-556.5" rx="97.0617" ry="18"/>
<text text-anchor="middle" x="1185.86" y="-552.3" font-family="Times,serif" font-size="14.00">ActsAsTaggableOn::Tag</text>
</g>
<!-- Product&#45;&gt;ActsAsTaggableOn::Tag -->
<g id="edge8" class="edge"><title>Product&#45;&gt;ActsAsTaggableOn::Tag</title>
<path fill="none" stroke="#b398e6" d="M931.105,-811.833C981.546,-791.54 1037.06,-763.308 1079.86,-726 1126.06,-685.73 1159.12,-620.4 1175.07,-584.05"/>
<polygon fill="#b398e6" stroke="#b398e6" points="931.05,-811.855 920.096,-811.345 926.4,-813.692 921.75,-815.53 921.75,-815.53 921.75,-815.53 926.4,-813.692 923.404,-819.715 931.05,-811.855 931.05,-811.855"/>
<polygon fill="#b398e6" stroke="#b398e6" points="1175.18,-583.803 1183.25,-576.382 1177.15,-579.207 1179.12,-574.611 1179.12,-574.611 1179.12,-574.611 1177.15,-579.207 1174.98,-572.839 1175.18,-583.803 1175.18,-583.803"/>
<text text-anchor="middle" x="1080.08" y="-746.8" font-family="Times,serif" font-size="14.00">base_tags</text>
</g>
<!-- Product&#45;&gt;ActsAsTaggableOn::Tag -->
<g id="edge10" class="edge"><title>Product&#45;&gt;ActsAsTaggableOn::Tag</title>
<path fill="none" stroke="#952481" d="M932.042,-839.797C993.185,-827.286 1062.53,-803.431 1110.86,-758 1160.79,-711.068 1177.7,-627.737 1183.26,-584.781"/>
<polygon fill="#952481" stroke="#952481" points="931.726,-839.859 921.047,-837.366 926.819,-840.82 921.912,-841.782 921.912,-841.782 921.912,-841.782 926.819,-840.82 922.778,-846.198 931.726,-839.859 931.726,-839.859"/>
<polygon fill="#952481" stroke="#952481" points="1183.27,-584.708 1188.91,-575.305 1183.85,-579.742 1184.44,-574.777 1184.44,-574.777 1184.44,-574.777 1183.85,-579.742 1179.97,-574.249 1183.27,-584.708 1183.27,-584.708"/>
<text text-anchor="middle" x="1133.14" y="-746.8" font-family="Times,serif" font-size="14.00">tags</text>
</g>
<!-- Store -->
<g id="node8" class="node"><title>Store</title>
<path fill="none" stroke="black" d="M493,-166.5C493,-166.5 716.725,-166.5 716.725,-166.5 722.725,-166.5 728.725,-172.5 728.725,-178.5 728.725,-178.5 728.725,-324.5 728.725,-324.5 728.725,-330.5 722.725,-336.5 716.725,-336.5 716.725,-336.5 493,-336.5 493,-336.5 487,-336.5 481,-330.5 481,-324.5 481,-324.5 481,-178.5 481,-178.5 481,-172.5 487,-166.5 493,-166.5"/>
<text text-anchor="middle" x="604.862" y="-321.3" font-family="Times,serif" font-size="14.00">Store</text>
<polyline fill="none" stroke="black" points="481,-314.5 728.725,-314.5 "/>
<text text-anchor="start" x="489" y="-299.3" font-family="Times,serif" font-size="14.00">updated_at :timestamp without time zone</text>
<text text-anchor="start" x="489" y="-285.3" font-family="Times,serif" font-size="14.00">name :character varying</text>
<text text-anchor="start" x="489" y="-271.3" font-family="Times,serif" font-size="14.00">description :text</text>
<text text-anchor="start" x="489" y="-257.3" font-family="Times,serif" font-size="14.00">photo :character varying</text>
<text text-anchor="start" x="489" y="-243.3" font-family="Times,serif" font-size="14.00">cover_photo :character varying</text>
<text text-anchor="start" x="489" y="-229.3" font-family="Times,serif" font-size="14.00">facebook_link :character varying</text>
<text text-anchor="start" x="489" y="-215.3" font-family="Times,serif" font-size="14.00">instagram_link :character varying</text>
<text text-anchor="start" x="489" y="-201.3" font-family="Times,serif" font-size="14.00">user_id :integer</text>
<text text-anchor="start" x="489" y="-187.3" font-family="Times,serif" font-size="14.00">created_at :timestamp without time zone</text>
<text text-anchor="start" x="489" y="-173.3" font-family="Times,serif" font-size="14.00">id :integer</text>
</g>
<!-- Store&#45;&gt;Comment -->
<g id="edge12" class="edge"><title>Store&#45;&gt;Comment</title>
<path fill="none" stroke="#d0740b" d="M530.612,-160.129C524.187,-152.309 517.745,-144.469 511.47,-136.832"/>
<ellipse fill="none" stroke="#d0740b" cx="533.217" cy="-163.3" rx="4.00002" ry="4.00002"/>
<polygon fill="#d0740b" stroke="#d0740b" points="511.084,-136.362 508.213,-125.779 507.91,-132.499 504.736,-128.635 504.736,-128.635 504.736,-128.635 507.91,-132.499 501.259,-131.492 511.084,-136.362 511.084,-136.362"/>
</g>
<!-- Store&#45;&gt;Like -->
<g id="edge13" class="edge"><title>Store&#45;&gt;Like</title>
<path fill="none" stroke="#b21af3" d="M679.24,-159.975C687.725,-149.648 696.237,-139.288 704.352,-129.41"/>
<ellipse fill="none" stroke="#b21af3" cx="676.508" cy="-163.3" rx="4.00002" ry="4.00002"/>
<polygon fill="#b21af3" stroke="#b21af3" points="704.419,-129.328 714.245,-124.459 707.594,-125.465 710.768,-121.602 710.768,-121.602 710.768,-121.602 707.594,-125.465 707.291,-118.745 704.419,-129.328 704.419,-129.328"/>
</g>
<!-- Store&#45;&gt;Product -->
<g id="edge11" class="edge"><title>Store&#45;&gt;Product</title>
<path fill="none" stroke="#0f2a53" d="M728.902,-342.85C741.058,-356.372 751.837,-371.15 759.862,-387 792.33,-451.126 798.071,-649.404 798.519,-765.797"/>
<ellipse fill="none" stroke="#0f2a53" cx="725.944" cy="-339.659" rx="4.00002" ry="4.00002"/>
<polygon fill="#0f2a53" stroke="#0f2a53" points="798.52,-766.106 794.046,-776.118 798.533,-771.106 798.546,-776.106 798.546,-776.106 798.546,-776.106 798.533,-771.106 803.046,-776.094 798.52,-766.106 798.52,-766.106"/>
</g>
<!-- Store&#45;&gt;User -->
<g id="edge14" class="edge"><title>Store&#45;&gt;User</title>
<path fill="none" stroke="#a4220f" d="M600.508,-346.745C600.056,-356.52 599.587,-366.669 599.11,-376.99"/>
<polygon fill="#a4220f" stroke="#a4220f" points="600.51,-346.69 605.467,-336.909 600.741,-341.696 600.972,-336.701 600.972,-336.701 600.972,-336.701 600.741,-341.696 596.477,-336.493 600.51,-346.69 600.51,-346.69"/>
<polygon fill="#a4220f" stroke="#a4220f" points="599.102,-377.175 594.145,-386.957 598.871,-382.17 598.64,-387.165 598.64,-387.165 598.64,-387.165 598.871,-382.17 603.135,-387.372 599.102,-377.175 599.102,-377.175"/>
<text text-anchor="middle" x="629.245" y="-357.8" font-family="Times,serif" font-size="14.00">user_likes</text>
</g>
<!-- User&#45;&gt;Comment -->
<g id="edge17" class="edge"><title>User&#45;&gt;Comment</title>
<path fill="none" stroke="#53e18f" d="M487.145,-379.947C481.253,-365.711 476.041,-351.299 471.862,-337 452.805,-271.781 449.163,-194.166 449.63,-138.659"/>
<ellipse fill="none" stroke="#53e18f" cx="488.728" cy="-383.689" rx="4.00002" ry="4.00002"/>
<polygon fill="#53e18f" stroke="#53e18f" points="449.631,-138.559 454.262,-128.619 449.697,-133.559 449.763,-128.56 449.763,-128.56 449.763,-128.56 449.697,-133.559 445.263,-128.501 449.631,-138.559 449.631,-138.559"/>
</g>
<!-- User&#45;&gt;Like -->
<g id="edge16" class="edge"><title>User&#45;&gt;Like</title>
<path fill="none" stroke="#27f703" d="M719.735,-379.974C726.72,-365.854 732.895,-351.452 737.862,-337 760.959,-269.798 763.476,-187.856 761.622,-131.684"/>
<ellipse fill="none" stroke="#27f703" cx="717.818" cy="-383.762" rx="4.00002" ry="4.00002"/>
<polygon fill="#27f703" stroke="#27f703" points="761.615,-131.497 765.725,-121.331 761.422,-126.501 761.229,-121.505 761.229,-121.505 761.229,-121.505 761.422,-126.501 756.732,-121.679 761.615,-131.497 761.615,-131.497"/>
</g>
<!-- User&#45;&gt;Store -->
<g id="edge15" class="edge"><title>User&#45;&gt;Store</title>
<path fill="none" stroke="#6190f3" d="M594.645,-379.099C595.013,-370.951 595.418,-362.887 595.862,-355 596.052,-351.639 596.262,-348.218 596.489,-344.763"/>
<ellipse fill="none" stroke="#6190f3" cx="594.462" cy="-383.274" rx="4" ry="4"/>
<ellipse fill="#6190f3" stroke="#6190f3" cx="596.772" cy="-340.644" rx="4" ry="4"/>
</g>
<!-- User&#45;&gt;Wishlist -->
<g id="edge18" class="edge"><title>User&#45;&gt;Wishlist</title>
<path fill="none" stroke="#831466" d="M424.967,-394.263C409.634,-380.691 394.123,-367.422 378.862,-355 362.018,-341.289 343.429,-327.434 325.3,-314.533"/>
<ellipse fill="none" stroke="#831466" cx="428.074" cy="-397.025" rx="4.00002" ry="4.00002"/>
<polygon fill="#831466" stroke="#831466" points="325.178,-314.446 319.608,-305.001 321.095,-311.561 317.011,-308.676 317.011,-308.676 317.011,-308.676 321.095,-311.561 314.414,-312.351 325.178,-314.446 325.178,-314.446"/>
</g>
<!-- Wishlist&#45;&gt;ProductWishlist -->
<g id="edge19" class="edge"><title>Wishlist&#45;&gt;ProductWishlist</title>
<path fill="none" stroke="#23b359" d="M195.108,-187.542C183.016,-166.828 169.635,-143.907 157.765,-123.573"/>
<ellipse fill="none" stroke="#23b359" cx="197.149" cy="-191.037" rx="4.00002" ry="4.00002"/>
<polygon fill="#23b359" stroke="#23b359" points="157.645,-123.368 156.489,-112.463 155.124,-119.05 152.603,-114.732 152.603,-114.732 152.603,-114.732 155.124,-119.05 148.717,-117.001 157.645,-123.368 157.645,-123.368"/>
</g>
</g>
</svg>
