<?xml version="1.0" encoding="UTF-8" standalone="no"?>
<!DOCTYPE svg PUBLIC "-//W3C//DTD SVG 1.1//EN"
 "http://www.w3.org/Graphics/SVG/1.1/DTD/svg11.dtd">
<!-- Generated by graphviz version 2.38.0 (20140413.2041)
 -->
<!-- Title: models_diagram Pages: 1 -->
<svg width="897pt" height="1035pt"
 viewBox="0.00 0.00 896.55 1035.00" xmlns="http://www.w3.org/2000/svg" xmlns:xlink="http://www.w3.org/1999/xlink">
<g id="graph0" class="graph" transform="scale(1 1) rotate(0) translate(4 1031)">
<title>models_diagram</title>
<polygon fill="none" stroke="none" points="-4,4 -4,-1031 892.55,-1031 892.55,4 -4,4"/>
<!-- _diagram_info -->
<g id="node1" class="node"><title>_diagram_info</title>
<text text-anchor="start" x="8" y="-886.6" font-family="Times,serif" font-size="13.00">Models diagram</text>
<text text-anchor="start" x="8" y="-873.6" font-family="Times,serif" font-size="13.00">Date: May 01 2016 &#45; 23:43</text>
<text text-anchor="start" x="8" y="-860.6" font-family="Times,serif" font-size="13.00">Migration version: 20160502001617</text>
<text text-anchor="start" x="8" y="-847.6" font-family="Times,serif" font-size="13.00">Generated by RailRoady 1.4.2</text>
<text text-anchor="start" x="8" y="-834.6" font-family="Times,serif" font-size="13.00">http://railroady.prestonlee.com</text>
</g>
<!-- Comment -->
<g id="node2" class="node"><title>Comment</title>
<path fill="none" stroke="black" d="M82.8254,-137.5C82.8254,-137.5 306.55,-137.5 306.55,-137.5 312.55,-137.5 318.55,-143.5 318.55,-149.5 318.55,-149.5 318.55,-253.5 318.55,-253.5 318.55,-259.5 312.55,-265.5 306.55,-265.5 306.55,-265.5 82.8254,-265.5 82.8254,-265.5 76.8254,-265.5 70.8254,-259.5 70.8254,-253.5 70.8254,-253.5 70.8254,-149.5 70.8254,-149.5 70.8254,-143.5 76.8254,-137.5 82.8254,-137.5"/>
<text text-anchor="middle" x="194.688" y="-250.3" font-family="Times,serif" font-size="14.00">Comment</text>
<polyline fill="none" stroke="black" points="70.8254,-243.5 318.55,-243.5 "/>
<text text-anchor="start" x="78.8254" y="-228.3" font-family="Times,serif" font-size="14.00">content :text</text>
<text text-anchor="start" x="78.8254" y="-214.3" font-family="Times,serif" font-size="14.00">commentable_id :integer</text>
<text text-anchor="start" x="78.8254" y="-200.3" font-family="Times,serif" font-size="14.00">commentable_type :character varying</text>
<text text-anchor="start" x="78.8254" y="-186.3" font-family="Times,serif" font-size="14.00">id :integer</text>
<text text-anchor="start" x="78.8254" y="-172.3" font-family="Times,serif" font-size="14.00">user_id :integer</text>
<text text-anchor="start" x="78.8254" y="-158.3" font-family="Times,serif" font-size="14.00">created_at :timestamp without time zone</text>
<text text-anchor="start" x="78.8254" y="-144.3" font-family="Times,serif" font-size="14.00">updated_at :timestamp without time zone</text>
</g>
<!-- Like -->
<g id="node3" class="node"><title>Like</title>
<path fill="none" stroke="black" d="M348.825,-144.5C348.825,-144.5 572.55,-144.5 572.55,-144.5 578.55,-144.5 584.55,-150.5 584.55,-156.5 584.55,-156.5 584.55,-246.5 584.55,-246.5 584.55,-252.5 578.55,-258.5 572.55,-258.5 572.55,-258.5 348.825,-258.5 348.825,-258.5 342.825,-258.5 336.825,-252.5 336.825,-246.5 336.825,-246.5 336.825,-156.5 336.825,-156.5 336.825,-150.5 342.825,-144.5 348.825,-144.5"/>
<text text-anchor="middle" x="460.688" y="-243.3" font-family="Times,serif" font-size="14.00">Like</text>
<polyline fill="none" stroke="black" points="336.825,-236.5 584.55,-236.5 "/>
<text text-anchor="start" x="344.825" y="-221.3" font-family="Times,serif" font-size="14.00">id :integer</text>
<text text-anchor="start" x="344.825" y="-207.3" font-family="Times,serif" font-size="14.00">likeable_id :integer</text>
<text text-anchor="start" x="344.825" y="-193.3" font-family="Times,serif" font-size="14.00">likeable_type :character varying</text>
<text text-anchor="start" x="344.825" y="-179.3" font-family="Times,serif" font-size="14.00">user_id :integer</text>
<text text-anchor="start" x="344.825" y="-165.3" font-family="Times,serif" font-size="14.00">created_at :timestamp without time zone</text>
<text text-anchor="start" x="344.825" y="-151.3" font-family="Times,serif" font-size="14.00">updated_at :timestamp without time zone</text>
</g>
<!-- Product -->
<g id="node4" class="node"><title>Product</title>
<path fill="none" stroke="black" d="M424.825,-302.5C424.825,-302.5 648.55,-302.5 648.55,-302.5 654.55,-302.5 660.55,-308.5 660.55,-314.5 660.55,-314.5 660.55,-446.5 660.55,-446.5 660.55,-452.5 654.55,-458.5 648.55,-458.5 648.55,-458.5 424.825,-458.5 424.825,-458.5 418.825,-458.5 412.825,-452.5 412.825,-446.5 412.825,-446.5 412.825,-314.5 412.825,-314.5 412.825,-308.5 418.825,-302.5 424.825,-302.5"/>
<text text-anchor="middle" x="536.688" y="-443.3" font-family="Times,serif" font-size="14.00">Product</text>
<polyline fill="none" stroke="black" points="412.825,-436.5 660.55,-436.5 "/>
<text text-anchor="start" x="420.825" y="-421.3" font-family="Times,serif" font-size="14.00">updated_at :timestamp without time zone</text>
<text text-anchor="start" x="420.825" y="-407.3" font-family="Times,serif" font-size="14.00">name :character varying</text>
<text text-anchor="start" x="420.825" y="-393.3" font-family="Times,serif" font-size="14.00">description :text</text>
<text text-anchor="start" x="420.825" y="-379.3" font-family="Times,serif" font-size="14.00">photo :character varying</text>
<text text-anchor="start" x="420.825" y="-365.3" font-family="Times,serif" font-size="14.00">price :integer</text>
<text text-anchor="start" x="420.825" y="-351.3" font-family="Times,serif" font-size="14.00">stock :integer</text>
<text text-anchor="start" x="420.825" y="-337.3" font-family="Times,serif" font-size="14.00">store_id :integer</text>
<text text-anchor="start" x="420.825" y="-323.3" font-family="Times,serif" font-size="14.00">created_at :timestamp without time zone</text>
<text text-anchor="start" x="420.825" y="-309.3" font-family="Times,serif" font-size="14.00">id :integer</text>
</g>
<!-- Product&#45;&gt;Comment -->
<g id="edge1" class="edge"><title>Product&#45;&gt;Comment</title>
<path fill="none" stroke="#a0bfd3" d="M405.347,-311.525C379.223,-298.005 351.791,-283.808 325.679,-270.294"/>
<ellipse fill="none" stroke="#a0bfd3" cx="409.182" cy="-313.51" rx="4.00002" ry="4.00002"/>
<polygon fill="#a0bfd3" stroke="#a0bfd3" points="325.383,-270.141 318.57,-261.548 320.943,-267.842 316.502,-265.544 316.502,-265.544 316.502,-265.544 320.943,-267.842 314.434,-269.541 325.383,-270.141 325.383,-270.141"/>
</g>
<!-- Product&#45;&gt;Like -->
<g id="edge2" class="edge"><title>Product&#45;&gt;Like</title>
<path fill="none" stroke="#f00399" d="M500.303,-294.761C496.434,-285.75 492.542,-276.687 488.789,-267.947"/>
<ellipse fill="none" stroke="#f00399" cx="501.996" cy="-298.705" rx="4.00002" ry="4.00002"/>
<polygon fill="#f00399" stroke="#f00399" points="488.724,-267.795 488.914,-256.831 486.751,-263.201 484.779,-258.606 484.779,-258.606 484.779,-258.606 486.751,-263.201 480.644,-260.382 488.724,-267.795 488.724,-267.795"/>
</g>
<!-- ProductTag -->
<g id="node5" class="node"><title>ProductTag</title>
<path fill="none" stroke="black" d="M576.825,-0.5C576.825,-0.5 800.55,-0.5 800.55,-0.5 806.55,-0.5 812.55,-6.5 812.55,-12.5 812.55,-12.5 812.55,-88.5 812.55,-88.5 812.55,-94.5 806.55,-100.5 800.55,-100.5 800.55,-100.5 576.825,-100.5 576.825,-100.5 570.825,-100.5 564.825,-94.5 564.825,-88.5 564.825,-88.5 564.825,-12.5 564.825,-12.5 564.825,-6.5 570.825,-0.5 576.825,-0.5"/>
<text text-anchor="middle" x="688.688" y="-85.3" font-family="Times,serif" font-size="14.00">ProductTag</text>
<polyline fill="none" stroke="black" points="564.825,-78.5 812.55,-78.5 "/>
<text text-anchor="start" x="572.825" y="-63.3" font-family="Times,serif" font-size="14.00">id :integer</text>
<text text-anchor="start" x="572.825" y="-49.3" font-family="Times,serif" font-size="14.00">product_id :integer</text>
<text text-anchor="start" x="572.825" y="-35.3" font-family="Times,serif" font-size="14.00">tag_id :integer</text>
<text text-anchor="start" x="572.825" y="-21.3" font-family="Times,serif" font-size="14.00">created_at :timestamp without time zone</text>
<text text-anchor="start" x="572.825" y="-7.3" font-family="Times,serif" font-size="14.00">updated_at :timestamp without time zone</text>
</g>
<!-- Product&#45;&gt;ProductTag -->
<g id="edge3" class="edge"><title>Product&#45;&gt;ProductTag</title>
<path fill="none" stroke="#5a0eea" d="M581.132,-295.109C585.624,-285.404 589.914,-275.561 593.688,-266 615.632,-210.405 606.379,-191.146 631.688,-137 636.038,-127.692 641.317,-118.244 646.885,-109.192"/>
<ellipse fill="none" stroke="#5a0eea" cx="579.363" cy="-298.875" rx="4.00002" ry="4.00002"/>
<polygon fill="#5a0eea" stroke="#5a0eea" points="646.943,-109.1 656.093,-103.057 649.617,-104.875 652.291,-100.65 652.291,-100.65 652.291,-100.65 649.617,-104.875 648.489,-98.2435 646.943,-109.1 646.943,-109.1"/>
</g>
<!-- Tag -->
<g id="node7" class="node"><title>Tag</title>
<path fill="none" stroke="black" d="M652.825,-158.5C652.825,-158.5 876.55,-158.5 876.55,-158.5 882.55,-158.5 888.55,-164.5 888.55,-170.5 888.55,-170.5 888.55,-232.5 888.55,-232.5 888.55,-238.5 882.55,-244.5 876.55,-244.5 876.55,-244.5 652.825,-244.5 652.825,-244.5 646.825,-244.5 640.825,-238.5 640.825,-232.5 640.825,-232.5 640.825,-170.5 640.825,-170.5 640.825,-164.5 646.825,-158.5 652.825,-158.5"/>
<text text-anchor="middle" x="764.688" y="-229.3" font-family="Times,serif" font-size="14.00">Tag</text>
<polyline fill="none" stroke="black" points="640.825,-222.5 888.55,-222.5 "/>
<text text-anchor="start" x="648.825" y="-207.3" font-family="Times,serif" font-size="14.00">id :integer</text>
<text text-anchor="start" x="648.825" y="-193.3" font-family="Times,serif" font-size="14.00">name :character varying</text>
<text text-anchor="start" x="648.825" y="-179.3" font-family="Times,serif" font-size="14.00">created_at :timestamp without time zone</text>
<text text-anchor="start" x="648.825" y="-165.3" font-family="Times,serif" font-size="14.00">updated_at :timestamp without time zone</text>
</g>
<!-- Product&#45;&gt;Tag -->
<g id="edge4" class="edge"><title>Product&#45;&gt;Tag</title>
<path fill="none" stroke="#65d448" d="M644.143,-296.081C664.09,-280.596 684.304,-264.903 702.333,-250.907"/>
<polygon fill="#65d448" stroke="#65d448" points="643.928,-296.248 633.269,-298.826 639.978,-299.314 636.029,-302.38 636.029,-302.38 636.029,-302.38 639.978,-299.314 638.788,-305.935 643.928,-296.248 643.928,-296.248"/>
<polygon fill="#65d448" stroke="#65d448" points="702.555,-250.735 713.213,-248.157 706.504,-247.669 710.454,-244.603 710.454,-244.603 710.454,-244.603 706.504,-247.669 707.694,-241.048 702.555,-250.735 702.555,-250.735"/>
</g>
<!-- Store -->
<g id="node6" class="node"><title>Store</title>
<path fill="none" stroke="black" d="M272.825,-495.5C272.825,-495.5 496.55,-495.5 496.55,-495.5 502.55,-495.5 508.55,-501.5 508.55,-507.5 508.55,-507.5 508.55,-653.5 508.55,-653.5 508.55,-659.5 502.55,-665.5 496.55,-665.5 496.55,-665.5 272.825,-665.5 272.825,-665.5 266.825,-665.5 260.825,-659.5 260.825,-653.5 260.825,-653.5 260.825,-507.5 260.825,-507.5 260.825,-501.5 266.825,-495.5 272.825,-495.5"/>
<text text-anchor="middle" x="384.688" y="-650.3" font-family="Times,serif" font-size="14.00">Store</text>
<polyline fill="none" stroke="black" points="260.825,-643.5 508.55,-643.5 "/>
<text text-anchor="start" x="268.825" y="-628.3" font-family="Times,serif" font-size="14.00">updated_at :timestamp without time zone</text>
<text text-anchor="start" x="268.825" y="-614.3" font-family="Times,serif" font-size="14.00">name :character varying</text>
<text text-anchor="start" x="268.825" y="-600.3" font-family="Times,serif" font-size="14.00">description :text</text>
<text text-anchor="start" x="268.825" y="-586.3" font-family="Times,serif" font-size="14.00">photo :character varying</text>
<text text-anchor="start" x="268.825" y="-572.3" font-family="Times,serif" font-size="14.00">cover_photo :character varying</text>
<text text-anchor="start" x="268.825" y="-558.3" font-family="Times,serif" font-size="14.00">facebook_link :character varying</text>
<text text-anchor="start" x="268.825" y="-544.3" font-family="Times,serif" font-size="14.00">instagram_link :character varying</text>
<text text-anchor="start" x="268.825" y="-530.3" font-family="Times,serif" font-size="14.00">user_id :integer</text>
<text text-anchor="start" x="268.825" y="-516.3" font-family="Times,serif" font-size="14.00">created_at :timestamp without time zone</text>
<text text-anchor="start" x="268.825" y="-502.3" font-family="Times,serif" font-size="14.00">id :integer</text>
</g>
<!-- Store&#45;&gt;Comment -->
<g id="edge6" class="edge"><title>Store&#45;&gt;Comment</title>
<path fill="none" stroke="#8cc717" d="M338.537,-487.928C305.503,-422.381 261.643,-335.354 231.074,-274.698"/>
<ellipse fill="none" stroke="#8cc717" cx="340.484" cy="-491.791" rx="4.00002" ry="4.00002"/>
<polygon fill="#8cc717" stroke="#8cc717" points="230.975,-274.502 230.493,-263.547 228.725,-270.037 226.475,-265.572 226.475,-265.572 226.475,-265.572 228.725,-270.037 222.456,-267.597 230.975,-274.502 230.975,-274.502"/>
</g>
<!-- Store&#45;&gt;Like -->
<g id="edge7" class="edge"><title>Store&#45;&gt;Like</title>
<path fill="none" stroke="#7dbdc5" d="M380.733,-487.152C380.892,-432.261 385.535,-361.892 403.688,-302 407.184,-290.465 412.215,-278.82 417.859,-267.763"/>
<ellipse fill="none" stroke="#7dbdc5" cx="380.738" cy="-491.479" rx="4" ry="4"/>
<polygon fill="#7dbdc5" stroke="#7dbdc5" points="418.023,-267.455 426.696,-260.744 420.374,-263.042 422.724,-258.628 422.724,-258.628 422.724,-258.628 420.374,-263.042 418.752,-256.513 418.023,-267.455 418.023,-267.455"/>
</g>
<!-- Store&#45;&gt;Product -->
<g id="edge5" class="edge"><title>Store&#45;&gt;Product</title>
<path fill="none" stroke="#2cba78" d="M454.398,-488.693C459.915,-481.507 465.476,-474.263 470.964,-467.113"/>
<ellipse fill="none" stroke="#2cba78" cx="451.806" cy="-492.07" rx="4.00002" ry="4.00002"/>
<polygon fill="#2cba78" stroke="#2cba78" points="471.277,-466.706 480.936,-461.514 474.322,-462.74 477.367,-458.774 477.367,-458.774 477.367,-458.774 474.322,-462.74 473.797,-456.033 471.277,-466.706 471.277,-466.706"/>
</g>
<!-- Tag&#45;&gt;ProductTag -->
<g id="edge8" class="edge"><title>Tag&#45;&gt;ProductTag</title>
<path fill="none" stroke="#987cea" d="M739.399,-150.921C732.709,-137.805 725.425,-123.525 718.519,-109.985"/>
<ellipse fill="none" stroke="#987cea" cx="741.295" cy="-154.638" rx="4.00002" ry="4.00002"/>
<polygon fill="#987cea" stroke="#987cea" points="718.354,-109.661 717.819,-98.7081 716.082,-105.207 713.81,-100.753 713.81,-100.753 713.81,-100.753 716.082,-105.207 709.801,-102.797 718.354,-109.661 718.354,-109.661"/>
</g>
<!-- User -->
<g id="node8" class="node"><title>User</title>
<path fill="none" stroke="black" d="M237.053,-702.5C237.053,-702.5 532.323,-702.5 532.323,-702.5 538.323,-702.5 544.323,-708.5 544.323,-714.5 544.323,-714.5 544.323,-1014.5 544.323,-1014.5 544.323,-1020.5 538.323,-1026.5 532.323,-1026.5 532.323,-1026.5 237.053,-1026.5 237.053,-1026.5 231.053,-1026.5 225.053,-1020.5 225.053,-1014.5 225.053,-1014.5 225.053,-714.5 225.053,-714.5 225.053,-708.5 231.053,-702.5 237.053,-702.5"/>
<text text-anchor="middle" x="384.688" y="-1011.3" font-family="Times,serif" font-size="14.00">User</text>
<polyline fill="none" stroke="black" points="225.053,-1004.5 544.323,-1004.5 "/>
<text text-anchor="start" x="233.053" y="-989.3" font-family="Times,serif" font-size="14.00">gender :integer</text>
<text text-anchor="start" x="233.053" y="-975.3" font-family="Times,serif" font-size="14.00">email :character varying</text>
<text text-anchor="start" x="233.053" y="-961.3" font-family="Times,serif" font-size="14.00">encrypted_password :character varying</text>
<text text-anchor="start" x="233.053" y="-947.3" font-family="Times,serif" font-size="14.00">reset_password_token :character varying</text>
<text text-anchor="start" x="233.053" y="-933.3" font-family="Times,serif" font-size="14.00">reset_password_sent_at :timestamp without time zone</text>
<text text-anchor="start" x="233.053" y="-919.3" font-family="Times,serif" font-size="14.00">remember_created_at :timestamp without time zone</text>
<text text-anchor="start" x="233.053" y="-905.3" font-family="Times,serif" font-size="14.00">sign_in_count :integer</text>
<text text-anchor="start" x="233.053" y="-891.3" font-family="Times,serif" font-size="14.00">current_sign_in_at :timestamp without time zone</text>
<text text-anchor="start" x="233.053" y="-877.3" font-family="Times,serif" font-size="14.00">last_sign_in_at :timestamp without time zone</text>
<text text-anchor="start" x="233.053" y="-863.3" font-family="Times,serif" font-size="14.00">current_sign_in_ip :inet</text>
<text text-anchor="start" x="233.053" y="-849.3" font-family="Times,serif" font-size="14.00">last_sign_in_ip :inet</text>
<text text-anchor="start" x="233.053" y="-835.3" font-family="Times,serif" font-size="14.00">created_at :timestamp without time zone</text>
<text text-anchor="start" x="233.053" y="-821.3" font-family="Times,serif" font-size="14.00">updated_at :timestamp without time zone</text>
<text text-anchor="start" x="233.053" y="-807.3" font-family="Times,serif" font-size="14.00">provider :character varying</text>
<text text-anchor="start" x="233.053" y="-793.3" font-family="Times,serif" font-size="14.00">uid :character varying</text>
<text text-anchor="start" x="233.053" y="-779.3" font-family="Times,serif" font-size="14.00">name :character varying</text>
<text text-anchor="start" x="233.053" y="-765.3" font-family="Times,serif" font-size="14.00">last_name :character varying</text>
<text text-anchor="start" x="233.053" y="-751.3" font-family="Times,serif" font-size="14.00">age :integer</text>
<text text-anchor="start" x="233.053" y="-737.3" font-family="Times,serif" font-size="14.00">phone_number :character varying</text>
<text text-anchor="start" x="233.053" y="-723.3" font-family="Times,serif" font-size="14.00">avatar :character varying</text>
<text text-anchor="start" x="233.053" y="-709.3" font-family="Times,serif" font-size="14.00">id :integer</text>
</g>
<!-- User&#45;&gt;Store -->
<g id="edge9" class="edge"><title>User&#45;&gt;Store</title>
<path fill="none" stroke="#83bf5b" d="M384.688,-694.098C384.688,-687.248 384.688,-680.492 384.688,-673.898"/>
<ellipse fill="none" stroke="#83bf5b" cx="384.688" cy="-698.321" rx="4" ry="4"/>
<ellipse fill="#83bf5b" stroke="#83bf5b" cx="384.688" cy="-669.636" rx="4" ry="4"/>
</g>
</g>
</svg>
