<?xml version="1.0" encoding="UTF-8" standalone="no"?>
<!DOCTYPE svg PUBLIC "-//W3C//DTD SVG 1.1//EN"
 "http://www.w3.org/Graphics/SVG/1.1/DTD/svg11.dtd">
<!-- Generated by graphviz version 2.38.0 (20140413.2041)
 -->
<!-- Title: models_diagram Pages: 1 -->
<svg width="813pt" height="326pt"
 viewBox="0.00 0.00 813.27 326.00" xmlns="http://www.w3.org/2000/svg" xmlns:xlink="http://www.w3.org/1999/xlink">
<g id="graph0" class="graph" transform="scale(1 1) rotate(0) translate(4 322)">
<title>models_diagram</title>
<polygon fill="none" stroke="none" points="-4,4 -4,-322 809.269,-322 809.269,4 -4,4"/>
<!-- _diagram_info -->
<g id="node1" class="node"><title>_diagram_info</title>
<text text-anchor="start" x="65.3007" y="-303.6" font-family="Times,serif" font-size="13.00">Models diagram</text>
<text text-anchor="start" x="65.3007" y="-290.6" font-family="Times,serif" font-size="13.00">Date: May 03 2016 &#45; 17:37</text>
<text text-anchor="start" x="65.3007" y="-277.6" font-family="Times,serif" font-size="13.00">Migration version: 20160503202850</text>
<text text-anchor="start" x="65.3007" y="-264.6" font-family="Times,serif" font-size="13.00">Generated by RailRoady 1.4.2</text>
<text text-anchor="start" x="65.3007" y="-251.6" font-family="Times,serif" font-size="13.00">http://railroady.prestonlee.com</text>
</g>
<!-- Comment -->
<g id="node2" class="node"><title>Comment</title>
<ellipse fill="none" stroke="black" cx="44.9884" cy="-18" rx="44.9768" ry="18"/>
<text text-anchor="middle" x="44.9884" y="-13.8" font-family="Times,serif" font-size="14.00">Comment</text>
</g>
<!-- Like -->
<g id="node3" class="node"><title>Like</title>
<ellipse fill="none" stroke="black" cx="139.988" cy="-18" rx="27" ry="18"/>
<text text-anchor="middle" x="139.988" y="-13.8" font-family="Times,serif" font-size="14.00">Like</text>
</g>
<!-- Product -->
<g id="node4" class="node"><title>Product</title>
<ellipse fill="none" stroke="black" cx="319.988" cy="-281.5" rx="37.7352" ry="18"/>
<text text-anchor="middle" x="319.988" y="-277.3" font-family="Times,serif" font-size="14.00">Product</text>
</g>
<!-- Product&#45;&gt;Comment -->
<g id="edge1" class="edge"><title>Product&#45;&gt;Comment</title>
<path fill="none" stroke="#c3e264" d="M298.077,-259.789C290.901,-254.099 282.558,-248.531 273.988,-245 196.428,-213.045 138.856,-264.572 91.9884,-195 60.9224,-148.885 50.3591,-83.1002 46.7896,-46.4129"/>
<ellipse fill="none" stroke="#c3e264" cx="301.241" cy="-262.429" rx="4.00002" ry="4.00002"/>
<polygon fill="#c3e264" stroke="#c3e264" points="46.7522,-45.9783 50.3747,-35.628 46.3218,-40.9968 45.8914,-36.0154 45.8914,-36.0154 45.8914,-36.0154 46.3218,-40.9968 41.4081,-36.4027 46.7522,-45.9783 46.7522,-45.9783"/>
</g>
<!-- Product&#45;&gt;Like -->
<g id="edge2" class="edge"><title>Product&#45;&gt;Like</title>
<path fill="none" stroke="#4497b6" d="M304.296,-257.359C278.223,-218.955 224.262,-139.678 177.988,-73 171.153,-63.1509 163.561,-52.3372 156.971,-42.9906"/>
<ellipse fill="none" stroke="#4497b6" cx="306.586" cy="-260.732" rx="4.00002" ry="4.00002"/>
<polygon fill="#4497b6" stroke="#4497b6" points="156.785,-42.7274 154.694,-31.9628 153.901,-38.6429 151.017,-34.5584 151.017,-34.5584 151.017,-34.5584 153.901,-38.6429 147.341,-37.154 156.785,-42.7274 156.785,-42.7274"/>
</g>
<!-- ProductWishlist -->
<g id="node5" class="node"><title>ProductWishlist</title>
<ellipse fill="none" stroke="black" cx="322.988" cy="-18" rx="71.5376" ry="18"/>
<text text-anchor="middle" x="322.988" y="-13.8" font-family="Times,serif" font-size="14.00">ProductWishlist</text>
</g>
<!-- Product&#45;&gt;ProductWishlist -->
<g id="edge4" class="edge"><title>Product&#45;&gt;ProductWishlist</title>
<path fill="none" stroke="#963c2b" d="M320.288,-255.17C320.683,-221.706 321.397,-160.931 321.988,-109 322.228,-87.9393 322.493,-64.1062 322.689,-46.2588"/>
<ellipse fill="none" stroke="#963c2b" cx="320.238" cy="-259.461" rx="4" ry="4"/>
<polygon fill="#963c2b" stroke="#963c2b" points="322.689,-46.253 327.299,-36.3032 322.744,-41.2533 322.8,-36.2536 322.8,-36.2536 322.8,-36.2536 322.744,-41.2533 318.3,-36.2041 322.689,-46.253 322.689,-46.253"/>
</g>
<!-- User -->
<g id="node7" class="node"><title>User</title>
<ellipse fill="none" stroke="black" cx="127.988" cy="-177" rx="27" ry="18"/>
<text text-anchor="middle" x="127.988" y="-172.8" font-family="Times,serif" font-size="14.00">User</text>
</g>
<!-- Product&#45;&gt;User -->
<g id="edge3" class="edge"><title>Product&#45;&gt;User</title>
<path fill="none" stroke="#2f58b1" d="M296.271,-258.459C289.512,-253.264 281.84,-248.287 273.988,-245 219.468,-222.173 186.973,-265.614 142.223,-227 135.809,-221.466 132.201,-213.229 130.197,-205.081"/>
<polygon fill="#2f58b1" stroke="#2f58b1" points="296.562,-258.698 301.432,-268.523 300.426,-261.872 304.289,-265.046 304.289,-265.046 304.289,-265.046 300.426,-261.872 307.146,-261.569 296.562,-258.698 296.562,-258.698"/>
<polygon fill="#2f58b1" stroke="#2f58b1" points="130.159,-204.867 132.859,-194.238 129.293,-199.942 128.427,-195.018 128.427,-195.018 128.427,-195.018 129.293,-199.942 123.995,-195.798 130.159,-204.867 130.159,-204.867"/>
<text text-anchor="middle" x="171.371" y="-215.8" font-family="Times,serif" font-size="14.00">user_likes</text>
</g>
<!-- Wishlist -->
<g id="node8" class="node"><title>Wishlist</title>
<ellipse fill="none" stroke="black" cx="268.988" cy="-91" rx="44.0164" ry="18"/>
<text text-anchor="middle" x="268.988" y="-86.8" font-family="Times,serif" font-size="14.00">Wishlist</text>
</g>
<!-- Product&#45;&gt;Wishlist -->
<g id="edge5" class="edge"><title>Product&#45;&gt;Wishlist</title>
<path fill="none" stroke="#0f9d8e" d="M312.747,-253.737C303.062,-217.938 285.986,-154.823 276.276,-118.937"/>
<polygon fill="#0f9d8e" stroke="#0f9d8e" points="312.761,-253.786 311.029,-264.615 314.067,-258.613 315.373,-263.439 315.373,-263.439 315.373,-263.439 314.067,-258.613 319.716,-262.264 312.761,-253.786 312.761,-253.786"/>
<polygon fill="#0f9d8e" stroke="#0f9d8e" points="276.242,-118.811 277.974,-107.983 274.936,-113.984 273.631,-109.158 273.631,-109.158 273.631,-109.158 274.936,-113.984 269.287,-110.333 276.242,-118.811 276.242,-118.811"/>
</g>
<!-- ActsAsTaggableOn::Tagging -->
<g id="node9" class="node"><title>ActsAsTaggableOn::Tagging</title>
<ellipse fill="none" stroke="black" cx="479.988" cy="-177" rx="113.006" ry="18"/>
<text text-anchor="middle" x="479.988" y="-172.8" font-family="Times,serif" font-size="14.00">ActsAsTaggableOn::Tagging</text>
</g>
<!-- Product&#45;&gt;ActsAsTaggableOn::Tagging -->
<g id="edge6" class="edge"><title>Product&#45;&gt;ActsAsTaggableOn::Tagging</title>
<path fill="none" stroke="#7b3633" d="M339.111,-258.134C352.374,-243.72 371.092,-225.418 390.547,-213 400.113,-206.894 410.915,-201.56 421.619,-197.02"/>
<ellipse fill="none" stroke="#7b3633" cx="336.097" cy="-261.478" rx="4.00002" ry="4.00002"/>
<polygon fill="#7b3633" stroke="#7b3633" points="421.698,-196.988 432.656,-197.407 426.333,-195.112 430.967,-193.236 430.967,-193.236 430.967,-193.236 426.333,-195.112 429.279,-189.064 421.698,-196.988 421.698,-196.988"/>
<text text-anchor="middle" x="414.709" y="-215.8" font-family="Times,serif" font-size="14.00">taggings</text>
</g>
<!-- Product&#45;&gt;ActsAsTaggableOn::Tagging -->
<g id="edge8" class="edge"><title>Product&#45;&gt;ActsAsTaggableOn::Tagging</title>
<path fill="none" stroke="#6c499b" d="M358.175,-268.049C382.473,-258.997 413.802,-245.155 437.988,-227 446.859,-220.341 455.15,-211.504 461.983,-203.17"/>
<ellipse fill="none" stroke="#6c499b" cx="354.311" cy="-269.453" rx="4.00001" ry="4.00001"/>
<polygon fill="#6c499b" stroke="#6c499b" points="462.134,-202.977 471.841,-197.876 465.216,-199.04 468.298,-195.103 468.298,-195.103 468.298,-195.103 465.216,-199.04 464.754,-192.329 462.134,-202.977 462.134,-202.977"/>
<text text-anchor="middle" x="488.761" y="-215.8" font-family="Times,serif" font-size="14.00">tag_taggings</text>
</g>
<!-- ActsAsTaggableOn::Tag -->
<g id="node10" class="node"><title>ActsAsTaggableOn::Tag</title>
<ellipse fill="none" stroke="black" cx="707.988" cy="-177" rx="97.0617" ry="18"/>
<text text-anchor="middle" x="707.988" y="-172.8" font-family="Times,serif" font-size="14.00">ActsAsTaggableOn::Tag</text>
</g>
<!-- Product&#45;&gt;ActsAsTaggableOn::Tag -->
<g id="edge7" class="edge"><title>Product&#45;&gt;ActsAsTaggableOn::Tag</title>
<path fill="none" stroke="#8c44a7" d="M362.554,-269.824C404.824,-259.17 471.457,-242.237 528.988,-227 568.108,-216.639 611.93,-204.65 646.423,-195.124"/>
<polygon fill="#8c44a7" stroke="#8c44a7" points="362.311,-269.885 351.515,-267.963 357.462,-271.106 352.613,-272.327 352.613,-272.327 352.613,-272.327 357.462,-271.106 353.712,-276.691 362.311,-269.885 362.311,-269.885"/>
<polygon fill="#8c44a7" stroke="#8c44a7" points="646.713,-195.044 657.55,-196.716 651.532,-193.712 656.351,-192.379 656.351,-192.379 656.351,-192.379 651.532,-193.712 655.152,-188.042 646.713,-195.044 646.713,-195.044"/>
<text text-anchor="middle" x="605.202" y="-215.8" font-family="Times,serif" font-size="14.00">base_tags</text>
</g>
<!-- Product&#45;&gt;ActsAsTaggableOn::Tag -->
<g id="edge9" class="edge"><title>Product&#45;&gt;ActsAsTaggableOn::Tag</title>
<path fill="none" stroke="#5159d4" d="M367.481,-278.756C430.839,-275.039 545.531,-263.407 635.988,-227 651.867,-220.609 667.782,-210.289 680.595,-200.764"/>
<polygon fill="#5159d4" stroke="#5159d4" points="367.375,-278.762 357.145,-274.813 362.382,-279.034 357.39,-279.306 357.39,-279.306 357.39,-279.306 362.382,-279.034 357.635,-283.799 367.375,-278.762 367.375,-278.762"/>
<polygon fill="#5159d4" stroke="#5159d4" points="680.604,-200.758 691.276,-198.239 684.57,-197.713 688.536,-194.669 688.536,-194.669 688.536,-194.669 684.57,-197.713 685.797,-191.099 680.604,-200.758 680.604,-200.758"/>
<text text-anchor="middle" x="672.264" y="-215.8" font-family="Times,serif" font-size="14.00">tags</text>
</g>
<!-- Store -->
<g id="node6" class="node"><title>Store</title>
<ellipse fill="none" stroke="black" cx="139.988" cy="-91" rx="28.5497" ry="18"/>
<text text-anchor="middle" x="139.988" y="-86.8" font-family="Times,serif" font-size="14.00">Store</text>
</g>
<!-- Store&#45;&gt;Comment -->
<g id="edge11" class="edge"><title>Store&#45;&gt;Comment</title>
<path fill="none" stroke="#52277d" d="M115.327,-71.5692C102.605,-62.0607 87.0133,-50.4081 73.7455,-40.4921"/>
<ellipse fill="none" stroke="#52277d" cx="118.916" cy="-74.2508" rx="4.00002" ry="4.00002"/>
<polygon fill="#52277d" stroke="#52277d" points="73.4258,-40.2532 68.1096,-30.6622 69.4208,-37.26 65.4157,-34.2667 65.4157,-34.2667 65.4157,-34.2667 69.4208,-37.26 62.7218,-37.8713 73.4258,-40.2532 73.4258,-40.2532"/>
</g>
<!-- Store&#45;&gt;Like -->
<g id="edge12" class="edge"><title>Store&#45;&gt;Like</title>
<path fill="none" stroke="#beaf7c" d="M139.988,-64.791C139.988,-58.832 139.988,-52.4496 139.988,-46.3988"/>
<ellipse fill="none" stroke="#beaf7c" cx="139.988" cy="-68.8129" rx="4" ry="4"/>
<polygon fill="#beaf7c" stroke="#beaf7c" points="139.989,-46.0288 144.488,-36.0288 139.988,-41.0288 139.988,-36.0288 139.988,-36.0288 139.988,-36.0288 139.988,-41.0288 135.488,-36.0289 139.989,-46.0288 139.989,-46.0288"/>
</g>
<!-- Store&#45;&gt;Product -->
<g id="edge10" class="edge"><title>Store&#45;&gt;Product</title>
<path fill="none" stroke="#8339ef" d="M167.33,-108.557C174.865,-113.877 182.69,-120.178 188.988,-127 224.147,-165.083 213.902,-188.851 248.988,-227 258.257,-237.077 263.012,-236.816 273.988,-245 280.216,-249.643 286.859,-254.704 293.104,-259.513"/>
<ellipse fill="none" stroke="#8339ef" cx="163.855" cy="-106.203" rx="4.00002" ry="4.00002"/>
<polygon fill="#8339ef" stroke="#8339ef" points="293.386,-259.731 298.543,-269.409 297.341,-262.79 301.296,-265.849 301.296,-265.849 301.296,-265.849 297.341,-262.79 304.05,-262.29 293.386,-259.731 293.386,-259.731"/>
</g>
<!-- Store&#45;&gt;User -->
<g id="edge13" class="edge"><title>Store&#45;&gt;User</title>
<path fill="none" stroke="#7e99af" d="M121.82,-116.148C119.939,-119.641 118.318,-123.308 117.223,-127 115.043,-134.348 115.634,-142.435 117.349,-149.883"/>
<polygon fill="#7e99af" stroke="#7e99af" points="121.966,-115.913 131.053,-109.776 124.596,-111.661 127.226,-107.409 127.226,-107.409 127.226,-107.409 124.596,-111.661 123.4,-105.041 121.966,-115.913 121.966,-115.913"/>
<polygon fill="#7e99af" stroke="#7e99af" points="117.364,-149.935 115.916,-160.805 118.796,-154.726 120.228,-159.516 120.228,-159.516 120.228,-159.516 118.796,-154.726 124.539,-158.227 117.364,-149.935 117.364,-149.935"/>
<text text-anchor="middle" x="146.371" y="-129.8" font-family="Times,serif" font-size="14.00">user_likes</text>
</g>
<!-- User&#45;&gt;Comment -->
<g id="edge16" class="edge"><title>User&#45;&gt;Comment</title>
<path fill="none" stroke="#7a32d9" d="M110.094,-154.37C106.882,-150.063 103.698,-145.482 100.988,-141 82.0436,-109.659 65.2564,-70.8258 55.1163,-45.5074"/>
<ellipse fill="none" stroke="#7a32d9" cx="112.659" cy="-157.693" rx="4.00002" ry="4.00002"/>
<polygon fill="#7a32d9" stroke="#7a32d9" points="55.1098,-45.4908 55.6261,-34.5371 53.2749,-40.8396 51.44,-36.1885 51.44,-36.1885 51.44,-36.1885 53.2749,-40.8396 47.254,-37.8398 55.1098,-45.4908 55.1098,-45.4908"/>
</g>
<!-- User&#45;&gt;Like -->
<g id="edge15" class="edge"><title>User&#45;&gt;Like</title>
<path fill="none" stroke="#eedb94" d="M114.828,-152.903C104.577,-131.883 93.4117,-100.091 101.988,-73 105.591,-61.6202 112.55,-50.5641 119.538,-41.4509"/>
<ellipse fill="none" stroke="#eedb94" cx="116.703" cy="-156.571" rx="4.00002" ry="4.00002"/>
<polygon fill="#eedb94" stroke="#eedb94" points="119.556,-41.4294 129.359,-36.5155 122.712,-37.5519 125.869,-33.6744 125.869,-33.6744 125.869,-33.6744 122.712,-37.5519 122.379,-30.8333 119.556,-41.4294 119.556,-41.4294"/>
</g>
<!-- User&#45;&gt;Store -->
<g id="edge14" class="edge"><title>User&#45;&gt;Store</title>
<path fill="none" stroke="#98ac30" d="M155.787,-161.204C163.049,-155.871 169.962,-149.123 173.988,-141 179.27,-130.346 172.97,-119.39 164.417,-110.546"/>
<ellipse fill="none" stroke="#98ac30" cx="152.414" cy="-163.471" rx="4.00002" ry="4.00002"/>
<ellipse fill="#98ac30" stroke="#98ac30" cx="161.488" cy="-107.801" rx="4.00002" ry="4.00002"/>
</g>
<!-- User&#45;&gt;Wishlist -->
<g id="edge17" class="edge"><title>User&#45;&gt;Wishlist</title>
<path fill="none" stroke="#d943b7" d="M154.922,-160.767C165.572,-154.686 177.896,-147.578 188.988,-141 204.882,-131.575 222.401,-120.88 236.983,-111.892"/>
<ellipse fill="none" stroke="#d943b7" cx="151.327" cy="-162.814" rx="4.00002" ry="4.00002"/>
<polygon fill="#d943b7" stroke="#d943b7" points="237.134,-111.799 248.007,-110.371 241.388,-109.171 245.642,-106.543 245.642,-106.543 245.642,-106.543 241.388,-109.171 243.277,-102.714 237.134,-111.799 237.134,-111.799"/>
</g>
<!-- Wishlist&#45;&gt;ProductWishlist -->
<g id="edge18" class="edge"><title>Wishlist&#45;&gt;ProductWishlist</title>
<path fill="none" stroke="#e7963a" d="M286.386,-67.1256C291.941,-59.8221 298.119,-51.6989 303.794,-44.2374"/>
<ellipse fill="none" stroke="#e7963a" cx="283.934" cy="-70.3489" rx="4.00002" ry="4.00002"/>
<polygon fill="#e7963a" stroke="#e7963a" points="304.103,-43.8305 313.739,-38.5952 307.13,-39.8508 310.157,-35.871 310.157,-35.871 310.157,-35.871 307.13,-39.8508 306.575,-33.1468 304.103,-43.8305 304.103,-43.8305"/>
</g>
</g>
</svg>
