<?xml version="1.0" encoding="UTF-8" standalone="no"?>
<!DOCTYPE svg PUBLIC "-//W3C//DTD SVG 1.1//EN"
 "http://www.w3.org/Graphics/SVG/1.1/DTD/svg11.dtd">
<!-- Generated by graphviz version 2.38.0 (20140413.2041)
 -->
<!-- Title: models_diagram Pages: 1 -->
<svg width="1165pt" height="927pt"
 viewBox="0.00 0.00 1165.14 927.00" xmlns="http://www.w3.org/2000/svg" xmlns:xlink="http://www.w3.org/1999/xlink">
<g id="graph0" class="graph" transform="scale(1 1) rotate(0) translate(4 923)">
<title>models_diagram</title>
<polygon fill="none" stroke="none" points="-4,4 -4,-923 1161.14,-923 1161.14,4 -4,4"/>
<!-- _diagram_info -->
<g id="node1" class="node"><title>_diagram_info</title>
<text text-anchor="start" x="330.175" y="-862.6" font-family="Times,serif" font-size="13.00">Models diagram</text>
<text text-anchor="start" x="330.175" y="-849.6" font-family="Times,serif" font-size="13.00">Date: May 03 2016 &#45; 17:37</text>
<text text-anchor="start" x="330.175" y="-836.6" font-family="Times,serif" font-size="13.00">Migration version: 20160503202850</text>
<text text-anchor="start" x="330.175" y="-823.6" font-family="Times,serif" font-size="13.00">Generated by RailRoady 1.4.2</text>
<text text-anchor="start" x="330.175" y="-810.6" font-family="Times,serif" font-size="13.00">http://railroady.prestonlee.com</text>
</g>
<!-- Comment -->
<g id="node2" class="node"><title>Comment</title>
<path fill="none" stroke="black" d="M12,-0.5C12,-0.5 235.725,-0.5 235.725,-0.5 241.725,-0.5 247.725,-6.5 247.725,-12.5 247.725,-12.5 247.725,-116.5 247.725,-116.5 247.725,-122.5 241.725,-128.5 235.725,-128.5 235.725,-128.5 12,-128.5 12,-128.5 6,-128.5 0,-122.5 0,-116.5 0,-116.5 0,-12.5 0,-12.5 0,-6.5 6,-0.5 12,-0.5"/>
<text text-anchor="middle" x="123.862" y="-113.3" font-family="Times,serif" font-size="14.00">Comment</text>
<polyline fill="none" stroke="black" points="0,-106.5 247.725,-106.5 "/>
<text text-anchor="start" x="8" y="-91.3" font-family="Times,serif" font-size="14.00">content :text</text>
<text text-anchor="start" x="8" y="-77.3" font-family="Times,serif" font-size="14.00">commentable_id :integer</text>
<text text-anchor="start" x="8" y="-63.3" font-family="Times,serif" font-size="14.00">commentable_type :character varying</text>
<text text-anchor="start" x="8" y="-49.3" font-family="Times,serif" font-size="14.00">id :integer</text>
<text text-anchor="start" x="8" y="-35.3" font-family="Times,serif" font-size="14.00">user_id :integer</text>
<text text-anchor="start" x="8" y="-21.3" font-family="Times,serif" font-size="14.00">created_at :timestamp without time zone</text>
<text text-anchor="start" x="8" y="-7.3" font-family="Times,serif" font-size="14.00">updated_at :timestamp without time zone</text>
</g>
<!-- Like -->
<g id="node3" class="node"><title>Like</title>
<path fill="none" stroke="black" d="M278,-7.5C278,-7.5 501.725,-7.5 501.725,-7.5 507.725,-7.5 513.725,-13.5 513.725,-19.5 513.725,-19.5 513.725,-109.5 513.725,-109.5 513.725,-115.5 507.725,-121.5 501.725,-121.5 501.725,-121.5 278,-121.5 278,-121.5 272,-121.5 266,-115.5 266,-109.5 266,-109.5 266,-19.5 266,-19.5 266,-13.5 272,-7.5 278,-7.5"/>
<text text-anchor="middle" x="389.862" y="-106.3" font-family="Times,serif" font-size="14.00">Like</text>
<polyline fill="none" stroke="black" points="266,-99.5 513.725,-99.5 "/>
<text text-anchor="start" x="274" y="-84.3" font-family="Times,serif" font-size="14.00">id :integer</text>
<text text-anchor="start" x="274" y="-70.3" font-family="Times,serif" font-size="14.00">likeable_id :integer</text>
<text text-anchor="start" x="274" y="-56.3" font-family="Times,serif" font-size="14.00">likeable_type :character varying</text>
<text text-anchor="start" x="274" y="-42.3" font-family="Times,serif" font-size="14.00">user_id :integer</text>
<text text-anchor="start" x="274" y="-28.3" font-family="Times,serif" font-size="14.00">created_at :timestamp without time zone</text>
<text text-anchor="start" x="274" y="-14.3" font-family="Times,serif" font-size="14.00">updated_at :timestamp without time zone</text>
</g>
<!-- Product -->
<g id="node4" class="node"><title>Product</title>
<path fill="none" stroke="black" d="M560,-762.5C560,-762.5 783.725,-762.5 783.725,-762.5 789.725,-762.5 795.725,-768.5 795.725,-774.5 795.725,-774.5 795.725,-906.5 795.725,-906.5 795.725,-912.5 789.725,-918.5 783.725,-918.5 783.725,-918.5 560,-918.5 560,-918.5 554,-918.5 548,-912.5 548,-906.5 548,-906.5 548,-774.5 548,-774.5 548,-768.5 554,-762.5 560,-762.5"/>
<text text-anchor="middle" x="671.862" y="-903.3" font-family="Times,serif" font-size="14.00">Product</text>
<polyline fill="none" stroke="black" points="548,-896.5 795.725,-896.5 "/>
<text text-anchor="start" x="556" y="-881.3" font-family="Times,serif" font-size="14.00">updated_at :timestamp without time zone</text>
<text text-anchor="start" x="556" y="-867.3" font-family="Times,serif" font-size="14.00">name :character varying</text>
<text text-anchor="start" x="556" y="-853.3" font-family="Times,serif" font-size="14.00">description :text</text>
<text text-anchor="start" x="556" y="-839.3" font-family="Times,serif" font-size="14.00">photo :character varying</text>
<text text-anchor="start" x="556" y="-825.3" font-family="Times,serif" font-size="14.00">price :integer</text>
<text text-anchor="start" x="556" y="-811.3" font-family="Times,serif" font-size="14.00">stock :integer</text>
<text text-anchor="start" x="556" y="-797.3" font-family="Times,serif" font-size="14.00">store_id :integer</text>
<text text-anchor="start" x="556" y="-783.3" font-family="Times,serif" font-size="14.00">created_at :timestamp without time zone</text>
<text text-anchor="start" x="556" y="-769.3" font-family="Times,serif" font-size="14.00">id :integer</text>
</g>
<!-- Product&#45;&gt;Comment -->
<g id="edge1" class="edge"><title>Product&#45;&gt;Comment</title>
<path fill="none" stroke="#58b6e7" d="M539.957,-762.364C539.592,-762.242 539.227,-762.12 538.862,-762 447.3,-731.78 171.872,-784.108 107.862,-712 -34.4779,-551.653 44.4517,-270.769 93.7356,-138.415"/>
<ellipse fill="none" stroke="#58b6e7" cx="543.861" cy="-763.752" rx="4.00001" ry="4.00001"/>
<polygon fill="#58b6e7" stroke="#58b6e7" points="93.8473,-138.119 101.587,-130.35 95.6117,-133.44 97.376,-128.762 97.376,-128.762 97.376,-128.762 95.6117,-133.44 93.1654,-127.174 93.8473,-138.119 93.8473,-138.119"/>
</g>
<!-- Product&#45;&gt;Like -->
<g id="edge2" class="edge"><title>Product&#45;&gt;Like</title>
<path fill="none" stroke="#0d7597" d="M644.012,-754.479C611.921,-654.993 558.636,-485.014 519.862,-337 500.133,-261.687 517.812,-235.057 481.862,-166 475.206,-153.214 466.506,-140.821 457.112,-129.358"/>
<ellipse fill="none" stroke="#0d7597" cx="645.247" cy="-758.302" rx="4.00001" ry="4.00001"/>
<polygon fill="#0d7597" stroke="#0d7597" points="456.982,-129.204 453.947,-118.666 453.748,-125.39 450.515,-121.577 450.515,-121.577 450.515,-121.577 453.748,-125.39 447.082,-124.487 456.982,-129.204 456.982,-129.204"/>
</g>
<!-- ProductWhishlist -->
<g id="node5" class="node"><title>ProductWhishlist</title>
<path fill="none" stroke="black" d="M557,-14.5C557,-14.5 780.725,-14.5 780.725,-14.5 786.725,-14.5 792.725,-20.5 792.725,-26.5 792.725,-26.5 792.725,-102.5 792.725,-102.5 792.725,-108.5 786.725,-114.5 780.725,-114.5 780.725,-114.5 557,-114.5 557,-114.5 551,-114.5 545,-108.5 545,-102.5 545,-102.5 545,-26.5 545,-26.5 545,-20.5 551,-14.5 557,-14.5"/>
<text text-anchor="middle" x="668.862" y="-99.3" font-family="Times,serif" font-size="14.00">ProductWhishlist</text>
<polyline fill="none" stroke="black" points="545,-92.5 792.725,-92.5 "/>
<text text-anchor="start" x="553" y="-77.3" font-family="Times,serif" font-size="14.00">id :integer</text>
<text text-anchor="start" x="553" y="-63.3" font-family="Times,serif" font-size="14.00">product_id :integer</text>
<text text-anchor="start" x="553" y="-49.3" font-family="Times,serif" font-size="14.00">whishlist_id :integer</text>
<text text-anchor="start" x="553" y="-35.3" font-family="Times,serif" font-size="14.00">created_at :timestamp without time zone</text>
<text text-anchor="start" x="553" y="-21.3" font-family="Times,serif" font-size="14.00">updated_at :timestamp without time zone</text>
</g>
<!-- Product&#45;&gt;ProductWhishlist -->
<g id="edge4" class="edge"><title>Product&#45;&gt;ProductWhishlist</title>
<path fill="none" stroke="#c09ec1" d="M677.124,-753.845C685.192,-627.026 700.648,-402.5 709.862,-387 730.523,-352.245 766.675,-372.59 785.862,-337 821.928,-270.102 817.583,-235.064 785.862,-166 778.224,-149.37 766.325,-134.456 752.985,-121.528"/>
<ellipse fill="none" stroke="#c09ec1" cx="676.857" cy="-758.062" rx="4" ry="4"/>
<polygon fill="#c09ec1" stroke="#c09ec1" points="752.785,-121.342 748.5,-111.248 749.114,-117.947 745.444,-114.551 745.444,-114.551 745.444,-114.551 749.114,-117.947 742.388,-117.855 752.785,-121.342 752.785,-121.342"/>
</g>
<!-- User -->
<g id="node7" class="node"><title>User</title>
<path fill="none" stroke="black" d="M129.228,-387.5C129.228,-387.5 424.497,-387.5 424.497,-387.5 430.497,-387.5 436.497,-393.5 436.497,-399.5 436.497,-399.5 436.497,-699.5 436.497,-699.5 436.497,-705.5 430.497,-711.5 424.497,-711.5 424.497,-711.5 129.228,-711.5 129.228,-711.5 123.228,-711.5 117.228,-705.5 117.228,-699.5 117.228,-699.5 117.228,-399.5 117.228,-399.5 117.228,-393.5 123.228,-387.5 129.228,-387.5"/>
<text text-anchor="middle" x="276.862" y="-696.3" font-family="Times,serif" font-size="14.00">User</text>
<polyline fill="none" stroke="black" points="117.228,-689.5 436.497,-689.5 "/>
<text text-anchor="start" x="125.228" y="-674.3" font-family="Times,serif" font-size="14.00">gender :integer</text>
<text text-anchor="start" x="125.228" y="-660.3" font-family="Times,serif" font-size="14.00">email :character varying</text>
<text text-anchor="start" x="125.228" y="-646.3" font-family="Times,serif" font-size="14.00">encrypted_password :character varying</text>
<text text-anchor="start" x="125.228" y="-632.3" font-family="Times,serif" font-size="14.00">reset_password_token :character varying</text>
<text text-anchor="start" x="125.228" y="-618.3" font-family="Times,serif" font-size="14.00">reset_password_sent_at :timestamp without time zone</text>
<text text-anchor="start" x="125.228" y="-604.3" font-family="Times,serif" font-size="14.00">remember_created_at :timestamp without time zone</text>
<text text-anchor="start" x="125.228" y="-590.3" font-family="Times,serif" font-size="14.00">sign_in_count :integer</text>
<text text-anchor="start" x="125.228" y="-576.3" font-family="Times,serif" font-size="14.00">current_sign_in_at :timestamp without time zone</text>
<text text-anchor="start" x="125.228" y="-562.3" font-family="Times,serif" font-size="14.00">last_sign_in_at :timestamp without time zone</text>
<text text-anchor="start" x="125.228" y="-548.3" font-family="Times,serif" font-size="14.00">current_sign_in_ip :inet</text>
<text text-anchor="start" x="125.228" y="-534.3" font-family="Times,serif" font-size="14.00">last_sign_in_ip :inet</text>
<text text-anchor="start" x="125.228" y="-520.3" font-family="Times,serif" font-size="14.00">created_at :timestamp without time zone</text>
<text text-anchor="start" x="125.228" y="-506.3" font-family="Times,serif" font-size="14.00">updated_at :timestamp without time zone</text>
<text text-anchor="start" x="125.228" y="-492.3" font-family="Times,serif" font-size="14.00">provider :character varying</text>
<text text-anchor="start" x="125.228" y="-478.3" font-family="Times,serif" font-size="14.00">uid :character varying</text>
<text text-anchor="start" x="125.228" y="-464.3" font-family="Times,serif" font-size="14.00">name :character varying</text>
<text text-anchor="start" x="125.228" y="-450.3" font-family="Times,serif" font-size="14.00">last_name :character varying</text>
<text text-anchor="start" x="125.228" y="-436.3" font-family="Times,serif" font-size="14.00">age :integer</text>
<text text-anchor="start" x="125.228" y="-422.3" font-family="Times,serif" font-size="14.00">phone_number :character varying</text>
<text text-anchor="start" x="125.228" y="-408.3" font-family="Times,serif" font-size="14.00">avatar :character varying</text>
<text text-anchor="start" x="125.228" y="-394.3" font-family="Times,serif" font-size="14.00">id :integer</text>
</g>
<!-- Product&#45;&gt;User -->
<g id="edge3" class="edge"><title>Product&#45;&gt;User</title>
<path fill="none" stroke="#1363e8" d="M538.338,-762.306C474.667,-744.658 445.96,-777.601 394.097,-744 383.195,-736.937 373.154,-728.47 363.932,-719.079"/>
<polygon fill="#1363e8" stroke="#1363e8" points="538.438,-762.337 546.663,-769.59 543.215,-763.814 547.992,-765.291 547.992,-765.291 547.992,-765.291 543.215,-763.814 549.321,-760.992 538.438,-762.337 538.438,-762.337"/>
<polygon fill="#1363e8" stroke="#1363e8" points="363.879,-719.022 360.323,-708.648 360.459,-715.374 357.04,-711.726 357.04,-711.726 357.04,-711.726 360.459,-715.374 353.757,-714.803 363.879,-719.022 363.879,-719.022"/>
<text text-anchor="middle" x="423.245" y="-732.8" font-family="Times,serif" font-size="14.00">user_likes</text>
</g>
<!-- Whishlist -->
<g id="node8" class="node"><title>Whishlist</title>
<path fill="none" stroke="black" d="M541,-187.5C541,-187.5 764.725,-187.5 764.725,-187.5 770.725,-187.5 776.725,-193.5 776.725,-199.5 776.725,-199.5 776.725,-303.5 776.725,-303.5 776.725,-309.5 770.725,-315.5 764.725,-315.5 764.725,-315.5 541,-315.5 541,-315.5 535,-315.5 529,-309.5 529,-303.5 529,-303.5 529,-199.5 529,-199.5 529,-193.5 535,-187.5 541,-187.5"/>
<text text-anchor="middle" x="652.862" y="-300.3" font-family="Times,serif" font-size="14.00">Whishlist</text>
<polyline fill="none" stroke="black" points="529,-293.5 776.725,-293.5 "/>
<text text-anchor="start" x="537" y="-278.3" font-family="Times,serif" font-size="14.00">icon :character varying</text>
<text text-anchor="start" x="537" y="-264.3" font-family="Times,serif" font-size="14.00">type :integer</text>
<text text-anchor="start" x="537" y="-250.3" font-family="Times,serif" font-size="14.00">name :character varying</text>
<text text-anchor="start" x="537" y="-236.3" font-family="Times,serif" font-size="14.00">id :integer</text>
<text text-anchor="start" x="537" y="-222.3" font-family="Times,serif" font-size="14.00">user_id :integer</text>
<text text-anchor="start" x="537" y="-208.3" font-family="Times,serif" font-size="14.00">created_at :timestamp without time zone</text>
<text text-anchor="start" x="537" y="-194.3" font-family="Times,serif" font-size="14.00">updated_at :timestamp without time zone</text>
</g>
<!-- Product&#45;&gt;Whishlist -->
<g id="edge5" class="edge"><title>Product&#45;&gt;Whishlist</title>
<path fill="none" stroke="#604b83" d="M669.038,-752.251C665.292,-636.498 658.744,-434.202 655.238,-325.89"/>
<polygon fill="#604b83" stroke="#604b83" points="669.045,-752.464 664.871,-762.604 669.207,-757.461 669.369,-762.458 669.369,-762.458 669.369,-762.458 669.207,-757.461 673.866,-762.313 669.045,-752.464 669.045,-752.464"/>
<polygon fill="#604b83" stroke="#604b83" points="655.232,-325.702 659.406,-315.562 655.07,-320.705 654.908,-315.707 654.908,-315.707 654.908,-315.707 655.07,-320.705 650.411,-315.853 655.232,-325.702 655.232,-325.702"/>
</g>
<!-- ActsAsTaggableOn::Tagging -->
<g id="node9" class="node"><title>ActsAsTaggableOn::Tagging</title>
<ellipse fill="none" stroke="black" cx="831.862" cy="-549.5" rx="113.006" ry="18"/>
<text text-anchor="middle" x="831.862" y="-545.3" font-family="Times,serif" font-size="14.00">ActsAsTaggableOn::Tagging</text>
</g>
<!-- Product&#45;&gt;ActsAsTaggableOn::Tagging -->
<g id="edge6" class="edge"><title>Product&#45;&gt;ActsAsTaggableOn::Tagging</title>
<path fill="none" stroke="#13d311" d="M718.464,-755.326C752.182,-694.423 795.547,-616.094 817.604,-576.254"/>
<ellipse fill="none" stroke="#13d311" cx="716.467" cy="-758.933" rx="4.00002" ry="4.00002"/>
<polygon fill="#13d311" stroke="#13d311" points="817.638,-576.192 826.419,-569.623 820.06,-571.818 822.482,-567.444 822.482,-567.444 822.482,-567.444 820.06,-571.818 818.545,-565.264 817.638,-576.192 817.638,-576.192"/>
<text text-anchor="middle" x="752.583" y="-732.8" font-family="Times,serif" font-size="14.00">taggings</text>
</g>
<!-- Product&#45;&gt;ActsAsTaggableOn::Tagging -->
<g id="edge8" class="edge"><title>Product&#45;&gt;ActsAsTaggableOn::Tagging</title>
<path fill="none" stroke="#c5ddcd" d="M771.773,-755.832C774.659,-751.969 777.371,-748.021 779.862,-744 812.766,-690.887 825.096,-617.051 829.525,-577.716"/>
<ellipse fill="none" stroke="#c5ddcd" cx="769.221" cy="-759.1" rx="4.00002" ry="4.00002"/>
<polygon fill="#c5ddcd" stroke="#c5ddcd" points="829.544,-577.53 835.051,-568.047 830.059,-572.556 830.575,-567.583 830.575,-567.583 830.575,-567.583 830.059,-572.556 826.099,-567.119 829.544,-577.53 829.544,-577.53"/>
<text text-anchor="middle" x="821.635" y="-732.8" font-family="Times,serif" font-size="14.00">tag_taggings</text>
</g>
<!-- ActsAsTaggableOn::Tag -->
<g id="node10" class="node"><title>ActsAsTaggableOn::Tag</title>
<ellipse fill="none" stroke="black" cx="1059.86" cy="-549.5" rx="97.0617" ry="18"/>
<text text-anchor="middle" x="1059.86" y="-545.3" font-family="Times,serif" font-size="14.00">ActsAsTaggableOn::Tag</text>
</g>
<!-- Product&#45;&gt;ActsAsTaggableOn::Tag -->
<g id="edge7" class="edge"><title>Product&#45;&gt;ActsAsTaggableOn::Tag</title>
<path fill="none" stroke="#17022a" d="M805.072,-797.268C855.373,-776.928 910.8,-748.811 953.862,-712 998.603,-673.754 1031.82,-612.046 1048.28,-577.019"/>
<polygon fill="#17022a" stroke="#17022a" points="805.036,-797.282 794.081,-796.794 800.389,-799.129 795.743,-800.976 795.743,-800.976 795.743,-800.976 800.389,-799.129 797.405,-805.157 805.036,-797.282 805.036,-797.282"/>
<polygon fill="#17022a" stroke="#17022a" points="1048.3,-576.976 1056.57,-569.768 1050.39,-572.432 1052.48,-567.889 1052.48,-567.889 1052.48,-567.889 1050.39,-572.432 1048.39,-566.01 1048.3,-576.976 1048.3,-576.976"/>
<text text-anchor="middle" x="954.076" y="-732.8" font-family="Times,serif" font-size="14.00">base_tags</text>
</g>
<!-- Product&#45;&gt;ActsAsTaggableOn::Tag -->
<g id="edge9" class="edge"><title>Product&#45;&gt;ActsAsTaggableOn::Tag</title>
<path fill="none" stroke="#877724" d="M806.177,-825.466C867.176,-812.878 936.364,-789.053 984.862,-744 1033.19,-699.11 1050.75,-619.473 1056.84,-577.739"/>
<polygon fill="#877724" stroke="#877724" points="805.88,-825.524 795.197,-823.051 800.975,-826.495 796.07,-827.465 796.07,-827.465 796.07,-827.465 800.975,-826.495 796.944,-831.88 805.88,-825.524 805.88,-825.524"/>
<polygon fill="#877724" stroke="#877724" points="1056.85,-577.66 1062.64,-568.348 1057.51,-572.705 1058.18,-567.749 1058.18,-567.749 1058.18,-567.749 1057.51,-572.705 1053.72,-567.151 1056.85,-577.66 1056.85,-577.66"/>
<text text-anchor="middle" x="1007.14" y="-732.8" font-family="Times,serif" font-size="14.00">tags</text>
</g>
<!-- Store -->
<g id="node6" class="node"><title>Store</title>
<path fill="none" stroke="black" d="M237,-166.5C237,-166.5 460.725,-166.5 460.725,-166.5 466.725,-166.5 472.725,-172.5 472.725,-178.5 472.725,-178.5 472.725,-324.5 472.725,-324.5 472.725,-330.5 466.725,-336.5 460.725,-336.5 460.725,-336.5 237,-336.5 237,-336.5 231,-336.5 225,-330.5 225,-324.5 225,-324.5 225,-178.5 225,-178.5 225,-172.5 231,-166.5 237,-166.5"/>
<text text-anchor="middle" x="348.862" y="-321.3" font-family="Times,serif" font-size="14.00">Store</text>
<polyline fill="none" stroke="black" points="225,-314.5 472.725,-314.5 "/>
<text text-anchor="start" x="233" y="-299.3" font-family="Times,serif" font-size="14.00">updated_at :timestamp without time zone</text>
<text text-anchor="start" x="233" y="-285.3" font-family="Times,serif" font-size="14.00">name :character varying</text>
<text text-anchor="start" x="233" y="-271.3" font-family="Times,serif" font-size="14.00">description :text</text>
<text text-anchor="start" x="233" y="-257.3" font-family="Times,serif" font-size="14.00">photo :character varying</text>
<text text-anchor="start" x="233" y="-243.3" font-family="Times,serif" font-size="14.00">cover_photo :character varying</text>
<text text-anchor="start" x="233" y="-229.3" font-family="Times,serif" font-size="14.00">facebook_link :character varying</text>
<text text-anchor="start" x="233" y="-215.3" font-family="Times,serif" font-size="14.00">instagram_link :character varying</text>
<text text-anchor="start" x="233" y="-201.3" font-family="Times,serif" font-size="14.00">user_id :integer</text>
<text text-anchor="start" x="233" y="-187.3" font-family="Times,serif" font-size="14.00">created_at :timestamp without time zone</text>
<text text-anchor="start" x="233" y="-173.3" font-family="Times,serif" font-size="14.00">id :integer</text>
</g>
<!-- Store&#45;&gt;Comment -->
<g id="edge11" class="edge"><title>Store&#45;&gt;Comment</title>
<path fill="none" stroke="#1c34f8" d="M240.041,-161.025C229.434,-152.304 218.783,-143.546 208.467,-135.064"/>
<ellipse fill="none" stroke="#1c34f8" cx="243.477" cy="-163.85" rx="4.00002" ry="4.00002"/>
<polygon fill="#1c34f8" stroke="#1c34f8" points="208.373,-134.987 203.507,-125.16 204.511,-131.811 200.649,-128.635 200.649,-128.635 200.649,-128.635 204.511,-131.811 197.791,-132.111 208.373,-134.987 208.373,-134.987"/>
</g>
<!-- Store&#45;&gt;Like -->
<g id="edge12" class="edge"><title>Store&#45;&gt;Like</title>
<path fill="none" stroke="#40c2fd" d="M369.241,-158.547C371.272,-149.382 373.305,-140.21 375.26,-131.39"/>
<ellipse fill="none" stroke="#40c2fd" cx="368.368" cy="-162.485" rx="4.00001" ry="4.00001"/>
<polygon fill="#40c2fd" stroke="#40c2fd" points="375.265,-131.365 381.822,-122.576 376.347,-126.483 377.429,-121.602 377.429,-121.602 377.429,-121.602 376.347,-126.483 373.036,-120.628 375.265,-131.365 375.265,-131.365"/>
</g>
<!-- Store&#45;&gt;Product -->
<g id="edge10" class="edge"><title>Store&#45;&gt;Product</title>
<path fill="none" stroke="#f0a89a" d="M423.272,-343.53C432.026,-357.478 439.934,-372.184 445.862,-387 505.357,-535.694 396.74,-617.424 494.862,-744 507.807,-760.699 519.911,-752.659 538.862,-762 538.956,-762.046 539.05,-762.092 539.143,-762.139"/>
<ellipse fill="none" stroke="#f0a89a" cx="421.075" cy="-340.111" rx="4.00002" ry="4.00002"/>
<polygon fill="#f0a89a" stroke="#f0a89a" points="538.979,-762.056 545.895,-770.566 543.447,-764.301 547.915,-766.545 547.915,-766.545 547.915,-766.545 543.447,-764.301 549.935,-762.524 538.979,-762.056 538.979,-762.056"/>
</g>
<!-- Store&#45;&gt;User -->
<g id="edge13" class="edge"><title>Store&#45;&gt;User</title>
<path fill="none" stroke="#f27e61" d="M281.276,-346.048C280.107,-349.016 279.041,-352.003 278.097,-355 275.815,-362.24 273.926,-369.71 272.379,-377.313"/>
<polygon fill="#f27e61" stroke="#f27e61" points="281.375,-345.819 289.474,-338.427 283.359,-341.23 285.344,-336.641 285.344,-336.641 285.344,-336.641 283.359,-341.23 281.213,-334.855 281.375,-345.819 281.375,-345.819"/>
<polygon fill="#f27e61" stroke="#f27e61" points="272.338,-377.539 266.111,-386.565 271.438,-382.457 270.537,-387.375 270.537,-387.375 270.537,-387.375 271.438,-382.457 274.964,-388.185 272.338,-377.539 272.338,-377.539"/>
<text text-anchor="middle" x="307.245" y="-357.8" font-family="Times,serif" font-size="14.00">user_likes</text>
</g>
<!-- User&#45;&gt;Comment -->
<g id="edge16" class="edge"><title>User&#45;&gt;Comment</title>
<path fill="none" stroke="#5c3fc4" d="M199.115,-379.91C197.664,-376.249 196.244,-372.609 194.862,-369 165.716,-292.886 146.29,-201.279 135.234,-138.756"/>
<ellipse fill="none" stroke="#5c3fc4" cx="200.648" cy="-383.737" rx="4.00001" ry="4.00001"/>
<polygon fill="#5c3fc4" stroke="#5c3fc4" points="135.18,-138.444 137.899,-127.82 134.323,-133.518 133.466,-128.592 133.466,-128.592 133.466,-128.592 134.323,-133.518 129.032,-129.363 135.18,-138.444 135.18,-138.444"/>
</g>
<!-- User&#45;&gt;Like -->
<g id="edge15" class="edge"><title>User&#45;&gt;Like</title>
<path fill="none" stroke="#e81231" d="M203.769,-379.245C184.92,-309.36 178.96,-229.929 215.862,-166 222.628,-154.279 241.275,-140.431 263.981,-126.823"/>
<ellipse fill="none" stroke="#e81231" cx="204.932" cy="-383.427" rx="4.00001" ry="4.00001"/>
<polygon fill="#e81231" stroke="#e81231" points="264.235,-126.674 275.139,-125.508 268.55,-124.149 272.866,-121.624 272.866,-121.624 272.866,-121.624 268.55,-124.149 270.593,-117.74 264.235,-126.674 264.235,-126.674"/>
</g>
<!-- User&#45;&gt;Store -->
<g id="edge14" class="edge"><title>User&#45;&gt;Store</title>
<path fill="none" stroke="#ebaebf" d="M332.432,-379.619C333.279,-376.056 334.091,-372.514 334.862,-369 336.6,-361.084 338.135,-352.814 339.49,-344.493"/>
<ellipse fill="none" stroke="#ebaebf" cx="331.47" cy="-383.561" rx="4.00001" ry="4.00001"/>
<ellipse fill="#ebaebf" stroke="#ebaebf" cx="340.118" cy="-340.46" rx="4.00001" ry="4.00001"/>
</g>
<!-- User&#45;&gt;Whishlist -->
<g id="edge17" class="edge"><title>User&#45;&gt;Whishlist</title>
<path fill="none" stroke="#c70418" d="M442.941,-417.757C484.847,-384.767 528.227,-350.617 564.597,-321.985"/>
<ellipse fill="none" stroke="#c70418" cx="439.736" cy="-420.281" rx="4.00002" ry="4.00002"/>
<polygon fill="#c70418" stroke="#c70418" points="564.868,-321.772 575.509,-319.122 568.797,-318.679 572.725,-315.586 572.725,-315.586 572.725,-315.586 568.797,-318.679 569.942,-312.051 564.868,-321.772 564.868,-321.772"/>
</g>
<!-- Whishlist&#45;&gt;ProductWhishlist -->
<g id="edge18" class="edge"><title>Whishlist&#45;&gt;ProductWhishlist</title>
<path fill="none" stroke="#7c5f56" d="M659.031,-179.175C660.59,-161.147 662.247,-141.985 663.748,-124.633"/>
<ellipse fill="none" stroke="#7c5f56" cx="658.669" cy="-183.366" rx="4" ry="4"/>
<polygon fill="#7c5f56" stroke="#7c5f56" points="663.75,-124.61 669.095,-115.035 664.181,-119.628 664.612,-114.647 664.612,-114.647 664.612,-114.647 664.181,-119.628 660.129,-114.259 663.75,-124.61 663.75,-124.61"/>
</g>
</g>
</svg>
