<?xml version="1.0" encoding="UTF-8" standalone="no"?>
<!DOCTYPE svg PUBLIC "-//W3C//DTD SVG 1.1//EN"
 "http://www.w3.org/Graphics/SVG/1.1/DTD/svg11.dtd">
<!-- Generated by graphviz version 2.38.0 (20140413.2041)
 -->
<!-- Title: models_diagram Pages: 1 -->
<svg width="614pt" height="705pt"
 viewBox="0.00 0.00 614.48 705.00" xmlns="http://www.w3.org/2000/svg" xmlns:xlink="http://www.w3.org/1999/xlink">
<g id="graph0" class="graph" transform="scale(1 1) rotate(0) translate(4 701)">
<title>models_diagram</title>
<polygon fill="none" stroke="none" points="-4,4 -4,-701 610.48,-701 610.48,4 -4,4"/>
<!-- _diagram_info -->
<g id="node1" class="node"><title>_diagram_info</title>
<text text-anchor="start" x="13.1746" y="-556.6" font-family="Times,serif" font-size="13.00">Models diagram</text>
<text text-anchor="start" x="13.1746" y="-543.6" font-family="Times,serif" font-size="13.00">Date: May 01 2016 &#45; 21:21</text>
<text text-anchor="start" x="13.1746" y="-530.6" font-family="Times,serif" font-size="13.00">Migration version: 20160501223603</text>
<text text-anchor="start" x="13.1746" y="-517.6" font-family="Times,serif" font-size="13.00">Generated by RailRoady 1.4.2</text>
<text text-anchor="start" x="13.1746" y="-504.6" font-family="Times,serif" font-size="13.00">http://railroady.prestonlee.com</text>
</g>
<!-- Comment -->
<g id="node2" class="node"><title>Comment</title>
<path fill="none" stroke="black" d="M12,-0.5C12,-0.5 235.725,-0.5 235.725,-0.5 241.725,-0.5 247.725,-6.5 247.725,-12.5 247.725,-12.5 247.725,-116.5 247.725,-116.5 247.725,-122.5 241.725,-128.5 235.725,-128.5 235.725,-128.5 12,-128.5 12,-128.5 6,-128.5 0,-122.5 0,-116.5 0,-116.5 0,-12.5 0,-12.5 0,-6.5 6,-0.5 12,-0.5"/>
<text text-anchor="middle" x="123.862" y="-113.3" font-family="Times,serif" font-size="14.00">Comment</text>
<polyline fill="none" stroke="black" points="0,-106.5 247.725,-106.5 "/>
<text text-anchor="start" x="8" y="-91.3" font-family="Times,serif" font-size="14.00">content :text</text>
<text text-anchor="start" x="8" y="-77.3" font-family="Times,serif" font-size="14.00">commentable_id :integer</text>
<text text-anchor="start" x="8" y="-63.3" font-family="Times,serif" font-size="14.00">commentable_type :character varying</text>
<text text-anchor="start" x="8" y="-49.3" font-family="Times,serif" font-size="14.00">id :integer</text>
<text text-anchor="start" x="8" y="-35.3" font-family="Times,serif" font-size="14.00">user_id :integer</text>
<text text-anchor="start" x="8" y="-21.3" font-family="Times,serif" font-size="14.00">created_at :timestamp without time zone</text>
<text text-anchor="start" x="8" y="-7.3" font-family="Times,serif" font-size="14.00">updated_at :timestamp without time zone</text>
</g>
<!-- Like -->
<g id="node3" class="node"><title>Like</title>
<path fill="none" stroke="black" d="M278,-7.5C278,-7.5 501.725,-7.5 501.725,-7.5 507.725,-7.5 513.725,-13.5 513.725,-19.5 513.725,-19.5 513.725,-109.5 513.725,-109.5 513.725,-115.5 507.725,-121.5 501.725,-121.5 501.725,-121.5 278,-121.5 278,-121.5 272,-121.5 266,-115.5 266,-109.5 266,-109.5 266,-19.5 266,-19.5 266,-13.5 272,-7.5 278,-7.5"/>
<text text-anchor="middle" x="389.862" y="-106.3" font-family="Times,serif" font-size="14.00">Like</text>
<polyline fill="none" stroke="black" points="266,-99.5 513.725,-99.5 "/>
<text text-anchor="start" x="274" y="-84.3" font-family="Times,serif" font-size="14.00">id :integer</text>
<text text-anchor="start" x="274" y="-70.3" font-family="Times,serif" font-size="14.00">likeable_id :integer</text>
<text text-anchor="start" x="274" y="-56.3" font-family="Times,serif" font-size="14.00">likeable_type :character varying</text>
<text text-anchor="start" x="274" y="-42.3" font-family="Times,serif" font-size="14.00">user_id :integer</text>
<text text-anchor="start" x="274" y="-28.3" font-family="Times,serif" font-size="14.00">created_at :timestamp without time zone</text>
<text text-anchor="start" x="274" y="-14.3" font-family="Times,serif" font-size="14.00">updated_at :timestamp without time zone</text>
</g>
<!-- Store -->
<g id="node4" class="node"><title>Store</title>
<path fill="none" stroke="black" d="M278,-165.5C278,-165.5 501.725,-165.5 501.725,-165.5 507.725,-165.5 513.725,-171.5 513.725,-177.5 513.725,-177.5 513.725,-323.5 513.725,-323.5 513.725,-329.5 507.725,-335.5 501.725,-335.5 501.725,-335.5 278,-335.5 278,-335.5 272,-335.5 266,-329.5 266,-323.5 266,-323.5 266,-177.5 266,-177.5 266,-171.5 272,-165.5 278,-165.5"/>
<text text-anchor="middle" x="389.862" y="-320.3" font-family="Times,serif" font-size="14.00">Store</text>
<polyline fill="none" stroke="black" points="266,-313.5 513.725,-313.5 "/>
<text text-anchor="start" x="274" y="-298.3" font-family="Times,serif" font-size="14.00">updated_at :timestamp without time zone</text>
<text text-anchor="start" x="274" y="-284.3" font-family="Times,serif" font-size="14.00">name :character varying</text>
<text text-anchor="start" x="274" y="-270.3" font-family="Times,serif" font-size="14.00">description :text</text>
<text text-anchor="start" x="274" y="-256.3" font-family="Times,serif" font-size="14.00">photo :character varying</text>
<text text-anchor="start" x="274" y="-242.3" font-family="Times,serif" font-size="14.00">cover_photo :character varying</text>
<text text-anchor="start" x="274" y="-228.3" font-family="Times,serif" font-size="14.00">facebook_link :character varying</text>
<text text-anchor="start" x="274" y="-214.3" font-family="Times,serif" font-size="14.00">instagram_link :character varying</text>
<text text-anchor="start" x="274" y="-200.3" font-family="Times,serif" font-size="14.00">user_id :integer</text>
<text text-anchor="start" x="274" y="-186.3" font-family="Times,serif" font-size="14.00">created_at :timestamp without time zone</text>
<text text-anchor="start" x="274" y="-172.3" font-family="Times,serif" font-size="14.00">id :integer</text>
</g>
<!-- Store&#45;&gt;Comment -->
<g id="edge2" class="edge"><title>Store&#45;&gt;Comment</title>
<path fill="none" stroke="#dc85a0" d="M261.471,-160.688C248.794,-151.919 236.061,-143.111 223.733,-134.584"/>
<ellipse fill="none" stroke="#dc85a0" cx="264.86" cy="-163.032" rx="4.00002" ry="4.00002"/>
<polygon fill="#dc85a0" stroke="#dc85a0" points="223.493,-134.418 217.829,-125.028 219.381,-131.573 215.269,-128.729 215.269,-128.729 215.269,-128.729 219.381,-131.573 212.709,-132.43 223.493,-134.418 223.493,-134.418"/>
</g>
<!-- Store&#45;&gt;Like -->
<g id="edge3" class="edge"><title>Store&#45;&gt;Like</title>
<path fill="none" stroke="#c731a7" d="M389.862,-156.986C389.862,-148.526 389.862,-140.071 389.862,-131.909"/>
<ellipse fill="none" stroke="#c731a7" cx="389.862" cy="-161.308" rx="4" ry="4"/>
<polygon fill="#c731a7" stroke="#c731a7" points="389.862,-131.747 394.362,-121.747 389.862,-126.747 389.862,-121.747 389.862,-121.747 389.862,-121.747 389.862,-126.747 385.362,-121.747 389.862,-131.747 389.862,-131.747"/>
</g>
<!-- Product -->
<g id="node6" class="node"><title>Product</title>
<ellipse fill="none" stroke="black" cx="568.862" cy="-64.5" rx="37.7352" ry="18"/>
<text text-anchor="middle" x="568.862" y="-60.3" font-family="Times,serif" font-size="14.00">Product</text>
</g>
<!-- Store&#45;&gt;Product -->
<g id="edge1" class="edge"><title>Store&#45;&gt;Product</title>
<path fill="none" stroke="#a7921e" d="M493.679,-159.381C503.829,-149.415 513.735,-139.182 522.862,-129 533.683,-116.928 544.392,-102.345 552.75,-90.2003"/>
<ellipse fill="none" stroke="#a7921e" cx="490.546" cy="-162.428" rx="4.00002" ry="4.00002"/>
<polygon fill="#a7921e" stroke="#a7921e" points="552.789,-90.1434 562.117,-84.379 555.589,-86.0011 558.389,-81.8588 558.389,-81.8588 558.389,-81.8588 555.589,-86.0011 554.661,-79.3385 552.789,-90.1434 552.789,-90.1434"/>
</g>
<!-- User -->
<g id="node5" class="node"><title>User</title>
<path fill="none" stroke="black" d="M242.228,-372.5C242.228,-372.5 537.497,-372.5 537.497,-372.5 543.497,-372.5 549.497,-378.5 549.497,-384.5 549.497,-384.5 549.497,-684.5 549.497,-684.5 549.497,-690.5 543.497,-696.5 537.497,-696.5 537.497,-696.5 242.228,-696.5 242.228,-696.5 236.228,-696.5 230.228,-690.5 230.228,-684.5 230.228,-684.5 230.228,-384.5 230.228,-384.5 230.228,-378.5 236.228,-372.5 242.228,-372.5"/>
<text text-anchor="middle" x="389.862" y="-681.3" font-family="Times,serif" font-size="14.00">User</text>
<polyline fill="none" stroke="black" points="230.228,-674.5 549.497,-674.5 "/>
<text text-anchor="start" x="238.228" y="-659.3" font-family="Times,serif" font-size="14.00">gender :integer</text>
<text text-anchor="start" x="238.228" y="-645.3" font-family="Times,serif" font-size="14.00">email :character varying</text>
<text text-anchor="start" x="238.228" y="-631.3" font-family="Times,serif" font-size="14.00">encrypted_password :character varying</text>
<text text-anchor="start" x="238.228" y="-617.3" font-family="Times,serif" font-size="14.00">reset_password_token :character varying</text>
<text text-anchor="start" x="238.228" y="-603.3" font-family="Times,serif" font-size="14.00">reset_password_sent_at :timestamp without time zone</text>
<text text-anchor="start" x="238.228" y="-589.3" font-family="Times,serif" font-size="14.00">remember_created_at :timestamp without time zone</text>
<text text-anchor="start" x="238.228" y="-575.3" font-family="Times,serif" font-size="14.00">sign_in_count :integer</text>
<text text-anchor="start" x="238.228" y="-561.3" font-family="Times,serif" font-size="14.00">current_sign_in_at :timestamp without time zone</text>
<text text-anchor="start" x="238.228" y="-547.3" font-family="Times,serif" font-size="14.00">last_sign_in_at :timestamp without time zone</text>
<text text-anchor="start" x="238.228" y="-533.3" font-family="Times,serif" font-size="14.00">current_sign_in_ip :inet</text>
<text text-anchor="start" x="238.228" y="-519.3" font-family="Times,serif" font-size="14.00">last_sign_in_ip :inet</text>
<text text-anchor="start" x="238.228" y="-505.3" font-family="Times,serif" font-size="14.00">created_at :timestamp without time zone</text>
<text text-anchor="start" x="238.228" y="-491.3" font-family="Times,serif" font-size="14.00">updated_at :timestamp without time zone</text>
<text text-anchor="start" x="238.228" y="-477.3" font-family="Times,serif" font-size="14.00">provider :character varying</text>
<text text-anchor="start" x="238.228" y="-463.3" font-family="Times,serif" font-size="14.00">uid :character varying</text>
<text text-anchor="start" x="238.228" y="-449.3" font-family="Times,serif" font-size="14.00">name :character varying</text>
<text text-anchor="start" x="238.228" y="-435.3" font-family="Times,serif" font-size="14.00">last_name :character varying</text>
<text text-anchor="start" x="238.228" y="-421.3" font-family="Times,serif" font-size="14.00">age :integer</text>
<text text-anchor="start" x="238.228" y="-407.3" font-family="Times,serif" font-size="14.00">phone_number :character varying</text>
<text text-anchor="start" x="238.228" y="-393.3" font-family="Times,serif" font-size="14.00">avatar :character varying</text>
<text text-anchor="start" x="238.228" y="-379.3" font-family="Times,serif" font-size="14.00">id :integer</text>
</g>
<!-- User&#45;&gt;Store -->
<g id="edge4" class="edge"><title>User&#45;&gt;Store</title>
<path fill="none" stroke="#169ce8" d="M389.862,-364.098C389.862,-357.248 389.862,-350.492 389.862,-343.898"/>
<ellipse fill="none" stroke="#169ce8" cx="389.862" cy="-368.321" rx="4" ry="4"/>
<ellipse fill="#169ce8" stroke="#169ce8" cx="389.862" cy="-339.636" rx="4" ry="4"/>
</g>
</g>
</svg>
