<?xml version="1.0" encoding="UTF-8" standalone="no"?>
<!DOCTYPE svg PUBLIC "-//W3C//DTD SVG 1.1//EN"
 "http://www.w3.org/Graphics/SVG/1.1/DTD/svg11.dtd">
<!-- Generated by graphviz version 2.38.0 (20140413.2041)
 -->
<!-- Title: models_diagram Pages: 1 -->
<svg width="552pt" height="733pt"
 viewBox="0.00 0.00 552.32 733.00" xmlns="http://www.w3.org/2000/svg" xmlns:xlink="http://www.w3.org/1999/xlink">
<g id="graph0" class="graph" transform="scale(1 1) rotate(0) translate(4 729)">
<title>models_diagram</title>
<polygon fill="none" stroke="none" points="-4,4 -4,-729 548.323,-729 548.323,4 -4,4"/>
<!-- _diagram_info -->
<g id="node1" class="node"><title>_diagram_info</title>
<text text-anchor="start" x="8" y="-584.6" font-family="Times,serif" font-size="13.00">Models diagram</text>
<text text-anchor="start" x="8" y="-571.6" font-family="Times,serif" font-size="13.00">Date: Apr 28 2016 &#45; 21:39</text>
<text text-anchor="start" x="8" y="-558.6" font-family="Times,serif" font-size="13.00">Migration version: 20160429003521</text>
<text text-anchor="start" x="8" y="-545.6" font-family="Times,serif" font-size="13.00">Generated by RailRoady 1.4.2</text>
<text text-anchor="start" x="8" y="-532.6" font-family="Times,serif" font-size="13.00">http://railroady.prestonlee.com</text>
</g>
<!-- Product -->
<g id="node2" class="node"><title>Product</title>
<path fill="none" stroke="black" d="M272.825,-0.5C272.825,-0.5 496.55,-0.5 496.55,-0.5 502.55,-0.5 508.55,-6.5 508.55,-12.5 508.55,-12.5 508.55,-144.5 508.55,-144.5 508.55,-150.5 502.55,-156.5 496.55,-156.5 496.55,-156.5 272.825,-156.5 272.825,-156.5 266.825,-156.5 260.825,-150.5 260.825,-144.5 260.825,-144.5 260.825,-12.5 260.825,-12.5 260.825,-6.5 266.825,-0.5 272.825,-0.5"/>
<text text-anchor="middle" x="384.688" y="-141.3" font-family="Times,serif" font-size="14.00">Product</text>
<polyline fill="none" stroke="black" points="260.825,-134.5 508.55,-134.5 "/>
<text text-anchor="start" x="268.825" y="-119.3" font-family="Times,serif" font-size="14.00">updated_at :timestamp without time zone</text>
<text text-anchor="start" x="268.825" y="-105.3" font-family="Times,serif" font-size="14.00">name :character varying</text>
<text text-anchor="start" x="268.825" y="-91.3" font-family="Times,serif" font-size="14.00">description :text</text>
<text text-anchor="start" x="268.825" y="-77.3" font-family="Times,serif" font-size="14.00">photo :character varying</text>
<text text-anchor="start" x="268.825" y="-63.3" font-family="Times,serif" font-size="14.00">price :integer</text>
<text text-anchor="start" x="268.825" y="-49.3" font-family="Times,serif" font-size="14.00">stock :integer</text>
<text text-anchor="start" x="268.825" y="-35.3" font-family="Times,serif" font-size="14.00">store_id :integer</text>
<text text-anchor="start" x="268.825" y="-21.3" font-family="Times,serif" font-size="14.00">created_at :timestamp without time zone</text>
<text text-anchor="start" x="268.825" y="-7.3" font-family="Times,serif" font-size="14.00">id :integer</text>
</g>
<!-- Store -->
<g id="node3" class="node"><title>Store</title>
<path fill="none" stroke="black" d="M272.825,-193.5C272.825,-193.5 496.55,-193.5 496.55,-193.5 502.55,-193.5 508.55,-199.5 508.55,-205.5 508.55,-205.5 508.55,-351.5 508.55,-351.5 508.55,-357.5 502.55,-363.5 496.55,-363.5 496.55,-363.5 272.825,-363.5 272.825,-363.5 266.825,-363.5 260.825,-357.5 260.825,-351.5 260.825,-351.5 260.825,-205.5 260.825,-205.5 260.825,-199.5 266.825,-193.5 272.825,-193.5"/>
<text text-anchor="middle" x="384.688" y="-348.3" font-family="Times,serif" font-size="14.00">Store</text>
<polyline fill="none" stroke="black" points="260.825,-341.5 508.55,-341.5 "/>
<text text-anchor="start" x="268.825" y="-326.3" font-family="Times,serif" font-size="14.00">updated_at :timestamp without time zone</text>
<text text-anchor="start" x="268.825" y="-312.3" font-family="Times,serif" font-size="14.00">name :character varying</text>
<text text-anchor="start" x="268.825" y="-298.3" font-family="Times,serif" font-size="14.00">description :text</text>
<text text-anchor="start" x="268.825" y="-284.3" font-family="Times,serif" font-size="14.00">photo :character varying</text>
<text text-anchor="start" x="268.825" y="-270.3" font-family="Times,serif" font-size="14.00">cover_photo :character varying</text>
<text text-anchor="start" x="268.825" y="-256.3" font-family="Times,serif" font-size="14.00">facebook_link :character varying</text>
<text text-anchor="start" x="268.825" y="-242.3" font-family="Times,serif" font-size="14.00">instagram_link :character varying</text>
<text text-anchor="start" x="268.825" y="-228.3" font-family="Times,serif" font-size="14.00">user_id :integer</text>
<text text-anchor="start" x="268.825" y="-214.3" font-family="Times,serif" font-size="14.00">created_at :timestamp without time zone</text>
<text text-anchor="start" x="268.825" y="-200.3" font-family="Times,serif" font-size="14.00">id :integer</text>
</g>
<!-- Store&#45;&gt;Product -->
<g id="edge1" class="edge"><title>Store&#45;&gt;Product</title>
<path fill="none" stroke="#b55b3a" d="M384.688,-184.978C384.688,-178.932 384.688,-172.854 384.688,-166.834"/>
<ellipse fill="none" stroke="#b55b3a" cx="384.688" cy="-189.243" rx="4" ry="4"/>
<polygon fill="#b55b3a" stroke="#b55b3a" points="384.688,-166.774 389.188,-156.773 384.688,-161.774 384.688,-156.774 384.688,-156.774 384.688,-156.774 384.688,-161.774 380.188,-156.774 384.688,-166.774 384.688,-166.774"/>
</g>
<!-- User -->
<g id="node4" class="node"><title>User</title>
<path fill="none" stroke="black" d="M237.053,-400.5C237.053,-400.5 532.323,-400.5 532.323,-400.5 538.323,-400.5 544.323,-406.5 544.323,-412.5 544.323,-412.5 544.323,-712.5 544.323,-712.5 544.323,-718.5 538.323,-724.5 532.323,-724.5 532.323,-724.5 237.053,-724.5 237.053,-724.5 231.053,-724.5 225.053,-718.5 225.053,-712.5 225.053,-712.5 225.053,-412.5 225.053,-412.5 225.053,-406.5 231.053,-400.5 237.053,-400.5"/>
<text text-anchor="middle" x="384.688" y="-709.3" font-family="Times,serif" font-size="14.00">User</text>
<polyline fill="none" stroke="black" points="225.053,-702.5 544.323,-702.5 "/>
<text text-anchor="start" x="233.053" y="-687.3" font-family="Times,serif" font-size="14.00">gender :integer</text>
<text text-anchor="start" x="233.053" y="-673.3" font-family="Times,serif" font-size="14.00">email :character varying</text>
<text text-anchor="start" x="233.053" y="-659.3" font-family="Times,serif" font-size="14.00">encrypted_password :character varying</text>
<text text-anchor="start" x="233.053" y="-645.3" font-family="Times,serif" font-size="14.00">reset_password_token :character varying</text>
<text text-anchor="start" x="233.053" y="-631.3" font-family="Times,serif" font-size="14.00">reset_password_sent_at :timestamp without time zone</text>
<text text-anchor="start" x="233.053" y="-617.3" font-family="Times,serif" font-size="14.00">remember_created_at :timestamp without time zone</text>
<text text-anchor="start" x="233.053" y="-603.3" font-family="Times,serif" font-size="14.00">sign_in_count :integer</text>
<text text-anchor="start" x="233.053" y="-589.3" font-family="Times,serif" font-size="14.00">current_sign_in_at :timestamp without time zone</text>
<text text-anchor="start" x="233.053" y="-575.3" font-family="Times,serif" font-size="14.00">last_sign_in_at :timestamp without time zone</text>
<text text-anchor="start" x="233.053" y="-561.3" font-family="Times,serif" font-size="14.00">current_sign_in_ip :inet</text>
<text text-anchor="start" x="233.053" y="-547.3" font-family="Times,serif" font-size="14.00">last_sign_in_ip :inet</text>
<text text-anchor="start" x="233.053" y="-533.3" font-family="Times,serif" font-size="14.00">created_at :timestamp without time zone</text>
<text text-anchor="start" x="233.053" y="-519.3" font-family="Times,serif" font-size="14.00">updated_at :timestamp without time zone</text>
<text text-anchor="start" x="233.053" y="-505.3" font-family="Times,serif" font-size="14.00">provider :character varying</text>
<text text-anchor="start" x="233.053" y="-491.3" font-family="Times,serif" font-size="14.00">uid :character varying</text>
<text text-anchor="start" x="233.053" y="-477.3" font-family="Times,serif" font-size="14.00">name :character varying</text>
<text text-anchor="start" x="233.053" y="-463.3" font-family="Times,serif" font-size="14.00">last_name :character varying</text>
<text text-anchor="start" x="233.053" y="-449.3" font-family="Times,serif" font-size="14.00">age :integer</text>
<text text-anchor="start" x="233.053" y="-435.3" font-family="Times,serif" font-size="14.00">phone_number :character varying</text>
<text text-anchor="start" x="233.053" y="-421.3" font-family="Times,serif" font-size="14.00">avatar :character varying</text>
<text text-anchor="start" x="233.053" y="-407.3" font-family="Times,serif" font-size="14.00">id :integer</text>
</g>
<!-- User&#45;&gt;Store -->
<g id="edge2" class="edge"><title>User&#45;&gt;Store</title>
<path fill="none" stroke="#6e8d2c" d="M384.688,-392.098C384.688,-385.248 384.688,-378.492 384.688,-371.898"/>
<ellipse fill="none" stroke="#6e8d2c" cx="384.688" cy="-396.321" rx="4" ry="4"/>
<ellipse fill="#6e8d2c" stroke="#6e8d2c" cx="384.688" cy="-367.636" rx="4" ry="4"/>
</g>
</g>
</svg>
