<?xml version="1.0" encoding="UTF-8" standalone="no"?>
<!DOCTYPE svg PUBLIC "-//W3C//DTD SVG 1.1//EN"
 "http://www.w3.org/Graphics/SVG/1.1/DTD/svg11.dtd">
<!-- Generated by graphviz version 2.38.0 (20140413.2041)
 -->
<!-- Title: models_diagram Pages: 1 -->
<svg width="826pt" height="1035pt"
 viewBox="0.00 0.00 825.72 1035.00" xmlns="http://www.w3.org/2000/svg" xmlns:xlink="http://www.w3.org/1999/xlink">
<g id="graph0" class="graph" transform="scale(1 1) rotate(0) translate(4 1031)">
<title>models_diagram</title>
<polygon fill="none" stroke="none" points="-4,4 -4,-1031 821.725,-1031 821.725,4 -4,4"/>
<!-- _diagram_info -->
<g id="node1" class="node"><title>_diagram_info</title>
<text text-anchor="start" x="36.1746" y="-886.6" font-family="Times,serif" font-size="13.00">Models diagram</text>
<text text-anchor="start" x="36.1746" y="-873.6" font-family="Times,serif" font-size="13.00">Date: May 02 2016 &#45; 16:50</text>
<text text-anchor="start" x="36.1746" y="-860.6" font-family="Times,serif" font-size="13.00">Migration version: 20160502001617</text>
<text text-anchor="start" x="36.1746" y="-847.6" font-family="Times,serif" font-size="13.00">Generated by RailRoady 1.4.2</text>
<text text-anchor="start" x="36.1746" y="-834.6" font-family="Times,serif" font-size="13.00">http://railroady.prestonlee.com</text>
</g>
<!-- Comment -->
<g id="node2" class="node"><title>Comment</title>
<path fill="none" stroke="black" d="M12,-137.5C12,-137.5 235.725,-137.5 235.725,-137.5 241.725,-137.5 247.725,-143.5 247.725,-149.5 247.725,-149.5 247.725,-253.5 247.725,-253.5 247.725,-259.5 241.725,-265.5 235.725,-265.5 235.725,-265.5 12,-265.5 12,-265.5 6,-265.5 0,-259.5 0,-253.5 0,-253.5 0,-149.5 0,-149.5 0,-143.5 6,-137.5 12,-137.5"/>
<text text-anchor="middle" x="123.862" y="-250.3" font-family="Times,serif" font-size="14.00">Comment</text>
<polyline fill="none" stroke="black" points="0,-243.5 247.725,-243.5 "/>
<text text-anchor="start" x="8" y="-228.3" font-family="Times,serif" font-size="14.00">content :text</text>
<text text-anchor="start" x="8" y="-214.3" font-family="Times,serif" font-size="14.00">commentable_id :integer</text>
<text text-anchor="start" x="8" y="-200.3" font-family="Times,serif" font-size="14.00">commentable_type :character varying</text>
<text text-anchor="start" x="8" y="-186.3" font-family="Times,serif" font-size="14.00">id :integer</text>
<text text-anchor="start" x="8" y="-172.3" font-family="Times,serif" font-size="14.00">user_id :integer</text>
<text text-anchor="start" x="8" y="-158.3" font-family="Times,serif" font-size="14.00">created_at :timestamp without time zone</text>
<text text-anchor="start" x="8" y="-144.3" font-family="Times,serif" font-size="14.00">updated_at :timestamp without time zone</text>
</g>
<!-- Like -->
<g id="node3" class="node"><title>Like</title>
<path fill="none" stroke="black" d="M582,-144.5C582,-144.5 805.725,-144.5 805.725,-144.5 811.725,-144.5 817.725,-150.5 817.725,-156.5 817.725,-156.5 817.725,-246.5 817.725,-246.5 817.725,-252.5 811.725,-258.5 805.725,-258.5 805.725,-258.5 582,-258.5 582,-258.5 576,-258.5 570,-252.5 570,-246.5 570,-246.5 570,-156.5 570,-156.5 570,-150.5 576,-144.5 582,-144.5"/>
<text text-anchor="middle" x="693.862" y="-243.3" font-family="Times,serif" font-size="14.00">Like</text>
<polyline fill="none" stroke="black" points="570,-236.5 817.725,-236.5 "/>
<text text-anchor="start" x="578" y="-221.3" font-family="Times,serif" font-size="14.00">id :integer</text>
<text text-anchor="start" x="578" y="-207.3" font-family="Times,serif" font-size="14.00">likeable_id :integer</text>
<text text-anchor="start" x="578" y="-193.3" font-family="Times,serif" font-size="14.00">likeable_type :character varying</text>
<text text-anchor="start" x="578" y="-179.3" font-family="Times,serif" font-size="14.00">user_id :integer</text>
<text text-anchor="start" x="578" y="-165.3" font-family="Times,serif" font-size="14.00">created_at :timestamp without time zone</text>
<text text-anchor="start" x="578" y="-151.3" font-family="Times,serif" font-size="14.00">updated_at :timestamp without time zone</text>
</g>
<!-- Product -->
<g id="node4" class="node"><title>Product</title>
<path fill="none" stroke="black" d="M301,-302.5C301,-302.5 524.725,-302.5 524.725,-302.5 530.725,-302.5 536.725,-308.5 536.725,-314.5 536.725,-314.5 536.725,-446.5 536.725,-446.5 536.725,-452.5 530.725,-458.5 524.725,-458.5 524.725,-458.5 301,-458.5 301,-458.5 295,-458.5 289,-452.5 289,-446.5 289,-446.5 289,-314.5 289,-314.5 289,-308.5 295,-302.5 301,-302.5"/>
<text text-anchor="middle" x="412.862" y="-443.3" font-family="Times,serif" font-size="14.00">Product</text>
<polyline fill="none" stroke="black" points="289,-436.5 536.725,-436.5 "/>
<text text-anchor="start" x="297" y="-421.3" font-family="Times,serif" font-size="14.00">updated_at :timestamp without time zone</text>
<text text-anchor="start" x="297" y="-407.3" font-family="Times,serif" font-size="14.00">name :character varying</text>
<text text-anchor="start" x="297" y="-393.3" font-family="Times,serif" font-size="14.00">description :text</text>
<text text-anchor="start" x="297" y="-379.3" font-family="Times,serif" font-size="14.00">photo :character varying</text>
<text text-anchor="start" x="297" y="-365.3" font-family="Times,serif" font-size="14.00">price :integer</text>
<text text-anchor="start" x="297" y="-351.3" font-family="Times,serif" font-size="14.00">stock :integer</text>
<text text-anchor="start" x="297" y="-337.3" font-family="Times,serif" font-size="14.00">store_id :integer</text>
<text text-anchor="start" x="297" y="-323.3" font-family="Times,serif" font-size="14.00">created_at :timestamp without time zone</text>
<text text-anchor="start" x="297" y="-309.3" font-family="Times,serif" font-size="14.00">id :integer</text>
</g>
<!-- Product&#45;&gt;Comment -->
<g id="edge1" class="edge"><title>Product&#45;&gt;Comment</title>
<path fill="none" stroke="#40e153" d="M281.396,-298.982C266.188,-289.669 250.787,-280.236 235.872,-271.101"/>
<ellipse fill="none" stroke="#40e153" cx="285.212" cy="-301.32" rx="4.00002" ry="4.00002"/>
<polygon fill="#40e153" stroke="#40e153" points="235.68,-270.984 229.503,-261.923 231.416,-268.372 227.152,-265.761 227.152,-265.761 227.152,-265.761 231.416,-268.372 224.802,-269.598 235.68,-270.984 235.68,-270.984"/>
</g>
<!-- Product&#45;&gt;Like -->
<g id="edge2" class="edge"><title>Product&#45;&gt;Like</title>
<path fill="none" stroke="#a8cd03" d="M542.159,-298.057C560.362,-286.591 578.819,-274.965 596.294,-263.957"/>
<ellipse fill="none" stroke="#a8cd03" cx="538.68" cy="-300.248" rx="4.00002" ry="4.00002"/>
<polygon fill="#a8cd03" stroke="#a8cd03" points="596.328,-263.936 607.188,-262.414 600.559,-261.271 604.789,-258.606 604.789,-258.606 604.789,-258.606 600.559,-261.271 602.391,-254.799 596.328,-263.936 596.328,-263.936"/>
</g>
<!-- ProductTag -->
<g id="node5" class="node"><title>ProductTag</title>
<path fill="none" stroke="black" d="M240,-0.5C240,-0.5 463.725,-0.5 463.725,-0.5 469.725,-0.5 475.725,-6.5 475.725,-12.5 475.725,-12.5 475.725,-88.5 475.725,-88.5 475.725,-94.5 469.725,-100.5 463.725,-100.5 463.725,-100.5 240,-100.5 240,-100.5 234,-100.5 228,-94.5 228,-88.5 228,-88.5 228,-12.5 228,-12.5 228,-6.5 234,-0.5 240,-0.5"/>
<text text-anchor="middle" x="351.862" y="-85.3" font-family="Times,serif" font-size="14.00">ProductTag</text>
<polyline fill="none" stroke="black" points="228,-78.5 475.725,-78.5 "/>
<text text-anchor="start" x="236" y="-63.3" font-family="Times,serif" font-size="14.00">id :integer</text>
<text text-anchor="start" x="236" y="-49.3" font-family="Times,serif" font-size="14.00">product_id :integer</text>
<text text-anchor="start" x="236" y="-35.3" font-family="Times,serif" font-size="14.00">tag_id :integer</text>
<text text-anchor="start" x="236" y="-21.3" font-family="Times,serif" font-size="14.00">created_at :timestamp without time zone</text>
<text text-anchor="start" x="236" y="-7.3" font-family="Times,serif" font-size="14.00">updated_at :timestamp without time zone</text>
</g>
<!-- Product&#45;&gt;ProductTag -->
<g id="edge3" class="edge"><title>Product&#45;&gt;ProductTag</title>
<path fill="none" stroke="#88ebb5" d="M312.228,-295.944C305.323,-286.534 299.34,-276.519 294.862,-266 272.408,-213.247 278.248,-191.873 294.862,-137 297.732,-127.524 302.036,-118.138 307.018,-109.248"/>
<ellipse fill="none" stroke="#88ebb5" cx="314.714" cy="-299.186" rx="4.00002" ry="4.00002"/>
<polygon fill="#88ebb5" stroke="#88ebb5" points="307.086,-109.134 316.065,-102.84 309.642,-104.837 312.198,-100.539 312.198,-100.539 312.198,-100.539 309.642,-104.837 308.33,-98.2388 307.086,-109.134 307.086,-109.134"/>
</g>
<!-- Tag -->
<g id="node7" class="node"><title>Tag</title>
<path fill="none" stroke="black" d="M316,-158.5C316,-158.5 539.725,-158.5 539.725,-158.5 545.725,-158.5 551.725,-164.5 551.725,-170.5 551.725,-170.5 551.725,-232.5 551.725,-232.5 551.725,-238.5 545.725,-244.5 539.725,-244.5 539.725,-244.5 316,-244.5 316,-244.5 310,-244.5 304,-238.5 304,-232.5 304,-232.5 304,-170.5 304,-170.5 304,-164.5 310,-158.5 316,-158.5"/>
<text text-anchor="middle" x="427.862" y="-229.3" font-family="Times,serif" font-size="14.00">Tag</text>
<polyline fill="none" stroke="black" points="304,-222.5 551.725,-222.5 "/>
<text text-anchor="start" x="312" y="-207.3" font-family="Times,serif" font-size="14.00">id :integer</text>
<text text-anchor="start" x="312" y="-193.3" font-family="Times,serif" font-size="14.00">name :character varying</text>
<text text-anchor="start" x="312" y="-179.3" font-family="Times,serif" font-size="14.00">created_at :timestamp without time zone</text>
<text text-anchor="start" x="312" y="-165.3" font-family="Times,serif" font-size="14.00">updated_at :timestamp without time zone</text>
</g>
<!-- Product&#45;&gt;Tag -->
<g id="edge4" class="edge"><title>Product&#45;&gt;Tag</title>
<path fill="none" stroke="#d83a3f" d="M420.265,-292.149C421.345,-279.406 422.427,-266.631 423.423,-254.882"/>
<polygon fill="#d83a3f" stroke="#d83a3f" points="420.242,-292.416 414.914,-302 419.82,-297.398 419.398,-302.38 419.398,-302.38 419.398,-302.38 419.82,-297.398 423.882,-302.76 420.242,-292.416 420.242,-292.416"/>
<polygon fill="#d83a3f" stroke="#d83a3f" points="423.429,-254.811 428.758,-245.227 423.851,-249.829 424.274,-244.847 424.274,-244.847 424.274,-244.847 423.851,-249.829 419.79,-244.467 423.429,-254.811 423.429,-254.811"/>
</g>
<!-- Store -->
<g id="node6" class="node"><title>Store</title>
<path fill="none" stroke="black" d="M301,-495.5C301,-495.5 524.725,-495.5 524.725,-495.5 530.725,-495.5 536.725,-501.5 536.725,-507.5 536.725,-507.5 536.725,-653.5 536.725,-653.5 536.725,-659.5 530.725,-665.5 524.725,-665.5 524.725,-665.5 301,-665.5 301,-665.5 295,-665.5 289,-659.5 289,-653.5 289,-653.5 289,-507.5 289,-507.5 289,-501.5 295,-495.5 301,-495.5"/>
<text text-anchor="middle" x="412.862" y="-650.3" font-family="Times,serif" font-size="14.00">Store</text>
<polyline fill="none" stroke="black" points="289,-643.5 536.725,-643.5 "/>
<text text-anchor="start" x="297" y="-628.3" font-family="Times,serif" font-size="14.00">updated_at :timestamp without time zone</text>
<text text-anchor="start" x="297" y="-614.3" font-family="Times,serif" font-size="14.00">name :character varying</text>
<text text-anchor="start" x="297" y="-600.3" font-family="Times,serif" font-size="14.00">description :text</text>
<text text-anchor="start" x="297" y="-586.3" font-family="Times,serif" font-size="14.00">photo :character varying</text>
<text text-anchor="start" x="297" y="-572.3" font-family="Times,serif" font-size="14.00">cover_photo :character varying</text>
<text text-anchor="start" x="297" y="-558.3" font-family="Times,serif" font-size="14.00">facebook_link :character varying</text>
<text text-anchor="start" x="297" y="-544.3" font-family="Times,serif" font-size="14.00">instagram_link :character varying</text>
<text text-anchor="start" x="297" y="-530.3" font-family="Times,serif" font-size="14.00">user_id :integer</text>
<text text-anchor="start" x="297" y="-516.3" font-family="Times,serif" font-size="14.00">created_at :timestamp without time zone</text>
<text text-anchor="start" x="297" y="-502.3" font-family="Times,serif" font-size="14.00">id :integer</text>
</g>
<!-- Store&#45;&gt;Comment -->
<g id="edge6" class="edge"><title>Store&#45;&gt;Comment</title>
<path fill="none" stroke="#555b4b" d="M306.791,-489.689C297.222,-479.76 288.064,-469.449 279.862,-459 230.872,-396.581 236.876,-369.312 194.862,-302 189.141,-292.834 182.888,-283.379 176.539,-274.111"/>
<ellipse fill="none" stroke="#555b4b" cx="309.67" cy="-492.631" rx="4.00002" ry="4.00002"/>
<polygon fill="#555b4b" stroke="#555b4b" points="176.386,-273.889 174.396,-263.106 173.541,-269.778 170.695,-265.667 170.695,-265.667 170.695,-265.667 173.541,-269.778 166.995,-268.227 176.386,-273.889 176.386,-273.889"/>
</g>
<!-- Store&#45;&gt;Like -->
<g id="edge7" class="edge"><title>Store&#45;&gt;Like</title>
<path fill="none" stroke="#6aaff6" d="M518.64,-489.455C528.268,-479.573 537.52,-469.337 545.862,-459 594.087,-399.243 636.419,-321.903 663.318,-267.838"/>
<ellipse fill="none" stroke="#6aaff6" cx="515.744" cy="-492.386" rx="4.00002" ry="4.00002"/>
<polygon fill="#6aaff6" stroke="#6aaff6" points="663.404,-267.664 671.865,-260.688 665.617,-263.18 667.83,-258.696 667.83,-258.696 667.83,-258.696 665.617,-263.18 663.794,-256.705 663.404,-267.664 663.404,-267.664"/>
</g>
<!-- Store&#45;&gt;Product -->
<g id="edge5" class="edge"><title>Store&#45;&gt;Product</title>
<path fill="none" stroke="#472f2f" d="M412.862,-486.978C412.862,-480.932 412.862,-474.854 412.862,-468.834"/>
<ellipse fill="none" stroke="#472f2f" cx="412.862" cy="-491.243" rx="4" ry="4"/>
<polygon fill="#472f2f" stroke="#472f2f" points="412.862,-468.774 417.362,-458.773 412.862,-463.774 412.862,-458.774 412.862,-458.774 412.862,-458.774 412.862,-463.774 408.362,-458.774 412.862,-468.774 412.862,-468.774"/>
</g>
<!-- Tag&#45;&gt;ProductTag -->
<g id="edge8" class="edge"><title>Tag&#45;&gt;ProductTag</title>
<path fill="none" stroke="#7ed361" d="M402.574,-150.921C395.884,-137.805 388.6,-123.525 381.693,-109.985"/>
<ellipse fill="none" stroke="#7ed361" cx="404.47" cy="-154.638" rx="4.00002" ry="4.00002"/>
<polygon fill="#7ed361" stroke="#7ed361" points="381.528,-109.661 380.993,-98.7081 379.256,-105.207 376.985,-100.753 376.985,-100.753 376.985,-100.753 379.256,-105.207 372.976,-102.797 381.528,-109.661 381.528,-109.661"/>
</g>
<!-- User -->
<g id="node8" class="node"><title>User</title>
<path fill="none" stroke="black" d="M265.228,-702.5C265.228,-702.5 560.497,-702.5 560.497,-702.5 566.497,-702.5 572.497,-708.5 572.497,-714.5 572.497,-714.5 572.497,-1014.5 572.497,-1014.5 572.497,-1020.5 566.497,-1026.5 560.497,-1026.5 560.497,-1026.5 265.228,-1026.5 265.228,-1026.5 259.228,-1026.5 253.228,-1020.5 253.228,-1014.5 253.228,-1014.5 253.228,-714.5 253.228,-714.5 253.228,-708.5 259.228,-702.5 265.228,-702.5"/>
<text text-anchor="middle" x="412.862" y="-1011.3" font-family="Times,serif" font-size="14.00">User</text>
<polyline fill="none" stroke="black" points="253.228,-1004.5 572.497,-1004.5 "/>
<text text-anchor="start" x="261.228" y="-989.3" font-family="Times,serif" font-size="14.00">gender :integer</text>
<text text-anchor="start" x="261.228" y="-975.3" font-family="Times,serif" font-size="14.00">email :character varying</text>
<text text-anchor="start" x="261.228" y="-961.3" font-family="Times,serif" font-size="14.00">encrypted_password :character varying</text>
<text text-anchor="start" x="261.228" y="-947.3" font-family="Times,serif" font-size="14.00">reset_password_token :character varying</text>
<text text-anchor="start" x="261.228" y="-933.3" font-family="Times,serif" font-size="14.00">reset_password_sent_at :timestamp without time zone</text>
<text text-anchor="start" x="261.228" y="-919.3" font-family="Times,serif" font-size="14.00">remember_created_at :timestamp without time zone</text>
<text text-anchor="start" x="261.228" y="-905.3" font-family="Times,serif" font-size="14.00">sign_in_count :integer</text>
<text text-anchor="start" x="261.228" y="-891.3" font-family="Times,serif" font-size="14.00">current_sign_in_at :timestamp without time zone</text>
<text text-anchor="start" x="261.228" y="-877.3" font-family="Times,serif" font-size="14.00">last_sign_in_at :timestamp without time zone</text>
<text text-anchor="start" x="261.228" y="-863.3" font-family="Times,serif" font-size="14.00">current_sign_in_ip :inet</text>
<text text-anchor="start" x="261.228" y="-849.3" font-family="Times,serif" font-size="14.00">last_sign_in_ip :inet</text>
<text text-anchor="start" x="261.228" y="-835.3" font-family="Times,serif" font-size="14.00">created_at :timestamp without time zone</text>
<text text-anchor="start" x="261.228" y="-821.3" font-family="Times,serif" font-size="14.00">updated_at :timestamp without time zone</text>
<text text-anchor="start" x="261.228" y="-807.3" font-family="Times,serif" font-size="14.00">provider :character varying</text>
<text text-anchor="start" x="261.228" y="-793.3" font-family="Times,serif" font-size="14.00">uid :character varying</text>
<text text-anchor="start" x="261.228" y="-779.3" font-family="Times,serif" font-size="14.00">name :character varying</text>
<text text-anchor="start" x="261.228" y="-765.3" font-family="Times,serif" font-size="14.00">last_name :character varying</text>
<text text-anchor="start" x="261.228" y="-751.3" font-family="Times,serif" font-size="14.00">age :integer</text>
<text text-anchor="start" x="261.228" y="-737.3" font-family="Times,serif" font-size="14.00">phone_number :character varying</text>
<text text-anchor="start" x="261.228" y="-723.3" font-family="Times,serif" font-size="14.00">avatar :character varying</text>
<text text-anchor="start" x="261.228" y="-709.3" font-family="Times,serif" font-size="14.00">id :integer</text>
</g>
<!-- User&#45;&gt;Comment -->
<g id="edge11" class="edge"><title>User&#45;&gt;Comment</title>
<path fill="none" stroke="#4889cf" d="M296.335,-695.261C290.574,-685.476 285.04,-675.68 279.862,-666 210.414,-536.156 163.466,-369.515 140.405,-275.527"/>
<ellipse fill="none" stroke="#4889cf" cx="298.525" cy="-698.944" rx="4.00002" ry="4.00002"/>
<polygon fill="#4889cf" stroke="#4889cf" points="140.342,-275.264 142.353,-264.484 139.161,-270.406 137.98,-265.547 137.98,-265.547 137.98,-265.547 139.161,-270.406 133.607,-266.61 140.342,-275.264 140.342,-275.264"/>
</g>
<!-- User&#45;&gt;Like -->
<g id="edge10" class="edge"><title>User&#45;&gt;Like</title>
<path fill="none" stroke="#88d91c" d="M530.589,-695.294C536.015,-685.534 541.151,-675.731 545.862,-666 611.208,-531.023 657.098,-360.349 679.09,-268.401"/>
<ellipse fill="none" stroke="#88d91c" cx="528.553" cy="-698.907" rx="4.00002" ry="4.00002"/>
<polygon fill="#88d91c" stroke="#88d91c" points="679.09,-268.4 685.777,-259.708 680.244,-263.535 681.398,-258.67 681.398,-258.67 681.398,-258.67 680.244,-263.535 677.02,-257.631 679.09,-268.4 679.09,-268.4"/>
</g>
<!-- User&#45;&gt;Store -->
<g id="edge9" class="edge"><title>User&#45;&gt;Store</title>
<path fill="none" stroke="#53c8cb" d="M412.862,-694.098C412.862,-687.248 412.862,-680.492 412.862,-673.898"/>
<ellipse fill="none" stroke="#53c8cb" cx="412.862" cy="-698.321" rx="4" ry="4"/>
<ellipse fill="#53c8cb" stroke="#53c8cb" cx="412.862" cy="-669.636" rx="4" ry="4"/>
</g>
</g>
</svg>
