<?xml version="1.0" encoding="UTF-8" standalone="no"?>
<!DOCTYPE svg PUBLIC "-//W3C//DTD SVG 1.1//EN"
 "http://www.w3.org/Graphics/SVG/1.1/DTD/svg11.dtd">
<!-- Generated by graphviz version 2.38.0 (20140413.2041)
 -->
<!-- Title: models_diagram Pages: 1 -->
<svg width="298pt" height="225pt"
 viewBox="0.00 0.00 298.31 225.00" xmlns="http://www.w3.org/2000/svg" xmlns:xlink="http://www.w3.org/1999/xlink">
<g id="graph0" class="graph" transform="scale(1 1) rotate(0) translate(4 221)">
<title>models_diagram</title>
<polygon fill="none" stroke="none" points="-4,4 -4,-221 294.305,-221 294.305,4 -4,4"/>
<!-- _diagram_info -->
<g id="node1" class="node"><title>_diagram_info</title>
<text text-anchor="start" x="8" y="-202.6" font-family="Times,serif" font-size="13.00">Models diagram</text>
<text text-anchor="start" x="8" y="-189.6" font-family="Times,serif" font-size="13.00">Date: Apr 28 2016 &#45; 21:39</text>
<text text-anchor="start" x="8" y="-176.6" font-family="Times,serif" font-size="13.00">Migration version: 20160429003521</text>
<text text-anchor="start" x="8" y="-163.6" font-family="Times,serif" font-size="13.00">Generated by RailRoady 1.4.2</text>
<text text-anchor="start" x="8" y="-150.6" font-family="Times,serif" font-size="13.00">http://railroady.prestonlee.com</text>
</g>
<!-- Product -->
<g id="node2" class="node"><title>Product</title>
<ellipse fill="none" stroke="black" cx="252.688" cy="-18" rx="37.7352" ry="18"/>
<text text-anchor="middle" x="252.688" y="-13.8" font-family="Times,serif" font-size="14.00">Product</text>
</g>
<!-- Store -->
<g id="node3" class="node"><title>Store</title>
<ellipse fill="none" stroke="black" cx="252.688" cy="-90" rx="28.5497" ry="18"/>
<text text-anchor="middle" x="252.688" y="-85.8" font-family="Times,serif" font-size="14.00">Store</text>
</g>
<!-- Store&#45;&gt;Product -->
<g id="edge1" class="edge"><title>Store&#45;&gt;Product</title>
<path fill="none" stroke="#624d48" d="M252.688,-63.6398C252.688,-58.0629 252.688,-52.1319 252.688,-46.4761"/>
<ellipse fill="none" stroke="#624d48" cx="252.688" cy="-67.6966" rx="4" ry="4"/>
<polygon fill="#624d48" stroke="#624d48" points="252.688,-46.1043 257.188,-36.1043 252.688,-41.1043 252.688,-36.1043 252.688,-36.1043 252.688,-36.1043 252.688,-41.1043 248.188,-36.1044 252.688,-46.1043 252.688,-46.1043"/>
</g>
<!-- User -->
<g id="node4" class="node"><title>User</title>
<ellipse fill="none" stroke="black" cx="252.688" cy="-180.5" rx="27" ry="18"/>
<text text-anchor="middle" x="252.688" y="-176.3" font-family="Times,serif" font-size="14.00">User</text>
</g>
<!-- User&#45;&gt;Store -->
<g id="edge2" class="edge"><title>User&#45;&gt;Store</title>
<path fill="none" stroke="#4d4fa0" d="M252.688,-154.189C252.688,-142.277 252.688,-128.109 252.688,-116.21"/>
<ellipse fill="none" stroke="#4d4fa0" cx="252.688" cy="-158.436" rx="4" ry="4"/>
<ellipse fill="#4d4fa0" stroke="#4d4fa0" cx="252.688" cy="-112.011" rx="4" ry="4"/>
</g>
</g>
</svg>
