<?xml version="1.0" encoding="UTF-8" standalone="no"?>
<!DOCTYPE svg PUBLIC "-//W3C//DTD SVG 1.1//EN"
 "http://www.w3.org/Graphics/SVG/1.1/DTD/svg11.dtd">
<!-- Generated by graphviz version 2.38.0 (20140413.2041)
 -->
<!-- Title: models_diagram Pages: 1 -->
<svg width="1473pt" height="1093pt"
 viewBox="0.00 0.00 1472.99 1093.00" xmlns="http://www.w3.org/2000/svg" xmlns:xlink="http://www.w3.org/1999/xlink">
<g id="graph0" class="graph" transform="scale(1 1) rotate(0) translate(4 1089)">
<title>models_diagram</title>
<polygon fill="none" stroke="none" points="-4,4 -4,-1089 1468.99,-1089 1468.99,4 -4,4"/>
<!-- _diagram_info -->
<g id="node1" class="node"><title>_diagram_info</title>
<text text-anchor="start" x="67.4366" y="-1028.6" font-family="Times,serif" font-size="13.00">Models diagram</text>
<text text-anchor="start" x="67.4366" y="-1015.6" font-family="Times,serif" font-size="13.00">Date: May 17 2016 &#45; 20:49</text>
<text text-anchor="start" x="67.4366" y="-1002.6" font-family="Times,serif" font-size="13.00">Migration version: 20160517234613</text>
<text text-anchor="start" x="67.4366" y="-989.6" font-family="Times,serif" font-size="13.00">Generated by RailRoady 1.4.2</text>
<text text-anchor="start" x="67.4366" y="-976.6" font-family="Times,serif" font-size="13.00">http://railroady.prestonlee.com</text>
</g>
<!-- Ability -->
<g id="node2" class="node"><title>Ability</title>
<polygon fill="none" stroke="black" points="285.29,-984.5 285.29,-1028.5 340.959,-1028.5 340.959,-984.5 285.29,-984.5"/>
<text text-anchor="middle" x="313.124" y="-1013.3" font-family="Times,serif" font-size="14.00">Ability</text>
<polyline fill="none" stroke="black" points="285.29,-1006.5 340.959,-1006.5 "/>
<text text-anchor="middle" x="313.124" y="-991.3" font-family="Times,serif" font-size="14.00"> </text>
</g>
<!-- Comment -->
<g id="node3" class="node"><title>Comment</title>
<path fill="none" stroke="black" d="M551.262,-152.5C551.262,-152.5 774.987,-152.5 774.987,-152.5 780.987,-152.5 786.987,-158.5 786.987,-164.5 786.987,-164.5 786.987,-268.5 786.987,-268.5 786.987,-274.5 780.987,-280.5 774.987,-280.5 774.987,-280.5 551.262,-280.5 551.262,-280.5 545.262,-280.5 539.262,-274.5 539.262,-268.5 539.262,-268.5 539.262,-164.5 539.262,-164.5 539.262,-158.5 545.262,-152.5 551.262,-152.5"/>
<text text-anchor="middle" x="663.124" y="-265.3" font-family="Times,serif" font-size="14.00">Comment</text>
<polyline fill="none" stroke="black" points="539.262,-258.5 786.987,-258.5 "/>
<text text-anchor="start" x="547.262" y="-243.3" font-family="Times,serif" font-size="14.00">content :text</text>
<text text-anchor="start" x="547.262" y="-229.3" font-family="Times,serif" font-size="14.00">commentable_id :integer</text>
<text text-anchor="start" x="547.262" y="-215.3" font-family="Times,serif" font-size="14.00">commentable_type :character varying</text>
<text text-anchor="start" x="547.262" y="-201.3" font-family="Times,serif" font-size="14.00">id :integer</text>
<text text-anchor="start" x="547.262" y="-187.3" font-family="Times,serif" font-size="14.00">user_id :integer</text>
<text text-anchor="start" x="547.262" y="-173.3" font-family="Times,serif" font-size="14.00">created_at :timestamp without time zone</text>
<text text-anchor="start" x="547.262" y="-159.3" font-family="Times,serif" font-size="14.00">updated_at :timestamp without time zone</text>
</g>
<!-- Like -->
<g id="node4" class="node"><title>Like</title>
<path fill="none" stroke="black" d="M817.262,-159.5C817.262,-159.5 1040.99,-159.5 1040.99,-159.5 1046.99,-159.5 1052.99,-165.5 1052.99,-171.5 1052.99,-171.5 1052.99,-261.5 1052.99,-261.5 1052.99,-267.5 1046.99,-273.5 1040.99,-273.5 1040.99,-273.5 817.262,-273.5 817.262,-273.5 811.262,-273.5 805.262,-267.5 805.262,-261.5 805.262,-261.5 805.262,-171.5 805.262,-171.5 805.262,-165.5 811.262,-159.5 817.262,-159.5"/>
<text text-anchor="middle" x="929.124" y="-258.3" font-family="Times,serif" font-size="14.00">Like</text>
<polyline fill="none" stroke="black" points="805.262,-251.5 1052.99,-251.5 "/>
<text text-anchor="start" x="813.262" y="-236.3" font-family="Times,serif" font-size="14.00">id :integer</text>
<text text-anchor="start" x="813.262" y="-222.3" font-family="Times,serif" font-size="14.00">likeable_id :integer</text>
<text text-anchor="start" x="813.262" y="-208.3" font-family="Times,serif" font-size="14.00">likeable_type :character varying</text>
<text text-anchor="start" x="813.262" y="-194.3" font-family="Times,serif" font-size="14.00">user_id :integer</text>
<text text-anchor="start" x="813.262" y="-180.3" font-family="Times,serif" font-size="14.00">created_at :timestamp without time zone</text>
<text text-anchor="start" x="813.262" y="-166.3" font-family="Times,serif" font-size="14.00">updated_at :timestamp without time zone</text>
</g>
<!-- Line -->
<g id="node5" class="node"><title>Line</title>
<path fill="none" stroke="black" d="M1191.26,-963.5C1191.26,-963.5 1414.99,-963.5 1414.99,-963.5 1420.99,-963.5 1426.99,-969.5 1426.99,-975.5 1426.99,-975.5 1426.99,-1037.5 1426.99,-1037.5 1426.99,-1043.5 1420.99,-1049.5 1414.99,-1049.5 1414.99,-1049.5 1191.26,-1049.5 1191.26,-1049.5 1185.26,-1049.5 1179.26,-1043.5 1179.26,-1037.5 1179.26,-1037.5 1179.26,-975.5 1179.26,-975.5 1179.26,-969.5 1185.26,-963.5 1191.26,-963.5"/>
<text text-anchor="middle" x="1303.12" y="-1034.3" font-family="Times,serif" font-size="14.00">Line</text>
<polyline fill="none" stroke="black" points="1179.26,-1027.5 1426.99,-1027.5 "/>
<text text-anchor="start" x="1187.26" y="-1012.3" font-family="Times,serif" font-size="14.00">id :integer</text>
<text text-anchor="start" x="1187.26" y="-998.3" font-family="Times,serif" font-size="14.00">name :character varying</text>
<text text-anchor="start" x="1187.26" y="-984.3" font-family="Times,serif" font-size="14.00">created_at :timestamp without time zone</text>
<text text-anchor="start" x="1187.26" y="-970.3" font-family="Times,serif" font-size="14.00">updated_at :timestamp without time zone</text>
</g>
<!-- Station -->
<g id="node8" class="node"><title>Station</title>
<path fill="none" stroke="black" d="M1077.26,-658.5C1077.26,-658.5 1300.99,-658.5 1300.99,-658.5 1306.99,-658.5 1312.99,-664.5 1312.99,-670.5 1312.99,-670.5 1312.99,-760.5 1312.99,-760.5 1312.99,-766.5 1306.99,-772.5 1300.99,-772.5 1300.99,-772.5 1077.26,-772.5 1077.26,-772.5 1071.26,-772.5 1065.26,-766.5 1065.26,-760.5 1065.26,-760.5 1065.26,-670.5 1065.26,-670.5 1065.26,-664.5 1071.26,-658.5 1077.26,-658.5"/>
<text text-anchor="middle" x="1189.12" y="-757.3" font-family="Times,serif" font-size="14.00">Station</text>
<polyline fill="none" stroke="black" points="1065.26,-750.5 1312.99,-750.5 "/>
<text text-anchor="start" x="1073.26" y="-735.3" font-family="Times,serif" font-size="14.00">id :integer</text>
<text text-anchor="start" x="1073.26" y="-721.3" font-family="Times,serif" font-size="14.00">name :character varying</text>
<text text-anchor="start" x="1073.26" y="-707.3" font-family="Times,serif" font-size="14.00">latitude :double precision</text>
<text text-anchor="start" x="1073.26" y="-693.3" font-family="Times,serif" font-size="14.00">longitude :double precision</text>
<text text-anchor="start" x="1073.26" y="-679.3" font-family="Times,serif" font-size="14.00">created_at :timestamp without time zone</text>
<text text-anchor="start" x="1073.26" y="-665.3" font-family="Times,serif" font-size="14.00">updated_at :timestamp without time zone</text>
</g>
<!-- Line&#45;&gt;Station -->
<g id="edge2" class="edge"><title>Line&#45;&gt;Station</title>
<path fill="none" stroke="#2fcd93" d="M1282.8,-953.973C1263.88,-906.004 1235.58,-834.277 1215.04,-782.21"/>
<polygon fill="#2fcd93" stroke="#2fcd93" points="1282.88,-954.174 1282.36,-965.128 1284.71,-958.826 1286.55,-963.477 1286.55,-963.477 1286.55,-963.477 1284.71,-958.826 1290.73,-961.826 1282.88,-954.174 1282.88,-954.174"/>
<polygon fill="#2fcd93" stroke="#2fcd93" points="1214.97,-782.029 1215.49,-771.075 1213.14,-777.378 1211.3,-772.726 1211.3,-772.726 1211.3,-772.726 1213.14,-777.378 1207.12,-774.378 1214.97,-782.029 1214.97,-782.029"/>
</g>
<!-- StationLine -->
<g id="node9" class="node"><title>StationLine</title>
<path fill="none" stroke="black" d="M1229.26,-360.5C1229.26,-360.5 1452.99,-360.5 1452.99,-360.5 1458.99,-360.5 1464.99,-366.5 1464.99,-372.5 1464.99,-372.5 1464.99,-448.5 1464.99,-448.5 1464.99,-454.5 1458.99,-460.5 1452.99,-460.5 1452.99,-460.5 1229.26,-460.5 1229.26,-460.5 1223.26,-460.5 1217.26,-454.5 1217.26,-448.5 1217.26,-448.5 1217.26,-372.5 1217.26,-372.5 1217.26,-366.5 1223.26,-360.5 1229.26,-360.5"/>
<text text-anchor="middle" x="1341.12" y="-445.3" font-family="Times,serif" font-size="14.00">StationLine</text>
<polyline fill="none" stroke="black" points="1217.26,-438.5 1464.99,-438.5 "/>
<text text-anchor="start" x="1225.26" y="-423.3" font-family="Times,serif" font-size="14.00">id :integer</text>
<text text-anchor="start" x="1225.26" y="-409.3" font-family="Times,serif" font-size="14.00">station_id :integer</text>
<text text-anchor="start" x="1225.26" y="-395.3" font-family="Times,serif" font-size="14.00">line_id :integer</text>
<text text-anchor="start" x="1225.26" y="-381.3" font-family="Times,serif" font-size="14.00">created_at :timestamp without time zone</text>
<text text-anchor="start" x="1225.26" y="-367.3" font-family="Times,serif" font-size="14.00">updated_at :timestamp without time zone</text>
</g>
<!-- Line&#45;&gt;StationLine -->
<g id="edge1" class="edge"><title>Line&#45;&gt;StationLine</title>
<path fill="none" stroke="#3aac77" d="M1311.87,-955.358C1315.62,-931.928 1319.7,-903.611 1322.12,-878 1335.93,-732.069 1339.71,-559.523 1340.74,-470.785"/>
<ellipse fill="none" stroke="#3aac77" cx="1311.2" cy="-959.481" rx="4.00001" ry="4.00001"/>
<polygon fill="#3aac77" stroke="#3aac77" points="1340.74,-470.645 1345.35,-460.695 1340.8,-465.646 1340.85,-460.646 1340.85,-460.646 1340.85,-460.646 1340.8,-465.646 1336.35,-460.597 1340.74,-470.645 1340.74,-470.645"/>
</g>
<!-- Product -->
<g id="node6" class="node"><title>Product</title>
<path fill="none" stroke="black" d="M371.262,-928.5C371.262,-928.5 594.987,-928.5 594.987,-928.5 600.987,-928.5 606.987,-934.5 606.987,-940.5 606.987,-940.5 606.987,-1072.5 606.987,-1072.5 606.987,-1078.5 600.987,-1084.5 594.987,-1084.5 594.987,-1084.5 371.262,-1084.5 371.262,-1084.5 365.262,-1084.5 359.262,-1078.5 359.262,-1072.5 359.262,-1072.5 359.262,-940.5 359.262,-940.5 359.262,-934.5 365.262,-928.5 371.262,-928.5"/>
<text text-anchor="middle" x="483.124" y="-1069.3" font-family="Times,serif" font-size="14.00">Product</text>
<polyline fill="none" stroke="black" points="359.262,-1062.5 606.987,-1062.5 "/>
<text text-anchor="start" x="367.262" y="-1047.3" font-family="Times,serif" font-size="14.00">updated_at :timestamp without time zone</text>
<text text-anchor="start" x="367.262" y="-1033.3" font-family="Times,serif" font-size="14.00">name :character varying</text>
<text text-anchor="start" x="367.262" y="-1019.3" font-family="Times,serif" font-size="14.00">description :text</text>
<text text-anchor="start" x="367.262" y="-1005.3" font-family="Times,serif" font-size="14.00">photo :character varying</text>
<text text-anchor="start" x="367.262" y="-991.3" font-family="Times,serif" font-size="14.00">price :integer</text>
<text text-anchor="start" x="367.262" y="-977.3" font-family="Times,serif" font-size="14.00">stock :integer</text>
<text text-anchor="start" x="367.262" y="-963.3" font-family="Times,serif" font-size="14.00">store_id :integer</text>
<text text-anchor="start" x="367.262" y="-949.3" font-family="Times,serif" font-size="14.00">created_at :timestamp without time zone</text>
<text text-anchor="start" x="367.262" y="-935.3" font-family="Times,serif" font-size="14.00">id :integer</text>
</g>
<!-- Product&#45;&gt;Comment -->
<g id="edge3" class="edge"><title>Product&#45;&gt;Comment</title>
<path fill="none" stroke="#6e188d" d="M539.213,-921.14C546.579,-907.178 553.25,-892.512 558.124,-878 604.431,-740.141 573.421,-696.645 596.124,-553 610.478,-462.179 631.972,-358.518 646.722,-290.754"/>
<ellipse fill="none" stroke="#6e188d" cx="537.205" cy="-924.854" rx="4.00002" ry="4.00002"/>
<polygon fill="#6e188d" stroke="#6e188d" points="646.804,-290.379 653.335,-281.569 647.871,-285.494 648.938,-280.609 648.938,-280.609 648.938,-280.609 647.871,-285.494 644.542,-279.649 646.804,-290.379 646.804,-290.379"/>
</g>
<!-- Product&#45;&gt;Like -->
<g id="edge4" class="edge"><title>Product&#45;&gt;Like</title>
<path fill="none" stroke="#e42b17" d="M615.3,-991.786C747.686,-974.693 936.872,-939.897 973.124,-878 1098.91,-663.232 1019.82,-563.026 976.124,-318 974.037,-306.297 970.224,-294.395 965.64,-283.071"/>
<ellipse fill="none" stroke="#e42b17" cx="611.029" cy="-992.331" rx="4.00001" ry="4.00001"/>
<polygon fill="#e42b17" stroke="#e42b17" points="965.568,-282.903 965.764,-271.938 963.598,-278.307 961.628,-273.711 961.628,-273.711 961.628,-273.711 963.598,-278.307 957.492,-275.484 965.568,-282.903 965.568,-282.903"/>
</g>
<!-- ProductWishlist -->
<g id="node7" class="node"><title>ProductWishlist</title>
<path fill="none" stroke="black" d="M47.262,-0.5C47.262,-0.5 270.987,-0.5 270.987,-0.5 276.987,-0.5 282.987,-6.5 282.987,-12.5 282.987,-12.5 282.987,-102.5 282.987,-102.5 282.987,-108.5 276.987,-114.5 270.987,-114.5 270.987,-114.5 47.262,-114.5 47.262,-114.5 41.262,-114.5 35.262,-108.5 35.262,-102.5 35.262,-102.5 35.262,-12.5 35.262,-12.5 35.262,-6.5 41.262,-0.5 47.262,-0.5"/>
<text text-anchor="middle" x="159.124" y="-99.3" font-family="Times,serif" font-size="14.00">ProductWishlist</text>
<polyline fill="none" stroke="black" points="35.262,-92.5 282.987,-92.5 "/>
<text text-anchor="start" x="43.262" y="-77.3" font-family="Times,serif" font-size="14.00">id :integer</text>
<text text-anchor="start" x="43.262" y="-63.3" font-family="Times,serif" font-size="14.00">user_wishlist_id :integer</text>
<text text-anchor="start" x="43.262" y="-49.3" font-family="Times,serif" font-size="14.00">product_id :integer</text>
<text text-anchor="start" x="43.262" y="-35.3" font-family="Times,serif" font-size="14.00">created_at :timestamp without time zone</text>
<text text-anchor="start" x="43.262" y="-21.3" font-family="Times,serif" font-size="14.00">updated_at :timestamp without time zone</text>
<text text-anchor="start" x="43.262" y="-7.3" font-family="Times,serif" font-size="14.00">wishlist_id :integer</text>
</g>
<!-- Product&#45;&gt;ProductWishlist -->
<g id="edge6" class="edge"><title>Product&#45;&gt;ProductWishlist</title>
<path fill="none" stroke="#2192ac" d="M351.226,-928.341C350.859,-928.226 350.492,-928.113 350.124,-928 235.555,-892.909 196.097,-943.745 81.1243,-910 52.8751,-901.709 39.3248,-902.583 23.1243,-878 -16.5663,-817.773 7.12432,-788.629 7.12432,-716.5 7.12432,-716.5 7.12432,-716.5 7.12432,-215.5 7.12432,-186.042 8.90271,-175.9 26.1243,-152 34.1574,-140.852 43.9451,-130.562 54.5295,-121.208"/>
<ellipse fill="none" stroke="#2192ac" cx="355.153" cy="-929.652" rx="4.00001" ry="4.00001"/>
<polygon fill="#2192ac" stroke="#2192ac" points="54.7375,-121.031 65.2746,-117.995 58.5506,-117.797 62.3637,-114.563 62.3637,-114.563 62.3637,-114.563 58.5506,-117.797 59.4529,-111.131 54.7375,-121.031 54.7375,-121.031"/>
</g>
<!-- User -->
<g id="node12" class="node"><title>User</title>
<path fill="none" stroke="black" d="M617.49,-553.5C617.49,-553.5 912.759,-553.5 912.759,-553.5 918.759,-553.5 924.759,-559.5 924.759,-565.5 924.759,-565.5 924.759,-865.5 924.759,-865.5 924.759,-871.5 918.759,-877.5 912.759,-877.5 912.759,-877.5 617.49,-877.5 617.49,-877.5 611.49,-877.5 605.49,-871.5 605.49,-865.5 605.49,-865.5 605.49,-565.5 605.49,-565.5 605.49,-559.5 611.49,-553.5 617.49,-553.5"/>
<text text-anchor="middle" x="765.124" y="-862.3" font-family="Times,serif" font-size="14.00">User</text>
<polyline fill="none" stroke="black" points="605.49,-855.5 924.759,-855.5 "/>
<text text-anchor="start" x="613.49" y="-840.3" font-family="Times,serif" font-size="14.00">cover_photo :character varying</text>
<text text-anchor="start" x="613.49" y="-826.3" font-family="Times,serif" font-size="14.00">email :character varying</text>
<text text-anchor="start" x="613.49" y="-812.3" font-family="Times,serif" font-size="14.00">encrypted_password :character varying</text>
<text text-anchor="start" x="613.49" y="-798.3" font-family="Times,serif" font-size="14.00">reset_password_token :character varying</text>
<text text-anchor="start" x="613.49" y="-784.3" font-family="Times,serif" font-size="14.00">reset_password_sent_at :timestamp without time zone</text>
<text text-anchor="start" x="613.49" y="-770.3" font-family="Times,serif" font-size="14.00">remember_created_at :timestamp without time zone</text>
<text text-anchor="start" x="613.49" y="-756.3" font-family="Times,serif" font-size="14.00">sign_in_count :integer</text>
<text text-anchor="start" x="613.49" y="-742.3" font-family="Times,serif" font-size="14.00">current_sign_in_at :timestamp without time zone</text>
<text text-anchor="start" x="613.49" y="-728.3" font-family="Times,serif" font-size="14.00">last_sign_in_at :timestamp without time zone</text>
<text text-anchor="start" x="613.49" y="-714.3" font-family="Times,serif" font-size="14.00">current_sign_in_ip :inet</text>
<text text-anchor="start" x="613.49" y="-700.3" font-family="Times,serif" font-size="14.00">last_sign_in_ip :inet</text>
<text text-anchor="start" x="613.49" y="-686.3" font-family="Times,serif" font-size="14.00">created_at :timestamp without time zone</text>
<text text-anchor="start" x="613.49" y="-672.3" font-family="Times,serif" font-size="14.00">updated_at :timestamp without time zone</text>
<text text-anchor="start" x="613.49" y="-658.3" font-family="Times,serif" font-size="14.00">provider :character varying</text>
<text text-anchor="start" x="613.49" y="-644.3" font-family="Times,serif" font-size="14.00">uid :character varying</text>
<text text-anchor="start" x="613.49" y="-630.3" font-family="Times,serif" font-size="14.00">name :character varying</text>
<text text-anchor="start" x="613.49" y="-616.3" font-family="Times,serif" font-size="14.00">avatar :character varying</text>
<text text-anchor="start" x="613.49" y="-602.3" font-family="Times,serif" font-size="14.00">role :integer</text>
<text text-anchor="start" x="613.49" y="-588.3" font-family="Times,serif" font-size="14.00">gender :character varying</text>
<text text-anchor="start" x="613.49" y="-574.3" font-family="Times,serif" font-size="14.00">birthday :character varying</text>
<text text-anchor="start" x="613.49" y="-560.3" font-family="Times,serif" font-size="14.00">id :integer</text>
</g>
<!-- Product&#45;&gt;User -->
<g id="edge5" class="edge"><title>Product&#45;&gt;User</title>
<path fill="none" stroke="#f6c708" d="M579.314,-921.479C583.34,-917.638 587.292,-913.8 591.124,-910 599.332,-901.86 607.637,-893.415 615.938,-884.806"/>
<polygon fill="#f6c708" stroke="#f6c708" points="579.267,-921.524 568.908,-925.121 575.633,-924.958 571.998,-928.392 571.998,-928.392 571.998,-928.392 575.633,-924.958 575.089,-931.663 579.267,-921.524 579.267,-921.524"/>
<polygon fill="#f6c708" stroke="#f6c708" points="615.986,-884.757 626.156,-880.655 619.447,-881.148 622.908,-877.54 622.908,-877.54 622.908,-877.54 619.447,-881.148 619.66,-874.425 615.986,-884.757 615.986,-884.757"/>
<text text-anchor="middle" x="628.507" y="-898.8" font-family="Times,serif" font-size="14.00">user_likes</text>
</g>
<!-- Wishlist -->
<g id="node14" class="node"><title>Wishlist</title>
<path fill="none" stroke="black" d="M142.262,-360.5C142.262,-360.5 365.987,-360.5 365.987,-360.5 371.987,-360.5 377.987,-366.5 377.987,-372.5 377.987,-372.5 377.987,-448.5 377.987,-448.5 377.987,-454.5 371.987,-460.5 365.987,-460.5 365.987,-460.5 142.262,-460.5 142.262,-460.5 136.262,-460.5 130.262,-454.5 130.262,-448.5 130.262,-448.5 130.262,-372.5 130.262,-372.5 130.262,-366.5 136.262,-360.5 142.262,-360.5"/>
<text text-anchor="middle" x="254.124" y="-445.3" font-family="Times,serif" font-size="14.00">Wishlist</text>
<polyline fill="none" stroke="black" points="130.262,-438.5 377.987,-438.5 "/>
<text text-anchor="start" x="138.262" y="-423.3" font-family="Times,serif" font-size="14.00">id :integer</text>
<text text-anchor="start" x="138.262" y="-409.3" font-family="Times,serif" font-size="14.00">name :character varying</text>
<text text-anchor="start" x="138.262" y="-395.3" font-family="Times,serif" font-size="14.00">created_at :timestamp without time zone</text>
<text text-anchor="start" x="138.262" y="-381.3" font-family="Times,serif" font-size="14.00">updated_at :timestamp without time zone</text>
<text text-anchor="start" x="138.262" y="-367.3" font-family="Times,serif" font-size="14.00">icon :character varying</text>
</g>
<!-- Product&#45;&gt;Wishlist -->
<g id="edge7" class="edge"><title>Product&#45;&gt;Wishlist</title>
<path fill="none" stroke="#693efc" d="M349.537,-928.207C240.073,-894.522 169.743,-963.817 102.124,-878 57.426,-821.272 73.2975,-619.22 102.124,-553 116.728,-519.453 143.64,-490.267 170.806,-467.256"/>
<polygon fill="#693efc" stroke="#693efc" points="349.719,-928.268 357.79,-935.692 354.464,-929.845 359.209,-931.421 359.209,-931.421 359.209,-931.421 354.464,-929.845 360.628,-927.151 349.719,-928.268 349.719,-928.268"/>
<polygon fill="#693efc" stroke="#693efc" points="171.132,-466.987 181.71,-464.096 174.99,-463.805 178.847,-460.624 178.847,-460.624 178.847,-460.624 174.99,-463.805 175.984,-457.152 171.132,-466.987 171.132,-466.987"/>
</g>
<!-- ActsAsTaggableOn::Tagging -->
<g id="node15" class="node"><title>ActsAsTaggableOn::Tagging</title>
<ellipse fill="none" stroke="black" cx="224.124" cy="-715.5" rx="113.006" ry="18"/>
<text text-anchor="middle" x="224.124" y="-711.3" font-family="Times,serif" font-size="14.00">ActsAsTaggableOn::Tagging</text>
</g>
<!-- Product&#45;&gt;ActsAsTaggableOn::Tagging -->
<g id="edge8" class="edge"><title>Product&#45;&gt;ActsAsTaggableOn::Tagging</title>
<path fill="none" stroke="#d54d95" d="M351.536,-928.523C351.065,-928.347 350.595,-928.173 350.124,-928 307.136,-912.23 280.252,-943.167 248.683,-910 205.944,-865.097 211.771,-785.465 218.561,-743.735"/>
<ellipse fill="none" stroke="#d54d95" cx="355.453" cy="-930.051" rx="4.00001" ry="4.00001"/>
<polygon fill="#d54d95" stroke="#d54d95" points="218.586,-743.595 224.756,-734.53 219.455,-738.671 220.325,-733.747 220.325,-733.747 220.325,-733.747 219.455,-738.671 215.893,-732.965 218.586,-743.595 218.586,-743.595"/>
<text text-anchor="middle" x="272.845" y="-898.8" font-family="Times,serif" font-size="14.00">taggings</text>
</g>
<!-- Product&#45;&gt;ActsAsTaggableOn::Tagging -->
<g id="edge10" class="edge"><title>Product&#45;&gt;ActsAsTaggableOn::Tagging</title>
<path fill="none" stroke="#ad5811" d="M379.146,-922.649C374.814,-918.465 370.604,-914.239 366.579,-910 314.461,-855.106 264.657,-780.816 240.07,-742.204"/>
<ellipse fill="none" stroke="#ad5811" cx="382.222" cy="-925.57" rx="4.00002" ry="4.00002"/>
<polygon fill="#ad5811" stroke="#ad5811" points="239.996,-742.088 238.459,-731.23 237.326,-737.861 234.655,-733.634 234.655,-733.634 234.655,-733.634 237.326,-737.861 230.851,-736.038 239.996,-742.088 239.996,-742.088"/>
<text text-anchor="middle" x="401.897" y="-898.8" font-family="Times,serif" font-size="14.00">tag_taggings</text>
</g>
<!-- ActsAsTaggableOn::Tag -->
<g id="node16" class="node"><title>ActsAsTaggableOn::Tag</title>
<ellipse fill="none" stroke="black" cx="452.124" cy="-715.5" rx="97.0617" ry="18"/>
<text text-anchor="middle" x="452.124" y="-711.3" font-family="Times,serif" font-size="14.00">ActsAsTaggableOn::Tag</text>
</g>
<!-- Product&#45;&gt;ActsAsTaggableOn::Tag -->
<g id="edge9" class="edge"><title>Product&#45;&gt;ActsAsTaggableOn::Tag</title>
<path fill="none" stroke="#eca56a" d="M446.584,-918.566C445.879,-915.698 445.246,-912.837 444.697,-910 433.382,-851.572 441.268,-781.423 447.209,-743.702"/>
<polygon fill="#eca56a" stroke="#eca56a" points="446.615,-918.68 444.892,-929.51 447.925,-923.506 449.235,-928.331 449.235,-928.331 449.235,-928.331 447.925,-923.506 453.578,-927.152 446.615,-918.68 446.615,-918.68"/>
<polygon fill="#eca56a" stroke="#eca56a" points="447.261,-743.388 453.332,-734.256 448.077,-738.455 448.892,-733.522 448.892,-733.522 448.892,-733.522 448.077,-738.455 444.452,-732.788 447.261,-743.388 447.261,-743.388"/>
<text text-anchor="middle" x="471.338" y="-898.8" font-family="Times,serif" font-size="14.00">base_tags</text>
</g>
<!-- Product&#45;&gt;ActsAsTaggableOn::Tag -->
<g id="edge11" class="edge"><title>Product&#45;&gt;ActsAsTaggableOn::Tag</title>
<path fill="none" stroke="#608c17" d="M498.34,-918.301C498.634,-915.505 498.897,-912.733 499.124,-910 504.193,-849.065 479.823,-779.964 464.273,-743.068"/>
<polygon fill="#608c17" stroke="#608c17" points="498.309,-918.564 492.683,-927.976 497.731,-923.53 497.152,-928.497 497.152,-928.497 497.152,-928.497 497.731,-923.53 501.622,-929.017 498.309,-918.564 498.309,-918.564"/>
<polygon fill="#608c17" stroke="#608c17" points="464.125,-742.726 464.282,-731.761 462.139,-738.137 460.152,-733.549 460.152,-733.549 460.152,-733.549 462.139,-738.137 456.023,-735.336 464.125,-742.726 464.125,-742.726"/>
<text text-anchor="middle" x="510.4" y="-898.8" font-family="Times,serif" font-size="14.00">tags</text>
</g>
<!-- Station&#45;&gt;StationLine -->
<g id="edge14" class="edge"><title>Station&#45;&gt;StationLine</title>
<path fill="none" stroke="#b03805" d="M1221.1,-650.755C1247.87,-597.398 1285.75,-521.877 1311.76,-470.033"/>
<ellipse fill="none" stroke="#b03805" cx="1219.15" cy="-654.643" rx="4.00002" ry="4.00002"/>
<polygon fill="#b03805" stroke="#b03805" points="1311.83,-469.899 1320.33,-462.979 1314.07,-465.43 1316.31,-460.961 1316.31,-460.961 1316.31,-460.961 1314.07,-465.43 1312.29,-458.943 1311.83,-469.899 1311.83,-469.899"/>
</g>
<!-- StationStore -->
<g id="node10" class="node"><title>StationStore</title>
<path fill="none" stroke="black" d="M1083.26,-166.5C1083.26,-166.5 1306.99,-166.5 1306.99,-166.5 1312.99,-166.5 1318.99,-172.5 1318.99,-178.5 1318.99,-178.5 1318.99,-254.5 1318.99,-254.5 1318.99,-260.5 1312.99,-266.5 1306.99,-266.5 1306.99,-266.5 1083.26,-266.5 1083.26,-266.5 1077.26,-266.5 1071.26,-260.5 1071.26,-254.5 1071.26,-254.5 1071.26,-178.5 1071.26,-178.5 1071.26,-172.5 1077.26,-166.5 1083.26,-166.5"/>
<text text-anchor="middle" x="1195.12" y="-251.3" font-family="Times,serif" font-size="14.00">StationStore</text>
<polyline fill="none" stroke="black" points="1071.26,-244.5 1318.99,-244.5 "/>
<text text-anchor="start" x="1079.26" y="-229.3" font-family="Times,serif" font-size="14.00">id :integer</text>
<text text-anchor="start" x="1079.26" y="-215.3" font-family="Times,serif" font-size="14.00">station_id :integer</text>
<text text-anchor="start" x="1079.26" y="-201.3" font-family="Times,serif" font-size="14.00">store_id :integer</text>
<text text-anchor="start" x="1079.26" y="-187.3" font-family="Times,serif" font-size="14.00">created_at :timestamp without time zone</text>
<text text-anchor="start" x="1079.26" y="-173.3" font-family="Times,serif" font-size="14.00">updated_at :timestamp without time zone</text>
</g>
<!-- Station&#45;&gt;StationStore -->
<g id="edge12" class="edge"><title>Station&#45;&gt;StationStore</title>
<path fill="none" stroke="#055ee1" d="M1189.9,-650.189C1191.07,-553.194 1193.27,-370.847 1194.41,-276.856"/>
<ellipse fill="none" stroke="#055ee1" cx="1189.85" cy="-654.454" rx="4" ry="4"/>
<polygon fill="#055ee1" stroke="#055ee1" points="1194.41,-276.667 1199.03,-266.722 1194.47,-271.667 1194.53,-266.668 1194.53,-266.668 1194.53,-266.668 1194.47,-271.667 1190.03,-266.613 1194.41,-276.667 1194.41,-276.667"/>
</g>
<!-- Store -->
<g id="node11" class="node"><title>Store</title>
<path fill="none" stroke="black" d="M710.262,-318.5C710.262,-318.5 933.987,-318.5 933.987,-318.5 939.987,-318.5 945.987,-324.5 945.987,-330.5 945.987,-330.5 945.987,-490.5 945.987,-490.5 945.987,-496.5 939.987,-502.5 933.987,-502.5 933.987,-502.5 710.262,-502.5 710.262,-502.5 704.262,-502.5 698.262,-496.5 698.262,-490.5 698.262,-490.5 698.262,-330.5 698.262,-330.5 698.262,-324.5 704.262,-318.5 710.262,-318.5"/>
<text text-anchor="middle" x="822.124" y="-487.3" font-family="Times,serif" font-size="14.00">Store</text>
<polyline fill="none" stroke="black" points="698.262,-480.5 945.987,-480.5 "/>
<text text-anchor="start" x="706.262" y="-465.3" font-family="Times,serif" font-size="14.00">phone_number :character varying</text>
<text text-anchor="start" x="706.262" y="-451.3" font-family="Times,serif" font-size="14.00">name :character varying</text>
<text text-anchor="start" x="706.262" y="-437.3" font-family="Times,serif" font-size="14.00">description :text</text>
<text text-anchor="start" x="706.262" y="-423.3" font-family="Times,serif" font-size="14.00">photo :character varying</text>
<text text-anchor="start" x="706.262" y="-409.3" font-family="Times,serif" font-size="14.00">cover_photo :character varying</text>
<text text-anchor="start" x="706.262" y="-395.3" font-family="Times,serif" font-size="14.00">facebook_link :character varying</text>
<text text-anchor="start" x="706.262" y="-381.3" font-family="Times,serif" font-size="14.00">instagram_link :character varying</text>
<text text-anchor="start" x="706.262" y="-367.3" font-family="Times,serif" font-size="14.00">user_id :integer</text>
<text text-anchor="start" x="706.262" y="-353.3" font-family="Times,serif" font-size="14.00">created_at :timestamp without time zone</text>
<text text-anchor="start" x="706.262" y="-339.3" font-family="Times,serif" font-size="14.00">updated_at :timestamp without time zone</text>
<text text-anchor="start" x="706.262" y="-325.3" font-family="Times,serif" font-size="14.00">id :integer</text>
</g>
<!-- Station&#45;&gt;Store -->
<g id="edge13" class="edge"><title>Station&#45;&gt;Store</title>
<path fill="none" stroke="#62a501" d="M1117.25,-651.438C1073.21,-613.173 1015.42,-563.655 963.124,-521 958.317,-517.079 953.399,-513.102 948.418,-509.101"/>
<polygon fill="#62a501" stroke="#62a501" points="1117.49,-651.643 1122.08,-661.6 1121.26,-654.924 1125.03,-658.205 1125.03,-658.205 1125.03,-658.205 1121.26,-654.924 1127.99,-654.809 1117.49,-651.643 1117.49,-651.643"/>
<polygon fill="#62a501" stroke="#62a501" points="948.352,-509.048 943.357,-499.286 944.449,-505.924 940.545,-502.8 940.545,-502.8 940.545,-502.8 944.449,-505.924 937.733,-506.313 948.352,-509.048 948.352,-509.048"/>
</g>
<!-- Store&#45;&gt;Comment -->
<g id="edge16" class="edge"><title>Store&#45;&gt;Comment</title>
<path fill="none" stroke="#dc1110" d="M741.372,-311.988C734.873,-304.14 728.385,-296.305 722.082,-288.694"/>
<ellipse fill="none" stroke="#dc1110" cx="744.031" cy="-315.199" rx="4.00002" ry="4.00002"/>
<polygon fill="#dc1110" stroke="#dc1110" points="721.701,-288.234 718.789,-277.662 718.512,-284.383 715.323,-280.532 715.323,-280.532 715.323,-280.532 718.512,-284.383 711.857,-283.402 721.701,-288.234 721.701,-288.234"/>
</g>
<!-- Store&#45;&gt;Like -->
<g id="edge17" class="edge"><title>Store&#45;&gt;Like</title>
<path fill="none" stroke="#9c35f4" d="M876.932,-311.153C882.294,-301.532 887.638,-291.943 892.749,-282.771"/>
<ellipse fill="none" stroke="#9c35f4" cx="874.908" cy="-314.785" rx="4.00002" ry="4.00002"/>
<polygon fill="#9c35f4" stroke="#9c35f4" points="892.906,-282.489 901.705,-275.945 895.34,-278.122 897.774,-273.754 897.774,-273.754 897.774,-273.754 895.34,-278.122 893.844,-271.563 892.906,-282.489 892.906,-282.489"/>
</g>
<!-- Store&#45;&gt;Product -->
<g id="edge15" class="edge"><title>Store&#45;&gt;Product</title>
<path fill="none" stroke="#1658a9" d="M912.392,-509.25C921.232,-523.138 928.861,-537.869 934.124,-553 981.582,-689.426 1021.27,-762.804 934.124,-878 895.688,-928.809 735.516,-965.166 616.925,-985.74"/>
<ellipse fill="none" stroke="#1658a9" cx="910.156" cy="-505.845" rx="4.00002" ry="4.00002"/>
<polygon fill="#1658a9" stroke="#1658a9" points="616.882,-985.748 606.265,-983.003 611.954,-986.593 607.026,-987.438 607.026,-987.438 607.026,-987.438 611.954,-986.593 607.786,-991.873 616.882,-985.748 616.882,-985.748"/>
</g>
<!-- Store&#45;&gt;StationStore -->
<g id="edge19" class="edge"><title>Store&#45;&gt;StationStore</title>
<path fill="none" stroke="#4ac8a6" d="M953.444,-341.904C998.425,-318.75 1048.11,-293.174 1090.68,-271.263"/>
<ellipse fill="none" stroke="#4ac8a6" cx="949.625" cy="-343.869" rx="4.00002" ry="4.00002"/>
<polygon fill="#4ac8a6" stroke="#4ac8a6" points="1090.76,-271.223 1101.71,-270.647 1095.2,-268.934 1099.65,-266.646 1099.65,-266.646 1099.65,-266.646 1095.2,-268.934 1097.59,-262.645 1090.76,-271.223 1090.76,-271.223"/>
</g>
<!-- Store&#45;&gt;User -->
<g id="edge18" class="edge"><title>Store&#45;&gt;User</title>
<path fill="none" stroke="#aeb0c6" d="M803.147,-512.38C801.271,-522.351 799.333,-532.653 797.371,-543.082"/>
<polygon fill="#aeb0c6" stroke="#aeb0c6" points="803.152,-512.355 809.423,-503.359 804.076,-507.441 805,-502.527 805,-502.527 805,-502.527 804.076,-507.441 800.578,-501.695 803.152,-512.355 803.152,-512.355"/>
<polygon fill="#aeb0c6" stroke="#aeb0c6" points="797.309,-543.414 791.038,-552.409 796.385,-548.328 795.46,-553.241 795.46,-553.241 795.46,-553.241 796.385,-548.328 799.883,-554.073 797.309,-543.414 797.309,-543.414"/>
<text text-anchor="middle" x="828.507" y="-523.8" font-family="Times,serif" font-size="14.00">user_likes</text>
</g>
<!-- User&#45;&gt;Comment -->
<g id="edge22" class="edge"><title>User&#45;&gt;Comment</title>
<path fill="none" stroke="#d9d103" d="M700.178,-545.576C695.99,-531.302 692.22,-516.982 689.124,-503 673.392,-431.945 667.149,-348.918 664.688,-290.776"/>
<ellipse fill="none" stroke="#d9d103" cx="701.4" cy="-549.667" rx="4.00001" ry="4.00001"/>
<polygon fill="#d9d103" stroke="#d9d103" points="664.68,-290.573 668.781,-280.403 664.482,-285.577 664.285,-280.581 664.285,-280.581 664.285,-280.581 664.482,-285.577 659.788,-280.759 664.68,-290.573 664.68,-290.573"/>
</g>
<!-- User&#45;&gt;Like -->
<g id="edge21" class="edge"><title>User&#45;&gt;Like</title>
<path fill="none" stroke="#e677d1" d="M929.334,-553.499C939.58,-537.35 948.44,-520.443 955.124,-503 982.539,-431.46 967.585,-342.73 951.302,-283.347"/>
<ellipse fill="none" stroke="#e677d1" cx="927.042" cy="-557.021" rx="4.00002" ry="4.00002"/>
<polygon fill="#e677d1" stroke="#e677d1" points="951.298,-283.334 952.908,-272.487 949.938,-278.522 948.578,-273.711 948.578,-273.711 948.578,-273.711 949.938,-278.522 944.247,-274.935 951.298,-283.334 951.298,-283.334"/>
</g>
<!-- User&#45;&gt;Product -->
<g id="edge25" class="edge"><title>User&#45;&gt;Product</title>
<path fill="none" stroke="#71b05f" d="M682.52,-885.65C675.796,-894.272 668.663,-902.466 661.124,-910 647.816,-923.299 632.268,-935.218 616.004,-945.751"/>
<polygon fill="#71b05f" stroke="#71b05f" points="682.557,-885.601 692.173,-880.33 685.57,-881.61 688.582,-877.619 688.582,-877.619 688.582,-877.619 685.57,-881.61 684.99,-874.909 682.557,-885.601 682.557,-885.601"/>
<polygon fill="#71b05f" stroke="#71b05f" points="615.908,-945.811 605.047,-947.323 611.675,-948.472 607.442,-951.133 607.442,-951.133 607.442,-951.133 611.675,-948.472 609.836,-954.943 615.908,-945.811 615.908,-945.811"/>
</g>
<!-- User&#45;&gt;Store -->
<g id="edge20" class="edge"><title>User&#45;&gt;Store</title>
<path fill="none" stroke="#4b5a32" d="M791.465,-545.383C792.987,-537.129 794.543,-528.966 796.124,-521 796.817,-517.51 797.543,-513.962 798.294,-510.383"/>
<ellipse fill="none" stroke="#4b5a32" cx="790.735" cy="-549.385" rx="4.00001" ry="4.00001"/>
<ellipse fill="#4b5a32" stroke="#4b5a32" cx="799.139" cy="-506.418" rx="4.00001" ry="4.00001"/>
</g>
<!-- UserWishlist -->
<g id="node13" class="node"><title>UserWishlist</title>
<path fill="none" stroke="black" d="M47.262,-166.5C47.262,-166.5 270.987,-166.5 270.987,-166.5 276.987,-166.5 282.987,-172.5 282.987,-178.5 282.987,-178.5 282.987,-254.5 282.987,-254.5 282.987,-260.5 276.987,-266.5 270.987,-266.5 270.987,-266.5 47.262,-266.5 47.262,-266.5 41.262,-266.5 35.262,-260.5 35.262,-254.5 35.262,-254.5 35.262,-178.5 35.262,-178.5 35.262,-172.5 41.262,-166.5 47.262,-166.5"/>
<text text-anchor="middle" x="159.124" y="-251.3" font-family="Times,serif" font-size="14.00">UserWishlist</text>
<polyline fill="none" stroke="black" points="35.262,-244.5 282.987,-244.5 "/>
<text text-anchor="start" x="43.262" y="-229.3" font-family="Times,serif" font-size="14.00">id :integer</text>
<text text-anchor="start" x="43.262" y="-215.3" font-family="Times,serif" font-size="14.00">user_id :integer</text>
<text text-anchor="start" x="43.262" y="-201.3" font-family="Times,serif" font-size="14.00">wishlist_id :integer</text>
<text text-anchor="start" x="43.262" y="-187.3" font-family="Times,serif" font-size="14.00">created_at :timestamp without time zone</text>
<text text-anchor="start" x="43.262" y="-173.3" font-family="Times,serif" font-size="14.00">updated_at :timestamp without time zone</text>
</g>
<!-- User&#45;&gt;UserWishlist -->
<g id="edge23" class="edge"><title>User&#45;&gt;UserWishlist</title>
<path fill="none" stroke="#9647f7" d="M633.453,-546.656C566.18,-469.264 479.183,-380.853 387.124,-318 358.185,-298.242 324.732,-280.925 292.519,-266.483"/>
<ellipse fill="none" stroke="#9647f7" cx="636.461" cy="-550.132" rx="4.00002" ry="4.00002"/>
<polygon fill="#9647f7" stroke="#9647f7" points="292.17,-266.329 284.839,-258.174 287.596,-264.31 283.021,-262.291 283.021,-262.291 283.021,-262.291 287.596,-264.31 281.204,-266.408 292.17,-266.329 292.17,-266.329"/>
</g>
<!-- User&#45;&gt;Wishlist -->
<g id="edge24" class="edge"><title>User&#45;&gt;Wishlist</title>
<path fill="none" stroke="#162182" d="M596.785,-578.244C583.931,-569.37 570.962,-560.855 558.124,-553 503.672,-519.683 440.091,-488.946 385.192,-464.692"/>
<polygon fill="#162182" stroke="#162182" points="597.011,-578.402 602.637,-587.815 601.112,-581.263 605.212,-584.124 605.212,-584.124 605.212,-584.124 601.112,-581.263 607.787,-580.434 597.011,-578.402 597.011,-578.402"/>
<polygon fill="#162182" stroke="#162182" points="384.911,-464.568 377.564,-456.428 380.333,-462.558 375.755,-460.548 375.755,-460.548 375.755,-460.548 380.333,-462.558 373.946,-464.669 384.911,-464.568 384.911,-464.568"/>
</g>
<!-- UserWishlist&#45;&gt;Product -->
<g id="edge27" class="edge"><title>UserWishlist&#45;&gt;Product</title>
<path fill="none" stroke="#52f48a" d="M129.704,-275.965C73.6411,-396.226 -33.9553,-676.897 71.1243,-878 82.6579,-900.073 93.6657,-901.637 117.124,-910 211.996,-943.821 248.734,-899.891 349.323,-928.102"/>
<polygon fill="#52f48a" stroke="#52f48a" points="129.715,-275.943 138.047,-268.814 131.846,-271.419 133.976,-266.896 133.976,-266.896 133.976,-266.896 131.846,-271.419 129.906,-264.978 129.715,-275.943 129.715,-275.943"/>
<polygon fill="#52f48a" stroke="#52f48a" points="349.349,-928.109 357.652,-935.273 354.141,-929.534 358.934,-930.959 358.934,-930.959 358.934,-930.959 354.141,-929.534 360.217,-926.646 349.349,-928.109 349.349,-928.109"/>
</g>
<!-- UserWishlist&#45;&gt;ProductWishlist -->
<g id="edge26" class="edge"><title>UserWishlist&#45;&gt;ProductWishlist</title>
<path fill="none" stroke="#2ff432" d="M159.124,-158.055C159.124,-147.224 159.124,-135.816 159.124,-124.741"/>
<ellipse fill="none" stroke="#2ff432" cx="159.124" cy="-162.255" rx="4" ry="4"/>
<polygon fill="#2ff432" stroke="#2ff432" points="159.124,-124.69 163.624,-114.69 159.124,-119.69 159.124,-114.69 159.124,-114.69 159.124,-114.69 159.124,-119.69 154.624,-114.69 159.124,-124.69 159.124,-124.69"/>
</g>
<!-- Wishlist&#45;&gt;ProductWishlist -->
<g id="edge29" class="edge"><title>Wishlist&#45;&gt;ProductWishlist</title>
<path fill="none" stroke="#4e7e0d" d="M281.206,-352.615C302.961,-298.165 324.947,-215.197 292.124,-152 286.324,-140.833 278.511,-130.72 269.561,-121.632"/>
<ellipse fill="none" stroke="#4e7e0d" cx="279.657" cy="-356.401" rx="4.00002" ry="4.00002"/>
<polygon fill="#4e7e0d" stroke="#4e7e0d" points="269.39,-121.468 265.264,-111.308 265.774,-118.016 262.157,-114.563 262.157,-114.563 262.157,-114.563 265.774,-118.016 259.05,-117.818 269.39,-121.468 269.39,-121.468"/>
</g>
<!-- Wishlist&#45;&gt;UserWishlist -->
<g id="edge28" class="edge"><title>Wishlist&#45;&gt;UserWishlist</title>
<path fill="none" stroke="#c70efd" d="M226.1,-352.861C214.111,-328.632 200.121,-300.356 188.036,-275.933"/>
<ellipse fill="none" stroke="#c70efd" cx="227.886" cy="-356.47" rx="4.00002" ry="4.00002"/>
<polygon fill="#c70efd" stroke="#c70efd" points="187.941,-275.74 187.54,-264.782 185.724,-271.259 183.506,-266.777 183.506,-266.777 183.506,-266.777 185.724,-271.259 179.473,-268.773 187.941,-275.74 187.941,-275.74"/>
</g>
</g>
</svg>
