<?xml version="1.0" encoding="UTF-8" standalone="no"?>
<!DOCTYPE svg PUBLIC "-//W3C//DTD SVG 1.1//EN"
 "http://www.w3.org/Graphics/SVG/1.1/DTD/svg11.dtd">
<!-- Generated by graphviz version 2.38.0 (20140413.2041)
 -->
<!-- Title: models_diagram Pages: 1 -->
<svg width="1320pt" height="1093pt"
 viewBox="0.00 0.00 1320.14 1093.00" xmlns="http://www.w3.org/2000/svg" xmlns:xlink="http://www.w3.org/1999/xlink">
<g id="graph0" class="graph" transform="scale(1 1) rotate(0) translate(4 1089)">
<title>models_diagram</title>
<polygon fill="none" stroke="none" points="-4,4 -4,-1089 1316.14,-1089 1316.14,4 -4,4"/>
<!-- _diagram_info -->
<g id="node1" class="node"><title>_diagram_info</title>
<text text-anchor="start" x="345.175" y="-1028.6" font-family="Times,serif" font-size="13.00">Models diagram</text>
<text text-anchor="start" x="345.175" y="-1015.6" font-family="Times,serif" font-size="13.00">Date: May 17 2016 &#45; 20:28</text>
<text text-anchor="start" x="345.175" y="-1002.6" font-family="Times,serif" font-size="13.00">Migration version: 20160514001432</text>
<text text-anchor="start" x="345.175" y="-989.6" font-family="Times,serif" font-size="13.00">Generated by RailRoady 1.4.2</text>
<text text-anchor="start" x="345.175" y="-976.6" font-family="Times,serif" font-size="13.00">http://railroady.prestonlee.com</text>
</g>
<!-- Ability -->
<g id="node2" class="node"><title>Ability</title>
<polygon fill="none" stroke="black" points="563.028,-984.5 563.028,-1028.5 618.697,-1028.5 618.697,-984.5 563.028,-984.5"/>
<text text-anchor="middle" x="590.862" y="-1013.3" font-family="Times,serif" font-size="14.00">Ability</text>
<polyline fill="none" stroke="black" points="563.028,-1006.5 618.697,-1006.5 "/>
<text text-anchor="middle" x="590.862" y="-991.3" font-family="Times,serif" font-size="14.00"> </text>
</g>
<!-- Comment -->
<g id="node3" class="node"><title>Comment</title>
<path fill="none" stroke="black" d="M12,-152.5C12,-152.5 235.725,-152.5 235.725,-152.5 241.725,-152.5 247.725,-158.5 247.725,-164.5 247.725,-164.5 247.725,-268.5 247.725,-268.5 247.725,-274.5 241.725,-280.5 235.725,-280.5 235.725,-280.5 12,-280.5 12,-280.5 6,-280.5 0,-274.5 0,-268.5 0,-268.5 0,-164.5 0,-164.5 0,-158.5 6,-152.5 12,-152.5"/>
<text text-anchor="middle" x="123.862" y="-265.3" font-family="Times,serif" font-size="14.00">Comment</text>
<polyline fill="none" stroke="black" points="0,-258.5 247.725,-258.5 "/>
<text text-anchor="start" x="8" y="-243.3" font-family="Times,serif" font-size="14.00">content :text</text>
<text text-anchor="start" x="8" y="-229.3" font-family="Times,serif" font-size="14.00">commentable_id :integer</text>
<text text-anchor="start" x="8" y="-215.3" font-family="Times,serif" font-size="14.00">commentable_type :character varying</text>
<text text-anchor="start" x="8" y="-201.3" font-family="Times,serif" font-size="14.00">id :integer</text>
<text text-anchor="start" x="8" y="-187.3" font-family="Times,serif" font-size="14.00">user_id :integer</text>
<text text-anchor="start" x="8" y="-173.3" font-family="Times,serif" font-size="14.00">created_at :timestamp without time zone</text>
<text text-anchor="start" x="8" y="-159.3" font-family="Times,serif" font-size="14.00">updated_at :timestamp without time zone</text>
</g>
<!-- Like -->
<g id="node4" class="node"><title>Like</title>
<path fill="none" stroke="black" d="M278,-159.5C278,-159.5 501.725,-159.5 501.725,-159.5 507.725,-159.5 513.725,-165.5 513.725,-171.5 513.725,-171.5 513.725,-261.5 513.725,-261.5 513.725,-267.5 507.725,-273.5 501.725,-273.5 501.725,-273.5 278,-273.5 278,-273.5 272,-273.5 266,-267.5 266,-261.5 266,-261.5 266,-171.5 266,-171.5 266,-165.5 272,-159.5 278,-159.5"/>
<text text-anchor="middle" x="389.862" y="-258.3" font-family="Times,serif" font-size="14.00">Like</text>
<polyline fill="none" stroke="black" points="266,-251.5 513.725,-251.5 "/>
<text text-anchor="start" x="274" y="-236.3" font-family="Times,serif" font-size="14.00">id :integer</text>
<text text-anchor="start" x="274" y="-222.3" font-family="Times,serif" font-size="14.00">likeable_id :integer</text>
<text text-anchor="start" x="274" y="-208.3" font-family="Times,serif" font-size="14.00">likeable_type :character varying</text>
<text text-anchor="start" x="274" y="-194.3" font-family="Times,serif" font-size="14.00">user_id :integer</text>
<text text-anchor="start" x="274" y="-180.3" font-family="Times,serif" font-size="14.00">created_at :timestamp without time zone</text>
<text text-anchor="start" x="274" y="-166.3" font-family="Times,serif" font-size="14.00">updated_at :timestamp without time zone</text>
</g>
<!-- Product -->
<g id="node5" class="node"><title>Product</title>
<path fill="none" stroke="black" d="M649,-928.5C649,-928.5 872.725,-928.5 872.725,-928.5 878.725,-928.5 884.725,-934.5 884.725,-940.5 884.725,-940.5 884.725,-1072.5 884.725,-1072.5 884.725,-1078.5 878.725,-1084.5 872.725,-1084.5 872.725,-1084.5 649,-1084.5 649,-1084.5 643,-1084.5 637,-1078.5 637,-1072.5 637,-1072.5 637,-940.5 637,-940.5 637,-934.5 643,-928.5 649,-928.5"/>
<text text-anchor="middle" x="760.862" y="-1069.3" font-family="Times,serif" font-size="14.00">Product</text>
<polyline fill="none" stroke="black" points="637,-1062.5 884.725,-1062.5 "/>
<text text-anchor="start" x="645" y="-1047.3" font-family="Times,serif" font-size="14.00">updated_at :timestamp without time zone</text>
<text text-anchor="start" x="645" y="-1033.3" font-family="Times,serif" font-size="14.00">name :character varying</text>
<text text-anchor="start" x="645" y="-1019.3" font-family="Times,serif" font-size="14.00">description :text</text>
<text text-anchor="start" x="645" y="-1005.3" font-family="Times,serif" font-size="14.00">photo :character varying</text>
<text text-anchor="start" x="645" y="-991.3" font-family="Times,serif" font-size="14.00">price :integer</text>
<text text-anchor="start" x="645" y="-977.3" font-family="Times,serif" font-size="14.00">stock :integer</text>
<text text-anchor="start" x="645" y="-963.3" font-family="Times,serif" font-size="14.00">store_id :integer</text>
<text text-anchor="start" x="645" y="-949.3" font-family="Times,serif" font-size="14.00">created_at :timestamp without time zone</text>
<text text-anchor="start" x="645" y="-935.3" font-family="Times,serif" font-size="14.00">id :integer</text>
</g>
<!-- Product&#45;&gt;Comment -->
<g id="edge1" class="edge"><title>Product&#45;&gt;Comment</title>
<path fill="none" stroke="#bfe8ce" d="M628.969,-928.327C628.6,-928.217 628.231,-928.108 627.862,-928 532.858,-900.267 279.776,-930.07 182.862,-910 144.148,-901.983 122.232,-910.599 99.8623,-878 -23.6479,-698.01 49.6618,-420.781 95.475,-290.23"/>
<ellipse fill="none" stroke="#bfe8ce" cx="632.908" cy="-929.59" rx="4.00001" ry="4.00001"/>
<polygon fill="#bfe8ce" stroke="#bfe8ce" points="95.5102,-290.13 103.099,-282.215 97.1847,-285.419 98.8592,-280.708 98.8592,-280.708 98.8592,-280.708 97.1847,-285.419 94.6191,-279.201 95.5102,-290.13 95.5102,-290.13"/>
</g>
<!-- Product&#45;&gt;Like -->
<g id="edge2" class="edge"><title>Product&#45;&gt;Like</title>
<path fill="none" stroke="#e85fdb" d="M703.248,-921.267C694.343,-907.062 685.559,-892.288 677.862,-878 618.598,-767.985 476.432,-427.414 416.852,-283.146"/>
<ellipse fill="none" stroke="#e85fdb" cx="705.488" cy="-924.808" rx="4.00002" ry="4.00002"/>
<polygon fill="#e85fdb" stroke="#e85fdb" points="416.694,-282.761 417.038,-271.801 414.786,-278.139 412.878,-273.518 412.878,-273.518 412.878,-273.518 414.786,-278.139 408.719,-275.235 416.694,-282.761 416.694,-282.761"/>
</g>
<!-- ProductWishlist -->
<g id="node6" class="node"><title>ProductWishlist</title>
<path fill="none" stroke="black" d="M582,-0.5C582,-0.5 805.725,-0.5 805.725,-0.5 811.725,-0.5 817.725,-6.5 817.725,-12.5 817.725,-12.5 817.725,-102.5 817.725,-102.5 817.725,-108.5 811.725,-114.5 805.725,-114.5 805.725,-114.5 582,-114.5 582,-114.5 576,-114.5 570,-108.5 570,-102.5 570,-102.5 570,-12.5 570,-12.5 570,-6.5 576,-0.5 582,-0.5"/>
<text text-anchor="middle" x="693.862" y="-99.3" font-family="Times,serif" font-size="14.00">ProductWishlist</text>
<polyline fill="none" stroke="black" points="570,-92.5 817.725,-92.5 "/>
<text text-anchor="start" x="578" y="-77.3" font-family="Times,serif" font-size="14.00">id :integer</text>
<text text-anchor="start" x="578" y="-63.3" font-family="Times,serif" font-size="14.00">user_wishlist_id :integer</text>
<text text-anchor="start" x="578" y="-49.3" font-family="Times,serif" font-size="14.00">product_id :integer</text>
<text text-anchor="start" x="578" y="-35.3" font-family="Times,serif" font-size="14.00">created_at :timestamp without time zone</text>
<text text-anchor="start" x="578" y="-21.3" font-family="Times,serif" font-size="14.00">updated_at :timestamp without time zone</text>
<text text-anchor="start" x="578" y="-7.3" font-family="Times,serif" font-size="14.00">wishlist_id :integer</text>
</g>
<!-- Product&#45;&gt;ProductWishlist -->
<g id="edge4" class="edge"><title>Product&#45;&gt;ProductWishlist</title>
<path fill="none" stroke="#ed1546" d="M799.552,-920.988C821.993,-864.358 845.862,-787.448 845.862,-716.5 845.862,-716.5 845.862,-716.5 845.862,-215.5 845.862,-186.042 844.084,-175.9 826.862,-152 818.829,-140.852 809.042,-130.562 798.457,-121.208"/>
<ellipse fill="none" stroke="#ed1546" cx="798.031" cy="-924.778" rx="4.00001" ry="4.00001"/>
<polygon fill="#ed1546" stroke="#ed1546" points="798.249,-121.031 793.534,-111.131 794.436,-117.797 790.623,-114.563 790.623,-114.563 790.623,-114.563 794.436,-117.797 787.712,-117.995 798.249,-121.031 798.249,-121.031"/>
</g>
<!-- User -->
<g id="node8" class="node"><title>User</title>
<path fill="none" stroke="black" d="M180.228,-553.5C180.228,-553.5 475.497,-553.5 475.497,-553.5 481.497,-553.5 487.497,-559.5 487.497,-565.5 487.497,-565.5 487.497,-865.5 487.497,-865.5 487.497,-871.5 481.497,-877.5 475.497,-877.5 475.497,-877.5 180.228,-877.5 180.228,-877.5 174.228,-877.5 168.228,-871.5 168.228,-865.5 168.228,-865.5 168.228,-565.5 168.228,-565.5 168.228,-559.5 174.228,-553.5 180.228,-553.5"/>
<text text-anchor="middle" x="327.862" y="-862.3" font-family="Times,serif" font-size="14.00">User</text>
<polyline fill="none" stroke="black" points="168.228,-855.5 487.497,-855.5 "/>
<text text-anchor="start" x="176.228" y="-840.3" font-family="Times,serif" font-size="14.00">cover_photo :character varying</text>
<text text-anchor="start" x="176.228" y="-826.3" font-family="Times,serif" font-size="14.00">email :character varying</text>
<text text-anchor="start" x="176.228" y="-812.3" font-family="Times,serif" font-size="14.00">encrypted_password :character varying</text>
<text text-anchor="start" x="176.228" y="-798.3" font-family="Times,serif" font-size="14.00">reset_password_token :character varying</text>
<text text-anchor="start" x="176.228" y="-784.3" font-family="Times,serif" font-size="14.00">reset_password_sent_at :timestamp without time zone</text>
<text text-anchor="start" x="176.228" y="-770.3" font-family="Times,serif" font-size="14.00">remember_created_at :timestamp without time zone</text>
<text text-anchor="start" x="176.228" y="-756.3" font-family="Times,serif" font-size="14.00">sign_in_count :integer</text>
<text text-anchor="start" x="176.228" y="-742.3" font-family="Times,serif" font-size="14.00">current_sign_in_at :timestamp without time zone</text>
<text text-anchor="start" x="176.228" y="-728.3" font-family="Times,serif" font-size="14.00">last_sign_in_at :timestamp without time zone</text>
<text text-anchor="start" x="176.228" y="-714.3" font-family="Times,serif" font-size="14.00">current_sign_in_ip :inet</text>
<text text-anchor="start" x="176.228" y="-700.3" font-family="Times,serif" font-size="14.00">last_sign_in_ip :inet</text>
<text text-anchor="start" x="176.228" y="-686.3" font-family="Times,serif" font-size="14.00">created_at :timestamp without time zone</text>
<text text-anchor="start" x="176.228" y="-672.3" font-family="Times,serif" font-size="14.00">updated_at :timestamp without time zone</text>
<text text-anchor="start" x="176.228" y="-658.3" font-family="Times,serif" font-size="14.00">provider :character varying</text>
<text text-anchor="start" x="176.228" y="-644.3" font-family="Times,serif" font-size="14.00">uid :character varying</text>
<text text-anchor="start" x="176.228" y="-630.3" font-family="Times,serif" font-size="14.00">name :character varying</text>
<text text-anchor="start" x="176.228" y="-616.3" font-family="Times,serif" font-size="14.00">avatar :character varying</text>
<text text-anchor="start" x="176.228" y="-602.3" font-family="Times,serif" font-size="14.00">role :integer</text>
<text text-anchor="start" x="176.228" y="-588.3" font-family="Times,serif" font-size="14.00">gender :character varying</text>
<text text-anchor="start" x="176.228" y="-574.3" font-family="Times,serif" font-size="14.00">birthday :character varying</text>
<text text-anchor="start" x="176.228" y="-560.3" font-family="Times,serif" font-size="14.00">id :integer</text>
</g>
<!-- Product&#45;&gt;User -->
<g id="edge3" class="edge"><title>Product&#45;&gt;User</title>
<path fill="none" stroke="#3353da" d="M626.705,-928.405C575.241,-917.383 477.402,-930.35 445.097,-910 433.974,-902.993 423.755,-894.511 414.395,-885.06"/>
<polygon fill="#3353da" stroke="#3353da" points="626.98,-928.478 635.491,-935.393 631.813,-929.761 636.645,-931.044 636.645,-931.044 636.645,-931.044 631.813,-929.761 637.8,-926.694 626.98,-928.478 626.98,-928.478"/>
<polygon fill="#3353da" stroke="#3353da" points="414.267,-884.924 410.676,-874.563 410.835,-881.288 407.403,-877.651 407.403,-877.651 407.403,-877.651 410.835,-881.288 404.131,-880.74 414.267,-884.924 414.267,-884.924"/>
<text text-anchor="middle" x="474.245" y="-898.8" font-family="Times,serif" font-size="14.00">user_likes</text>
</g>
<!-- Wishlist -->
<g id="node10" class="node"><title>Wishlist</title>
<path fill="none" stroke="black" d="M544,-360.5C544,-360.5 767.725,-360.5 767.725,-360.5 773.725,-360.5 779.725,-366.5 779.725,-372.5 779.725,-372.5 779.725,-448.5 779.725,-448.5 779.725,-454.5 773.725,-460.5 767.725,-460.5 767.725,-460.5 544,-460.5 544,-460.5 538,-460.5 532,-454.5 532,-448.5 532,-448.5 532,-372.5 532,-372.5 532,-366.5 538,-360.5 544,-360.5"/>
<text text-anchor="middle" x="655.862" y="-445.3" font-family="Times,serif" font-size="14.00">Wishlist</text>
<polyline fill="none" stroke="black" points="532,-438.5 779.725,-438.5 "/>
<text text-anchor="start" x="540" y="-423.3" font-family="Times,serif" font-size="14.00">id :integer</text>
<text text-anchor="start" x="540" y="-409.3" font-family="Times,serif" font-size="14.00">name :character varying</text>
<text text-anchor="start" x="540" y="-395.3" font-family="Times,serif" font-size="14.00">created_at :timestamp without time zone</text>
<text text-anchor="start" x="540" y="-381.3" font-family="Times,serif" font-size="14.00">updated_at :timestamp without time zone</text>
<text text-anchor="start" x="540" y="-367.3" font-family="Times,serif" font-size="14.00">icon :character varying</text>
</g>
<!-- Product&#45;&gt;Wishlist -->
<g id="edge5" class="edge"><title>Product&#45;&gt;Wishlist</title>
<path fill="none" stroke="#a397a3" d="M745.467,-918.408C723.822,-795.957 684.962,-576.123 666.354,-470.85"/>
<polygon fill="#a397a3" stroke="#a397a3" points="745.502,-918.606 742.812,-929.237 746.373,-923.53 747.243,-928.454 747.243,-928.454 747.243,-928.454 746.373,-923.53 751.674,-927.67 745.502,-918.606 745.502,-918.606"/>
<polygon fill="#a397a3" stroke="#a397a3" points="666.304,-470.57 668.995,-459.939 665.434,-465.646 664.563,-460.723 664.563,-460.723 664.563,-460.723 665.434,-465.646 660.132,-461.506 666.304,-470.57 666.304,-470.57"/>
</g>
<!-- ActsAsTaggableOn::Tagging -->
<g id="node11" class="node"><title>ActsAsTaggableOn::Tagging</title>
<ellipse fill="none" stroke="black" cx="986.862" cy="-715.5" rx="113.006" ry="18"/>
<text text-anchor="middle" x="986.862" y="-711.3" font-family="Times,serif" font-size="14.00">ActsAsTaggableOn::Tagging</text>
</g>
<!-- Product&#45;&gt;ActsAsTaggableOn::Tagging -->
<g id="edge6" class="edge"><title>Product&#45;&gt;ActsAsTaggableOn::Tagging</title>
<path fill="none" stroke="#5f9791" d="M849.141,-922.413C852.84,-918.287 856.432,-914.138 859.862,-910 906.078,-854.243 950.166,-781.088 972.216,-742.667"/>
<ellipse fill="none" stroke="#5f9791" cx="846.345" cy="-925.48" rx="4.00002" ry="4.00002"/>
<polygon fill="#5f9791" stroke="#5f9791" points="972.386,-742.369 981.246,-735.907 974.861,-738.024 977.335,-733.679 977.335,-733.679 977.335,-733.679 974.861,-738.024 973.425,-731.452 972.386,-742.369 972.386,-742.369"/>
<text text-anchor="middle" x="891.583" y="-898.8" font-family="Times,serif" font-size="14.00">taggings</text>
</g>
<!-- Product&#45;&gt;ActsAsTaggableOn::Tagging -->
<g id="edge8" class="edge"><title>Product&#45;&gt;ActsAsTaggableOn::Tagging</title>
<path fill="none" stroke="#ec7d50" d="M891.414,-937.356C901.476,-929.005 910.826,-919.886 918.862,-910 959.495,-860.012 976.658,-784.04 983.231,-743.774"/>
<ellipse fill="none" stroke="#ec7d50" cx="888.181" cy="-939.952" rx="4.00002" ry="4.00002"/>
<polygon fill="#ec7d50" stroke="#ec7d50" points="983.268,-743.531 989.23,-734.327 984.025,-738.589 984.782,-733.646 984.782,-733.646 984.782,-733.646 984.025,-738.589 980.333,-732.965 983.268,-743.531 983.268,-743.531"/>
<text text-anchor="middle" x="963.635" y="-898.8" font-family="Times,serif" font-size="14.00">tag_taggings</text>
</g>
<!-- ActsAsTaggableOn::Tag -->
<g id="node12" class="node"><title>ActsAsTaggableOn::Tag</title>
<ellipse fill="none" stroke="black" cx="1214.86" cy="-715.5" rx="97.0617" ry="18"/>
<text text-anchor="middle" x="1214.86" y="-711.3" font-family="Times,serif" font-size="14.00">ActsAsTaggableOn::Tag</text>
</g>
<!-- Product&#45;&gt;ActsAsTaggableOn::Tag -->
<g id="edge7" class="edge"><title>Product&#45;&gt;ActsAsTaggableOn::Tag</title>
<path fill="none" stroke="#e1f792" d="M894.498,-977.938C963.823,-958.642 1046.75,-927.265 1108.86,-878 1155.34,-841.137 1188.19,-778.12 1204.06,-742.685"/>
<polygon fill="#e1f792" stroke="#e1f792" points="894.457,-977.949 883.625,-976.24 889.633,-979.265 884.81,-980.581 884.81,-980.581 884.81,-980.581 889.633,-979.265 885.994,-984.923 894.457,-977.949 894.457,-977.949"/>
<polygon fill="#e1f792" stroke="#e1f792" points="1204.08,-742.632 1212.21,-735.267 1206.08,-738.049 1208.08,-733.467 1208.08,-733.467 1208.08,-733.467 1206.08,-738.049 1203.96,-731.667 1204.08,-742.632 1204.08,-742.632"/>
<text text-anchor="middle" x="1103.08" y="-898.8" font-family="Times,serif" font-size="14.00">base_tags</text>
</g>
<!-- Product&#45;&gt;ActsAsTaggableOn::Tag -->
<g id="edge9" class="edge"><title>Product&#45;&gt;ActsAsTaggableOn::Tag</title>
<path fill="none" stroke="#454d95" d="M895.35,-1000.14C973.065,-990.518 1068.14,-966.772 1133.86,-910 1184.44,-866.307 1204.13,-785.814 1211.22,-743.74"/>
<polygon fill="#454d95" stroke="#454d95" points="894.924,-1000.19 884.469,-996.878 889.958,-1000.77 884.992,-1001.35 884.992,-1001.35 884.992,-1001.35 889.958,-1000.77 885.515,-1005.82 894.924,-1000.19 894.924,-1000.19"/>
<polygon fill="#454d95" stroke="#454d95" points="1211.25,-743.554 1217.25,-734.372 1212.03,-738.615 1212.8,-733.675 1212.8,-733.675 1212.8,-733.675 1212.03,-738.615 1208.36,-732.978 1211.25,-743.554 1211.25,-743.554"/>
<text text-anchor="middle" x="1157.14" y="-898.8" font-family="Times,serif" font-size="14.00">tags</text>
</g>
<!-- Store -->
<g id="node7" class="node"><title>Store</title>
<path fill="none" stroke="black" d="M164,-318.5C164,-318.5 387.725,-318.5 387.725,-318.5 393.725,-318.5 399.725,-324.5 399.725,-330.5 399.725,-330.5 399.725,-490.5 399.725,-490.5 399.725,-496.5 393.725,-502.5 387.725,-502.5 387.725,-502.5 164,-502.5 164,-502.5 158,-502.5 152,-496.5 152,-490.5 152,-490.5 152,-330.5 152,-330.5 152,-324.5 158,-318.5 164,-318.5"/>
<text text-anchor="middle" x="275.862" y="-487.3" font-family="Times,serif" font-size="14.00">Store</text>
<polyline fill="none" stroke="black" points="152,-480.5 399.725,-480.5 "/>
<text text-anchor="start" x="160" y="-465.3" font-family="Times,serif" font-size="14.00">phone_number :character varying</text>
<text text-anchor="start" x="160" y="-451.3" font-family="Times,serif" font-size="14.00">name :character varying</text>
<text text-anchor="start" x="160" y="-437.3" font-family="Times,serif" font-size="14.00">description :text</text>
<text text-anchor="start" x="160" y="-423.3" font-family="Times,serif" font-size="14.00">photo :character varying</text>
<text text-anchor="start" x="160" y="-409.3" font-family="Times,serif" font-size="14.00">cover_photo :character varying</text>
<text text-anchor="start" x="160" y="-395.3" font-family="Times,serif" font-size="14.00">facebook_link :character varying</text>
<text text-anchor="start" x="160" y="-381.3" font-family="Times,serif" font-size="14.00">instagram_link :character varying</text>
<text text-anchor="start" x="160" y="-367.3" font-family="Times,serif" font-size="14.00">user_id :integer</text>
<text text-anchor="start" x="160" y="-353.3" font-family="Times,serif" font-size="14.00">created_at :timestamp without time zone</text>
<text text-anchor="start" x="160" y="-339.3" font-family="Times,serif" font-size="14.00">updated_at :timestamp without time zone</text>
<text text-anchor="start" x="160" y="-325.3" font-family="Times,serif" font-size="14.00">id :integer</text>
</g>
<!-- Store&#45;&gt;Comment -->
<g id="edge11" class="edge"><title>Store&#45;&gt;Comment</title>
<path fill="none" stroke="#cf3f6e" d="M198.666,-311.988C192.452,-304.14 186.25,-296.305 180.224,-288.694"/>
<ellipse fill="none" stroke="#cf3f6e" cx="201.163" cy="-315.143" rx="4.00002" ry="4.00002"/>
<polygon fill="#cf3f6e" stroke="#cf3f6e" points="179.97,-288.373 177.291,-277.739 176.866,-284.452 173.763,-280.532 173.763,-280.532 173.763,-280.532 176.866,-284.452 170.234,-283.325 179.97,-288.373 179.97,-288.373"/>
</g>
<!-- Store&#45;&gt;Like -->
<g id="edge12" class="edge"><title>Store&#45;&gt;Like</title>
<path fill="none" stroke="#2f5e49" d="M334.256,-311.153C340.028,-301.432 345.781,-291.743 351.278,-282.485"/>
<ellipse fill="none" stroke="#2f5e49" cx="332.067" cy="-314.84" rx="4.00002" ry="4.00002"/>
<polygon fill="#2f5e49" stroke="#2f5e49" points="351.356,-282.353 360.331,-276.051 353.909,-278.053 356.462,-273.754 356.462,-273.754 356.462,-273.754 353.909,-278.053 352.592,-271.457 351.356,-282.353 351.356,-282.353"/>
</g>
<!-- Store&#45;&gt;Product -->
<g id="edge10" class="edge"><title>Store&#45;&gt;Product</title>
<path fill="none" stroke="#d9b915" d="M181.14,-509.559C172.096,-523.308 164.289,-537.922 158.862,-553 109.95,-688.911 63.4014,-769.596 158.862,-878 226.17,-954.433 511.093,-899.821 626.974,-928.276"/>
<ellipse fill="none" stroke="#d9b915" cx="183.427" cy="-506.19" rx="4.00002" ry="4.00002"/>
<polygon fill="#d9b915" stroke="#d9b915" points="627.034,-928.292 635.456,-935.315 631.849,-929.636 636.665,-930.981 636.665,-930.981 636.665,-930.981 631.849,-929.636 637.875,-926.646 627.034,-928.292 627.034,-928.292"/>
</g>
<!-- Store&#45;&gt;User -->
<g id="edge13" class="edge"><title>Store&#45;&gt;User</title>
<path fill="none" stroke="#a84e27" d="M293.393,-512.47C293.889,-515.344 294.379,-518.192 294.862,-521 296.128,-528.356 297.418,-535.87 298.72,-543.46"/>
<polygon fill="#a84e27" stroke="#a84e27" points="293.393,-512.469 296.127,-501.85 292.543,-507.542 291.693,-502.615 291.693,-502.615 291.693,-502.615 292.543,-507.542 287.258,-503.38 293.393,-512.469 293.393,-512.469"/>
<polygon fill="#a84e27" stroke="#a84e27" points="298.747,-543.62 296.002,-554.237 299.592,-548.548 300.437,-553.476 300.437,-553.476 300.437,-553.476 299.592,-548.548 304.872,-552.716 298.747,-543.62 298.747,-543.62"/>
<text text-anchor="middle" x="325.245" y="-523.8" font-family="Times,serif" font-size="14.00">user_likes</text>
</g>
<!-- User&#45;&gt;Comment -->
<g id="edge16" class="edge"><title>User&#45;&gt;Comment</title>
<path fill="none" stroke="#6ac241" d="M165.379,-546.607C156.706,-532.504 149.037,-517.913 142.862,-503 114.703,-434.991 112.777,-350.06 116.149,-290.582"/>
<ellipse fill="none" stroke="#6ac241" cx="167.583" cy="-550.106" rx="4.00002" ry="4.00002"/>
<polygon fill="#6ac241" stroke="#6ac241" points="116.154,-290.503 121.274,-280.807 116.469,-285.513 116.783,-280.523 116.783,-280.523 116.783,-280.523 116.469,-285.513 112.292,-280.24 116.154,-290.503 116.154,-290.503"/>
</g>
<!-- User&#45;&gt;Like -->
<g id="edge15" class="edge"><title>User&#45;&gt;Like</title>
<path fill="none" stroke="#02f218" d="M398.71,-545.54C402.782,-531.327 406.268,-517.028 408.862,-503 423.815,-422.149 416.533,-399.864 408.862,-318 407.812,-306.787 406.116,-294.962 404.158,-283.516"/>
<ellipse fill="none" stroke="#02f218" cx="397.518" cy="-549.588" rx="4.00001" ry="4.00001"/>
<polygon fill="#02f218" stroke="#02f218" points="404.142,-283.423 406.81,-272.787 403.261,-278.502 402.38,-273.58 402.38,-273.58 402.38,-273.58 403.261,-278.502 397.951,-274.372 404.142,-283.423 404.142,-283.423"/>
</g>
<!-- User&#45;&gt;Product -->
<g id="edge19" class="edge"><title>User&#45;&gt;Product</title>
<path fill="none" stroke="#58af82" d="M399.295,-885.816C407.56,-894.943 416.721,-903.157 426.862,-910 461.858,-933.615 571.231,-916.654 626.914,-928.454"/>
<polygon fill="#58af82" stroke="#58af82" points="399.061,-885.543 395.979,-875.019 395.811,-881.744 392.56,-877.944 392.56,-877.944 392.56,-877.944 395.811,-881.744 389.141,-880.87 399.061,-885.543 399.061,-885.543"/>
<polygon fill="#58af82" stroke="#58af82" points="626.984,-928.472 635.515,-935.361 631.82,-929.74 636.657,-931.008 636.657,-931.008 636.657,-931.008 631.82,-929.74 637.798,-926.656 626.984,-928.472 626.984,-928.472"/>
</g>
<!-- User&#45;&gt;Store -->
<g id="edge14" class="edge"><title>User&#45;&gt;Store</title>
<path fill="none" stroke="#921729" d="M296.583,-545.111C296,-541.712 295.426,-538.339 294.862,-535 293.521,-527.057 292.17,-518.82 290.839,-510.541"/>
<ellipse fill="none" stroke="#921729" cx="297.278" cy="-549.141" rx="4.00001" ry="4.00001"/>
<ellipse fill="#921729" stroke="#921729" cx="290.201" cy="-506.549" rx="4.00001" ry="4.00001"/>
</g>
<!-- UserWishlist -->
<g id="node9" class="node"><title>UserWishlist</title>
<path fill="none" stroke="black" d="M582,-166.5C582,-166.5 805.725,-166.5 805.725,-166.5 811.725,-166.5 817.725,-172.5 817.725,-178.5 817.725,-178.5 817.725,-254.5 817.725,-254.5 817.725,-260.5 811.725,-266.5 805.725,-266.5 805.725,-266.5 582,-266.5 582,-266.5 576,-266.5 570,-260.5 570,-254.5 570,-254.5 570,-178.5 570,-178.5 570,-172.5 576,-166.5 582,-166.5"/>
<text text-anchor="middle" x="693.862" y="-251.3" font-family="Times,serif" font-size="14.00">UserWishlist</text>
<polyline fill="none" stroke="black" points="570,-244.5 817.725,-244.5 "/>
<text text-anchor="start" x="578" y="-229.3" font-family="Times,serif" font-size="14.00">id :integer</text>
<text text-anchor="start" x="578" y="-215.3" font-family="Times,serif" font-size="14.00">user_id :integer</text>
<text text-anchor="start" x="578" y="-201.3" font-family="Times,serif" font-size="14.00">wishlist_id :integer</text>
<text text-anchor="start" x="578" y="-187.3" font-family="Times,serif" font-size="14.00">created_at :timestamp without time zone</text>
<text text-anchor="start" x="578" y="-173.3" font-family="Times,serif" font-size="14.00">updated_at :timestamp without time zone</text>
</g>
<!-- User&#45;&gt;UserWishlist -->
<g id="edge17" class="edge"><title>User&#45;&gt;UserWishlist</title>
<path fill="none" stroke="#be9552" d="M412.589,-545.687C414.365,-542.094 416.124,-538.528 417.862,-535 465.208,-438.887 450.219,-396.754 522.862,-318 539.073,-300.425 559.07,-284.991 579.606,-271.829"/>
<ellipse fill="none" stroke="#be9552" cx="410.697" cy="-549.512" rx="4.00002" ry="4.00002"/>
<polygon fill="#be9552" stroke="#be9552" points="579.633,-271.812 590.499,-270.336 583.875,-269.165 588.117,-266.518 588.117,-266.518 588.117,-266.518 583.875,-269.165 585.734,-262.7 579.633,-271.812 579.633,-271.812"/>
</g>
<!-- User&#45;&gt;Wishlist -->
<g id="edge18" class="edge"><title>User&#45;&gt;Wishlist</title>
<path fill="none" stroke="#5b4511" d="M495.33,-559.797C531.087,-526.765 566.625,-493.936 595.139,-467.595"/>
<polygon fill="#5b4511" stroke="#5b4511" points="494.884,-560.209 484.485,-563.689 491.211,-563.601 487.539,-566.994 487.539,-566.994 487.539,-566.994 491.211,-563.601 490.592,-570.3 494.884,-560.209 494.884,-560.209"/>
<polygon fill="#5b4511" stroke="#5b4511" points="595.264,-467.479 605.663,-463.999 598.937,-464.086 602.61,-460.694 602.61,-460.694 602.61,-460.694 598.937,-464.086 599.556,-457.388 595.264,-467.479 595.264,-467.479"/>
</g>
<!-- UserWishlist&#45;&gt;Product -->
<g id="edge21" class="edge"><title>UserWishlist&#45;&gt;Product</title>
<path fill="none" stroke="#118b7b" d="M761.095,-274.251C772.432,-287.354 782.556,-302.149 788.862,-318 831.261,-424.574 794.295,-758.114 773.175,-918.142"/>
<polygon fill="#118b7b" stroke="#118b7b" points="761.007,-274.154 757.637,-263.718 757.653,-270.445 754.3,-266.737 754.3,-266.737 754.3,-266.737 757.653,-270.445 750.962,-269.755 761.007,-274.154 761.007,-274.154"/>
<polygon fill="#118b7b" stroke="#118b7b" points="773.125,-918.514 767.347,-927.834 772.466,-923.471 771.807,-928.427 771.807,-928.427 771.807,-928.427 772.466,-923.471 776.268,-929.02 773.125,-918.514 773.125,-918.514"/>
</g>
<!-- UserWishlist&#45;&gt;ProductWishlist -->
<g id="edge20" class="edge"><title>UserWishlist&#45;&gt;ProductWishlist</title>
<path fill="none" stroke="#58fe0b" d="M693.862,-158.055C693.862,-147.224 693.862,-135.816 693.862,-124.741"/>
<ellipse fill="none" stroke="#58fe0b" cx="693.862" cy="-162.255" rx="4" ry="4"/>
<polygon fill="#58fe0b" stroke="#58fe0b" points="693.862,-124.69 698.362,-114.69 693.862,-119.69 693.862,-114.69 693.862,-114.69 693.862,-114.69 693.862,-119.69 689.362,-114.69 693.862,-124.69 693.862,-124.69"/>
</g>
<!-- Wishlist&#45;&gt;ProductWishlist -->
<g id="edge23" class="edge"><title>Wishlist&#45;&gt;ProductWishlist</title>
<path fill="none" stroke="#68b7f3" d="M602.768,-353.948C585.986,-332.793 569.557,-307.387 560.862,-281 542.919,-226.547 534.436,-202.88 560.862,-152 566.662,-140.833 574.476,-130.72 583.425,-121.632"/>
<ellipse fill="none" stroke="#68b7f3" cx="605.46" cy="-357.266" rx="4.00002" ry="4.00002"/>
<polygon fill="#68b7f3" stroke="#68b7f3" points="583.597,-121.468 593.937,-117.818 587.213,-118.016 590.83,-114.563 590.83,-114.563 590.83,-114.563 587.213,-118.016 587.722,-111.308 583.597,-121.468 583.597,-121.468"/>
</g>
<!-- Wishlist&#45;&gt;UserWishlist -->
<g id="edge22" class="edge"><title>Wishlist&#45;&gt;UserWishlist</title>
<path fill="none" stroke="#2bb94f" d="M667.21,-352.162C671.917,-328.381 677.376,-300.8 682.123,-276.815"/>
<ellipse fill="none" stroke="#2bb94f" cx="666.425" cy="-356.131" rx="4.00001" ry="4.00001"/>
<polygon fill="#2bb94f" stroke="#2bb94f" points="682.168,-276.587 688.524,-267.651 683.139,-271.682 684.11,-266.777 684.11,-266.777 684.11,-266.777 683.139,-271.682 679.695,-265.904 682.168,-276.587 682.168,-276.587"/>
</g>
</g>
</svg>
