<?xml version="1.0" encoding="UTF-8" standalone="no"?>
<!DOCTYPE svg PUBLIC "-//W3C//DTD SVG 1.1//EN"
 "http://www.w3.org/Graphics/SVG/1.1/DTD/svg11.dtd">
<!-- Generated by graphviz version 2.38.0 (20140413.2041)
 -->
<!-- Title: models_diagram Pages: 1 -->
<svg width="331pt" height="297pt"
 viewBox="0.00 0.00 331.31 297.00" xmlns="http://www.w3.org/2000/svg" xmlns:xlink="http://www.w3.org/1999/xlink">
<g id="graph0" class="graph" transform="scale(1 1) rotate(0) translate(4 293)">
<title>models_diagram</title>
<polygon fill="none" stroke="none" points="-4,4 -4,-293 327.305,-293 327.305,4 -4,4"/>
<!-- _diagram_info -->
<g id="node1" class="node"><title>_diagram_info</title>
<text text-anchor="start" x="8" y="-274.6" font-family="Times,serif" font-size="13.00">Models diagram</text>
<text text-anchor="start" x="8" y="-261.6" font-family="Times,serif" font-size="13.00">Date: Apr 29 2016 &#45; 17:39</text>
<text text-anchor="start" x="8" y="-248.6" font-family="Times,serif" font-size="13.00">Migration version: 20160429203040</text>
<text text-anchor="start" x="8" y="-235.6" font-family="Times,serif" font-size="13.00">Generated by RailRoady 1.4.2</text>
<text text-anchor="start" x="8" y="-222.6" font-family="Times,serif" font-size="13.00">http://railroady.prestonlee.com</text>
</g>
<!-- Comment -->
<g id="node2" class="node"><title>Comment</title>
<ellipse fill="none" stroke="black" cx="252.688" cy="-18" rx="44.9768" ry="18"/>
<text text-anchor="middle" x="252.688" y="-13.8" font-family="Times,serif" font-size="14.00">Comment</text>
</g>
<!-- Product -->
<g id="node3" class="node"><title>Product</title>
<ellipse fill="none" stroke="black" cx="285.688" cy="-90" rx="37.7352" ry="18"/>
<text text-anchor="middle" x="285.688" y="-85.8" font-family="Times,serif" font-size="14.00">Product</text>
</g>
<!-- Product&#45;&gt;Comment -->
<g id="edge1" class="edge"><title>Product&#45;&gt;Comment</title>
<path fill="none" stroke="#7ca246" d="M274.239,-64.7144C271.216,-58.3016 267.942,-51.3577 264.881,-44.8648"/>
<ellipse fill="none" stroke="#7ca246" cx="275.994" cy="-68.4368" rx="4.00002" ry="4.00002"/>
<polygon fill="#7ca246" stroke="#7ca246" points="264.867,-44.8343 264.673,-33.8701 262.735,-40.3116 260.603,-35.789 260.603,-35.789 260.603,-35.789 262.735,-40.3116 256.532,-37.7079 264.867,-44.8343 264.867,-44.8343"/>
</g>
<!-- Store -->
<g id="node4" class="node"><title>Store</title>
<ellipse fill="none" stroke="black" cx="252.688" cy="-162" rx="28.5497" ry="18"/>
<text text-anchor="middle" x="252.688" y="-157.8" font-family="Times,serif" font-size="14.00">Store</text>
</g>
<!-- Store&#45;&gt;Comment -->
<g id="edge3" class="edge"><title>Store&#45;&gt;Comment</title>
<path fill="none" stroke="#f054f8" d="M244.758,-136.332C242.295,-127.494 239.907,-117.394 238.688,-108 236.627,-92.1332 236.627,-87.8668 238.688,-72 239.82,-63.2774 241.96,-53.9451 244.232,-45.5801"/>
<ellipse fill="none" stroke="#f054f8" cx="245.888" cy="-140.198" rx="4.00001" ry="4.00001"/>
<polygon fill="#f054f8" stroke="#f054f8" points="244.235,-45.5697 251.333,-37.2112 245.622,-40.7661 247.01,-35.9624 247.01,-35.9624 247.01,-35.9624 245.622,-40.7661 242.686,-34.7137 244.235,-45.5697 244.235,-45.5697"/>
</g>
<!-- Store&#45;&gt;Product -->
<g id="edge2" class="edge"><title>Store&#45;&gt;Product</title>
<path fill="none" stroke="#d48be8" d="M263.973,-137.062C267.004,-130.632 270.297,-123.647 273.381,-117.106"/>
<ellipse fill="none" stroke="#d48be8" cx="262.214" cy="-140.793" rx="4.00002" ry="4.00002"/>
<polygon fill="#d48be8" stroke="#d48be8" points="273.43,-117.001 281.764,-109.875 275.562,-112.479 277.694,-107.956 277.694,-107.956 277.694,-107.956 275.562,-112.479 273.624,-106.037 273.43,-117.001 273.43,-117.001"/>
</g>
<!-- User -->
<g id="node5" class="node"><title>User</title>
<ellipse fill="none" stroke="black" cx="252.688" cy="-252.5" rx="27" ry="18"/>
<text text-anchor="middle" x="252.688" y="-248.3" font-family="Times,serif" font-size="14.00">User</text>
</g>
<!-- User&#45;&gt;Store -->
<g id="edge4" class="edge"><title>User&#45;&gt;Store</title>
<path fill="none" stroke="#f7b449" d="M252.688,-226.189C252.688,-214.277 252.688,-200.109 252.688,-188.21"/>
<ellipse fill="none" stroke="#f7b449" cx="252.688" cy="-230.436" rx="4" ry="4"/>
<ellipse fill="#f7b449" stroke="#f7b449" cx="252.688" cy="-184.011" rx="4" ry="4"/>
</g>
</g>
</svg>
