<?xml version="1.0" encoding="UTF-8" standalone="no"?>
<!DOCTYPE svg PUBLIC "-//W3C//DTD SVG 1.1//EN"
 "http://www.w3.org/Graphics/SVG/1.1/DTD/svg11.dtd">
<!-- Generated by graphviz version 2.38.0 (20140413.2041)
 -->
<!-- Title: models_diagram Pages: 1 -->
<svg width="830pt" height="326pt"
 viewBox="0.00 0.00 829.97 326.00" xmlns="http://www.w3.org/2000/svg" xmlns:xlink="http://www.w3.org/1999/xlink">
<g id="graph0" class="graph" transform="scale(1 1) rotate(0) translate(4 322)">
<title>models_diagram</title>
<polygon fill="none" stroke="none" points="-4,4 -4,-322 825.968,-322 825.968,4 -4,4"/>
<!-- _diagram_info -->
<g id="node1" class="node"><title>_diagram_info</title>
<text text-anchor="start" x="8" y="-303.6" font-family="Times,serif" font-size="13.00">Models diagram</text>
<text text-anchor="start" x="8" y="-290.6" font-family="Times,serif" font-size="13.00">Date: May 10 2016 &#45; 18:44</text>
<text text-anchor="start" x="8" y="-277.6" font-family="Times,serif" font-size="13.00">Migration version: 20160510214253</text>
<text text-anchor="start" x="8" y="-264.6" font-family="Times,serif" font-size="13.00">Generated by RailRoady 1.4.2</text>
<text text-anchor="start" x="8" y="-251.6" font-family="Times,serif" font-size="13.00">http://railroady.prestonlee.com</text>
</g>
<!-- Ability -->
<g id="node2" class="node"><title>Ability</title>
<polygon fill="none" stroke="black" points="281.358,-299.5 226.018,-299.5 226.018,-263.5 281.358,-263.5 281.358,-299.5"/>
<text text-anchor="middle" x="253.688" y="-277.3" font-family="Times,serif" font-size="14.00">Ability</text>
</g>
<!-- Comment -->
<g id="node3" class="node"><title>Comment</title>
<ellipse fill="none" stroke="black" cx="63.6877" cy="-18" rx="44.9768" ry="18"/>
<text text-anchor="middle" x="63.6877" y="-13.8" font-family="Times,serif" font-size="14.00">Comment</text>
</g>
<!-- Like -->
<g id="node4" class="node"><title>Like</title>
<ellipse fill="none" stroke="black" cx="162.688" cy="-18" rx="27" ry="18"/>
<text text-anchor="middle" x="162.688" y="-13.8" font-family="Times,serif" font-size="14.00">Like</text>
</g>
<!-- Product -->
<g id="node5" class="node"><title>Product</title>
<ellipse fill="none" stroke="black" cx="336.688" cy="-281.5" rx="37.7352" ry="18"/>
<text text-anchor="middle" x="336.688" y="-277.3" font-family="Times,serif" font-size="14.00">Product</text>
</g>
<!-- Product&#45;&gt;Comment -->
<g id="edge1" class="edge"><title>Product&#45;&gt;Comment</title>
<path fill="none" stroke="#677d3d" d="M314.776,-259.789C307.6,-254.099 299.257,-248.531 290.688,-245 213.127,-213.045 154.442,-265.309 108.688,-195 78.5223,-148.645 68.5684,-83.2132 65.2906,-46.5904"/>
<ellipse fill="none" stroke="#677d3d" cx="317.94" cy="-262.429" rx="4.00002" ry="4.00002"/>
<polygon fill="#677d3d" stroke="#677d3d" points="65.2577,-46.1718 68.9588,-35.8494 64.8652,-41.1872 64.4727,-36.2026 64.4727,-36.2026 64.4727,-36.2026 64.8652,-41.1872 59.9866,-36.5559 65.2577,-46.1718 65.2577,-46.1718"/>
</g>
<!-- Product&#45;&gt;Like -->
<g id="edge2" class="edge"><title>Product&#45;&gt;Like</title>
<path fill="none" stroke="#2edebc" d="M321.502,-256.779C296.634,-218.059 245.501,-138.97 200.688,-73 193.951,-63.0832 186.377,-52.2571 179.774,-42.9196"/>
<ellipse fill="none" stroke="#2edebc" cx="323.956" cy="-260.603" rx="4.00002" ry="4.00002"/>
<polygon fill="#2edebc" stroke="#2edebc" points="179.587,-42.6564 177.47,-31.897 176.694,-38.5789 173.8,-34.5014 173.8,-34.5014 173.8,-34.5014 176.694,-38.5789 170.13,-37.1059 179.587,-42.6564 179.587,-42.6564"/>
</g>
<!-- ProductWishlist -->
<g id="node6" class="node"><title>ProductWishlist</title>
<ellipse fill="none" stroke="black" cx="338.688" cy="-18" rx="66.9956" ry="18"/>
<text text-anchor="middle" x="338.688" y="-13.8" font-family="Times,serif" font-size="14.00">ProductWishlist</text>
</g>
<!-- Product&#45;&gt;ProductWishlist -->
<g id="edge4" class="edge"><title>Product&#45;&gt;ProductWishlist</title>
<path fill="none" stroke="#0ca5ca" d="M336.882,-255.163C337.259,-205.862 338.088,-97.4097 338.478,-46.4611"/>
<ellipse fill="none" stroke="#0ca5ca" cx="336.85" cy="-259.342" rx="4" ry="4"/>
<polygon fill="#0ca5ca" stroke="#0ca5ca" points="338.479,-46.2206 343.056,-36.2554 338.518,-41.2208 338.556,-36.2209 338.556,-36.2209 338.556,-36.2209 338.518,-41.2208 334.056,-36.1865 338.479,-46.2206 338.479,-46.2206"/>
</g>
<!-- User -->
<g id="node8" class="node"><title>User</title>
<ellipse fill="none" stroke="black" cx="144.688" cy="-177" rx="27" ry="18"/>
<text text-anchor="middle" x="144.688" y="-172.8" font-family="Times,serif" font-size="14.00">User</text>
</g>
<!-- Product&#45;&gt;User -->
<g id="edge3" class="edge"><title>Product&#45;&gt;User</title>
<path fill="none" stroke="#a72781" d="M312.971,-258.459C306.212,-253.264 298.539,-248.287 290.688,-245 236.167,-222.173 203.672,-265.614 158.922,-227 152.509,-221.466 148.9,-213.229 146.896,-205.081"/>
<polygon fill="#a72781" stroke="#a72781" points="313.262,-258.698 318.132,-268.523 317.125,-261.872 320.988,-265.046 320.988,-265.046 320.988,-265.046 317.125,-261.872 323.845,-261.569 313.262,-258.698 313.262,-258.698"/>
<polygon fill="#a72781" stroke="#a72781" points="146.859,-204.867 149.558,-194.238 145.992,-199.942 145.126,-195.018 145.126,-195.018 145.126,-195.018 145.992,-199.942 140.694,-195.798 146.859,-204.867 146.859,-204.867"/>
<text text-anchor="middle" x="188.071" y="-215.8" font-family="Times,serif" font-size="14.00">user_likes</text>
</g>
<!-- Wishlist -->
<g id="node9" class="node"><title>Wishlist</title>
<ellipse fill="none" stroke="black" cx="288.688" cy="-91" rx="39.4749" ry="18"/>
<text text-anchor="middle" x="288.688" y="-86.8" font-family="Times,serif" font-size="14.00">Wishlist</text>
</g>
<!-- Product&#45;&gt;Wishlist -->
<g id="edge5" class="edge"><title>Product&#45;&gt;Wishlist</title>
<path fill="none" stroke="#98eb65" d="M329.873,-253.737C320.757,-217.938 304.685,-154.823 295.547,-118.937"/>
<polygon fill="#98eb65" stroke="#98eb65" points="329.876,-253.749 327.983,-264.55 331.11,-258.594 332.343,-263.439 332.343,-263.439 332.343,-263.439 331.11,-258.594 336.704,-262.329 329.876,-253.749 329.876,-253.749"/>
<polygon fill="#98eb65" stroke="#98eb65" points="295.525,-118.849 297.418,-108.047 294.291,-114.003 293.057,-109.158 293.057,-109.158 293.057,-109.158 294.291,-114.003 288.696,-110.268 295.525,-118.849 295.525,-118.849"/>
</g>
<!-- ActsAsTaggableOn::Tagging -->
<g id="node10" class="node"><title>ActsAsTaggableOn::Tagging</title>
<ellipse fill="none" stroke="black" cx="496.688" cy="-177" rx="113.006" ry="18"/>
<text text-anchor="middle" x="496.688" y="-172.8" font-family="Times,serif" font-size="14.00">ActsAsTaggableOn::Tagging</text>
</g>
<!-- Product&#45;&gt;ActsAsTaggableOn::Tagging -->
<g id="edge6" class="edge"><title>Product&#45;&gt;ActsAsTaggableOn::Tagging</title>
<path fill="none" stroke="#4c9c3e" d="M355.81,-258.134C369.073,-243.72 387.792,-225.418 407.246,-213 416.813,-206.894 427.615,-201.56 438.319,-197.02"/>
<ellipse fill="none" stroke="#4c9c3e" cx="352.796" cy="-261.478" rx="4.00002" ry="4.00002"/>
<polygon fill="#4c9c3e" stroke="#4c9c3e" points="438.398,-196.988 449.355,-197.407 443.032,-195.112 447.667,-193.236 447.667,-193.236 447.667,-193.236 443.032,-195.112 445.978,-189.064 438.398,-196.988 438.398,-196.988"/>
<text text-anchor="middle" x="431.408" y="-215.8" font-family="Times,serif" font-size="14.00">taggings</text>
</g>
<!-- Product&#45;&gt;ActsAsTaggableOn::Tagging -->
<g id="edge8" class="edge"><title>Product&#45;&gt;ActsAsTaggableOn::Tagging</title>
<path fill="none" stroke="#4b4bd5" d="M374.875,-268.049C399.173,-258.997 430.502,-245.155 454.688,-227 463.559,-220.341 471.85,-211.504 478.683,-203.17"/>
<ellipse fill="none" stroke="#4b4bd5" cx="371.01" cy="-269.453" rx="4.00001" ry="4.00001"/>
<polygon fill="#4b4bd5" stroke="#4b4bd5" points="478.833,-202.977 488.541,-197.876 481.915,-199.04 484.997,-195.103 484.997,-195.103 484.997,-195.103 481.915,-199.04 481.453,-192.329 478.833,-202.977 478.833,-202.977"/>
<text text-anchor="middle" x="505.46" y="-215.8" font-family="Times,serif" font-size="14.00">tag_taggings</text>
</g>
<!-- ActsAsTaggableOn::Tag -->
<g id="node11" class="node"><title>ActsAsTaggableOn::Tag</title>
<ellipse fill="none" stroke="black" cx="724.688" cy="-177" rx="97.0617" ry="18"/>
<text text-anchor="middle" x="724.688" y="-172.8" font-family="Times,serif" font-size="14.00">ActsAsTaggableOn::Tag</text>
</g>
<!-- Product&#45;&gt;ActsAsTaggableOn::Tag -->
<g id="edge7" class="edge"><title>Product&#45;&gt;ActsAsTaggableOn::Tag</title>
<path fill="none" stroke="#171f69" d="M379.253,-269.824C421.524,-259.17 488.156,-242.237 545.688,-227 584.807,-216.639 628.629,-204.65 663.122,-195.124"/>
<polygon fill="#171f69" stroke="#171f69" points="379.01,-269.885 368.214,-267.963 374.161,-271.106 369.313,-272.327 369.313,-272.327 369.313,-272.327 374.161,-271.106 370.411,-276.691 379.01,-269.885 379.01,-269.885"/>
<polygon fill="#171f69" stroke="#171f69" points="663.412,-195.044 674.25,-196.716 668.231,-193.712 673.051,-192.379 673.051,-192.379 673.051,-192.379 668.231,-193.712 671.851,-188.042 663.412,-195.044 663.412,-195.044"/>
<text text-anchor="middle" x="621.902" y="-215.8" font-family="Times,serif" font-size="14.00">base_tags</text>
</g>
<!-- Product&#45;&gt;ActsAsTaggableOn::Tag -->
<g id="edge9" class="edge"><title>Product&#45;&gt;ActsAsTaggableOn::Tag</title>
<path fill="none" stroke="#fc03cb" d="M384.18,-278.756C447.538,-275.039 562.23,-263.407 652.688,-227 668.566,-220.609 684.481,-210.289 697.295,-200.764"/>
<polygon fill="#fc03cb" stroke="#fc03cb" points="384.074,-278.762 373.844,-274.813 379.082,-279.034 374.089,-279.306 374.089,-279.306 374.089,-279.306 379.082,-279.034 374.334,-283.799 384.074,-278.762 384.074,-278.762"/>
<polygon fill="#fc03cb" stroke="#fc03cb" points="697.303,-200.758 707.976,-198.239 701.269,-197.713 705.236,-194.669 705.236,-194.669 705.236,-194.669 701.269,-197.713 702.496,-191.099 697.303,-200.758 697.303,-200.758"/>
<text text-anchor="middle" x="688.964" y="-215.8" font-family="Times,serif" font-size="14.00">tags</text>
</g>
<!-- Store -->
<g id="node7" class="node"><title>Store</title>
<ellipse fill="none" stroke="black" cx="162.688" cy="-91" rx="28.5497" ry="18"/>
<text text-anchor="middle" x="162.688" y="-86.8" font-family="Times,serif" font-size="14.00">Store</text>
</g>
<!-- Store&#45;&gt;Comment -->
<g id="edge11" class="edge"><title>Store&#45;&gt;Comment</title>
<path fill="none" stroke="#35b6ba" d="M137.852,-72.1886C124.321,-62.4841 107.486,-50.4108 93.2776,-40.221"/>
<ellipse fill="none" stroke="#35b6ba" cx="141.279" cy="-74.6463" rx="4.00002" ry="4.00002"/>
<polygon fill="#35b6ba" stroke="#35b6ba" points="92.9495,-39.9857 87.4458,-30.501 88.8864,-37.0718 84.8233,-34.1578 84.8233,-34.1578 84.8233,-34.1578 88.8864,-37.0718 82.2007,-37.8146 92.9495,-39.9857 92.9495,-39.9857"/>
</g>
<!-- Store&#45;&gt;Like -->
<g id="edge12" class="edge"><title>Store&#45;&gt;Like</title>
<path fill="none" stroke="#52be5d" d="M162.688,-64.791C162.688,-58.832 162.688,-52.4496 162.688,-46.3988"/>
<ellipse fill="none" stroke="#52be5d" cx="162.688" cy="-68.8129" rx="4" ry="4"/>
<polygon fill="#52be5d" stroke="#52be5d" points="162.688,-46.0288 167.188,-36.0288 162.688,-41.0288 162.688,-36.0288 162.688,-36.0288 162.688,-36.0288 162.688,-41.0288 158.188,-36.0289 162.688,-46.0288 162.688,-46.0288"/>
</g>
<!-- Store&#45;&gt;Product -->
<g id="edge10" class="edge"><title>Store&#45;&gt;Product</title>
<path fill="none" stroke="#f3caad" d="M188.059,-110.214C194.211,-115.265 200.503,-121.017 205.688,-127 239.63,-166.171 230.602,-188.851 265.688,-227 274.956,-237.077 279.711,-236.816 290.688,-245 296.915,-249.643 303.558,-254.704 309.803,-259.513"/>
<ellipse fill="none" stroke="#f3caad" cx="184.635" cy="-107.51" rx="4.00002" ry="4.00002"/>
<polygon fill="#f3caad" stroke="#f3caad" points="310.086,-259.731 315.243,-269.409 314.041,-262.79 317.996,-265.849 317.996,-265.849 317.996,-265.849 314.041,-262.79 320.749,-262.29 310.086,-259.731 310.086,-259.731"/>
</g>
<!-- Store&#45;&gt;User -->
<g id="edge13" class="edge"><title>Store&#45;&gt;User</title>
<path fill="none" stroke="#9c5602" d="M140.738,-114.296C137.949,-118.257 135.517,-122.548 133.922,-127 131.337,-134.216 131.802,-142.261 133.524,-149.712"/>
<polygon fill="#9c5602" stroke="#9c5602" points="140.962,-114.016 150.733,-109.038 144.094,-110.118 147.225,-106.22 147.225,-106.22 147.225,-106.22 144.094,-110.118 143.716,-103.402 140.962,-114.016 140.962,-114.016"/>
<polygon fill="#9c5602" stroke="#9c5602" points="133.555,-149.811 132.183,-160.69 135.02,-154.591 136.485,-159.372 136.485,-159.372 136.485,-159.372 135.02,-154.591 140.788,-158.053 133.555,-149.811 133.555,-149.811"/>
<text text-anchor="middle" x="163.071" y="-129.8" font-family="Times,serif" font-size="14.00">user_likes</text>
</g>
<!-- User&#45;&gt;Comment -->
<g id="edge16" class="edge"><title>User&#45;&gt;Comment</title>
<path fill="none" stroke="#fd8620" d="M128.554,-153.633C125.809,-149.507 123.076,-145.18 120.688,-141 102.463,-109.102 85.1355,-70.396 74.4702,-45.2585"/>
<ellipse fill="none" stroke="#fd8620" cx="130.872" cy="-157.023" rx="4.00002" ry="4.00002"/>
<polygon fill="#fd8620" stroke="#fd8620" points="74.4597,-45.2333 74.7378,-34.2709 72.5242,-40.6231 70.5886,-36.0129 70.5886,-36.0129 70.5886,-36.0129 72.5242,-40.6231 66.4395,-37.7549 74.4597,-45.2333 74.4597,-45.2333"/>
</g>
<!-- User&#45;&gt;Like -->
<g id="edge15" class="edge"><title>User&#45;&gt;Like</title>
<path fill="none" stroke="#589130" d="M132.693,-152.302C131.155,-148.588 129.749,-144.74 128.688,-141 120.421,-111.876 115.55,-101.863 124.688,-73 128.29,-61.6202 135.249,-50.5641 142.237,-41.4509"/>
<ellipse fill="none" stroke="#589130" cx="134.342" cy="-156.004" rx="4.00002" ry="4.00002"/>
<polygon fill="#589130" stroke="#589130" points="142.255,-41.4294 152.058,-36.5155 145.412,-37.5519 148.568,-33.6744 148.568,-33.6744 148.568,-33.6744 145.412,-37.5519 145.079,-30.8333 142.255,-41.4294 142.255,-41.4294"/>
</g>
<!-- User&#45;&gt;Store -->
<g id="edge14" class="edge"><title>User&#45;&gt;Store</title>
<path fill="none" stroke="#b9db2a" d="M172.487,-161.204C179.748,-155.871 186.661,-149.123 190.688,-141 195.473,-131.346 190.98,-120.945 184.298,-112.219"/>
<ellipse fill="none" stroke="#b9db2a" cx="169.113" cy="-163.471" rx="4.00002" ry="4.00002"/>
<ellipse fill="#b9db2a" stroke="#b9db2a" cx="181.485" cy="-108.947" rx="4.00002" ry="4.00002"/>
</g>
<!-- User&#45;&gt;Wishlist -->
<g id="edge17" class="edge"><title>User&#45;&gt;Wishlist</title>
<path fill="none" stroke="#320e3e" d="M171.566,-160.673C182.209,-154.58 194.542,-147.487 205.688,-141 222.613,-131.149 241.409,-120.064 256.829,-110.933"/>
<ellipse fill="none" stroke="#320e3e" cx="167.976" cy="-162.727" rx="4.00002" ry="4.00002"/>
<polygon fill="#320e3e" stroke="#320e3e" points="256.876,-110.905 267.773,-109.677 261.177,-108.355 265.478,-105.806 265.478,-105.806 265.478,-105.806 261.177,-108.355 263.183,-101.935 256.876,-110.905 256.876,-110.905"/>
</g>
<!-- Wishlist&#45;&gt;ProductWishlist -->
<g id="edge18" class="edge"><title>Wishlist&#45;&gt;ProductWishlist</title>
<path fill="none" stroke="#739dd1" d="M305.001,-66.8348C310.111,-59.5797 315.773,-51.5395 320.974,-44.154"/>
<ellipse fill="none" stroke="#739dd1" cx="302.588" cy="-70.2623" rx="4.00002" ry="4.00002"/>
<polygon fill="#739dd1" stroke="#739dd1" points="321.049,-44.0471 330.486,-38.462 323.928,-39.9591 326.807,-35.871 326.807,-35.871 326.807,-35.871 323.928,-39.9591 323.128,-33.28 321.049,-44.0471 321.049,-44.0471"/>
</g>
</g>
</svg>
