<?xml version="1.0" encoding="UTF-8" standalone="no"?>
<!DOCTYPE svg PUBLIC "-//W3C//DTD SVG 1.1//EN"
 "http://www.w3.org/Graphics/SVG/1.1/DTD/svg11.dtd">
<!-- Generated by graphviz version 2.38.0 (20140413.2041)
 -->
<!-- Title: models_diagram Pages: 1 -->
<svg width="448pt" height="326pt"
 viewBox="0.00 0.00 447.68 326.00" xmlns="http://www.w3.org/2000/svg" xmlns:xlink="http://www.w3.org/1999/xlink">
<g id="graph0" class="graph" transform="scale(1 1) rotate(0) translate(4 322)">
<title>models_diagram</title>
<polygon fill="none" stroke="none" points="-4,4 -4,-322 443.676,-322 443.676,4 -4,4"/>
<!-- _diagram_info -->
<g id="node1" class="node"><title>_diagram_info</title>
<text text-anchor="start" x="8" y="-303.6" font-family="Times,serif" font-size="13.00">Models diagram</text>
<text text-anchor="start" x="8" y="-290.6" font-family="Times,serif" font-size="13.00">Date: May 02 2016 &#45; 20:06</text>
<text text-anchor="start" x="8" y="-277.6" font-family="Times,serif" font-size="13.00">Migration version: 20160501223603</text>
<text text-anchor="start" x="8" y="-264.6" font-family="Times,serif" font-size="13.00">Generated by RailRoady 1.4.2</text>
<text text-anchor="start" x="8" y="-251.6" font-family="Times,serif" font-size="13.00">http://railroady.prestonlee.com</text>
</g>
<!-- Comment -->
<g id="node2" class="node"><title>Comment</title>
<ellipse fill="none" stroke="black" cx="394.688" cy="-18" rx="44.9768" ry="18"/>
<text text-anchor="middle" x="394.688" y="-13.8" font-family="Times,serif" font-size="14.00">Comment</text>
</g>
<!-- Like -->
<g id="node3" class="node"><title>Like</title>
<ellipse fill="none" stroke="black" cx="264.688" cy="-18" rx="27" ry="18"/>
<text text-anchor="middle" x="264.688" y="-13.8" font-family="Times,serif" font-size="14.00">Like</text>
</g>
<!-- Product -->
<g id="node4" class="node"><title>Product</title>
<ellipse fill="none" stroke="black" cx="262.688" cy="-281.5" rx="37.7352" ry="18"/>
<text text-anchor="middle" x="262.688" y="-277.3" font-family="Times,serif" font-size="14.00">Product</text>
</g>
<!-- Product&#45;&gt;Comment -->
<g id="edge1" class="edge"><title>Product&#45;&gt;Comment</title>
<path fill="none" stroke="#7cd9db" d="M296.224,-264.338C312.687,-255.144 331.892,-242.386 345.688,-227 384.831,-183.344 388.597,-165.384 404.688,-109 411.423,-85.3971 414.623,-78.044 409.688,-54 409.102,-51.1466 408.274,-48.2385 407.303,-45.3792"/>
<ellipse fill="none" stroke="#7cd9db" cx="292.401" cy="-266.405" rx="4.00002" ry="4.00002"/>
<polygon fill="#7cd9db" stroke="#7cd9db" points="407.272,-45.299 407.791,-34.3454 405.438,-40.6473 403.605,-35.9956 403.605,-35.9956 403.605,-35.9956 405.438,-40.6473 399.418,-37.6458 407.272,-45.299 407.272,-45.299"/>
</g>
<!-- Product&#45;&gt;Like -->
<g id="edge2" class="edge"><title>Product&#45;&gt;Like</title>
<path fill="none" stroke="#413fc8" d="M254.758,-255.595C252.295,-246.673 249.907,-236.478 248.688,-227 240.368,-162.342 251.658,-85.7792 259.094,-46.0173"/>
<ellipse fill="none" stroke="#413fc8" cx="255.897" cy="-259.531" rx="4.00001" ry="4.00001"/>
<polygon fill="#413fc8" stroke="#413fc8" points="259.124,-45.864 265.443,-36.9015 260.074,-40.9551 261.025,-36.0462 261.025,-36.0462 261.025,-36.0462 260.074,-40.9551 256.607,-35.1909 259.124,-45.864 259.124,-45.864"/>
</g>
<!-- User -->
<g id="node6" class="node"><title>User</title>
<ellipse fill="none" stroke="black" cx="297.688" cy="-177" rx="27" ry="18"/>
<text text-anchor="middle" x="297.688" y="-172.8" font-family="Times,serif" font-size="14.00">User</text>
</g>
<!-- Product&#45;&gt;User -->
<g id="edge3" class="edge"><title>Product&#45;&gt;User</title>
<path fill="none" stroke="#430d09" d="M271.7,-254.106C276.908,-238.855 283.439,-219.729 288.651,-204.465"/>
<polygon fill="#430d09" stroke="#430d09" points="271.699,-254.111 264.209,-262.12 270.083,-258.842 268.467,-263.574 268.467,-263.574 268.467,-263.574 270.083,-258.842 272.726,-265.028 271.699,-254.111 271.699,-254.111"/>
<polygon fill="#430d09" stroke="#430d09" points="288.784,-204.074 296.274,-196.065 290.4,-199.343 292.016,-194.611 292.016,-194.611 292.016,-194.611 290.4,-199.343 287.757,-193.157 288.784,-204.074 288.784,-204.074"/>
<text text-anchor="middle" x="313.071" y="-215.8" font-family="Times,serif" font-size="14.00">user_likes</text>
</g>
<!-- Store -->
<g id="node5" class="node"><title>Store</title>
<ellipse fill="none" stroke="black" cx="321.688" cy="-91" rx="28.5497" ry="18"/>
<text text-anchor="middle" x="321.688" y="-86.8" font-family="Times,serif" font-size="14.00">Store</text>
</g>
<!-- Store&#45;&gt;Comment -->
<g id="edge5" class="edge"><title>Store&#45;&gt;Comment</title>
<path fill="none" stroke="#1da6f1" d="M342.81,-69.4567C351.641,-60.8677 361.941,-50.8492 371.026,-42.0134"/>
<ellipse fill="none" stroke="#1da6f1" cx="339.681" cy="-72.4999" rx="4.00002" ry="4.00002"/>
<polygon fill="#1da6f1" stroke="#1da6f1" points="371.144,-41.8991 381.45,-38.1528 374.728,-38.413 378.312,-34.9269 378.312,-34.9269 378.312,-34.9269 374.728,-38.413 375.175,-31.701 371.144,-41.8991 371.144,-41.8991"/>
</g>
<!-- Store&#45;&gt;Like -->
<g id="edge6" class="edge"><title>Store&#45;&gt;Like</title>
<path fill="none" stroke="#793482" d="M304.106,-68.1005C297.53,-59.9086 290.039,-50.5784 283.367,-42.2673"/>
<ellipse fill="none" stroke="#793482" cx="306.815" cy="-71.4749" rx="4.00002" ry="4.00002"/>
<polygon fill="#793482" stroke="#793482" points="283.292,-42.1739 280.541,-31.5587 280.162,-38.2749 277.032,-34.3759 277.032,-34.3759 277.032,-34.3759 280.162,-38.2749 273.523,-37.193 283.292,-42.1739 283.292,-42.1739"/>
</g>
<!-- Store&#45;&gt;Product -->
<g id="edge4" class="edge"><title>Store&#45;&gt;Product</title>
<path fill="none" stroke="#f5de4f" d="M297.587,-111.001C284.24,-123.12 268.923,-140.074 261.688,-159 249.955,-189.688 252.869,-228.008 256.95,-253.314"/>
<ellipse fill="none" stroke="#f5de4f" cx="300.924" cy="-108.085" rx="4.00002" ry="4.00002"/>
<polygon fill="#f5de4f" stroke="#f5de4f" points="256.976,-253.458 254.301,-264.093 257.854,-258.381 258.731,-263.303 258.731,-263.303 258.731,-263.303 257.854,-258.381 263.162,-262.513 256.976,-253.458 256.976,-253.458"/>
</g>
<!-- Store&#45;&gt;User -->
<g id="edge7" class="edge"><title>Store&#45;&gt;User</title>
<path fill="none" stroke="#6ea583" d="M303.607,-116.175C301.712,-119.664 300.064,-123.322 298.922,-127 296.787,-133.88 295.929,-141.568 295.737,-148.778"/>
<polygon fill="#6ea583" stroke="#6ea583" points="303.754,-115.938 312.848,-109.81 306.389,-111.688 309.023,-107.438 309.023,-107.438 309.023,-107.438 306.389,-111.688 305.198,-105.067 303.754,-115.938 303.754,-115.938"/>
<polygon fill="#6ea583" stroke="#6ea583" points="295.737,-148.849 291.361,-158.903 295.799,-153.848 295.861,-158.848 295.861,-158.848 295.861,-158.848 295.799,-153.848 300.36,-158.792 295.737,-148.849 295.737,-148.849"/>
<text text-anchor="middle" x="327.071" y="-129.8" font-family="Times,serif" font-size="14.00">user_likes</text>
</g>
<!-- User&#45;&gt;Comment -->
<g id="edge10" class="edge"><title>User&#45;&gt;Comment</title>
<path fill="none" stroke="#66dd90" d="M330.5,-167.555C344.892,-162.226 360.74,-153.845 370.688,-141 391.715,-113.85 395.876,-73.3318 396.014,-46.5439"/>
<ellipse fill="none" stroke="#66dd90" cx="326.488" cy="-168.922" rx="4.00001" ry="4.00001"/>
<polygon fill="#66dd90" stroke="#66dd90" points="396.011,-46.3235 400.375,-36.2632 395.943,-41.3239 395.875,-36.3244 395.875,-36.3244 395.875,-36.3244 395.943,-41.3239 391.376,-36.3855 396.011,-46.3235 396.011,-46.3235"/>
</g>
<!-- User&#45;&gt;Like -->
<g id="edge9" class="edge"><title>User&#45;&gt;Like</title>
<path fill="none" stroke="#16d0be" d="M292.402,-150.852C286.378,-122.193 276.568,-75.523 270.38,-46.0816"/>
<ellipse fill="none" stroke="#16d0be" cx="293.271" cy="-154.985" rx="4.00001" ry="4.00001"/>
<polygon fill="#16d0be" stroke="#16d0be" points="270.335,-45.8657 272.681,-35.1539 269.306,-40.9726 268.278,-36.0795 268.278,-36.0795 268.278,-36.0795 269.306,-40.9726 263.874,-37.0052 270.335,-45.8657 270.335,-45.8657"/>
</g>
<!-- User&#45;&gt;Store -->
<g id="edge8" class="edge"><title>User&#45;&gt;Store</title>
<path fill="none" stroke="#4fa56f" d="M328.94,-164.614C339.345,-159.154 349.779,-151.466 355.688,-141 361.617,-130.497 355.111,-119.407 346.259,-110.439"/>
<ellipse fill="none" stroke="#4fa56f" cx="325.043" cy="-166.477" rx="4.00002" ry="4.00002"/>
<ellipse fill="#4fa56f" stroke="#4fa56f" cx="343.155" cy="-107.586" rx="4.00002" ry="4.00002"/>
</g>
</g>
</svg>
