<?xml version="1.0" encoding="UTF-8" standalone="no"?>
<!DOCTYPE svg PUBLIC "-//W3C//DTD SVG 1.1//EN"
 "http://www.w3.org/Graphics/SVG/1.1/DTD/svg11.dtd">
<!-- Generated by graphviz version 2.38.0 (20140413.2041)
 -->
<!-- Title: models_diagram Pages: 1 -->
<svg width="593pt" height="898pt"
 viewBox="0.00 0.00 592.55 898.00" xmlns="http://www.w3.org/2000/svg" xmlns:xlink="http://www.w3.org/1999/xlink">
<g id="graph0" class="graph" transform="scale(1 1) rotate(0) translate(4 894)">
<title>models_diagram</title>
<polygon fill="none" stroke="none" points="-4,4 -4,-894 588.55,-894 588.55,4 -4,4"/>
<!-- _diagram_info -->
<g id="node1" class="node"><title>_diagram_info</title>
<text text-anchor="start" x="8" y="-749.6" font-family="Times,serif" font-size="13.00">Models diagram</text>
<text text-anchor="start" x="8" y="-736.6" font-family="Times,serif" font-size="13.00">Date: Apr 29 2016 &#45; 17:39</text>
<text text-anchor="start" x="8" y="-723.6" font-family="Times,serif" font-size="13.00">Migration version: 20160429203040</text>
<text text-anchor="start" x="8" y="-710.6" font-family="Times,serif" font-size="13.00">Generated by RailRoady 1.4.2</text>
<text text-anchor="start" x="8" y="-697.6" font-family="Times,serif" font-size="13.00">http://railroady.prestonlee.com</text>
</g>
<!-- Comment -->
<g id="node2" class="node"><title>Comment</title>
<path fill="none" stroke="black" d="M272.825,-0.5C272.825,-0.5 496.55,-0.5 496.55,-0.5 502.55,-0.5 508.55,-6.5 508.55,-12.5 508.55,-12.5 508.55,-116.5 508.55,-116.5 508.55,-122.5 502.55,-128.5 496.55,-128.5 496.55,-128.5 272.825,-128.5 272.825,-128.5 266.825,-128.5 260.825,-122.5 260.825,-116.5 260.825,-116.5 260.825,-12.5 260.825,-12.5 260.825,-6.5 266.825,-0.5 272.825,-0.5"/>
<text text-anchor="middle" x="384.688" y="-113.3" font-family="Times,serif" font-size="14.00">Comment</text>
<polyline fill="none" stroke="black" points="260.825,-106.5 508.55,-106.5 "/>
<text text-anchor="start" x="268.825" y="-91.3" font-family="Times,serif" font-size="14.00">content :text</text>
<text text-anchor="start" x="268.825" y="-77.3" font-family="Times,serif" font-size="14.00">commentable_id :integer</text>
<text text-anchor="start" x="268.825" y="-63.3" font-family="Times,serif" font-size="14.00">commentable_type :character varying</text>
<text text-anchor="start" x="268.825" y="-49.3" font-family="Times,serif" font-size="14.00">id :integer</text>
<text text-anchor="start" x="268.825" y="-35.3" font-family="Times,serif" font-size="14.00">user_id :integer</text>
<text text-anchor="start" x="268.825" y="-21.3" font-family="Times,serif" font-size="14.00">created_at :timestamp without time zone</text>
<text text-anchor="start" x="268.825" y="-7.3" font-family="Times,serif" font-size="14.00">updated_at :timestamp without time zone</text>
</g>
<!-- Product -->
<g id="node3" class="node"><title>Product</title>
<path fill="none" stroke="black" d="M348.825,-165.5C348.825,-165.5 572.55,-165.5 572.55,-165.5 578.55,-165.5 584.55,-171.5 584.55,-177.5 584.55,-177.5 584.55,-309.5 584.55,-309.5 584.55,-315.5 578.55,-321.5 572.55,-321.5 572.55,-321.5 348.825,-321.5 348.825,-321.5 342.825,-321.5 336.825,-315.5 336.825,-309.5 336.825,-309.5 336.825,-177.5 336.825,-177.5 336.825,-171.5 342.825,-165.5 348.825,-165.5"/>
<text text-anchor="middle" x="460.688" y="-306.3" font-family="Times,serif" font-size="14.00">Product</text>
<polyline fill="none" stroke="black" points="336.825,-299.5 584.55,-299.5 "/>
<text text-anchor="start" x="344.825" y="-284.3" font-family="Times,serif" font-size="14.00">updated_at :timestamp without time zone</text>
<text text-anchor="start" x="344.825" y="-270.3" font-family="Times,serif" font-size="14.00">name :character varying</text>
<text text-anchor="start" x="344.825" y="-256.3" font-family="Times,serif" font-size="14.00">description :text</text>
<text text-anchor="start" x="344.825" y="-242.3" font-family="Times,serif" font-size="14.00">photo :character varying</text>
<text text-anchor="start" x="344.825" y="-228.3" font-family="Times,serif" font-size="14.00">price :integer</text>
<text text-anchor="start" x="344.825" y="-214.3" font-family="Times,serif" font-size="14.00">stock :integer</text>
<text text-anchor="start" x="344.825" y="-200.3" font-family="Times,serif" font-size="14.00">store_id :integer</text>
<text text-anchor="start" x="344.825" y="-186.3" font-family="Times,serif" font-size="14.00">created_at :timestamp without time zone</text>
<text text-anchor="start" x="344.825" y="-172.3" font-family="Times,serif" font-size="14.00">id :integer</text>
</g>
<!-- Product&#45;&gt;Comment -->
<g id="edge1" class="edge"><title>Product&#45;&gt;Comment</title>
<path fill="none" stroke="#42b4ca" d="M424.344,-157.858C421.499,-151.231 418.641,-144.574 415.834,-138.038"/>
<ellipse fill="none" stroke="#42b4ca" cx="425.996" cy="-161.705" rx="4.00002" ry="4.00002"/>
<polygon fill="#42b4ca" stroke="#42b4ca" points="415.712,-137.754 415.902,-126.79 413.74,-133.16 411.767,-128.566 411.767,-128.566 411.767,-128.566 413.74,-133.16 407.632,-130.341 415.712,-137.754 415.712,-137.754"/>
</g>
<!-- Store -->
<g id="node4" class="node"><title>Store</title>
<path fill="none" stroke="black" d="M272.825,-358.5C272.825,-358.5 496.55,-358.5 496.55,-358.5 502.55,-358.5 508.55,-364.5 508.55,-370.5 508.55,-370.5 508.55,-516.5 508.55,-516.5 508.55,-522.5 502.55,-528.5 496.55,-528.5 496.55,-528.5 272.825,-528.5 272.825,-528.5 266.825,-528.5 260.825,-522.5 260.825,-516.5 260.825,-516.5 260.825,-370.5 260.825,-370.5 260.825,-364.5 266.825,-358.5 272.825,-358.5"/>
<text text-anchor="middle" x="384.688" y="-513.3" font-family="Times,serif" font-size="14.00">Store</text>
<polyline fill="none" stroke="black" points="260.825,-506.5 508.55,-506.5 "/>
<text text-anchor="start" x="268.825" y="-491.3" font-family="Times,serif" font-size="14.00">updated_at :timestamp without time zone</text>
<text text-anchor="start" x="268.825" y="-477.3" font-family="Times,serif" font-size="14.00">name :character varying</text>
<text text-anchor="start" x="268.825" y="-463.3" font-family="Times,serif" font-size="14.00">description :text</text>
<text text-anchor="start" x="268.825" y="-449.3" font-family="Times,serif" font-size="14.00">photo :character varying</text>
<text text-anchor="start" x="268.825" y="-435.3" font-family="Times,serif" font-size="14.00">cover_photo :character varying</text>
<text text-anchor="start" x="268.825" y="-421.3" font-family="Times,serif" font-size="14.00">facebook_link :character varying</text>
<text text-anchor="start" x="268.825" y="-407.3" font-family="Times,serif" font-size="14.00">instagram_link :character varying</text>
<text text-anchor="start" x="268.825" y="-393.3" font-family="Times,serif" font-size="14.00">user_id :integer</text>
<text text-anchor="start" x="268.825" y="-379.3" font-family="Times,serif" font-size="14.00">created_at :timestamp without time zone</text>
<text text-anchor="start" x="268.825" y="-365.3" font-family="Times,serif" font-size="14.00">id :integer</text>
</g>
<!-- Store&#45;&gt;Comment -->
<g id="edge3" class="edge"><title>Store&#45;&gt;Comment</title>
<path fill="none" stroke="#145d03" d="M336.305,-350.692C332.813,-341.197 329.829,-331.532 327.688,-322 312.398,-253.918 309.742,-232.431 327.688,-165 330.12,-155.862 333.612,-146.689 337.686,-137.81"/>
<ellipse fill="none" stroke="#145d03" cx="337.776" cy="-354.53" rx="4.00001" ry="4.00001"/>
<polygon fill="#145d03" stroke="#145d03" points="337.754,-137.67 346.171,-130.642 339.939,-133.173 342.124,-128.676 342.124,-128.676 342.124,-128.676 339.939,-133.173 338.076,-126.709 337.754,-137.67 337.754,-137.67"/>
</g>
<!-- Store&#45;&gt;Product -->
<g id="edge2" class="edge"><title>Store&#45;&gt;Product</title>
<path fill="none" stroke="#f338bf" d="M419.982,-350.55C422.464,-344.083 424.962,-337.576 427.432,-331.14"/>
<ellipse fill="none" stroke="#f338bf" cx="418.462" cy="-354.509" rx="4.00001" ry="4.00001"/>
<polygon fill="#f338bf" stroke="#f338bf" points="427.444,-331.109 435.228,-323.386 429.235,-326.441 431.027,-321.774 431.027,-321.774 431.027,-321.774 429.235,-326.441 426.826,-320.161 427.444,-331.109 427.444,-331.109"/>
</g>
<!-- User -->
<g id="node5" class="node"><title>User</title>
<path fill="none" stroke="black" d="M237.053,-565.5C237.053,-565.5 532.323,-565.5 532.323,-565.5 538.323,-565.5 544.323,-571.5 544.323,-577.5 544.323,-577.5 544.323,-877.5 544.323,-877.5 544.323,-883.5 538.323,-889.5 532.323,-889.5 532.323,-889.5 237.053,-889.5 237.053,-889.5 231.053,-889.5 225.053,-883.5 225.053,-877.5 225.053,-877.5 225.053,-577.5 225.053,-577.5 225.053,-571.5 231.053,-565.5 237.053,-565.5"/>
<text text-anchor="middle" x="384.688" y="-874.3" font-family="Times,serif" font-size="14.00">User</text>
<polyline fill="none" stroke="black" points="225.053,-867.5 544.323,-867.5 "/>
<text text-anchor="start" x="233.053" y="-852.3" font-family="Times,serif" font-size="14.00">gender :integer</text>
<text text-anchor="start" x="233.053" y="-838.3" font-family="Times,serif" font-size="14.00">email :character varying</text>
<text text-anchor="start" x="233.053" y="-824.3" font-family="Times,serif" font-size="14.00">encrypted_password :character varying</text>
<text text-anchor="start" x="233.053" y="-810.3" font-family="Times,serif" font-size="14.00">reset_password_token :character varying</text>
<text text-anchor="start" x="233.053" y="-796.3" font-family="Times,serif" font-size="14.00">reset_password_sent_at :timestamp without time zone</text>
<text text-anchor="start" x="233.053" y="-782.3" font-family="Times,serif" font-size="14.00">remember_created_at :timestamp without time zone</text>
<text text-anchor="start" x="233.053" y="-768.3" font-family="Times,serif" font-size="14.00">sign_in_count :integer</text>
<text text-anchor="start" x="233.053" y="-754.3" font-family="Times,serif" font-size="14.00">current_sign_in_at :timestamp without time zone</text>
<text text-anchor="start" x="233.053" y="-740.3" font-family="Times,serif" font-size="14.00">last_sign_in_at :timestamp without time zone</text>
<text text-anchor="start" x="233.053" y="-726.3" font-family="Times,serif" font-size="14.00">current_sign_in_ip :inet</text>
<text text-anchor="start" x="233.053" y="-712.3" font-family="Times,serif" font-size="14.00">last_sign_in_ip :inet</text>
<text text-anchor="start" x="233.053" y="-698.3" font-family="Times,serif" font-size="14.00">created_at :timestamp without time zone</text>
<text text-anchor="start" x="233.053" y="-684.3" font-family="Times,serif" font-size="14.00">updated_at :timestamp without time zone</text>
<text text-anchor="start" x="233.053" y="-670.3" font-family="Times,serif" font-size="14.00">provider :character varying</text>
<text text-anchor="start" x="233.053" y="-656.3" font-family="Times,serif" font-size="14.00">uid :character varying</text>
<text text-anchor="start" x="233.053" y="-642.3" font-family="Times,serif" font-size="14.00">name :character varying</text>
<text text-anchor="start" x="233.053" y="-628.3" font-family="Times,serif" font-size="14.00">last_name :character varying</text>
<text text-anchor="start" x="233.053" y="-614.3" font-family="Times,serif" font-size="14.00">age :integer</text>
<text text-anchor="start" x="233.053" y="-600.3" font-family="Times,serif" font-size="14.00">phone_number :character varying</text>
<text text-anchor="start" x="233.053" y="-586.3" font-family="Times,serif" font-size="14.00">avatar :character varying</text>
<text text-anchor="start" x="233.053" y="-572.3" font-family="Times,serif" font-size="14.00">id :integer</text>
</g>
<!-- User&#45;&gt;Store -->
<g id="edge4" class="edge"><title>User&#45;&gt;Store</title>
<path fill="none" stroke="#034da4" d="M384.688,-557.098C384.688,-550.248 384.688,-543.492 384.688,-536.898"/>
<ellipse fill="none" stroke="#034da4" cx="384.688" cy="-561.321" rx="4" ry="4"/>
<ellipse fill="#034da4" stroke="#034da4" cx="384.688" cy="-532.636" rx="4" ry="4"/>
</g>
</g>
</svg>
