<?xml version="1.0" encoding="UTF-8" standalone="no"?>
<!DOCTYPE svg PUBLIC "-//W3C//DTD SVG 1.1//EN"
 "http://www.w3.org/Graphics/SVG/1.1/DTD/svg11.dtd">
<!-- Generated by graphviz version 2.38.0 (20140413.2041)
 -->
<!-- Title: models_diagram Pages: 1 -->
<svg width="977pt" height="927pt"
 viewBox="0.00 0.00 977.34 927.00" xmlns="http://www.w3.org/2000/svg" xmlns:xlink="http://www.w3.org/1999/xlink">
<g id="graph0" class="graph" transform="scale(1 1) rotate(0) translate(4 923)">
<title>models_diagram</title>
<polygon fill="none" stroke="none" points="-4,4 -4,-923 973.338,-923 973.338,4 -4,4"/>
<!-- _diagram_info -->
<g id="node1" class="node"><title>_diagram_info</title>
<text text-anchor="start" x="204.889" y="-862.6" font-family="Times,serif" font-size="13.00">Models diagram</text>
<text text-anchor="start" x="204.889" y="-849.6" font-family="Times,serif" font-size="13.00">Date: May 02 2016 &#45; 22:43</text>
<text text-anchor="start" x="204.889" y="-836.6" font-family="Times,serif" font-size="13.00">Migration version: 20160502231111</text>
<text text-anchor="start" x="204.889" y="-823.6" font-family="Times,serif" font-size="13.00">Generated by RailRoady 1.4.2</text>
<text text-anchor="start" x="204.889" y="-810.6" font-family="Times,serif" font-size="13.00">http://railroady.prestonlee.com</text>
</g>
<!-- Comment -->
<g id="node2" class="node"><title>Comment</title>
<path fill="none" stroke="black" d="M316,-0.5C316,-0.5 539.725,-0.5 539.725,-0.5 545.725,-0.5 551.725,-6.5 551.725,-12.5 551.725,-12.5 551.725,-116.5 551.725,-116.5 551.725,-122.5 545.725,-128.5 539.725,-128.5 539.725,-128.5 316,-128.5 316,-128.5 310,-128.5 304,-122.5 304,-116.5 304,-116.5 304,-12.5 304,-12.5 304,-6.5 310,-0.5 316,-0.5"/>
<text text-anchor="middle" x="427.862" y="-113.3" font-family="Times,serif" font-size="14.00">Comment</text>
<polyline fill="none" stroke="black" points="304,-106.5 551.725,-106.5 "/>
<text text-anchor="start" x="312" y="-91.3" font-family="Times,serif" font-size="14.00">content :text</text>
<text text-anchor="start" x="312" y="-77.3" font-family="Times,serif" font-size="14.00">commentable_id :integer</text>
<text text-anchor="start" x="312" y="-63.3" font-family="Times,serif" font-size="14.00">commentable_type :character varying</text>
<text text-anchor="start" x="312" y="-49.3" font-family="Times,serif" font-size="14.00">id :integer</text>
<text text-anchor="start" x="312" y="-35.3" font-family="Times,serif" font-size="14.00">user_id :integer</text>
<text text-anchor="start" x="312" y="-21.3" font-family="Times,serif" font-size="14.00">created_at :timestamp without time zone</text>
<text text-anchor="start" x="312" y="-7.3" font-family="Times,serif" font-size="14.00">updated_at :timestamp without time zone</text>
</g>
<!-- Like -->
<g id="node3" class="node"><title>Like</title>
<path fill="none" stroke="black" d="M12,-7.5C12,-7.5 235.725,-7.5 235.725,-7.5 241.725,-7.5 247.725,-13.5 247.725,-19.5 247.725,-19.5 247.725,-109.5 247.725,-109.5 247.725,-115.5 241.725,-121.5 235.725,-121.5 235.725,-121.5 12,-121.5 12,-121.5 6,-121.5 0,-115.5 0,-109.5 0,-109.5 0,-19.5 0,-19.5 0,-13.5 6,-7.5 12,-7.5"/>
<text text-anchor="middle" x="123.862" y="-106.3" font-family="Times,serif" font-size="14.00">Like</text>
<polyline fill="none" stroke="black" points="0,-99.5 247.725,-99.5 "/>
<text text-anchor="start" x="8" y="-84.3" font-family="Times,serif" font-size="14.00">id :integer</text>
<text text-anchor="start" x="8" y="-70.3" font-family="Times,serif" font-size="14.00">likeable_id :integer</text>
<text text-anchor="start" x="8" y="-56.3" font-family="Times,serif" font-size="14.00">likeable_type :character varying</text>
<text text-anchor="start" x="8" y="-42.3" font-family="Times,serif" font-size="14.00">user_id :integer</text>
<text text-anchor="start" x="8" y="-28.3" font-family="Times,serif" font-size="14.00">created_at :timestamp without time zone</text>
<text text-anchor="start" x="8" y="-14.3" font-family="Times,serif" font-size="14.00">updated_at :timestamp without time zone</text>
</g>
<!-- Product -->
<g id="node4" class="node"><title>Product</title>
<path fill="none" stroke="black" d="M433,-762.5C433,-762.5 656.725,-762.5 656.725,-762.5 662.725,-762.5 668.725,-768.5 668.725,-774.5 668.725,-774.5 668.725,-906.5 668.725,-906.5 668.725,-912.5 662.725,-918.5 656.725,-918.5 656.725,-918.5 433,-918.5 433,-918.5 427,-918.5 421,-912.5 421,-906.5 421,-906.5 421,-774.5 421,-774.5 421,-768.5 427,-762.5 433,-762.5"/>
<text text-anchor="middle" x="544.862" y="-903.3" font-family="Times,serif" font-size="14.00">Product</text>
<polyline fill="none" stroke="black" points="421,-896.5 668.725,-896.5 "/>
<text text-anchor="start" x="429" y="-881.3" font-family="Times,serif" font-size="14.00">updated_at :timestamp without time zone</text>
<text text-anchor="start" x="429" y="-867.3" font-family="Times,serif" font-size="14.00">name :character varying</text>
<text text-anchor="start" x="429" y="-853.3" font-family="Times,serif" font-size="14.00">description :text</text>
<text text-anchor="start" x="429" y="-839.3" font-family="Times,serif" font-size="14.00">photo :character varying</text>
<text text-anchor="start" x="429" y="-825.3" font-family="Times,serif" font-size="14.00">price :integer</text>
<text text-anchor="start" x="429" y="-811.3" font-family="Times,serif" font-size="14.00">stock :integer</text>
<text text-anchor="start" x="429" y="-797.3" font-family="Times,serif" font-size="14.00">store_id :integer</text>
<text text-anchor="start" x="429" y="-783.3" font-family="Times,serif" font-size="14.00">created_at :timestamp without time zone</text>
<text text-anchor="start" x="429" y="-769.3" font-family="Times,serif" font-size="14.00">id :integer</text>
</g>
<!-- Product&#45;&gt;Comment -->
<g id="edge1" class="edge"><title>Product&#45;&gt;Comment</title>
<path fill="none" stroke="#b5bb2a" d="M677.314,-830.809C759.396,-817.767 858.949,-786.398 911.862,-712 995.58,-594.29 980.126,-514.296 911.862,-387 838.234,-249.7 677.287,-161.05 561.177,-112.322"/>
<ellipse fill="none" stroke="#b5bb2a" cx="672.875" cy="-831.486" rx="4.00001" ry="4.00001"/>
<polygon fill="#b5bb2a" stroke="#b5bb2a" points="561.082,-112.283 553.57,-104.295 556.464,-110.367 551.845,-108.451 551.845,-108.451 551.845,-108.451 556.464,-110.367 550.121,-112.608 561.082,-112.283 561.082,-112.283"/>
</g>
<!-- Product&#45;&gt;Like -->
<g id="edge2" class="edge"><title>Product&#45;&gt;Like</title>
<path fill="none" stroke="#000e56" d="M412.965,-762.34C412.597,-762.225 412.23,-762.112 411.862,-762 293.437,-725.868 251.329,-783.135 133.862,-744 109.185,-735.779 97.2441,-734.874 84.8623,-712 -17.8049,-522.331 55.266,-253.957 98.368,-131.289"/>
<ellipse fill="none" stroke="#000e56" cx="416.892" cy="-763.647" rx="4.00001" ry="4.00001"/>
<polygon fill="#000e56" stroke="#000e56" points="98.4463,-131.069 106.039,-123.157 100.123,-126.359 101.8,-121.648 101.8,-121.648 101.8,-121.648 100.123,-126.359 97.5604,-120.139 98.4463,-131.069 98.4463,-131.069"/>
</g>
<!-- User -->
<g id="node6" class="node"><title>User</title>
<path fill="none" stroke="black" d="M139.228,-387.5C139.228,-387.5 434.497,-387.5 434.497,-387.5 440.497,-387.5 446.497,-393.5 446.497,-399.5 446.497,-399.5 446.497,-699.5 446.497,-699.5 446.497,-705.5 440.497,-711.5 434.497,-711.5 434.497,-711.5 139.228,-711.5 139.228,-711.5 133.228,-711.5 127.228,-705.5 127.228,-699.5 127.228,-699.5 127.228,-399.5 127.228,-399.5 127.228,-393.5 133.228,-387.5 139.228,-387.5"/>
<text text-anchor="middle" x="286.862" y="-696.3" font-family="Times,serif" font-size="14.00">User</text>
<polyline fill="none" stroke="black" points="127.228,-689.5 446.497,-689.5 "/>
<text text-anchor="start" x="135.228" y="-674.3" font-family="Times,serif" font-size="14.00">gender :integer</text>
<text text-anchor="start" x="135.228" y="-660.3" font-family="Times,serif" font-size="14.00">email :character varying</text>
<text text-anchor="start" x="135.228" y="-646.3" font-family="Times,serif" font-size="14.00">encrypted_password :character varying</text>
<text text-anchor="start" x="135.228" y="-632.3" font-family="Times,serif" font-size="14.00">reset_password_token :character varying</text>
<text text-anchor="start" x="135.228" y="-618.3" font-family="Times,serif" font-size="14.00">reset_password_sent_at :timestamp without time zone</text>
<text text-anchor="start" x="135.228" y="-604.3" font-family="Times,serif" font-size="14.00">remember_created_at :timestamp without time zone</text>
<text text-anchor="start" x="135.228" y="-590.3" font-family="Times,serif" font-size="14.00">sign_in_count :integer</text>
<text text-anchor="start" x="135.228" y="-576.3" font-family="Times,serif" font-size="14.00">current_sign_in_at :timestamp without time zone</text>
<text text-anchor="start" x="135.228" y="-562.3" font-family="Times,serif" font-size="14.00">last_sign_in_at :timestamp without time zone</text>
<text text-anchor="start" x="135.228" y="-548.3" font-family="Times,serif" font-size="14.00">current_sign_in_ip :inet</text>
<text text-anchor="start" x="135.228" y="-534.3" font-family="Times,serif" font-size="14.00">last_sign_in_ip :inet</text>
<text text-anchor="start" x="135.228" y="-520.3" font-family="Times,serif" font-size="14.00">created_at :timestamp without time zone</text>
<text text-anchor="start" x="135.228" y="-506.3" font-family="Times,serif" font-size="14.00">updated_at :timestamp without time zone</text>
<text text-anchor="start" x="135.228" y="-492.3" font-family="Times,serif" font-size="14.00">provider :character varying</text>
<text text-anchor="start" x="135.228" y="-478.3" font-family="Times,serif" font-size="14.00">uid :character varying</text>
<text text-anchor="start" x="135.228" y="-464.3" font-family="Times,serif" font-size="14.00">name :character varying</text>
<text text-anchor="start" x="135.228" y="-450.3" font-family="Times,serif" font-size="14.00">last_name :character varying</text>
<text text-anchor="start" x="135.228" y="-436.3" font-family="Times,serif" font-size="14.00">age :integer</text>
<text text-anchor="start" x="135.228" y="-422.3" font-family="Times,serif" font-size="14.00">phone_number :character varying</text>
<text text-anchor="start" x="135.228" y="-408.3" font-family="Times,serif" font-size="14.00">avatar :character varying</text>
<text text-anchor="start" x="135.228" y="-394.3" font-family="Times,serif" font-size="14.00">id :integer</text>
</g>
<!-- Product&#45;&gt;User -->
<g id="edge3" class="edge"><title>Product&#45;&gt;User</title>
<path fill="none" stroke="#3f25ae" d="M444.02,-755.192C440.271,-751.475 436.615,-747.736 433.097,-744 425.692,-736.138 418.303,-727.909 411.002,-719.465"/>
<polygon fill="#3f25ae" stroke="#3f25ae" points="444.167,-755.335 448.196,-765.534 447.751,-758.822 451.335,-762.309 451.335,-762.309 451.335,-762.309 447.751,-758.822 454.473,-759.084 444.167,-755.335 444.167,-755.335"/>
<polygon fill="#3f25ae" stroke="#3f25ae" points="410.822,-719.255 407.742,-708.73 407.572,-715.455 404.322,-711.655 404.322,-711.655 404.322,-711.655 407.572,-715.455 400.902,-714.58 410.822,-719.255 410.822,-719.255"/>
<text text-anchor="middle" x="462.245" y="-732.8" font-family="Times,serif" font-size="14.00">user_likes</text>
</g>
<!-- ActsAsTaggableOn::Tagging -->
<g id="node7" class="node"><title>ActsAsTaggableOn::Tagging</title>
<ellipse fill="none" stroke="black" cx="577.862" cy="-549.5" rx="113.006" ry="18"/>
<text text-anchor="middle" x="577.862" y="-545.3" font-family="Times,serif" font-size="14.00">ActsAsTaggableOn::Tagging</text>
</g>
<!-- Product&#45;&gt;ActsAsTaggableOn::Tagging -->
<g id="edge4" class="edge"><title>Product&#45;&gt;ActsAsTaggableOn::Tagging</title>
<path fill="none" stroke="#6647b4" d="M568.137,-754.284C568.775,-750.822 569.355,-747.385 569.862,-744 578.656,-685.288 579.125,-615.514 578.57,-577.868"/>
<ellipse fill="none" stroke="#6647b4" cx="567.317" cy="-758.467" rx="4.00001" ry="4.00001"/>
<polygon fill="#6647b4" stroke="#6647b4" points="578.567,-577.699 582.881,-567.617 578.474,-572.7 578.382,-567.7 578.382,-567.7 578.382,-567.7 578.474,-572.7 573.883,-567.783 578.567,-577.699 578.567,-577.699"/>
<text text-anchor="middle" x="594.583" y="-732.8" font-family="Times,serif" font-size="14.00">taggings</text>
</g>
<!-- Product&#45;&gt;ActsAsTaggableOn::Tagging -->
<g id="edge6" class="edge"><title>Product&#45;&gt;ActsAsTaggableOn::Tagging</title>
<path fill="none" stroke="#0abd6a" d="M493.71,-754.266C492.498,-746.213 492.536,-738.05 494.317,-730 507.217,-671.714 541.065,-609.899 561.501,-576.168"/>
<ellipse fill="none" stroke="#0abd6a" cx="494.531" cy="-758.351" rx="4.00001" ry="4.00001"/>
<polygon fill="#0abd6a" stroke="#0abd6a" points="561.64,-575.942 570.713,-569.784 564.26,-571.684 566.881,-567.426 566.881,-567.426 566.881,-567.426 564.26,-571.684 563.048,-565.067 561.64,-575.942 561.64,-575.942"/>
<text text-anchor="middle" x="530.635" y="-732.8" font-family="Times,serif" font-size="14.00">tag_taggings</text>
</g>
<!-- ActsAsTaggableOn::Tag -->
<g id="node8" class="node"><title>ActsAsTaggableOn::Tag</title>
<ellipse fill="none" stroke="black" cx="805.862" cy="-549.5" rx="97.0617" ry="18"/>
<text text-anchor="middle" x="805.862" y="-545.3" font-family="Times,serif" font-size="14.00">ActsAsTaggableOn::Tag</text>
</g>
<!-- Product&#45;&gt;ActsAsTaggableOn::Tag -->
<g id="edge5" class="edge"><title>Product&#45;&gt;ActsAsTaggableOn::Tag</title>
<path fill="none" stroke="#bbb11d" d="M677.415,-777.678C691.759,-767.681 705.313,-756.459 716.862,-744 762.552,-694.711 788.227,-617.871 799.276,-577.447"/>
<polygon fill="#bbb11d" stroke="#bbb11d" points="677.182,-777.835 666.374,-779.689 673.035,-780.628 668.888,-783.422 668.888,-783.422 668.888,-783.422 673.035,-780.628 671.402,-787.154 677.182,-777.835 677.182,-777.835"/>
<polygon fill="#bbb11d" stroke="#bbb11d" points="799.342,-577.198 806.243,-568.676 800.617,-572.363 801.892,-567.528 801.892,-567.528 801.892,-567.528 800.617,-572.363 797.54,-566.381 799.342,-577.198 799.342,-577.198"/>
<text text-anchor="middle" x="755.076" y="-732.8" font-family="Times,serif" font-size="14.00">base_tags</text>
</g>
<!-- Product&#45;&gt;ActsAsTaggableOn::Tag -->
<g id="edge7" class="edge"><title>Product&#45;&gt;ActsAsTaggableOn::Tag</title>
<path fill="none" stroke="#db0fbe" d="M655.362,-755.661C671.017,-741.81 686.359,-727.04 699.862,-712 738.609,-668.845 773.377,-610.299 791.861,-576.848"/>
<polygon fill="#db0fbe" stroke="#db0fbe" points="655.193,-755.808 644.7,-758.993 651.426,-759.096 647.659,-762.384 647.659,-762.384 647.659,-762.384 651.426,-759.096 650.618,-765.774 655.193,-755.808 655.193,-755.808"/>
<polygon fill="#db0fbe" stroke="#db0fbe" points="792.056,-576.491 800.797,-569.87 794.452,-572.103 796.847,-567.714 796.847,-567.714 796.847,-567.714 794.452,-572.103 792.898,-565.558 792.056,-576.491 792.056,-576.491"/>
<text text-anchor="middle" x="692.138" y="-732.8" font-family="Times,serif" font-size="14.00">tags</text>
</g>
<!-- Store -->
<g id="node5" class="node"><title>Store</title>
<path fill="none" stroke="black" d="M164,-166.5C164,-166.5 387.725,-166.5 387.725,-166.5 393.725,-166.5 399.725,-172.5 399.725,-178.5 399.725,-178.5 399.725,-324.5 399.725,-324.5 399.725,-330.5 393.725,-336.5 387.725,-336.5 387.725,-336.5 164,-336.5 164,-336.5 158,-336.5 152,-330.5 152,-324.5 152,-324.5 152,-178.5 152,-178.5 152,-172.5 158,-166.5 164,-166.5"/>
<text text-anchor="middle" x="275.862" y="-321.3" font-family="Times,serif" font-size="14.00">Store</text>
<polyline fill="none" stroke="black" points="152,-314.5 399.725,-314.5 "/>
<text text-anchor="start" x="160" y="-299.3" font-family="Times,serif" font-size="14.00">updated_at :timestamp without time zone</text>
<text text-anchor="start" x="160" y="-285.3" font-family="Times,serif" font-size="14.00">name :character varying</text>
<text text-anchor="start" x="160" y="-271.3" font-family="Times,serif" font-size="14.00">description :text</text>
<text text-anchor="start" x="160" y="-257.3" font-family="Times,serif" font-size="14.00">photo :character varying</text>
<text text-anchor="start" x="160" y="-243.3" font-family="Times,serif" font-size="14.00">cover_photo :character varying</text>
<text text-anchor="start" x="160" y="-229.3" font-family="Times,serif" font-size="14.00">facebook_link :character varying</text>
<text text-anchor="start" x="160" y="-215.3" font-family="Times,serif" font-size="14.00">instagram_link :character varying</text>
<text text-anchor="start" x="160" y="-201.3" font-family="Times,serif" font-size="14.00">user_id :integer</text>
<text text-anchor="start" x="160" y="-187.3" font-family="Times,serif" font-size="14.00">created_at :timestamp without time zone</text>
<text text-anchor="start" x="160" y="-173.3" font-family="Times,serif" font-size="14.00">id :integer</text>
</g>
<!-- Store&#45;&gt;Comment -->
<g id="edge9" class="edge"><title>Store&#45;&gt;Comment</title>
<path fill="none" stroke="#64861f" d="M350.113,-160.129C356.538,-152.309 362.98,-144.469 369.254,-136.832"/>
<ellipse fill="none" stroke="#64861f" cx="347.508" cy="-163.3" rx="4.00002" ry="4.00002"/>
<polygon fill="#64861f" stroke="#64861f" points="369.641,-136.362 379.466,-131.492 372.815,-132.499 375.989,-128.635 375.989,-128.635 375.989,-128.635 372.815,-132.499 372.512,-125.779 369.641,-136.362 369.641,-136.362"/>
</g>
<!-- Store&#45;&gt;Like -->
<g id="edge10" class="edge"><title>Store&#45;&gt;Like</title>
<path fill="none" stroke="#49e656" d="M201.485,-159.975C193,-149.648 184.488,-139.288 176.372,-129.41"/>
<ellipse fill="none" stroke="#49e656" cx="204.217" cy="-163.3" rx="4.00002" ry="4.00002"/>
<polygon fill="#49e656" stroke="#49e656" points="176.305,-129.328 173.434,-118.745 173.131,-125.465 169.957,-121.602 169.957,-121.602 169.957,-121.602 173.131,-125.465 166.48,-124.459 176.305,-129.328 176.305,-129.328"/>
</g>
<!-- Store&#45;&gt;Product -->
<g id="edge8" class="edge"><title>Store&#45;&gt;Product</title>
<path fill="none" stroke="#6d0bca" d="M147.53,-342.676C135.621,-356.161 125.265,-370.977 117.862,-387 87.5723,-452.563 71.2709,-656.816 117.862,-712 201.28,-810.802 283.168,-721.389 411.226,-762.165"/>
<ellipse fill="none" stroke="#6d0bca" cx="150.407" cy="-339.527" rx="4.00002" ry="4.00002"/>
<polygon fill="#6d0bca" stroke="#6d0bca" points="411.464,-762.246 419.474,-769.734 416.196,-763.861 420.928,-765.476 420.928,-765.476 420.928,-765.476 416.196,-763.861 422.381,-761.217 411.464,-762.246 411.464,-762.246"/>
</g>
<!-- Store&#45;&gt;User -->
<g id="edge11" class="edge"><title>Store&#45;&gt;User</title>
<path fill="none" stroke="#806ef6" d="M247.479,-346.407C246.964,-349.293 246.5,-352.162 246.097,-355 245.066,-362.244 244.49,-369.623 244.299,-377.064"/>
<polygon fill="#806ef6" stroke="#806ef6" points="247.488,-346.361 253.829,-337.415 248.451,-341.454 249.414,-336.548 249.414,-336.548 249.414,-336.548 248.451,-341.454 244.998,-335.681 247.488,-346.361 247.488,-346.361"/>
<polygon fill="#806ef6" stroke="#806ef6" points="244.299,-377.243 239.772,-387.231 244.285,-382.243 244.272,-387.243 244.272,-387.243 244.272,-387.243 244.285,-382.243 248.772,-387.255 244.299,-377.243 244.299,-377.243"/>
<text text-anchor="middle" x="275.245" y="-357.8" font-family="Times,serif" font-size="14.00">user_likes</text>
</g>
<!-- User&#45;&gt;Comment -->
<g id="edge14" class="edge"><title>User&#45;&gt;Comment</title>
<path fill="none" stroke="#2f4ee9" d="M392.773,-379.911C398.991,-365.728 404.485,-351.327 408.862,-337 428.717,-272.019 432.261,-194.375 431.554,-138.796"/>
<ellipse fill="none" stroke="#2f4ee9" cx="391.093" cy="-383.657" rx="4.00002" ry="4.00002"/>
<polygon fill="#2f4ee9" stroke="#2f4ee9" points="431.552,-138.682 435.875,-128.604 431.464,-133.683 431.376,-128.683 431.376,-128.683 431.376,-128.683 431.464,-133.683 426.876,-128.763 431.552,-138.682 431.552,-138.682"/>
</g>
<!-- User&#45;&gt;Like -->
<g id="edge13" class="edge"><title>User&#45;&gt;Like</title>
<path fill="none" stroke="#35ae71" d="M161.273,-379.993C154.163,-365.888 147.882,-351.475 142.862,-337 119.58,-269.862 117.095,-187.909 119.008,-131.717"/>
<ellipse fill="none" stroke="#35ae71" cx="163.231" cy="-383.786" rx="4.00002" ry="4.00002"/>
<polygon fill="#35ae71" stroke="#35ae71" points="119.015,-131.526 123.908,-121.712 119.214,-126.53 119.412,-121.534 119.412,-121.534 119.412,-121.534 119.214,-126.53 114.916,-121.355 119.015,-131.526 119.015,-131.526"/>
</g>
<!-- User&#45;&gt;Store -->
<g id="edge12" class="edge"><title>User&#45;&gt;Store</title>
<path fill="none" stroke="#feda61" d="M305.007,-379.161C304.583,-370.986 303.885,-362.898 302.862,-355 302.424,-351.612 301.907,-348.177 301.325,-344.719"/>
<ellipse fill="none" stroke="#feda61" cx="305.178" cy="-383.366" rx="4" ry="4"/>
<ellipse fill="#feda61" stroke="#feda61" cx="300.57" cy="-340.556" rx="4.00001" ry="4.00001"/>
</g>
</g>
</svg>
