<?xml version="1.0" encoding="UTF-8" standalone="no"?>
<!DOCTYPE svg PUBLIC "-//W3C//DTD SVG 1.1//EN"
 "http://www.w3.org/Graphics/SVG/1.1/DTD/svg11.dtd">
<!-- Generated by graphviz version 2.38.0 (20140413.2041)
 -->
<!-- Title: models_diagram Pages: 1 -->
<svg width="552pt" height="540pt"
 viewBox="0.00 0.00 552.32 540.00" xmlns="http://www.w3.org/2000/svg" xmlns:xlink="http://www.w3.org/1999/xlink">
<g id="graph0" class="graph" transform="scale(1 1) rotate(0) translate(4 536)">
<title>models_diagram</title>
<polygon fill="none" stroke="none" points="-4,4 -4,-536 548.323,-536 548.323,4 -4,4"/>
<!-- _diagram_info -->
<g id="node1" class="node"><title>_diagram_info</title>
<text text-anchor="start" x="8" y="-391.6" font-family="Times,serif" font-size="13.00">Models diagram</text>
<text text-anchor="start" x="8" y="-378.6" font-family="Times,serif" font-size="13.00">Date: Apr 28 2016 &#45; 20:40</text>
<text text-anchor="start" x="8" y="-365.6" font-family="Times,serif" font-size="13.00">Migration version: 20160428233518</text>
<text text-anchor="start" x="8" y="-352.6" font-family="Times,serif" font-size="13.00">Generated by RailRoady 1.4.2</text>
<text text-anchor="start" x="8" y="-339.6" font-family="Times,serif" font-size="13.00">http://railroady.prestonlee.com</text>
</g>
<!-- Store -->
<g id="node2" class="node"><title>Store</title>
<path fill="none" stroke="black" d="M272.825,-0.5C272.825,-0.5 496.55,-0.5 496.55,-0.5 502.55,-0.5 508.55,-6.5 508.55,-12.5 508.55,-12.5 508.55,-158.5 508.55,-158.5 508.55,-164.5 502.55,-170.5 496.55,-170.5 496.55,-170.5 272.825,-170.5 272.825,-170.5 266.825,-170.5 260.825,-164.5 260.825,-158.5 260.825,-158.5 260.825,-12.5 260.825,-12.5 260.825,-6.5 266.825,-0.5 272.825,-0.5"/>
<text text-anchor="middle" x="384.688" y="-155.3" font-family="Times,serif" font-size="14.00">Store</text>
<polyline fill="none" stroke="black" points="260.825,-148.5 508.55,-148.5 "/>
<text text-anchor="start" x="268.825" y="-133.3" font-family="Times,serif" font-size="14.00">updated_at :timestamp without time zone</text>
<text text-anchor="start" x="268.825" y="-119.3" font-family="Times,serif" font-size="14.00">name :character varying</text>
<text text-anchor="start" x="268.825" y="-105.3" font-family="Times,serif" font-size="14.00">description :text</text>
<text text-anchor="start" x="268.825" y="-91.3" font-family="Times,serif" font-size="14.00">photo :character varying</text>
<text text-anchor="start" x="268.825" y="-77.3" font-family="Times,serif" font-size="14.00">cover_photo :character varying</text>
<text text-anchor="start" x="268.825" y="-63.3" font-family="Times,serif" font-size="14.00">facebook_link :character varying</text>
<text text-anchor="start" x="268.825" y="-49.3" font-family="Times,serif" font-size="14.00">instagram_link :character varying</text>
<text text-anchor="start" x="268.825" y="-35.3" font-family="Times,serif" font-size="14.00">user_id :integer</text>
<text text-anchor="start" x="268.825" y="-21.3" font-family="Times,serif" font-size="14.00">created_at :timestamp without time zone</text>
<text text-anchor="start" x="268.825" y="-7.3" font-family="Times,serif" font-size="14.00">id :integer</text>
</g>
<!-- User -->
<g id="node3" class="node"><title>User</title>
<path fill="none" stroke="black" d="M237.053,-207.5C237.053,-207.5 532.323,-207.5 532.323,-207.5 538.323,-207.5 544.323,-213.5 544.323,-219.5 544.323,-219.5 544.323,-519.5 544.323,-519.5 544.323,-525.5 538.323,-531.5 532.323,-531.5 532.323,-531.5 237.053,-531.5 237.053,-531.5 231.053,-531.5 225.053,-525.5 225.053,-519.5 225.053,-519.5 225.053,-219.5 225.053,-219.5 225.053,-213.5 231.053,-207.5 237.053,-207.5"/>
<text text-anchor="middle" x="384.688" y="-516.3" font-family="Times,serif" font-size="14.00">User</text>
<polyline fill="none" stroke="black" points="225.053,-509.5 544.323,-509.5 "/>
<text text-anchor="start" x="233.053" y="-494.3" font-family="Times,serif" font-size="14.00">gender :integer</text>
<text text-anchor="start" x="233.053" y="-480.3" font-family="Times,serif" font-size="14.00">email :character varying</text>
<text text-anchor="start" x="233.053" y="-466.3" font-family="Times,serif" font-size="14.00">encrypted_password :character varying</text>
<text text-anchor="start" x="233.053" y="-452.3" font-family="Times,serif" font-size="14.00">reset_password_token :character varying</text>
<text text-anchor="start" x="233.053" y="-438.3" font-family="Times,serif" font-size="14.00">reset_password_sent_at :timestamp without time zone</text>
<text text-anchor="start" x="233.053" y="-424.3" font-family="Times,serif" font-size="14.00">remember_created_at :timestamp without time zone</text>
<text text-anchor="start" x="233.053" y="-410.3" font-family="Times,serif" font-size="14.00">sign_in_count :integer</text>
<text text-anchor="start" x="233.053" y="-396.3" font-family="Times,serif" font-size="14.00">current_sign_in_at :timestamp without time zone</text>
<text text-anchor="start" x="233.053" y="-382.3" font-family="Times,serif" font-size="14.00">last_sign_in_at :timestamp without time zone</text>
<text text-anchor="start" x="233.053" y="-368.3" font-family="Times,serif" font-size="14.00">current_sign_in_ip :inet</text>
<text text-anchor="start" x="233.053" y="-354.3" font-family="Times,serif" font-size="14.00">last_sign_in_ip :inet</text>
<text text-anchor="start" x="233.053" y="-340.3" font-family="Times,serif" font-size="14.00">created_at :timestamp without time zone</text>
<text text-anchor="start" x="233.053" y="-326.3" font-family="Times,serif" font-size="14.00">updated_at :timestamp without time zone</text>
<text text-anchor="start" x="233.053" y="-312.3" font-family="Times,serif" font-size="14.00">provider :character varying</text>
<text text-anchor="start" x="233.053" y="-298.3" font-family="Times,serif" font-size="14.00">uid :character varying</text>
<text text-anchor="start" x="233.053" y="-284.3" font-family="Times,serif" font-size="14.00">name :character varying</text>
<text text-anchor="start" x="233.053" y="-270.3" font-family="Times,serif" font-size="14.00">last_name :character varying</text>
<text text-anchor="start" x="233.053" y="-256.3" font-family="Times,serif" font-size="14.00">age :integer</text>
<text text-anchor="start" x="233.053" y="-242.3" font-family="Times,serif" font-size="14.00">phone_number :character varying</text>
<text text-anchor="start" x="233.053" y="-228.3" font-family="Times,serif" font-size="14.00">avatar :character varying</text>
<text text-anchor="start" x="233.053" y="-214.3" font-family="Times,serif" font-size="14.00">id :integer</text>
</g>
<!-- User&#45;&gt;Store -->
<g id="edge1" class="edge"><title>User&#45;&gt;Store</title>
<path fill="none" stroke="#0a857b" d="M384.688,-199.098C384.688,-192.248 384.688,-185.492 384.688,-178.898"/>
<ellipse fill="none" stroke="#0a857b" cx="384.688" cy="-203.321" rx="4" ry="4"/>
<ellipse fill="#0a857b" stroke="#0a857b" cx="384.688" cy="-174.636" rx="4" ry="4"/>
</g>
</g>
</svg>
