<?xml version="1.0" encoding="UTF-8" standalone="no"?>
<!DOCTYPE svg PUBLIC "-//W3C//DTD SVG 1.1//EN"
 "http://www.w3.org/Graphics/SVG/1.1/DTD/svg11.dtd">
<!-- Generated by graphviz version 2.38.0 (20140413.2041)
 -->
<!-- Title: models_diagram Pages: 1 -->
<svg width="407pt" height="225pt"
 viewBox="0.00 0.00 407.44 225.00" xmlns="http://www.w3.org/2000/svg" xmlns:xlink="http://www.w3.org/1999/xlink">
<g id="graph0" class="graph" transform="scale(1 1) rotate(0) translate(4 221)">
<title>models_diagram</title>
<polygon fill="none" stroke="none" points="-4,4 -4,-221 403.437,-221 403.437,4 -4,4"/>
<!-- _diagram_info -->
<g id="node1" class="node"><title>_diagram_info</title>
<text text-anchor="start" x="8" y="-202.6" font-family="Times,serif" font-size="13.00">Models diagram</text>
<text text-anchor="start" x="8" y="-189.6" font-family="Times,serif" font-size="13.00">Date: May 01 2016 &#45; 21:21</text>
<text text-anchor="start" x="8" y="-176.6" font-family="Times,serif" font-size="13.00">Migration version: 20160501223603</text>
<text text-anchor="start" x="8" y="-163.6" font-family="Times,serif" font-size="13.00">Generated by RailRoady 1.4.2</text>
<text text-anchor="start" x="8" y="-150.6" font-family="Times,serif" font-size="13.00">http://railroady.prestonlee.com</text>
</g>
<!-- Comment -->
<g id="node2" class="node"><title>Comment</title>
<ellipse fill="none" stroke="black" cx="162.688" cy="-18" rx="44.9768" ry="18"/>
<text text-anchor="middle" x="162.688" y="-13.8" font-family="Times,serif" font-size="14.00">Comment</text>
</g>
<!-- Like -->
<g id="node3" class="node"><title>Like</title>
<ellipse fill="none" stroke="black" cx="252.688" cy="-18" rx="27" ry="18"/>
<text text-anchor="middle" x="252.688" y="-13.8" font-family="Times,serif" font-size="14.00">Like</text>
</g>
<!-- ProductTag -->
<g id="node4" class="node"><title>ProductTag</title>
<ellipse fill="none" stroke="black" cx="348.688" cy="-180.5" rx="50.9988" ry="18"/>
<text text-anchor="middle" x="348.688" y="-176.3" font-family="Times,serif" font-size="14.00">ProductTag</text>
</g>
<!-- Store -->
<g id="node5" class="node"><title>Store</title>
<ellipse fill="none" stroke="black" cx="252.688" cy="-90" rx="28.5497" ry="18"/>
<text text-anchor="middle" x="252.688" y="-85.8" font-family="Times,serif" font-size="14.00">Store</text>
</g>
<!-- Store&#45;&gt;Comment -->
<g id="edge2" class="edge"><title>Store&#45;&gt;Comment</title>
<path fill="none" stroke="#9255de" d="M228.981,-70.5615C217.216,-61.4109 202.927,-50.2974 190.632,-40.7346"/>
<ellipse fill="none" stroke="#9255de" cx="232.177" cy="-73.0475" rx="4.00002" ry="4.00002"/>
<polygon fill="#9255de" stroke="#9255de" points="190.388,-40.5445 185.257,-30.853 186.441,-37.4748 182.494,-34.4051 182.494,-34.4051 182.494,-34.4051 186.441,-37.4748 179.732,-37.9572 190.388,-40.5445 190.388,-40.5445"/>
</g>
<!-- Store&#45;&gt;Like -->
<g id="edge3" class="edge"><title>Store&#45;&gt;Like</title>
<path fill="none" stroke="#cffd7f" d="M252.688,-63.6398C252.688,-58.0629 252.688,-52.1319 252.688,-46.4761"/>
<ellipse fill="none" stroke="#cffd7f" cx="252.688" cy="-67.6966" rx="4" ry="4"/>
<polygon fill="#cffd7f" stroke="#cffd7f" points="252.688,-46.1043 257.188,-36.1043 252.688,-41.1043 252.688,-36.1043 252.688,-36.1043 252.688,-36.1043 252.688,-41.1043 248.188,-36.1044 252.688,-46.1043 252.688,-46.1043"/>
</g>
<!-- Product -->
<g id="node7" class="node"><title>Product</title>
<ellipse fill="none" stroke="black" cx="335.688" cy="-18" rx="37.7352" ry="18"/>
<text text-anchor="middle" x="335.688" y="-13.8" font-family="Times,serif" font-size="14.00">Product</text>
</g>
<!-- Store&#45;&gt;Product -->
<g id="edge1" class="edge"><title>Store&#45;&gt;Product</title>
<path fill="none" stroke="#d9bdb9" d="M275.358,-69.8803C286.131,-60.7946 299.053,-49.8971 310.168,-40.5223"/>
<ellipse fill="none" stroke="#d9bdb9" cx="272.144" cy="-72.5914" rx="4.00002" ry="4.00002"/>
<polygon fill="#d9bdb9" stroke="#d9bdb9" points="310.243,-40.4598 320.788,-37.4527 314.065,-37.2363 317.887,-34.0127 317.887,-34.0127 317.887,-34.0127 314.065,-37.2363 314.986,-30.5728 310.243,-40.4598 310.243,-40.4598"/>
</g>
<!-- User -->
<g id="node6" class="node"><title>User</title>
<ellipse fill="none" stroke="black" cx="252.688" cy="-180.5" rx="27" ry="18"/>
<text text-anchor="middle" x="252.688" y="-176.3" font-family="Times,serif" font-size="14.00">User</text>
</g>
<!-- User&#45;&gt;Store -->
<g id="edge4" class="edge"><title>User&#45;&gt;Store</title>
<path fill="none" stroke="#47701f" d="M252.688,-154.189C252.688,-142.277 252.688,-128.109 252.688,-116.21"/>
<ellipse fill="none" stroke="#47701f" cx="252.688" cy="-158.436" rx="4" ry="4"/>
<ellipse fill="#47701f" stroke="#47701f" cx="252.688" cy="-112.011" rx="4" ry="4"/>
</g>
</g>
</svg>
