<?xml version="1.0" encoding="UTF-8" standalone="no"?>
<!DOCTYPE svg PUBLIC "-//W3C//DTD SVG 1.1//EN"
 "http://www.w3.org/Graphics/SVG/1.1/DTD/svg11.dtd">
<!-- Generated by graphviz version 2.38.0 (20140413.2041)
 -->
<!-- Title: models_diagram Pages: 1 -->
<svg width="1165pt" height="941pt"
 viewBox="0.00 0.00 1165.14 941.00" xmlns="http://www.w3.org/2000/svg" xmlns:xlink="http://www.w3.org/1999/xlink">
<g id="graph0" class="graph" transform="scale(1 1) rotate(0) translate(4 937)">
<title>models_diagram</title>
<polygon fill="none" stroke="none" points="-4,4 -4,-937 1161.14,-937 1161.14,4 -4,4"/>
<!-- _diagram_info -->
<g id="node1" class="node"><title>_diagram_info</title>
<text text-anchor="start" x="256.175" y="-876.6" font-family="Times,serif" font-size="13.00">Models diagram</text>
<text text-anchor="start" x="256.175" y="-863.6" font-family="Times,serif" font-size="13.00">Date: May 10 2016 &#45; 18:44</text>
<text text-anchor="start" x="256.175" y="-850.6" font-family="Times,serif" font-size="13.00">Migration version: 20160510214253</text>
<text text-anchor="start" x="256.175" y="-837.6" font-family="Times,serif" font-size="13.00">Generated by RailRoady 1.4.2</text>
<text text-anchor="start" x="256.175" y="-824.6" font-family="Times,serif" font-size="13.00">http://railroady.prestonlee.com</text>
</g>
<!-- Ability -->
<g id="node2" class="node"><title>Ability</title>
<polygon fill="none" stroke="black" points="474.028,-832.5 474.028,-876.5 529.697,-876.5 529.697,-832.5 474.028,-832.5"/>
<text text-anchor="middle" x="501.862" y="-861.3" font-family="Times,serif" font-size="14.00">Ability</text>
<polyline fill="none" stroke="black" points="474.028,-854.5 529.697,-854.5 "/>
<text text-anchor="middle" x="501.862" y="-839.3" font-family="Times,serif" font-size="14.00"> </text>
</g>
<!-- Comment -->
<g id="node3" class="node"><title>Comment</title>
<path fill="none" stroke="black" d="M12,-0.5C12,-0.5 235.725,-0.5 235.725,-0.5 241.725,-0.5 247.725,-6.5 247.725,-12.5 247.725,-12.5 247.725,-116.5 247.725,-116.5 247.725,-122.5 241.725,-128.5 235.725,-128.5 235.725,-128.5 12,-128.5 12,-128.5 6,-128.5 0,-122.5 0,-116.5 0,-116.5 0,-12.5 0,-12.5 0,-6.5 6,-0.5 12,-0.5"/>
<text text-anchor="middle" x="123.862" y="-113.3" font-family="Times,serif" font-size="14.00">Comment</text>
<polyline fill="none" stroke="black" points="0,-106.5 247.725,-106.5 "/>
<text text-anchor="start" x="8" y="-91.3" font-family="Times,serif" font-size="14.00">content :text</text>
<text text-anchor="start" x="8" y="-77.3" font-family="Times,serif" font-size="14.00">commentable_id :integer</text>
<text text-anchor="start" x="8" y="-63.3" font-family="Times,serif" font-size="14.00">commentable_type :character varying</text>
<text text-anchor="start" x="8" y="-49.3" font-family="Times,serif" font-size="14.00">id :integer</text>
<text text-anchor="start" x="8" y="-35.3" font-family="Times,serif" font-size="14.00">user_id :integer</text>
<text text-anchor="start" x="8" y="-21.3" font-family="Times,serif" font-size="14.00">created_at :timestamp without time zone</text>
<text text-anchor="start" x="8" y="-7.3" font-family="Times,serif" font-size="14.00">updated_at :timestamp without time zone</text>
</g>
<!-- Like -->
<g id="node4" class="node"><title>Like</title>
<path fill="none" stroke="black" d="M278,-7.5C278,-7.5 501.725,-7.5 501.725,-7.5 507.725,-7.5 513.725,-13.5 513.725,-19.5 513.725,-19.5 513.725,-109.5 513.725,-109.5 513.725,-115.5 507.725,-121.5 501.725,-121.5 501.725,-121.5 278,-121.5 278,-121.5 272,-121.5 266,-115.5 266,-109.5 266,-109.5 266,-19.5 266,-19.5 266,-13.5 272,-7.5 278,-7.5"/>
<text text-anchor="middle" x="389.862" y="-106.3" font-family="Times,serif" font-size="14.00">Like</text>
<polyline fill="none" stroke="black" points="266,-99.5 513.725,-99.5 "/>
<text text-anchor="start" x="274" y="-84.3" font-family="Times,serif" font-size="14.00">id :integer</text>
<text text-anchor="start" x="274" y="-70.3" font-family="Times,serif" font-size="14.00">likeable_id :integer</text>
<text text-anchor="start" x="274" y="-56.3" font-family="Times,serif" font-size="14.00">likeable_type :character varying</text>
<text text-anchor="start" x="274" y="-42.3" font-family="Times,serif" font-size="14.00">user_id :integer</text>
<text text-anchor="start" x="274" y="-28.3" font-family="Times,serif" font-size="14.00">created_at :timestamp without time zone</text>
<text text-anchor="start" x="274" y="-14.3" font-family="Times,serif" font-size="14.00">updated_at :timestamp without time zone</text>
</g>
<!-- Product -->
<g id="node5" class="node"><title>Product</title>
<path fill="none" stroke="black" d="M560,-776.5C560,-776.5 783.725,-776.5 783.725,-776.5 789.725,-776.5 795.725,-782.5 795.725,-788.5 795.725,-788.5 795.725,-920.5 795.725,-920.5 795.725,-926.5 789.725,-932.5 783.725,-932.5 783.725,-932.5 560,-932.5 560,-932.5 554,-932.5 548,-926.5 548,-920.5 548,-920.5 548,-788.5 548,-788.5 548,-782.5 554,-776.5 560,-776.5"/>
<text text-anchor="middle" x="671.862" y="-917.3" font-family="Times,serif" font-size="14.00">Product</text>
<polyline fill="none" stroke="black" points="548,-910.5 795.725,-910.5 "/>
<text text-anchor="start" x="556" y="-895.3" font-family="Times,serif" font-size="14.00">updated_at :timestamp without time zone</text>
<text text-anchor="start" x="556" y="-881.3" font-family="Times,serif" font-size="14.00">name :character varying</text>
<text text-anchor="start" x="556" y="-867.3" font-family="Times,serif" font-size="14.00">description :text</text>
<text text-anchor="start" x="556" y="-853.3" font-family="Times,serif" font-size="14.00">photo :character varying</text>
<text text-anchor="start" x="556" y="-839.3" font-family="Times,serif" font-size="14.00">price :integer</text>
<text text-anchor="start" x="556" y="-825.3" font-family="Times,serif" font-size="14.00">stock :integer</text>
<text text-anchor="start" x="556" y="-811.3" font-family="Times,serif" font-size="14.00">store_id :integer</text>
<text text-anchor="start" x="556" y="-797.3" font-family="Times,serif" font-size="14.00">created_at :timestamp without time zone</text>
<text text-anchor="start" x="556" y="-783.3" font-family="Times,serif" font-size="14.00">id :integer</text>
</g>
<!-- Product&#45;&gt;Comment -->
<g id="edge1" class="edge"><title>Product&#45;&gt;Comment</title>
<path fill="none" stroke="#69213c" d="M539.957,-776.364C539.592,-776.242 539.227,-776.12 538.862,-776 447.3,-745.78 171.872,-798.108 107.862,-726 -38.2617,-561.39 43.67,-272.436 93.8663,-138.043"/>
<ellipse fill="none" stroke="#69213c" cx="543.861" cy="-777.752" rx="4.00001" ry="4.00001"/>
<polygon fill="#69213c" stroke="#69213c" points="93.8857,-137.992 101.631,-130.229 95.6538,-133.315 97.422,-128.638 97.422,-128.638 97.422,-128.638 95.6538,-133.315 93.2127,-127.047 93.8857,-137.992 93.8857,-137.992"/>
</g>
<!-- Product&#45;&gt;Like -->
<g id="edge2" class="edge"><title>Product&#45;&gt;Like</title>
<path fill="none" stroke="#151b6e" d="M644.853,-768.257C612.982,-666.258 559.34,-490.048 519.862,-337 500.417,-261.614 517.812,-235.057 481.862,-166 475.206,-153.214 466.506,-140.821 457.112,-129.358"/>
<ellipse fill="none" stroke="#151b6e" cx="646.105" cy="-772.259" rx="4.00001" ry="4.00001"/>
<polygon fill="#151b6e" stroke="#151b6e" points="456.982,-129.204 453.947,-118.666 453.748,-125.39 450.515,-121.577 450.515,-121.577 450.515,-121.577 453.748,-125.39 447.082,-124.487 456.982,-129.204 456.982,-129.204"/>
</g>
<!-- ProductWishlist -->
<g id="node6" class="node"><title>ProductWishlist</title>
<path fill="none" stroke="black" d="M557,-14.5C557,-14.5 780.725,-14.5 780.725,-14.5 786.725,-14.5 792.725,-20.5 792.725,-26.5 792.725,-26.5 792.725,-102.5 792.725,-102.5 792.725,-108.5 786.725,-114.5 780.725,-114.5 780.725,-114.5 557,-114.5 557,-114.5 551,-114.5 545,-108.5 545,-102.5 545,-102.5 545,-26.5 545,-26.5 545,-20.5 551,-14.5 557,-14.5"/>
<text text-anchor="middle" x="668.862" y="-99.3" font-family="Times,serif" font-size="14.00">ProductWishlist</text>
<polyline fill="none" stroke="black" points="545,-92.5 792.725,-92.5 "/>
<text text-anchor="start" x="553" y="-77.3" font-family="Times,serif" font-size="14.00">id :integer</text>
<text text-anchor="start" x="553" y="-63.3" font-family="Times,serif" font-size="14.00">product_id :integer</text>
<text text-anchor="start" x="553" y="-49.3" font-family="Times,serif" font-size="14.00">wishlist_id :integer</text>
<text text-anchor="start" x="553" y="-35.3" font-family="Times,serif" font-size="14.00">created_at :timestamp without time zone</text>
<text text-anchor="start" x="553" y="-21.3" font-family="Times,serif" font-size="14.00">updated_at :timestamp without time zone</text>
</g>
<!-- Product&#45;&gt;ProductWishlist -->
<g id="edge4" class="edge"><title>Product&#45;&gt;ProductWishlist</title>
<path fill="none" stroke="#676bf0" d="M676.861,-768.454C684.785,-638.341 700.306,-403.122 709.862,-387 730.479,-352.219 766.675,-372.59 785.862,-337 821.928,-270.102 817.583,-235.064 785.862,-166 778.224,-149.37 766.325,-134.456 752.985,-121.528"/>
<ellipse fill="none" stroke="#676bf0" cx="676.616" cy="-772.493" rx="4" ry="4"/>
<polygon fill="#676bf0" stroke="#676bf0" points="752.785,-121.342 748.5,-111.248 749.114,-117.947 745.444,-114.551 745.444,-114.551 745.444,-114.551 749.114,-117.947 742.388,-117.855 752.785,-121.342 752.785,-121.342"/>
</g>
<!-- User -->
<g id="node8" class="node"><title>User</title>
<path fill="none" stroke="black" d="M129.228,-387.5C129.228,-387.5 424.497,-387.5 424.497,-387.5 430.497,-387.5 436.497,-393.5 436.497,-399.5 436.497,-399.5 436.497,-713.5 436.497,-713.5 436.497,-719.5 430.497,-725.5 424.497,-725.5 424.497,-725.5 129.228,-725.5 129.228,-725.5 123.228,-725.5 117.228,-719.5 117.228,-713.5 117.228,-713.5 117.228,-399.5 117.228,-399.5 117.228,-393.5 123.228,-387.5 129.228,-387.5"/>
<text text-anchor="middle" x="276.862" y="-710.3" font-family="Times,serif" font-size="14.00">User</text>
<polyline fill="none" stroke="black" points="117.228,-703.5 436.497,-703.5 "/>
<text text-anchor="start" x="125.228" y="-688.3" font-family="Times,serif" font-size="14.00">cover_photo :character varying</text>
<text text-anchor="start" x="125.228" y="-674.3" font-family="Times,serif" font-size="14.00">email :character varying</text>
<text text-anchor="start" x="125.228" y="-660.3" font-family="Times,serif" font-size="14.00">encrypted_password :character varying</text>
<text text-anchor="start" x="125.228" y="-646.3" font-family="Times,serif" font-size="14.00">reset_password_token :character varying</text>
<text text-anchor="start" x="125.228" y="-632.3" font-family="Times,serif" font-size="14.00">reset_password_sent_at :timestamp without time zone</text>
<text text-anchor="start" x="125.228" y="-618.3" font-family="Times,serif" font-size="14.00">remember_created_at :timestamp without time zone</text>
<text text-anchor="start" x="125.228" y="-604.3" font-family="Times,serif" font-size="14.00">sign_in_count :integer</text>
<text text-anchor="start" x="125.228" y="-590.3" font-family="Times,serif" font-size="14.00">current_sign_in_at :timestamp without time zone</text>
<text text-anchor="start" x="125.228" y="-576.3" font-family="Times,serif" font-size="14.00">last_sign_in_at :timestamp without time zone</text>
<text text-anchor="start" x="125.228" y="-562.3" font-family="Times,serif" font-size="14.00">current_sign_in_ip :inet</text>
<text text-anchor="start" x="125.228" y="-548.3" font-family="Times,serif" font-size="14.00">last_sign_in_ip :inet</text>
<text text-anchor="start" x="125.228" y="-534.3" font-family="Times,serif" font-size="14.00">created_at :timestamp without time zone</text>
<text text-anchor="start" x="125.228" y="-520.3" font-family="Times,serif" font-size="14.00">updated_at :timestamp without time zone</text>
<text text-anchor="start" x="125.228" y="-506.3" font-family="Times,serif" font-size="14.00">provider :character varying</text>
<text text-anchor="start" x="125.228" y="-492.3" font-family="Times,serif" font-size="14.00">uid :character varying</text>
<text text-anchor="start" x="125.228" y="-478.3" font-family="Times,serif" font-size="14.00">name :character varying</text>
<text text-anchor="start" x="125.228" y="-464.3" font-family="Times,serif" font-size="14.00">phone_number :character varying</text>
<text text-anchor="start" x="125.228" y="-450.3" font-family="Times,serif" font-size="14.00">avatar :character varying</text>
<text text-anchor="start" x="125.228" y="-436.3" font-family="Times,serif" font-size="14.00">role :integer</text>
<text text-anchor="start" x="125.228" y="-422.3" font-family="Times,serif" font-size="14.00">gender :character varying</text>
<text text-anchor="start" x="125.228" y="-408.3" font-family="Times,serif" font-size="14.00">birthday :character varying</text>
<text text-anchor="start" x="125.228" y="-394.3" font-family="Times,serif" font-size="14.00">id :integer</text>
</g>
<!-- Product&#45;&gt;User -->
<g id="edge3" class="edge"><title>Product&#45;&gt;User</title>
<path fill="none" stroke="#21570a" d="M538.336,-776.309C474.642,-758.696 445.696,-792.005 394.097,-758 383.47,-750.997 373.682,-742.672 364.686,-733.46"/>
<polygon fill="#21570a" stroke="#21570a" points="538.437,-776.34 546.664,-783.591 543.215,-777.816 547.992,-779.291 547.992,-779.291 547.992,-779.291 543.215,-777.816 549.32,-774.991 538.437,-776.34 538.437,-776.34"/>
<polygon fill="#21570a" stroke="#21570a" points="364.454,-733.21 360.936,-722.823 361.048,-729.549 357.642,-725.889 357.642,-725.889 357.642,-725.889 361.048,-729.549 354.347,-728.954 364.454,-733.21 364.454,-733.21"/>
<text text-anchor="middle" x="423.245" y="-746.8" font-family="Times,serif" font-size="14.00">user_likes</text>
</g>
<!-- Wishlist -->
<g id="node9" class="node"><title>Wishlist</title>
<path fill="none" stroke="black" d="M541,-208.5C541,-208.5 764.725,-208.5 764.725,-208.5 770.725,-208.5 776.725,-214.5 776.725,-220.5 776.725,-220.5 776.725,-282.5 776.725,-282.5 776.725,-288.5 770.725,-294.5 764.725,-294.5 764.725,-294.5 541,-294.5 541,-294.5 535,-294.5 529,-288.5 529,-282.5 529,-282.5 529,-220.5 529,-220.5 529,-214.5 535,-208.5 541,-208.5"/>
<text text-anchor="middle" x="652.862" y="-279.3" font-family="Times,serif" font-size="14.00">Wishlist</text>
<polyline fill="none" stroke="black" points="529,-272.5 776.725,-272.5 "/>
<text text-anchor="start" x="537" y="-257.3" font-family="Times,serif" font-size="14.00">id :integer</text>
<text text-anchor="start" x="537" y="-243.3" font-family="Times,serif" font-size="14.00">name :character varying</text>
<text text-anchor="start" x="537" y="-229.3" font-family="Times,serif" font-size="14.00">created_at :timestamp without time zone</text>
<text text-anchor="start" x="537" y="-215.3" font-family="Times,serif" font-size="14.00">updated_at :timestamp without time zone</text>
</g>
<!-- Product&#45;&gt;Wishlist -->
<g id="edge5" class="edge"><title>Product&#45;&gt;Wishlist</title>
<path fill="none" stroke="#83b8e6" d="M669.111,-766.458C665.106,-639.778 657.793,-408.467 654.521,-304.98"/>
<polygon fill="#83b8e6" stroke="#83b8e6" points="669.111,-766.472 664.929,-776.609 669.269,-771.469 669.427,-776.467 669.427,-776.467 669.427,-776.467 669.269,-771.469 673.925,-776.324 669.111,-766.472 669.111,-766.472"/>
<polygon fill="#83b8e6" stroke="#83b8e6" points="654.515,-304.774 658.697,-294.637 654.357,-299.777 654.199,-294.779 654.199,-294.779 654.199,-294.779 654.357,-299.777 649.701,-294.922 654.515,-304.774 654.515,-304.774"/>
</g>
<!-- ActsAsTaggableOn::Tagging -->
<g id="node10" class="node"><title>ActsAsTaggableOn::Tagging</title>
<ellipse fill="none" stroke="black" cx="831.862" cy="-556.5" rx="113.006" ry="18"/>
<text text-anchor="middle" x="831.862" y="-552.3" font-family="Times,serif" font-size="14.00">ActsAsTaggableOn::Tagging</text>
</g>
<!-- Product&#45;&gt;ActsAsTaggableOn::Tagging -->
<g id="edge6" class="edge"><title>Product&#45;&gt;ActsAsTaggableOn::Tagging</title>
<path fill="none" stroke="#c1b987" d="M717.649,-768.795C751.577,-706.029 795.62,-624.548 817.794,-583.526"/>
<ellipse fill="none" stroke="#c1b987" cx="715.594" cy="-772.597" rx="4.00002" ry="4.00002"/>
<polygon fill="#c1b987" stroke="#c1b987" points="817.934,-583.268 826.648,-576.61 820.311,-578.869 822.689,-574.471 822.689,-574.471 822.689,-574.471 820.311,-578.869 818.73,-572.331 817.934,-583.268 817.934,-583.268"/>
<text text-anchor="middle" x="752.583" y="-746.8" font-family="Times,serif" font-size="14.00">taggings</text>
</g>
<!-- Product&#45;&gt;ActsAsTaggableOn::Tagging -->
<g id="edge8" class="edge"><title>Product&#45;&gt;ActsAsTaggableOn::Tagging</title>
<path fill="none" stroke="#1439c2" d="M771.818,-769.86C774.692,-765.989 777.389,-762.032 779.862,-758 813.881,-702.545 825.788,-625.337 829.846,-584.816"/>
<ellipse fill="none" stroke="#1439c2" cx="769.277" cy="-773.133" rx="4.00002" ry="4.00002"/>
<polygon fill="#1439c2" stroke="#1439c2" points="829.866,-584.6 835.256,-575.05 830.32,-579.62 830.775,-574.641 830.775,-574.641 830.775,-574.641 830.32,-579.62 826.294,-574.232 829.866,-584.6 829.866,-584.6"/>
<text text-anchor="middle" x="820.635" y="-746.8" font-family="Times,serif" font-size="14.00">tag_taggings</text>
</g>
<!-- ActsAsTaggableOn::Tag -->
<g id="node11" class="node"><title>ActsAsTaggableOn::Tag</title>
<ellipse fill="none" stroke="black" cx="1059.86" cy="-556.5" rx="97.0617" ry="18"/>
<text text-anchor="middle" x="1059.86" y="-552.3" font-family="Times,serif" font-size="14.00">ActsAsTaggableOn::Tag</text>
</g>
<!-- Product&#45;&gt;ActsAsTaggableOn::Tag -->
<g id="edge7" class="edge"><title>Product&#45;&gt;ActsAsTaggableOn::Tag</title>
<path fill="none" stroke="#b24b1a" d="M805.105,-811.833C855.546,-791.54 911.062,-763.308 953.862,-726 1000.06,-685.73 1033.12,-620.4 1049.07,-584.05"/>
<polygon fill="#b24b1a" stroke="#b24b1a" points="805.05,-811.855 794.096,-811.345 800.4,-813.692 795.75,-815.53 795.75,-815.53 795.75,-815.53 800.4,-813.692 797.404,-819.715 805.05,-811.855 805.05,-811.855"/>
<polygon fill="#b24b1a" stroke="#b24b1a" points="1049.18,-583.803 1057.25,-576.382 1051.15,-579.207 1053.12,-574.611 1053.12,-574.611 1053.12,-574.611 1051.15,-579.207 1048.98,-572.839 1049.18,-583.803 1049.18,-583.803"/>
<text text-anchor="middle" x="954.076" y="-746.8" font-family="Times,serif" font-size="14.00">base_tags</text>
</g>
<!-- Product&#45;&gt;ActsAsTaggableOn::Tag -->
<g id="edge9" class="edge"><title>Product&#45;&gt;ActsAsTaggableOn::Tag</title>
<path fill="none" stroke="#f7a9d2" d="M806.042,-839.797C867.185,-827.286 936.533,-803.431 984.862,-758 1034.79,-711.068 1051.7,-627.737 1057.26,-584.781"/>
<polygon fill="#f7a9d2" stroke="#f7a9d2" points="805.726,-839.859 795.047,-837.366 800.819,-840.82 795.912,-841.782 795.912,-841.782 795.912,-841.782 800.819,-840.82 796.778,-846.198 805.726,-839.859 805.726,-839.859"/>
<polygon fill="#f7a9d2" stroke="#f7a9d2" points="1057.27,-584.708 1062.91,-575.305 1057.85,-579.742 1058.44,-574.777 1058.44,-574.777 1058.44,-574.777 1057.85,-579.742 1053.97,-574.249 1057.27,-584.708 1057.27,-584.708"/>
<text text-anchor="middle" x="1007.14" y="-746.8" font-family="Times,serif" font-size="14.00">tags</text>
</g>
<!-- Store -->
<g id="node7" class="node"><title>Store</title>
<path fill="none" stroke="black" d="M237,-166.5C237,-166.5 460.725,-166.5 460.725,-166.5 466.725,-166.5 472.725,-172.5 472.725,-178.5 472.725,-178.5 472.725,-324.5 472.725,-324.5 472.725,-330.5 466.725,-336.5 460.725,-336.5 460.725,-336.5 237,-336.5 237,-336.5 231,-336.5 225,-330.5 225,-324.5 225,-324.5 225,-178.5 225,-178.5 225,-172.5 231,-166.5 237,-166.5"/>
<text text-anchor="middle" x="348.862" y="-321.3" font-family="Times,serif" font-size="14.00">Store</text>
<polyline fill="none" stroke="black" points="225,-314.5 472.725,-314.5 "/>
<text text-anchor="start" x="233" y="-299.3" font-family="Times,serif" font-size="14.00">updated_at :timestamp without time zone</text>
<text text-anchor="start" x="233" y="-285.3" font-family="Times,serif" font-size="14.00">name :character varying</text>
<text text-anchor="start" x="233" y="-271.3" font-family="Times,serif" font-size="14.00">description :text</text>
<text text-anchor="start" x="233" y="-257.3" font-family="Times,serif" font-size="14.00">photo :character varying</text>
<text text-anchor="start" x="233" y="-243.3" font-family="Times,serif" font-size="14.00">cover_photo :character varying</text>
<text text-anchor="start" x="233" y="-229.3" font-family="Times,serif" font-size="14.00">facebook_link :character varying</text>
<text text-anchor="start" x="233" y="-215.3" font-family="Times,serif" font-size="14.00">instagram_link :character varying</text>
<text text-anchor="start" x="233" y="-201.3" font-family="Times,serif" font-size="14.00">user_id :integer</text>
<text text-anchor="start" x="233" y="-187.3" font-family="Times,serif" font-size="14.00">created_at :timestamp without time zone</text>
<text text-anchor="start" x="233" y="-173.3" font-family="Times,serif" font-size="14.00">id :integer</text>
</g>
<!-- Store&#45;&gt;Comment -->
<g id="edge11" class="edge"><title>Store&#45;&gt;Comment</title>
<path fill="none" stroke="#12fa79" d="M240.041,-161.025C229.434,-152.304 218.783,-143.546 208.467,-135.064"/>
<ellipse fill="none" stroke="#12fa79" cx="243.477" cy="-163.85" rx="4.00002" ry="4.00002"/>
<polygon fill="#12fa79" stroke="#12fa79" points="208.373,-134.987 203.507,-125.16 204.511,-131.811 200.649,-128.635 200.649,-128.635 200.649,-128.635 204.511,-131.811 197.791,-132.111 208.373,-134.987 208.373,-134.987"/>
</g>
<!-- Store&#45;&gt;Like -->
<g id="edge12" class="edge"><title>Store&#45;&gt;Like</title>
<path fill="none" stroke="#faca7f" d="M369.241,-158.547C371.272,-149.382 373.305,-140.21 375.26,-131.39"/>
<ellipse fill="none" stroke="#faca7f" cx="368.368" cy="-162.485" rx="4.00001" ry="4.00001"/>
<polygon fill="#faca7f" stroke="#faca7f" points="375.265,-131.365 381.822,-122.576 376.347,-126.483 377.429,-121.602 377.429,-121.602 377.429,-121.602 376.347,-126.483 373.036,-120.628 375.265,-131.365 375.265,-131.365"/>
</g>
<!-- Store&#45;&gt;Product -->
<g id="edge10" class="edge"><title>Store&#45;&gt;Product</title>
<path fill="none" stroke="#69af6c" d="M423.342,-343.502C432.085,-357.455 439.972,-372.169 445.862,-387 507.254,-541.576 393.296,-626.292 494.862,-758 507.765,-774.732 519.911,-766.659 538.862,-776 538.956,-776.046 539.05,-776.092 539.143,-776.139"/>
<ellipse fill="none" stroke="#69af6c" cx="421.147" cy="-340.083" rx="4.00002" ry="4.00002"/>
<polygon fill="#69af6c" stroke="#69af6c" points="538.979,-776.056 545.895,-784.566 543.447,-778.301 547.915,-780.545 547.915,-780.545 547.915,-780.545 543.447,-778.301 549.935,-776.524 538.979,-776.056 538.979,-776.056"/>
</g>
<!-- Store&#45;&gt;User -->
<g id="edge13" class="edge"><title>Store&#45;&gt;User</title>
<path fill="none" stroke="#583779" d="M281.275,-346.047C280.106,-349.016 279.041,-352.003 278.097,-355 275.78,-362.353 273.855,-369.935 272.271,-377.651"/>
<polygon fill="#583779" stroke="#583779" points="281.374,-345.819 289.473,-338.426 283.358,-341.23 285.342,-336.64 285.342,-336.64 285.342,-336.64 283.358,-341.23 281.212,-334.855 281.374,-345.819 281.374,-345.819"/>
<polygon fill="#583779" stroke="#583779" points="272.27,-377.657 266.019,-386.667 271.357,-382.573 270.444,-387.489 270.444,-387.489 270.444,-387.489 271.357,-382.573 274.868,-388.311 272.27,-377.657 272.27,-377.657"/>
<text text-anchor="middle" x="307.245" y="-357.8" font-family="Times,serif" font-size="14.00">user_likes</text>
</g>
<!-- User&#45;&gt;Comment -->
<g id="edge16" class="edge"><title>User&#45;&gt;Comment</title>
<path fill="none" stroke="#ef29d5" d="M197.884,-379.913C196.509,-376.253 195.166,-372.612 193.862,-369 166.251,-292.515 146.924,-201.162 135.677,-138.8"/>
<ellipse fill="none" stroke="#ef29d5" cx="199.328" cy="-383.711" rx="4.00001" ry="4.00001"/>
<polygon fill="#ef29d5" stroke="#ef29d5" points="135.625,-138.508 138.304,-127.874 134.749,-133.585 133.873,-128.662 133.873,-128.662 133.873,-128.662 134.749,-133.585 129.443,-129.451 135.625,-138.508 135.625,-138.508"/>
</g>
<!-- User&#45;&gt;Like -->
<g id="edge15" class="edge"><title>User&#45;&gt;Like</title>
<path fill="none" stroke="#afcf01" d="M202.139,-379.365C183.975,-309.118 178.961,-229.928 215.862,-166 222.628,-154.279 241.275,-140.431 263.981,-126.823"/>
<ellipse fill="none" stroke="#afcf01" cx="203.264" cy="-383.581" rx="4.00001" ry="4.00001"/>
<polygon fill="#afcf01" stroke="#afcf01" points="264.235,-126.674 275.139,-125.508 268.55,-124.149 272.866,-121.624 272.866,-121.624 272.866,-121.624 268.55,-124.149 270.593,-117.74 264.235,-126.674 264.235,-126.674"/>
</g>
<!-- User&#45;&gt;Store -->
<g id="edge14" class="edge"><title>User&#45;&gt;Store</title>
<path fill="none" stroke="#f5c87b" d="M332.513,-379.573C333.33,-376.026 334.115,-372.499 334.862,-369 336.54,-361.15 338.033,-352.956 339.358,-344.71"/>
<ellipse fill="none" stroke="#f5c87b" cx="331.592" cy="-383.474" rx="4.00001" ry="4.00001"/>
<ellipse fill="#f5c87b" stroke="#f5c87b" cx="339.969" cy="-340.751" rx="4.00001" ry="4.00001"/>
</g>
<!-- User&#45;&gt;Wishlist -->
<g id="edge17" class="edge"><title>User&#45;&gt;Wishlist</title>
<path fill="none" stroke="#abfcd5" d="M443.154,-421.494C496.461,-378.536 552.128,-333.677 592.701,-300.981"/>
<ellipse fill="none" stroke="#abfcd5" cx="439.707" cy="-424.271" rx="4.00002" ry="4.00002"/>
<polygon fill="#abfcd5" stroke="#abfcd5" points="592.823,-300.883 603.433,-298.112 596.716,-297.745 600.61,-294.608 600.61,-294.608 600.61,-294.608 596.716,-297.745 597.786,-291.104 592.823,-300.883 592.823,-300.883"/>
</g>
<!-- Wishlist&#45;&gt;ProductWishlist -->
<g id="edge18" class="edge"><title>Wishlist&#45;&gt;ProductWishlist</title>
<path fill="none" stroke="#f5ef61" d="M657.229,-200.011C659.24,-176.758 661.64,-149.006 663.737,-124.767"/>
<ellipse fill="none" stroke="#f5ef61" cx="656.878" cy="-204.072" rx="4" ry="4"/>
<polygon fill="#f5ef61" stroke="#f5ef61" points="663.753,-124.579 669.098,-115.004 664.184,-119.598 664.614,-114.616 664.614,-114.616 664.614,-114.616 664.184,-119.598 660.131,-114.229 663.753,-124.579 663.753,-124.579"/>
</g>
</g>
</svg>
