<?xml version="1.0" encoding="UTF-8" standalone="no"?>
<!DOCTYPE svg PUBLIC "-//W3C//DTD SVG 1.1//EN"
 "http://www.w3.org/Graphics/SVG/1.1/DTD/svg11.dtd">
<!-- Generated by graphviz version 2.38.0 (20140413.2041)
 -->
<!-- Title: models_diagram Pages: 1 -->
<svg width="1586pt" height="1079pt"
 viewBox="0.00 0.00 1586.14 1079.00" xmlns="http://www.w3.org/2000/svg" xmlns:xlink="http://www.w3.org/1999/xlink">
<g id="graph0" class="graph" transform="scale(1 1) rotate(0) translate(4 1075)">
<title>models_diagram</title>
<polygon fill="none" stroke="none" points="-4,4 -4,-1075 1582.14,-1075 1582.14,4 -4,4"/>
<!-- _diagram_info -->
<g id="node1" class="node"><title>_diagram_info</title>
<text text-anchor="start" x="595.175" y="-1014.6" font-family="Times,serif" font-size="13.00">Models diagram</text>
<text text-anchor="start" x="595.175" y="-1001.6" font-family="Times,serif" font-size="13.00">Date: May 13 2016 &#45; 19:45</text>
<text text-anchor="start" x="595.175" y="-988.6" font-family="Times,serif" font-size="13.00">Migration version: 20160513224016</text>
<text text-anchor="start" x="595.175" y="-975.6" font-family="Times,serif" font-size="13.00">Generated by RailRoady 1.4.2</text>
<text text-anchor="start" x="595.175" y="-962.6" font-family="Times,serif" font-size="13.00">http://railroady.prestonlee.com</text>
</g>
<!-- Ability -->
<g id="node2" class="node"><title>Ability</title>
<polygon fill="none" stroke="black" points="813.028,-970.5 813.028,-1014.5 868.697,-1014.5 868.697,-970.5 813.028,-970.5"/>
<text text-anchor="middle" x="840.862" y="-999.3" font-family="Times,serif" font-size="14.00">Ability</text>
<polyline fill="none" stroke="black" points="813.028,-992.5 868.697,-992.5 "/>
<text text-anchor="middle" x="840.862" y="-977.3" font-family="Times,serif" font-size="14.00"> </text>
</g>
<!-- Comment -->
<g id="node3" class="node"><title>Comment</title>
<path fill="none" stroke="black" d="M12,-138.5C12,-138.5 235.725,-138.5 235.725,-138.5 241.725,-138.5 247.725,-144.5 247.725,-150.5 247.725,-150.5 247.725,-254.5 247.725,-254.5 247.725,-260.5 241.725,-266.5 235.725,-266.5 235.725,-266.5 12,-266.5 12,-266.5 6,-266.5 0,-260.5 0,-254.5 0,-254.5 0,-150.5 0,-150.5 0,-144.5 6,-138.5 12,-138.5"/>
<text text-anchor="middle" x="123.862" y="-251.3" font-family="Times,serif" font-size="14.00">Comment</text>
<polyline fill="none" stroke="black" points="0,-244.5 247.725,-244.5 "/>
<text text-anchor="start" x="8" y="-229.3" font-family="Times,serif" font-size="14.00">content :text</text>
<text text-anchor="start" x="8" y="-215.3" font-family="Times,serif" font-size="14.00">commentable_id :integer</text>
<text text-anchor="start" x="8" y="-201.3" font-family="Times,serif" font-size="14.00">commentable_type :character varying</text>
<text text-anchor="start" x="8" y="-187.3" font-family="Times,serif" font-size="14.00">id :integer</text>
<text text-anchor="start" x="8" y="-173.3" font-family="Times,serif" font-size="14.00">user_id :integer</text>
<text text-anchor="start" x="8" y="-159.3" font-family="Times,serif" font-size="14.00">created_at :timestamp without time zone</text>
<text text-anchor="start" x="8" y="-145.3" font-family="Times,serif" font-size="14.00">updated_at :timestamp without time zone</text>
</g>
<!-- Like -->
<g id="node4" class="node"><title>Like</title>
<path fill="none" stroke="black" d="M544,-145.5C544,-145.5 767.725,-145.5 767.725,-145.5 773.725,-145.5 779.725,-151.5 779.725,-157.5 779.725,-157.5 779.725,-247.5 779.725,-247.5 779.725,-253.5 773.725,-259.5 767.725,-259.5 767.725,-259.5 544,-259.5 544,-259.5 538,-259.5 532,-253.5 532,-247.5 532,-247.5 532,-157.5 532,-157.5 532,-151.5 538,-145.5 544,-145.5"/>
<text text-anchor="middle" x="655.862" y="-244.3" font-family="Times,serif" font-size="14.00">Like</text>
<polyline fill="none" stroke="black" points="532,-237.5 779.725,-237.5 "/>
<text text-anchor="start" x="540" y="-222.3" font-family="Times,serif" font-size="14.00">id :integer</text>
<text text-anchor="start" x="540" y="-208.3" font-family="Times,serif" font-size="14.00">likeable_id :integer</text>
<text text-anchor="start" x="540" y="-194.3" font-family="Times,serif" font-size="14.00">likeable_type :character varying</text>
<text text-anchor="start" x="540" y="-180.3" font-family="Times,serif" font-size="14.00">user_id :integer</text>
<text text-anchor="start" x="540" y="-166.3" font-family="Times,serif" font-size="14.00">created_at :timestamp without time zone</text>
<text text-anchor="start" x="540" y="-152.3" font-family="Times,serif" font-size="14.00">updated_at :timestamp without time zone</text>
</g>
<!-- Metro -->
<g id="node5" class="node"><title>Metro</title>
<path fill="none" stroke="black" d="M262,-637.5C262,-637.5 485.725,-637.5 485.725,-637.5 491.725,-637.5 497.725,-643.5 497.725,-649.5 497.725,-649.5 497.725,-753.5 497.725,-753.5 497.725,-759.5 491.725,-765.5 485.725,-765.5 485.725,-765.5 262,-765.5 262,-765.5 256,-765.5 250,-759.5 250,-753.5 250,-753.5 250,-649.5 250,-649.5 250,-643.5 256,-637.5 262,-637.5"/>
<text text-anchor="middle" x="373.862" y="-750.3" font-family="Times,serif" font-size="14.00">Metro</text>
<polyline fill="none" stroke="black" points="250,-743.5 497.725,-743.5 "/>
<text text-anchor="start" x="258" y="-728.3" font-family="Times,serif" font-size="14.00">latitude :double precision</text>
<text text-anchor="start" x="258" y="-714.3" font-family="Times,serif" font-size="14.00">name :character varying</text>
<text text-anchor="start" x="258" y="-700.3" font-family="Times,serif" font-size="14.00">line :integer</text>
<text text-anchor="start" x="258" y="-686.3" font-family="Times,serif" font-size="14.00">id :integer</text>
<text text-anchor="start" x="258" y="-672.3" font-family="Times,serif" font-size="14.00">longitude :double precision</text>
<text text-anchor="start" x="258" y="-658.3" font-family="Times,serif" font-size="14.00">created_at :timestamp without time zone</text>
<text text-anchor="start" x="258" y="-644.3" font-family="Times,serif" font-size="14.00">updated_at :timestamp without time zone</text>
</g>
<!-- MetroStore -->
<g id="node6" class="node"><title>MetroStore</title>
<path fill="none" stroke="black" d="M278,-152.5C278,-152.5 501.725,-152.5 501.725,-152.5 507.725,-152.5 513.725,-158.5 513.725,-164.5 513.725,-164.5 513.725,-240.5 513.725,-240.5 513.725,-246.5 507.725,-252.5 501.725,-252.5 501.725,-252.5 278,-252.5 278,-252.5 272,-252.5 266,-246.5 266,-240.5 266,-240.5 266,-164.5 266,-164.5 266,-158.5 272,-152.5 278,-152.5"/>
<text text-anchor="middle" x="389.862" y="-237.3" font-family="Times,serif" font-size="14.00">MetroStore</text>
<polyline fill="none" stroke="black" points="266,-230.5 513.725,-230.5 "/>
<text text-anchor="start" x="274" y="-215.3" font-family="Times,serif" font-size="14.00">id :integer</text>
<text text-anchor="start" x="274" y="-201.3" font-family="Times,serif" font-size="14.00">metro_id :integer</text>
<text text-anchor="start" x="274" y="-187.3" font-family="Times,serif" font-size="14.00">store_id :integer</text>
<text text-anchor="start" x="274" y="-173.3" font-family="Times,serif" font-size="14.00">created_at :timestamp without time zone</text>
<text text-anchor="start" x="274" y="-159.3" font-family="Times,serif" font-size="14.00">updated_at :timestamp without time zone</text>
</g>
<!-- Metro&#45;&gt;MetroStore -->
<g id="edge1" class="edge"><title>Metro&#45;&gt;MetroStore</title>
<path fill="none" stroke="#f0dea5" d="M376.158,-629.181C379.329,-530.703 384.989,-354.87 387.945,-263.045"/>
<ellipse fill="none" stroke="#f0dea5" cx="376.026" cy="-633.304" rx="4" ry="4"/>
<polygon fill="#f0dea5" stroke="#f0dea5" points="387.953,-262.807 392.772,-252.957 388.114,-257.809 388.275,-252.812 388.275,-252.812 388.275,-252.812 388.114,-257.809 383.777,-252.667 387.953,-262.807 387.953,-262.807"/>
</g>
<!-- Store -->
<g id="node9" class="node"><title>Store</title>
<path fill="none" stroke="black" d="M411,-304.5C411,-304.5 634.725,-304.5 634.725,-304.5 640.725,-304.5 646.725,-310.5 646.725,-316.5 646.725,-316.5 646.725,-476.5 646.725,-476.5 646.725,-482.5 640.725,-488.5 634.725,-488.5 634.725,-488.5 411,-488.5 411,-488.5 405,-488.5 399,-482.5 399,-476.5 399,-476.5 399,-316.5 399,-316.5 399,-310.5 405,-304.5 411,-304.5"/>
<text text-anchor="middle" x="522.862" y="-473.3" font-family="Times,serif" font-size="14.00">Store</text>
<polyline fill="none" stroke="black" points="399,-466.5 646.725,-466.5 "/>
<text text-anchor="start" x="407" y="-451.3" font-family="Times,serif" font-size="14.00">phone_number :character varying</text>
<text text-anchor="start" x="407" y="-437.3" font-family="Times,serif" font-size="14.00">name :character varying</text>
<text text-anchor="start" x="407" y="-423.3" font-family="Times,serif" font-size="14.00">description :text</text>
<text text-anchor="start" x="407" y="-409.3" font-family="Times,serif" font-size="14.00">photo :character varying</text>
<text text-anchor="start" x="407" y="-395.3" font-family="Times,serif" font-size="14.00">cover_photo :character varying</text>
<text text-anchor="start" x="407" y="-381.3" font-family="Times,serif" font-size="14.00">facebook_link :character varying</text>
<text text-anchor="start" x="407" y="-367.3" font-family="Times,serif" font-size="14.00">instagram_link :character varying</text>
<text text-anchor="start" x="407" y="-353.3" font-family="Times,serif" font-size="14.00">user_id :integer</text>
<text text-anchor="start" x="407" y="-339.3" font-family="Times,serif" font-size="14.00">created_at :timestamp without time zone</text>
<text text-anchor="start" x="407" y="-325.3" font-family="Times,serif" font-size="14.00">updated_at :timestamp without time zone</text>
<text text-anchor="start" x="407" y="-311.3" font-family="Times,serif" font-size="14.00">id :integer</text>
</g>
<!-- Metro&#45;&gt;Store -->
<g id="edge2" class="edge"><title>Metro&#45;&gt;Store</title>
<path fill="none" stroke="#499e7f" d="M409.351,-628.332C428.553,-589.283 452.573,-540.438 473.566,-497.748"/>
<polygon fill="#499e7f" stroke="#499e7f" points="409.329,-628.376 400.878,-635.364 407.123,-632.863 404.916,-637.35 404.916,-637.35 404.916,-637.35 407.123,-632.863 408.954,-639.336 409.329,-628.376 409.329,-628.376"/>
<polygon fill="#499e7f" stroke="#499e7f" points="473.584,-497.711 482.035,-490.723 475.79,-493.224 477.996,-488.737 477.996,-488.737 477.996,-488.737 475.79,-493.224 473.958,-486.752 473.584,-497.711 473.584,-497.711"/>
</g>
<!-- Product -->
<g id="node7" class="node"><title>Product</title>
<path fill="none" stroke="black" d="M899,-914.5C899,-914.5 1122.72,-914.5 1122.72,-914.5 1128.72,-914.5 1134.72,-920.5 1134.72,-926.5 1134.72,-926.5 1134.72,-1058.5 1134.72,-1058.5 1134.72,-1064.5 1128.72,-1070.5 1122.72,-1070.5 1122.72,-1070.5 899,-1070.5 899,-1070.5 893,-1070.5 887,-1064.5 887,-1058.5 887,-1058.5 887,-926.5 887,-926.5 887,-920.5 893,-914.5 899,-914.5"/>
<text text-anchor="middle" x="1010.86" y="-1055.3" font-family="Times,serif" font-size="14.00">Product</text>
<polyline fill="none" stroke="black" points="887,-1048.5 1134.72,-1048.5 "/>
<text text-anchor="start" x="895" y="-1033.3" font-family="Times,serif" font-size="14.00">updated_at :timestamp without time zone</text>
<text text-anchor="start" x="895" y="-1019.3" font-family="Times,serif" font-size="14.00">name :character varying</text>
<text text-anchor="start" x="895" y="-1005.3" font-family="Times,serif" font-size="14.00">description :text</text>
<text text-anchor="start" x="895" y="-991.3" font-family="Times,serif" font-size="14.00">photo :character varying</text>
<text text-anchor="start" x="895" y="-977.3" font-family="Times,serif" font-size="14.00">price :integer</text>
<text text-anchor="start" x="895" y="-963.3" font-family="Times,serif" font-size="14.00">stock :integer</text>
<text text-anchor="start" x="895" y="-949.3" font-family="Times,serif" font-size="14.00">store_id :integer</text>
<text text-anchor="start" x="895" y="-935.3" font-family="Times,serif" font-size="14.00">created_at :timestamp without time zone</text>
<text text-anchor="start" x="895" y="-921.3" font-family="Times,serif" font-size="14.00">id :integer</text>
</g>
<!-- Product&#45;&gt;Comment -->
<g id="edge3" class="edge"><title>Product&#45;&gt;Comment</title>
<path fill="none" stroke="#daf1a9" d="M878.97,-914.321C878.601,-914.213 878.232,-914.106 877.862,-914 751.121,-877.695 415.158,-916.113 284.862,-896 233.276,-888.037 204.833,-904.466 171.862,-864 33.1347,-693.737 74.714,-409.808 104.758,-276.646"/>
<ellipse fill="none" stroke="#daf1a9" cx="882.914" cy="-915.566" rx="4.00001" ry="4.00001"/>
<polygon fill="#daf1a9" stroke="#daf1a9" points="104.838,-276.296 111.465,-267.559 105.959,-271.423 107.079,-266.55 107.079,-266.55 107.079,-266.55 105.959,-271.423 102.694,-265.542 104.838,-276.296 104.838,-276.296"/>
</g>
<!-- Product&#45;&gt;Like -->
<g id="edge4" class="edge"><title>Product&#45;&gt;Like</title>
<path fill="none" stroke="#9673ab" d="M960.411,-906.992C952.985,-892.892 945.836,-878.223 939.862,-864 881.536,-725.138 923.879,-666.601 843.862,-539 826.311,-511.012 808.444,-515.607 788.862,-489 738.406,-420.444 700.134,-329.693 677.885,-269.091"/>
<ellipse fill="none" stroke="#9673ab" cx="962.432" cy="-910.778" rx="4.00002" ry="4.00002"/>
<polygon fill="#9673ab" stroke="#9673ab" points="677.863,-269.032 678.682,-258.097 676.158,-264.332 674.452,-259.632 674.452,-259.632 674.452,-259.632 676.158,-264.332 670.222,-261.167 677.863,-269.032 677.863,-269.032"/>
</g>
<!-- ProductWishlist -->
<g id="node8" class="node"><title>ProductWishlist</title>
<path fill="none" stroke="black" d="M848,-0.5C848,-0.5 1071.72,-0.5 1071.72,-0.5 1077.72,-0.5 1083.72,-6.5 1083.72,-12.5 1083.72,-12.5 1083.72,-88.5 1083.72,-88.5 1083.72,-94.5 1077.72,-100.5 1071.72,-100.5 1071.72,-100.5 848,-100.5 848,-100.5 842,-100.5 836,-94.5 836,-88.5 836,-88.5 836,-12.5 836,-12.5 836,-6.5 842,-0.5 848,-0.5"/>
<text text-anchor="middle" x="959.862" y="-85.3" font-family="Times,serif" font-size="14.00">ProductWishlist</text>
<polyline fill="none" stroke="black" points="836,-78.5 1083.72,-78.5 "/>
<text text-anchor="start" x="844" y="-63.3" font-family="Times,serif" font-size="14.00">id :integer</text>
<text text-anchor="start" x="844" y="-49.3" font-family="Times,serif" font-size="14.00">user_wishlist_id :integer</text>
<text text-anchor="start" x="844" y="-35.3" font-family="Times,serif" font-size="14.00">product_id :integer</text>
<text text-anchor="start" x="844" y="-21.3" font-family="Times,serif" font-size="14.00">created_at :timestamp without time zone</text>
<text text-anchor="start" x="844" y="-7.3" font-family="Times,serif" font-size="14.00">updated_at :timestamp without time zone</text>
</g>
<!-- Product&#45;&gt;ProductWishlist -->
<g id="edge6" class="edge"><title>Product&#45;&gt;ProductWishlist</title>
<path fill="none" stroke="#b91a2d" d="M1068.07,-907.127C1075.68,-893.166 1082.64,-878.504 1087.86,-864 1112.43,-795.72 1111.86,-775.066 1111.86,-702.5 1111.86,-702.5 1111.86,-702.5 1111.86,-201.5 1111.86,-172.042 1110.51,-161.585 1092.86,-138 1084.28,-126.533 1073.7,-116.155 1062.28,-106.897"/>
<ellipse fill="none" stroke="#b91a2d" cx="1065.98" cy="-910.866" rx="4.00002" ry="4.00002"/>
<polygon fill="#b91a2d" stroke="#b91a2d" points="1062.16,-106.8 1057.02,-97.1131 1058.21,-103.734 1054.26,-100.667 1054.26,-100.667 1054.26,-100.667 1058.21,-103.734 1051.5,-104.222 1062.16,-106.8 1062.16,-106.8"/>
</g>
<!-- User -->
<g id="node10" class="node"><title>User</title>
<path fill="none" stroke="black" d="M527.228,-539.5C527.228,-539.5 822.497,-539.5 822.497,-539.5 828.497,-539.5 834.497,-545.5 834.497,-551.5 834.497,-551.5 834.497,-851.5 834.497,-851.5 834.497,-857.5 828.497,-863.5 822.497,-863.5 822.497,-863.5 527.228,-863.5 527.228,-863.5 521.228,-863.5 515.228,-857.5 515.228,-851.5 515.228,-851.5 515.228,-551.5 515.228,-551.5 515.228,-545.5 521.228,-539.5 527.228,-539.5"/>
<text text-anchor="middle" x="674.862" y="-848.3" font-family="Times,serif" font-size="14.00">User</text>
<polyline fill="none" stroke="black" points="515.228,-841.5 834.497,-841.5 "/>
<text text-anchor="start" x="523.228" y="-826.3" font-family="Times,serif" font-size="14.00">cover_photo :character varying</text>
<text text-anchor="start" x="523.228" y="-812.3" font-family="Times,serif" font-size="14.00">email :character varying</text>
<text text-anchor="start" x="523.228" y="-798.3" font-family="Times,serif" font-size="14.00">encrypted_password :character varying</text>
<text text-anchor="start" x="523.228" y="-784.3" font-family="Times,serif" font-size="14.00">reset_password_token :character varying</text>
<text text-anchor="start" x="523.228" y="-770.3" font-family="Times,serif" font-size="14.00">reset_password_sent_at :timestamp without time zone</text>
<text text-anchor="start" x="523.228" y="-756.3" font-family="Times,serif" font-size="14.00">remember_created_at :timestamp without time zone</text>
<text text-anchor="start" x="523.228" y="-742.3" font-family="Times,serif" font-size="14.00">sign_in_count :integer</text>
<text text-anchor="start" x="523.228" y="-728.3" font-family="Times,serif" font-size="14.00">current_sign_in_at :timestamp without time zone</text>
<text text-anchor="start" x="523.228" y="-714.3" font-family="Times,serif" font-size="14.00">last_sign_in_at :timestamp without time zone</text>
<text text-anchor="start" x="523.228" y="-700.3" font-family="Times,serif" font-size="14.00">current_sign_in_ip :inet</text>
<text text-anchor="start" x="523.228" y="-686.3" font-family="Times,serif" font-size="14.00">last_sign_in_ip :inet</text>
<text text-anchor="start" x="523.228" y="-672.3" font-family="Times,serif" font-size="14.00">created_at :timestamp without time zone</text>
<text text-anchor="start" x="523.228" y="-658.3" font-family="Times,serif" font-size="14.00">updated_at :timestamp without time zone</text>
<text text-anchor="start" x="523.228" y="-644.3" font-family="Times,serif" font-size="14.00">provider :character varying</text>
<text text-anchor="start" x="523.228" y="-630.3" font-family="Times,serif" font-size="14.00">uid :character varying</text>
<text text-anchor="start" x="523.228" y="-616.3" font-family="Times,serif" font-size="14.00">name :character varying</text>
<text text-anchor="start" x="523.228" y="-602.3" font-family="Times,serif" font-size="14.00">avatar :character varying</text>
<text text-anchor="start" x="523.228" y="-588.3" font-family="Times,serif" font-size="14.00">role :integer</text>
<text text-anchor="start" x="523.228" y="-574.3" font-family="Times,serif" font-size="14.00">gender :character varying</text>
<text text-anchor="start" x="523.228" y="-560.3" font-family="Times,serif" font-size="14.00">birthday :character varying</text>
<text text-anchor="start" x="523.228" y="-546.3" font-family="Times,serif" font-size="14.00">id :integer</text>
</g>
<!-- Product&#45;&gt;User -->
<g id="edge5" class="edge"><title>Product&#45;&gt;User</title>
<path fill="none" stroke="#8e3c95" d="M877.211,-914.276C838.815,-902.536 821.517,-916.847 792.097,-896 781.981,-888.832 772.578,-880.491 763.866,-871.374"/>
<polygon fill="#8e3c95" stroke="#8e3c95" points="877.423,-914.35 885.391,-921.883 882.146,-915.991 886.869,-917.633 886.869,-917.633 886.869,-917.633 882.146,-915.991 888.346,-913.382 877.423,-914.35 877.423,-914.35"/>
<polygon fill="#8e3c95" stroke="#8e3c95" points="763.779,-871.279 760.345,-860.865 760.403,-867.591 757.026,-863.903 757.026,-863.903 757.026,-863.903 760.403,-867.591 753.707,-866.942 763.779,-871.279 763.779,-871.279"/>
<text text-anchor="middle" x="821.245" y="-884.8" font-family="Times,serif" font-size="14.00">user_likes</text>
</g>
<!-- Wishlist -->
<g id="node12" class="node"><title>Wishlist</title>
<path fill="none" stroke="black" d="M810,-346.5C810,-346.5 1033.72,-346.5 1033.72,-346.5 1039.72,-346.5 1045.72,-352.5 1045.72,-358.5 1045.72,-358.5 1045.72,-434.5 1045.72,-434.5 1045.72,-440.5 1039.72,-446.5 1033.72,-446.5 1033.72,-446.5 810,-446.5 810,-446.5 804,-446.5 798,-440.5 798,-434.5 798,-434.5 798,-358.5 798,-358.5 798,-352.5 804,-346.5 810,-346.5"/>
<text text-anchor="middle" x="921.862" y="-431.3" font-family="Times,serif" font-size="14.00">Wishlist</text>
<polyline fill="none" stroke="black" points="798,-424.5 1045.72,-424.5 "/>
<text text-anchor="start" x="806" y="-409.3" font-family="Times,serif" font-size="14.00">id :integer</text>
<text text-anchor="start" x="806" y="-395.3" font-family="Times,serif" font-size="14.00">name :character varying</text>
<text text-anchor="start" x="806" y="-381.3" font-family="Times,serif" font-size="14.00">created_at :timestamp without time zone</text>
<text text-anchor="start" x="806" y="-367.3" font-family="Times,serif" font-size="14.00">updated_at :timestamp without time zone</text>
<text text-anchor="start" x="806" y="-353.3" font-family="Times,serif" font-size="14.00">icon :character varying</text>
</g>
<!-- Product&#45;&gt;Wishlist -->
<g id="edge7" class="edge"><title>Product&#45;&gt;Wishlist</title>
<path fill="none" stroke="#89295f" d="M997.813,-904.408C979.466,-781.957 946.528,-562.123 930.755,-456.85"/>
<polygon fill="#89295f" stroke="#89295f" points="997.836,-904.564 994.868,-915.121 998.577,-909.509 999.318,-914.454 999.318,-914.454 999.318,-914.454 998.577,-909.509 1003.77,-913.787 997.836,-904.564 997.836,-904.564"/>
<polygon fill="#89295f" stroke="#89295f" points="930.719,-456.612 933.688,-446.056 929.978,-451.668 929.237,-446.723 929.237,-446.723 929.237,-446.723 929.978,-451.668 924.787,-447.39 930.719,-456.612 930.719,-456.612"/>
</g>
<!-- ActsAsTaggableOn::Tagging -->
<g id="node13" class="node"><title>ActsAsTaggableOn::Tagging</title>
<ellipse fill="none" stroke="black" cx="1252.86" cy="-701.5" rx="113.006" ry="18"/>
<text text-anchor="middle" x="1252.86" y="-697.3" font-family="Times,serif" font-size="14.00">ActsAsTaggableOn::Tagging</text>
</g>
<!-- Product&#45;&gt;ActsAsTaggableOn::Tagging -->
<g id="edge8" class="edge"><title>Product&#45;&gt;ActsAsTaggableOn::Tagging</title>
<path fill="none" stroke="#cab8e1" d="M1113.92,-908.665C1118.06,-904.488 1122.06,-900.257 1125.86,-896 1174.37,-841.724 1217.82,-767.372 1239.08,-728.533"/>
<ellipse fill="none" stroke="#cab8e1" cx="1111.05" cy="-911.511" rx="4.00002" ry="4.00002"/>
<polygon fill="#cab8e1" stroke="#cab8e1" points="1239.23,-728.251 1247.95,-721.602 1241.61,-723.854 1244,-719.458 1244,-719.458 1244,-719.458 1241.61,-723.854 1240.04,-717.314 1239.23,-728.251 1239.23,-728.251"/>
<text text-anchor="middle" x="1158.58" y="-884.8" font-family="Times,serif" font-size="14.00">taggings</text>
</g>
<!-- Product&#45;&gt;ActsAsTaggableOn::Tagging -->
<g id="edge10" class="edge"><title>Product&#45;&gt;ActsAsTaggableOn::Tagging</title>
<path fill="none" stroke="#5fe958" d="M1141.86,-934.541C1158.17,-923.487 1173.44,-910.68 1185.86,-896 1227.6,-846.675 1243.85,-769.849 1249.76,-729.438"/>
<ellipse fill="none" stroke="#5fe958" cx="1138.16" cy="-936.975" rx="4.00002" ry="4.00002"/>
<polygon fill="#5fe958" stroke="#5fe958" points="1249.76,-729.431 1255.56,-720.128 1250.43,-724.477 1251.11,-719.522 1251.11,-719.522 1251.11,-719.522 1250.43,-724.477 1246.65,-718.916 1249.76,-729.431 1249.76,-729.431"/>
<text text-anchor="middle" x="1231.63" y="-884.8" font-family="Times,serif" font-size="14.00">tag_taggings</text>
</g>
<!-- ActsAsTaggableOn::Tag -->
<g id="node14" class="node"><title>ActsAsTaggableOn::Tag</title>
<ellipse fill="none" stroke="black" cx="1480.86" cy="-701.5" rx="97.0617" ry="18"/>
<text text-anchor="middle" x="1480.86" y="-697.3" font-family="Times,serif" font-size="14.00">ActsAsTaggableOn::Tag</text>
</g>
<!-- Product&#45;&gt;ActsAsTaggableOn::Tag -->
<g id="edge9" class="edge"><title>Product&#45;&gt;ActsAsTaggableOn::Tag</title>
<path fill="none" stroke="#97de86" d="M1144.71,-966.704C1218.37,-947.941 1308.09,-916.191 1374.86,-864 1421.6,-827.469 1454.35,-764.325 1470.14,-728.78"/>
<polygon fill="#97de86" stroke="#97de86" points="1144.59,-966.733 1133.8,-964.787 1139.74,-967.944 1134.89,-969.154 1134.89,-969.154 1134.89,-969.154 1139.74,-967.944 1135.98,-973.52 1144.59,-966.733 1144.59,-966.733"/>
<polygon fill="#97de86" stroke="#97de86" points="1470.17,-728.71 1478.27,-721.318 1472.15,-724.121 1474.14,-719.532 1474.14,-719.532 1474.14,-719.532 1472.15,-724.121 1470.01,-717.746 1470.17,-728.71 1470.17,-728.71"/>
<text text-anchor="middle" x="1376.08" y="-884.8" font-family="Times,serif" font-size="14.00">base_tags</text>
</g>
<!-- Product&#45;&gt;ActsAsTaggableOn::Tag -->
<g id="edge11" class="edge"><title>Product&#45;&gt;ActsAsTaggableOn::Tag</title>
<path fill="none" stroke="#729dfd" d="M1144.94,-972.791C1243.94,-956.522 1367.96,-930.193 1406.86,-896 1456.44,-852.422 1472.96,-771.879 1478.35,-729.767"/>
<polygon fill="#729dfd" stroke="#729dfd" points="1144.7,-972.83 1134.11,-969.99 1139.77,-973.631 1134.83,-974.432 1134.83,-974.432 1134.83,-974.432 1139.77,-973.631 1135.55,-978.874 1144.7,-972.83 1144.7,-972.83"/>
<polygon fill="#729dfd" stroke="#729dfd" points="1478.36,-729.627 1483.99,-720.211 1478.94,-724.66 1479.52,-719.693 1479.52,-719.693 1479.52,-719.693 1478.94,-724.66 1475.05,-719.175 1478.36,-729.627 1478.36,-729.627"/>
<text text-anchor="middle" x="1429.14" y="-884.8" font-family="Times,serif" font-size="14.00">tags</text>
</g>
<!-- Store&#45;&gt;Comment -->
<g id="edge13" class="edge"><title>Store&#45;&gt;Comment</title>
<path fill="none" stroke="#041b28" d="M391.52,-311.604C372.935,-301.729 353.725,-292.514 334.862,-285 304.522,-272.914 292.459,-277.737 257.652,-266.978"/>
<ellipse fill="none" stroke="#041b28" cx="395.363" cy="-313.672" rx="4.00002" ry="4.00002"/>
<polygon fill="#041b28" stroke="#041b28" points="257.24,-266.842 249.162,-259.426 252.493,-265.27 247.747,-263.697 247.747,-263.697 247.747,-263.697 252.493,-265.27 246.332,-267.969 257.24,-266.842 257.24,-266.842"/>
</g>
<!-- Store&#45;&gt;Like -->
<g id="edge14" class="edge"><title>Store&#45;&gt;Like</title>
<path fill="none" stroke="#46dc8f" d="M590.741,-297.509C597.678,-287.495 604.595,-277.51 611.19,-267.99"/>
<ellipse fill="none" stroke="#46dc8f" cx="588.329" cy="-300.991" rx="4.00002" ry="4.00002"/>
<polygon fill="#46dc8f" stroke="#46dc8f" points="611.2,-267.974 620.594,-262.316 614.048,-263.864 616.895,-259.754 616.895,-259.754 616.895,-259.754 614.048,-263.864 613.196,-257.191 611.2,-267.974 611.2,-267.974"/>
</g>
<!-- Store&#45;&gt;MetroStore -->
<g id="edge16" class="edge"><title>Store&#45;&gt;MetroStore</title>
<path fill="none" stroke="#f8278e" d="M455.045,-297.598C446.353,-285.051 437.692,-272.547 429.655,-260.945"/>
<ellipse fill="none" stroke="#f8278e" cx="457.395" cy="-300.991" rx="4.00002" ry="4.00002"/>
<polygon fill="#f8278e" stroke="#f8278e" points="429.616,-260.889 427.621,-250.106 426.769,-256.778 423.922,-252.668 423.922,-252.668 423.922,-252.668 426.769,-256.778 420.222,-255.231 429.616,-260.889 429.616,-260.889"/>
</g>
<!-- Store&#45;&gt;Product -->
<g id="edge12" class="edge"><title>Store&#45;&gt;Product</title>
<path fill="none" stroke="#de3d04" d="M391.385,-429.894C334.797,-451.062 274.103,-485.13 240.862,-539 165.01,-661.926 142.802,-757.941 240.862,-864 287.318,-914.245 773.064,-894.404 876.673,-914.527"/>
<ellipse fill="none" stroke="#de3d04" cx="395.223" cy="-428.493" rx="4.00001" ry="4.00001"/>
<polygon fill="#de3d04" stroke="#de3d04" points="876.955,-914.596 885.605,-921.336 881.813,-915.78 886.67,-916.964 886.67,-916.964 886.67,-916.964 881.813,-915.78 887.736,-912.592 876.955,-914.596 876.955,-914.596"/>
</g>
<!-- Store&#45;&gt;User -->
<g id="edge15" class="edge"><title>Store&#45;&gt;User</title>
<path fill="none" stroke="#62f912" d="M573.132,-497.709C578.433,-508.275 583.923,-519.219 589.48,-530.298"/>
<polygon fill="#62f912" stroke="#62f912" points="573.01,-497.465 572.548,-486.509 570.768,-492.996 568.526,-488.527 568.526,-488.527 568.526,-488.527 570.768,-492.996 564.504,-490.545 573.01,-497.465 573.01,-497.465"/>
<polygon fill="#62f912" stroke="#62f912" points="589.483,-530.303 589.945,-541.259 591.725,-534.772 593.967,-539.241 593.967,-539.241 593.967,-539.241 591.725,-534.772 597.989,-537.224 589.483,-530.303 589.483,-530.303"/>
<text text-anchor="middle" x="609.245" y="-509.8" font-family="Times,serif" font-size="14.00">user_likes</text>
</g>
<!-- User&#45;&gt;Comment -->
<g id="edge19" class="edge"><title>User&#45;&gt;Comment</title>
<path fill="none" stroke="#261f18" d="M508.427,-540.042C507.906,-539.693 507.384,-539.345 506.862,-539 459.709,-507.784 436.138,-521.502 389.862,-489 304.401,-428.976 225.41,-337.716 176.085,-274.604"/>
<ellipse fill="none" stroke="#261f18" cx="511.893" cy="-542.411" rx="4.00002" ry="4.00002"/>
<polygon fill="#261f18" stroke="#261f18" points="176.054,-274.564 173.476,-263.905 172.988,-270.614 169.921,-266.665 169.921,-266.665 169.921,-266.665 172.988,-270.614 166.367,-269.425 176.054,-274.564 176.054,-274.564"/>
</g>
<!-- User&#45;&gt;Like -->
<g id="edge18" class="edge"><title>User&#45;&gt;Like</title>
<path fill="none" stroke="#83f839" d="M668.393,-531.269C664.966,-441.625 660.951,-336.608 658.407,-270.074"/>
<ellipse fill="none" stroke="#83f839" cx="668.554" cy="-535.485" rx="4" ry="4"/>
<polygon fill="#83f839" stroke="#83f839" points="658.394,-269.727 662.509,-259.563 658.203,-264.731 658.012,-259.735 658.012,-259.735 658.012,-259.735 658.203,-264.731 653.515,-259.907 658.394,-269.727 658.394,-269.727"/>
</g>
<!-- User&#45;&gt;Product -->
<g id="edge22" class="edge"><title>User&#45;&gt;Product</title>
<path fill="none" stroke="#4e5ac3" d="M747.544,-871.552C755.497,-880.636 764.247,-888.921 773.862,-896 809.277,-922.074 830.959,-900.962 877.312,-914.33"/>
<polygon fill="#4e5ac3" stroke="#4e5ac3" points="747.443,-871.43 744.51,-860.864 744.247,-867.586 741.05,-863.741 741.05,-863.741 741.05,-863.741 744.247,-867.586 737.59,-866.618 747.443,-871.43 747.443,-871.43"/>
<polygon fill="#4e5ac3" stroke="#4e5ac3" points="877.423,-914.366 885.519,-921.763 882.173,-915.927 886.923,-917.488 886.923,-917.488 886.923,-917.488 882.173,-915.927 888.328,-913.212 877.423,-914.366 877.423,-914.366"/>
</g>
<!-- User&#45;&gt;Store -->
<g id="edge17" class="edge"><title>User&#45;&gt;Store</title>
<path fill="none" stroke="#145c28" d="M582.396,-532.162C580.519,-528.415 578.672,-524.691 576.862,-521 572.917,-512.956 568.945,-504.556 565.041,-496.086"/>
<ellipse fill="none" stroke="#145c28" cx="584.239" cy="-535.821" rx="4.00002" ry="4.00002"/>
<ellipse fill="#145c28" stroke="#145c28" cx="563.294" cy="-492.27" rx="4.00002" ry="4.00002"/>
</g>
<!-- UserWishlist -->
<g id="node11" class="node"><title>UserWishlist</title>
<path fill="none" stroke="black" d="M848,-152.5C848,-152.5 1071.72,-152.5 1071.72,-152.5 1077.72,-152.5 1083.72,-158.5 1083.72,-164.5 1083.72,-164.5 1083.72,-240.5 1083.72,-240.5 1083.72,-246.5 1077.72,-252.5 1071.72,-252.5 1071.72,-252.5 848,-252.5 848,-252.5 842,-252.5 836,-246.5 836,-240.5 836,-240.5 836,-164.5 836,-164.5 836,-158.5 842,-152.5 848,-152.5"/>
<text text-anchor="middle" x="959.862" y="-237.3" font-family="Times,serif" font-size="14.00">UserWishlist</text>
<polyline fill="none" stroke="black" points="836,-230.5 1083.72,-230.5 "/>
<text text-anchor="start" x="844" y="-215.3" font-family="Times,serif" font-size="14.00">id :integer</text>
<text text-anchor="start" x="844" y="-201.3" font-family="Times,serif" font-size="14.00">user_id :integer</text>
<text text-anchor="start" x="844" y="-187.3" font-family="Times,serif" font-size="14.00">wishlist_id :integer</text>
<text text-anchor="start" x="844" y="-173.3" font-family="Times,serif" font-size="14.00">created_at :timestamp without time zone</text>
<text text-anchor="start" x="844" y="-159.3" font-family="Times,serif" font-size="14.00">updated_at :timestamp without time zone</text>
</g>
<!-- User&#45;&gt;UserWishlist -->
<g id="edge20" class="edge"><title>User&#45;&gt;UserWishlist</title>
<path fill="none" stroke="#34a03e" d="M694.647,-531.022C710.337,-455.432 738.46,-368.982 788.862,-304 802.651,-286.223 820.538,-270.975 839.535,-258.121"/>
<ellipse fill="none" stroke="#34a03e" cx="693.776" cy="-535.32" rx="4.00001" ry="4.00001"/>
<polygon fill="#34a03e" stroke="#34a03e" points="839.659,-258.04 850.492,-256.34 843.845,-255.306 848.032,-252.572 848.032,-252.572 848.032,-252.572 843.845,-255.306 845.571,-248.804 839.659,-258.04 839.659,-258.04"/>
</g>
<!-- User&#45;&gt;Wishlist -->
<g id="edge21" class="edge"><title>User&#45;&gt;Wishlist</title>
<path fill="none" stroke="#7ecacd" d="M812.759,-531.34C835.271,-503.724 857.136,-476.901 875.307,-454.61"/>
<polygon fill="#7ecacd" stroke="#7ecacd" points="812.636,-531.49 802.829,-536.398 809.477,-535.366 806.317,-539.241 806.317,-539.241 806.317,-539.241 809.477,-535.366 809.805,-542.085 812.636,-531.49 812.636,-531.49"/>
<polygon fill="#7ecacd" stroke="#7ecacd" points="875.51,-454.361 885.317,-449.453 878.67,-450.485 881.829,-446.61 881.829,-446.61 881.829,-446.61 878.67,-450.485 878.341,-443.767 875.51,-454.361 875.51,-454.361"/>
</g>
<!-- UserWishlist&#45;&gt;Product -->
<g id="edge24" class="edge"><title>UserWishlist&#45;&gt;Product</title>
<path fill="none" stroke="#dd01ad" d="M1027.1,-260.251C1038.43,-273.354 1048.56,-288.149 1054.86,-304 1135.63,-507.011 1078.72,-770.37 1039.5,-904.575"/>
<polygon fill="#dd01ad" stroke="#dd01ad" points="1027.01,-260.154 1023.64,-249.718 1023.65,-256.445 1020.3,-252.737 1020.3,-252.737 1020.3,-252.737 1023.65,-256.445 1016.96,-255.755 1027.01,-260.154 1027.01,-260.154"/>
<polygon fill="#dd01ad" stroke="#dd01ad" points="1039.43,-904.816 1032.27,-913.128 1038.01,-909.61 1036.59,-914.405 1036.59,-914.405 1036.59,-914.405 1038.01,-909.61 1040.9,-915.682 1039.43,-904.816 1039.43,-904.816"/>
</g>
<!-- UserWishlist&#45;&gt;ProductWishlist -->
<g id="edge23" class="edge"><title>UserWishlist&#45;&gt;ProductWishlist</title>
<path fill="none" stroke="#a0342a" d="M959.862,-144.088C959.862,-133.253 959.862,-121.899 959.862,-111.002"/>
<ellipse fill="none" stroke="#a0342a" cx="959.862" cy="-148.384" rx="4" ry="4"/>
<polygon fill="#a0342a" stroke="#a0342a" points="959.862,-110.726 964.362,-100.726 959.862,-105.726 959.862,-100.726 959.862,-100.726 959.862,-100.726 959.862,-105.726 955.362,-100.726 959.862,-110.726 959.862,-110.726"/>
</g>
<!-- Wishlist&#45;&gt;ProductWishlist -->
<g id="edge26" class="edge"><title>Wishlist&#45;&gt;ProductWishlist</title>
<path fill="none" stroke="#2dc8ce" d="M868.768,-339.948C851.986,-318.793 835.557,-293.387 826.862,-267 808.919,-212.547 799.522,-188.395 826.862,-138 833.09,-126.521 841.573,-116.326 851.263,-107.335"/>
<ellipse fill="none" stroke="#2dc8ce" cx="871.46" cy="-343.266" rx="4.00002" ry="4.00002"/>
<polygon fill="#2dc8ce" stroke="#2dc8ce" points="851.349,-107.26 861.845,-104.085 855.12,-103.976 858.89,-100.692 858.89,-100.692 858.89,-100.692 855.12,-103.976 855.935,-97.2985 851.349,-107.26 851.349,-107.26"/>
</g>
<!-- Wishlist&#45;&gt;UserWishlist -->
<g id="edge25" class="edge"><title>Wishlist&#45;&gt;UserWishlist</title>
<path fill="none" stroke="#7673ad" d="M933.21,-338.162C937.917,-314.381 943.376,-286.8 948.123,-262.815"/>
<ellipse fill="none" stroke="#7673ad" cx="932.425" cy="-342.131" rx="4.00001" ry="4.00001"/>
<polygon fill="#7673ad" stroke="#7673ad" points="948.168,-262.587 954.524,-253.651 949.139,-257.682 950.11,-252.777 950.11,-252.777 950.11,-252.777 949.139,-257.682 945.695,-251.904 948.168,-262.587 948.168,-262.587"/>
</g>
</g>
</svg>
