<?xml version="1.0" encoding="UTF-8" standalone="no"?>
<!DOCTYPE svg PUBLIC "-//W3C//DTD SVG 1.1//EN"
 "http://www.w3.org/Graphics/SVG/1.1/DTD/svg11.dtd">
<!-- Generated by graphviz version 2.38.0 (20140413.2041)
 -->
<!-- Title: models_diagram Pages: 1 -->
<svg width="1238pt" height="1425pt"
 viewBox="0.00 0.00 1238.02 1425.00" xmlns="http://www.w3.org/2000/svg" xmlns:xlink="http://www.w3.org/1999/xlink">
<g id="graph0" class="graph" transform="scale(1 1) rotate(0) translate(4 1421)">
<title>models_diagram</title>
<polygon fill="none" stroke="none" points="-4,4 -4,-1421 1234.02,-1421 1234.02,4 -4,4"/>
<!-- _diagram_info -->
<g id="node1" class="node"><title>_diagram_info</title>
<text text-anchor="start" x="411.413" y="-1395.6" font-family="Times,serif" font-size="13.00">Models diagram</text>
<text text-anchor="start" x="411.413" y="-1382.6" font-family="Times,serif" font-size="13.00">Date: May 23 2016 &#45; 23:04</text>
<text text-anchor="start" x="411.413" y="-1369.6" font-family="Times,serif" font-size="13.00">Migration version: 20160523230110</text>
<text text-anchor="start" x="411.413" y="-1356.6" font-family="Times,serif" font-size="13.00">Generated by RailRoady 1.4.2</text>
<text text-anchor="start" x="411.413" y="-1343.6" font-family="Times,serif" font-size="13.00">http://railroady.prestonlee.com</text>
</g>
<!-- Ability -->
<g id="node2" class="node"><title>Ability</title>
<polygon fill="none" stroke="black" points="628.028,-1351.5 628.028,-1395.5 683.697,-1395.5 683.697,-1351.5 628.028,-1351.5"/>
<text text-anchor="middle" x="655.862" y="-1380.3" font-family="Times,serif" font-size="14.00">Ability</text>
<polyline fill="none" stroke="black" points="628.028,-1373.5 683.697,-1373.5 "/>
<text text-anchor="middle" x="655.862" y="-1358.3" font-family="Times,serif" font-size="14.00"> </text>
</g>
<!-- Comment -->
<g id="node3" class="node"><title>Comment</title>
<path fill="none" stroke="black" d="M278,-152.5C278,-152.5 501.725,-152.5 501.725,-152.5 507.725,-152.5 513.725,-158.5 513.725,-164.5 513.725,-164.5 513.725,-268.5 513.725,-268.5 513.725,-274.5 507.725,-280.5 501.725,-280.5 501.725,-280.5 278,-280.5 278,-280.5 272,-280.5 266,-274.5 266,-268.5 266,-268.5 266,-164.5 266,-164.5 266,-158.5 272,-152.5 278,-152.5"/>
<text text-anchor="middle" x="389.862" y="-265.3" font-family="Times,serif" font-size="14.00">Comment</text>
<polyline fill="none" stroke="black" points="266,-258.5 513.725,-258.5 "/>
<text text-anchor="start" x="274" y="-243.3" font-family="Times,serif" font-size="14.00">content :text</text>
<text text-anchor="start" x="274" y="-229.3" font-family="Times,serif" font-size="14.00">commentable_id :integer</text>
<text text-anchor="start" x="274" y="-215.3" font-family="Times,serif" font-size="14.00">commentable_type :character varying</text>
<text text-anchor="start" x="274" y="-201.3" font-family="Times,serif" font-size="14.00">id :integer</text>
<text text-anchor="start" x="274" y="-187.3" font-family="Times,serif" font-size="14.00">user_id :integer</text>
<text text-anchor="start" x="274" y="-173.3" font-family="Times,serif" font-size="14.00">created_at :timestamp without time zone</text>
<text text-anchor="start" x="274" y="-159.3" font-family="Times,serif" font-size="14.00">updated_at :timestamp without time zone</text>
</g>
<!-- Like -->
<g id="node4" class="node"><title>Like</title>
<path fill="none" stroke="black" d="M544,-159.5C544,-159.5 767.725,-159.5 767.725,-159.5 773.725,-159.5 779.725,-165.5 779.725,-171.5 779.725,-171.5 779.725,-261.5 779.725,-261.5 779.725,-267.5 773.725,-273.5 767.725,-273.5 767.725,-273.5 544,-273.5 544,-273.5 538,-273.5 532,-267.5 532,-261.5 532,-261.5 532,-171.5 532,-171.5 532,-165.5 538,-159.5 544,-159.5"/>
<text text-anchor="middle" x="655.862" y="-258.3" font-family="Times,serif" font-size="14.00">Like</text>
<polyline fill="none" stroke="black" points="532,-251.5 779.725,-251.5 "/>
<text text-anchor="start" x="540" y="-236.3" font-family="Times,serif" font-size="14.00">id :integer</text>
<text text-anchor="start" x="540" y="-222.3" font-family="Times,serif" font-size="14.00">likeable_id :integer</text>
<text text-anchor="start" x="540" y="-208.3" font-family="Times,serif" font-size="14.00">likeable_type :character varying</text>
<text text-anchor="start" x="540" y="-194.3" font-family="Times,serif" font-size="14.00">user_id :integer</text>
<text text-anchor="start" x="540" y="-180.3" font-family="Times,serif" font-size="14.00">created_at :timestamp without time zone</text>
<text text-anchor="start" x="540" y="-166.3" font-family="Times,serif" font-size="14.00">updated_at :timestamp without time zone</text>
</g>
<!-- Line -->
<g id="node5" class="node"><title>Line</title>
<path fill="none" stroke="black" d="M714,-1330.5C714,-1330.5 937.725,-1330.5 937.725,-1330.5 943.725,-1330.5 949.725,-1336.5 949.725,-1342.5 949.725,-1342.5 949.725,-1404.5 949.725,-1404.5 949.725,-1410.5 943.725,-1416.5 937.725,-1416.5 937.725,-1416.5 714,-1416.5 714,-1416.5 708,-1416.5 702,-1410.5 702,-1404.5 702,-1404.5 702,-1342.5 702,-1342.5 702,-1336.5 708,-1330.5 714,-1330.5"/>
<text text-anchor="middle" x="825.862" y="-1401.3" font-family="Times,serif" font-size="14.00">Line</text>
<polyline fill="none" stroke="black" points="702,-1394.5 949.725,-1394.5 "/>
<text text-anchor="start" x="710" y="-1379.3" font-family="Times,serif" font-size="14.00">id :integer</text>
<text text-anchor="start" x="710" y="-1365.3" font-family="Times,serif" font-size="14.00">name :character varying</text>
<text text-anchor="start" x="710" y="-1351.3" font-family="Times,serif" font-size="14.00">created_at :timestamp without time zone</text>
<text text-anchor="start" x="710" y="-1337.3" font-family="Times,serif" font-size="14.00">updated_at :timestamp without time zone</text>
</g>
<!-- Station -->
<g id="node8" class="node"><title>Station</title>
<path fill="none" stroke="black" d="M563,-1164.5C563,-1164.5 786.725,-1164.5 786.725,-1164.5 792.725,-1164.5 798.725,-1170.5 798.725,-1176.5 798.725,-1176.5 798.725,-1280.5 798.725,-1280.5 798.725,-1286.5 792.725,-1292.5 786.725,-1292.5 786.725,-1292.5 563,-1292.5 563,-1292.5 557,-1292.5 551,-1286.5 551,-1280.5 551,-1280.5 551,-1176.5 551,-1176.5 551,-1170.5 557,-1164.5 563,-1164.5"/>
<text text-anchor="middle" x="674.862" y="-1277.3" font-family="Times,serif" font-size="14.00">Station</text>
<polyline fill="none" stroke="black" points="551,-1270.5 798.725,-1270.5 "/>
<text text-anchor="start" x="559" y="-1255.3" font-family="Times,serif" font-size="14.00">longitude :double precision</text>
<text text-anchor="start" x="559" y="-1241.3" font-family="Times,serif" font-size="14.00">name :character varying</text>
<text text-anchor="start" x="559" y="-1227.3" font-family="Times,serif" font-size="14.00">latitude :double precision</text>
<text text-anchor="start" x="559" y="-1213.3" font-family="Times,serif" font-size="14.00">id :integer</text>
<text text-anchor="start" x="559" y="-1199.3" font-family="Times,serif" font-size="14.00">created_at :timestamp without time zone</text>
<text text-anchor="start" x="559" y="-1185.3" font-family="Times,serif" font-size="14.00">updated_at :timestamp without time zone</text>
<text text-anchor="start" x="559" y="-1171.3" font-family="Times,serif" font-size="14.00">address :character varying</text>
</g>
<!-- Line&#45;&gt;Station -->
<g id="edge2" class="edge"><title>Line&#45;&gt;Station</title>
<path fill="none" stroke="#1fb723" d="M773.889,-1323.28C765.799,-1315.62 757.309,-1307.58 748.844,-1299.56"/>
<polygon fill="#1fb723" stroke="#1fb723" points="774.113,-1323.49 778.28,-1333.64 777.744,-1326.93 781.374,-1330.37 781.374,-1330.37 781.374,-1330.37 777.744,-1326.93 784.468,-1327.1 774.113,-1323.49 774.113,-1323.49"/>
<polygon fill="#1fb723" stroke="#1fb723" points="748.684,-1299.41 744.517,-1289.27 745.053,-1295.97 741.423,-1292.53 741.423,-1292.53 741.423,-1292.53 745.053,-1295.97 738.328,-1295.8 748.684,-1299.41 748.684,-1299.41"/>
</g>
<!-- StationLine -->
<g id="node9" class="node"><title>StationLine</title>
<path fill="none" stroke="black" d="M829,-998.5C829,-998.5 1052.72,-998.5 1052.72,-998.5 1058.72,-998.5 1064.72,-1004.5 1064.72,-1010.5 1064.72,-1010.5 1064.72,-1086.5 1064.72,-1086.5 1064.72,-1092.5 1058.72,-1098.5 1052.72,-1098.5 1052.72,-1098.5 829,-1098.5 829,-1098.5 823,-1098.5 817,-1092.5 817,-1086.5 817,-1086.5 817,-1010.5 817,-1010.5 817,-1004.5 823,-998.5 829,-998.5"/>
<text text-anchor="middle" x="940.862" y="-1083.3" font-family="Times,serif" font-size="14.00">StationLine</text>
<polyline fill="none" stroke="black" points="817,-1076.5 1064.72,-1076.5 "/>
<text text-anchor="start" x="825" y="-1061.3" font-family="Times,serif" font-size="14.00">id :integer</text>
<text text-anchor="start" x="825" y="-1047.3" font-family="Times,serif" font-size="14.00">station_id :integer</text>
<text text-anchor="start" x="825" y="-1033.3" font-family="Times,serif" font-size="14.00">line_id :integer</text>
<text text-anchor="start" x="825" y="-1019.3" font-family="Times,serif" font-size="14.00">created_at :timestamp without time zone</text>
<text text-anchor="start" x="825" y="-1005.3" font-family="Times,serif" font-size="14.00">updated_at :timestamp without time zone</text>
</g>
<!-- Line&#45;&gt;StationLine -->
<g id="edge1" class="edge"><title>Line&#45;&gt;StationLine</title>
<path fill="none" stroke="#23f996" d="M843.597,-1322.69C864.193,-1264.84 898.127,-1169.53 919.979,-1108.15"/>
<ellipse fill="none" stroke="#23f996" cx="842.238" cy="-1326.51" rx="4.00001" ry="4.00001"/>
<polygon fill="#23f996" stroke="#23f996" points="920.025,-1108.03 927.618,-1100.12 921.702,-1103.32 923.379,-1098.61 923.379,-1098.61 923.379,-1098.61 921.702,-1103.32 919.139,-1097.1 920.025,-1108.03 920.025,-1108.03"/>
</g>
<!-- Product -->
<g id="node6" class="node"><title>Product</title>
<path fill="none" stroke="black" d="M563,-970.5C563,-970.5 786.725,-970.5 786.725,-970.5 792.725,-970.5 798.725,-976.5 798.725,-982.5 798.725,-982.5 798.725,-1114.5 798.725,-1114.5 798.725,-1120.5 792.725,-1126.5 786.725,-1126.5 786.725,-1126.5 563,-1126.5 563,-1126.5 557,-1126.5 551,-1120.5 551,-1114.5 551,-1114.5 551,-982.5 551,-982.5 551,-976.5 557,-970.5 563,-970.5"/>
<text text-anchor="middle" x="674.862" y="-1111.3" font-family="Times,serif" font-size="14.00">Product</text>
<polyline fill="none" stroke="black" points="551,-1104.5 798.725,-1104.5 "/>
<text text-anchor="start" x="559" y="-1089.3" font-family="Times,serif" font-size="14.00">updated_at :timestamp without time zone</text>
<text text-anchor="start" x="559" y="-1075.3" font-family="Times,serif" font-size="14.00">name :character varying</text>
<text text-anchor="start" x="559" y="-1061.3" font-family="Times,serif" font-size="14.00">description :text</text>
<text text-anchor="start" x="559" y="-1047.3" font-family="Times,serif" font-size="14.00">photo :character varying</text>
<text text-anchor="start" x="559" y="-1033.3" font-family="Times,serif" font-size="14.00">price :integer</text>
<text text-anchor="start" x="559" y="-1019.3" font-family="Times,serif" font-size="14.00">stock :integer</text>
<text text-anchor="start" x="559" y="-1005.3" font-family="Times,serif" font-size="14.00">store_id :integer</text>
<text text-anchor="start" x="559" y="-991.3" font-family="Times,serif" font-size="14.00">created_at :timestamp without time zone</text>
<text text-anchor="start" x="559" y="-977.3" font-family="Times,serif" font-size="14.00">id :integer</text>
</g>
<!-- Product&#45;&gt;Comment -->
<g id="edge3" class="edge"><title>Product&#45;&gt;Comment</title>
<path fill="none" stroke="#fb9b3d" d="M542.757,-1026.81C433.669,-1006.31 292.695,-970.623 266.862,-920 145.233,-681.647 137.622,-557.557 256.862,-318 262.253,-307.171 269.428,-297.199 277.662,-288.093"/>
<ellipse fill="none" stroke="#fb9b3d" cx="546.952" cy="-1027.59" rx="4.00001" ry="4.00001"/>
<polygon fill="#fb9b3d" stroke="#fb9b3d" points="277.885,-287.86 288.058,-283.764 281.349,-284.254 284.812,-280.647 284.812,-280.647 284.812,-280.647 281.349,-284.254 281.566,-277.531 277.885,-287.86 277.885,-287.86"/>
</g>
<!-- Product&#45;&gt;Like -->
<g id="edge4" class="edge"><title>Product&#45;&gt;Like</title>
<path fill="none" stroke="#c02f1c" d="M672.143,-962.241C672.046,-958.782 671.952,-955.358 671.862,-952 665.308,-705.581 659.531,-412.605 657.093,-283.812"/>
<ellipse fill="none" stroke="#c02f1c" cx="672.261" cy="-966.362" rx="4" ry="4"/>
<polygon fill="#c02f1c" stroke="#c02f1c" points="657.091,-283.713 661.402,-273.629 656.997,-278.713 656.902,-273.714 656.902,-273.714 656.902,-273.714 656.997,-278.713 652.403,-273.799 657.091,-283.713 657.091,-283.713"/>
</g>
<!-- ProductWishlist -->
<g id="node7" class="node"><title>ProductWishlist</title>
<path fill="none" stroke="black" d="M848,-0.5C848,-0.5 1071.72,-0.5 1071.72,-0.5 1077.72,-0.5 1083.72,-6.5 1083.72,-12.5 1083.72,-12.5 1083.72,-102.5 1083.72,-102.5 1083.72,-108.5 1077.72,-114.5 1071.72,-114.5 1071.72,-114.5 848,-114.5 848,-114.5 842,-114.5 836,-108.5 836,-102.5 836,-102.5 836,-12.5 836,-12.5 836,-6.5 842,-0.5 848,-0.5"/>
<text text-anchor="middle" x="959.862" y="-99.3" font-family="Times,serif" font-size="14.00">ProductWishlist</text>
<polyline fill="none" stroke="black" points="836,-92.5 1083.72,-92.5 "/>
<text text-anchor="start" x="844" y="-77.3" font-family="Times,serif" font-size="14.00">id :integer</text>
<text text-anchor="start" x="844" y="-63.3" font-family="Times,serif" font-size="14.00">user_wishlist_id :integer</text>
<text text-anchor="start" x="844" y="-49.3" font-family="Times,serif" font-size="14.00">product_id :integer</text>
<text text-anchor="start" x="844" y="-35.3" font-family="Times,serif" font-size="14.00">created_at :timestamp without time zone</text>
<text text-anchor="start" x="844" y="-21.3" font-family="Times,serif" font-size="14.00">updated_at :timestamp without time zone</text>
<text text-anchor="start" x="844" y="-7.3" font-family="Times,serif" font-size="14.00">wishlist_id :integer</text>
</g>
<!-- Product&#45;&gt;ProductWishlist -->
<g id="edge6" class="edge"><title>Product&#45;&gt;ProductWishlist</title>
<path fill="none" stroke="#56df11" d="M806.758,-970.335C807.126,-970.222 807.494,-970.11 807.862,-970 891.346,-944.969 1145.8,-990.631 1196.86,-920 1244.98,-853.443 1225.86,-819.629 1225.86,-737.5 1225.86,-737.5 1225.86,-737.5 1225.86,-215.5 1225.86,-147.139 1159.9,-107.93 1093.67,-85.7903"/>
<ellipse fill="none" stroke="#56df11" cx="802.826" cy="-971.624" rx="4.00001" ry="4.00001"/>
<polygon fill="#56df11" stroke="#56df11" points="1093.43,-85.7109 1085.29,-78.3628 1088.67,-84.1786 1083.91,-82.6463 1083.91,-82.6463 1083.91,-82.6463 1088.67,-84.1786 1082.53,-86.9298 1093.43,-85.7109 1093.43,-85.7109"/>
</g>
<!-- User -->
<g id="node12" class="node"><title>User</title>
<path fill="none" stroke="black" d="M320.228,-553.5C320.228,-553.5 615.497,-553.5 615.497,-553.5 621.497,-553.5 627.497,-559.5 627.497,-565.5 627.497,-565.5 627.497,-907.5 627.497,-907.5 627.497,-913.5 621.497,-919.5 615.497,-919.5 615.497,-919.5 320.228,-919.5 320.228,-919.5 314.228,-919.5 308.228,-913.5 308.228,-907.5 308.228,-907.5 308.228,-565.5 308.228,-565.5 308.228,-559.5 314.228,-553.5 320.228,-553.5"/>
<text text-anchor="middle" x="467.862" y="-904.3" font-family="Times,serif" font-size="14.00">User</text>
<polyline fill="none" stroke="black" points="308.228,-897.5 627.497,-897.5 "/>
<text text-anchor="start" x="316.228" y="-882.3" font-family="Times,serif" font-size="14.00">address :character varying</text>
<text text-anchor="start" x="316.228" y="-868.3" font-family="Times,serif" font-size="14.00">email :character varying</text>
<text text-anchor="start" x="316.228" y="-854.3" font-family="Times,serif" font-size="14.00">encrypted_password :character varying</text>
<text text-anchor="start" x="316.228" y="-840.3" font-family="Times,serif" font-size="14.00">reset_password_token :character varying</text>
<text text-anchor="start" x="316.228" y="-826.3" font-family="Times,serif" font-size="14.00">reset_password_sent_at :timestamp without time zone</text>
<text text-anchor="start" x="316.228" y="-812.3" font-family="Times,serif" font-size="14.00">remember_created_at :timestamp without time zone</text>
<text text-anchor="start" x="316.228" y="-798.3" font-family="Times,serif" font-size="14.00">sign_in_count :integer</text>
<text text-anchor="start" x="316.228" y="-784.3" font-family="Times,serif" font-size="14.00">current_sign_in_at :timestamp without time zone</text>
<text text-anchor="start" x="316.228" y="-770.3" font-family="Times,serif" font-size="14.00">last_sign_in_at :timestamp without time zone</text>
<text text-anchor="start" x="316.228" y="-756.3" font-family="Times,serif" font-size="14.00">current_sign_in_ip :inet</text>
<text text-anchor="start" x="316.228" y="-742.3" font-family="Times,serif" font-size="14.00">last_sign_in_ip :inet</text>
<text text-anchor="start" x="316.228" y="-728.3" font-family="Times,serif" font-size="14.00">created_at :timestamp without time zone</text>
<text text-anchor="start" x="316.228" y="-714.3" font-family="Times,serif" font-size="14.00">updated_at :timestamp without time zone</text>
<text text-anchor="start" x="316.228" y="-700.3" font-family="Times,serif" font-size="14.00">provider :character varying</text>
<text text-anchor="start" x="316.228" y="-686.3" font-family="Times,serif" font-size="14.00">uid :character varying</text>
<text text-anchor="start" x="316.228" y="-672.3" font-family="Times,serif" font-size="14.00">name :character varying</text>
<text text-anchor="start" x="316.228" y="-658.3" font-family="Times,serif" font-size="14.00">avatar :character varying</text>
<text text-anchor="start" x="316.228" y="-644.3" font-family="Times,serif" font-size="14.00">role :integer</text>
<text text-anchor="start" x="316.228" y="-630.3" font-family="Times,serif" font-size="14.00">gender :character varying</text>
<text text-anchor="start" x="316.228" y="-616.3" font-family="Times,serif" font-size="14.00">birthday :character varying</text>
<text text-anchor="start" x="316.228" y="-602.3" font-family="Times,serif" font-size="14.00">cover_photo :character varying</text>
<text text-anchor="start" x="316.228" y="-588.3" font-family="Times,serif" font-size="14.00">latitude :double precision</text>
<text text-anchor="start" x="316.228" y="-574.3" font-family="Times,serif" font-size="14.00">longitude :double precision</text>
<text text-anchor="start" x="316.228" y="-560.3" font-family="Times,serif" font-size="14.00">id :integer</text>
</g>
<!-- Product&#45;&gt;User -->
<g id="edge5" class="edge"><title>Product&#45;&gt;User</title>
<path fill="none" stroke="#2ea733" d="M543.102,-981.852C532.591,-972.906 523.001,-962.97 515.097,-952 509.776,-944.616 505.037,-936.745 500.818,-928.541"/>
<polygon fill="#2ea733" stroke="#2ea733" points="543.146,-981.887 548.071,-991.685 547.027,-985.04 550.908,-988.192 550.908,-988.192 550.908,-988.192 547.027,-985.04 553.745,-984.699 543.146,-981.887 543.146,-981.887"/>
<polygon fill="#2ea733" stroke="#2ea733" points="500.804,-928.513 500.489,-917.551 498.622,-924.014 496.44,-919.515 496.44,-919.515 496.44,-919.515 498.622,-924.014 492.391,-921.479 500.804,-928.513 500.804,-928.513"/>
<text text-anchor="middle" x="543.245" y="-940.8" font-family="Times,serif" font-size="14.00">user_likes</text>
</g>
<!-- Wishlist -->
<g id="node14" class="node"><title>Wishlist</title>
<path fill="none" stroke="black" d="M696,-360.5C696,-360.5 919.725,-360.5 919.725,-360.5 925.725,-360.5 931.725,-366.5 931.725,-372.5 931.725,-372.5 931.725,-448.5 931.725,-448.5 931.725,-454.5 925.725,-460.5 919.725,-460.5 919.725,-460.5 696,-460.5 696,-460.5 690,-460.5 684,-454.5 684,-448.5 684,-448.5 684,-372.5 684,-372.5 684,-366.5 690,-360.5 696,-360.5"/>
<text text-anchor="middle" x="807.862" y="-445.3" font-family="Times,serif" font-size="14.00">Wishlist</text>
<polyline fill="none" stroke="black" points="684,-438.5 931.725,-438.5 "/>
<text text-anchor="start" x="692" y="-423.3" font-family="Times,serif" font-size="14.00">id :integer</text>
<text text-anchor="start" x="692" y="-409.3" font-family="Times,serif" font-size="14.00">name :character varying</text>
<text text-anchor="start" x="692" y="-395.3" font-family="Times,serif" font-size="14.00">created_at :timestamp without time zone</text>
<text text-anchor="start" x="692" y="-381.3" font-family="Times,serif" font-size="14.00">updated_at :timestamp without time zone</text>
<text text-anchor="start" x="692" y="-367.3" font-family="Times,serif" font-size="14.00">icon :character varying</text>
</g>
<!-- Product&#45;&gt;Wishlist -->
<g id="edge7" class="edge"><title>Product&#45;&gt;Wishlist</title>
<path fill="none" stroke="#30c1d8" d="M676.242,-960.391C679.067,-839.065 687.571,-625.891 712.862,-553 723.276,-522.988 741.664,-493.261 759.506,-468.859"/>
<polygon fill="#30c1d8" stroke="#30c1d8" points="676.241,-960.403 671.518,-970.3 676.129,-965.402 676.016,-970.401 676.016,-970.401 676.016,-970.401 676.129,-965.402 680.515,-970.502 676.241,-960.403 676.241,-960.403"/>
<polygon fill="#30c1d8" stroke="#30c1d8" points="759.543,-468.81 769.13,-463.487 762.533,-464.802 765.524,-460.795 765.524,-460.795 765.524,-460.795 762.533,-464.802 761.917,-458.104 759.543,-468.81 759.543,-468.81"/>
</g>
<!-- ActsAsTaggableOn::Tagging -->
<g id="node15" class="node"><title>ActsAsTaggableOn::Tagging</title>
<ellipse fill="none" stroke="black" cx="834.862" cy="-736.5" rx="113.006" ry="18"/>
<text text-anchor="middle" x="834.862" y="-732.3" font-family="Times,serif" font-size="14.00">ActsAsTaggableOn::Tagging</text>
</g>
<!-- Product&#45;&gt;ActsAsTaggableOn::Tagging -->
<g id="edge8" class="edge"><title>Product&#45;&gt;ActsAsTaggableOn::Tagging</title>
<path fill="none" stroke="#cdc3f2" d="M718.394,-963.158C752.9,-896.303 798.922,-807.134 821.383,-763.616"/>
<ellipse fill="none" stroke="#cdc3f2" cx="716.453" cy="-966.918" rx="4.00002" ry="4.00002"/>
<polygon fill="#cdc3f2" stroke="#cdc3f2" points="821.473,-763.441 830.059,-756.619 823.767,-758.998 826.06,-754.555 826.06,-754.555 826.06,-754.555 823.767,-758.998 822.061,-752.491 821.473,-763.441 821.473,-763.441"/>
<text text-anchor="middle" x="754.583" y="-940.8" font-family="Times,serif" font-size="14.00">taggings</text>
</g>
<!-- Product&#45;&gt;ActsAsTaggableOn::Tagging -->
<g id="edge10" class="edge"><title>Product&#45;&gt;ActsAsTaggableOn::Tagging</title>
<path fill="none" stroke="#e78dd7" d="M773.951,-963.857C776.781,-959.987 779.434,-956.031 781.862,-952 818.189,-891.697 829.669,-807.617 833.258,-764.842"/>
<ellipse fill="none" stroke="#e78dd7" cx="771.458" cy="-967.112" rx="4.00002" ry="4.00002"/>
<polygon fill="#e78dd7" stroke="#e78dd7" points="833.275,-764.625 838.515,-754.993 833.651,-759.64 834.027,-754.654 834.027,-754.654 834.027,-754.654 833.651,-759.64 829.54,-754.315 833.275,-764.625 833.275,-764.625"/>
<text text-anchor="middle" x="822.635" y="-940.8" font-family="Times,serif" font-size="14.00">tag_taggings</text>
</g>
<!-- ActsAsTaggableOn::Tag -->
<g id="node16" class="node"><title>ActsAsTaggableOn::Tag</title>
<ellipse fill="none" stroke="black" cx="1062.86" cy="-736.5" rx="97.0617" ry="18"/>
<text text-anchor="middle" x="1062.86" y="-732.3" font-family="Times,serif" font-size="14.00">ActsAsTaggableOn::Tag</text>
</g>
<!-- Product&#45;&gt;ActsAsTaggableOn::Tag -->
<g id="edge9" class="edge"><title>Product&#45;&gt;ActsAsTaggableOn::Tag</title>
<path fill="none" stroke="#581ce7" d="M808.572,-969.995C874.44,-943.313 905.256,-962.278 956.862,-920 1008.36,-877.813 1040.15,-803.585 1054.27,-764.044"/>
<polygon fill="#581ce7" stroke="#581ce7" points="808.233,-970.14 797.269,-969.937 803.636,-972.107 799.04,-974.074 799.04,-974.074 799.04,-974.074 803.636,-972.107 800.81,-978.211 808.233,-970.14 808.233,-970.14"/>
<polygon fill="#581ce7" stroke="#581ce7" points="1054.28,-764 1061.81,-756.022 1055.92,-759.275 1057.56,-754.55 1057.56,-754.55 1057.56,-754.55 1055.92,-759.275 1053.3,-753.078 1054.28,-764 1054.28,-764"/>
<text text-anchor="middle" x="956.076" y="-940.8" font-family="Times,serif" font-size="14.00">base_tags</text>
</g>
<!-- Product&#45;&gt;ActsAsTaggableOn::Tag -->
<g id="edge11" class="edge"><title>Product&#45;&gt;ActsAsTaggableOn::Tag</title>
<path fill="none" stroke="#d29c9b" d="M808.876,-970.483C859.681,-959.926 957.436,-975.086 986.862,-952 1045.42,-906.056 1058.95,-811.565 1062.01,-764.863"/>
<polygon fill="#d29c9b" stroke="#d29c9b" points="808.755,-970.515 797.94,-968.699 803.918,-971.783 799.082,-973.052 799.082,-973.052 799.082,-973.052 803.918,-971.783 800.224,-977.405 808.755,-970.515 808.755,-970.515"/>
<polygon fill="#d29c9b" stroke="#d29c9b" points="1062.03,-764.588 1067.06,-754.844 1062.3,-759.595 1062.57,-754.602 1062.57,-754.602 1062.57,-754.602 1062.3,-759.595 1058.07,-754.36 1062.03,-764.588 1062.03,-764.588"/>
<text text-anchor="middle" x="1011.14" y="-940.8" font-family="Times,serif" font-size="14.00">tags</text>
</g>
<!-- Station&#45;&gt;Product -->
<g id="edge15" class="edge"><title>Station&#45;&gt;Product</title>
<path fill="none" stroke="#f0dfd9" d="M674.862,-1154.35C674.862,-1148.66 674.862,-1142.89 674.862,-1137.13"/>
<polygon fill="#f0dfd9" stroke="#f0dfd9" points="674.862,-1154.49 670.362,-1164.49 674.862,-1159.49 674.862,-1164.49 674.862,-1164.49 674.862,-1164.49 674.862,-1159.49 679.362,-1164.49 674.862,-1154.49 674.862,-1154.49"/>
<polygon fill="#f0dfd9" stroke="#f0dfd9" points="674.862,-1136.78 679.362,-1126.78 674.862,-1131.78 674.862,-1126.78 674.862,-1126.78 674.862,-1126.78 674.862,-1131.78 670.362,-1126.78 674.862,-1136.78 674.862,-1136.78"/>
</g>
<!-- Station&#45;&gt;StationLine -->
<g id="edge14" class="edge"><title>Station&#45;&gt;StationLine</title>
<path fill="none" stroke="#9f4df8" d="M775.874,-1159.91C803.315,-1141.54 832.687,-1121.89 858.93,-1104.33"/>
<ellipse fill="none" stroke="#9f4df8" cx="772.343" cy="-1162.27" rx="4.00002" ry="4.00002"/>
<polygon fill="#9f4df8" stroke="#9f4df8" points="859.024,-1104.26 869.837,-1102.44 863.179,-1101.48 867.335,-1098.7 867.335,-1098.7 867.335,-1098.7 863.179,-1101.48 864.832,-1094.96 859.024,-1104.26 859.024,-1104.26"/>
</g>
<!-- StationStore -->
<g id="node10" class="node"><title>StationStore</title>
<path fill="none" stroke="black" d="M12,-166.5C12,-166.5 235.725,-166.5 235.725,-166.5 241.725,-166.5 247.725,-172.5 247.725,-178.5 247.725,-178.5 247.725,-254.5 247.725,-254.5 247.725,-260.5 241.725,-266.5 235.725,-266.5 235.725,-266.5 12,-266.5 12,-266.5 6,-266.5 0,-260.5 0,-254.5 0,-254.5 0,-178.5 0,-178.5 0,-172.5 6,-166.5 12,-166.5"/>
<text text-anchor="middle" x="123.862" y="-251.3" font-family="Times,serif" font-size="14.00">StationStore</text>
<polyline fill="none" stroke="black" points="0,-244.5 247.725,-244.5 "/>
<text text-anchor="start" x="8" y="-229.3" font-family="Times,serif" font-size="14.00">id :integer</text>
<text text-anchor="start" x="8" y="-215.3" font-family="Times,serif" font-size="14.00">station_id :integer</text>
<text text-anchor="start" x="8" y="-201.3" font-family="Times,serif" font-size="14.00">store_id :integer</text>
<text text-anchor="start" x="8" y="-187.3" font-family="Times,serif" font-size="14.00">created_at :timestamp without time zone</text>
<text text-anchor="start" x="8" y="-173.3" font-family="Times,serif" font-size="14.00">updated_at :timestamp without time zone</text>
</g>
<!-- Station&#45;&gt;StationStore -->
<g id="edge12" class="edge"><title>Station&#45;&gt;StationStore</title>
<path fill="none" stroke="#aba1a3" d="M542.429,-1209.92C384.864,-1185.21 142.862,-1133.58 142.862,-1049.5 142.862,-1049.5 142.862,-1049.5 142.862,-409.5 142.862,-364.951 137.734,-314.87 132.806,-277.028"/>
<ellipse fill="none" stroke="#aba1a3" cx="546.851" cy="-1210.61" rx="4.00001" ry="4.00001"/>
<polygon fill="#aba1a3" stroke="#aba1a3" points="132.75,-276.606 135.887,-266.098 132.088,-271.65 131.426,-266.694 131.426,-266.694 131.426,-266.694 132.088,-271.65 126.966,-267.29 132.75,-276.606 132.75,-276.606"/>
</g>
<!-- Store -->
<g id="node11" class="node"><title>Store</title>
<path fill="none" stroke="black" d="M278,-318.5C278,-318.5 501.725,-318.5 501.725,-318.5 507.725,-318.5 513.725,-324.5 513.725,-330.5 513.725,-330.5 513.725,-490.5 513.725,-490.5 513.725,-496.5 507.725,-502.5 501.725,-502.5 501.725,-502.5 278,-502.5 278,-502.5 272,-502.5 266,-496.5 266,-490.5 266,-490.5 266,-330.5 266,-330.5 266,-324.5 272,-318.5 278,-318.5"/>
<text text-anchor="middle" x="389.862" y="-487.3" font-family="Times,serif" font-size="14.00">Store</text>
<polyline fill="none" stroke="black" points="266,-480.5 513.725,-480.5 "/>
<text text-anchor="start" x="274" y="-465.3" font-family="Times,serif" font-size="14.00">phone_number :character varying</text>
<text text-anchor="start" x="274" y="-451.3" font-family="Times,serif" font-size="14.00">name :character varying</text>
<text text-anchor="start" x="274" y="-437.3" font-family="Times,serif" font-size="14.00">description :text</text>
<text text-anchor="start" x="274" y="-423.3" font-family="Times,serif" font-size="14.00">photo :character varying</text>
<text text-anchor="start" x="274" y="-409.3" font-family="Times,serif" font-size="14.00">cover_photo :character varying</text>
<text text-anchor="start" x="274" y="-395.3" font-family="Times,serif" font-size="14.00">facebook_link :character varying</text>
<text text-anchor="start" x="274" y="-381.3" font-family="Times,serif" font-size="14.00">instagram_link :character varying</text>
<text text-anchor="start" x="274" y="-367.3" font-family="Times,serif" font-size="14.00">user_id :integer</text>
<text text-anchor="start" x="274" y="-353.3" font-family="Times,serif" font-size="14.00">created_at :timestamp without time zone</text>
<text text-anchor="start" x="274" y="-339.3" font-family="Times,serif" font-size="14.00">updated_at :timestamp without time zone</text>
<text text-anchor="start" x="274" y="-325.3" font-family="Times,serif" font-size="14.00">id :integer</text>
</g>
<!-- Station&#45;&gt;Store -->
<g id="edge13" class="edge"><title>Station&#45;&gt;Store</title>
<path fill="none" stroke="#2ed595" d="M541.837,-1163.47C455.708,-1115.91 347.101,-1043.53 277.862,-952 194.926,-842.362 101.514,-995.256 266.862,-553 272.286,-538.494 279.942,-524.493 288.813,-511.309"/>
<polygon fill="#2ed595" stroke="#2ed595" points="541.857,-1163.48 548.468,-1172.23 546.243,-1165.88 550.629,-1168.28 550.629,-1168.28 550.629,-1168.28 546.243,-1165.88 552.789,-1164.33 541.857,-1163.48 541.857,-1163.48"/>
<polygon fill="#2ed595" stroke="#2ed595" points="289.063,-510.952 298.491,-505.351 291.935,-506.859 294.807,-502.766 294.807,-502.766 294.807,-502.766 291.935,-506.859 291.124,-500.182 289.063,-510.952 289.063,-510.952"/>
</g>
<!-- Store&#45;&gt;Comment -->
<g id="edge17" class="edge"><title>Store&#45;&gt;Comment</title>
<path fill="none" stroke="#78fbca" d="M389.862,-310.191C389.862,-303.731 389.862,-297.291 389.862,-290.989"/>
<ellipse fill="none" stroke="#78fbca" cx="389.862" cy="-314.279" rx="4" ry="4"/>
<polygon fill="#78fbca" stroke="#78fbca" points="389.862,-290.532 394.362,-280.532 389.862,-285.532 389.862,-280.532 389.862,-280.532 389.862,-280.532 389.862,-285.532 385.362,-280.532 389.862,-290.532 389.862,-290.532"/>
</g>
<!-- Store&#45;&gt;Like -->
<g id="edge18" class="edge"><title>Store&#45;&gt;Like</title>
<path fill="none" stroke="#0e0c38" d="M520.558,-315.163C537.273,-303.098 554.037,-290.998 569.792,-279.626"/>
<ellipse fill="none" stroke="#0e0c38" cx="517.15" cy="-317.623" rx="4.00002" ry="4.00002"/>
<polygon fill="#0e0c38" stroke="#0e0c38" points="569.826,-279.602 580.568,-277.398 573.88,-276.675 577.934,-273.749 577.934,-273.749 577.934,-273.749 573.88,-276.675 575.3,-270.1 569.826,-279.602 569.826,-279.602"/>
</g>
<!-- Store&#45;&gt;Product -->
<g id="edge16" class="edge"><title>Store&#45;&gt;Product</title>
<path fill="none" stroke="#f14da6" d="M316.914,-509.801C309.53,-523.731 303.174,-538.324 298.862,-553 275.873,-631.248 251.347,-853.715 298.862,-920 353.522,-996.252 456.349,-1027.46 540.672,-1039.97"/>
<ellipse fill="none" stroke="#f14da6" cx="318.944" cy="-506.089" rx="4.00002" ry="4.00002"/>
<polygon fill="#f14da6" stroke="#f14da6" points="540.695,-1039.98 549.968,-1045.83 545.646,-1040.67 550.597,-1041.37 550.597,-1041.37 550.597,-1041.37 545.646,-1040.67 551.225,-1036.92 540.695,-1039.98 540.695,-1039.98"/>
</g>
<!-- Store&#45;&gt;StationStore -->
<g id="edge20" class="edge"><title>Store&#45;&gt;StationStore</title>
<path fill="none" stroke="#a9577f" d="M259.246,-315.221C238.933,-300.559 218.546,-285.843 199.981,-272.443"/>
<ellipse fill="none" stroke="#a9577f" cx="262.575" cy="-317.623" rx="4.00002" ry="4.00002"/>
<polygon fill="#a9577f" stroke="#a9577f" points="199.973,-272.437 194.499,-262.936 195.919,-269.511 191.865,-266.585 191.865,-266.585 191.865,-266.585 195.919,-269.511 189.231,-270.233 199.973,-272.437 199.973,-272.437"/>
</g>
<!-- Store&#45;&gt;User -->
<g id="edge19" class="edge"><title>Store&#45;&gt;User</title>
<path fill="none" stroke="#ee0bc2" d="M390.698,-512.617C391.563,-520.224 392.677,-527.754 394.097,-535 394.656,-537.858 395.251,-540.729 395.878,-543.61"/>
<polygon fill="#ee0bc2" stroke="#ee0bc2" points="390.69,-512.541 394.177,-502.144 390.195,-507.566 389.699,-502.591 389.699,-502.591 389.699,-502.591 390.195,-507.566 385.221,-503.037 390.69,-512.541 390.69,-512.541"/>
<polygon fill="#ee0bc2" stroke="#ee0bc2" points="395.897,-543.691 393.745,-554.443 397.014,-548.564 398.132,-553.438 398.132,-553.438 398.132,-553.438 397.014,-548.564 402.518,-552.432 395.897,-543.691 395.897,-543.691"/>
<text text-anchor="middle" x="422.245" y="-523.8" font-family="Times,serif" font-size="14.00">user_likes</text>
</g>
<!-- User&#45;&gt;Comment -->
<g id="edge23" class="edge"><title>User&#45;&gt;Comment</title>
<path fill="none" stroke="#08de8b" d="M537.889,-545.195C553.891,-471.089 557.438,-387.463 522.862,-318 517.472,-307.171 510.297,-297.199 502.063,-288.093"/>
<ellipse fill="none" stroke="#08de8b" cx="536.962" cy="-549.353" rx="4.00001" ry="4.00001"/>
<polygon fill="#08de8b" stroke="#08de8b" points="501.839,-287.86 498.159,-277.531 498.376,-284.254 494.913,-280.647 494.913,-280.647 494.913,-280.647 498.376,-284.254 491.667,-283.764 501.839,-287.86 501.839,-287.86"/>
</g>
<!-- User&#45;&gt;Like -->
<g id="edge22" class="edge"><title>User&#45;&gt;Like</title>
<path fill="none" stroke="#1e0bb3" d="M551.329,-545.54C552.542,-542.008 553.721,-538.493 554.862,-535 585.564,-441.015 569.979,-410.886 603.862,-318 608.112,-306.35 613.428,-294.335 619.025,-282.842"/>
<ellipse fill="none" stroke="#1e0bb3" cx="549.941" cy="-549.517" rx="4.00001" ry="4.00001"/>
<polygon fill="#1e0bb3" stroke="#1e0bb3" points="619.095,-282.703 627.586,-275.764 621.327,-278.229 623.56,-273.755 623.56,-273.755 623.56,-273.755 621.327,-278.229 619.533,-271.746 619.095,-282.703 619.095,-282.703"/>
</g>
<!-- User&#45;&gt;Product -->
<g id="edge26" class="edge"><title>User&#45;&gt;Product</title>
<path fill="none" stroke="#0fe59b" d="M595.205,-928.206C602.939,-939.788 610.485,-951.089 617.657,-961.831"/>
<polygon fill="#0fe59b" stroke="#0fe59b" points="595.096,-928.043 593.285,-917.227 592.319,-923.885 589.542,-919.726 589.542,-919.726 589.542,-919.726 592.319,-923.885 585.8,-922.225 595.096,-928.043 595.096,-928.043"/>
<polygon fill="#0fe59b" stroke="#0fe59b" points="617.875,-962.156 619.685,-972.971 620.651,-966.314 623.428,-970.472 623.428,-970.472 623.428,-970.472 620.651,-966.314 627.17,-967.974 617.875,-962.156 617.875,-962.156"/>
</g>
<!-- User&#45;&gt;Store -->
<g id="edge21" class="edge"><title>User&#45;&gt;Store</title>
<path fill="none" stroke="#c7871e" d="M457.222,-545.384C455.369,-537.087 453.259,-528.926 450.862,-521 449.759,-517.352 448.521,-513.69 447.172,-510.034"/>
<ellipse fill="none" stroke="#c7871e" cx="458.09" cy="-549.465" rx="4.00001" ry="4.00001"/>
<ellipse fill="#c7871e" stroke="#c7871e" cx="445.706" cy="-506.27" rx="4.00001" ry="4.00001"/>
</g>
<!-- UserWishlist -->
<g id="node13" class="node"><title>UserWishlist</title>
<path fill="none" stroke="black" d="M848,-166.5C848,-166.5 1071.72,-166.5 1071.72,-166.5 1077.72,-166.5 1083.72,-172.5 1083.72,-178.5 1083.72,-178.5 1083.72,-254.5 1083.72,-254.5 1083.72,-260.5 1077.72,-266.5 1071.72,-266.5 1071.72,-266.5 848,-266.5 848,-266.5 842,-266.5 836,-260.5 836,-254.5 836,-254.5 836,-178.5 836,-178.5 836,-172.5 842,-166.5 848,-166.5"/>
<text text-anchor="middle" x="959.862" y="-251.3" font-family="Times,serif" font-size="14.00">UserWishlist</text>
<polyline fill="none" stroke="black" points="836,-244.5 1083.72,-244.5 "/>
<text text-anchor="start" x="844" y="-229.3" font-family="Times,serif" font-size="14.00">id :integer</text>
<text text-anchor="start" x="844" y="-215.3" font-family="Times,serif" font-size="14.00">user_id :integer</text>
<text text-anchor="start" x="844" y="-201.3" font-family="Times,serif" font-size="14.00">wishlist_id :integer</text>
<text text-anchor="start" x="844" y="-187.3" font-family="Times,serif" font-size="14.00">created_at :timestamp without time zone</text>
<text text-anchor="start" x="844" y="-173.3" font-family="Times,serif" font-size="14.00">updated_at :timestamp without time zone</text>
</g>
<!-- User&#45;&gt;UserWishlist -->
<g id="edge24" class="edge"><title>User&#45;&gt;UserWishlist</title>
<path fill="none" stroke="#8a51ca" d="M575.988,-546.328C583.586,-531.768 590.961,-517.21 597.862,-503 636.77,-422.889 609.402,-378.387 674.862,-318 714.015,-281.881 738.55,-298.498 788.862,-281 801.018,-276.772 813.624,-272.287 826.231,-267.731"/>
<ellipse fill="none" stroke="#8a51ca" cx="574.099" cy="-549.931" rx="4.00002" ry="4.00002"/>
<polygon fill="#8a51ca" stroke="#8a51ca" points="826.464,-267.647 837.399,-268.468 831.164,-265.942 835.864,-264.237 835.864,-264.237 835.864,-264.237 831.164,-265.942 834.33,-260.007 826.464,-267.647 826.464,-267.647"/>
</g>
<!-- User&#45;&gt;Wishlist -->
<g id="edge25" class="edge"><title>User&#45;&gt;Wishlist</title>
<path fill="none" stroke="#c7476e" d="M635.014,-563.784C650.026,-549.154 665.122,-534.717 679.862,-521 699.14,-503.06 720.693,-484.193 740.535,-467.271"/>
<polygon fill="#c7476e" stroke="#c7476e" points="634.804,-563.989 624.508,-567.761 631.229,-567.484 627.653,-570.979 627.653,-570.979 627.653,-570.979 631.229,-567.484 630.799,-574.197 634.804,-563.989 634.804,-563.989"/>
<polygon fill="#c7476e" stroke="#c7476e" points="740.717,-467.117 751.251,-464.07 744.527,-463.879 748.337,-460.641 748.337,-460.641 748.337,-460.641 744.527,-463.879 745.423,-457.212 740.717,-467.117 740.717,-467.117"/>
</g>
<!-- UserWishlist&#45;&gt;Product -->
<g id="edge28" class="edge"><title>UserWishlist&#45;&gt;Product</title>
<path fill="none" stroke="#e06b2a" d="M1009.46,-274.438C1060.86,-337.556 1137.92,-444.804 1168.86,-553 1191.29,-631.412 1219.8,-856.307 1168.86,-920 1120.11,-980.964 901.728,-948.277 808.948,-970.268"/>
<polygon fill="#e06b2a" stroke="#e06b2a" points="1009.36,-274.314 1006.49,-263.729 1006.19,-270.449 1003.01,-266.585 1003.01,-266.585 1003.01,-266.585 1006.19,-270.449 999.535,-269.441 1009.36,-274.314 1009.36,-274.314"/>
<polygon fill="#e06b2a" stroke="#e06b2a" points="808.703,-970.335 797.869,-968.639 803.881,-971.657 799.059,-972.979 799.059,-972.979 799.059,-972.979 803.881,-971.657 800.249,-977.319 808.703,-970.335 808.703,-970.335"/>
</g>
<!-- UserWishlist&#45;&gt;ProductWishlist -->
<g id="edge27" class="edge"><title>UserWishlist&#45;&gt;ProductWishlist</title>
<path fill="none" stroke="#823a91" d="M959.862,-158.055C959.862,-147.224 959.862,-135.816 959.862,-124.741"/>
<ellipse fill="none" stroke="#823a91" cx="959.862" cy="-162.255" rx="4" ry="4"/>
<polygon fill="#823a91" stroke="#823a91" points="959.862,-124.69 964.362,-114.69 959.862,-119.69 959.862,-114.69 959.862,-114.69 959.862,-114.69 959.862,-119.69 955.362,-114.69 959.862,-124.69 959.862,-124.69"/>
</g>
<!-- Wishlist&#45;&gt;ProductWishlist -->
<g id="edge30" class="edge"><title>Wishlist&#45;&gt;ProductWishlist</title>
<path fill="none" stroke="#aede8e" d="M798.712,-352.16C792.875,-297.145 791.949,-213.568 826.862,-152 833.242,-140.75 841.598,-130.532 851.02,-121.337"/>
<ellipse fill="none" stroke="#aede8e" cx="799.196" cy="-356.426" rx="4.00001" ry="4.00001"/>
<polygon fill="#aede8e" stroke="#aede8e" points="851.071,-121.289 861.47,-117.81 854.744,-117.897 858.417,-114.504 858.417,-114.504 858.417,-114.504 854.744,-117.897 855.364,-111.199 851.071,-121.289 851.071,-121.289"/>
</g>
<!-- Wishlist&#45;&gt;UserWishlist -->
<g id="edge29" class="edge"><title>Wishlist&#45;&gt;UserWishlist</title>
<path fill="none" stroke="#626a3f" d="M852.15,-353.558C871.772,-328.772 894.831,-299.645 914.568,-274.714"/>
<ellipse fill="none" stroke="#626a3f" cx="849.489" cy="-356.919" rx="4.00002" ry="4.00002"/>
<polygon fill="#626a3f" stroke="#626a3f" points="914.644,-274.618 924.379,-269.57 917.748,-270.697 920.851,-266.777 920.851,-266.777 920.851,-266.777 917.748,-270.697 917.323,-263.984 914.644,-274.618 914.644,-274.618"/>
</g>
</g>
</svg>
