<?xml version="1.0" encoding="UTF-8" standalone="no"?>
<!DOCTYPE svg PUBLIC "-//W3C//DTD SVG 1.1//EN"
 "http://www.w3.org/Graphics/SVG/1.1/DTD/svg11.dtd">
<!-- Generated by graphviz version 2.38.0 (20140413.2041)
 -->
<!-- Title: models_diagram Pages: 1 -->
<svg width="629pt" height="326pt"
 viewBox="0.00 0.00 629.25 326.00" xmlns="http://www.w3.org/2000/svg" xmlns:xlink="http://www.w3.org/1999/xlink">
<g id="graph0" class="graph" transform="scale(1 1) rotate(0) translate(4 322)">
<title>models_diagram</title>
<polygon fill="none" stroke="none" points="-4,4 -4,-322 625.246,-322 625.246,4 -4,4"/>
<!-- _diagram_info -->
<g id="node1" class="node"><title>_diagram_info</title>
<text text-anchor="start" x="8" y="-303.6" font-family="Times,serif" font-size="13.00">Models diagram</text>
<text text-anchor="start" x="8" y="-290.6" font-family="Times,serif" font-size="13.00">Date: May 02 2016 &#45; 22:43</text>
<text text-anchor="start" x="8" y="-277.6" font-family="Times,serif" font-size="13.00">Migration version: 20160502231111</text>
<text text-anchor="start" x="8" y="-264.6" font-family="Times,serif" font-size="13.00">Generated by RailRoady 1.4.2</text>
<text text-anchor="start" x="8" y="-251.6" font-family="Times,serif" font-size="13.00">http://railroady.prestonlee.com</text>
</g>
<!-- Comment -->
<g id="node2" class="node"><title>Comment</title>
<ellipse fill="none" stroke="black" cx="215.974" cy="-18" rx="44.9768" ry="18"/>
<text text-anchor="middle" x="215.974" y="-13.8" font-family="Times,serif" font-size="14.00">Comment</text>
</g>
<!-- Like -->
<g id="node3" class="node"><title>Like</title>
<ellipse fill="none" stroke="black" cx="85.9736" cy="-18" rx="27" ry="18"/>
<text text-anchor="middle" x="85.9736" y="-13.8" font-family="Times,serif" font-size="14.00">Like</text>
</g>
<!-- Product -->
<g id="node4" class="node"><title>Product</title>
<ellipse fill="none" stroke="black" cx="261.974" cy="-281.5" rx="37.7352" ry="18"/>
<text text-anchor="middle" x="261.974" y="-277.3" font-family="Times,serif" font-size="14.00">Product</text>
</g>
<!-- Product&#45;&gt;Comment -->
<g id="edge1" class="edge"><title>Product&#45;&gt;Comment</title>
<path fill="none" stroke="#7706d5" d="M307.969,-280.642C418.186,-279.308 682.856,-265.258 607.974,-159 530.691,-49.335 359.343,-25.0999 271.004,-20.0617"/>
<ellipse fill="none" stroke="#7706d5" cx="303.678" cy="-280.683" rx="4" ry="4"/>
<polygon fill="#7706d5" stroke="#7706d5" points="270.9,-20.0565 261.141,-15.0552 265.906,-19.803 260.913,-19.5494 260.913,-19.5494 260.913,-19.5494 265.906,-19.803 260.685,-24.0437 270.9,-20.0565 270.9,-20.0565"/>
</g>
<!-- Product&#45;&gt;Like -->
<g id="edge2" class="edge"><title>Product&#45;&gt;Like</title>
<path fill="none" stroke="#6a3a15" d="M239.482,-259.893C232.146,-254.207 223.645,-248.615 214.974,-245 163.166,-223.403 136.276,-258.726 89.9736,-227 33.0697,-188.01 58.8447,-91.4286 75.6064,-44.8875"/>
<ellipse fill="none" stroke="#6a3a15" cx="242.761" cy="-262.561" rx="4.00002" ry="4.00002"/>
<polygon fill="#6a3a15" stroke="#6a3a15" points="75.616,-44.8615 83.33,-37.0675 77.3652,-40.1774 79.1143,-35.4933 79.1143,-35.4933 79.1143,-35.4933 77.3652,-40.1774 74.8986,-33.9191 75.616,-44.8615 75.616,-44.8615"/>
</g>
<!-- User -->
<g id="node6" class="node"><title>User</title>
<ellipse fill="none" stroke="black" cx="115.974" cy="-177" rx="27" ry="18"/>
<text text-anchor="middle" x="115.974" y="-172.8" font-family="Times,serif" font-size="14.00">User</text>
</g>
<!-- Product&#45;&gt;User -->
<g id="edge3" class="edge"><title>Product&#45;&gt;User</title>
<path fill="none" stroke="#1ba996" d="M237.028,-258.881C230.212,-253.77 222.594,-248.729 214.974,-245 187.369,-231.491 173.111,-245.01 148.208,-227 139.967,-221.04 133.25,-212.273 128.122,-203.795"/>
<polygon fill="#1ba996" stroke="#1ba996" points="237.319,-259.109 242.389,-268.833 241.246,-262.204 245.174,-265.298 245.174,-265.298 245.174,-265.298 241.246,-262.204 247.958,-261.763 237.319,-259.109 237.319,-259.109"/>
<polygon fill="#1ba996" stroke="#1ba996" points="128.02,-203.61 127.124,-192.681 125.603,-199.233 123.185,-194.857 123.185,-194.857 123.185,-194.857 125.603,-199.233 119.246,-197.033 128.02,-203.61 128.02,-203.61"/>
<text text-anchor="middle" x="177.356" y="-215.8" font-family="Times,serif" font-size="14.00">user_likes</text>
</g>
<!-- ActsAsTaggableOn::Tagging -->
<g id="node7" class="node"><title>ActsAsTaggableOn::Tagging</title>
<ellipse fill="none" stroke="black" cx="273.974" cy="-177" rx="113.006" ry="18"/>
<text text-anchor="middle" x="273.974" y="-172.8" font-family="Times,serif" font-size="14.00">ActsAsTaggableOn::Tagging</text>
</g>
<!-- Product&#45;&gt;ActsAsTaggableOn::Tagging -->
<g id="edge4" class="edge"><title>Product&#45;&gt;ActsAsTaggableOn::Tagging</title>
<path fill="none" stroke="#adbcb6" d="M275.826,-256.678C280.315,-247.685 284.716,-237.165 286.974,-227 288.564,-219.842 287.742,-212.153 285.91,-205.037"/>
<ellipse fill="none" stroke="#adbcb6" cx="273.936" cy="-260.289" rx="4.00002" ry="4.00002"/>
<polygon fill="#adbcb6" stroke="#adbcb6" points="285.783,-204.652 286.941,-193.748 284.224,-199.901 282.666,-195.15 282.666,-195.15 282.666,-195.15 284.224,-199.901 278.39,-196.553 285.783,-204.652 285.783,-204.652"/>
<text text-anchor="middle" x="311.694" y="-215.8" font-family="Times,serif" font-size="14.00">taggings</text>
</g>
<!-- Product&#45;&gt;ActsAsTaggableOn::Tagging -->
<g id="edge6" class="edge"><title>Product&#45;&gt;ActsAsTaggableOn::Tagging</title>
<path fill="none" stroke="#3596f8" d="M233.043,-261.725C216.633,-248.607 201.231,-230.393 211.429,-213 214.412,-207.911 218.436,-203.507 223.011,-199.708"/>
<ellipse fill="none" stroke="#3596f8" cx="236.384" cy="-264.253" rx="4.00002" ry="4.00002"/>
<polygon fill="#3596f8" stroke="#3596f8" points="223.021,-199.701 233.77,-197.53 227.084,-196.787 231.147,-193.873 231.147,-193.873 231.147,-193.873 227.084,-196.787 228.525,-190.216 223.021,-199.701 223.021,-199.701"/>
<text text-anchor="middle" x="247.746" y="-215.8" font-family="Times,serif" font-size="14.00">tag_taggings</text>
</g>
<!-- ActsAsTaggableOn::Tag -->
<g id="node8" class="node"><title>ActsAsTaggableOn::Tag</title>
<ellipse fill="none" stroke="black" cx="501.974" cy="-177" rx="97.0617" ry="18"/>
<text text-anchor="middle" x="501.974" y="-172.8" font-family="Times,serif" font-size="14.00">ActsAsTaggableOn::Tag</text>
</g>
<!-- Product&#45;&gt;ActsAsTaggableOn::Tag -->
<g id="edge5" class="edge"><title>Product&#45;&gt;ActsAsTaggableOn::Tag</title>
<path fill="none" stroke="#12de7b" d="M305.088,-270.453C339.826,-261.497 389.392,-246.75 429.974,-227 444.776,-219.796 460.01,-209.857 472.632,-200.812"/>
<polygon fill="#12de7b" stroke="#12de7b" points="304.953,-270.487 294.155,-268.572 300.105,-271.711 295.257,-272.935 295.257,-272.935 295.257,-272.935 300.105,-271.711 296.359,-277.298 304.953,-270.487 304.953,-270.487"/>
<polygon fill="#12de7b" stroke="#12de7b" points="472.852,-200.651 483.577,-198.367 476.884,-197.695 480.916,-194.738 480.916,-194.738 480.916,-194.738 476.884,-197.695 478.255,-191.109 472.852,-200.651 472.852,-200.651"/>
<text text-anchor="middle" x="479.188" y="-215.8" font-family="Times,serif" font-size="14.00">base_tags</text>
</g>
<!-- Product&#45;&gt;ActsAsTaggableOn::Tag -->
<g id="edge7" class="edge"><title>Product&#45;&gt;ActsAsTaggableOn::Tag</title>
<path fill="none" stroke="#19f104" d="M295.743,-263.164C324.122,-248.891 365.939,-228.55 403.422,-213 417.321,-207.234 432.549,-201.533 446.789,-196.46"/>
<polygon fill="#19f104" stroke="#19f104" points="295.584,-263.244 284.629,-263.739 291.121,-265.5 286.659,-267.755 286.659,-267.755 286.659,-267.755 291.121,-265.5 288.689,-271.771 295.584,-263.244 295.584,-263.244"/>
<polygon fill="#19f104" stroke="#19f104" points="447.029,-196.375 457.956,-197.299 451.745,-194.715 456.461,-193.054 456.461,-193.054 456.461,-193.054 451.745,-194.715 454.967,-188.81 447.029,-196.375 447.029,-196.375"/>
<text text-anchor="middle" x="414.25" y="-215.8" font-family="Times,serif" font-size="14.00">tags</text>
</g>
<!-- Store -->
<g id="node5" class="node"><title>Store</title>
<ellipse fill="none" stroke="black" cx="142.974" cy="-91" rx="28.5497" ry="18"/>
<text text-anchor="middle" x="142.974" y="-86.8" font-family="Times,serif" font-size="14.00">Store</text>
</g>
<!-- Store&#45;&gt;Comment -->
<g id="edge9" class="edge"><title>Store&#45;&gt;Comment</title>
<path fill="none" stroke="#ddcb24" d="M164.096,-69.4567C172.927,-60.8677 183.227,-50.8492 192.312,-42.0134"/>
<ellipse fill="none" stroke="#ddcb24" cx="160.967" cy="-72.4999" rx="4.00002" ry="4.00002"/>
<polygon fill="#ddcb24" stroke="#ddcb24" points="192.429,-41.8991 202.736,-38.1528 196.014,-38.413 199.598,-34.9269 199.598,-34.9269 199.598,-34.9269 196.014,-38.413 196.461,-31.701 192.429,-41.8991 192.429,-41.8991"/>
</g>
<!-- Store&#45;&gt;Like -->
<g id="edge10" class="edge"><title>Store&#45;&gt;Like</title>
<path fill="none" stroke="#77aff2" d="M125.392,-68.1005C118.816,-59.9086 111.325,-50.5784 104.653,-42.2673"/>
<ellipse fill="none" stroke="#77aff2" cx="128.101" cy="-71.4749" rx="4.00002" ry="4.00002"/>
<polygon fill="#77aff2" stroke="#77aff2" points="104.578,-42.1739 101.827,-31.5587 101.448,-38.2749 98.3176,-34.3759 98.3176,-34.3759 98.3176,-34.3759 101.448,-38.2749 94.8086,-37.193 104.578,-42.1739 104.578,-42.1739"/>
</g>
<!-- Store&#45;&gt;Product -->
<g id="edge8" class="edge"><title>Store&#45;&gt;Product</title>
<path fill="none" stroke="#4e98f4" d="M118.509,-110.232C94.3323,-130.598 63.2099,-164.691 79.9736,-195 110.941,-250.99 156.788,-218.386 214.974,-245 222.689,-248.529 230.34,-253.499 237.158,-258.606"/>
<ellipse fill="none" stroke="#4e98f4" cx="121.685" cy="-107.642" rx="4.00002" ry="4.00002"/>
<polygon fill="#4e98f4" stroke="#4e98f4" points="237.453,-258.84 242.497,-268.577 241.372,-261.945 245.291,-265.05 245.291,-265.05 245.291,-265.05 241.372,-261.945 248.086,-261.522 237.453,-258.84 237.453,-258.84"/>
</g>
<!-- Store&#45;&gt;User -->
<g id="edge11" class="edge"><title>Store&#45;&gt;User</title>
<path fill="none" stroke="#103d05" d="M125.103,-116.243C123.175,-119.721 121.461,-123.359 120.208,-127 117.856,-133.835 116.596,-141.508 115.964,-148.717"/>
<polygon fill="#103d05" stroke="#103d05" points="125.254,-116.002 134.362,-109.895 127.898,-111.758 130.543,-107.515 130.543,-107.515 130.543,-107.515 127.898,-111.758 126.724,-105.135 125.254,-116.002 125.254,-116.002"/>
<polygon fill="#103d05" stroke="#103d05" points="115.959,-148.81 110.938,-158.559 115.696,-153.803 115.432,-158.796 115.432,-158.796 115.432,-158.796 115.696,-153.803 119.926,-159.033 115.959,-148.81 115.959,-148.81"/>
<text text-anchor="middle" x="149.356" y="-129.8" font-family="Times,serif" font-size="14.00">user_likes</text>
</g>
<!-- User&#45;&gt;Comment -->
<g id="edge14" class="edge"><title>User&#45;&gt;Comment</title>
<path fill="none" stroke="#5708ee" d="M144.63,-162.381C147.11,-161.229 149.583,-160.089 151.974,-159 170.084,-150.75 180.589,-156.578 192.974,-141 214.43,-114.013 218.053,-73.1183 217.751,-46.2332"/>
<ellipse fill="none" stroke="#5708ee" cx="140.872" cy="-164.14" rx="4.00002" ry="4.00002"/>
<polygon fill="#5708ee" stroke="#5708ee" points="217.743,-45.9869 221.937,-35.8545 217.591,-40.9892 217.439,-35.9915 217.439,-35.9915 217.439,-35.9915 217.591,-40.9892 212.941,-36.1285 217.743,-45.9869 217.743,-45.9869"/>
</g>
<!-- User&#45;&gt;Like -->
<g id="edge13" class="edge"><title>User&#45;&gt;Like</title>
<path fill="none" stroke="#af25b5" d="M111.168,-150.852C105.692,-122.193 96.7742,-75.523 91.1485,-46.0816"/>
<ellipse fill="none" stroke="#af25b5" cx="111.955" cy="-154.97" rx="4.00001" ry="4.00001"/>
<polygon fill="#af25b5" stroke="#af25b5" points="91.1142,-45.9018 93.6573,-35.2349 90.1757,-40.9907 89.2372,-36.0795 89.2372,-36.0795 89.2372,-36.0795 90.1757,-40.9907 84.8172,-36.9242 91.1142,-45.9018 91.1142,-45.9018"/>
</g>
<!-- User&#45;&gt;Store -->
<g id="edge12" class="edge"><title>User&#45;&gt;Store</title>
<path fill="none" stroke="#fdb69d" d="M144.098,-161.521C159.134,-153.492 174.975,-144.45 176.974,-141 183.018,-130.563 176.523,-119.479 167.647,-110.498"/>
<ellipse fill="none" stroke="#fdb69d" cx="140.382" cy="-163.484" rx="4.00002" ry="4.00002"/>
<ellipse fill="#fdb69d" stroke="#fdb69d" cx="164.526" cy="-107.632" rx="4.00002" ry="4.00002"/>
</g>
</g>
</svg>
