<?xml version="1.0" encoding="UTF-8" standalone="no"?>
<!DOCTYPE svg PUBLIC "-//W3C//DTD SVG 1.1//EN"
 "http://www.w3.org/Graphics/SVG/1.1/DTD/svg11.dtd">
<!-- Generated by graphviz version 2.38.0 (20140413.2041)
 -->
<!-- Title: models_diagram Pages: 1 -->
<svg width="388pt" height="369pt"
 viewBox="0.00 0.00 387.69 369.00" xmlns="http://www.w3.org/2000/svg" xmlns:xlink="http://www.w3.org/1999/xlink">
<g id="graph0" class="graph" transform="scale(1 1) rotate(0) translate(4 365)">
<title>models_diagram</title>
<polygon fill="none" stroke="none" points="-4,4 -4,-365 383.688,-365 383.688,4 -4,4"/>
<!-- _diagram_info -->
<g id="node1" class="node"><title>_diagram_info</title>
<text text-anchor="start" x="8" y="-346.6" font-family="Times,serif" font-size="13.00">Models diagram</text>
<text text-anchor="start" x="8" y="-333.6" font-family="Times,serif" font-size="13.00">Date: May 02 2016 &#45; 16:50</text>
<text text-anchor="start" x="8" y="-320.6" font-family="Times,serif" font-size="13.00">Migration version: 20160502001617</text>
<text text-anchor="start" x="8" y="-307.6" font-family="Times,serif" font-size="13.00">Generated by RailRoady 1.4.2</text>
<text text-anchor="start" x="8" y="-294.6" font-family="Times,serif" font-size="13.00">http://railroady.prestonlee.com</text>
</g>
<!-- Comment -->
<g id="node2" class="node"><title>Comment</title>
<ellipse fill="none" stroke="black" cx="152.688" cy="-90" rx="44.9768" ry="18"/>
<text text-anchor="middle" x="152.688" y="-85.8" font-family="Times,serif" font-size="14.00">Comment</text>
</g>
<!-- Like -->
<g id="node3" class="node"><title>Like</title>
<ellipse fill="none" stroke="black" cx="352.688" cy="-90" rx="27" ry="18"/>
<text text-anchor="middle" x="352.688" y="-85.8" font-family="Times,serif" font-size="14.00">Like</text>
</g>
<!-- Product -->
<g id="node4" class="node"><title>Product</title>
<ellipse fill="none" stroke="black" cx="252.688" cy="-162" rx="37.7352" ry="18"/>
<text text-anchor="middle" x="252.688" y="-157.8" font-family="Times,serif" font-size="14.00">Product</text>
</g>
<!-- Product&#45;&gt;Comment -->
<g id="edge1" class="edge"><title>Product&#45;&gt;Comment</title>
<path fill="none" stroke="#bb4882" d="M225.32,-141.843C212.077,-132.573 196.15,-121.424 182.589,-111.931"/>
<ellipse fill="none" stroke="#bb4882" cx="228.691" cy="-144.202" rx="4.00002" ry="4.00002"/>
<polygon fill="#bb4882" stroke="#bb4882" points="182.264,-111.703 176.652,-102.282 178.167,-108.836 174.071,-105.968 174.071,-105.968 174.071,-105.968 178.167,-108.836 171.491,-109.655 182.264,-111.703 182.264,-111.703"/>
</g>
<!-- Product&#45;&gt;Like -->
<g id="edge2" class="edge"><title>Product&#45;&gt;Like</title>
<path fill="none" stroke="#b27799" d="M280.061,-141.838C294.462,-131.758 312.035,-119.457 326.289,-109.479"/>
<ellipse fill="none" stroke="#b27799" cx="276.685" cy="-144.202" rx="4.00002" ry="4.00002"/>
<polygon fill="#b27799" stroke="#b27799" points="326.484,-109.343 337.257,-107.295 330.58,-106.475 334.676,-103.608 334.676,-103.608 334.676,-103.608 330.58,-106.475 332.096,-99.9215 326.484,-109.343 326.484,-109.343"/>
</g>
<!-- ProductTag -->
<g id="node5" class="node"><title>ProductTag</title>
<ellipse fill="none" stroke="black" cx="252.688" cy="-18" rx="50.9988" ry="18"/>
<text text-anchor="middle" x="252.688" y="-13.8" font-family="Times,serif" font-size="14.00">ProductTag</text>
</g>
<!-- Product&#45;&gt;ProductTag -->
<g id="edge3" class="edge"><title>Product&#45;&gt;ProductTag</title>
<path fill="none" stroke="#26e13b" d="M248.109,-135.884C246.717,-127.096 245.374,-117.142 244.688,-108 243.49,-92.0449 243.49,-87.9551 244.688,-72 245.324,-63.5179 246.526,-54.3361 247.809,-46.0356"/>
<ellipse fill="none" stroke="#26e13b" cx="248.783" cy="-139.942" rx="4.00001" ry="4.00001"/>
<polygon fill="#26e13b" stroke="#26e13b" points="247.818,-45.9796 253.88,-36.8417 248.629,-41.0458 249.439,-36.1119 249.439,-36.1119 249.439,-36.1119 248.629,-41.0458 244.999,-35.3822 247.818,-45.9796 247.818,-45.9796"/>
</g>
<!-- Tag -->
<g id="node7" class="node"><title>Tag</title>
<ellipse fill="none" stroke="black" cx="280.688" cy="-90" rx="27" ry="18"/>
<text text-anchor="middle" x="280.688" y="-85.8" font-family="Times,serif" font-size="14.00">Tag</text>
</g>
<!-- Product&#45;&gt;Tag -->
<g id="edge4" class="edge"><title>Product&#45;&gt;Tag</title>
<path fill="none" stroke="#2c6ef8" d="M263.202,-134.714C265.457,-129.076 267.841,-123.116 270.099,-117.472"/>
<polygon fill="#2c6ef8" stroke="#2c6ef8" points="263.18,-134.77 255.288,-142.384 261.323,-139.413 259.466,-144.055 259.466,-144.055 259.466,-144.055 261.323,-139.413 263.644,-145.726 263.18,-134.77 263.18,-134.77"/>
<polygon fill="#2c6ef8" stroke="#2c6ef8" points="270.258,-117.074 278.15,-109.46 272.115,-112.431 273.972,-107.789 273.972,-107.789 273.972,-107.789 272.115,-112.431 269.794,-106.118 270.258,-117.074 270.258,-117.074"/>
</g>
<!-- Store -->
<g id="node6" class="node"><title>Store</title>
<ellipse fill="none" stroke="black" cx="252.688" cy="-234" rx="28.5497" ry="18"/>
<text text-anchor="middle" x="252.688" y="-229.8" font-family="Times,serif" font-size="14.00">Store</text>
</g>
<!-- Store&#45;&gt;Comment -->
<g id="edge6" class="edge"><title>Store&#45;&gt;Comment</title>
<path fill="none" stroke="#cfafbd" d="M232.801,-212.416C224.045,-202.902 213.904,-191.239 205.688,-180 190.775,-159.602 176.266,-134.784 166.21,-116.543"/>
<ellipse fill="none" stroke="#cfafbd" cx="235.592" cy="-215.407" rx="4.00002" ry="4.00002"/>
<polygon fill="#cfafbd" stroke="#cfafbd" points="166.158,-116.447 165.332,-105.512 163.768,-112.054 161.379,-107.662 161.379,-107.662 161.379,-107.662 163.768,-112.054 157.426,-109.813 166.158,-116.447 166.158,-116.447"/>
</g>
<!-- Store&#45;&gt;Like -->
<g id="edge7" class="edge"><title>Store&#45;&gt;Like</title>
<path fill="none" stroke="#203c66" d="M272.575,-212.416C281.331,-202.902 291.471,-191.239 299.688,-180 314.691,-159.478 329.285,-134.483 339.348,-116.212"/>
<ellipse fill="none" stroke="#203c66" cx="269.784" cy="-215.407" rx="4.00002" ry="4.00002"/>
<polygon fill="#203c66" stroke="#203c66" points="339.4,-116.116 348.129,-109.479 341.787,-111.723 344.175,-107.33 344.175,-107.33 344.175,-107.33 341.787,-111.723 340.221,-105.181 339.4,-116.116 339.4,-116.116"/>
</g>
<!-- Store&#45;&gt;Product -->
<g id="edge5" class="edge"><title>Store&#45;&gt;Product</title>
<path fill="none" stroke="#af7f7a" d="M252.688,-207.64C252.688,-202.063 252.688,-196.132 252.688,-190.476"/>
<ellipse fill="none" stroke="#af7f7a" cx="252.688" cy="-211.697" rx="4" ry="4"/>
<polygon fill="#af7f7a" stroke="#af7f7a" points="252.688,-190.104 257.188,-180.104 252.688,-185.104 252.688,-180.104 252.688,-180.104 252.688,-180.104 252.688,-185.104 248.188,-180.104 252.688,-190.104 252.688,-190.104"/>
</g>
<!-- Tag&#45;&gt;ProductTag -->
<g id="edge8" class="edge"><title>Tag&#45;&gt;ProductTag</title>
<path fill="none" stroke="#5b504f" d="M270.999,-64.7779C268.505,-58.544 265.81,-51.8046 263.273,-45.4634"/>
<ellipse fill="none" stroke="#5b504f" cx="272.567" cy="-68.6971" rx="4.00001" ry="4.00001"/>
<polygon fill="#5b504f" stroke="#5b504f" points="263.184,-45.241 263.648,-34.2849 261.327,-40.5986 259.47,-35.9562 259.47,-35.9562 259.47,-35.9562 261.327,-40.5986 255.292,-37.6275 263.184,-45.241 263.184,-45.241"/>
</g>
<!-- User -->
<g id="node8" class="node"><title>User</title>
<ellipse fill="none" stroke="black" cx="252.688" cy="-324.5" rx="27" ry="18"/>
<text text-anchor="middle" x="252.688" y="-320.3" font-family="Times,serif" font-size="14.00">User</text>
</g>
<!-- User&#45;&gt;Comment -->
<g id="edge11" class="edge"><title>User&#45;&gt;Comment</title>
<path fill="none" stroke="#8904c7" d="M240.128,-300.065C232.685,-286.127 223.094,-268.083 214.688,-252 198.023,-220.114 190.841,-213.487 177.688,-180 169.693,-159.645 163.126,-135.745 158.732,-117.84"/>
<ellipse fill="none" stroke="#8904c7" cx="242.136" cy="-303.82" rx="4.00002" ry="4.00002"/>
<polygon fill="#8904c7" stroke="#8904c7" points="158.72,-117.79 160.779,-107.019 157.561,-112.926 156.402,-108.062 156.402,-108.062 156.402,-108.062 157.561,-112.926 152.025,-109.106 158.72,-117.79 158.72,-117.79"/>
</g>
<!-- User&#45;&gt;Like -->
<g id="edge10" class="edge"><title>User&#45;&gt;Like</title>
<path fill="none" stroke="#750dfb" d="M265.447,-300.167C272.959,-286.265 282.553,-268.222 290.688,-252 306.552,-220.366 311.792,-212.955 324.688,-180 332.73,-159.447 340.144,-135.559 345.32,-117.709"/>
<ellipse fill="none" stroke="#750dfb" cx="263.417" cy="-303.911" rx="4.00002" ry="4.00002"/>
<polygon fill="#750dfb" stroke="#750dfb" points="345.355,-117.585 352.424,-109.202 346.725,-112.777 348.096,-107.968 348.096,-107.968 348.096,-107.968 346.725,-112.777 343.768,-106.735 345.355,-117.585 345.355,-117.585"/>
</g>
<!-- User&#45;&gt;Store -->
<g id="edge9" class="edge"><title>User&#45;&gt;Store</title>
<path fill="none" stroke="#4835a4" d="M252.688,-298.189C252.688,-286.277 252.688,-272.109 252.688,-260.21"/>
<ellipse fill="none" stroke="#4835a4" cx="252.688" cy="-302.436" rx="4" ry="4"/>
<ellipse fill="#4835a4" stroke="#4835a4" cx="252.688" cy="-256.011" rx="4" ry="4"/>
</g>
</g>
</svg>
