<?xml version="1.0" encoding="UTF-8" standalone="no"?>
<!DOCTYPE svg PUBLIC "-//W3C//DTD SVG 1.1//EN"
 "http://www.w3.org/Graphics/SVG/1.1/DTD/svg11.dtd">
<!-- Generated by graphviz version 2.38.0 (20140413.2041)
 -->
<!-- Title: models_diagram Pages: 1 -->
<svg width="942pt" height="545pt"
 viewBox="0.00 0.00 941.83 545.00" xmlns="http://www.w3.org/2000/svg" xmlns:xlink="http://www.w3.org/1999/xlink">
<g id="graph0" class="graph" transform="scale(1 1) rotate(0) translate(4 541)">
<title>models_diagram</title>
<polygon fill="none" stroke="none" points="-4,4 -4,-541 937.832,-541 937.832,4 -4,4"/>
<!-- _diagram_info -->
<g id="node1" class="node"><title>_diagram_info</title>
<text text-anchor="start" x="123.382" y="-522.6" font-family="Times,serif" font-size="13.00">Models diagram</text>
<text text-anchor="start" x="123.382" y="-509.6" font-family="Times,serif" font-size="13.00">Date: May 23 2016 &#45; 23:05</text>
<text text-anchor="start" x="123.382" y="-496.6" font-family="Times,serif" font-size="13.00">Migration version: 20160523230110</text>
<text text-anchor="start" x="123.382" y="-483.6" font-family="Times,serif" font-size="13.00">Generated by RailRoady 1.4.2</text>
<text text-anchor="start" x="123.382" y="-470.6" font-family="Times,serif" font-size="13.00">http://railroady.prestonlee.com</text>
</g>
<!-- Ability -->
<g id="node2" class="node"><title>Ability</title>
<polygon fill="none" stroke="black" points="395.502,-518.5 340.162,-518.5 340.162,-482.5 395.502,-482.5 395.502,-518.5"/>
<text text-anchor="middle" x="367.832" y="-496.3" font-family="Times,serif" font-size="14.00">Ability</text>
</g>
<!-- Comment -->
<g id="node3" class="node"><title>Comment</title>
<ellipse fill="none" stroke="black" cx="178.832" cy="-91" rx="44.9768" ry="18"/>
<text text-anchor="middle" x="178.832" y="-86.8" font-family="Times,serif" font-size="14.00">Comment</text>
</g>
<!-- Like -->
<g id="node4" class="node"><title>Like</title>
<ellipse fill="none" stroke="black" cx="300.832" cy="-91" rx="27" ry="18"/>
<text text-anchor="middle" x="300.832" y="-86.8" font-family="Times,serif" font-size="14.00">Like</text>
</g>
<!-- Line -->
<g id="node5" class="node"><title>Line</title>
<ellipse fill="none" stroke="black" cx="440.832" cy="-500.5" rx="27" ry="18"/>
<text text-anchor="middle" x="440.832" y="-496.3" font-family="Times,serif" font-size="14.00">Line</text>
</g>
<!-- Station -->
<g id="node8" class="node"><title>Station</title>
<ellipse fill="none" stroke="black" cx="382.832" cy="-409" rx="35.3303" ry="18"/>
<text text-anchor="middle" x="382.832" y="-404.8" font-family="Times,serif" font-size="14.00">Station</text>
</g>
<!-- Line&#45;&gt;Station -->
<g id="edge2" class="edge"><title>Line&#45;&gt;Station</title>
<path fill="none" stroke="#4faad5" d="M424.93,-474.961C416.886,-462.549 407.14,-447.51 399.052,-435.029"/>
<polygon fill="#4faad5" stroke="#4faad5" points="425.024,-475.107 426.686,-485.946 427.743,-479.303 430.463,-483.499 430.463,-483.499 430.463,-483.499 427.743,-479.303 434.239,-481.052 425.024,-475.107 425.024,-475.107"/>
<polygon fill="#4faad5" stroke="#4faad5" points="398.942,-434.86 397.28,-424.021 396.223,-430.664 393.504,-426.468 393.504,-426.468 393.504,-426.468 396.223,-430.664 389.727,-428.915 398.942,-434.86 398.942,-434.86"/>
</g>
<!-- StationLine -->
<g id="node9" class="node"><title>StationLine</title>
<ellipse fill="none" stroke="black" cx="489.832" cy="-336" rx="51.2415" ry="18"/>
<text text-anchor="middle" x="489.832" y="-331.8" font-family="Times,serif" font-size="14.00">StationLine</text>
</g>
<!-- Line&#45;&gt;StationLine -->
<g id="edge1" class="edge"><title>Line&#45;&gt;StationLine</title>
<path fill="none" stroke="#0b167f" d="M448.276,-474.811C457.322,-444.814 472.523,-394.401 481.818,-363.576"/>
<ellipse fill="none" stroke="#0b167f" cx="447.046" cy="-478.892" rx="4.00001" ry="4.00001"/>
<polygon fill="#0b167f" stroke="#0b167f" points="481.84,-363.505 489.035,-355.23 483.283,-358.718 484.727,-353.93 484.727,-353.93 484.727,-353.93 483.283,-358.718 480.418,-352.631 481.84,-363.505 481.84,-363.505"/>
</g>
<!-- Product -->
<g id="node6" class="node"><title>Product</title>
<ellipse fill="none" stroke="black" cx="382.832" cy="-336" rx="37.7352" ry="18"/>
<text text-anchor="middle" x="382.832" y="-331.8" font-family="Times,serif" font-size="14.00">Product</text>
</g>
<!-- Product&#45;&gt;Comment -->
<g id="edge3" class="edge"><title>Product&#45;&gt;Comment</title>
<path fill="none" stroke="#53bc54" d="M337.348,-333.479C289.493,-329.294 215.583,-315.022 174.832,-268 137.968,-225.463 123.843,-199.663 140.832,-146 144.24,-135.233 150.653,-124.756 157.253,-115.94"/>
<ellipse fill="none" stroke="#53bc54" cx="341.393" cy="-333.795" rx="4" ry="4"/>
<polygon fill="#53bc54" stroke="#53bc54" points="157.315,-115.863 167.066,-110.846 160.43,-111.952 163.546,-108.042 163.546,-108.042 163.546,-108.042 160.43,-111.952 160.027,-105.238 157.315,-115.863 157.315,-115.863"/>
</g>
<!-- Product&#45;&gt;Like -->
<g id="edge4" class="edge"><title>Product&#45;&gt;Like</title>
<path fill="none" stroke="#619a0d" d="M374.473,-310.23C358.912,-264.115 325.635,-165.501 309.697,-118.271"/>
<ellipse fill="none" stroke="#619a0d" cx="375.787" cy="-314.123" rx="4.00001" ry="4.00001"/>
<polygon fill="#619a0d" stroke="#619a0d" points="309.68,-118.221 310.747,-107.307 308.081,-113.483 306.483,-108.746 306.483,-108.746 306.483,-108.746 308.081,-113.483 302.219,-110.185 309.68,-118.221 309.68,-118.221"/>
</g>
<!-- ProductWishlist -->
<g id="node7" class="node"><title>ProductWishlist</title>
<ellipse fill="none" stroke="black" cx="527.832" cy="-18" rx="66.9956" ry="18"/>
<text text-anchor="middle" x="527.832" y="-13.8" font-family="Times,serif" font-size="14.00">ProductWishlist</text>
</g>
<!-- Product&#45;&gt;ProductWishlist -->
<g id="edge6" class="edge"><title>Product&#45;&gt;ProductWishlist</title>
<path fill="none" stroke="#5b5e44" d="M418.146,-320.941C422.043,-319.777 425.99,-318.758 429.832,-318 522.356,-299.75 763.626,-327.508 853.832,-300 893.714,-287.838 933.832,-292.695 933.832,-251 933.832,-251 933.832,-251 933.832,-90 933.832,-56.6259 718.209,-34.1878 601.238,-24.4709"/>
<ellipse fill="none" stroke="#5b5e44" cx="414.073" cy="-322.263" rx="4.00001" ry="4.00001"/>
<polygon fill="#5b5e44" stroke="#5b5e44" points="601.236,-24.4708 591.637,-19.1688 596.253,-24.0623 591.269,-23.6537 591.269,-23.6537 591.269,-23.6537 596.253,-24.0623 590.902,-28.1387 601.236,-24.4708 601.236,-24.4708"/>
</g>
<!-- User -->
<g id="node12" class="node"><title>User</title>
<ellipse fill="none" stroke="black" cx="288.832" cy="-250" rx="27" ry="18"/>
<text text-anchor="middle" x="288.832" y="-245.8" font-family="Times,serif" font-size="14.00">User</text>
</g>
<!-- Product&#45;&gt;User -->
<g id="edge5" class="edge"><title>Product&#45;&gt;User</title>
<path fill="none" stroke="#96e768" d="M335.167,-333.259C310.955,-329.654 283.469,-320.8 268.066,-300 262.353,-292.285 264.699,-282.76 269.502,-274.166"/>
<polygon fill="#96e768" stroke="#96e768" points="335.372,-333.284 344.75,-338.968 340.335,-333.893 345.298,-334.502 345.298,-334.502 345.298,-334.502 340.335,-333.893 345.846,-330.035 335.372,-333.284 335.372,-333.284"/>
<polygon fill="#96e768" stroke="#96e768" points="269.622,-273.986 278.909,-268.155 272.393,-269.824 275.163,-265.662 275.163,-265.662 275.163,-265.662 272.393,-269.824 271.417,-263.168 269.622,-273.986 269.622,-273.986"/>
<text text-anchor="middle" x="296.215" y="-288.8" font-family="Times,serif" font-size="14.00">user_likes</text>
</g>
<!-- Wishlist -->
<g id="node14" class="node"><title>Wishlist</title>
<ellipse fill="none" stroke="black" cx="443.832" cy="-164" rx="39.4749" ry="18"/>
<text text-anchor="middle" x="443.832" y="-159.8" font-family="Times,serif" font-size="14.00">Wishlist</text>
</g>
<!-- Product&#45;&gt;Wishlist -->
<g id="edge7" class="edge"><title>Product&#45;&gt;Wishlist</title>
<path fill="none" stroke="#3542f6" d="M392.37,-308.418C403.829,-276.483 422.935,-223.237 434.363,-191.388"/>
<polygon fill="#3542f6" stroke="#3542f6" points="392.281,-308.666 384.668,-316.558 390.593,-313.372 388.904,-318.078 388.904,-318.078 388.904,-318.078 390.593,-313.372 393.139,-319.598 392.281,-308.666 392.281,-308.666"/>
<polygon fill="#3542f6" stroke="#3542f6" points="434.407,-191.266 442.02,-183.373 436.096,-186.56 437.785,-181.853 437.785,-181.853 437.785,-181.853 436.096,-186.56 433.549,-180.333 434.407,-191.266 434.407,-191.266"/>
</g>
<!-- ActsAsTaggableOn::Tagging -->
<g id="node15" class="node"><title>ActsAsTaggableOn::Tagging</title>
<ellipse fill="none" stroke="black" cx="542.832" cy="-250" rx="113.006" ry="18"/>
<text text-anchor="middle" x="542.832" y="-245.8" font-family="Times,serif" font-size="14.00">ActsAsTaggableOn::Tagging</text>
</g>
<!-- Product&#45;&gt;ActsAsTaggableOn::Tagging -->
<g id="edge8" class="edge"><title>Product&#45;&gt;ActsAsTaggableOn::Tagging</title>
<path fill="none" stroke="#df251c" d="M408.022,-315.354C421.09,-305.729 437.59,-294.428 453.39,-286 464.08,-280.298 475.906,-275.014 487.363,-270.369"/>
<ellipse fill="none" stroke="#df251c" cx="404.727" cy="-317.816" rx="4.00002" ry="4.00002"/>
<polygon fill="#df251c" stroke="#df251c" points="487.564,-270.29 498.517,-270.809 492.216,-268.456 496.867,-266.623 496.867,-266.623 496.867,-266.623 492.216,-268.456 495.217,-262.436 487.564,-270.29 487.564,-270.29"/>
<text text-anchor="middle" x="476.553" y="-288.8" font-family="Times,serif" font-size="14.00">taggings</text>
</g>
<!-- Product&#45;&gt;ActsAsTaggableOn::Tagging -->
<g id="edge10" class="edge"><title>Product&#45;&gt;ActsAsTaggableOn::Tagging</title>
<path fill="none" stroke="#92933b" d="M419.244,-321.431C422.806,-320.224 426.379,-319.059 429.832,-318 460.954,-308.452 473.168,-317.16 500.832,-300 510.5,-294.002 519.107,-285.053 525.973,-276.437"/>
<ellipse fill="none" stroke="#92933b" cx="415.292" cy="-322.804" rx="4.00001" ry="4.00001"/>
<polygon fill="#92933b" stroke="#92933b" points="526.007,-276.392 535.602,-271.083 529.004,-272.389 532,-268.386 532,-268.386 532,-268.386 529.004,-272.389 528.398,-265.689 526.007,-276.392 526.007,-276.392"/>
<text text-anchor="middle" x="552.604" y="-288.8" font-family="Times,serif" font-size="14.00">tag_taggings</text>
</g>
<!-- ActsAsTaggableOn::Tag -->
<g id="node16" class="node"><title>ActsAsTaggableOn::Tag</title>
<ellipse fill="none" stroke="black" cx="770.832" cy="-250" rx="97.0617" ry="18"/>
<text text-anchor="middle" x="770.832" y="-245.8" font-family="Times,serif" font-size="14.00">ActsAsTaggableOn::Tag</text>
</g>
<!-- Product&#45;&gt;ActsAsTaggableOn::Tag -->
<g id="edge9" class="edge"><title>Product&#45;&gt;ActsAsTaggableOn::Tag</title>
<path fill="none" stroke="#a8f5ba" d="M420.604,-320.47C423.7,-319.545 426.803,-318.705 429.832,-318 500.822,-301.489 521.249,-313.715 592.832,-300 634.09,-292.095 679.758,-279.441 714.506,-268.972"/>
<polygon fill="#a8f5ba" stroke="#a8f5ba" points="420.347,-320.553 409.446,-319.366 415.593,-322.1 410.838,-323.646 410.838,-323.646 410.838,-323.646 415.593,-322.1 412.229,-327.925 420.347,-320.553 420.347,-320.553"/>
<polygon fill="#a8f5ba" stroke="#a8f5ba" points="714.895,-268.854 725.772,-270.248 719.679,-267.398 724.462,-265.943 724.462,-265.943 724.462,-265.943 719.679,-267.398 723.152,-261.638 714.895,-268.854 714.895,-268.854"/>
<text text-anchor="middle" x="679.046" y="-288.8" font-family="Times,serif" font-size="14.00">base_tags</text>
</g>
<!-- Product&#45;&gt;ActsAsTaggableOn::Tag -->
<g id="edge11" class="edge"><title>Product&#45;&gt;ActsAsTaggableOn::Tag</title>
<path fill="none" stroke="#4e8255" d="M420.011,-320.477C423.299,-319.521 426.604,-318.673 429.832,-318 490.869,-305.269 651.711,-322.574 709.832,-300 723.958,-294.513 737.357,-284.503 747.98,-274.954"/>
<polygon fill="#4e8255" stroke="#4e8255" points="419.81,-320.542 408.912,-319.318 415.05,-322.072 410.29,-323.602 410.29,-323.602 410.29,-323.602 415.05,-322.072 411.667,-327.886 419.81,-320.542 419.81,-320.542"/>
<polygon fill="#4e8255" stroke="#4e8255" points="748.258,-274.691 758.618,-271.095 751.893,-271.257 755.528,-267.824 755.528,-267.824 755.528,-267.824 751.893,-271.257 752.438,-264.552 748.258,-274.691 748.258,-274.691"/>
<text text-anchor="middle" x="745.108" y="-288.8" font-family="Times,serif" font-size="14.00">tags</text>
</g>
<!-- Station&#45;&gt;Product -->
<g id="edge15" class="edge"><title>Station&#45;&gt;Product</title>
<path fill="none" stroke="#90f58f" d="M382.832,-380.753C382.832,-375.276 382.832,-369.521 382.832,-364.051"/>
<polygon fill="#90f58f" stroke="#90f58f" points="382.832,-380.813 378.332,-390.813 382.832,-385.813 382.832,-390.813 382.832,-390.813 382.832,-390.813 382.832,-385.813 387.332,-390.813 382.832,-380.813 382.832,-380.813"/>
<polygon fill="#90f58f" stroke="#90f58f" points="382.832,-364.029 387.332,-354.029 382.832,-359.029 382.832,-354.029 382.832,-354.029 382.832,-354.029 382.832,-359.029 378.332,-354.029 382.832,-364.029 382.832,-364.029"/>
</g>
<!-- Station&#45;&gt;StationLine -->
<g id="edge14" class="edge"><title>Station&#45;&gt;StationLine</title>
<path fill="none" stroke="#8e3054" d="M410.137,-389.882C424.751,-380.185 442.826,-368.191 458.066,-358.078"/>
<ellipse fill="none" stroke="#8e3054" cx="406.796" cy="-392.099" rx="4.00002" ry="4.00002"/>
<polygon fill="#8e3054" stroke="#8e3054" points="458.331,-357.902 469.152,-356.123 462.498,-355.138 466.664,-352.373 466.664,-352.373 466.664,-352.373 462.498,-355.138 464.176,-348.624 458.331,-357.902 458.331,-357.902"/>
</g>
<!-- StationStore -->
<g id="node10" class="node"><title>StationStore</title>
<ellipse fill="none" stroke="black" cx="53.8319" cy="-91" rx="53.6643" ry="18"/>
<text text-anchor="middle" x="53.8319" y="-86.8" font-family="Times,serif" font-size="14.00">StationStore</text>
</g>
<!-- Station&#45;&gt;StationStore -->
<g id="edge12" class="edge"><title>Station&#45;&gt;StationStore</title>
<path fill="none" stroke="#8090fd" d="M339.536,-407.846C248.552,-406.351 45.8319,-396.358 45.8319,-337 45.8319,-337 45.8319,-337 45.8319,-163 45.8319,-148.561 47.486,-132.572 49.2899,-119.43"/>
<ellipse fill="none" stroke="#8090fd" cx="343.721" cy="-407.905" rx="4" ry="4"/>
<polygon fill="#8090fd" stroke="#8090fd" points="49.3462,-119.048 55.2591,-109.813 50.0768,-114.102 50.8074,-109.155 50.8074,-109.155 50.8074,-109.155 50.0768,-114.102 46.3557,-108.498 49.3462,-119.048 49.3462,-119.048"/>
</g>
<!-- Store -->
<g id="node11" class="node"><title>Store</title>
<ellipse fill="none" stroke="black" cx="178.832" cy="-164" rx="28.5497" ry="18"/>
<text text-anchor="middle" x="178.832" y="-159.8" font-family="Times,serif" font-size="14.00">Store</text>
</g>
<!-- Station&#45;&gt;Store -->
<g id="edge13" class="edge"><title>Station&#45;&gt;Store</title>
<path fill="none" stroke="#dabdc1" d="M344.549,-394.797C301.949,-378.419 233.392,-346.807 189.832,-300 158.547,-266.383 154.599,-244.984 163.832,-200 164.463,-196.926 165.376,-193.789 166.444,-190.717"/>
<polygon fill="#dabdc1" stroke="#dabdc1" points="344.645,-394.833 352.426,-402.561 349.326,-396.59 354.007,-398.348 354.007,-398.348 354.007,-398.348 349.326,-396.59 355.588,-394.134 344.645,-394.833 344.645,-394.833"/>
<polygon fill="#dabdc1" stroke="#dabdc1" points="166.504,-190.567 174.408,-182.965 168.368,-185.927 170.232,-181.287 170.232,-181.287 170.232,-181.287 168.368,-185.927 166.056,-179.61 166.504,-190.567 166.504,-190.567"/>
</g>
<!-- Store&#45;&gt;Comment -->
<g id="edge17" class="edge"><title>Store&#45;&gt;Comment</title>
<path fill="none" stroke="#d225de" d="M178.832,-137.791C178.832,-131.832 178.832,-125.45 178.832,-119.399"/>
<ellipse fill="none" stroke="#d225de" cx="178.832" cy="-141.813" rx="4" ry="4"/>
<polygon fill="#d225de" stroke="#d225de" points="178.832,-119.029 183.332,-109.029 178.832,-114.029 178.832,-109.029 178.832,-109.029 178.832,-109.029 178.832,-114.029 174.332,-109.029 178.832,-119.029 178.832,-119.029"/>
</g>
<!-- Store&#45;&gt;Like -->
<g id="edge18" class="edge"><title>Store&#45;&gt;Like</title>
<path fill="none" stroke="#211f77" d="M206.299,-147.015C226.039,-135.527 252.576,-120.083 272.509,-108.483"/>
<ellipse fill="none" stroke="#211f77" cx="202.709" cy="-149.104" rx="4.00002" ry="4.00002"/>
<polygon fill="#211f77" stroke="#211f77" points="272.511,-108.482 283.418,-107.341 276.833,-105.967 281.154,-103.452 281.154,-103.452 281.154,-103.452 276.833,-105.967 278.891,-99.5624 272.511,-108.482 272.511,-108.482"/>
</g>
<!-- Store&#45;&gt;Product -->
<g id="edge16" class="edge"><title>Store&#45;&gt;Product</title>
<path fill="none" stroke="#2c4220" d="M169.524,-189.82C167.911,-197.771 167.634,-206.462 170.832,-214 192.316,-264.636 212.172,-272.538 259.832,-300 283.65,-313.724 313.2,-322.36 337.366,-327.619"/>
<ellipse fill="none" stroke="#2c4220" cx="170.588" cy="-185.752" rx="4.00001" ry="4.00001"/>
<polygon fill="#2c4220" stroke="#2c4220" points="337.566,-327.66 346.456,-334.079 342.463,-328.665 347.361,-329.671 347.361,-329.671 347.361,-329.671 342.463,-328.665 348.266,-325.263 337.566,-327.66 337.566,-327.66"/>
</g>
<!-- Store&#45;&gt;StationStore -->
<g id="edge20" class="edge"><title>Store&#45;&gt;StationStore</title>
<path fill="none" stroke="#4e911b" d="M151.056,-147.223C132.788,-136.847 108.723,-123.178 89.105,-112.035"/>
<ellipse fill="none" stroke="#4e911b" cx="154.713" cy="-149.3" rx="4.00002" ry="4.00002"/>
<polygon fill="#4e911b" stroke="#4e911b" points="88.8551,-111.893 82.3824,-103.041 84.5075,-109.424 80.1598,-106.954 80.1598,-106.954 80.1598,-106.954 84.5075,-109.424 77.9373,-110.867 88.8551,-111.893 88.8551,-111.893"/>
</g>
<!-- Store&#45;&gt;User -->
<g id="edge19" class="edge"><title>Store&#45;&gt;User</title>
<path fill="none" stroke="#05894c" d="M174.568,-192.209C174.738,-199.907 176.382,-207.853 181.066,-214 197.55,-235.631 227.659,-244.106 251.87,-247.326"/>
<polygon fill="#05894c" stroke="#05894c" points="174.576,-192.045 179.595,-182.295 174.839,-187.052 175.101,-182.059 175.101,-182.059 175.101,-182.059 174.839,-187.052 170.607,-181.823 174.576,-192.045 174.576,-192.045"/>
<polygon fill="#05894c" stroke="#05894c" points="251.886,-247.328 261.342,-252.882 256.857,-247.868 261.827,-248.408 261.827,-248.408 261.827,-248.408 256.857,-247.868 262.313,-243.934 251.886,-247.328 251.886,-247.328"/>
<text text-anchor="middle" x="209.215" y="-202.8" font-family="Times,serif" font-size="14.00">user_likes</text>
</g>
<!-- User&#45;&gt;Comment -->
<g id="edge23" class="edge"><title>User&#45;&gt;Comment</title>
<path fill="none" stroke="#72ea5c" d="M275.846,-225.881C271.011,-217.596 265.353,-208.265 259.832,-200 240.063,-170.407 215.249,-137.924 198.329,-116.39"/>
<ellipse fill="none" stroke="#72ea5c" cx="277.861" cy="-229.375" rx="4.00002" ry="4.00002"/>
<polygon fill="#72ea5c" stroke="#72ea5c" points="198.237,-116.273 195.57,-105.637 195.138,-112.35 192.039,-108.426 192.039,-108.426 192.039,-108.426 195.138,-112.35 188.507,-111.215 198.237,-116.273 198.237,-116.273"/>
</g>
<!-- User&#45;&gt;Like -->
<g id="edge22" class="edge"><title>User&#45;&gt;Like</title>
<path fill="none" stroke="#8ef098" d="M290.754,-223.852C292.945,-195.193 296.512,-148.523 298.762,-119.082"/>
<ellipse fill="none" stroke="#8ef098" cx="290.444" cy="-227.911" rx="4" ry="4"/>
<polygon fill="#8ef098" stroke="#8ef098" points="298.764,-119.05 304.013,-109.423 299.145,-114.065 299.526,-109.08 299.526,-109.08 299.526,-109.08 299.145,-114.065 295.04,-108.737 298.764,-119.05 298.764,-119.05"/>
</g>
<!-- User&#45;&gt;Product -->
<g id="edge26" class="edge"><title>User&#45;&gt;Product</title>
<path fill="none" stroke="#86faa2" d="M312.077,-271.773C325.936,-284.157 343.534,-299.882 357.712,-312.552"/>
<polygon fill="#86faa2" stroke="#86faa2" points="311.86,-271.578 307.402,-261.56 308.132,-268.247 304.404,-264.915 304.404,-264.915 304.404,-264.915 308.132,-268.247 301.405,-268.271 311.86,-271.578 311.86,-271.578"/>
<polygon fill="#86faa2" stroke="#86faa2" points="358.134,-312.93 362.592,-322.949 361.863,-316.261 365.591,-319.593 365.591,-319.593 365.591,-319.593 361.863,-316.261 368.589,-316.238 358.134,-312.93 358.134,-312.93"/>
</g>
<!-- User&#45;&gt;Store -->
<g id="edge21" class="edge"><title>User&#45;&gt;Store</title>
<path fill="none" stroke="#750853" d="M269.65,-228.524C260.471,-219.277 249.054,-208.538 237.832,-200 228.374,-192.804 217.326,-185.901 207.364,-180.155"/>
<ellipse fill="none" stroke="#750853" cx="272.54" cy="-231.484" rx="4.00002" ry="4.00002"/>
<ellipse fill="#750853" stroke="#750853" cx="203.823" cy="-178.155" rx="4.00002" ry="4.00002"/>
</g>
<!-- UserWishlist -->
<g id="node13" class="node"><title>UserWishlist</title>
<ellipse fill="none" stroke="black" cx="527.832" cy="-91" rx="55.8697" ry="18"/>
<text text-anchor="middle" x="527.832" y="-86.8" font-family="Times,serif" font-size="14.00">UserWishlist</text>
</g>
<!-- User&#45;&gt;UserWishlist -->
<g id="edge24" class="edge"><title>User&#45;&gt;UserWishlist</title>
<path fill="none" stroke="#ee4fbb" d="M306.691,-227.524C326.523,-204.785 360.436,-169.056 395.832,-146 421.311,-129.403 452.723,-116.303 478.511,-107.164"/>
<ellipse fill="none" stroke="#ee4fbb" cx="303.851" cy="-230.823" rx="4.00002" ry="4.00002"/>
<polygon fill="#ee4fbb" stroke="#ee4fbb" points="478.642,-107.119 489.563,-108.11 483.369,-105.487 488.095,-103.856 488.095,-103.856 488.095,-103.856 483.369,-105.487 486.627,-99.6024 478.642,-107.119 478.642,-107.119"/>
</g>
<!-- User&#45;&gt;Wishlist -->
<g id="edge25" class="edge"><title>User&#45;&gt;Wishlist</title>
<path fill="none" stroke="#b1c950" d="M318.035,-233.174C344.377,-218.898 383.098,-197.914 410.613,-183.003"/>
<polygon fill="#b1c950" stroke="#b1c950" points="317.887,-233.254 306.951,-234.062 313.491,-235.636 309.095,-238.018 309.095,-238.018 309.095,-238.018 313.491,-235.636 311.24,-241.975 317.887,-233.254 317.887,-233.254"/>
<polygon fill="#b1c950" stroke="#b1c950" points="410.688,-182.962 421.624,-182.154 415.084,-180.58 419.48,-178.197 419.48,-178.197 419.48,-178.197 415.084,-180.58 417.336,-174.241 410.688,-182.962 410.688,-182.962"/>
</g>
<!-- UserWishlist&#45;&gt;Product -->
<g id="edge28" class="edge"><title>UserWishlist&#45;&gt;Product</title>
<path fill="none" stroke="#6d504b" d="M590.019,-99.0854C710.546,-115.33 957.325,-162.295 876.832,-268 816.277,-347.522 527.779,-298.074 429.832,-318 426.601,-318.657 423.293,-319.494 420.003,-320.442"/>
<polygon fill="#6d504b" stroke="#6d504b" points="589.728,-99.0472 580.4,-93.2811 584.77,-98.3949 579.813,-97.7426 579.813,-97.7426 579.813,-97.7426 584.77,-98.3949 579.226,-102.204 589.728,-99.0472 589.728,-99.0472"/>
<polygon fill="#6d504b" stroke="#6d504b" points="419.804,-320.506 408.908,-319.269 415.042,-322.031 410.28,-323.555 410.28,-323.555 410.28,-323.555 415.042,-322.031 411.652,-327.841 419.804,-320.506 419.804,-320.506"/>
</g>
<!-- UserWishlist&#45;&gt;ProductWishlist -->
<g id="edge27" class="edge"><title>UserWishlist&#45;&gt;ProductWishlist</title>
<path fill="none" stroke="#64ee5c" d="M527.832,-64.791C527.832,-58.832 527.832,-52.4496 527.832,-46.3988"/>
<ellipse fill="none" stroke="#64ee5c" cx="527.832" cy="-68.8129" rx="4" ry="4"/>
<polygon fill="#64ee5c" stroke="#64ee5c" points="527.832,-46.0288 532.332,-36.0288 527.832,-41.0288 527.832,-36.0288 527.832,-36.0288 527.832,-36.0288 527.832,-41.0288 523.332,-36.0289 527.832,-46.0288 527.832,-46.0288"/>
</g>
<!-- Wishlist&#45;&gt;ProductWishlist -->
<g id="edge30" class="edge"><title>Wishlist&#45;&gt;ProductWishlist</title>
<path fill="none" stroke="#385e16" d="M444.741,-137.682C446.429,-118.689 450.957,-92.684 462.832,-73 470.455,-60.3643 482.122,-49.3215 493.479,-40.5706"/>
<ellipse fill="none" stroke="#385e16" cx="444.437" cy="-141.877" rx="4" ry="4"/>
<polygon fill="#385e16" stroke="#385e16" points="493.557,-40.5135 504.286,-38.247 497.594,-37.5635 501.631,-34.6136 501.631,-34.6136 501.631,-34.6136 497.594,-37.5635 498.976,-30.9802 493.557,-40.5135 493.557,-40.5135"/>
</g>
<!-- Wishlist&#45;&gt;UserWishlist -->
<g id="edge29" class="edge"><title>Wishlist&#45;&gt;UserWishlist</title>
<path fill="none" stroke="#2c7335" d="M467.785,-142.754C478.171,-133.975 490.374,-123.66 501.058,-114.63"/>
<ellipse fill="none" stroke="#2c7335" cx="464.701" cy="-145.361" rx="4.00002" ry="4.00002"/>
<polygon fill="#2c7335" stroke="#2c7335" points="501.239,-114.478 511.781,-111.459 505.057,-111.25 508.876,-108.022 508.876,-108.022 508.876,-108.022 505.057,-111.25 505.971,-104.586 501.239,-114.478 501.239,-114.478"/>
</g>
</g>
</svg>
