<?xml version="1.0" encoding="UTF-8" standalone="no"?>
<!DOCTYPE svg PUBLIC "-//W3C//DTD SVG 1.1//EN"
 "http://www.w3.org/Graphics/SVG/1.1/DTD/svg11.dtd">
<!-- Generated by graphviz version 2.38.0 (20140413.2041)
 -->
<!-- Title: models_diagram Pages: 1 -->
<svg width="420pt" height="369pt"
 viewBox="0.00 0.00 419.69 369.00" xmlns="http://www.w3.org/2000/svg" xmlns:xlink="http://www.w3.org/1999/xlink">
<g id="graph0" class="graph" transform="scale(1 1) rotate(0) translate(4 365)">
<title>models_diagram</title>
<polygon fill="none" stroke="none" points="-4,4 -4,-365 415.688,-365 415.688,4 -4,4"/>
<!-- _diagram_info -->
<g id="node1" class="node"><title>_diagram_info</title>
<text text-anchor="start" x="8" y="-346.6" font-family="Times,serif" font-size="13.00">Models diagram</text>
<text text-anchor="start" x="8" y="-333.6" font-family="Times,serif" font-size="13.00">Date: May 01 2016 &#45; 23:43</text>
<text text-anchor="start" x="8" y="-320.6" font-family="Times,serif" font-size="13.00">Migration version: 20160502001617</text>
<text text-anchor="start" x="8" y="-307.6" font-family="Times,serif" font-size="13.00">Generated by RailRoady 1.4.2</text>
<text text-anchor="start" x="8" y="-294.6" font-family="Times,serif" font-size="13.00">http://railroady.prestonlee.com</text>
</g>
<!-- Comment -->
<g id="node2" class="node"><title>Comment</title>
<ellipse fill="none" stroke="black" cx="184.688" cy="-90" rx="44.9768" ry="18"/>
<text text-anchor="middle" x="184.688" y="-85.8" font-family="Times,serif" font-size="14.00">Comment</text>
</g>
<!-- Like -->
<g id="node3" class="node"><title>Like</title>
<ellipse fill="none" stroke="black" cx="274.688" cy="-90" rx="27" ry="18"/>
<text text-anchor="middle" x="274.688" y="-85.8" font-family="Times,serif" font-size="14.00">Like</text>
</g>
<!-- Product -->
<g id="node4" class="node"><title>Product</title>
<ellipse fill="none" stroke="black" cx="318.688" cy="-162" rx="37.7352" ry="18"/>
<text text-anchor="middle" x="318.688" y="-157.8" font-family="Times,serif" font-size="14.00">Product</text>
</g>
<!-- Product&#45;&gt;Comment -->
<g id="edge1" class="edge"><title>Product&#45;&gt;Comment</title>
<path fill="none" stroke="#d28855" d="M286.885,-144.387C266.793,-133.891 240.804,-120.315 220.063,-109.479"/>
<ellipse fill="none" stroke="#d28855" cx="290.565" cy="-146.309" rx="4.00002" ry="4.00002"/>
<polygon fill="#d28855" stroke="#d28855" points="219.806,-109.345 213.026,-100.726 215.374,-107.03 210.942,-104.715 210.942,-104.715 210.942,-104.715 215.374,-107.03 208.858,-108.704 219.806,-109.345 219.806,-109.345"/>
</g>
<!-- Product&#45;&gt;Like -->
<g id="edge2" class="edge"><title>Product&#45;&gt;Like</title>
<path fill="none" stroke="#ed0b90" d="M303.867,-137.421C299.441,-130.38 294.58,-122.647 290.116,-115.545"/>
<ellipse fill="none" stroke="#ed0b90" cx="306.132" cy="-141.024" rx="4.00002" ry="4.00002"/>
<polygon fill="#ed0b90" stroke="#ed0b90" points="290.059,-115.454 288.547,-104.593 287.398,-111.221 284.737,-106.988 284.737,-106.988 284.737,-106.988 287.398,-111.221 280.928,-109.383 290.059,-115.454 290.059,-115.454"/>
</g>
<!-- ProductTag -->
<g id="node5" class="node"><title>ProductTag</title>
<ellipse fill="none" stroke="black" cx="356.688" cy="-18" rx="50.9988" ry="18"/>
<text text-anchor="middle" x="356.688" y="-13.8" font-family="Times,serif" font-size="14.00">ProductTag</text>
</g>
<!-- Product&#45;&gt;ProductTag -->
<g id="edge3" class="edge"><title>Product&#45;&gt;ProductTag</title>
<path fill="none" stroke="#023e14" d="M325.397,-135.929C332.142,-110.725 342.506,-71.9942 349.437,-46.0947"/>
<ellipse fill="none" stroke="#023e14" cx="324.306" cy="-140.007" rx="4.00001" ry="4.00001"/>
<polygon fill="#023e14" stroke="#023e14" points="349.503,-45.8494 356.435,-37.3526 350.795,-41.0193 352.088,-36.1893 352.088,-36.1893 352.088,-36.1893 350.795,-41.0193 347.741,-35.0259 349.503,-45.8494 349.503,-45.8494"/>
</g>
<!-- Tag -->
<g id="node7" class="node"><title>Tag</title>
<ellipse fill="none" stroke="black" cx="384.688" cy="-90" rx="27" ry="18"/>
<text text-anchor="middle" x="384.688" y="-85.8" font-family="Times,serif" font-size="14.00">Tag</text>
</g>
<!-- Product&#45;&gt;Tag -->
<g id="edge4" class="edge"><title>Product&#45;&gt;Tag</title>
<path fill="none" stroke="#fc9e3e" d="M340.561,-137.802C348.003,-129.908 356.3,-121.108 363.674,-113.288"/>
<polygon fill="#fc9e3e" stroke="#fc9e3e" points="340.524,-137.84 330.39,-142.029 337.094,-141.478 333.664,-145.116 333.664,-145.116 333.664,-145.116 337.094,-141.478 336.938,-148.203 340.524,-137.84 340.524,-137.84"/>
<polygon fill="#fc9e3e" stroke="#fc9e3e" points="363.813,-113.14 373.947,-108.951 367.243,-109.502 370.673,-105.864 370.673,-105.864 370.673,-105.864 367.243,-109.502 367.399,-102.777 363.813,-113.14 363.813,-113.14"/>
</g>
<!-- Store -->
<g id="node6" class="node"><title>Store</title>
<ellipse fill="none" stroke="black" cx="252.688" cy="-234" rx="28.5497" ry="18"/>
<text text-anchor="middle" x="252.688" y="-229.8" font-family="Times,serif" font-size="14.00">Store</text>
</g>
<!-- Store&#45;&gt;Comment -->
<g id="edge6" class="edge"><title>Store&#45;&gt;Comment</title>
<path fill="none" stroke="#23f318" d="M241.127,-208.859C228.937,-183.404 209.794,-143.428 197.241,-117.215"/>
<ellipse fill="none" stroke="#23f318" cx="243.027" cy="-212.825" rx="4.00002" ry="4.00002"/>
<polygon fill="#23f318" stroke="#23f318" points="197.101,-116.921 196.84,-105.958 194.941,-112.411 192.782,-107.902 192.782,-107.902 192.782,-107.902 194.941,-112.411 188.723,-109.845 197.101,-116.921 197.101,-116.921"/>
</g>
<!-- Store&#45;&gt;Like -->
<g id="edge7" class="edge"><title>Store&#45;&gt;Like</title>
<path fill="none" stroke="#632f1f" d="M256.572,-207.929C260.477,-182.725 266.477,-143.994 270.49,-118.095"/>
<ellipse fill="none" stroke="#632f1f" cx="255.954" cy="-211.919" rx="4.00001" ry="4.00001"/>
<polygon fill="#632f1f" stroke="#632f1f" points="270.494,-118.071 276.472,-108.878 271.259,-113.13 272.025,-108.189 272.025,-108.189 272.025,-108.189 271.259,-113.13 267.578,-107.5 270.494,-118.071 270.494,-118.071"/>
</g>
<!-- Store&#45;&gt;Product -->
<g id="edge5" class="edge"><title>Store&#45;&gt;Product</title>
<path fill="none" stroke="#5dc597" d="M272.351,-212.145C280.066,-203.963 288.95,-194.54 296.862,-186.148"/>
<ellipse fill="none" stroke="#5dc597" cx="269.429" cy="-215.244" rx="4.00002" ry="4.00002"/>
<polygon fill="#5dc597" stroke="#5dc597" points="296.934,-186.073 307.068,-181.884 300.364,-182.435 303.794,-178.797 303.794,-178.797 303.794,-178.797 300.364,-182.435 300.52,-175.71 296.934,-186.073 296.934,-186.073"/>
</g>
<!-- Tag&#45;&gt;ProductTag -->
<g id="edge8" class="edge"><title>Tag&#45;&gt;ProductTag</title>
<path fill="none" stroke="#16db5d" d="M374.999,-64.7779C372.505,-58.544 369.81,-51.8046 367.273,-45.4634"/>
<ellipse fill="none" stroke="#16db5d" cx="376.567" cy="-68.6971" rx="4.00001" ry="4.00001"/>
<polygon fill="#16db5d" stroke="#16db5d" points="367.184,-45.241 367.648,-34.2849 365.327,-40.5986 363.47,-35.9562 363.47,-35.9562 363.47,-35.9562 365.327,-40.5986 359.292,-37.6275 367.184,-45.241 367.184,-45.241"/>
</g>
<!-- User -->
<g id="node8" class="node"><title>User</title>
<ellipse fill="none" stroke="black" cx="252.688" cy="-324.5" rx="27" ry="18"/>
<text text-anchor="middle" x="252.688" y="-320.3" font-family="Times,serif" font-size="14.00">User</text>
</g>
<!-- User&#45;&gt;Store -->
<g id="edge9" class="edge"><title>User&#45;&gt;Store</title>
<path fill="none" stroke="#f3c407" d="M252.688,-298.189C252.688,-286.277 252.688,-272.109 252.688,-260.21"/>
<ellipse fill="none" stroke="#f3c407" cx="252.688" cy="-302.436" rx="4" ry="4"/>
<ellipse fill="#f3c407" stroke="#f3c407" cx="252.688" cy="-256.011" rx="4" ry="4"/>
</g>
</g>
</svg>
