<?xml version="1.0" encoding="UTF-8" standalone="no"?>
<!DOCTYPE svg PUBLIC "-//W3C//DTD SVG 1.1//EN"
 "http://www.w3.org/Graphics/SVG/1.1/DTD/svg11.dtd">
<!-- Generated by graphviz version 2.38.0 (20140413.2041)
 -->
<!-- Title: models_diagram Pages: 1 -->
<svg width="1320pt" height="1079pt"
 viewBox="0.00 0.00 1320.14 1079.00" xmlns="http://www.w3.org/2000/svg" xmlns:xlink="http://www.w3.org/1999/xlink">
<g id="graph0" class="graph" transform="scale(1 1) rotate(0) translate(4 1075)">
<title>models_diagram</title>
<polygon fill="none" stroke="none" points="-4,4 -4,-1075 1316.14,-1075 1316.14,4 -4,4"/>
<!-- _diagram_info -->
<g id="node1" class="node"><title>_diagram_info</title>
<text text-anchor="start" x="345.175" y="-1014.6" font-family="Times,serif" font-size="13.00">Models diagram</text>
<text text-anchor="start" x="345.175" y="-1001.6" font-family="Times,serif" font-size="13.00">Date: May 13 2016 &#45; 17:59</text>
<text text-anchor="start" x="345.175" y="-988.6" font-family="Times,serif" font-size="13.00">Migration version: 20160513005400</text>
<text text-anchor="start" x="345.175" y="-975.6" font-family="Times,serif" font-size="13.00">Generated by RailRoady 1.4.2</text>
<text text-anchor="start" x="345.175" y="-962.6" font-family="Times,serif" font-size="13.00">http://railroady.prestonlee.com</text>
</g>
<!-- Ability -->
<g id="node2" class="node"><title>Ability</title>
<polygon fill="none" stroke="black" points="563.028,-970.5 563.028,-1014.5 618.697,-1014.5 618.697,-970.5 563.028,-970.5"/>
<text text-anchor="middle" x="590.862" y="-999.3" font-family="Times,serif" font-size="14.00">Ability</text>
<polyline fill="none" stroke="black" points="563.028,-992.5 618.697,-992.5 "/>
<text text-anchor="middle" x="590.862" y="-977.3" font-family="Times,serif" font-size="14.00"> </text>
</g>
<!-- Comment -->
<g id="node3" class="node"><title>Comment</title>
<path fill="none" stroke="black" d="M12,-138.5C12,-138.5 235.725,-138.5 235.725,-138.5 241.725,-138.5 247.725,-144.5 247.725,-150.5 247.725,-150.5 247.725,-254.5 247.725,-254.5 247.725,-260.5 241.725,-266.5 235.725,-266.5 235.725,-266.5 12,-266.5 12,-266.5 6,-266.5 0,-260.5 0,-254.5 0,-254.5 0,-150.5 0,-150.5 0,-144.5 6,-138.5 12,-138.5"/>
<text text-anchor="middle" x="123.862" y="-251.3" font-family="Times,serif" font-size="14.00">Comment</text>
<polyline fill="none" stroke="black" points="0,-244.5 247.725,-244.5 "/>
<text text-anchor="start" x="8" y="-229.3" font-family="Times,serif" font-size="14.00">content :text</text>
<text text-anchor="start" x="8" y="-215.3" font-family="Times,serif" font-size="14.00">commentable_id :integer</text>
<text text-anchor="start" x="8" y="-201.3" font-family="Times,serif" font-size="14.00">commentable_type :character varying</text>
<text text-anchor="start" x="8" y="-187.3" font-family="Times,serif" font-size="14.00">id :integer</text>
<text text-anchor="start" x="8" y="-173.3" font-family="Times,serif" font-size="14.00">user_id :integer</text>
<text text-anchor="start" x="8" y="-159.3" font-family="Times,serif" font-size="14.00">created_at :timestamp without time zone</text>
<text text-anchor="start" x="8" y="-145.3" font-family="Times,serif" font-size="14.00">updated_at :timestamp without time zone</text>
</g>
<!-- Like -->
<g id="node4" class="node"><title>Like</title>
<path fill="none" stroke="black" d="M278,-145.5C278,-145.5 501.725,-145.5 501.725,-145.5 507.725,-145.5 513.725,-151.5 513.725,-157.5 513.725,-157.5 513.725,-247.5 513.725,-247.5 513.725,-253.5 507.725,-259.5 501.725,-259.5 501.725,-259.5 278,-259.5 278,-259.5 272,-259.5 266,-253.5 266,-247.5 266,-247.5 266,-157.5 266,-157.5 266,-151.5 272,-145.5 278,-145.5"/>
<text text-anchor="middle" x="389.862" y="-244.3" font-family="Times,serif" font-size="14.00">Like</text>
<polyline fill="none" stroke="black" points="266,-237.5 513.725,-237.5 "/>
<text text-anchor="start" x="274" y="-222.3" font-family="Times,serif" font-size="14.00">id :integer</text>
<text text-anchor="start" x="274" y="-208.3" font-family="Times,serif" font-size="14.00">likeable_id :integer</text>
<text text-anchor="start" x="274" y="-194.3" font-family="Times,serif" font-size="14.00">likeable_type :character varying</text>
<text text-anchor="start" x="274" y="-180.3" font-family="Times,serif" font-size="14.00">user_id :integer</text>
<text text-anchor="start" x="274" y="-166.3" font-family="Times,serif" font-size="14.00">created_at :timestamp without time zone</text>
<text text-anchor="start" x="274" y="-152.3" font-family="Times,serif" font-size="14.00">updated_at :timestamp without time zone</text>
</g>
<!-- Product -->
<g id="node5" class="node"><title>Product</title>
<path fill="none" stroke="black" d="M649,-914.5C649,-914.5 872.725,-914.5 872.725,-914.5 878.725,-914.5 884.725,-920.5 884.725,-926.5 884.725,-926.5 884.725,-1058.5 884.725,-1058.5 884.725,-1064.5 878.725,-1070.5 872.725,-1070.5 872.725,-1070.5 649,-1070.5 649,-1070.5 643,-1070.5 637,-1064.5 637,-1058.5 637,-1058.5 637,-926.5 637,-926.5 637,-920.5 643,-914.5 649,-914.5"/>
<text text-anchor="middle" x="760.862" y="-1055.3" font-family="Times,serif" font-size="14.00">Product</text>
<polyline fill="none" stroke="black" points="637,-1048.5 884.725,-1048.5 "/>
<text text-anchor="start" x="645" y="-1033.3" font-family="Times,serif" font-size="14.00">updated_at :timestamp without time zone</text>
<text text-anchor="start" x="645" y="-1019.3" font-family="Times,serif" font-size="14.00">name :character varying</text>
<text text-anchor="start" x="645" y="-1005.3" font-family="Times,serif" font-size="14.00">description :text</text>
<text text-anchor="start" x="645" y="-991.3" font-family="Times,serif" font-size="14.00">photo :character varying</text>
<text text-anchor="start" x="645" y="-977.3" font-family="Times,serif" font-size="14.00">price :integer</text>
<text text-anchor="start" x="645" y="-963.3" font-family="Times,serif" font-size="14.00">stock :integer</text>
<text text-anchor="start" x="645" y="-949.3" font-family="Times,serif" font-size="14.00">store_id :integer</text>
<text text-anchor="start" x="645" y="-935.3" font-family="Times,serif" font-size="14.00">created_at :timestamp without time zone</text>
<text text-anchor="start" x="645" y="-921.3" font-family="Times,serif" font-size="14.00">id :integer</text>
</g>
<!-- Product&#45;&gt;Comment -->
<g id="edge1" class="edge"><title>Product&#45;&gt;Comment</title>
<path fill="none" stroke="#db08f3" d="M628.969,-914.327C628.6,-914.217 628.231,-914.108 627.862,-914 532.858,-886.267 279.776,-916.07 182.862,-896 144.148,-887.983 122.232,-896.599 99.8623,-864 -23.6479,-684.01 49.6618,-406.781 95.475,-276.23"/>
<ellipse fill="none" stroke="#db08f3" cx="632.908" cy="-915.59" rx="4.00001" ry="4.00001"/>
<polygon fill="#db08f3" stroke="#db08f3" points="95.5102,-276.13 103.099,-268.215 97.1847,-271.419 98.8592,-266.708 98.8592,-266.708 98.8592,-266.708 97.1847,-271.419 94.6191,-265.201 95.5102,-276.13 95.5102,-276.13"/>
</g>
<!-- Product&#45;&gt;Like -->
<g id="edge2" class="edge"><title>Product&#45;&gt;Like</title>
<path fill="none" stroke="#16d30c" d="M703.248,-907.267C694.343,-893.062 685.559,-878.288 677.862,-864 618.598,-753.985 476.432,-413.414 416.852,-269.146"/>
<ellipse fill="none" stroke="#16d30c" cx="705.488" cy="-910.808" rx="4.00002" ry="4.00002"/>
<polygon fill="#16d30c" stroke="#16d30c" points="416.694,-268.761 417.038,-257.801 414.786,-264.139 412.878,-259.518 412.878,-259.518 412.878,-259.518 414.786,-264.139 408.719,-261.235 416.694,-268.761 416.694,-268.761"/>
</g>
<!-- ProductWishlist -->
<g id="node6" class="node"><title>ProductWishlist</title>
<path fill="none" stroke="black" d="M582,-0.5C582,-0.5 805.725,-0.5 805.725,-0.5 811.725,-0.5 817.725,-6.5 817.725,-12.5 817.725,-12.5 817.725,-88.5 817.725,-88.5 817.725,-94.5 811.725,-100.5 805.725,-100.5 805.725,-100.5 582,-100.5 582,-100.5 576,-100.5 570,-94.5 570,-88.5 570,-88.5 570,-12.5 570,-12.5 570,-6.5 576,-0.5 582,-0.5"/>
<text text-anchor="middle" x="693.862" y="-85.3" font-family="Times,serif" font-size="14.00">ProductWishlist</text>
<polyline fill="none" stroke="black" points="570,-78.5 817.725,-78.5 "/>
<text text-anchor="start" x="578" y="-63.3" font-family="Times,serif" font-size="14.00">id :integer</text>
<text text-anchor="start" x="578" y="-49.3" font-family="Times,serif" font-size="14.00">user_wishlist_id :integer</text>
<text text-anchor="start" x="578" y="-35.3" font-family="Times,serif" font-size="14.00">product_id :integer</text>
<text text-anchor="start" x="578" y="-21.3" font-family="Times,serif" font-size="14.00">created_at :timestamp without time zone</text>
<text text-anchor="start" x="578" y="-7.3" font-family="Times,serif" font-size="14.00">updated_at :timestamp without time zone</text>
</g>
<!-- Product&#45;&gt;ProductWishlist -->
<g id="edge4" class="edge"><title>Product&#45;&gt;ProductWishlist</title>
<path fill="none" stroke="#6eb1cb" d="M799.552,-906.988C821.993,-850.358 845.862,-773.448 845.862,-702.5 845.862,-702.5 845.862,-702.5 845.862,-201.5 845.862,-172.042 844.513,-161.585 826.862,-138 818.281,-126.533 807.698,-116.155 796.281,-106.897"/>
<ellipse fill="none" stroke="#6eb1cb" cx="798.031" cy="-910.778" rx="4.00001" ry="4.00001"/>
<polygon fill="#6eb1cb" stroke="#6eb1cb" points="796.156,-106.8 791.017,-97.1131 792.207,-103.734 788.258,-100.667 788.258,-100.667 788.258,-100.667 792.207,-103.734 785.498,-104.222 796.156,-106.8 796.156,-106.8"/>
</g>
<!-- User -->
<g id="node8" class="node"><title>User</title>
<path fill="none" stroke="black" d="M180.228,-539.5C180.228,-539.5 475.497,-539.5 475.497,-539.5 481.497,-539.5 487.497,-545.5 487.497,-551.5 487.497,-551.5 487.497,-851.5 487.497,-851.5 487.497,-857.5 481.497,-863.5 475.497,-863.5 475.497,-863.5 180.228,-863.5 180.228,-863.5 174.228,-863.5 168.228,-857.5 168.228,-851.5 168.228,-851.5 168.228,-551.5 168.228,-551.5 168.228,-545.5 174.228,-539.5 180.228,-539.5"/>
<text text-anchor="middle" x="327.862" y="-848.3" font-family="Times,serif" font-size="14.00">User</text>
<polyline fill="none" stroke="black" points="168.228,-841.5 487.497,-841.5 "/>
<text text-anchor="start" x="176.228" y="-826.3" font-family="Times,serif" font-size="14.00">cover_photo :character varying</text>
<text text-anchor="start" x="176.228" y="-812.3" font-family="Times,serif" font-size="14.00">email :character varying</text>
<text text-anchor="start" x="176.228" y="-798.3" font-family="Times,serif" font-size="14.00">encrypted_password :character varying</text>
<text text-anchor="start" x="176.228" y="-784.3" font-family="Times,serif" font-size="14.00">reset_password_token :character varying</text>
<text text-anchor="start" x="176.228" y="-770.3" font-family="Times,serif" font-size="14.00">reset_password_sent_at :timestamp without time zone</text>
<text text-anchor="start" x="176.228" y="-756.3" font-family="Times,serif" font-size="14.00">remember_created_at :timestamp without time zone</text>
<text text-anchor="start" x="176.228" y="-742.3" font-family="Times,serif" font-size="14.00">sign_in_count :integer</text>
<text text-anchor="start" x="176.228" y="-728.3" font-family="Times,serif" font-size="14.00">current_sign_in_at :timestamp without time zone</text>
<text text-anchor="start" x="176.228" y="-714.3" font-family="Times,serif" font-size="14.00">last_sign_in_at :timestamp without time zone</text>
<text text-anchor="start" x="176.228" y="-700.3" font-family="Times,serif" font-size="14.00">current_sign_in_ip :inet</text>
<text text-anchor="start" x="176.228" y="-686.3" font-family="Times,serif" font-size="14.00">last_sign_in_ip :inet</text>
<text text-anchor="start" x="176.228" y="-672.3" font-family="Times,serif" font-size="14.00">created_at :timestamp without time zone</text>
<text text-anchor="start" x="176.228" y="-658.3" font-family="Times,serif" font-size="14.00">updated_at :timestamp without time zone</text>
<text text-anchor="start" x="176.228" y="-644.3" font-family="Times,serif" font-size="14.00">provider :character varying</text>
<text text-anchor="start" x="176.228" y="-630.3" font-family="Times,serif" font-size="14.00">uid :character varying</text>
<text text-anchor="start" x="176.228" y="-616.3" font-family="Times,serif" font-size="14.00">name :character varying</text>
<text text-anchor="start" x="176.228" y="-602.3" font-family="Times,serif" font-size="14.00">avatar :character varying</text>
<text text-anchor="start" x="176.228" y="-588.3" font-family="Times,serif" font-size="14.00">role :integer</text>
<text text-anchor="start" x="176.228" y="-574.3" font-family="Times,serif" font-size="14.00">gender :character varying</text>
<text text-anchor="start" x="176.228" y="-560.3" font-family="Times,serif" font-size="14.00">birthday :character varying</text>
<text text-anchor="start" x="176.228" y="-546.3" font-family="Times,serif" font-size="14.00">id :integer</text>
</g>
<!-- Product&#45;&gt;User -->
<g id="edge3" class="edge"><title>Product&#45;&gt;User</title>
<path fill="none" stroke="#abd0b6" d="M626.705,-914.405C575.241,-903.383 477.402,-916.35 445.097,-896 433.974,-888.993 423.755,-880.511 414.395,-871.06"/>
<polygon fill="#abd0b6" stroke="#abd0b6" points="626.98,-914.478 635.491,-921.393 631.813,-915.761 636.645,-917.044 636.645,-917.044 636.645,-917.044 631.813,-915.761 637.8,-912.694 626.98,-914.478 626.98,-914.478"/>
<polygon fill="#abd0b6" stroke="#abd0b6" points="414.267,-870.924 410.676,-860.563 410.835,-867.288 407.403,-863.651 407.403,-863.651 407.403,-863.651 410.835,-867.288 404.131,-866.74 414.267,-870.924 414.267,-870.924"/>
<text text-anchor="middle" x="474.245" y="-884.8" font-family="Times,serif" font-size="14.00">user_likes</text>
</g>
<!-- Wishlist -->
<g id="node10" class="node"><title>Wishlist</title>
<path fill="none" stroke="black" d="M544,-346.5C544,-346.5 767.725,-346.5 767.725,-346.5 773.725,-346.5 779.725,-352.5 779.725,-358.5 779.725,-358.5 779.725,-434.5 779.725,-434.5 779.725,-440.5 773.725,-446.5 767.725,-446.5 767.725,-446.5 544,-446.5 544,-446.5 538,-446.5 532,-440.5 532,-434.5 532,-434.5 532,-358.5 532,-358.5 532,-352.5 538,-346.5 544,-346.5"/>
<text text-anchor="middle" x="655.862" y="-431.3" font-family="Times,serif" font-size="14.00">Wishlist</text>
<polyline fill="none" stroke="black" points="532,-424.5 779.725,-424.5 "/>
<text text-anchor="start" x="540" y="-409.3" font-family="Times,serif" font-size="14.00">id :integer</text>
<text text-anchor="start" x="540" y="-395.3" font-family="Times,serif" font-size="14.00">name :character varying</text>
<text text-anchor="start" x="540" y="-381.3" font-family="Times,serif" font-size="14.00">created_at :timestamp without time zone</text>
<text text-anchor="start" x="540" y="-367.3" font-family="Times,serif" font-size="14.00">updated_at :timestamp without time zone</text>
<text text-anchor="start" x="540" y="-353.3" font-family="Times,serif" font-size="14.00">icon :character varying</text>
</g>
<!-- Product&#45;&gt;Wishlist -->
<g id="edge5" class="edge"><title>Product&#45;&gt;Wishlist</title>
<path fill="none" stroke="#49e1bb" d="M745.467,-904.408C723.822,-781.957 684.962,-562.123 666.354,-456.85"/>
<polygon fill="#49e1bb" stroke="#49e1bb" points="745.502,-904.606 742.812,-915.237 746.373,-909.53 747.243,-914.454 747.243,-914.454 747.243,-914.454 746.373,-909.53 751.674,-913.67 745.502,-904.606 745.502,-904.606"/>
<polygon fill="#49e1bb" stroke="#49e1bb" points="666.304,-456.57 668.995,-445.939 665.434,-451.646 664.563,-446.723 664.563,-446.723 664.563,-446.723 665.434,-451.646 660.132,-447.506 666.304,-456.57 666.304,-456.57"/>
</g>
<!-- ActsAsTaggableOn::Tagging -->
<g id="node11" class="node"><title>ActsAsTaggableOn::Tagging</title>
<ellipse fill="none" stroke="black" cx="986.862" cy="-701.5" rx="113.006" ry="18"/>
<text text-anchor="middle" x="986.862" y="-697.3" font-family="Times,serif" font-size="14.00">ActsAsTaggableOn::Tagging</text>
</g>
<!-- Product&#45;&gt;ActsAsTaggableOn::Tagging -->
<g id="edge6" class="edge"><title>Product&#45;&gt;ActsAsTaggableOn::Tagging</title>
<path fill="none" stroke="#420e21" d="M849.141,-908.413C852.84,-904.287 856.432,-900.138 859.862,-896 906.078,-840.243 950.166,-767.088 972.216,-728.667"/>
<ellipse fill="none" stroke="#420e21" cx="846.345" cy="-911.48" rx="4.00002" ry="4.00002"/>
<polygon fill="#420e21" stroke="#420e21" points="972.386,-728.369 981.246,-721.907 974.861,-724.024 977.335,-719.679 977.335,-719.679 977.335,-719.679 974.861,-724.024 973.425,-717.452 972.386,-728.369 972.386,-728.369"/>
<text text-anchor="middle" x="891.583" y="-884.8" font-family="Times,serif" font-size="14.00">taggings</text>
</g>
<!-- Product&#45;&gt;ActsAsTaggableOn::Tagging -->
<g id="edge8" class="edge"><title>Product&#45;&gt;ActsAsTaggableOn::Tagging</title>
<path fill="none" stroke="#81ceed" d="M891.414,-923.356C901.476,-915.005 910.826,-905.886 918.862,-896 959.495,-846.012 976.658,-770.04 983.231,-729.774"/>
<ellipse fill="none" stroke="#81ceed" cx="888.181" cy="-925.952" rx="4.00002" ry="4.00002"/>
<polygon fill="#81ceed" stroke="#81ceed" points="983.268,-729.531 989.23,-720.327 984.025,-724.589 984.782,-719.646 984.782,-719.646 984.782,-719.646 984.025,-724.589 980.333,-718.965 983.268,-729.531 983.268,-729.531"/>
<text text-anchor="middle" x="963.635" y="-884.8" font-family="Times,serif" font-size="14.00">tag_taggings</text>
</g>
<!-- ActsAsTaggableOn::Tag -->
<g id="node12" class="node"><title>ActsAsTaggableOn::Tag</title>
<ellipse fill="none" stroke="black" cx="1214.86" cy="-701.5" rx="97.0617" ry="18"/>
<text text-anchor="middle" x="1214.86" y="-697.3" font-family="Times,serif" font-size="14.00">ActsAsTaggableOn::Tag</text>
</g>
<!-- Product&#45;&gt;ActsAsTaggableOn::Tag -->
<g id="edge7" class="edge"><title>Product&#45;&gt;ActsAsTaggableOn::Tag</title>
<path fill="none" stroke="#35dec7" d="M894.498,-963.938C963.823,-944.642 1046.75,-913.265 1108.86,-864 1155.34,-827.137 1188.19,-764.12 1204.06,-728.685"/>
<polygon fill="#35dec7" stroke="#35dec7" points="894.457,-963.949 883.625,-962.24 889.633,-965.265 884.81,-966.581 884.81,-966.581 884.81,-966.581 889.633,-965.265 885.994,-970.923 894.457,-963.949 894.457,-963.949"/>
<polygon fill="#35dec7" stroke="#35dec7" points="1204.08,-728.632 1212.21,-721.267 1206.08,-724.049 1208.08,-719.467 1208.08,-719.467 1208.08,-719.467 1206.08,-724.049 1203.96,-717.667 1204.08,-728.632 1204.08,-728.632"/>
<text text-anchor="middle" x="1103.08" y="-884.8" font-family="Times,serif" font-size="14.00">base_tags</text>
</g>
<!-- Product&#45;&gt;ActsAsTaggableOn::Tag -->
<g id="edge9" class="edge"><title>Product&#45;&gt;ActsAsTaggableOn::Tag</title>
<path fill="none" stroke="#43139a" d="M895.35,-986.136C973.065,-976.518 1068.14,-952.772 1133.86,-896 1184.44,-852.307 1204.13,-771.814 1211.22,-729.74"/>
<polygon fill="#43139a" stroke="#43139a" points="894.924,-986.186 884.469,-982.878 889.958,-986.767 884.992,-987.348 884.992,-987.348 884.992,-987.348 889.958,-986.767 885.515,-991.817 894.924,-986.186 894.924,-986.186"/>
<polygon fill="#43139a" stroke="#43139a" points="1211.25,-729.554 1217.25,-720.372 1212.03,-724.615 1212.8,-719.675 1212.8,-719.675 1212.8,-719.675 1212.03,-724.615 1208.36,-718.978 1211.25,-729.554 1211.25,-729.554"/>
<text text-anchor="middle" x="1157.14" y="-884.8" font-family="Times,serif" font-size="14.00">tags</text>
</g>
<!-- Store -->
<g id="node7" class="node"><title>Store</title>
<path fill="none" stroke="black" d="M164,-304.5C164,-304.5 387.725,-304.5 387.725,-304.5 393.725,-304.5 399.725,-310.5 399.725,-316.5 399.725,-316.5 399.725,-476.5 399.725,-476.5 399.725,-482.5 393.725,-488.5 387.725,-488.5 387.725,-488.5 164,-488.5 164,-488.5 158,-488.5 152,-482.5 152,-476.5 152,-476.5 152,-316.5 152,-316.5 152,-310.5 158,-304.5 164,-304.5"/>
<text text-anchor="middle" x="275.862" y="-473.3" font-family="Times,serif" font-size="14.00">Store</text>
<polyline fill="none" stroke="black" points="152,-466.5 399.725,-466.5 "/>
<text text-anchor="start" x="160" y="-451.3" font-family="Times,serif" font-size="14.00">phone_number :character varying</text>
<text text-anchor="start" x="160" y="-437.3" font-family="Times,serif" font-size="14.00">name :character varying</text>
<text text-anchor="start" x="160" y="-423.3" font-family="Times,serif" font-size="14.00">description :text</text>
<text text-anchor="start" x="160" y="-409.3" font-family="Times,serif" font-size="14.00">photo :character varying</text>
<text text-anchor="start" x="160" y="-395.3" font-family="Times,serif" font-size="14.00">cover_photo :character varying</text>
<text text-anchor="start" x="160" y="-381.3" font-family="Times,serif" font-size="14.00">facebook_link :character varying</text>
<text text-anchor="start" x="160" y="-367.3" font-family="Times,serif" font-size="14.00">instagram_link :character varying</text>
<text text-anchor="start" x="160" y="-353.3" font-family="Times,serif" font-size="14.00">user_id :integer</text>
<text text-anchor="start" x="160" y="-339.3" font-family="Times,serif" font-size="14.00">created_at :timestamp without time zone</text>
<text text-anchor="start" x="160" y="-325.3" font-family="Times,serif" font-size="14.00">updated_at :timestamp without time zone</text>
<text text-anchor="start" x="160" y="-311.3" font-family="Times,serif" font-size="14.00">id :integer</text>
</g>
<!-- Store&#45;&gt;Comment -->
<g id="edge11" class="edge"><title>Store&#45;&gt;Comment</title>
<path fill="none" stroke="#588881" d="M198.666,-297.988C192.452,-290.14 186.25,-282.305 180.224,-274.694"/>
<ellipse fill="none" stroke="#588881" cx="201.163" cy="-301.143" rx="4.00002" ry="4.00002"/>
<polygon fill="#588881" stroke="#588881" points="179.97,-274.373 177.291,-263.739 176.866,-270.452 173.763,-266.532 173.763,-266.532 173.763,-266.532 176.866,-270.452 170.234,-269.325 179.97,-274.373 179.97,-274.373"/>
</g>
<!-- Store&#45;&gt;Like -->
<g id="edge12" class="edge"><title>Store&#45;&gt;Like</title>
<path fill="none" stroke="#2951e0" d="M334.256,-297.153C340.028,-287.432 345.781,-277.743 351.278,-268.485"/>
<ellipse fill="none" stroke="#2951e0" cx="332.067" cy="-300.84" rx="4.00002" ry="4.00002"/>
<polygon fill="#2951e0" stroke="#2951e0" points="351.356,-268.353 360.331,-262.051 353.909,-264.053 356.462,-259.754 356.462,-259.754 356.462,-259.754 353.909,-264.053 352.592,-257.457 351.356,-268.353 351.356,-268.353"/>
</g>
<!-- Store&#45;&gt;Product -->
<g id="edge10" class="edge"><title>Store&#45;&gt;Product</title>
<path fill="none" stroke="#960c6d" d="M181.14,-495.559C172.096,-509.308 164.289,-523.922 158.862,-539 109.95,-674.911 63.4014,-755.596 158.862,-864 226.17,-940.433 511.093,-885.821 626.974,-914.276"/>
<ellipse fill="none" stroke="#960c6d" cx="183.427" cy="-492.19" rx="4.00002" ry="4.00002"/>
<polygon fill="#960c6d" stroke="#960c6d" points="627.034,-914.292 635.456,-921.315 631.849,-915.636 636.665,-916.981 636.665,-916.981 636.665,-916.981 631.849,-915.636 637.875,-912.646 627.034,-914.292 627.034,-914.292"/>
</g>
<!-- Store&#45;&gt;User -->
<g id="edge13" class="edge"><title>Store&#45;&gt;User</title>
<path fill="none" stroke="#be164f" d="M293.393,-498.47C293.889,-501.344 294.379,-504.192 294.862,-507 296.128,-514.356 297.418,-521.87 298.72,-529.46"/>
<polygon fill="#be164f" stroke="#be164f" points="293.393,-498.469 296.127,-487.85 292.543,-493.542 291.693,-488.615 291.693,-488.615 291.693,-488.615 292.543,-493.542 287.258,-489.38 293.393,-498.469 293.393,-498.469"/>
<polygon fill="#be164f" stroke="#be164f" points="298.747,-529.62 296.002,-540.237 299.592,-534.548 300.437,-539.476 300.437,-539.476 300.437,-539.476 299.592,-534.548 304.872,-538.716 298.747,-529.62 298.747,-529.62"/>
<text text-anchor="middle" x="325.245" y="-509.8" font-family="Times,serif" font-size="14.00">user_likes</text>
</g>
<!-- User&#45;&gt;Comment -->
<g id="edge16" class="edge"><title>User&#45;&gt;Comment</title>
<path fill="none" stroke="#719153" d="M165.379,-532.607C156.706,-518.504 149.037,-503.913 142.862,-489 114.703,-420.991 112.777,-336.06 116.149,-276.582"/>
<ellipse fill="none" stroke="#719153" cx="167.583" cy="-536.106" rx="4.00002" ry="4.00002"/>
<polygon fill="#719153" stroke="#719153" points="116.154,-276.503 121.274,-266.807 116.469,-271.513 116.783,-266.523 116.783,-266.523 116.783,-266.523 116.469,-271.513 112.292,-266.24 116.154,-276.503 116.154,-276.503"/>
</g>
<!-- User&#45;&gt;Like -->
<g id="edge15" class="edge"><title>User&#45;&gt;Like</title>
<path fill="none" stroke="#630151" d="M398.71,-531.54C402.782,-517.327 406.268,-503.028 408.862,-489 423.815,-408.149 416.533,-385.864 408.862,-304 407.812,-292.787 406.116,-280.962 404.158,-269.516"/>
<ellipse fill="none" stroke="#630151" cx="397.518" cy="-535.588" rx="4.00001" ry="4.00001"/>
<polygon fill="#630151" stroke="#630151" points="404.142,-269.423 406.81,-258.787 403.261,-264.502 402.38,-259.58 402.38,-259.58 402.38,-259.58 403.261,-264.502 397.951,-260.372 404.142,-269.423 404.142,-269.423"/>
</g>
<!-- User&#45;&gt;Product -->
<g id="edge19" class="edge"><title>User&#45;&gt;Product</title>
<path fill="none" stroke="#ae94ea" d="M399.295,-871.816C407.56,-880.943 416.721,-889.157 426.862,-896 461.858,-919.615 571.231,-902.654 626.914,-914.454"/>
<polygon fill="#ae94ea" stroke="#ae94ea" points="399.061,-871.543 395.979,-861.019 395.811,-867.744 392.56,-863.944 392.56,-863.944 392.56,-863.944 395.811,-867.744 389.141,-866.87 399.061,-871.543 399.061,-871.543"/>
<polygon fill="#ae94ea" stroke="#ae94ea" points="626.984,-914.472 635.515,-921.361 631.82,-915.74 636.657,-917.008 636.657,-917.008 636.657,-917.008 631.82,-915.74 637.798,-912.656 626.984,-914.472 626.984,-914.472"/>
</g>
<!-- User&#45;&gt;Store -->
<g id="edge14" class="edge"><title>User&#45;&gt;Store</title>
<path fill="none" stroke="#7d345a" d="M296.583,-531.111C296,-527.712 295.426,-524.339 294.862,-521 293.521,-513.057 292.17,-504.82 290.839,-496.541"/>
<ellipse fill="none" stroke="#7d345a" cx="297.278" cy="-535.141" rx="4.00001" ry="4.00001"/>
<ellipse fill="#7d345a" stroke="#7d345a" cx="290.201" cy="-492.549" rx="4.00001" ry="4.00001"/>
</g>
<!-- UserWishlist -->
<g id="node9" class="node"><title>UserWishlist</title>
<path fill="none" stroke="black" d="M582,-152.5C582,-152.5 805.725,-152.5 805.725,-152.5 811.725,-152.5 817.725,-158.5 817.725,-164.5 817.725,-164.5 817.725,-240.5 817.725,-240.5 817.725,-246.5 811.725,-252.5 805.725,-252.5 805.725,-252.5 582,-252.5 582,-252.5 576,-252.5 570,-246.5 570,-240.5 570,-240.5 570,-164.5 570,-164.5 570,-158.5 576,-152.5 582,-152.5"/>
<text text-anchor="middle" x="693.862" y="-237.3" font-family="Times,serif" font-size="14.00">UserWishlist</text>
<polyline fill="none" stroke="black" points="570,-230.5 817.725,-230.5 "/>
<text text-anchor="start" x="578" y="-215.3" font-family="Times,serif" font-size="14.00">id :integer</text>
<text text-anchor="start" x="578" y="-201.3" font-family="Times,serif" font-size="14.00">user_id :integer</text>
<text text-anchor="start" x="578" y="-187.3" font-family="Times,serif" font-size="14.00">wishlist_id :integer</text>
<text text-anchor="start" x="578" y="-173.3" font-family="Times,serif" font-size="14.00">created_at :timestamp without time zone</text>
<text text-anchor="start" x="578" y="-159.3" font-family="Times,serif" font-size="14.00">updated_at :timestamp without time zone</text>
</g>
<!-- User&#45;&gt;UserWishlist -->
<g id="edge17" class="edge"><title>User&#45;&gt;UserWishlist</title>
<path fill="none" stroke="#500c1d" d="M412.589,-531.687C414.365,-528.094 416.124,-524.528 417.862,-521 465.208,-424.887 450.219,-382.754 522.862,-304 539.073,-286.425 559.07,-270.991 579.606,-257.829"/>
<ellipse fill="none" stroke="#500c1d" cx="410.697" cy="-535.512" rx="4.00002" ry="4.00002"/>
<polygon fill="#500c1d" stroke="#500c1d" points="579.633,-257.812 590.499,-256.336 583.875,-255.165 588.117,-252.518 588.117,-252.518 588.117,-252.518 583.875,-255.165 585.734,-248.7 579.633,-257.812 579.633,-257.812"/>
</g>
<!-- User&#45;&gt;Wishlist -->
<g id="edge18" class="edge"><title>User&#45;&gt;Wishlist</title>
<path fill="none" stroke="#daa30f" d="M495.33,-545.797C531.087,-512.765 566.625,-479.936 595.139,-453.595"/>
<polygon fill="#daa30f" stroke="#daa30f" points="494.884,-546.209 484.485,-549.689 491.211,-549.601 487.539,-552.994 487.539,-552.994 487.539,-552.994 491.211,-549.601 490.592,-556.3 494.884,-546.209 494.884,-546.209"/>
<polygon fill="#daa30f" stroke="#daa30f" points="595.264,-453.479 605.663,-449.999 598.937,-450.086 602.61,-446.694 602.61,-446.694 602.61,-446.694 598.937,-450.086 599.556,-443.388 595.264,-453.479 595.264,-453.479"/>
</g>
<!-- UserWishlist&#45;&gt;Product -->
<g id="edge21" class="edge"><title>UserWishlist&#45;&gt;Product</title>
<path fill="none" stroke="#552ffe" d="M761.095,-260.251C772.432,-273.354 782.556,-288.149 788.862,-304 831.261,-410.574 794.295,-744.114 773.175,-904.142"/>
<polygon fill="#552ffe" stroke="#552ffe" points="761.007,-260.154 757.637,-249.718 757.653,-256.445 754.3,-252.737 754.3,-252.737 754.3,-252.737 757.653,-256.445 750.962,-255.755 761.007,-260.154 761.007,-260.154"/>
<polygon fill="#552ffe" stroke="#552ffe" points="773.125,-904.514 767.347,-913.834 772.466,-909.471 771.807,-914.427 771.807,-914.427 771.807,-914.427 772.466,-909.471 776.268,-915.02 773.125,-904.514 773.125,-904.514"/>
</g>
<!-- UserWishlist&#45;&gt;ProductWishlist -->
<g id="edge20" class="edge"><title>UserWishlist&#45;&gt;ProductWishlist</title>
<path fill="none" stroke="#c1c410" d="M693.862,-144.088C693.862,-133.253 693.862,-121.899 693.862,-111.002"/>
<ellipse fill="none" stroke="#c1c410" cx="693.862" cy="-148.384" rx="4" ry="4"/>
<polygon fill="#c1c410" stroke="#c1c410" points="693.862,-110.726 698.362,-100.726 693.862,-105.726 693.862,-100.726 693.862,-100.726 693.862,-100.726 693.862,-105.726 689.362,-100.726 693.862,-110.726 693.862,-110.726"/>
</g>
<!-- Wishlist&#45;&gt;ProductWishlist -->
<g id="edge23" class="edge"><title>Wishlist&#45;&gt;ProductWishlist</title>
<path fill="none" stroke="#a1baef" d="M602.768,-339.948C585.986,-318.793 569.557,-293.387 560.862,-267 542.919,-212.547 533.522,-188.395 560.862,-138 567.09,-126.521 575.573,-116.326 585.263,-107.335"/>
<ellipse fill="none" stroke="#a1baef" cx="605.46" cy="-343.266" rx="4.00002" ry="4.00002"/>
<polygon fill="#a1baef" stroke="#a1baef" points="585.349,-107.26 595.845,-104.085 589.12,-103.976 592.89,-100.692 592.89,-100.692 592.89,-100.692 589.12,-103.976 589.935,-97.2985 585.349,-107.26 585.349,-107.26"/>
</g>
<!-- Wishlist&#45;&gt;UserWishlist -->
<g id="edge22" class="edge"><title>Wishlist&#45;&gt;UserWishlist</title>
<path fill="none" stroke="#46740a" d="M667.21,-338.162C671.917,-314.381 677.376,-286.8 682.123,-262.815"/>
<ellipse fill="none" stroke="#46740a" cx="666.425" cy="-342.131" rx="4.00001" ry="4.00001"/>
<polygon fill="#46740a" stroke="#46740a" points="682.168,-262.587 688.524,-253.651 683.139,-257.682 684.11,-252.777 684.11,-252.777 684.11,-252.777 683.139,-257.682 679.695,-251.904 682.168,-262.587 682.168,-262.587"/>
</g>
</g>
</svg>
