<?xml version="1.0" encoding="UTF-8" standalone="no"?>
<!DOCTYPE svg PUBLIC "-//W3C//DTD SVG 1.1//EN"
 "http://www.w3.org/Graphics/SVG/1.1/DTD/svg11.dtd">
<!-- Generated by graphviz version 2.38.0 (20140413.2041)
 -->
<!-- Title: models_diagram Pages: 1 -->
<svg width="884pt" height="399pt"
 viewBox="0.00 0.00 884.27 399.00" xmlns="http://www.w3.org/2000/svg" xmlns:xlink="http://www.w3.org/1999/xlink">
<g id="graph0" class="graph" transform="scale(1 1) rotate(0) translate(4 395)">
<title>models_diagram</title>
<polygon fill="none" stroke="none" points="-4,4 -4,-395 880.269,-395 880.269,4 -4,4"/>
<!-- _diagram_info -->
<g id="node1" class="node"><title>_diagram_info</title>
<text text-anchor="start" x="17.3007" y="-376.6" font-family="Times,serif" font-size="13.00">Models diagram</text>
<text text-anchor="start" x="17.3007" y="-363.6" font-family="Times,serif" font-size="13.00">Date: May 13 2016 &#45; 17:59</text>
<text text-anchor="start" x="17.3007" y="-350.6" font-family="Times,serif" font-size="13.00">Migration version: 20160513005400</text>
<text text-anchor="start" x="17.3007" y="-337.6" font-family="Times,serif" font-size="13.00">Generated by RailRoady 1.4.2</text>
<text text-anchor="start" x="17.3007" y="-324.6" font-family="Times,serif" font-size="13.00">http://railroady.prestonlee.com</text>
</g>
<!-- Ability -->
<g id="node2" class="node"><title>Ability</title>
<polygon fill="none" stroke="black" points="290.658,-372.5 235.318,-372.5 235.318,-336.5 290.658,-336.5 290.658,-372.5"/>
<text text-anchor="middle" x="262.988" y="-350.3" font-family="Times,serif" font-size="14.00">Ability</text>
</g>
<!-- Comment -->
<g id="node3" class="node"><title>Comment</title>
<ellipse fill="none" stroke="black" cx="44.9884" cy="-91" rx="44.9768" ry="18"/>
<text text-anchor="middle" x="44.9884" y="-86.8" font-family="Times,serif" font-size="14.00">Comment</text>
</g>
<!-- Like -->
<g id="node4" class="node"><title>Like</title>
<ellipse fill="none" stroke="black" cx="161.988" cy="-91" rx="27" ry="18"/>
<text text-anchor="middle" x="161.988" y="-86.8" font-family="Times,serif" font-size="14.00">Like</text>
</g>
<!-- Product -->
<g id="node5" class="node"><title>Product</title>
<ellipse fill="none" stroke="black" cx="345.988" cy="-354.5" rx="37.7352" ry="18"/>
<text text-anchor="middle" x="345.988" y="-350.3" font-family="Times,serif" font-size="14.00">Product</text>
</g>
<!-- Product&#45;&gt;Comment -->
<g id="edge1" class="edge"><title>Product&#45;&gt;Comment</title>
<path fill="none" stroke="#ac1be1" d="M324.12,-332.682C316.946,-326.989 308.593,-321.444 299.988,-318 228.631,-289.435 198.521,-330.544 127.988,-300 108.037,-291.36 104.25,-285.229 90.9884,-268 65.0424,-234.293 60.0931,-223.062 48.9884,-182 42.7058,-158.769 45.8779,-152.049 44.9884,-128 44.8858,-125.227 44.8188,-122.332 44.7782,-119.442"/>
<ellipse fill="none" stroke="#ac1be1" cx="327.283" cy="-335.33" rx="4.00002" ry="4.00002"/>
<polygon fill="#ac1be1" stroke="#ac1be1" points="44.7772,-119.218 49.2297,-109.196 44.7535,-114.218 44.7297,-109.218 44.7297,-109.218 44.7297,-109.218 44.7535,-114.218 40.2298,-109.239 44.7772,-119.218 44.7772,-119.218"/>
</g>
<!-- Product&#45;&gt;Like -->
<g id="edge2" class="edge"><title>Product&#45;&gt;Like</title>
<path fill="none" stroke="#53d056" d="M329.863,-330.582C295.252,-281.393 214.135,-166.11 178.864,-115.983"/>
<ellipse fill="none" stroke="#53d056" cx="332.177" cy="-333.871" rx="4.00002" ry="4.00002"/>
<polygon fill="#53d056" stroke="#53d056" points="178.781,-115.865 176.707,-105.097 175.904,-111.776 173.026,-107.687 173.026,-107.687 173.026,-107.687 175.904,-111.776 169.346,-110.277 178.781,-115.865 178.781,-115.865"/>
</g>
<!-- ProductWishlist -->
<g id="node6" class="node"><title>ProductWishlist</title>
<ellipse fill="none" stroke="black" cx="325.988" cy="-18" rx="66.9956" ry="18"/>
<text text-anchor="middle" x="325.988" y="-13.8" font-family="Times,serif" font-size="14.00">ProductWishlist</text>
</g>
<!-- Product&#45;&gt;ProductWishlist -->
<g id="edge4" class="edge"><title>Product&#45;&gt;ProductWishlist</title>
<path fill="none" stroke="#eeef51" d="M368.915,-332.472C387.278,-313.241 409.988,-282.992 409.988,-251 409.988,-251 409.988,-251 409.988,-90 409.988,-66.8796 391.197,-49.7468 371.39,-38.1098"/>
<ellipse fill="none" stroke="#eeef51" cx="365.951" cy="-335.471" rx="4.00002" ry="4.00002"/>
<polygon fill="#eeef51" stroke="#eeef51" points="371.364,-38.0959 364.744,-29.3536 366.976,-35.6995 362.588,-33.3031 362.588,-33.3031 362.588,-33.3031 366.976,-35.6995 360.431,-37.2526 371.364,-38.0959 371.364,-38.0959"/>
</g>
<!-- User -->
<g id="node8" class="node"><title>User</title>
<ellipse fill="none" stroke="black" cx="159.988" cy="-250" rx="27" ry="18"/>
<text text-anchor="middle" x="159.988" y="-245.8" font-family="Times,serif" font-size="14.00">User</text>
</g>
<!-- Product&#45;&gt;User -->
<g id="edge3" class="edge"><title>Product&#45;&gt;User</title>
<path fill="none" stroke="#584872" d="M322.244,-331.524C315.485,-326.328 307.819,-321.335 299.988,-318 250.061,-296.737 221.679,-333.799 179.223,-300 172.31,-294.497 167.875,-286.161 165.032,-277.917"/>
<polygon fill="#584872" stroke="#584872" points="322.534,-331.761 327.41,-341.583 326.399,-334.933 330.265,-338.104 330.265,-338.104 330.265,-338.104 326.399,-334.933 333.119,-334.625 322.534,-331.761 322.534,-331.761"/>
<polygon fill="#584872" stroke="#584872" points="164.982,-277.736 166.63,-266.894 163.639,-272.92 162.295,-268.103 162.295,-268.103 162.295,-268.103 163.639,-272.92 157.961,-269.312 164.982,-277.736 164.982,-277.736"/>
<text text-anchor="middle" x="208.371" y="-288.8" font-family="Times,serif" font-size="14.00">user_likes</text>
</g>
<!-- Wishlist -->
<g id="node10" class="node"><title>Wishlist</title>
<ellipse fill="none" stroke="black" cx="304.988" cy="-164" rx="39.4749" ry="18"/>
<text text-anchor="middle" x="304.988" y="-159.8" font-family="Times,serif" font-size="14.00">Wishlist</text>
</g>
<!-- Product&#45;&gt;Wishlist -->
<g id="edge5" class="edge"><title>Product&#45;&gt;Wishlist</title>
<path fill="none" stroke="#9982bc" d="M340.113,-326.485C332.348,-290.789 318.746,-228.252 310.943,-192.377"/>
<polygon fill="#9982bc" stroke="#9982bc" points="340.152,-326.668 337.88,-337.396 341.215,-331.554 342.278,-336.439 342.278,-336.439 342.278,-336.439 341.215,-331.554 346.675,-335.483 340.152,-326.668 340.152,-326.668"/>
<polygon fill="#9982bc" stroke="#9982bc" points="310.846,-191.929 313.118,-181.201 309.783,-187.044 308.72,-182.158 308.72,-182.158 308.72,-182.158 309.783,-187.044 304.323,-183.114 310.846,-191.929 310.846,-191.929"/>
</g>
<!-- ActsAsTaggableOn::Tagging -->
<g id="node11" class="node"><title>ActsAsTaggableOn::Tagging</title>
<ellipse fill="none" stroke="black" cx="550.988" cy="-250" rx="113.006" ry="18"/>
<text text-anchor="middle" x="550.988" y="-245.8" font-family="Times,serif" font-size="14.00">ActsAsTaggableOn::Tagging</text>
</g>
<!-- Product&#45;&gt;ActsAsTaggableOn::Tagging -->
<g id="edge6" class="edge"><title>Product&#45;&gt;ActsAsTaggableOn::Tagging</title>
<path fill="none" stroke="#a142ad" d="M374.366,-335.248C397.351,-320.878 430.845,-300.862 461.547,-286 472.916,-280.497 485.388,-275.186 497.315,-270.435"/>
<ellipse fill="none" stroke="#a142ad" cx="370.97" cy="-337.384" rx="4.00002" ry="4.00002"/>
<polygon fill="#a142ad" stroke="#a142ad" points="497.418,-270.395 508.37,-270.943 502.075,-268.573 506.731,-266.752 506.731,-266.752 506.731,-266.752 502.075,-268.573 505.092,-262.561 497.418,-270.395 497.418,-270.395"/>
<text text-anchor="middle" x="485.709" y="-288.8" font-family="Times,serif" font-size="14.00">taggings</text>
</g>
<!-- Product&#45;&gt;ActsAsTaggableOn::Tagging -->
<g id="edge8" class="edge"><title>Product&#45;&gt;ActsAsTaggableOn::Tagging</title>
<path fill="none" stroke="#4a566b" d="M389.218,-346.005C423.82,-338.499 472.436,-324.456 508.988,-300 518.445,-293.673 527.008,-284.656 533.898,-276.078"/>
<ellipse fill="none" stroke="#4a566b" cx="385.095" cy="-346.867" rx="4.00001" ry="4.00001"/>
<polygon fill="#4a566b" stroke="#4a566b" points="533.916,-276.053 543.549,-270.813 536.941,-272.072 539.966,-268.09 539.966,-268.09 539.966,-268.09 536.941,-272.072 536.383,-265.368 533.916,-276.053 533.916,-276.053"/>
<text text-anchor="middle" x="561.761" y="-288.8" font-family="Times,serif" font-size="14.00">tag_taggings</text>
</g>
<!-- ActsAsTaggableOn::Tag -->
<g id="node12" class="node"><title>ActsAsTaggableOn::Tag</title>
<ellipse fill="none" stroke="black" cx="778.988" cy="-250" rx="97.0617" ry="18"/>
<text text-anchor="middle" x="778.988" y="-245.8" font-family="Times,serif" font-size="14.00">ActsAsTaggableOn::Tag</text>
</g>
<!-- Product&#45;&gt;ActsAsTaggableOn::Tag -->
<g id="edge7" class="edge"><title>Product&#45;&gt;ActsAsTaggableOn::Tag</title>
<path fill="none" stroke="#a65d1f" d="M390.585,-345.08C441.816,-335.198 528.303,-317.879 601.988,-300 641.471,-290.42 685.501,-278.237 719.769,-268.416"/>
<polygon fill="#a65d1f" stroke="#a65d1f" points="390.334,-345.128 379.665,-342.594 385.424,-346.071 380.514,-347.014 380.514,-347.014 380.514,-347.014 385.424,-346.071 381.362,-351.433 390.334,-345.128 390.334,-345.128"/>
<polygon fill="#a65d1f" stroke="#a65d1f" points="720.008,-268.347 730.863,-269.906 724.813,-266.964 729.618,-265.581 729.618,-265.581 729.618,-265.581 724.813,-266.964 728.373,-261.257 720.008,-268.347 720.008,-268.347"/>
<text text-anchor="middle" x="682.202" y="-288.8" font-family="Times,serif" font-size="14.00">base_tags</text>
</g>
<!-- Product&#45;&gt;ActsAsTaggableOn::Tag -->
<g id="edge9" class="edge"><title>Product&#45;&gt;ActsAsTaggableOn::Tag</title>
<path fill="none" stroke="#b72454" d="M393.899,-353.877C465.903,-352.844 605.074,-344.573 712.988,-300 727.636,-293.95 741.994,-283.929 753.559,-274.52"/>
<polygon fill="#b72454" stroke="#b72454" points="393.774,-353.878 383.728,-349.48 388.774,-353.929 383.774,-353.98 383.774,-353.98 383.774,-353.98 388.774,-353.929 383.82,-358.48 393.774,-353.878 393.774,-353.878"/>
<polygon fill="#b72454" stroke="#b72454" points="753.816,-274.302 764.357,-271.278 757.633,-271.072 761.45,-267.843 761.45,-267.843 761.45,-267.843 757.633,-271.072 758.543,-264.407 753.816,-274.302 753.816,-274.302"/>
<text text-anchor="middle" x="747.264" y="-288.8" font-family="Times,serif" font-size="14.00">tags</text>
</g>
<!-- Store -->
<g id="node7" class="node"><title>Store</title>
<ellipse fill="none" stroke="black" cx="101.988" cy="-164" rx="28.5497" ry="18"/>
<text text-anchor="middle" x="101.988" y="-159.8" font-family="Times,serif" font-size="14.00">Store</text>
</g>
<!-- Store&#45;&gt;Comment -->
<g id="edge11" class="edge"><title>Store&#45;&gt;Comment</title>
<path fill="none" stroke="#f7d9aa" d="M84.5565,-141.287C78.2402,-133.419 71.0652,-124.482 64.5756,-116.398"/>
<ellipse fill="none" stroke="#f7d9aa" cx="87.1161" cy="-144.475" rx="4.00002" ry="4.00002"/>
<polygon fill="#f7d9aa" stroke="#f7d9aa" points="64.3861,-116.162 61.6348,-105.547 61.2559,-112.263 58.1258,-108.364 58.1258,-108.364 58.1258,-108.364 61.2559,-112.263 54.6167,-111.181 64.3861,-116.162 64.3861,-116.162"/>
</g>
<!-- Store&#45;&gt;Like -->
<g id="edge12" class="edge"><title>Store&#45;&gt;Like</title>
<path fill="none" stroke="#657663" d="M120.234,-141.409C127.27,-133.083 135.331,-123.545 142.481,-115.084"/>
<ellipse fill="none" stroke="#657663" cx="117.589" cy="-144.539" rx="4.00002" ry="4.00002"/>
<polygon fill="#657663" stroke="#657663" points="142.54,-115.014 152.432,-110.28 145.767,-111.195 148.995,-107.376 148.995,-107.376 148.995,-107.376 145.767,-111.195 145.558,-104.471 142.54,-115.014 142.54,-115.014"/>
</g>
<!-- Store&#45;&gt;Product -->
<g id="edge10" class="edge"><title>Store&#45;&gt;Product</title>
<path fill="none" stroke="#1c41e5" d="M90.2938,-189.001C87.8214,-196.981 86.5923,-205.898 88.9884,-214 102.576,-259.944 111.276,-278.295 153.988,-300 212.275,-329.619 239.517,-293.145 299.988,-318 307.861,-321.236 315.541,-326.195 322.3,-331.39"/>
<ellipse fill="none" stroke="#1c41e5" cx="91.7106" cy="-185.151" rx="4.00001" ry="4.00001"/>
<polygon fill="#1c41e5" stroke="#1c41e5" points="322.593,-331.631 327.456,-341.459 326.454,-334.808 330.315,-337.984 330.315,-337.984 330.315,-337.984 326.454,-334.808 333.174,-334.51 322.593,-331.631 322.593,-331.631"/>
</g>
<!-- Store&#45;&gt;User -->
<g id="edge13" class="edge"><title>Store&#45;&gt;User</title>
<path fill="none" stroke="#012e8e" d="M98.7316,-192.155C98.9922,-199.65 100.432,-207.5 104.223,-214 109.621,-223.257 118.544,-230.428 127.687,-235.799"/>
<polygon fill="#012e8e" stroke="#012e8e" points="98.7369,-191.972 103.525,-182.106 98.8817,-186.974 99.0265,-181.976 99.0265,-181.976 99.0265,-181.976 98.8817,-186.974 94.5284,-181.845 98.7369,-191.972 98.7369,-191.972"/>
<polygon fill="#012e8e" stroke="#012e8e" points="127.929,-235.926 134.685,-244.564 132.354,-238.254 136.78,-240.581 136.78,-240.581 136.78,-240.581 132.354,-238.254 138.874,-236.598 127.929,-235.926 127.929,-235.926"/>
<text text-anchor="middle" x="133.371" y="-202.8" font-family="Times,serif" font-size="14.00">user_likes</text>
</g>
<!-- User&#45;&gt;Comment -->
<g id="edge16" class="edge"><title>User&#45;&gt;Comment</title>
<path fill="none" stroke="#93afef" d="M129.207,-237.457C116.016,-231.627 100.931,-223.713 88.9884,-214 74.9866,-202.612 71.6043,-198.362 63.9884,-182 54.75,-162.152 49.9574,-137.751 47.4984,-119.366"/>
<ellipse fill="none" stroke="#93afef" cx="133.035" cy="-239.083" rx="4.00002" ry="4.00002"/>
<polygon fill="#93afef" stroke="#93afef" points="47.4843,-119.247 50.7729,-108.786 46.8943,-114.282 46.3043,-109.317 46.3043,-109.317 46.3043,-109.317 46.8943,-114.282 41.8358,-109.848 47.4843,-119.247 47.4843,-119.247"/>
</g>
<!-- User&#45;&gt;Like -->
<g id="edge15" class="edge"><title>User&#45;&gt;Like</title>
<path fill="none" stroke="#3f29db" d="M160.768,-223.861C160.853,-220.545 160.93,-217.191 160.988,-214 161.585,-181.532 161.826,-144.197 161.923,-119.469"/>
<ellipse fill="none" stroke="#3f29db" cx="160.657" cy="-227.913" rx="4" ry="4"/>
<polygon fill="#3f29db" stroke="#3f29db" points="161.923,-119.376 166.457,-109.391 161.94,-114.376 161.957,-109.376 161.957,-109.376 161.957,-109.376 161.94,-114.376 157.457,-109.361 161.923,-119.376 161.923,-119.376"/>
</g>
<!-- User&#45;&gt;Product -->
<g id="edge19" class="edge"><title>User&#45;&gt;Product</title>
<path fill="none" stroke="#2c9b62" d="M156.752,-278.311C157.271,-286.233 159.442,-294.28 164.988,-300 186.057,-321.729 272.052,-306.356 299.988,-318 307.845,-321.275 315.519,-326.247 322.279,-331.442"/>
<polygon fill="#2c9b62" stroke="#2c9b62" points="156.754,-278.173 161.378,-268.229 156.816,-273.173 156.878,-268.174 156.878,-268.174 156.878,-268.174 156.816,-273.173 152.379,-268.118 156.754,-278.173 156.754,-278.173"/>
<polygon fill="#2c9b62" stroke="#2c9b62" points="322.57,-331.682 327.438,-341.508 326.433,-334.857 330.295,-338.031 330.295,-338.031 330.295,-338.031 326.433,-334.857 333.153,-334.555 322.57,-331.682 322.57,-331.682"/>
</g>
<!-- User&#45;&gt;Store -->
<g id="edge14" class="edge"><title>User&#45;&gt;Store</title>
<path fill="none" stroke="#e97374" d="M127.706,-239.301C115.556,-233.905 102.995,-225.818 95.9884,-214 91.6612,-206.702 91.5782,-197.72 93.1038,-189.449"/>
<ellipse fill="none" stroke="#e97374" cx="131.457" cy="-240.82" rx="4.00002" ry="4.00002"/>
<ellipse fill="#e97374" stroke="#e97374" cx="94.1081" cy="-185.386" rx="4.00001" ry="4.00001"/>
</g>
<!-- UserWishlist -->
<g id="node9" class="node"><title>UserWishlist</title>
<ellipse fill="none" stroke="black" cx="325.988" cy="-91" rx="55.8697" ry="18"/>
<text text-anchor="middle" x="325.988" y="-86.8" font-family="Times,serif" font-size="14.00">UserWishlist</text>
</g>
<!-- User&#45;&gt;UserWishlist -->
<g id="edge17" class="edge"><title>User&#45;&gt;UserWishlist</title>
<path fill="none" stroke="#33862e" d="M178.289,-227.75C197.169,-206.274 227.884,-172.56 256.988,-146 269.222,-134.836 283.53,-123.401 295.935,-113.944"/>
<ellipse fill="none" stroke="#33862e" cx="175.457" cy="-230.989" rx="4.00002" ry="4.00002"/>
<polygon fill="#33862e" stroke="#33862e" points="296.183,-113.758 306.878,-111.336 300.177,-110.75 304.171,-107.741 304.171,-107.741 304.171,-107.741 300.177,-110.75 301.464,-104.147 296.183,-113.758 296.183,-113.758"/>
</g>
<!-- User&#45;&gt;Wishlist -->
<g id="edge18" class="edge"><title>User&#45;&gt;Wishlist</title>
<path fill="none" stroke="#95aa39" d="M188.519,-232.472C212.737,-218.442 247.475,-198.318 272.706,-183.702"/>
<polygon fill="#95aa39" stroke="#95aa39" points="188.499,-232.484 177.59,-233.602 184.172,-234.99 179.846,-237.496 179.846,-237.496 179.846,-237.496 184.172,-234.99 182.102,-241.39 188.499,-232.484 188.499,-232.484"/>
<polygon fill="#95aa39" stroke="#95aa39" points="272.881,-183.6 283.79,-182.481 277.208,-181.094 281.534,-178.587 281.534,-178.587 281.534,-178.587 277.208,-181.094 279.279,-174.693 272.881,-183.6 272.881,-183.6"/>
</g>
<!-- UserWishlist&#45;&gt;Product -->
<g id="edge21" class="edge"><title>UserWishlist&#45;&gt;Product</title>
<path fill="none" stroke="#390a4a" d="M341.812,-117.583C346.35,-126.276 350.689,-136.261 352.988,-146 367.933,-209.305 358.33,-286.466 351.362,-326.494"/>
<polygon fill="#390a4a" stroke="#390a4a" points="341.751,-117.472 340.831,-106.545 339.324,-113.101 336.897,-108.729 336.897,-108.729 336.897,-108.729 339.324,-113.101 332.963,-110.914 341.751,-117.472 341.751,-117.472"/>
<polygon fill="#390a4a" stroke="#390a4a" points="351.326,-326.69 345.105,-335.721 350.429,-331.609 349.532,-336.528 349.532,-336.528 349.532,-336.528 350.429,-331.609 353.959,-337.335 351.326,-326.69 351.326,-326.69"/>
</g>
<!-- UserWishlist&#45;&gt;ProductWishlist -->
<g id="edge20" class="edge"><title>UserWishlist&#45;&gt;ProductWishlist</title>
<path fill="none" stroke="#ccfd1b" d="M325.988,-64.791C325.988,-58.832 325.988,-52.4496 325.988,-46.3988"/>
<ellipse fill="none" stroke="#ccfd1b" cx="325.988" cy="-68.8129" rx="4" ry="4"/>
<polygon fill="#ccfd1b" stroke="#ccfd1b" points="325.989,-46.0288 330.488,-36.0288 325.988,-41.0288 325.988,-36.0288 325.988,-36.0288 325.988,-36.0288 325.988,-41.0288 321.488,-36.0289 325.989,-46.0288 325.989,-46.0288"/>
</g>
<!-- Wishlist&#45;&gt;ProductWishlist -->
<g id="edge23" class="edge"><title>Wishlist&#45;&gt;ProductWishlist</title>
<path fill="none" stroke="#df3c8b" d="M281.711,-141.449C273.509,-132.331 265.27,-121.034 260.988,-109 255.625,-93.9258 254.191,-87.4843 260.988,-73 267.157,-59.8548 278.272,-48.8023 289.587,-40.1891"/>
<ellipse fill="none" stroke="#df3c8b" cx="284.586" cy="-144.49" rx="4.00002" ry="4.00002"/>
<polygon fill="#df3c8b" stroke="#df3c8b" points="289.643,-40.149 300.401,-38.0208 293.718,-37.2513 297.793,-34.3535 297.793,-34.3535 297.793,-34.3535 293.718,-37.2513 295.185,-30.6863 289.643,-40.149 289.643,-40.149"/>
</g>
<!-- Wishlist&#45;&gt;UserWishlist -->
<g id="edge22" class="edge"><title>Wishlist&#45;&gt;UserWishlist</title>
<path fill="none" stroke="#76877c" d="M312.359,-138.08C314.18,-131.924 316.139,-125.302 317.987,-119.051"/>
<ellipse fill="none" stroke="#76877c" cx="311.206" cy="-141.977" rx="4.00001" ry="4.00001"/>
<polygon fill="#76877c" stroke="#76877c" points="318.115,-118.618 325.267,-110.305 319.534,-113.824 320.952,-109.029 320.952,-109.029 320.952,-109.029 319.534,-113.824 316.637,-107.752 318.115,-118.618 318.115,-118.618"/>
</g>
</g>
</svg>
