<?xml version="1.0" encoding="UTF-8" standalone="no"?>
<!DOCTYPE svg PUBLIC "-//W3C//DTD SVG 1.1//EN"
 "http://www.w3.org/Graphics/SVG/1.1/DTD/svg11.dtd">
<!-- Generated by graphviz version 2.38.0 (20140413.2041)
 -->
<!-- Title: models_diagram Pages: 1 -->
<svg width="909pt" height="326pt"
 viewBox="0.00 0.00 909.03 326.00" xmlns="http://www.w3.org/2000/svg" xmlns:xlink="http://www.w3.org/1999/xlink">
<g id="graph0" class="graph" transform="scale(1 1) rotate(0) translate(4 322)">
<title>models_diagram</title>
<polygon fill="none" stroke="none" points="-4,4 -4,-322 905.028,-322 905.028,4 -4,4"/>
<!-- _diagram_info -->
<g id="node1" class="node"><title>_diagram_info</title>
<text text-anchor="start" x="87.0596" y="-303.6" font-family="Times,serif" font-size="13.00">Models diagram</text>
<text text-anchor="start" x="87.0596" y="-290.6" font-family="Times,serif" font-size="13.00">Date: May 09 2016 &#45; 21:58</text>
<text text-anchor="start" x="87.0596" y="-277.6" font-family="Times,serif" font-size="13.00">Migration version: 20160510000125</text>
<text text-anchor="start" x="87.0596" y="-264.6" font-family="Times,serif" font-size="13.00">Generated by RailRoady 1.4.2</text>
<text text-anchor="start" x="87.0596" y="-251.6" font-family="Times,serif" font-size="13.00">http://railroady.prestonlee.com</text>
</g>
<!-- Ability -->
<g id="node2" class="node"><title>Ability</title>
<polygon fill="none" stroke="black" points="360.417,-299.5 305.077,-299.5 305.077,-263.5 360.417,-263.5 360.417,-299.5"/>
<text text-anchor="middle" x="332.747" y="-277.3" font-family="Times,serif" font-size="14.00">Ability</text>
</g>
<!-- Category -->
<g id="node3" class="node"><title>Category</title>
<ellipse fill="none" stroke="black" cx="102.747" cy="-177" rx="42.5456" ry="18"/>
<text text-anchor="middle" x="102.747" y="-172.8" font-family="Times,serif" font-size="14.00">Category</text>
</g>
<!-- Wishlist -->
<g id="node10" class="node"><title>Wishlist</title>
<ellipse fill="none" stroke="black" cx="119.747" cy="-91" rx="39.4749" ry="18"/>
<text text-anchor="middle" x="119.747" y="-86.8" font-family="Times,serif" font-size="14.00">Wishlist</text>
</g>
<!-- Category&#45;&gt;Wishlist -->
<g id="edge1" class="edge"><title>Category&#45;&gt;Wishlist</title>
<path fill="none" stroke="#96a1e3" d="M107.809,-150.991C109.845,-140.929 112.198,-129.303 114.274,-119.045"/>
<ellipse fill="none" stroke="#96a1e3" cx="106.981" cy="-155.081" rx="4.00001" ry="4.00001"/>
<polygon fill="#96a1e3" stroke="#96a1e3" points="114.329,-118.775 120.723,-109.866 115.32,-113.874 116.312,-108.973 116.312,-108.973 116.312,-108.973 115.32,-113.874 111.902,-108.081 114.329,-118.775 114.329,-118.775"/>
</g>
<!-- Comment -->
<g id="node4" class="node"><title>Comment</title>
<ellipse fill="none" stroke="black" cx="254.747" cy="-18" rx="44.9768" ry="18"/>
<text text-anchor="middle" x="254.747" y="-13.8" font-family="Times,serif" font-size="14.00">Comment</text>
</g>
<!-- Like -->
<g id="node5" class="node"><title>Like</title>
<ellipse fill="none" stroke="black" cx="384.747" cy="-18" rx="27" ry="18"/>
<text text-anchor="middle" x="384.747" y="-13.8" font-family="Times,serif" font-size="14.00">Like</text>
</g>
<!-- Product -->
<g id="node6" class="node"><title>Product</title>
<ellipse fill="none" stroke="black" cx="415.747" cy="-281.5" rx="37.7352" ry="18"/>
<text text-anchor="middle" x="415.747" y="-277.3" font-family="Times,serif" font-size="14.00">Product</text>
</g>
<!-- Product&#45;&gt;Comment -->
<g id="edge2" class="edge"><title>Product&#45;&gt;Comment</title>
<path fill="none" stroke="#990f49" d="M392.27,-259.778C385.356,-254.417 377.545,-249.027 369.747,-245 322.391,-220.545 287.127,-241.312 260.747,-195 234.097,-148.214 241.275,-82.5042 248.35,-46.0508"/>
<ellipse fill="none" stroke="#990f49" cx="395.736" cy="-262.57" rx="4.00002" ry="4.00002"/>
<polygon fill="#990f49" stroke="#990f49" points="248.372,-45.9472 254.815,-37.0742 249.391,-41.0522 250.41,-36.1571 250.41,-36.1571 250.41,-36.1571 249.391,-41.0522 246.004,-35.24 248.372,-45.9472 248.372,-45.9472"/>
</g>
<!-- Product&#45;&gt;Like -->
<g id="edge3" class="edge"><title>Product&#45;&gt;Like</title>
<path fill="none" stroke="#782e3c" d="M419.2,-255.072C420.516,-242.43 421.533,-226.917 420.747,-213 416.741,-141.995 423.347,-122.069 402.747,-54 401.727,-50.6278 400.387,-47.1942 398.898,-43.8606"/>
<ellipse fill="none" stroke="#782e3c" cx="418.713" cy="-259.336" rx="4.00001" ry="4.00001"/>
<polygon fill="#782e3c" stroke="#782e3c" points="398.882,-43.8283 398.482,-32.8698 396.665,-39.3467 394.448,-34.865 394.448,-34.865 394.448,-34.865 396.665,-39.3467 390.415,-36.8603 398.882,-43.8283 398.882,-43.8283"/>
</g>
<!-- ProductWishlist -->
<g id="node7" class="node"><title>ProductWishlist</title>
<ellipse fill="none" stroke="black" cx="66.7473" cy="-18" rx="66.9956" ry="18"/>
<text text-anchor="middle" x="66.7473" y="-13.8" font-family="Times,serif" font-size="14.00">ProductWishlist</text>
</g>
<!-- Product&#45;&gt;ProductWishlist -->
<g id="edge5" class="edge"><title>Product&#45;&gt;ProductWishlist</title>
<path fill="none" stroke="#e2a4f7" d="M393.895,-259.641C386.722,-253.946 378.365,-248.411 369.747,-245 303.029,-218.593 95.1561,-251.361 50.7473,-195 16.6694,-151.75 38.2336,-82.6459 54.1739,-45.1909"/>
<ellipse fill="none" stroke="#e2a4f7" cx="397.058" cy="-262.291" rx="4.00002" ry="4.00002"/>
<polygon fill="#e2a4f7" stroke="#e2a4f7" points="54.2177,-45.0918 62.383,-37.772 56.2432,-40.5204 58.2688,-35.9491 58.2688,-35.9491 58.2688,-35.9491 56.2432,-40.5204 54.1545,-34.1261 54.2177,-45.0918 54.2177,-45.0918"/>
</g>
<!-- User -->
<g id="node9" class="node"><title>User</title>
<ellipse fill="none" stroke="black" cx="296.747" cy="-177" rx="27" ry="18"/>
<text text-anchor="middle" x="296.747" y="-172.8" font-family="Times,serif" font-size="14.00">User</text>
</g>
<!-- Product&#45;&gt;User -->
<g id="edge4" class="edge"><title>Product&#45;&gt;User</title>
<path fill="none" stroke="#71843e" d="M389.93,-258.656C383.56,-253.814 376.594,-248.954 369.747,-245 351.534,-234.481 341.911,-240.734 325.982,-227 318.677,-220.702 312.701,-212.108 308.098,-203.874"/>
<polygon fill="#71843e" stroke="#71843e" points="390.327,-258.968 395.396,-268.692 394.254,-262.063 398.181,-265.158 398.181,-265.158 398.181,-265.158 394.254,-262.063 400.967,-261.624 390.327,-258.968 390.327,-258.968"/>
<polygon fill="#71843e" stroke="#71843e" points="308.047,-203.773 307.493,-192.822 305.767,-199.323 303.488,-194.873 303.488,-194.873 303.488,-194.873 305.767,-199.323 299.483,-196.924 308.047,-203.773 308.047,-203.773"/>
<text text-anchor="middle" x="355.13" y="-215.8" font-family="Times,serif" font-size="14.00">user_likes</text>
</g>
<!-- Product&#45;&gt;Wishlist -->
<g id="edge6" class="edge"><title>Product&#45;&gt;Wishlist</title>
<path fill="none" stroke="#c6fb4b" d="M392.099,-258.292C385.339,-253.098 377.649,-248.163 369.747,-245 298.39,-216.435 262.225,-268.837 197.747,-227 187.455,-220.322 152.62,-155.394 133.167,-118.071"/>
<polygon fill="#c6fb4b" stroke="#c6fb4b" points="392.394,-258.535 397.246,-268.369 396.251,-261.716 400.109,-264.897 400.109,-264.897 400.109,-264.897 396.251,-261.716 402.972,-261.425 392.394,-258.535 392.394,-258.535"/>
<polygon fill="#c6fb4b" stroke="#c6fb4b" points="132.955,-117.663 132.343,-106.714 130.652,-113.225 128.349,-108.787 128.349,-108.787 128.349,-108.787 130.652,-113.225 124.355,-110.86 132.955,-117.663 132.955,-117.663"/>
</g>
<!-- ActsAsTaggableOn::Tagging -->
<g id="node11" class="node"><title>ActsAsTaggableOn::Tagging</title>
<ellipse fill="none" stroke="black" cx="575.747" cy="-177" rx="113.006" ry="18"/>
<text text-anchor="middle" x="575.747" y="-172.8" font-family="Times,serif" font-size="14.00">ActsAsTaggableOn::Tagging</text>
</g>
<!-- Product&#45;&gt;ActsAsTaggableOn::Tagging -->
<g id="edge7" class="edge"><title>Product&#45;&gt;ActsAsTaggableOn::Tagging</title>
<path fill="none" stroke="#fae18a" d="M434.87,-258.134C448.133,-243.72 466.851,-225.418 486.306,-213 495.872,-206.894 506.674,-201.56 517.378,-197.02"/>
<ellipse fill="none" stroke="#fae18a" cx="431.856" cy="-261.478" rx="4.00002" ry="4.00002"/>
<polygon fill="#fae18a" stroke="#fae18a" points="517.457,-196.988 528.415,-197.407 522.092,-195.112 526.726,-193.236 526.726,-193.236 526.726,-193.236 522.092,-195.112 525.038,-189.064 517.457,-196.988 517.457,-196.988"/>
<text text-anchor="middle" x="510.468" y="-215.8" font-family="Times,serif" font-size="14.00">taggings</text>
</g>
<!-- Product&#45;&gt;ActsAsTaggableOn::Tagging -->
<g id="edge9" class="edge"><title>Product&#45;&gt;ActsAsTaggableOn::Tagging</title>
<path fill="none" stroke="#2c9117" d="M453.934,-268.049C478.232,-258.997 509.561,-245.155 533.747,-227 542.618,-220.341 550.909,-211.504 557.742,-203.17"/>
<ellipse fill="none" stroke="#2c9117" cx="450.07" cy="-269.453" rx="4.00001" ry="4.00001"/>
<polygon fill="#2c9117" stroke="#2c9117" points="557.893,-202.977 567.6,-197.876 560.975,-199.04 564.057,-195.103 564.057,-195.103 564.057,-195.103 560.975,-199.04 560.513,-192.329 557.893,-202.977 557.893,-202.977"/>
<text text-anchor="middle" x="584.52" y="-215.8" font-family="Times,serif" font-size="14.00">tag_taggings</text>
</g>
<!-- ActsAsTaggableOn::Tag -->
<g id="node12" class="node"><title>ActsAsTaggableOn::Tag</title>
<ellipse fill="none" stroke="black" cx="803.747" cy="-177" rx="97.0617" ry="18"/>
<text text-anchor="middle" x="803.747" y="-172.8" font-family="Times,serif" font-size="14.00">ActsAsTaggableOn::Tag</text>
</g>
<!-- Product&#45;&gt;ActsAsTaggableOn::Tag -->
<g id="edge8" class="edge"><title>Product&#45;&gt;ActsAsTaggableOn::Tag</title>
<path fill="none" stroke="#f7ac7e" d="M458.313,-269.824C500.583,-259.17 567.216,-242.237 624.747,-227 663.867,-216.639 707.689,-204.65 742.182,-195.124"/>
<polygon fill="#f7ac7e" stroke="#f7ac7e" points="458.07,-269.885 447.273,-267.963 453.221,-271.106 448.372,-272.327 448.372,-272.327 448.372,-272.327 453.221,-271.106 449.471,-276.691 458.07,-269.885 458.07,-269.885"/>
<polygon fill="#f7ac7e" stroke="#f7ac7e" points="742.472,-195.044 753.309,-196.716 747.291,-193.712 752.11,-192.379 752.11,-192.379 752.11,-192.379 747.291,-193.712 750.911,-188.042 742.472,-195.044 742.472,-195.044"/>
<text text-anchor="middle" x="700.961" y="-215.8" font-family="Times,serif" font-size="14.00">base_tags</text>
</g>
<!-- Product&#45;&gt;ActsAsTaggableOn::Tag -->
<g id="edge10" class="edge"><title>Product&#45;&gt;ActsAsTaggableOn::Tag</title>
<path fill="none" stroke="#29ab60" d="M463.24,-278.756C526.598,-275.039 641.29,-263.407 731.747,-227 747.626,-220.609 763.54,-210.289 776.354,-200.764"/>
<polygon fill="#29ab60" stroke="#29ab60" points="463.134,-278.762 452.904,-274.813 458.141,-279.034 453.149,-279.306 453.149,-279.306 453.149,-279.306 458.141,-279.034 453.394,-283.799 463.134,-278.762 463.134,-278.762"/>
<polygon fill="#29ab60" stroke="#29ab60" points="776.363,-200.758 787.035,-198.239 780.329,-197.713 784.295,-194.669 784.295,-194.669 784.295,-194.669 780.329,-197.713 781.555,-191.099 776.363,-200.758 776.363,-200.758"/>
<text text-anchor="middle" x="768.023" y="-215.8" font-family="Times,serif" font-size="14.00">tags</text>
</g>
<!-- Store -->
<g id="node8" class="node"><title>Store</title>
<ellipse fill="none" stroke="black" cx="312.747" cy="-91" rx="28.5497" ry="18"/>
<text text-anchor="middle" x="312.747" y="-86.8" font-family="Times,serif" font-size="14.00">Store</text>
</g>
<!-- Store&#45;&gt;Comment -->
<g id="edge12" class="edge"><title>Store&#45;&gt;Comment</title>
<path fill="none" stroke="#8021dd" d="M295.01,-68.2866C288.515,-60.3361 281.128,-51.2933 274.47,-43.1431"/>
<ellipse fill="none" stroke="#8021dd" cx="297.632" cy="-71.4963" rx="4.00002" ry="4.00002"/>
<polygon fill="#8021dd" stroke="#8021dd" points="274.442,-43.1085 271.6,-32.5171 271.278,-39.2363 268.115,-35.364 268.115,-35.364 268.115,-35.364 271.278,-39.2363 264.63,-38.211 274.442,-43.1085 274.442,-43.1085"/>
</g>
<!-- Store&#45;&gt;Like -->
<g id="edge13" class="edge"><title>Store&#45;&gt;Like</title>
<path fill="none" stroke="#4d0768" d="M333.473,-69.562C342.555,-60.6067 353.228,-50.0817 362.478,-40.9596"/>
<ellipse fill="none" stroke="#4d0768" cx="330.514" cy="-72.4802" rx="4.00002" ry="4.00002"/>
<polygon fill="#4d0768" stroke="#4d0768" points="362.728,-40.7139 373.008,-36.8966 366.288,-37.2031 369.848,-33.6924 369.848,-33.6924 369.848,-33.6924 366.288,-37.2031 366.688,-30.4882 362.728,-40.7139 362.728,-40.7139"/>
</g>
<!-- Store&#45;&gt;Product -->
<g id="edge11" class="edge"><title>Store&#45;&gt;Product</title>
<path fill="none" stroke="#729f30" d="M342.4,-106.164C351.267,-111.618 360.326,-118.594 366.747,-127 395.584,-164.747 407.724,-219.954 412.63,-252.851"/>
<ellipse fill="none" stroke="#729f30" cx="338.85" cy="-104.117" rx="4.00002" ry="4.00002"/>
<polygon fill="#729f30" stroke="#729f30" points="412.676,-253.186 409.572,-263.704 413.353,-258.14 414.031,-263.094 414.031,-263.094 414.031,-263.094 413.353,-258.14 418.489,-262.485 412.676,-253.186 412.676,-253.186"/>
</g>
<!-- Store&#45;&gt;User -->
<g id="edge14" class="edge"><title>Store&#45;&gt;User</title>
<path fill="none" stroke="#f8303a" d="M307.633,-118.849C305.794,-128.504 303.72,-139.392 301.88,-149.055"/>
<polygon fill="#f8303a" stroke="#f8303a" points="307.643,-118.797 313.935,-109.815 308.579,-113.885 309.514,-108.973 309.514,-108.973 309.514,-108.973 308.579,-113.885 305.094,-108.131 307.643,-118.797 307.643,-118.797"/>
<polygon fill="#f8303a" stroke="#f8303a" points="301.856,-149.178 295.565,-158.159 300.921,-154.09 299.985,-159.001 299.985,-159.001 299.985,-159.001 300.921,-154.09 304.406,-159.843 301.856,-149.178 301.856,-149.178"/>
<text text-anchor="middle" x="334.13" y="-129.8" font-family="Times,serif" font-size="14.00">user_likes</text>
</g>
<!-- User&#45;&gt;Comment -->
<g id="edge17" class="edge"><title>User&#45;&gt;Comment</title>
<path fill="none" stroke="#93919d" d="M288.074,-151.543C283.764,-138.927 278.656,-123.236 274.747,-109 268.973,-87.9687 263.679,-63.8288 259.991,-45.8475"/>
<ellipse fill="none" stroke="#93919d" cx="289.463" cy="-155.562" rx="4.00001" ry="4.00001"/>
<polygon fill="#93919d" stroke="#93919d" points="259.99,-45.8446 262.424,-35.1523 259.002,-40.9433 258.013,-36.0421 258.013,-36.0421 258.013,-36.0421 259.002,-40.9433 253.602,-36.9319 259.99,-45.8446 259.99,-45.8446"/>
</g>
<!-- User&#45;&gt;Like -->
<g id="edge16" class="edge"><title>User&#45;&gt;Like</title>
<path fill="none" stroke="#b8363b" d="M329.495,-167.057C343.086,-161.69 357.753,-153.418 366.747,-141 386.725,-113.415 388.825,-73.0028 387.551,-46.3571"/>
<ellipse fill="none" stroke="#b8363b" cx="325.429" cy="-168.529" rx="4.00001" ry="4.00001"/>
<polygon fill="#b8363b" stroke="#b8363b" points="387.539,-46.1747 391.361,-35.8963 387.205,-41.1859 386.871,-36.1971 386.871,-36.1971 386.871,-36.1971 387.205,-41.1859 382.381,-36.4979 387.539,-46.1747 387.539,-46.1747"/>
</g>
<!-- User&#45;&gt;Store -->
<g id="edge15" class="edge"><title>User&#45;&gt;Store</title>
<path fill="none" stroke="#143c7b" d="M297.648,-150.174C298.235,-142.647 299.192,-134.446 300.747,-127 301.456,-123.605 302.4,-120.084 303.448,-116.643"/>
<ellipse fill="none" stroke="#143c7b" cx="297.367" cy="-154.623" rx="4" ry="4"/>
<ellipse fill="#143c7b" stroke="#143c7b" cx="304.767" cy="-112.65" rx="4.00001" ry="4.00001"/>
</g>
<!-- User&#45;&gt;Wishlist -->
<g id="edge18" class="edge"><title>User&#45;&gt;Wishlist</title>
<path fill="none" stroke="#1b7054" d="M268.136,-162.422C237.427,-147.848 188.594,-124.673 155.405,-108.922"/>
<ellipse fill="none" stroke="#1b7054" cx="271.783" cy="-164.153" rx="4.00002" ry="4.00002"/>
<polygon fill="#1b7054" stroke="#1b7054" points="155.1,-108.778 147.995,-100.425 150.583,-106.634 146.066,-104.49 146.066,-104.49 146.066,-104.49 150.583,-106.634 144.137,-108.556 155.1,-108.778 155.1,-108.778"/>
</g>
<!-- Wishlist&#45;&gt;ProductWishlist -->
<g id="edge19" class="edge"><title>Wishlist&#45;&gt;ProductWishlist</title>
<path fill="none" stroke="#561995" d="M102.455,-66.8348C97.0392,-59.5797 91.0374,-51.5395 85.5243,-44.154"/>
<ellipse fill="none" stroke="#561995" cx="105.062" cy="-70.3273" rx="4.00002" ry="4.00002"/>
<polygon fill="#561995" stroke="#561995" points="85.3231,-43.8846 82.9473,-33.1791 82.3322,-39.8778 79.3412,-35.871 79.3412,-35.871 79.3412,-35.871 82.3322,-39.8778 75.7351,-38.5629 85.3231,-43.8846 85.3231,-43.8846"/>
</g>
</g>
</svg>
